<svg width="24" height="24" viewBox="0 0 24 24" fill="none" xmlns="http://www.w3.org/2000/svg">
<path fill-rule="evenodd" clip-rule="evenodd" d="M6.44 18.9949L6.43577 18.9949C4.64857 18.9999 4.13045 18.7428 3.94238 18.5572C3.75979 18.3771 3.5 17.8783 3.5 16.1149V9.25482H20.5V13.25C20.5 13.6642 20.8358 14 21.25 14H21.338C21.7036 14 22 13.7036 22 13.338V7.89488C22 4.38488 21.11 3.50488 17.55 3.50488H6.44C2.89 3.50488 2 4.38488 2 7.89488V16.1149C2 19.6249 2.89 20.5049 6.44 20.4949H15.7889C16.1816 20.4949 16.5 20.1765 16.5 19.7838V19.7449C16.5 19.3307 16.1642 18.9949 15.75 18.9949H6.44ZM20.4994 7.75482H3.50056C3.51396 6.10545 3.76448 5.62718 3.94339 5.45028C4.13317 5.26263 4.65301 5.00488 6.44 5.00488H17.55C19.3427 5.00488 19.8654 5.2628 20.0564 5.45127C20.2354 5.62798 20.486 6.10537 20.4994 7.75482ZM6 15.7549C5.58579 15.7549 5.25 16.0907 5.25 16.5049C5.25 16.9191 5.58579 17.2549 6 17.2549H9C9.41421 17.2549 9.75 16.9191 9.75 16.5049C9.75 16.0907 9.41421 15.7549 9 15.7549H6ZM10.75 16.5049C10.75 16.0907 11.0858 15.7549 11.5 15.7549H12.5C12.9142 15.7549 13.25 16.0907 13.25 16.5049C13.25 16.9192 12.9142 17.2549 12.5 17.2549H11.5C11.0858 17.2549 10.75 16.9192 10.75 16.5049Z" fill="color3"/>
<path d="M18.2763 15.2185C18.5699 14.9262 19.0448 14.9273 19.337 15.2209L20.7806 16.6711L22.1842 15.2744C22.4778 14.9822 22.9527 14.9834 23.2448 15.277C23.537 15.5706 23.5359 16.0455 23.2422 16.3377L21.8389 17.7342L23.2815 19.1833C23.5737 19.4769 23.5727 19.9518 23.2791 20.244C22.9855 20.5362 22.5107 20.5351 22.2184 20.2416L20.7756 18.7922L19.279 20.2815C18.9854 20.5736 18.5105 20.5725 18.2184 20.2789C17.9262 19.9852 17.9274 19.5104 18.221 19.2182L19.7174 17.7291L18.2739 16.2791C17.9817 15.9856 17.9828 15.5107 18.2763 15.2185Z" fill="color2"/>
</svg>
