<svg width="24" height="24" viewBox="0 0 24 24" fill="none" xmlns="http://www.w3.org/2000/svg">
<path fill-rule="evenodd" clip-rule="evenodd" d="M4.48118 18.15L10.425 21.58C11.4057 22.14 12.6065 22.14 13.5771 21.58L19.521 18.15C20.4916 17.58 21.092 16.54 21.092 15.42V8.58002C21.092 7.45003 20.4916 6.41999 19.521 5.84999L13.5771 2.42C12.5965 1.86 11.3957 1.86 10.425 2.42L4.48118 5.84999C3.51055 6.41999 2.91016 7.46002 2.91016 8.58002V15.42C2.91016 16.55 3.51055 17.59 4.48118 18.15ZM5.16786 7.02813C4.61171 7.35654 4.27379 7.9506 4.27379 8.58002V15.42C4.27379 16.0652 4.61629 16.6537 5.16264 16.9689L11.1013 20.3958C11.102 20.3963 11.1028 20.3967 11.1036 20.3972C11.6668 20.7177 12.3495 20.7139 12.8955 20.3989C12.8955 20.3989 12.8956 20.3989 12.8955 20.3989L18.8343 16.9719C19.3904 16.6435 19.7283 16.0494 19.7283 15.42V8.58002C19.7283 7.94301 19.3925 7.35772 18.8343 7.02813L12.9009 3.60416C12.9001 3.60372 12.8993 3.60328 12.8986 3.60285C12.3353 3.28226 11.6526 3.28613 11.1066 3.60109C11.1066 3.60111 11.1066 3.60107 11.1066 3.60109L5.16786 7.02813Z" fill="color3"/>
<path fill-rule="evenodd" clip-rule="evenodd" d="M12.681 7.45477C12.681 7.07821 12.3758 6.77295 11.9992 6.77295C11.6226 6.77295 11.3174 7.07821 11.3174 7.45477V13.8184C11.3174 14.195 11.6226 14.5002 11.9992 14.5002C12.3758 14.5002 12.681 14.195 12.681 13.8184V7.45477ZM12.908 16.5453C12.908 16.0432 12.501 15.6362 11.9989 15.6362C11.4969 15.6362 11.0898 16.0432 11.0898 16.5453V16.6362C11.0898 17.1383 11.4969 17.5453 11.9989 17.5453C12.501 17.5453 12.908 17.1383 12.908 16.6362V16.5453Z" fill="color2"/>
</svg>
