<svg width="24" height="24" viewBox="0 0 24 24" fill="none" xmlns="http://www.w3.org/2000/svg">
<path fill-rule="evenodd" clip-rule="evenodd" d="M12.75 5.56006C12.75 5.14585 13.0858 4.81006 13.5 4.81006H21C21.4142 4.81006 21.75 5.14585 21.75 5.56006C21.75 5.97427 21.4142 6.31006 21 6.31006H13.5C13.0858 6.31006 12.75 5.97427 12.75 5.56006Z" fill="#1B1D29"/>
<path fill-rule="evenodd" clip-rule="evenodd" d="M19.78 3.5H14.22C13.8877 3.5 13.6744 3.5183 13.5396 3.54149C13.5175 3.67244 13.5 3.87903 13.5 4.2V8.31C13.5 8.63097 13.5175 8.83756 13.5396 8.9685C13.6744 8.9917 13.8877 9.01 14.22 9.01H19.78C20.1123 9.01 20.3256 8.9917 20.4604 8.9685C20.4825 8.83756 20.5 8.63097 20.5 8.31V4.2C20.5 3.87903 20.4825 3.67244 20.4604 3.54149C20.3256 3.5183 20.1123 3.5 19.78 3.5ZM19.78 2H14.22C12.44 2 12 2.44 12 4.2V8.31C12 10.07 12.44 10.51 14.22 10.51H19.78C21.56 10.51 22 10.07 22 8.31V4.2C22 2.44 21.56 2 19.78 2Z" fill="#1B1D29"/>
<path fill-rule="evenodd" clip-rule="evenodd" d="M2.25 17.0601C2.25 16.6458 2.58579 16.3101 3 16.3101H10.5C10.9142 16.3101 11.25 16.6458 11.25 17.0601C11.25 17.4743 10.9142 17.8101 10.5 17.8101H3C2.58579 17.8101 2.25 17.4743 2.25 17.0601Z" fill="#1B1D29"/>
<path fill-rule="evenodd" clip-rule="evenodd" d="M9.78 15H4.22C3.88765 15 3.67444 15.0183 3.53962 15.0415C3.51753 15.1724 3.5 15.379 3.5 15.7V19.81C3.5 20.131 3.51754 20.3376 3.53962 20.4685C3.67444 20.4917 3.88765 20.51 4.22 20.51H9.78C10.1123 20.51 10.3256 20.4917 10.4604 20.4685C10.4825 20.3376 10.5 20.131 10.5 19.81V15.7C10.5 15.379 10.4825 15.1724 10.4604 15.0415C10.3256 15.0183 10.1123 15 9.78 15ZM9.78 13.5H4.22C2.44 13.5 2 13.94 2 15.7V19.81C2 21.57 2.44 22.01 4.22 22.01H9.78C11.56 22.01 12 21.57 12 19.81V15.7C12 13.94 11.56 13.5 9.78 13.5Z" fill="#1B1D29"/>
<path fill-rule="evenodd" clip-rule="evenodd" d="M21.25 13.5C21.6642 13.5 22 13.8358 22 14.25C22 18.5342 18.5342 22 14.25 22C13.9798 22 13.7305 21.8547 13.5974 21.6195C13.4642 21.3844 13.4679 21.0958 13.6069 20.8641L14.6569 19.1141C14.87 18.7589 15.3307 18.6438 15.6859 18.8569C16.041 19.07 16.1562 19.5307 15.9431 19.8859L15.6718 20.3381C18.4409 19.6956 20.5 17.2166 20.5 14.25C20.5 13.8358 20.8358 13.5 21.25 13.5Z" fill="#FFC709"/>
<path fill-rule="evenodd" clip-rule="evenodd" d="M8.32821 3.66194C5.5591 4.30436 3.5 6.78342 3.5 9.75C3.5 10.1642 3.16421 10.5 2.75 10.5C2.33579 10.5 2 10.1642 2 9.75C2 5.46579 5.46579 2 9.75 2C10.0202 2 10.2695 2.14534 10.4026 2.38047C10.5358 2.6156 10.5321 2.90417 10.3931 3.13587L9.34313 4.88587C9.13002 5.24105 8.66933 5.35623 8.31414 5.14312C7.95896 4.93001 7.84378 4.46932 8.05689 4.11413L8.32821 3.66194Z" fill="#FFC709"/>
</svg>
