<svg width="24" height="24" viewBox="0 0 24 24" fill="none" xmlns="http://www.w3.org/2000/svg">
<path fill-rule="evenodd" clip-rule="evenodd" d="M7.5 11V8.75C7.5 6.95636 7.7558 5.67418 8.3446 4.85185C8.85328 4.14143 9.81733 3.5 12 3.5C14.1827 3.5 15.1467 4.14143 15.6554 4.85185C16.2442 5.67418 16.5 6.95636 16.5 8.75V11H18V8.75C18 5.02625 17 2 12 2C7 2 6 5.02625 6 8.75V11H7.5ZM10.9956 16C10.9956 15.4477 11.4433 15 11.9956 15H12.0046C12.5569 15 13.0046 15.4477 13.0046 16C13.0046 16.5523 12.5569 17 12.0046 17H11.9956C11.4433 17 10.9956 16.5523 10.9956 16Z" fill="color3"/>
<path fill-rule="evenodd" clip-rule="evenodd" d="M7 20.5H17C19.0107 20.5 18.727 20.273 19 20C19.273 19.727 19.5 19.0107 19.5 17V15C19.5 12.9893 19.273 12.273 19 12C18.727 11.727 19.0107 11.5 17 11.5H7C4.98928 11.5 5.27299 11.727 5 12C4.72701 12.273 4.5 12.9893 4.5 15V17C4.5 19.0107 4.72701 19.727 5 20C5.27299 20.273 4.98928 20.5 7 20.5ZM7 22H17C21 22 21 21 21 17V15C21 11 21 10 17 10H7C3 10 3 11 3 15V17C3 21 3 22 7 22Z" fill="color2"/>
</svg>
