<svg width="24" height="24" viewBox="0 0 24 24" fill="none" xmlns="http://www.w3.org/2000/svg">
<path fill-rule="evenodd" clip-rule="evenodd" d="M6.43577 19.49L6.44 19.49L15.4611 19.5C15.8753 19.5 16.2111 19.8358 16.2111 20.25V20.2889C16.2111 20.6816 15.8927 21 15.5 21L6.44 20.99C2.89 21 2 20.12 2 16.61V8.39C2 4.88 2.89 4 6.44 4H17.55C21.11 4 22 4.88 22 8.39V12.838C22 13.2036 21.7036 13.5 21.338 13.5H21.25C20.8358 13.5 20.5 13.1642 20.5 12.75V9.74994H3.5V16.61C3.5 18.3734 3.75979 18.8722 3.94238 19.0524C4.13045 19.238 4.64857 19.495 6.43577 19.49ZM3.50056 8.24994H20.4994C20.486 6.60048 20.2354 6.1231 20.0564 5.94638C19.8654 5.75791 19.3427 5.5 17.55 5.5H6.44C4.65301 5.5 4.13317 5.75775 3.94339 5.9454C3.76448 6.12229 3.51396 6.60057 3.50056 8.24994Z" fill="color3"/>
<path fill-rule="evenodd" clip-rule="evenodd" d="M22.9139 14.8983C22.4892 14.4698 21.9862 14.2021 21.4161 14.2572C20.8859 14.3084 20.4889 14.6256 20.2246 14.8898L17.6336 17.4798C17.5121 17.6012 17.4187 17.7467 17.3539 17.8763C17.2926 17.9989 17.2275 18.1657 17.2057 18.3505L17.0646 19.3304L17.0642 19.3332C17.0114 19.7104 17.1122 20.1082 17.4025 20.3985C17.6929 20.6887 18.0906 20.7893 18.4677 20.7366L19.4626 20.5935L19.4728 20.5919C19.6333 20.5666 19.7888 20.5089 19.9131 20.4489C20.0346 20.3902 20.1905 20.2984 20.3215 20.1675L22.9124 17.5774C23.1789 17.311 23.4924 16.9145 23.5435 16.3872C23.5984 15.8213 23.3359 15.3208 22.9139 14.8983ZM21.5141 15.7678C21.5433 15.7529 21.5582 15.7504 21.5603 15.7502C21.5605 15.7502 21.5614 15.75 21.565 15.7506C21.569 15.7513 21.5809 15.7538 21.6019 15.7633C21.6459 15.7832 21.7291 15.8336 21.8491 15.9549L21.8519 15.9577C21.9696 16.0754 22.0184 16.157 22.0377 16.2001C22.0469 16.2207 22.0494 16.2326 22.0501 16.2367C22.0508 16.2403 22.0506 16.2417 22.0506 16.2423C22.0503 16.2447 22.0479 16.2593 22.0339 16.2872C22.0242 16.284 22.0144 16.281 22.0044 16.2782C21.7711 16.2124 21.5886 16.0299 21.5229 15.7966C21.5201 15.7869 21.5172 15.7773 21.5141 15.7678ZM20.3832 16.8521L18.7058 18.529L18.7024 18.5345C18.7001 18.5385 18.6977 18.5428 18.6954 18.5473L18.6916 18.5553L18.5985 19.2023L19.2281 19.1118C19.2318 19.1105 19.2366 19.1087 19.2423 19.1064C19.2483 19.1039 19.2545 19.1011 19.2607 19.0981C19.2669 19.0951 19.2725 19.0922 19.2772 19.0896L19.2792 19.0885L20.9498 17.4184C20.7279 17.266 20.5358 17.0739 20.3832 16.8521Z" fill="color2"/>
<path d="M11.5 15.7549C11.0858 15.7549 10.75 16.0907 10.75 16.5049C10.75 16.9192 11.0858 17.2549 11.5 17.2549H12.5C12.9142 17.2549 13.25 16.9192 13.25 16.5049C13.25 16.0907 12.9142 15.7549 12.5 15.7549H11.5Z" fill="color3"/>
<path d="M5.25 16.5049C5.25 16.0907 5.58579 15.7549 6 15.7549H9C9.41421 15.7549 9.75 16.0907 9.75 16.5049C9.75 16.9191 9.41421 17.2549 9 17.2549H6C5.58579 17.2549 5.25 16.9191 5.25 16.5049Z" fill="color3"/>
</svg>
