<svg width="24" height="24" viewBox="0 0 24 24" fill="none" xmlns="http://www.w3.org/2000/svg">
<path fill-rule="evenodd" clip-rule="evenodd" d="M8 6.25C7.58579 6.25 7.25 6.58579 7.25 7C7.25 7.41421 7.58579 7.75 8 7.75H16C16.4142 7.75 16.75 7.41421 16.75 7C16.75 6.58579 16.4142 6.25 16 6.25H8ZM9 10.25C8.58579 10.25 8.25 10.5858 8.25 11C8.25 11.4142 8.58579 11.75 9 11.75H15C15.4142 11.75 15.75 11.4142 15.75 11C15.75 10.5858 15.4142 10.25 15 10.25H9Z" fill="color1"/>
<path fill-rule="evenodd" clip-rule="evenodd" d="M14.3307 19.8478C15.0088 18.8879 16.1859 18.8179 16.9582 19.6978C18.6344 21.5976 19.9999 20.9676 19.9999 18.308V7.03937C20.0093 3.00987 19.1241 2 15.5644 2H8.44495C4.88522 2 4 3.00987 4 7.03937V18.298C4 20.9676 5.37492 21.5876 7.04178 19.6978C7.81399 18.8179 8.99115 18.8879 9.66919 19.8478L10.6203 21.1976C11.3831 22.2675 12.6168 22.2675 13.3796 21.1976L14.3307 19.8478ZM12.1564 20.3294L12.1582 20.3268L13.1056 18.9823C13.6767 18.1738 14.5394 17.6422 15.5225 17.5854C16.5074 17.5284 17.427 17.9589 18.0841 18.7067C18.2203 18.8609 18.34 18.978 18.4414 19.066C18.4753 18.8786 18.4999 18.629 18.4999 18.308V7.03586C18.5047 4.98956 18.2445 4.28382 17.9943 3.99929C17.8047 3.78378 17.3271 3.5 15.5644 3.5H8.44495C6.68287 3.5 6.20402 3.78351 6.01302 4.00028C5.76109 4.28619 5.5 4.99321 5.5 7.03937V18.298C5.5 18.6236 5.52534 18.8758 5.55997 19.0643C5.66113 18.9767 5.7783 18.8626 5.91438 18.7084C6.57162 17.9595 7.49182 17.5284 8.47738 17.5854C9.46057 17.6422 10.3232 18.1738 10.8944 18.9823L10.8954 18.9838L11.8417 20.3268L11.8435 20.3294C11.9146 20.4285 11.9722 20.4732 12 20.4909C12.0278 20.4732 12.0853 20.4285 12.1564 20.3294Z" fill="color2"/>
</svg>
