<svg width="20" height="20" viewBox="0 0 20 20" fill="none" xmlns="http://www.w3.org/2000/svg">
<path fill-rule="evenodd" clip-rule="evenodd" d="M10 17.0833C13.912 17.0833 17.0833 13.912 17.0833 10C17.0833 6.08798 13.912 2.91666 10 2.91666C6.08799 2.91666 2.91667 6.08798 2.91667 10C2.91667 13.912 6.08799 17.0833 10 17.0833ZM18.3333 10C18.3333 14.6024 14.6024 18.3333 10 18.3333C5.39763 18.3333 1.66667 14.6024 1.66667 10C1.66667 5.39762 5.39763 1.66666 10 1.66666C14.6024 1.66666 18.3333 5.39762 18.3333 10ZM10 6.45833C10.3452 6.45833 10.625 6.73815 10.625 7.08333V11.4078L12.0581 9.97472C12.3021 9.73064 12.6979 9.73064 12.9419 9.97472C13.186 10.2188 13.186 10.6145 12.9419 10.8586L10.4419 13.3586C10.1979 13.6027 9.80214 13.6027 9.55806 13.3586L7.05806 10.8586C6.81399 10.6145 6.81399 10.2188 7.05806 9.97472C7.30214 9.73064 7.69787 9.73064 7.94195 9.97472L9.37501 11.4078V7.08333C9.37501 6.73815 9.65483 6.45833 10 6.45833Z" fill="currentColor"/>
</svg>
