<svg width="24" height="24" viewBox="0 0 24 24" fill="none" xmlns="http://www.w3.org/2000/svg">
<path fill-rule="evenodd" clip-rule="evenodd" d="M2.00818 10.191L2.54108 17.625C2.66405 19.479 3.80158 21 6.63004 21H17.37C20.1984 21 21.3257 19.479 21.4589 17.625L21.9918 10.191C22.1353 8.247 20.3726 6.6 18.1488 6.6C17.5237 6.6 16.9498 6.285 16.6628 5.799L15.925 4.494C15.4536 3.675 14.2238 3 13.1785 3H10.8317C9.77618 3 8.54642 3.675 8.07501 4.494L7.33715 5.799C7.0502 6.285 6.47632 6.6 5.85119 6.6C3.62737 6.6 1.86471 8.247 2.00818 10.191ZM9.37681 5.23924L8.64289 6.53727L8.62882 6.56163C8.04657 7.54778 6.95486 8.1 5.85119 8.1C4.28479 8.1 3.4396 9.20645 3.50411 10.0806L3.50434 10.0837L4.03781 17.5257C4.08123 18.1804 4.29035 18.6263 4.59649 18.913C4.89879 19.1962 5.48319 19.5 6.63004 19.5H17.37C18.5163 19.5 19.0977 19.1965 19.3986 18.914C19.7046 18.6268 19.9152 18.1786 19.9628 17.5177C19.9628 17.5178 19.9628 17.5177 19.9628 17.5177L20.4959 10.0806C20.5604 9.20645 19.7152 8.1 18.1488 8.1C17.0451 8.1 15.9534 7.54778 15.3712 6.56163L15.3571 6.53727L14.6232 5.23923C14.5622 5.13554 14.3784 4.93658 14.0487 4.7567C13.7239 4.57952 13.4006 4.5 13.1785 4.5H10.8317C10.6024 4.5 10.276 4.58077 9.95121 4.75747C9.62104 4.93711 9.43766 5.13583 9.37681 5.23924Z" fill="currentColor"/>
<path fill-rule="evenodd" clip-rule="evenodd" d="M9.75 8.75C9.75 8.33579 10.0858 8 10.5 8H13.5C13.9142 8 14.25 8.33579 14.25 8.75C14.25 9.16421 13.9142 9.5 13.5 9.5H10.5C10.0858 9.5 9.75 9.16421 9.75 8.75Z" fill="currentColor"/>
<path fill-rule="evenodd" clip-rule="evenodd" d="M12 16.5C12.9616 16.5 13.75 15.7116 13.75 14.75C13.75 13.7884 12.9616 13 12 13C11.0384 13 10.25 13.7884 10.25 14.75C10.25 15.7116 11.0384 16.5 12 16.5ZM15.25 14.75C15.25 16.54 13.79 18 12 18C10.21 18 8.75 16.54 8.75 14.75C8.75 12.96 10.21 11.5 12 11.5C13.79 11.5 15.25 12.96 15.25 14.75Z" fill="currentColor"/>
</svg>
