<svg width="20" height="20" viewBox="0 0 20 20" fill="none" xmlns="http://www.w3.org/2000/svg">
<path fill-rule="evenodd" clip-rule="evenodd" d="M18.5 10C18.5 14.6716 14.6716 18.5 10 18.5C5.32843 18.5 1.5 14.6716 1.5 10C1.5 5.32843 5.32843 1.5 10 1.5C14.6716 1.5 18.5 5.32843 18.5 10ZM10 20C15.5 20 20 15.5 20 10C20 4.5 15.5 0 10 0C4.5 0 0 4.5 0 10C0 15.5 4.5 20 10 20ZM14.7799 7.70072C15.073 7.40809 15.0734 6.93321 14.7808 6.64006C14.4882 6.34691 14.0133 6.34649 13.7201 6.63912L8.58047 11.7697L6.28033 9.46959C5.98744 9.1767 5.51256 9.1767 5.21967 9.46959C4.92678 9.76249 4.92678 10.2374 5.21967 10.5303L8.04967 13.3603C8.34238 13.653 8.81689 13.6532 9.10986 13.3607L14.7799 7.70072Z" fill="currentColor"/>
</svg>
