<svg width="24" height="24" viewBox="0 0 24 24" fill="none" xmlns="http://www.w3.org/2000/svg">
<path fill-rule="evenodd" clip-rule="evenodd" d="M12.75 3.75C12.75 3.33579 12.4142 3 12 3C11.5858 3 11.25 3.33579 11.25 3.75V13.9596L8.02252 10.7321C7.72962 10.4392 7.25475 10.4392 6.96186 10.7321C6.66896 11.025 6.66896 11.4999 6.96186 11.7928L11.4694 16.3003C11.5513 16.3823 11.6475 16.4413 11.75 16.4774C11.8282 16.505 11.9123 16.52 12 16.52C12.2143 16.52 12.4076 16.4302 12.5442 16.2861L17.0375 11.7928C17.3304 11.4999 17.3304 11.025 17.0375 10.7321C16.7447 10.4392 16.2698 10.4392 15.9769 10.7321L12.75 13.959V3.75Z" fill="color1"/>
<path fill-rule="evenodd" clip-rule="evenodd" d="M8.90381 19.5H15.0654C17.4808 19.5 18.7709 19.0204 19.496 18.3143C19.8858 17.9347 20.2084 17.3961 20.4234 16.6137C20.5197 16.263 20.8253 16 21.1891 16H21.2489C21.7073 16 22.0623 16.4102 21.95 16.8547C21.2111 19.7775 19.0798 21 15.0654 21H8.90381C4.88944 21 2.75817 19.7775 2.01925 16.8547C1.90688 16.4102 2.26188 16 2.72035 16H2.78012C3.14388 16 3.44948 16.263 3.54586 16.6137C3.76085 17.3961 4.08344 17.9347 4.47326 18.3143C5.19834 19.0204 6.4884 19.5 8.90381 19.5Z" fill="color1"/>
</svg>
