<svg width="20" height="20" viewBox="0 0 20 20" fill="none" xmlns="http://www.w3.org/2000/svg">
<path fill-rule="evenodd" clip-rule="evenodd" d="M2.4802 16.15L8.42406 19.58C9.40469 20.14 10.6055 20.14 11.5761 19.58L17.52 16.15C18.4906 15.58 19.091 14.54 19.091 13.42V6.58002C19.091 5.45003 18.4906 4.41999 17.52 3.84999L11.5761 0.419999C10.5955 -0.14 9.39468 -0.14 8.42406 0.419999L2.4802 3.84999C1.50958 4.41999 0.90918 5.46002 0.90918 6.58002V13.42C0.90918 14.55 1.50958 15.59 2.4802 16.15ZM3.16688 5.02813C2.61073 5.35654 2.27282 5.9506 2.27282 6.58002V13.42C2.27282 14.0652 2.61532 14.6537 3.16166 14.9689L9.10028 18.3958L9.10258 18.3972C9.66585 18.7177 10.3486 18.7139 10.8946 18.3989L16.8333 14.9719C17.3894 14.6435 17.7274 14.0494 17.7274 13.42V6.58002C17.7274 5.94301 17.3915 5.35772 16.8333 5.02813L10.8999 1.60416L10.8976 1.60285C10.3343 1.28226 9.65162 1.28613 9.10562 1.60109L3.16688 5.02813ZM10.0001 4.77283C10.3767 4.77283 10.6819 5.07809 10.6819 5.45465V11.8183C10.6819 12.1948 10.3767 12.5001 10.0001 12.5001C9.62357 12.5001 9.31831 12.1948 9.31831 11.8183V5.45465C9.31831 5.07809 9.62357 4.77283 10.0001 4.77283ZM10.9091 14.5454C10.9091 14.0433 10.5021 13.6363 10 13.6363C9.49793 13.6363 9.09091 14.0433 9.09091 14.5454V14.6363C9.09091 15.1384 9.49793 15.5454 10 15.5454C10.5021 15.5454 10.9091 15.1384 10.9091 14.6363V14.5454Z" fill="#E43434"/>
</svg>
