<svg width="25" height="24" viewBox="0 0 25 24" fill="none" xmlns="http://www.w3.org/2000/svg">
<path d="M8.62461 3H9.62461C7.67461 8.84 7.67461 15.16 9.62461 21H8.62461" stroke="currentColor" stroke-width="1.5" stroke-linecap="round" stroke-linejoin="round"/>
<path d="M15.625 3C16.595 5.92 17.085 8.96 17.085 12" stroke="currentColor" stroke-width="1.5" stroke-linecap="round" stroke-linejoin="round"/>
<path d="M3.625 16V15C6.545 15.97 9.585 16.46 12.625 16.46" stroke="currentColor" stroke-width="1.5" stroke-linecap="round" stroke-linejoin="round"/>
<path d="M3.625 8.99961C9.465 7.04961 15.785 7.04961 21.625 8.99961" stroke="currentColor" stroke-width="1.5" stroke-linecap="round" stroke-linejoin="round"/>
<path d="M22.625 12C22.625 6.48 18.145 2 12.625 2C7.105 2 2.625 6.48 2.625 12C2.625 17.52 7.105 22 12.625 22" stroke="color2" stroke-width="1.5" stroke-linecap="round" stroke-linejoin="round"/>
<path d="M19.3102 16.063C19.1991 15.979 19.0448 15.979 18.9337 16.063C18.3473 16.498 16.6158 17.917 16.625 19.57C16.625 20.908 17.7454 22 19.125 22C20.5046 22 21.625 20.911 21.625 19.573C21.6281 17.944 19.8935 16.501 19.3102 16.063Z" stroke="color2" stroke-width="1.5" stroke-miterlimit="10"/>
</svg>
