<svg width="25" height="24" viewBox="0 0 25 24" fill="none" xmlns="http://www.w3.org/2000/svg">
<path d="M22.2749 15V9" stroke="currentColor" stroke-width="1.5" stroke-linecap="round" stroke-linejoin="round"/>
<path d="M6.50512 13.0801L6.49512 17.7701C6.49512 19.0401 7.47512 20.4001 8.67512 20.8001L11.8651 21.8601C12.4151 22.0401 13.3251 22.0401 13.8851 21.8601L17.0751 20.8001C18.2751 20.4001 19.2551 19.0401 19.2551 17.7701V13.1301" stroke="currentColor" stroke-width="1.5" stroke-linecap="round" stroke-linejoin="round"/>
<path d="M10.925 2.53004L4.90502 6.46004C2.97502 7.72004 2.97502 10.54 4.90502 11.8L10.925 15.73C12.005 16.44 13.785 16.44 14.865 15.73L20.855 11.8C22.775 10.54 22.775 7.73004 20.855 6.47004L14.865 2.54004C13.785 1.82004 12.005 1.82004 10.925 2.53004Z" stroke="color2" stroke-width="1.5" stroke-linecap="round" stroke-linejoin="round"/>
</svg>
