<svg width="25" height="25" viewBox="0 0 25 25" fill="none" xmlns="http://www.w3.org/2000/svg">
<path d="M24.0272 12.04C24.0283 12.662 23.9813 13.2833 23.8866 13.8981C23.6019 15.7276 22.8958 17.4658 21.8241 18.9756C21.7449 19.0867 21.6647 19.1964 21.5822 19.3037C21.3479 19.6112 21.0994 19.9069 20.8369 20.1906C19.1465 22.017 16.9305 23.2733 14.4952 23.7859C14.1765 23.8525 13.8532 23.9062 13.5254 23.9472C12.5323 24.0703 11.5278 24.0703 10.5347 23.9472C10.2072 23.9065 9.88396 23.8528 9.56489 23.7859C7.65074 23.3858 5.86408 22.522 4.36177 21.2701C4.21114 21.1451 4.06411 21.0169 3.92067 20.8853C3.63692 20.6253 3.36614 20.352 3.10833 20.0654C1.18389 17.9293 0.0911042 15.1727 0.0291532 12.2982C-0.0327978 9.42364 0.94021 6.62255 2.77083 4.40545C2.87255 4.28169 2.97755 4.16029 3.08396 4.04076C3.34083 3.75388 3.61083 3.47982 3.89396 3.21857C5.48521 1.74841 7.44543 0.737358 9.56583 0.293101C9.88208 0.226851 10.2041 0.173726 10.5319 0.133726C11.525 0.0106004 12.5295 0.0106004 13.5225 0.133726C13.8504 0.174351 14.1736 0.228101 14.4924 0.294976C16.0863 0.627893 17.5951 1.28371 18.9258 2.22201C19.0786 2.32888 19.2288 2.43982 19.3763 2.55482C19.6819 2.79107 19.9752 3.04185 20.2561 3.30716C20.6112 3.64211 20.9458 3.99822 21.2579 4.37357C22.643 6.0366 23.5503 8.04467 23.8829 10.1833C23.9787 10.7975 24.027 11.4183 24.0272 12.04Z" fill="#3E436D"/>
<path d="M21.2579 4.37212L16.7458 8.88431L15.4492 10.1818L14.4934 11.1376L14.2389 11.3921L13.5226 12.1074L11.732 13.8981L10.532 15.0981L10.4336 15.1956L9.56123 16.0679L4.35811 21.271C4.20748 21.146 4.06045 21.0177 3.91701 20.8862C3.63326 20.6262 3.36248 20.3529 3.10467 20.0663C2.78292 19.7089 2.483 19.3325 2.20654 18.939L5.94951 15.196L9.55889 11.5867L9.75154 11.3945L10.5287 10.6168L10.9614 10.1842L11.9926 9.1529L12.2584 8.88665L13.5189 7.62618L14.4887 6.65634L18.9222 2.2229C19.075 2.32978 19.2251 2.44071 19.3726 2.55571C19.6783 2.79196 19.9715 3.04274 20.2525 3.30806C20.6088 3.64213 20.9446 3.99747 21.2579 4.37212Z" fill="white"/>
<path d="M21.8214 18.9775C21.7421 19.0886 21.662 19.1983 21.5795 19.3056C21.3451 19.6131 21.0967 19.9087 20.8342 20.1925C20.4687 20.5874 20.0772 20.9574 19.6623 21.3001L14.4925 16.1298L13.5582 15.1956L13.5226 15.16L12.2617 13.8981L11.9964 13.6337L10.532 12.1693L9.75481 11.3922L9.56215 11.1995L8.54449 10.1818L7.24605 8.88435L2.76855 4.40591C2.87027 4.28216 2.97527 4.16075 3.08168 4.04122C3.33855 3.75435 3.60855 3.48029 3.89168 3.21904C4.26982 2.86936 4.67002 2.54431 5.0898 2.24591L21.8214 18.9775Z" fill="white"/>
<path d="M9.32297 15.481L3.91781 20.8856C3.63406 20.6256 3.36328 20.3524 3.10547 20.0658L7.69031 15.481H9.32297Z" fill="#DB1B1B"/>
<path d="M20.256 3.30569L14.6779 8.88381L14.4904 9.06897L14.3901 9.16928H12.7598L13.0452 8.88381L13.5224 8.40709L19.3762 2.55334C19.6818 2.78959 19.9751 3.04038 20.256 3.30569Z" fill="#DB1B1B"/>
<path d="M21.5793 19.3055C21.345 19.613 21.0965 19.9086 20.834 20.1924L16.124 15.481H17.7562L21.5793 19.3055Z" fill="#DB1B1B"/>
<path d="M9.84232 9.16977H8.21014L7.92467 8.8843L3.08154 4.04118C3.33842 3.75431 3.60842 3.48024 3.89154 3.21899L9.55686 8.8843L9.56201 8.88946L9.84232 9.16977Z" fill="#DB1B1B"/>
<path d="M23.8866 10.1819C23.8186 9.74454 23.7263 9.31137 23.61 8.88435H14.4924V0.29357C14.1736 0.227007 13.8503 0.173726 13.5225 0.133726C12.5294 0.0106004 11.525 0.0106004 10.5319 0.133726C10.2044 0.174351 9.8811 0.228101 9.56204 0.294976V8.88435H0.449072C0.332817 9.31137 0.240486 9.74454 0.17251 10.1819C-0.0181152 11.4133 -0.0181152 12.6667 0.17251 13.8981C0.240486 14.3354 0.332817 14.7686 0.449072 15.1956H9.56204V23.7864C9.88079 23.8529 10.2041 23.9067 10.5319 23.9476C11.525 24.0708 12.5294 24.0708 13.5225 23.9476C13.8503 23.907 14.1736 23.8533 14.4924 23.7864V15.1956H23.6077C23.7239 14.7686 23.8163 14.3354 23.8842 13.8981C24.0749 12.6667 24.0749 11.4133 23.8842 10.1819H23.8866Z" fill="white"/>
<path d="M24.0273 12.04C24.0284 11.4179 23.9814 10.7967 23.8867 10.1819H13.5273V0.133726C12.5343 0.0106004 11.5298 0.0106004 10.5367 0.133726V10.1819H0.170313C-0.0203125 11.4133 -0.0203125 12.6667 0.170313 13.8981H10.532V23.9462C11.5251 24.0694 12.5296 24.0694 13.5227 23.9462V13.8981H23.8867C23.9814 13.2833 24.0284 12.662 24.0273 12.04Z" fill="#DB1B1B"/>
</svg>
