<svg width="20" height="20" viewBox="0 0 20 20" fill="none" xmlns="http://www.w3.org/2000/svg">
<path fill-rule="evenodd" clip-rule="evenodd" d="M10 3.33334C12.9667 3.33334 15.7834 4.96011 17.7084 7.78556C18.5417 9.00759 18.5417 11.0002 17.7084 12.2144C16.7417 13.6311 15.5584 14.7441 14.2417 15.5069C12.925 16.2619 11.4834 16.6667 10 16.6667C7.03335 16.6667 4.21669 15.0477 2.29169 12.2144C1.45835 10.9924 1.45835 9.00759 2.29169 7.78556C3.25835 6.36895 4.44169 5.25589 5.75835 4.49309C7.07502 3.73808 8.51669 3.33334 10 3.33334ZM11.7333 9.99994C11.7333 10.9596 10.9596 11.7333 9.99996 11.7333C9.04031 11.7333 8.26662 10.9596 8.26662 9.99994C8.26662 9.04029 9.04031 8.2666 9.99996 8.2666C10.9596 8.2666 11.7333 9.04029 11.7333 9.99994ZM12.9833 9.99994C12.9833 11.6499 11.65 12.9833 9.99996 12.9833C8.34996 12.9833 7.01662 11.6499 7.01662 9.99994C7.01662 8.34994 8.34996 7.0166 9.99996 7.0166C11.65 7.0166 12.9833 8.34994 12.9833 9.99994Z" fill="currentColor"/>
</svg>
