<svg width="24" height="24" viewBox="0 0 24 24" fill="none" xmlns="http://www.w3.org/2000/svg">
<path d="M20.9948 5.00171H3C2.44772 5.00171 2 5.44943 2 6.00171V18.976C2 19.5283 2.44772 19.976 3 19.976H20.9948C21.5471 19.976 21.9948 19.5283 21.9948 18.976V6.00171C21.9948 5.44942 21.5471 5.00171 20.9948 5.00171Z" fill="white"/>
<path d="M21.9965 10.9931H13.1925V5.00226H10.7892V10.9931H2.00854V13.987H10.7892V19.9754H13.1925V13.987H21.9965V10.9931Z" fill="#CE1124"/>
<path d="M2 6.745V10.0054H6.36111L2 6.745Z" fill="#00247D"/>
<path d="M4.40645 5.00075L4.34253 5.0049L9.9974 9.25475V5.00075H4.40645Z" fill="#00247D"/>
<path d="M7.11206 9.98479L2 6.17608C2 6.00001 2 5.50001 2.34174 5.25526L8.71126 9.98479H7.11206Z" fill="#CE1124"/>
<path d="M16.8879 14.9909L21.9999 18.7996L21.9999 18.8014C21.9995 19.003 21.9985 19.5007 21.6559 19.7187L15.2886 14.9909H16.8879Z" fill="#CE1124"/>
<path d="M2 18.2557V14.9953H6.36111L2 18.2557Z" fill="#00247D"/>
<path d="M4.40645 20L4.34253 19.9959L9.9974 15.746V20H4.40645Z" fill="#00247D"/>
<path d="M10.0039 15.1931L3.56539 19.9737C2.55102 19.9737 2.60511 19.9037 2.33617 19.7243L8.67745 14.9906H10.0039V15.1931Z" fill="#CE1124"/>
<path d="M22.0001 6.74424V10.0045H17.639L22.0001 6.74424Z" fill="#00247D"/>
<path d="M19.5941 5L19.658 5.00414L14.0032 9.254V5H19.5941Z" fill="#00247D"/>
<path d="M14.0087 9.82118L20.4925 5.00689C20.9999 4.99996 21.4999 4.99996 21.6573 5.26039L15.3804 9.99004H14.0087V9.82118Z" fill="#CE1124"/>
<path d="M22.0001 18.2544V14.9941H17.639L22.0001 18.2544Z" fill="#00247D"/>
<path d="M19.5941 19.9987L19.658 19.9947L14.0032 15.7447V19.9987H19.5941Z" fill="#00247D"/>
</svg>
