<svg width="24" height="24" viewBox="0 0 24 24" fill="none" xmlns="http://www.w3.org/2000/svg">
<path fill-rule="evenodd" clip-rule="evenodd" d="M7 12.6688V9.53566L8.5 11.0357V12.6688C8.5 12.7701 8.53547 12.8429 8.56848 12.8813C8.58648 12.9023 8.59888 12.9089 8.60404 12.9107H9.45516C10.4427 12.9107 11.0577 13.8011 11.0577 14.6526V19.4186L13.0031 15.5388L14.1207 16.6564L11.7727 21.3393C11.5023 21.8785 10.929 22.1145 10.3978 21.9474C9.89222 21.7884 9.55775 21.3103 9.55775 20.7532V14.6526C9.55775 14.5513 9.52228 14.4785 9.48927 14.4401C9.47126 14.4192 9.45887 14.4125 9.45371 14.4107H8.60258C7.61501 14.4107 7 13.5203 7 12.6688ZM15.3015 14.3015L18.4697 17.4697C18.7626 17.7626 18.7626 18.2374 18.4697 18.5303C18.1768 18.8232 17.7019 18.8232 17.409 18.5303L3.46967 4.59099C3.17678 4.2981 3.17678 3.82322 3.46967 3.53033C3.76256 3.23744 4.23744 3.23744 4.53033 3.53033L7 6V3.74188C7 2.89039 7.61501 2 8.60258 2H14.8963C15.548 2 16.0362 2.4023 16.2839 2.86856C16.5315 3.33462 16.5843 3.93164 16.3479 4.48161L14.0042 9.93507H14.7914C15.4681 9.93507 15.9637 10.3657 16.2033 10.8509C16.4429 11.3363 16.477 11.9571 16.1983 12.5129L15.3015 14.3015ZM14.1839 13.1839L14.8574 11.8406C14.9103 11.7351 14.9052 11.6101 14.8583 11.515C14.836 11.47 14.812 11.4475 14.8002 11.4393C14.7931 11.4343 14.7916 11.435 14.7916 11.435L13.5552 11.4351C13.062 11.4351 12.7046 11.1298 12.5303 10.8017C12.3561 10.4739 12.3194 10.0563 12.4849 9.67119L14.9698 3.88932C15.0169 3.77979 15.0053 3.65907 14.9592 3.57228C14.9373 3.53107 14.9146 3.51094 14.9038 3.50367C14.8993 3.50065 14.8971 3.49989 14.8971 3.49989L8.60404 3.5C8.59888 3.50182 8.58648 3.50845 8.56848 3.5294C8.53547 3.5678 8.5 3.6406 8.5 3.74188V7.5L14.1839 13.1839Z" fill="currentColor"/>
</svg>
