<svg width="25" height="24" viewBox="0 0 25 24" fill="none" xmlns="http://www.w3.org/2000/svg">
<path d="M9.65499 21.69L11.985 19.73C12.335 19.43 12.915 19.43 13.265 19.73L15.595 21.69C16.135 21.96 16.795 21.69 16.995 21.11L17.435 19.78C17.545 19.46 17.435 18.99 17.195 18.75L14.925 16.47C14.755 16.31 14.625 15.99 14.625 15.76V12.91C14.625 12.49 14.935 12.29 15.325 12.45L20.235 14.57C21.005 14.9 21.635 14.49 21.635 13.65V12.36C21.635 11.69 21.135 10.92 20.515 10.66L14.925 8.25001C14.765 8.18001 14.625 7.97001 14.625 7.79001V4.79001C14.625 3.85001 13.935 2.74001 13.095 2.31001C12.795 2.16001 12.445 2.16001 12.145 2.31001C11.305 2.74001 10.615 3.86001 10.615 4.80001V7.80001C10.615 7.98001 10.475 8.19001 10.315 8.26001L4.73499 10.67C4.11499 10.92 3.61499 11.69 3.61499 12.36V13.65C3.61499 14.49 4.24499 14.9 5.01499 14.57L9.92499 12.45C10.305 12.28 10.625 12.49 10.625 12.91V15.76C10.625 15.99 10.495 16.31 10.335 16.47L8.06499 18.75C7.82499 18.99 7.71499 19.45 7.82499 19.78L8.26499 21.11C8.44499 21.69 9.10499 21.97 9.65499 21.69Z" stroke="color2" stroke-width="1.5" stroke-linecap="round" stroke-linejoin="round"/>
<path d="M5.97852 17L5.27141 17.7071" stroke="currentColor" stroke-width="1.5" stroke-linecap="round" stroke-linejoin="round"/>
<path d="M19.625 17L20.3321 17.7071" stroke="currentColor" stroke-width="1.5" stroke-linecap="round" stroke-linejoin="round"/>
</svg>
