<svg width="24" height="24" viewBox="0 0 24 24" fill="none" xmlns="http://www.w3.org/2000/svg">
<path fill-rule="evenodd" clip-rule="evenodd" d="M7.25 3.74188C7.25 2.89039 7.86501 2 8.85258 2H15.1463C15.798 2 16.2862 2.4023 16.5339 2.86856C16.7815 3.33462 16.8343 3.93164 16.5979 4.48161L14.2542 9.93507H15.0414C15.7181 9.93507 16.2137 10.3657 16.4533 10.8509C16.6929 11.3363 16.727 11.9571 16.4483 12.5129L12.0227 21.3393C11.7523 21.8785 11.179 22.1145 10.6478 21.9474C10.1422 21.7884 9.80775 21.3103 9.80775 20.7532V14.6526C9.80775 14.5513 9.77228 14.4785 9.73927 14.4401C9.72126 14.4192 9.70887 14.4125 9.70371 14.4107H8.85258C7.86501 14.4107 7.25 13.5203 7.25 12.6688V3.74188Z" fill="color1"/>
</svg>
