<svg width="24" height="24" viewBox="0 0 24 24" fill="none" xmlns="http://www.w3.org/2000/svg">
<path fill-rule="evenodd" clip-rule="evenodd" d="M7.25 3.74188C7.25 2.89039 7.86501 2 8.85258 2H15.1463C15.798 2 16.2862 2.4023 16.5339 2.86856C16.7815 3.33462 16.8343 3.93164 16.5979 4.48161L14.2542 9.93507H15.0414C15.7181 9.93507 16.2137 10.3657 16.4533 10.8509C16.6929 11.3363 16.727 11.9571 16.4483 12.5129L12.0227 21.3393C11.7523 21.8785 11.179 22.1145 10.6478 21.9474C10.1422 21.7884 9.80775 21.3103 9.80775 20.7532V14.6526C9.80775 14.5513 9.77228 14.4785 9.73927 14.4401C9.72126 14.4192 9.70887 14.4125 9.70371 14.4107H8.85258C7.86501 14.4107 7.25 13.5203 7.25 12.6688V3.74188ZM9.70102 14.4101C9.70104 14.41 9.70191 14.4101 9.70357 14.4107C9.70183 14.4105 9.701 14.4103 9.70102 14.4101ZM14.113 10.2635L14.1131 10.2632L14.113 10.2635ZM8.81848 3.5294C8.78547 3.5678 8.75 3.6406 8.75 3.74188V12.6688C8.75 12.7701 8.78547 12.8429 8.81848 12.8813C8.83648 12.9023 8.84888 12.9089 8.85404 12.9107H9.70516C10.6927 12.9107 11.3077 13.8011 11.3077 14.6526V19.4186L15.1074 11.8406C15.1603 11.7351 15.1552 11.6101 15.1083 11.515C15.086 11.47 15.062 11.4475 15.0502 11.4393C15.0431 11.4343 15.042 11.4348 15.0416 11.435C15.0415 11.435 15.0415 11.4351 15.0414 11.4351H13.8052C13.312 11.4351 12.9546 11.1298 12.7803 10.8017C12.6061 10.4739 12.5694 10.0563 12.7349 9.67119L15.2198 3.88932C15.2669 3.77979 15.2553 3.65907 15.2092 3.57228C15.1873 3.53107 15.1646 3.51094 15.1538 3.50367C15.1493 3.50065 15.1471 3.49989 15.1471 3.49989C15.1471 3.49989 15.1471 3.4999 15.1471 3.49991C15.1479 3.50017 15.1482 3.5 15.1463 3.5H8.85404C8.84888 3.50182 8.83648 3.50845 8.81848 3.5294ZM8.85673 3.49943C8.85675 3.49955 8.85592 3.49983 8.85418 3.49995C8.85584 3.49938 8.85671 3.49932 8.85673 3.49943ZM8.85673 12.9113C8.85671 12.9114 8.85584 12.9113 8.85418 12.9108C8.85592 12.9109 8.85674 12.9112 8.85673 12.9113Z" fill="currentColor"/>
</svg>
