<svg width="24" height="24" viewBox="0 0 24 24" fill="none" xmlns="http://www.w3.org/2000/svg">
<path fill-rule="evenodd" clip-rule="evenodd" d="M7.25 12.6688V9.78566L14.2873 16.8229L12.0227 21.3393C11.7523 21.8785 11.179 22.1145 10.6478 21.9474C10.1422 21.7884 9.80775 21.3103 9.80775 20.7532V14.6526C9.80775 14.5513 9.77228 14.4785 9.73927 14.4401C9.72126 14.4192 9.70887 14.4125 9.70371 14.4107H8.85258C7.86501 14.4107 7.25 13.5203 7.25 12.6688ZM7.25 6.25L4.53033 3.53033C4.23744 3.23744 3.76256 3.23744 3.46967 3.53033C3.17678 3.82322 3.17678 4.2981 3.46967 4.59099L17.409 18.5303C17.7019 18.8232 18.1768 18.8232 18.4697 18.5303C18.7626 18.2374 18.7626 17.7626 18.4697 17.4697L15.468 14.468L16.4483 12.5129C16.727 11.9571 16.6929 11.3363 16.4533 10.8509C16.2137 10.3657 15.7181 9.93507 15.0414 9.93507H14.2542L16.5979 4.48161C16.8343 3.93164 16.7815 3.33462 16.5339 2.86856C16.2862 2.4023 15.798 2 15.1463 2H8.85258C7.86501 2 7.25 2.89039 7.25 3.74188V6.25Z" fill="color1"/>
</svg>
