<svg width="24" height="24" viewBox="0 0 24 24" fill="none" xmlns="http://www.w3.org/2000/svg">
<path fill-rule="evenodd" clip-rule="evenodd" d="M7.03946 2.49717C7.70235 1.83428 8.78722 1.83428 9.45012 2.49717L11.9529 5H12.0365L14.5393 2.49717C15.2022 1.83428 16.2871 1.83428 16.95 2.49717L18.37 3.91717C18.6721 4.21929 18.8369 4.60589 18.8635 5H19.5C20.97 5 21.5 6.008 21.5 7.24V8.36C21.5 9.44064 21.0922 10.3489 20 10.5558V17.6667C20 20.9167 19 22 16 22H8C5 22 4 20.9167 4 17.6667V10.5589C2.86526 10.3581 2.5 9.44609 2.5 8.36V7.24C2.5 6.008 2.97 5 4.5 5H5.12591C5.15252 4.60589 5.31734 4.21929 5.61946 3.91717L7.03946 2.49717ZM8.38946 3.55783C8.31235 3.48072 8.17722 3.48072 8.10012 3.55783L6.68012 4.97783C6.6738 4.98415 6.668 4.99072 6.66273 4.9975H9.82913L8.38946 3.55783ZM19.8816 9H4.10017C4.06354 8.92632 4 8.73936 4 8.36V7.24C4 6.77241 4.09654 6.59712 4.12022 6.56598C4.1215 6.56382 4.12419 6.55936 4.14478 6.55032C4.17704 6.53617 4.28044 6.5 4.5 6.5H19.5C19.6963 6.5 19.7917 6.53338 19.8244 6.54788C19.8509 6.55963 19.8587 6.568 19.8679 6.57977C19.9016 6.623 20 6.8053 20 7.24V8.36C20 8.74541 19.9226 8.93242 19.8816 9ZM5.5 10.6V17.6667C5.5 19.2282 5.76157 19.8011 5.9772 20.0347C6.15958 20.2322 6.6064 20.5 8 20.5H16C17.3936 20.5 17.8404 20.2322 18.0228 20.0347C18.2384 19.8011 18.5 19.2282 18.5 17.6667V10.6H15.7204V14.98C15.7204 16.3829 14.1595 17.2041 13.0044 16.434L13.0012 16.4319L12.1133 15.8333C12.0395 15.7847 11.9347 15.778 11.8398 15.8384L10.8956 16.4612C9.73637 17.2052 8.19043 16.3949 8.19043 14.99V10.6H5.5ZM9.69043 10.6V14.99C9.69043 15.184 9.90235 15.3135 10.0826 15.2005L11.023 14.5803C11.6071 14.2023 12.3609 14.1955 12.9465 14.5859L12.9497 14.5881L13.8376 15.1867C14.0023 15.2953 14.2204 15.1766 14.2204 14.98V10.6H9.69043ZM15.6 3.55783C15.6771 3.48072 15.8122 3.48072 15.8893 3.55783L17.3093 4.97783C17.3156 4.98415 17.3214 4.99072 17.3267 4.9975H14.1603L15.6 3.55783Z" fill="currentColor"/>
</svg>
