<svg width="25" height="24" viewBox="0 0 25 24" fill="none" xmlns="http://www.w3.org/2000/svg">
    <path fill-rule="evenodd" clip-rule="evenodd"
        d="M13.25 3.75C13.25 3.33579 12.9142 3 12.5 3C12.0858 3 11.75 3.33579 11.75 3.75V13.9596L8.52252 10.7321C8.22962 10.4392 7.75475 10.4392 7.46186 10.7321C7.16896 11.025 7.16896 11.4999 7.46186 11.7928L11.9694 16.3003C12.0513 16.3823 12.1475 16.4413 12.25 16.4774C12.3282 16.505 12.4123 16.52 12.5 16.52C12.7143 16.52 12.9076 16.4302 13.0442 16.2861L17.5375 11.7928C17.8304 11.4999 17.8304 11.025 17.5375 10.7321C17.2447 10.4392 16.7698 10.4392 16.4769 10.7321L13.25 13.959V3.75Z"
        fill="url(#paint0_linear_569_14543)" />
    <path fill-rule="evenodd" clip-rule="evenodd"
        d="M9.40381 19.5H15.5654C17.9808 19.5 19.2709 19.0204 19.996 18.3143C20.3858 17.9347 20.7084 17.3961 20.9234 16.6137C21.0197 16.263 21.3253 16 21.6891 16H21.7489C22.2073 16 22.5623 16.4102 22.45 16.8547C21.7111 19.7775 19.5798 21 15.5654 21H9.40381C5.38944 21 3.25817 19.7775 2.51925 16.8547C2.40688 16.4102 2.76188 16 3.22035 16H3.28012C3.64388 16 3.94948 16.263 4.04586 16.6137C4.26085 17.3961 4.58344 17.9347 4.97326 18.3143C5.69834 19.0204 6.9884 19.5 9.40381 19.5Z"
        fill="url(#paint1_linear_569_14543)" />
    <defs>
        <linearGradient id="paint0_linear_569_14543" x1="7.31451" y1="10.436" x2="17.7572" y2="10.436"
            gradientUnits="userSpaceOnUse">
            <stop stop-color="color1" />
            <stop offset="1" stop-color="color2" />
        </linearGradient>
        <linearGradient id="paint1_linear_569_14543" x1="2.48902" y1="18.75" x2="22.6196" y2="18.75"
            gradientUnits="userSpaceOnUse">
            <stop stop-color="color1" />
            <stop offset="1" stop-color="color2" />
        </linearGradient>
    </defs>
</svg>