<svg width="49" height="48" viewBox="0 0 49 48" fill="none" xmlns="http://www.w3.org/2000/svg">
<rect x="0.5" width="48" height="48" rx="24" fill="color1"/>
<path fill-rule="evenodd" clip-rule="evenodd" d="M21.5 17.25C19.9812 17.25 18.75 18.4812 18.75 20C18.75 21.5188 19.9812 22.75 21.5 22.75C23.0188 22.75 24.25 21.5188 24.25 20C24.25 18.4812 23.0188 17.25 21.5 17.25ZM20.25 20C20.25 19.3096 20.8096 18.75 21.5 18.75C22.1904 18.75 22.75 19.3096 22.75 20C22.75 20.6904 22.1904 21.25 21.5 21.25C20.8096 21.25 20.25 20.6904 20.25 20Z" fill="url(#paint0_linear_536_34601)"/>
<path fill-rule="evenodd" clip-rule="evenodd" d="M21.5 34H27.5C32.5 34 34.5 32 34.5 27V21C34.5 16 32.5 14 27.5 14H21.5C16.5 14 14.5 16 14.5 21V27C14.5 32 16.5 34 21.5 34ZM27.5 32.5H21.5C19.1479 32.5 17.8917 32.0204 17.1857 31.3143C16.4796 30.6083 16 29.3521 16 27V21C16 18.6479 16.4796 17.3917 17.1857 16.6857C17.8917 15.9796 19.1479 15.5 21.5 15.5H27.5C29.8521 15.5 31.1083 15.9796 31.8143 16.6857C32.5204 17.3917 33 18.6479 33 21V23.6707C31.9476 23.0301 30.5093 23.117 29.5613 23.9311L25.4013 27.5011C24.9033 27.9288 24.0608 27.9296 23.5615 27.5035L23.2352 27.2166L23.2288 27.2111C22.2568 26.3761 20.7451 26.3041 19.682 27.0173L16.2168 29.3439C16.3493 29.9418 16.5374 30.4106 16.7668 30.7813L20.5179 28.2628C21.0337 27.9168 21.8001 27.9638 22.2485 28.3465L22.5749 28.6334L22.5813 28.6389C23.6423 29.5503 25.3177 29.5501 26.3787 28.6389L30.5387 25.0689C31.0377 24.6404 31.8824 24.6404 32.3813 25.0689L33 25.6003V27C33 29.3521 32.5204 30.6083 31.8143 31.3143C31.1083 32.0204 29.8521 32.5 27.5 32.5Z" fill="url(#paint1_linear_536_34601)"/>
<defs>
<linearGradient id="paint0_linear_536_34601" x1="14.6376" y1="25" x2="34.5" y2="25" gradientUnits="userSpaceOnUse">
<stop stop-color="color2"/>
<stop offset="1" stop-color="color3"/>
</linearGradient>
<linearGradient id="paint1_linear_536_34601" x1="14.6376" y1="25" x2="34.5" y2="25" gradientUnits="userSpaceOnUse">
<stop stop-color="color2"/>
<stop offset="1" stop-color="color3"/>
</linearGradient>
</defs>
</svg>
