<svg width="24" height="24" viewBox="0 0 24 24" fill="none" xmlns="http://www.w3.org/2000/svg">
<path fill-rule="evenodd" clip-rule="evenodd" d="M4.08725 9.46959L11.0205 3.81041C11.525 3.39809 12.4608 3.39293 12.9808 3.81894L19.9088 9.46359L19.9103 9.46482C20.0396 9.57169 20.2247 9.81582 20.3592 10.1751C20.4931 10.5329 20.518 10.848 20.4894 11.0301L20.4891 11.0322L19.1609 19.134L19.1605 19.1359C19.0365 19.8717 18.274 20.5 17.6008 20.5H6.40253C5.7177 20.5 4.96689 19.8803 4.84296 19.1367L4.84278 19.1357L3.51346 11.0268L3.51192 11.0178C3.48189 10.8413 3.50365 10.5305 3.63671 10.1751C3.77009 9.81876 3.95587 9.57602 4.08725 9.46959ZM21.9702 11.2695C22.1302 10.2708 21.6302 8.93587 20.8603 8.30406L13.9314 2.65856C12.8616 1.78219 11.1318 1.78219 10.072 2.64837L3.14302 8.30406C2.36314 8.93587 1.86322 10.2708 2.03319 11.2695L3.36299 19.3811C3.60295 20.8281 4.96275 22 6.40253 22H17.6008C19.0306 22 20.4004 20.8179 20.6404 19.3811L21.9702 11.2695ZM12.75 15C12.75 14.5858 12.4142 14.25 12 14.25C11.5858 14.25 11.25 14.5858 11.25 15V18C11.25 18.4142 11.5858 18.75 12 18.75C12.4142 18.75 12.75 18.4142 12.75 18V15Z" fill="currentColor"/>
</svg>
