<svg width="40" height="40" viewBox="0 0 40 40" fill="none" xmlns="http://www.w3.org/2000/svg">
<path fill-rule="evenodd" clip-rule="evenodd" d="M22.7727 32.7974C23.6185 33.1855 24.3939 33.3358 25.0962 33.3333C26.0762 33.3299 26.9992 33.0284 27.8545 32.5243C29.1238 31.7761 30.1831 30.6153 30.9307 29.5118C28.7243 28.8317 26.9646 29.2381 25.6043 30.0249C24.3614 30.7437 23.4035 31.8128 22.7727 32.7974ZM24.3526 27.8608C26.6654 26.523 29.7076 26.0765 33.281 27.7503C33.5866 27.8934 33.8214 28.1541 33.9319 28.473C34.0424 28.7919 34.0193 29.1419 33.8677 29.4434C33.0422 31.0866 31.4087 33.3313 29.124 34.678C27.9646 35.3614 26.611 35.828 25.105 35.8333C23.5919 35.8386 22.0095 35.3776 20.4038 34.3359C19.886 34 19.6909 33.3364 19.9445 32.7736C20.6373 31.2365 22.1111 29.1573 24.3526 27.8608Z" fill="color2"/>
<path fill-rule="evenodd" clip-rule="evenodd" d="M8.87882 29.6527C10.1143 31.802 11.6293 32.7188 12.9951 33.057C14.1398 33.3405 15.2722 33.2398 16.186 32.9885C15.0936 30.9128 13.6131 30.0016 12.2052 29.6479C11.043 29.356 9.85853 29.4283 8.87882 29.6527ZM12.8143 27.2233C15.2861 27.8442 17.6467 29.6152 19.0318 33.2309C19.2603 33.8275 19.0023 34.5004 18.4335 34.7911C17.0397 35.5035 14.7717 36.0725 12.3941 35.4837C9.94311 34.8768 7.5619 33.0851 5.97092 29.4169C5.69768 28.787 5.98377 28.0545 6.61165 27.7766C8.07421 27.129 10.426 26.6233 12.8143 27.2233Z" fill="color2"/>
<path fill-rule="evenodd" clip-rule="evenodd" d="M18.6095 12.0833C18.167 12.0833 17.93 12.4103 17.93 12.6522C17.93 12.8263 17.9514 12.9216 17.9654 12.9652C17.9722 12.9863 17.9777 12.9968 17.9796 13.0001C17.9814 13.0033 17.9823 13.0043 17.9831 13.0053C17.9883 13.0112 18.0544 13.082 18.373 13.1837L22.3815 14.4329C22.8528 14.5827 23.4421 14.831 23.8969 15.3513C24.3791 15.9029 24.57 16.5938 24.57 17.3478C24.57 19.1202 23.0716 20.4167 21.3905 20.4167H18.8889C17.0562 20.4167 15.4167 19.0088 15.4167 17.0863C15.4167 16.396 15.9763 15.8363 16.6667 15.8363C17.357 15.8363 17.9167 16.396 17.9167 17.0863C17.9167 17.47 18.2733 17.9167 18.8889 17.9167H21.3905C21.8385 17.9167 22.07 17.5964 22.07 17.3478C22.07 17.178 22.0489 17.0844 22.0349 17.0408C22.0281 17.0196 22.0224 17.0086 22.02 17.0044C22.0178 17.0004 22.0162 16.9984 22.0146 16.9966C22.0071 16.9879 21.9382 16.9156 21.6271 16.8164L17.6186 15.5671C17.1548 15.4197 16.5626 15.1759 16.1054 14.6558C15.6193 14.1028 15.43 13.4089 15.43 12.6522C15.43 10.8969 16.9229 9.58334 18.6095 9.58334H21.1111C22.9439 9.58334 24.5834 10.9912 24.5834 12.9137C24.5834 13.6041 24.0237 14.1637 23.3334 14.1637C22.643 14.1637 22.0834 13.6041 22.0834 12.9137C22.0834 12.53 21.7268 12.0833 21.1111 12.0833H18.6095Z" fill="color1"/>
<path fill-rule="evenodd" clip-rule="evenodd" d="M20 7.91666C20.6904 7.91666 21.25 8.4763 21.25 9.16666V20.8333C21.25 21.5237 20.6904 22.0833 20 22.0833C19.3096 22.0833 18.75 21.5237 18.75 20.8333V9.16666C18.75 8.4763 19.3096 7.91666 20 7.91666Z" fill="color1"/>
<path fill-rule="evenodd" clip-rule="evenodd" d="M20 24.1667C25.0626 24.1667 29.1666 20.0626 29.1666 15C29.1666 9.9374 25.0626 5.83334 20 5.83334C14.9374 5.83334 10.8333 9.9374 10.8333 15C10.8333 20.0626 14.9374 24.1667 20 24.1667ZM31.6666 15C31.6666 21.4433 26.4433 26.6667 20 26.6667C13.5567 26.6667 8.33331 21.4433 8.33331 15C8.33331 8.55669 13.5567 3.33334 20 3.33334C26.4433 3.33334 31.6666 8.55669 31.6666 15Z" fill="color2"/>
<path fill-rule="evenodd" clip-rule="evenodd" d="M20.0988 36.6628C19.4106 36.7173 18.8085 36.2037 18.7539 35.5155C18.6313 33.9694 18.5123 31.6166 18.5573 29.5816C18.5797 28.5713 18.6432 27.5896 18.7811 26.8104C18.8491 26.4258 18.9453 26.0305 19.0936 25.6877C19.2174 25.4017 19.501 24.8563 20.1153 24.6145C20.7577 24.3616 21.4834 24.6774 21.7363 25.3197C21.9408 25.8391 21.7735 26.4131 21.3624 26.7474C21.3279 26.8471 21.2849 27.0085 21.2429 27.246C21.1383 27.8369 21.0781 28.6689 21.0567 29.6369C21.0142 31.5586 21.1274 33.8211 21.2461 35.3179C21.3007 36.0061 20.787 36.6082 20.0988 36.6628ZM21.4087 26.6398C21.4089 26.6406 21.4048 26.6494 21.3955 26.6639C21.4038 26.6462 21.4084 26.639 21.4087 26.6398Z" fill="color2"/>
</svg>
