<svg width="25" height="24" viewBox="0 0 25 24" fill="none" xmlns="http://www.w3.org/2000/svg">
<path d="M12.875 16V17.25V19.5M12.875 19.5H9.375V22.5H15.875V19.5H12.875Z" stroke="color2" stroke-width="1.5" stroke-linecap="round" stroke-linejoin="round"/>
<path d="M4.87512 16.2775C7.07114 18.1334 12.2094 17.2768 12.2094 16.9208C12.2094 16.5647 11.5677 11.7511 9.10969 10.2963C6.99956 9.04745 4.94178 9.26986 2.83307 10.1242C2.76923 10.1501 2.72329 10.2075 2.7129 10.2755C2.39505 12.3585 2.97658 14.673 4.87512 16.2775Z" stroke="color2" stroke-width="1.5" stroke-linecap="round" stroke-linejoin="round"/>
<path d="M20.903 13.1174C23.0773 10.3673 21.829 4.13961 21.3951 4.15377C20.9612 4.16794 15.1205 5.14156 13.4454 8.1949C12.0033 10.8238 12.3625 13.3296 13.4954 15.873C13.5234 15.936 13.5822 15.98 13.6506 15.9884C16.2081 16.3008 19.0173 15.5024 20.903 13.1174Z" stroke="color2" stroke-width="1.5" stroke-linecap="round" stroke-linejoin="round"/>
<path d="M6.375 13.2773L8.375 14.2773" stroke="currentColor" stroke-width="1.5" stroke-linecap="round" stroke-linejoin="round"/>
<path d="M17.375 11L18.375 9" stroke="currentColor" stroke-width="1.5" stroke-linecap="round" stroke-linejoin="round"/>
</svg>
