<svg width="40" height="40" viewBox="0 0 40 40" fill="none" xmlns="http://www.w3.org/2000/svg">
<path fill-rule="evenodd" clip-rule="evenodd" d="M11.2595 22.4043C12.6215 21.7653 14.1378 21.5251 15.6357 21.7261C17.1752 21.9328 19.3978 22.2388 21.3622 22.5383C22.3436 22.688 23.2684 22.8372 24.0146 22.9726C24.716 23.0999 25.3742 23.2339 25.7396 23.3657C26.6407 23.6907 27.3082 24.2263 27.516 25.0877C27.598 25.4277 27.5822 25.7384 27.5743 25.8916L27.5742 25.8948C27.5666 26.0436 27.5659 26.0814 27.565 26.0831C27.62 26.4493 27.6361 26.8578 27.5329 27.285C27.4254 27.7299 27.209 28.1114 26.9166 28.4469C26.4537 28.978 25.8068 29.1518 25.4218 29.2213C24.9922 29.2988 24.5799 29.2981 24.327 29.2878C24.0605 29.277 23.8187 29.2347 23.6322 29.198L19.1694 28.3191C18.4921 28.1857 18.0511 27.5285 18.1845 26.8511C18.3179 26.1738 18.9752 25.7328 19.6525 25.8662L24.1152 26.7451C24.2621 26.7741 24.3552 26.7869 24.4283 26.7899C24.5938 26.7966 24.8025 26.7927 24.9779 26.761C25.0238 26.7527 25.0588 26.7441 25.084 26.7366C25.0884 26.7297 25.0915 26.7243 25.0936 26.7203C25.0998 26.709 25.1016 26.7029 25.1028 26.6978C25.1055 26.6868 25.1187 26.6244 25.0919 26.4491C25.0669 26.2851 25.0644 26.138 25.0662 26.0292C25.0676 25.9471 25.0725 25.8577 25.0756 25.8002C25.0758 25.798 25.0759 25.7958 25.076 25.7936C25.0315 25.7721 24.9712 25.7462 24.8914 25.7174C24.7615 25.6706 24.3255 25.5698 23.5683 25.4324C22.8558 25.3032 21.9574 25.158 20.9854 25.0098C19.043 24.7136 16.8378 24.4099 15.303 24.2039C14.2878 24.0676 13.2551 24.2295 12.3215 24.6676L8.65559 26.3877L11.1187 30.5706C12.3881 30.1852 13.7632 30.2344 15.0183 30.7322L18.4488 32.0927C19.9813 32.7005 21.7072 32.5772 23.1378 31.7579L33.5987 25.7664C33.9189 25.583 34.1214 25.2471 34.1341 24.8784C34.1468 24.5118 33.9585 24.1481 33.638 23.9404C33.3036 23.7237 32.8768 23.6996 32.5328 23.8687L29.719 25.2522C29.0994 25.5568 28.3503 25.3015 28.0457 24.682C27.7411 24.0625 27.9964 23.3134 28.6159 23.0087L31.4297 21.6252C32.5765 21.0614 33.9377 21.1556 34.9975 21.8423C36.0422 22.5193 36.6762 23.7055 36.6327 24.9648C36.59 26.1984 35.9124 27.3222 34.8412 27.9357L24.3803 33.9272C22.2894 35.1248 19.7669 35.3049 17.5271 34.4166L14.0966 33.0561C13.1505 32.6809 12.0864 32.7471 11.1942 33.2367L10.625 33.5491C8.21136 34.8736 5.18051 33.949 3.91723 31.5027C2.72456 29.1931 3.54388 26.3541 5.78371 25.0352L6.24768 24.762C6.28125 24.7422 6.31572 24.724 6.35098 24.7075L11.2595 22.4043ZM8.81782 31.5901L6.49364 27.6431C5.83702 28.3658 5.66819 29.4448 6.13853 30.3556C6.6549 31.3555 7.77452 31.8361 8.81782 31.5901Z" fill="color2"/>
<path fill-rule="evenodd" clip-rule="evenodd" d="M25.0358 6.16669C25.0358 5.47633 24.4762 4.91669 23.7858 4.91669C23.0955 4.91669 22.5358 5.47633 22.5358 6.16669V6.44068H22.2068C20.2466 6.44068 18.75 8.08936 18.75 9.99987C18.75 10.8726 18.9412 11.6462 19.43 12.2697C19.9072 12.8785 20.5444 13.1823 21.0839 13.3735L22.5358 13.8779V17.0425H22.5253C21.8731 17.0425 21.25 16.4771 21.25 15.642C21.25 14.9517 20.6904 14.392 20 14.392C19.3096 14.392 18.75 14.9517 18.75 15.642C18.75 17.7418 20.3792 19.5425 22.5253 19.5425H22.5358V19.8171C22.5358 20.5074 23.0955 21.0671 23.7858 21.0671C24.4762 21.0671 25.0358 20.5074 25.0358 19.8171V19.5425H25.3805C27.3407 19.5425 28.8373 17.8938 28.8373 15.9833C28.8373 15.1105 28.6461 14.337 28.1573 13.7134C27.6801 13.1046 27.0429 12.8009 26.5034 12.6096L25.0358 12.0998V8.94068H25.062C25.7142 8.94068 26.3373 9.50608 26.3373 10.3411C26.3373 11.0315 26.897 11.5911 27.5873 11.5911C28.2777 11.5911 28.8373 11.0315 28.8373 10.3411C28.8373 8.24135 27.2081 6.44068 25.062 6.44068H25.0358V6.16669ZM22.5358 8.94068H22.2068C21.7327 8.94068 21.25 9.36231 21.25 9.99987C21.25 10.5149 21.3603 10.6798 21.3975 10.7274C21.4463 10.7896 21.5593 10.8892 21.9157 11.0159L22.5358 11.2313V8.94068ZM25.0358 14.7464V17.0425H25.3805C25.8546 17.0425 26.3373 16.6208 26.3373 15.9833C26.3373 15.4683 26.2271 15.3033 26.1898 15.2558C26.1411 15.1936 26.028 15.0939 25.6716 14.9672L25.0358 14.7464Z" fill="color1"/>
</svg>
