<svg width="25" height="24" viewBox="0 0 25 24" fill="none" xmlns="http://www.w3.org/2000/svg">
<path d="M13.6707 8.68523C13.6707 9.56568 14.3463 10.2755 15.1858 10.2755H16.899C17.6293 10.2755 18.2231 9.65441 18.2231 8.88999C18.2231 8.05731 17.8613 7.76383 17.3221 7.57273L14.5716 6.6172C14.0324 6.4261 13.6707 6.13261 13.6707 5.29994C13.6707 4.53552 14.2644 3.91443 14.9947 3.91443H16.7079C17.5474 3.91443 18.2231 4.62425 18.2231 5.5047" stroke="currentColor" stroke-width="1.5" stroke-linecap="round" stroke-linejoin="round"/>
<path d="M15.9421 3V11.1902" stroke="currentColor" stroke-width="1.5" stroke-linecap="round" stroke-linejoin="round"/>
<path d="M12.2998 16.586L15.4687 17.2101C15.5687 17.2298 15.6693 17.2462 15.7712 17.2512C16.0562 17.2651 16.6645 17.2566 16.9219 16.9613C17.1767 16.6689 17.2293 16.3832 17.1707 15.9998C17.1121 15.6164 17.4167 15.1352 16.458 14.7894C15.7383 14.5299 11.4294 13.9337 9.32534 13.6526C8.57134 13.5518 7.80502 13.6722 7.11636 13.9953L3.47639 15.7032M3.47639 15.7032L3.14964 15.8956C1.97486 16.5874 1.54513 18.0764 2.17068 19.2878V19.2878C2.83327 20.5709 4.42294 21.0558 5.6889 20.3611L6.08971 20.1412M3.47639 15.7032L6.08971 20.1412M6.08971 20.1412V20.1412C6.94801 19.6701 7.97165 19.6064 8.88175 19.9674L11.6088 21.0489C12.7405 21.4977 14.015 21.4067 15.0714 20.8016L22.7288 16.4159C23.2187 16.1353 23.5287 15.6213 23.5481 15.0571V15.0571C23.5679 14.4846 23.2784 13.9388 22.7977 13.6273V13.6273C22.3068 13.3092 21.6772 13.2675 21.1522 13.5256L19.1706 14.4999" stroke="color2" stroke-width="1.5" stroke-linecap="round" stroke-linejoin="round"/>
</svg>
