<svg width="25" height="24" viewBox="0 0 25 24" fill="none" xmlns="http://www.w3.org/2000/svg">
<path fill-rule="evenodd" clip-rule="evenodd" d="M5.79562 9.04624C5.79562 6.4473 7.62802 4.22767 10.1941 3.3741C10.5535 2.99941 11.0369 2.58607 11.5253 2.31158C11.8607 2.12303 12.1985 2 12.5 2C12.8117 2 13.1622 2.13151 13.5088 2.33097C13.5797 2.37176 13.6504 2.41538 13.7206 2.46131L13.7246 2.46396C14.1153 2.72013 14.4894 3.0472 14.7839 3.35135C17.3857 4.18913 19.2599 6.43066 19.2599 9.04624V11.9585C19.2599 12.5732 19.5516 13.5104 19.8882 14.0344L21.1785 15.9591C21.9191 17.0676 21.3244 18.5086 19.9667 18.9117C18.5872 19.3256 17.1766 19.6215 15.7526 19.7993C15.3565 21.0645 14.0452 22 12.5 22C11.5775 22 10.7225 21.66 10.115 21.12C9.70988 20.7599 9.40482 20.3019 9.24653 19.7936C7.8379 19.6152 6.44252 19.3213 5.07752 18.9117C3.6189 18.4683 3.06911 17.1482 3.86574 15.9591L5.15606 14.0344C5.50389 13.5104 5.79562 12.5732 5.79562 11.9585V9.04624ZM5.31562 16.7266L6.6057 14.8022L6.60944 14.7966C6.88388 14.3832 7.09289 13.8827 7.23348 13.4278C7.37398 12.9733 7.48312 12.4447 7.48312 11.9585V9.04624C7.48312 6.52451 9.76222 4.5 12.5277 4.5C15.282 4.5 17.5724 6.53459 17.5724 9.04624V11.9585C17.5724 12.4443 17.6814 12.9719 17.8192 13.4234C17.9575 13.8763 18.161 14.3707 18.4228 14.7782L18.4305 14.7903L19.7281 16.7258C19.9292 17.028 19.7489 17.3949 19.4321 17.4889L19.427 17.4905C14.9425 18.8361 10.1057 18.8365 5.62101 17.4916C5.33095 17.4028 5.23976 17.2702 5.21036 17.1989C5.18105 17.1278 5.15275 16.9699 5.31562 16.7266ZM13.7824 19.9696C12.9265 20.0109 12.0688 20.0101 11.213 19.9672C11.2434 19.9991 11.2751 20.0299 11.3082 20.0593C11.6132 20.3304 12.0443 20.5 12.5 20.5C13.0104 20.5 13.4716 20.2932 13.7824 19.9696ZM13.3437 6.75C13.3437 6.33579 12.966 6 12.5 6C12.034 6 11.6562 6.33579 11.6562 6.75V10.25C11.6562 10.6642 12.034 11 12.5 11C12.966 11 13.3437 10.6642 13.3437 10.25V6.75Z" fill="currentColor"/>
</svg>
