<svg width="25" height="24" viewBox="0 0 25 24" fill="none" xmlns="http://www.w3.org/2000/svg">
    <path fill-rule="evenodd" clip-rule="evenodd" d="M20.2643 20.2057C21.1241 19.4486 21.6788 18.4045 21.8249 17.2682C21.8555 17.0068 21.8008 16.7425 21.6688 16.5147C21.5369 16.2869 21.3348 16.1079 21.0928 16.0044L17.0049 14.2525C16.8197 14.1719 16.6173 14.1393 16.4162 14.1576C16.2152 14.1759 16.0219 14.2445 15.8544 14.357L13.6666 15.8126C13.643 15.8299 13.6152 15.8406 13.5861 15.8437C13.5571 15.8468 13.5277 15.8421 13.501 15.8301C12.1264 15.1644 11.0153 14.0563 10.3457 12.6835C10.3341 12.6572 10.3288 12.6285 10.3303 12.5997C10.3318 12.5709 10.3401 12.5429 10.3545 12.5179L11.8101 10.304C11.919 10.1348 11.9848 9.94135 12.0015 9.74073C12.0182 9.54011 11.9854 9.33846 11.9059 9.1535L10.154 5.06563C10.0505 4.8236 9.87148 4.62153 9.64371 4.48958C9.41593 4.35763 9.1516 4.30287 8.89015 4.33347C7.75393 4.47958 6.70975 5.03432 5.95266 5.89406C5.19558 6.75381 4.77736 7.85976 4.77612 9.00533C4.77612 15.8301 10.3283 21.3823 17.1531 21.3823C18.2986 21.381 19.4046 20.9628 20.2643 20.2057Z" fill="#FFC709"/>
    <path d="M14.2229 3.12169C14.2596 2.97963 14.3475 2.85853 14.4678 2.78453C14.5881 2.71054 14.731 2.68958 14.8657 2.72618C16.1318 3.08648 17.2861 3.79278 18.2131 4.77429C19.1401 5.75581 19.8071 6.97806 20.1474 8.31856C20.1657 8.38923 20.1706 8.46305 20.1616 8.53572C20.1527 8.60838 20.1302 8.67844 20.0954 8.7418C20.0606 8.80516 20.0143 8.86055 19.9591 8.90475C19.9039 8.94894 19.8409 8.98105 19.7739 8.99921L19.6436 9.0176C19.5282 9.01741 19.4161 8.97666 19.3249 8.90176C19.2337 8.82685 19.1686 8.72201 19.1397 8.60369C18.8451 7.4516 18.2707 6.40128 17.4736 5.5573C16.6765 4.71331 15.6845 4.10508 14.5964 3.79314C14.4641 3.75426 14.3513 3.66253 14.2816 3.53728C14.2119 3.41204 14.1909 3.26305 14.2229 3.12169ZM13.8754 6.63532C14.4925 6.81419 15.0549 7.16017 15.5074 7.63919C15.9598 8.11821 16.2865 8.71374 16.4554 9.36713C16.4843 9.48545 16.5494 9.59028 16.6406 9.66519C16.7318 9.7401 16.8439 9.78084 16.9593 9.78104L17.0896 9.76264C17.2225 9.72176 17.3355 9.62825 17.4051 9.5015C17.4746 9.37476 17.4954 9.22453 17.4631 9.08199C17.2485 8.24021 16.8291 7.47275 16.2468 6.85621C15.6645 6.23967 14.9397 5.79561 14.1447 5.56836C14.0101 5.53417 13.8682 5.55618 13.7485 5.62983C13.6288 5.70348 13.5405 5.8231 13.5019 5.96387C13.4675 6.10535 13.4876 6.25547 13.5576 6.38133C13.6276 6.5072 13.7419 6.59853 13.8754 6.63532ZM20.825 15.6585C20.6794 16.8576 20.1265 17.9595 19.2696 18.7584C18.4128 19.5574 17.3105 19.9987 16.1688 20C9.36686 20 3.83325 14.1409 3.83325 6.93886C3.83448 5.72995 4.2513 4.56287 5.00586 3.65559C5.76041 2.74832 6.80109 2.16292 7.93351 2.00874C8.19409 1.97644 8.45754 2.03422 8.68455 2.17347C8.91156 2.31272 9.08996 2.52596 9.19312 2.78137L10.9392 7.09522C11.0184 7.29041 11.0511 7.50321 11.0345 7.71491C11.0178 7.92662 10.9523 8.13075 10.8437 8.30936L9.39292 10.6456C9.37859 10.672 9.37033 10.7016 9.36882 10.7319C9.36731 10.7623 9.37259 10.7926 9.38424 10.8204C10.0515 12.269 11.159 13.4384 12.5289 14.1409C12.5555 14.1535 12.5848 14.1585 12.6138 14.1552C12.6428 14.152 12.6705 14.1407 12.694 14.1225L14.8744 12.5864C15.0414 12.4676 15.234 12.3952 15.4344 12.3759C15.6348 12.3566 15.8366 12.3911 16.0211 12.476L20.0953 14.3248C20.3365 14.4341 20.5379 14.623 20.6694 14.8633C20.8009 15.1037 20.8555 15.3826 20.825 15.6585ZM19.7913 15.5206C19.7942 15.4822 19.7858 15.4438 19.7671 15.4108C19.7484 15.3778 19.7204 15.3519 19.687 15.3366L15.6128 13.4878C15.5859 13.4769 15.5569 13.4728 15.5282 13.476C15.4995 13.4792 15.4719 13.4896 15.4478 13.5062L13.276 15.0423C13.1002 15.1646 12.8977 15.2372 12.6879 15.2533C12.4781 15.2694 12.2679 15.2284 12.0772 15.1343C10.4971 14.3198 9.21908 12.9698 8.44604 11.2987C8.35577 11.0992 8.31554 10.8785 8.32923 10.6578C8.34292 10.4371 8.41008 10.2238 8.52423 10.0386L9.96627 7.70229C9.98348 7.67738 9.99416 7.64809 9.99721 7.61739C10.0003 7.58669 9.99558 7.55569 9.98364 7.52753L8.23756 3.21367C8.22423 3.18133 8.20241 3.15374 8.17468 3.13417C8.14696 3.1146 8.11451 3.10388 8.08119 3.1033H8.06382C7.18397 3.22575 6.37595 3.68198 5.78966 4.38732C5.20338 5.09267 4.87864 5.99925 4.87569 6.93886C4.87799 10.1094 6.06853 13.1494 8.1859 15.3913C10.3033 17.6332 13.1744 18.8938 16.1688 18.8962C17.0562 18.8931 17.9124 18.5493 18.5786 17.9285C19.2447 17.3077 19.6756 16.4522 19.7913 15.5206Z" fill="black"/>
</svg>
