<svg width="25" height="24" viewBox="0 0 25 24" fill="none" xmlns="http://www.w3.org/2000/svg">
<path d="M18.875 4H14.875C12.875 4 11.875 5 11.875 7V17C11.875 19 12.875 20 14.875 20H18.875" stroke="#F0AF08" stroke-width="1.5" stroke-linecap="round" stroke-linejoin="round"/>
<path d="M6.875 12H18.875" stroke="#F0AF08" stroke-width="1.5" stroke-linecap="round" stroke-linejoin="round"/>
<path d="M20.875 14C21.9796 14 22.875 13.1046 22.875 12C22.875 10.8954 21.9796 10 20.875 10C19.7704 10 18.875 10.8954 18.875 12C18.875 13.1046 19.7704 14 20.875 14Z" stroke="#1B1D29" stroke-width="1.5" stroke-linecap="round" stroke-linejoin="round"/>
<path d="M20.875 6C21.9796 6 22.875 5.10457 22.875 4C22.875 2.89543 21.9796 2 20.875 2C19.7704 2 18.875 2.89543 18.875 4C18.875 5.10457 19.7704 6 20.875 6Z" stroke="#1B1D29" stroke-width="1.5" stroke-linecap="round" stroke-linejoin="round"/>
<path d="M20.875 22C21.9796 22 22.875 21.1046 22.875 20C22.875 18.8954 21.9796 18 20.875 18C19.7704 18 18.875 18.8954 18.875 20C18.875 21.1046 19.7704 22 20.875 22Z" stroke="#1B1D29" stroke-width="1.5" stroke-linecap="round" stroke-linejoin="round"/>
<path d="M4.875 14C5.97957 14 6.875 13.1046 6.875 12C6.875 10.8954 5.97957 10 4.875 10C3.77043 10 2.875 10.8954 2.875 12C2.875 13.1046 3.77043 14 4.875 14Z" stroke="#1B1D29" stroke-width="1.5" stroke-linecap="round" stroke-linejoin="round"/>
</svg>
