<svg width="40" height="40" viewBox="0 0 40 40" fill="none" xmlns="http://www.w3.org/2000/svg">
<path d="M20 21.2502C14.7167 21.2502 10.4167 16.9502 10.4167 11.6668C10.4167 6.3835 14.7167 2.0835 20 2.0835C25.2833 2.0835 29.5833 6.3835 29.5833 11.6668C29.5833 16.9502 25.2833 21.2502 20 21.2502ZM20 4.5835C18.1227 4.5879 16.3236 5.33559 14.9962 6.66302C13.6687 7.99045 12.9211 9.78957 12.9167 11.6668C12.9211 13.5441 13.6687 15.3432 14.9962 16.6706C16.3236 17.9981 18.1227 18.7458 20 18.7502C21.8773 18.7458 23.6764 17.9981 25.0038 16.6706C26.3312 15.3432 27.0789 13.5441 27.0833 11.6668C27.0789 9.78957 26.3312 7.99045 25.0038 6.66302C23.6764 5.33559 21.8773 4.5879 20 4.5835V4.5835Z" fill="currentColor"/>
<path d="M34.3167 37.9167C33.6333 37.9167 33.0667 37.35 33.0667 36.6667C33.0667 30.9167 27.2 26.25 20 26.25C12.8 26.25 6.93332 30.9167 6.93332 36.6667C6.93332 37.35 6.36665 37.9167 5.68332 37.9167C4.99999 37.9167 4.43332 37.35 4.43332 36.6667C4.43332 29.55 11.4167 23.75 20 23.75C28.5833 23.75 35.5667 29.55 35.5667 36.6667C35.5667 37.35 35 37.9167 34.3167 37.9167Z" fill="currentColor"/>
</svg>
