<svg width="107" height="37" viewBox="0 0 107 37" fill="none" xmlns="http://www.w3.org/2000/svg">
<path d="M15.1007 13.1156C13.9664 13.1156 12.4775 12.4067 12.4775 10.2798C12.4775 8.15294 14.1081 7.51488 15.1007 7.51488C15.8805 7.51488 16.3768 7.72756 16.5895 7.79846L16.1641 8.57831C15.9514 8.43652 15.597 8.43652 15.3843 8.43652C14.5335 8.43652 13.8246 9.21637 13.8246 10.2798C13.8246 11.2015 14.4626 12.1231 15.3843 12.1231C15.6679 12.1231 15.8805 12.1231 16.0932 11.9813L16.5895 12.7612C16.235 13.0447 15.597 13.1156 15.0298 13.1156H15.1007Z" fill="currentColor"/>
<path d="M28.1456 12.9738V9.21634C28.1456 8.57828 27.7203 8.50738 27.4367 8.50738C27.1531 8.50738 26.9404 8.57828 26.7986 8.72007V12.9738H25.4516V9.21634C25.4516 9.00365 25.3807 8.79097 25.2389 8.64918C25.168 8.50738 24.9554 8.50738 24.6718 8.50738C24.3882 8.50738 24.1755 8.50738 24.1046 8.57827V12.9738H22.7576V7.72753C23.2538 7.58574 23.9628 7.51484 24.3882 7.51484C24.8136 7.44395 25.3807 7.51484 25.6643 7.65663C25.877 7.72753 26.0897 7.86932 26.2315 8.01111C26.3733 7.86932 26.586 7.72753 26.8695 7.65663C27.0822 7.51484 27.4367 7.51484 27.7912 7.51484C28.2166 7.51484 28.7128 7.65663 29.0673 8.01111C29.2091 8.1529 29.4927 8.50738 29.4927 9.21634V12.9738H28.1456Z" fill="currentColor"/>
<path d="M20.9142 10.2798C20.9142 11.7686 20.2761 12.1231 19.709 12.1231C19.1418 12.1231 18.5038 11.7686 18.5038 10.2798C18.5038 8.791 19.1418 8.43652 19.709 8.43652C20.2761 8.43652 20.9142 8.86189 20.9142 10.2798ZM22.2612 10.2798C22.2612 8.50741 21.3396 7.51488 19.709 7.51488C18.0784 7.51488 17.1567 8.50741 17.1567 10.2798C17.1567 12.0522 18.0784 13.1156 19.709 13.1156C21.3396 13.1156 22.2612 12.0522 22.2612 10.2798Z" fill="currentColor"/>
<path d="M3.54479 8.08219C3.54479 6.66428 2.83583 6.38069 2.41045 6.38069C2.19776 6.3098 1.91418 6.38069 1.91418 6.38069V9.7837H2.19777C2.83583 9.7837 3.54479 9.28742 3.54479 8.08219ZM5.38808 8.08219C5.38808 9.14563 4.89181 9.85459 4.60822 10.1382C4.04106 10.7053 3.54479 10.8471 2.19777 10.8471H1.91418V13.0449H0V5.45905C0 5.45905 1.06344 5.31726 2.12688 5.31726C3.68659 5.31726 4.25374 5.60084 4.67912 6.02622C5.0336 6.3807 5.38808 7.16055 5.38808 8.08219Z" fill="currentColor"/>
<path d="M9.71274 13.0447H8.15303L5.45898 5.45885H7.72765C7.72765 5.45885 9.00378 9.92529 9.00378 10.0671C9.00378 9.92529 10.3508 5.45885 10.3508 5.45885H12.4068L9.71274 13.0447Z" fill="currentColor"/>
<path d="M33.2501 11.3432C33.2501 10.847 33.1083 10.2089 31.6195 10.2089H31.4068V12.194C31.8322 12.3358 32.3994 12.2649 32.7539 12.1231C33.1083 11.9104 33.2501 11.6977 33.2501 11.3432ZM33.1083 8.57828C33.1083 8.08201 32.7538 7.79843 32.0449 7.79843C31.6904 7.79843 31.5486 7.86932 31.4068 7.86932V9.57082H31.6195C32.8247 9.57082 33.1083 9.07455 33.1083 8.57828ZM34.3136 12.3358C33.8173 12.832 33.0374 13.1156 31.9031 13.1156C31.0524 13.1156 30.0598 12.9738 30.0598 12.9738V7.08947C30.0598 7.08947 30.9106 7.01857 31.5486 7.01857C33.1083 7.01857 33.4628 7.23126 33.7464 7.44395C34.1009 7.65663 34.4554 8.01111 34.4554 8.57828C34.4554 9.49992 33.5337 9.71261 33.321 9.85441C33.7464 9.9962 34.2427 10.2089 34.4554 10.7052C34.7389 11.1305 34.5971 12.0522 34.3136 12.3358Z" fill="currentColor"/>
<path d="M38.0002 10.138C36.9367 10.138 36.4404 10.4925 36.4404 11.2015C36.4404 11.8395 36.8658 12.2649 37.5748 12.2649C37.7875 12.2649 38.0002 12.194 38.0002 12.194V10.138ZM39.3472 12.9739C39.3472 12.9739 38.4964 13.1156 37.9292 13.1156C35.9442 13.1156 35.1643 12.4067 35.1643 11.2015C35.1643 10.2798 36.086 9.42906 38.0002 9.42906V9.21637C38.0002 8.93279 37.7875 8.43652 37.0076 8.43652C36.5113 8.43652 36.1569 8.57831 35.9442 8.7201L35.5188 7.86935C35.8024 7.72756 36.4404 7.51488 37.3621 7.51488C38.2837 7.51488 39.3472 8.01114 39.3472 9.21637V12.9739Z" fill="currentColor"/>
<path d="M42.821 12.974V9.64185C42.821 8.9329 42.7501 8.64931 42.183 8.50752C41.8994 8.43663 41.5449 8.50752 41.2613 8.57842V12.974H39.9143V7.72767C39.9143 7.72767 40.7651 7.51498 41.5449 7.51498C42.5375 7.44409 43.0337 7.58588 43.53 7.86946C44.0263 8.22394 44.1681 8.79111 44.1681 9.14559V12.974H42.821Z" fill="currentColor"/>
<path d="M47.8548 12.9739L46.0824 10.9179V12.9739H44.7354V7.08955H46.0824V9.35822L47.6421 7.58582H49.4854L47.004 10.1381L49.6272 12.9739H47.8548Z" fill="currentColor"/>
<path d="M50.9033 5.9553C50.5488 6.38067 51.3996 6.87694 51.9667 7.08963C52.9593 7.44411 53.8809 7.58589 54.8735 7.65679V4.67917C53.0302 4.89186 51.5414 5.38813 50.9033 5.9553Z" fill="currentColor"/>
<path d="M58.7727 8.36567C60.616 8.15298 62.1048 7.72761 62.7429 7.16044C63.0973 6.73507 62.2466 6.2388 61.6794 6.02611C60.6869 5.67163 59.7652 5.45894 58.7727 5.38805V8.36567Z" fill="currentColor"/>
<path d="M56.7877 8.43657C54.2355 8.43657 51.9668 8.0112 51.0452 7.30224L56.8586 13.0448L62.743 7.08955C61.9631 7.86941 59.6236 8.43657 56.7877 8.43657Z" fill="currentColor"/>
<path d="M56.7877 8.43657C54.2355 8.43657 51.9668 8.0112 51.0452 7.30224C51.9668 8.0821 54.2355 8.57836 56.7877 8.57836C59.6236 8.57836 61.9631 7.9403 62.743 7.08955C61.9631 7.86941 59.6236 8.43657 56.7877 8.43657Z" fill="currentColor"/>
<path d="M58.7727 5.45894C59.7652 5.60073 60.6869 5.74252 61.6085 6.097C62.1048 6.23879 62.8138 6.59328 62.8138 6.94775C62.8138 6.52238 62.1048 6.1679 61.6794 6.02611C60.6869 5.67163 59.7652 5.45894 58.7727 5.38805V5.45894Z" fill="currentColor"/>
<path d="M50.9031 5.95525C51.6829 5.1754 54.0225 4.60822 56.7874 4.60822C59.5524 4.60822 61.6083 5.1045 62.6009 5.81346L56.7874 0L50.9031 5.95525Z" fill="currentColor"/>
<path d="M56.7874 4.46642C54.0225 4.46642 51.6829 5.10448 50.9031 5.95523C51.6829 5.17538 54.0225 4.6082 56.7874 4.6082C59.5524 4.6082 61.6083 5.10448 62.6009 5.81344C61.6083 5.03358 59.4106 4.46642 56.8583 4.46642H56.7874Z" fill="currentColor"/>
<path d="M56.8586 12.9739L51.0452 7.30224L56.8586 13.0448L62.743 7.08955L56.8586 12.9739Z" fill="currentColor"/>
<path d="M51.9666 7.08956C52.9592 7.44404 53.8808 7.58583 54.8734 7.65672V7.58583C53.8808 7.51493 52.9592 7.30224 51.9666 7.01866C51.5413 6.80597 50.8323 6.52239 50.8323 6.16791C50.7614 6.52239 51.4704 6.87687 51.9666 7.08956Z" fill="currentColor"/>
<path d="M2.69404 19.9217V30.8397H4.18285C5.0336 30.8397 5.88436 30.7688 6.59332 30.5561C7.30227 30.3434 7.94033 30.0598 8.43661 29.5636C9.00377 29.1382 9.35826 28.571 9.64184 27.8621C9.92542 27.1531 10.0672 26.3733 10.0672 25.3807C10.0672 24.6009 9.99631 23.9628 9.85452 23.3956C9.71273 22.8284 9.50005 22.3322 9.21646 21.9777C9.00378 21.5523 8.6493 21.1978 8.29482 20.9852C7.94034 20.7016 7.58585 20.4889 7.16048 20.3471C6.66421 20.2053 6.23884 20.0635 5.74256 19.9926C5.24629 19.9926 4.75001 19.9217 4.18285 19.9217H2.69404ZM2.69404 32.0449V36.7949H0V18.7165H4.53733C5.81346 18.7165 6.87689 18.8583 7.79853 19.071C8.72018 19.2837 9.42915 19.5672 10.0672 19.9217C10.7053 20.2762 11.2015 20.7016 11.556 21.127C11.9105 21.6232 12.1941 22.1195 12.4068 22.6158C12.6195 23.112 12.7613 23.6083 12.7613 24.1046C12.8322 24.6009 12.903 25.0262 12.903 25.4516C12.903 25.877 12.8322 26.3732 12.7613 26.8695C12.6904 27.3658 12.5486 27.7912 12.3359 28.2874C12.1232 28.7837 11.8396 29.28 11.4851 29.7053C11.1306 30.1307 10.6344 30.5561 9.9963 30.9106C9.35824 31.2651 8.64929 31.5486 7.72764 31.7613C6.80599 31.974 5.74256 32.0449 4.53733 32.0449H2.69404Z" fill="currentColor"/>
<path d="M19.2835 19.9217V28.7128H20.8433C21.694 28.7128 22.4739 28.6419 23.1828 28.5001C23.8918 28.2874 24.4589 28.0747 24.9552 27.7203C25.4515 27.3658 25.806 26.8695 26.0896 26.3732C26.3731 25.8061 26.5149 25.0971 26.5149 24.3173C26.5149 23.3956 26.3731 22.6158 26.0187 22.0486C25.6642 21.4814 25.2388 21.0561 24.7425 20.7725C24.1754 20.418 23.6082 20.2053 22.8993 20.1344C22.2612 19.9926 21.5522 19.9217 20.8433 19.9217H19.2835ZM22.3321 18.7165C23.3246 18.7165 24.2463 18.8583 24.9552 19.0001C25.7351 19.2128 26.3731 19.4255 26.8694 19.709C27.3657 20.0635 27.791 20.418 28.1455 20.7725C28.4291 21.1269 28.7127 21.5523 28.8545 21.9777C29.0672 22.4031 29.1381 22.8285 29.209 23.1829C29.2799 23.6083 29.3508 23.9628 29.3508 24.3173C29.3508 24.8135 29.2799 25.3098 29.1381 25.8061C28.9963 26.3733 28.7127 26.9404 28.3582 27.4367C28.0037 27.9329 27.4366 28.4292 26.7985 28.8546C26.1604 29.28 25.3806 29.5636 24.3881 29.7053L29.6344 36.7949H26.3731L21.2686 29.918H19.2835V36.7949H16.6604V18.7165H22.3321Z" fill="currentColor"/>
<path d="M44.0263 18.7165V19.9217H35.6606V25.3807H43.7427V26.5859H35.6606V35.5897H44.0263V36.7949H32.9666V18.7165H44.0263Z" fill="currentColor"/>
<path d="M56.8584 26.0188L62.4592 19.4964V18.7165H65.1532V36.7949H62.4592V21.3396L56.0785 28.7128L49.7688 21.3396V36.7949H48.4927V19.9217L47.571 18.7165H50.6905L56.8584 26.0188Z" fill="currentColor"/>
<path d="M73.4482 18.7165H70.7542V36.7949H73.4482V18.7165Z" fill="currentColor"/>
<path d="M90.1086 18.7165V19.9217H81.7429V25.3807H89.825V26.5859H81.7429V35.5897H90.1086V36.7949H79.0488V18.7165H90.1086Z" fill="currentColor"/>
<path d="M96.4894 19.9217V28.7128H98.0491C98.8998 28.7128 99.6797 28.6419 100.389 28.5001C101.098 28.2874 101.665 28.0747 102.161 27.7203C102.657 27.3658 103.083 26.8695 103.366 26.3732C103.579 25.8061 103.721 25.0971 103.721 24.3173C103.721 23.3956 103.579 22.6158 103.224 22.0486C102.941 21.4814 102.516 21.0561 101.948 20.7725C101.452 20.418 100.814 20.2053 100.176 20.1344C99.467 19.9926 98.758 19.9217 98.0491 19.9217H96.4894ZM99.5379 18.7165C100.53 18.7165 101.452 18.8583 102.232 19.0001C102.941 19.2128 103.579 19.4255 104.075 19.709C104.642 20.0635 105.068 20.418 105.351 20.7725C105.706 21.1269 105.918 21.5523 106.131 21.9777C106.273 22.4031 106.415 22.8285 106.486 23.1829C106.486 23.6083 106.557 23.9628 106.557 24.3173C106.557 24.8135 106.486 25.3098 106.344 25.8061C106.202 26.3733 105.918 26.9404 105.564 27.4367C105.21 27.9329 104.713 28.4292 104.075 28.8546C103.437 29.28 102.586 29.5636 101.594 29.7053L106.84 36.7949H103.579L98.4744 29.918H96.4894V36.7949H93.8662V18.7165H99.5379Z" fill="currentColor"/>
</svg>
