<svg width="21" height="20" viewBox="0 0 21 20" fill="none" xmlns="http://www.w3.org/2000/svg">
<path fill-rule="evenodd" clip-rule="evenodd" d="M3.41666 6.04163C3.41666 4.3118 4.81183 2.91663 6.54166 2.91663H8.62499C8.97017 2.91663 9.24999 2.6368 9.24999 2.29163C9.24999 1.94645 8.97017 1.66663 8.62499 1.66663H6.54166C4.12148 1.66663 2.16666 3.62145 2.16666 6.04163V8.12496C2.16666 8.47014 2.44648 8.74996 2.79166 8.74996C3.13683 8.74996 3.41666 8.47014 3.41666 8.12496V6.04163ZM17.5833 13.9583C17.5833 15.6881 16.1881 17.0833 14.4583 17.0833H12.375C12.0298 17.0833 11.75 17.3631 11.75 17.7083C11.75 18.0535 12.0298 18.3333 12.375 18.3333H14.4583C16.8785 18.3333 18.8333 16.3785 18.8333 13.9583V11.875C18.8333 11.5298 18.5535 11.25 18.2083 11.25C17.8631 11.25 17.5833 11.5298 17.5833 11.875V13.9583ZM11.75 2.29163C11.75 1.94645 12.0298 1.66663 12.375 1.66663H14.4583C16.8785 1.66663 18.8333 3.62145 18.8333 6.04163V8.12496C18.8333 8.47014 18.5535 8.74996 18.2083 8.74996C17.8631 8.74996 17.5833 8.47014 17.5833 8.12496V6.04163C17.5833 4.3118 16.1881 2.91663 14.4583 2.91663H12.375C12.0298 2.91663 11.75 2.6368 11.75 2.29163ZM3.41666 11.875C3.41666 11.5298 3.13683 11.25 2.79166 11.25C2.44648 11.25 2.16666 11.5298 2.16666 11.875V13.9583C2.16666 16.3785 4.12148 18.3333 6.54166 18.3333H8.62499C8.97017 18.3333 9.24999 18.0535 9.24999 17.7083C9.24999 17.3631 8.97017 17.0833 8.62499 17.0833H6.54166C4.81183 17.0833 3.41666 15.6881 3.41666 13.9583V11.875ZM8.41666 7.91663V6.24996H6.74999V7.91663H8.41666ZM9.66666 7.91663V6.24996C9.66666 5.41663 9.24999 4.99996 8.41666 4.99996H6.74999C5.91666 4.99996 5.49999 5.41663 5.49999 6.24996V7.91663C5.49999 8.74996 5.91666 9.16663 6.74999 9.16663H8.41666C9.24999 9.16663 9.66666 8.74996 9.66666 7.91663ZM14.25 6.24996V7.91663H12.5833V6.24996H14.25ZM15.5 6.24996V7.91663C15.5 8.74996 15.0833 9.16663 14.25 9.16663H12.5833C11.75 9.16663 11.3333 8.74996 11.3333 7.91663V6.24996C11.3333 5.41663 11.75 4.99996 12.5833 4.99996H14.25C15.0833 4.99996 15.5 5.41663 15.5 6.24996ZM8.41666 13.75V12.0833H6.74999V13.75H8.41666ZM9.66666 13.75V12.0833C9.66666 11.25 9.24999 10.8333 8.41666 10.8333H6.74999C5.91666 10.8333 5.49999 11.25 5.49999 12.0833V13.75C5.49999 14.5833 5.91666 15 6.74999 15H8.41666C9.24999 15 9.66666 14.5833 9.66666 13.75ZM14.25 12.0833V13.75H12.5833V12.0833H14.25ZM15.5 12.0833V13.75C15.5 14.5833 15.0833 15 14.25 15H12.5833C11.75 15 11.3333 14.5833 11.3333 13.75V12.0833C11.3333 11.25 11.75 10.8333 12.5833 10.8333H14.25C15.0833 10.8333 15.5 11.25 15.5 12.0833Z" fill="currentColor"/>
</svg>
