<svg width="25" height="24" viewBox="0 0 25 24" fill="none" xmlns="http://www.w3.org/2000/svg">
<path fill-rule="evenodd" clip-rule="evenodd" d="M3.58346 7.59091C3.16925 7.59091 2.83346 7.25512 2.83346 6.84091V4.38636C2.83346 3.06806 3.90152 2 5.21983 2L7.67437 2C8.08858 2 8.42437 2.33578 8.42437 2.75C8.42437 3.16421 8.08858 3.5 7.67437 3.5H5.21983C4.72995 3.5 4.33346 3.89649 4.33346 4.38636V6.84091C4.33346 7.25512 3.99768 7.59091 3.58346 7.59091ZM17.9936 2.00009C17.5794 2.00009 17.2436 2.33587 17.2436 2.75009C17.2436 3.1643 17.5794 3.50009 17.9936 3.50009H20.4482C20.938 3.50009 21.3345 3.89657 21.3345 4.38645V6.841C21.3345 7.25521 21.6703 7.591 22.0845 7.591C22.4987 7.591 22.8345 7.25521 22.8345 6.841V4.38645C22.8345 3.06815 21.7665 2.00009 20.4482 2.00009H17.9936ZM7.67428 22.0001C8.0885 22.0001 8.42428 21.6643 8.42428 21.2501C8.42428 20.8359 8.0885 20.5001 7.67428 20.5001H5.21974C4.72986 20.5001 4.33337 20.1036 4.33337 19.6137L4.33337 17.1592C4.33337 16.745 3.99759 16.4092 3.58337 16.4092C3.16916 16.4092 2.83337 16.745 2.83337 17.1592L2.83337 19.6137C2.83337 20.932 3.90143 22.0001 5.21974 22.0001H7.67428ZM22.8345 17.1601C22.8345 16.7459 22.4987 16.4101 22.0845 16.4101C21.6703 16.4101 21.3345 16.7459 21.3345 17.1601V19.6147C21.3345 20.1045 20.938 20.501 20.4482 20.501H17.9936C17.5794 20.501 17.2436 20.8368 17.2436 21.251C17.2436 21.6652 17.5794 22.001 17.9936 22.001H20.4482C21.7665 22.001 22.8345 20.933 22.8345 19.6147V17.1601ZM7.33346 9.50009V6.50009H10.3335V9.50009H7.33346ZM5.83346 5.50009C5.83346 5.22395 6.05732 5.00009 6.33346 5.00009H11.3335C11.6096 5.00009 11.8335 5.22395 11.8335 5.50009V10.5001C11.8335 10.7762 11.6096 11.0001 11.3335 11.0001H6.33346C6.05732 11.0001 5.83346 10.7762 5.83346 10.5001V5.50009ZM15.3335 6.50009V9.50009H18.3335V6.50009H15.3335ZM14.3335 5.00009C14.0573 5.00009 13.8335 5.22395 13.8335 5.50009V10.5001C13.8335 10.7762 14.0573 11.0001 14.3335 11.0001H19.3335C19.6096 11.0001 19.8335 10.7762 19.8335 10.5001V5.50009C19.8335 5.22395 19.6096 5.00009 19.3335 5.00009H14.3335ZM7.33346 17.5001V14.5001H10.3335V17.5001H7.33346ZM5.83346 13.5001C5.83346 13.2239 6.05732 13.0001 6.33346 13.0001H11.3335C11.6096 13.0001 11.8335 13.2239 11.8335 13.5001V18.5001C11.8335 18.7762 11.6096 19.0001 11.3335 19.0001H6.33346C6.05732 19.0001 5.83346 18.7762 5.83346 18.5001V13.5001ZM8.08346 7.50009C8.08346 7.36202 8.19539 7.25009 8.33346 7.25009H9.33346C9.47153 7.25009 9.58346 7.36202 9.58346 7.50009V8.50009C9.58346 8.63816 9.47153 8.75009 9.33346 8.75009H8.33346C8.19539 8.75009 8.08346 8.63816 8.08346 8.50009V7.50009ZM8.33346 15.2501C8.19539 15.2501 8.08346 15.362 8.08346 15.5001V16.5001C8.08346 16.6382 8.19539 16.7501 8.33346 16.7501H9.33346C9.47153 16.7501 9.58346 16.6382 9.58346 16.5001V15.5001C9.58346 15.362 9.47153 15.2501 9.33346 15.2501H8.33346ZM13.8335 13.5001C13.8335 13.2239 14.0573 13.0001 14.3335 13.0001H15.8335V15.0001H13.8335V13.5001ZM19.3335 13.0001H17.8335V15.0001H19.8335V13.5001C19.8335 13.2239 19.6096 13.0001 19.3335 13.0001ZM17.8335 17.0001H19.8335V18.5001C19.8335 18.7762 19.6096 19.0001 19.3335 19.0001H17.8335V17.0001ZM15.8335 17.0001H13.8335V18.5001C13.8335 18.7762 14.0573 19.0001 14.3335 19.0001H15.8335V17.0001ZM15.8335 15.2501C15.8335 15.112 15.9454 15.0001 16.0835 15.0001H17.5835C17.7215 15.0001 17.8335 15.112 17.8335 15.2501V16.7501C17.8335 16.8882 17.7215 17.0001 17.5835 17.0001H16.0835C15.9454 17.0001 15.8335 16.8882 15.8335 16.7501V15.2501ZM16.3335 7.25009C16.1954 7.25009 16.0835 7.36202 16.0835 7.50009V8.50009C16.0835 8.63816 16.1954 8.75009 16.3335 8.75009H17.3335C17.4715 8.75009 17.5835 8.63816 17.5835 8.50009V7.50009C17.5835 7.36202 17.4715 7.25009 17.3335 7.25009H16.3335Z" fill="url(#paint0_linear_557_3274)"/>
<defs>
<linearGradient id="paint0_linear_557_3274" x1="2.97093" y1="13.0005" x2="22.8345" y2="13.0005" gradientUnits="userSpaceOnUse">
<stop stop-color="color1"/>
<stop offset="1" stop-color="color2"/>
</linearGradient>
</defs>
</svg>
