<svg width="36" height="36" viewBox="0 0 36 36" fill="none" xmlns="http://www.w3.org/2000/svg">
<rect width="36" height="36" rx="18" fill="color1"/>
<path fill-rule="evenodd" clip-rule="evenodd" d="M16.0785 10.8118C13.94 11.5231 12.413 13.3728 12.413 15.5385V17.9654C12.413 18.4777 12.1699 19.2586 11.8801 19.6953L10.8048 21.2993C10.1409 22.2902 10.5991 23.3902 11.8146 23.7597C15.8445 24.969 20.1924 24.969 24.2223 23.7597C25.3537 23.4238 25.8492 22.223 25.2321 21.2993L24.1568 19.6953C23.8763 19.2586 23.6332 18.4777 23.6332 17.9654V15.5385C23.6332 13.3589 22.0714 11.4909 19.9033 10.7928C19.6578 10.5393 19.3461 10.2668 19.0205 10.0533L19.0171 10.0511C18.9587 10.0128 18.8997 9.97647 18.8407 9.94248C18.5518 9.77627 18.2598 9.66667 18 9.66667C17.7488 9.66667 17.4673 9.7692 17.1877 9.92632C16.7808 10.1551 16.3779 10.4995 16.0785 10.8118ZM18.7031 13.625C18.7031 13.2798 18.3883 13 18 13C17.6117 13 17.2969 13.2798 17.2969 13.625V16.5417C17.2969 16.8868 17.6117 17.1667 18 17.1667C18.3883 17.1667 18.7031 16.8869 18.7031 16.5417V13.625Z" fill="url(#paint0_linear_406_10630)"/>
<path d="M20.3751 25.1682C20.3399 25.1719 20.3048 25.1755 20.2696 25.179C19.5154 25.2547 18.7577 25.2923 18 25.2917C17.4739 25.2912 16.9478 25.2724 16.423 25.2352C16.1554 25.2162 15.8882 25.1924 15.6214 25.1639C15.7337 25.3226 15.8652 25.4691 16.0125 25.6C16.5187 26.05 17.2313 26.3333 18 26.3333C18.9958 26.3333 19.875 25.8671 20.3751 25.1682Z" fill="url(#paint1_linear_406_10630)"/>
<defs>
<linearGradient id="paint0_linear_406_10630" x1="10.6032" y1="18.8333" x2="25.5" y2="18.8333" gradientUnits="userSpaceOnUse">
<stop stop-color="color2"/>
<stop offset="1" stop-color="color3"/>
</linearGradient>
<linearGradient id="paint1_linear_406_10630" x1="10.6032" y1="18.8333" x2="25.5" y2="18.8333" gradientUnits="userSpaceOnUse">
<stop stop-color="color2"/>
<stop offset="1" stop-color="color3"/>
</linearGradient>
</defs>
</svg>
