<svg width="40" height="40" viewBox="0 0 40 40" fill="none" xmlns="http://www.w3.org/2000/svg">
<path fill-rule="evenodd" clip-rule="evenodd" d="M14.3231 10.4355C14.0638 10.5475 13.9402 10.717 13.9084 10.9247C13.6519 12.6 12.5246 14.1108 11.4952 15.208C10.4309 16.3423 9.28736 17.2249 8.71862 17.639C8.38676 17.8807 8.03767 18.059 7.69292 18.1948L7.23479 17.0318L7.69291 18.1948L7.53744 18.256C5.34225 19.1207 5.24045 22.1896 7.37352 23.1978L6.83933 24.328L7.37352 23.1978C8.06298 23.5237 8.67222 23.9975 9.15796 24.5854L14.3726 30.897C14.9081 31.5451 15.8847 31.5932 16.4813 31.0007C17.2173 30.2697 18.2126 29.8595 19.25 29.8595H20.1164C21.0874 29.8595 22.0423 30.1069 22.8911 30.5784L24.7916 31.6341C25.3687 31.9546 26.0965 31.7257 26.3861 31.1325C26.6641 30.5631 27.0854 30.0759 27.6086 29.7187L30.447 27.7807C30.915 27.4612 31.35 27.0961 31.7459 26.6907L32.6402 27.5639L31.7459 26.6907C33.3085 25.0903 34.183 22.9437 34.183 20.7074V19.5435C34.183 18.8531 34.7427 18.2935 35.433 18.2935C36.1234 18.2935 36.683 18.8531 36.683 19.5435V20.7074C36.683 23.5968 35.5529 26.3701 33.5346 28.4372C33.0233 28.9609 32.4612 29.4326 31.8567 29.8453L29.0183 31.7833C28.8533 31.896 28.7204 32.0497 28.6327 32.2293C27.7146 34.1098 25.4071 34.8358 23.5777 33.8196L21.6771 32.7639C21.1997 32.4987 20.6626 32.3595 20.1164 32.3595H19.25C18.8727 32.3595 18.5107 32.5087 18.2429 32.7746C16.6027 34.4035 13.9176 34.2714 12.4453 32.4893L7.23066 26.1777L8.15776 25.4118L7.23066 26.1777C6.97873 25.8728 6.66274 25.6271 6.30514 25.4581C2.19249 23.5141 2.38875 17.5972 6.6212 15.93L6.77667 15.8687C6.96304 15.7953 7.1174 15.7124 7.24701 15.6181L7.98281 16.6286L7.24701 15.6181C7.75419 15.2488 8.75875 14.4708 9.67205 13.4974C10.6203 12.4868 11.3 11.4428 11.4372 10.5464C11.6186 9.36155 12.4066 8.53983 13.3322 8.14025C14.2365 7.74988 15.3124 7.73425 16.2698 8.12003L18.3413 8.95472C18.7738 9.12902 19.2358 9.21861 19.7022 9.21861H24.4004C25.0907 9.21861 25.6504 9.77825 25.6504 10.4686C25.6504 11.159 25.0907 11.7186 24.4004 11.7186H19.7022C18.9156 11.7186 18.1364 11.5675 17.4069 11.2736L15.3354 10.4389C14.9863 10.2982 14.6038 10.3143 14.3231 10.4355Z" fill="color2"/>
<path fill-rule="evenodd" clip-rule="evenodd" d="M32.1192 2.08331C32.8095 2.08331 33.3692 2.64296 33.3692 3.33331V3.60675H33.3954C35.5415 3.60675 37.1707 5.40742 37.1707 7.5072C37.1707 8.19755 36.611 8.7572 35.9207 8.7572C35.2303 8.7572 34.6707 8.19755 34.6707 7.5072C34.6707 6.67215 34.0476 6.10675 33.3954 6.10675H33.3692V9.26588L34.8367 9.7757C35.3763 9.96694 36.0134 10.2707 36.4907 10.8795C36.9795 11.5031 37.1707 12.2766 37.1707 13.1493C37.1707 15.0599 35.674 16.7085 33.7139 16.7085H33.3692V16.9837C33.3692 17.674 32.8095 18.2337 32.1192 18.2337C31.4288 18.2337 30.8692 17.674 30.8692 16.9837V16.7085H30.8587C28.7125 16.7085 27.0833 14.9079 27.0833 12.8081C27.0833 12.1177 27.643 11.5581 28.3333 11.5581C29.0237 11.5581 29.5833 12.1177 29.5833 12.8081C29.5833 13.6431 30.2065 14.2085 30.8587 14.2085H30.8692V11.0439L29.4173 10.5396C28.8777 10.3483 28.2406 10.0446 27.7634 9.4358C27.2745 8.81223 27.0833 8.0387 27.0833 7.16594C27.0833 5.25542 28.58 3.60675 30.5402 3.60675H30.8692V3.33331C30.8692 2.64296 31.4288 2.08331 32.1192 2.08331ZM30.8692 6.10675H30.5402C30.066 6.10675 29.5833 6.52838 29.5833 7.16594C29.5833 7.68096 29.6936 7.84589 29.7309 7.89346C29.7796 7.95562 29.8927 8.05528 30.2491 8.18197C30.2502 8.18238 30.2513 8.18278 30.2525 8.18318L30.8692 8.39739V6.10675ZM33.3692 11.9124V14.2085H33.7139C34.188 14.2085 34.6707 13.7869 34.6707 13.1493C34.6707 12.6343 34.5604 12.4694 34.5231 12.4218C34.4744 12.3597 34.3614 12.26 34.005 12.1333L33.3692 11.9124ZM14.468 17.7761C14.4686 17.7755 14.4691 17.7749 14.4697 17.7743C14.5342 17.7033 14.5733 17.6132 14.5812 17.5182C14.5817 17.5121 14.5821 17.5061 14.5824 17.5C14.5821 17.4939 14.5817 17.4878 14.5812 17.4818C14.5733 17.3868 14.5342 17.2967 14.4697 17.2257C14.4691 17.2251 14.4686 17.2244 14.468 17.2238C14.394 17.1433 14.2925 17.0939 14.1843 17.0848C14.1782 17.0843 14.1722 17.0839 14.1661 17.0837C14.16 17.0839 14.1539 17.0843 14.1479 17.0848C14.0397 17.0939 13.9382 17.1433 13.8642 17.2238C13.8636 17.2244 13.8631 17.2251 13.8625 17.2257C13.798 17.2967 13.7589 17.3868 13.751 17.4818C13.7504 17.4878 13.7501 17.4939 13.7498 17.5C13.7501 17.5061 13.7504 17.5121 13.751 17.5182C13.7589 17.6132 13.798 17.7033 13.8625 17.7743C13.8631 17.7749 13.8636 17.7755 13.8642 17.7761C13.9382 17.8567 14.0397 17.906 14.1479 17.9151C14.1539 17.9156 14.16 17.916 14.1661 17.9163C14.1722 17.916 14.1782 17.9156 14.1843 17.9151C14.2925 17.906 14.394 17.8567 14.468 17.7761ZM12.6198 16.0926C13.0112 15.6621 13.5661 15.4166 14.1479 15.4166H14.1843C14.7661 15.4166 15.321 15.6621 15.7124 16.0926C16.0579 16.4728 16.2494 16.968 16.2494 17.4818V17.5182C16.2494 18.0319 16.0579 18.5272 15.7124 18.9073C15.321 19.3379 14.7661 19.5833 14.1843 19.5833H14.1479C13.5661 19.5833 13.0112 19.3379 12.6198 18.9073C12.2742 18.5272 12.0828 18.0319 12.0828 17.5182V17.4818C12.0828 16.968 12.2742 16.4728 12.6198 16.0926ZM17.0828 26.6666C17.0828 25.9763 17.6424 25.4166 18.3328 25.4166H23.3328C24.0231 25.4166 24.5828 25.9763 24.5828 26.6666C24.5828 27.357 24.0231 27.9166 23.3328 27.9166H18.3328C17.6424 27.9166 17.0828 27.357 17.0828 26.6666Z" fill="color1"/>
</svg>
