<svg width="25" height="24" viewBox="0 0 25 24" fill="none" xmlns="http://www.w3.org/2000/svg">
<g clip-path="url(#clip0_6777_39440)">
<path d="M22.4306 12C22.4306 12.27 22.4306 12.4938 22.4306 12.6865C22.4306 14.3105 21.7854 15.8674 20.6371 17.0157V17.0157C20.3519 17.3008 20.0393 17.5571 19.7038 17.7808L17.8796 18.9969C17.6582 19.1446 17.479 19.3475 17.36 19.5855V19.5855C16.9733 20.359 16.0228 20.6583 15.2627 20.246L14.0209 19.5725C13.597 19.3426 13.1224 19.2222 12.6402 19.2222H12.0764C11.6266 19.2222 11.1944 19.3974 10.8715 19.7105V19.7105C10.1521 20.4081 8.99245 20.3509 8.34517 19.586L5.0047 15.6381C4.77289 15.3642 4.48394 15.1443 4.15811 14.9939V14.9939C2.18452 14.083 2.27705 11.2471 4.30583 10.4668L4.40634 10.4281C4.57018 10.3651 4.72583 10.2862 4.86898 10.1846C5.55027 9.70096 7.62239 8.11116 7.875 6.5V6.5C8.01223 5.62472 9.02506 5.25576 9.84951 5.58014L11.2037 6.11295C11.5739 6.25857 11.9681 6.33333 12.3658 6.33333H15.375" stroke="color2" stroke-width="1.5" stroke-linecap="round" stroke-linejoin="round"/>
<path d="M17.875 7.68486C17.875 8.56531 18.5507 9.27513 19.3902 9.27513H21.1033C21.8336 9.27513 22.4274 8.65404 22.4274 7.88962C22.4274 7.05695 22.0657 6.76346 21.5265 6.57236L18.7759 5.61683C18.2367 5.42573 17.875 5.13225 17.875 4.29957C17.875 3.53515 18.4688 2.91406 19.1991 2.91406H20.9122C21.7517 2.91406 22.4274 3.62388 22.4274 4.50433" stroke="currentColor" stroke-width="1.5" stroke-linecap="round" stroke-linejoin="round"/>
<path d="M20.1465 2V10.1902" stroke="currentColor" stroke-width="1.5" stroke-linecap="round" stroke-linejoin="round"/>
<path d="M11.875 16L15.875 16" stroke="currentColor" stroke-width="1.5" stroke-linecap="round" stroke-linejoin="round"/>
<path d="M7.875 11.5109V11.4891C7.875 11.3674 7.92035 11.2501 8.00219 11.1601C8.09488 11.0581 8.22629 11 8.36408 11H8.38592C8.52371 11 8.65512 11.0581 8.74781 11.1601C8.82965 11.2501 8.875 11.3674 8.875 11.4891V11.5109C8.875 11.6326 8.82965 11.7499 8.74781 11.8399C8.65512 11.9419 8.52371 12 8.38592 12H8.36408C8.22629 12 8.09488 11.9419 8.00219 11.8399C7.92035 11.7499 7.875 11.6326 7.875 11.5109Z" stroke="currentColor" stroke-width="1.5"/>
</g>
<defs>
<clipPath id="clip0_6777_39440">
<rect width="24" height="24" fill="white" transform="translate(0.875)"/>
</clipPath>
</defs>
</svg>
