<svg width="25" height="24" viewBox="0 0 25 24" fill="none" xmlns="http://www.w3.org/2000/svg">
<path fill-rule="evenodd" clip-rule="evenodd" d="M14.8562 21.2049L19.3562 17.9945C20.3503 17.2844 21.1666 15.7342 21.1666 14.5541V7.12314C21.1666 5.89299 20.1829 4.53282 18.9794 4.10276L13.7573 2.23253C12.8678 1.92249 11.4445 1.92249 10.5759 2.23253L5.35383 4.11276C4.15035 4.54282 3.16663 5.90299 3.16663 7.12314V14.5541C3.16663 15.7342 3.9829 17.2844 4.97709 17.9945L9.47709 21.2049C10.9527 22.265 13.3806 22.265 14.8562 21.2049ZM11.0817 3.64467C11.0812 3.64486 11.0807 3.64505 11.0802 3.64523L5.85859 5.52529C5.59167 5.62067 5.27604 5.85381 5.02304 6.20253C4.76773 6.55442 4.66663 6.89803 4.66663 7.12314V14.5541C4.66663 14.8321 4.77449 15.2733 5.0264 15.7519C5.27663 16.2273 5.58984 16.5888 5.84891 16.7739L10.3523 19.9867C10.7863 20.2985 11.4389 20.5 12.1666 20.5C12.8943 20.5 13.5469 20.2985 13.9809 19.9867L13.985 19.9838L18.4843 16.7739C18.7434 16.5888 19.0566 16.2273 19.3068 15.7519C19.5588 15.2733 19.6666 14.8321 19.6666 14.5541V7.12314C19.6666 6.89071 19.5638 6.54416 19.3093 6.19246C19.0566 5.84342 18.7414 5.61059 18.4747 5.51529L13.2587 3.64724C13.0184 3.5645 12.6203 3.5 12.1588 3.5C11.6933 3.5 11.3043 3.56556 11.0817 3.64467Z" fill="url(#paint0_linear_557_3310)"/>
<path d="M6.86664 11.5C6.86664 10.6716 7.53521 10 8.35993 10H8.37334C9.19807 10 9.86664 10.6716 9.86664 11.5C9.86664 12.3284 9.19807 13 8.37334 13H8.35993C7.53521 13 6.86664 12.3284 6.86664 11.5Z" fill="url(#paint1_linear_557_3310)"/>
<path d="M10.8666 11.5C10.8666 10.6716 11.5352 10 12.3599 10H12.3733C13.1981 10 13.8666 10.6716 13.8666 11.5C13.8666 12.3284 13.1981 13 12.3733 13H12.3599C11.5352 13 10.8666 12.3284 10.8666 11.5Z" fill="url(#paint2_linear_557_3310)"/>
<path d="M14.8666 11.5C14.8666 10.6716 15.5352 10 16.3599 10H16.3733C17.1981 10 17.8666 10.6716 17.8666 11.5C17.8666 12.3284 17.1981 13 16.3733 13H16.3599C15.5352 13 14.8666 12.3284 14.8666 11.5Z" fill="url(#paint3_linear_557_3310)"/>
<defs>
<linearGradient id="paint0_linear_557_3310" x1="3.29042" y1="13" x2="21.1666" y2="13" gradientUnits="userSpaceOnUse">
<stop stop-color="color1"/>
<stop offset="1" stop-color="color2"/>
</linearGradient>
<linearGradient id="paint1_linear_557_3310" x1="6.88727" y1="11.65" x2="9.86664" y2="11.65" gradientUnits="userSpaceOnUse">
<stop stop-color="color1"/>
<stop offset="1" stop-color="color2"/>
</linearGradient>
<linearGradient id="paint2_linear_557_3310" x1="10.8873" y1="11.65" x2="13.8666" y2="11.65" gradientUnits="userSpaceOnUse">
<stop stop-color="color1"/>
<stop offset="1" stop-color="color2"/>
</linearGradient>
<linearGradient id="paint3_linear_557_3310" x1="14.8873" y1="11.65" x2="17.8666" y2="11.65" gradientUnits="userSpaceOnUse">
<stop stop-color="color1"/>
<stop offset="1" stop-color="color2"/>
</linearGradient>
</defs>
</svg>
