<svg width="20" height="20" viewBox="0 0 20 20" fill="none" xmlns="http://www.w3.org/2000/svg">
<path fill-rule="evenodd" clip-rule="evenodd" d="M10.0003 1.04199C10.3455 1.04199 10.6253 1.32181 10.6253 1.66699V2.50033C10.6253 2.8455 10.3455 3.12533 10.0003 3.12533C9.65515 3.12533 9.37533 2.8455 9.37533 2.50033V1.66699C9.37533 1.32181 9.65515 1.04199 10.0003 1.04199ZM15.0003 10.0003C15.0003 12.7617 12.7617 15.0003 10.0003 15.0003C7.2389 15.0003 5.00033 12.7617 5.00033 10.0003C5.00033 7.2389 7.2389 5.00033 10.0003 5.00033C12.7617 5.00033 15.0003 7.2389 15.0003 10.0003ZM10.6253 17.5003C10.6253 17.1551 10.3455 16.8753 10.0003 16.8753C9.65515 16.8753 9.37533 17.1551 9.37533 17.5003V18.3337C9.37533 18.6788 9.65515 18.9587 10.0003 18.9587C10.3455 18.9587 10.6253 18.6788 10.6253 18.3337V17.5003ZM16.3348 3.66574C16.5789 3.90981 16.5789 4.30554 16.3348 4.54962L15.7455 5.13888C15.5015 5.38295 15.1057 5.38295 14.8617 5.13888C14.6176 4.8948 14.6176 4.49907 14.8617 4.25499L15.4509 3.66574C15.695 3.42166 16.0907 3.42166 16.3348 3.66574ZM5.13892 15.7455C5.383 15.5014 5.383 15.1057 5.13892 14.8616C4.89484 14.6175 4.49912 14.6175 4.25504 14.8616L3.66578 15.4509C3.42171 15.695 3.42171 16.0907 3.66578 16.3348C3.90986 16.5788 4.30559 16.5788 4.54967 16.3348L5.13892 15.7455ZM18.9587 10.0003C18.9587 10.3455 18.6788 10.6253 18.3337 10.6253H17.5003C17.1551 10.6253 16.8753 10.3455 16.8753 10.0003C16.8753 9.65515 17.1551 9.37533 17.5003 9.37533H18.3337C18.6788 9.37533 18.9587 9.65515 18.9587 10.0003ZM2.50033 10.6253C2.8455 10.6253 3.12533 10.3455 3.12533 10.0003C3.12533 9.65515 2.8455 9.37533 2.50033 9.37533H1.66699C1.32181 9.37533 1.04199 9.65515 1.04199 10.0003C1.04199 10.3455 1.32181 10.6253 1.66699 10.6253H2.50033ZM16.3348 16.3348C16.0907 16.5789 15.695 16.5789 15.4509 16.3348L14.8617 15.7455C14.6176 15.5015 14.6176 15.1057 14.8617 14.8617C15.1058 14.6176 15.5015 14.6176 15.7456 14.8617L16.3348 15.4509C16.5789 15.695 16.5789 16.0907 16.3348 16.3348ZM4.25505 5.13892C4.49912 5.383 4.89485 5.383 5.13893 5.13892C5.38301 4.89485 5.38301 4.49912 5.13893 4.25504L4.54967 3.66578C4.3056 3.42171 3.90987 3.42171 3.66579 3.66578C3.42171 3.90986 3.42171 4.30559 3.66579 4.54967L4.25505 5.13892Z" fill="currentColor"/>
</svg>
