<svg width="24" height="24" viewBox="0 0 24 24" fill="none" xmlns="http://www.w3.org/2000/svg">
<path fill-rule="evenodd" clip-rule="evenodd" d="M12 9.75C10.7574 9.75 9.75 10.7574 9.75 12C9.75 13.2426 10.7574 14.25 12 14.25C13.2426 14.25 14.25 13.2426 14.25 12C14.25 10.7574 13.2426 9.75 12 9.75ZM8.25 12C8.25 9.92893 9.92893 8.25 12 8.25C14.0711 8.25 15.75 9.92893 15.75 12C15.75 14.0711 14.0711 15.75 12 15.75C9.92893 15.75 8.25 14.0711 8.25 12Z" fill="currentColor"/>
<path d="M6.62644 3.93286L6.62685 3.93261L8.35598 2.88376L8.35604 2.88386L8.36707 2.8769C8.75983 2.62922 9.31025 2.74735 9.59 3.24198L9.69612 3.43625C9.69637 3.43671 9.69661 3.43717 9.69686 3.43762C10.2163 4.39733 11.0167 5.07697 11.9963 5.07697C12.975 5.07697 13.7779 4.39821 14.3022 3.4393L14.3024 3.43898L14.41 3.24197C14.6898 2.74735 15.2402 2.62922 15.6329 2.8769L15.6329 2.877L15.644 2.88376L17.3732 3.93261L17.3736 3.93286C17.922 4.26505 18.1412 5.05569 17.8035 5.67591C17.2751 6.64252 17.1425 7.68002 17.603 8.52701C18.0716 9.38896 19.0169 9.80474 20.101 9.80474C20.6881 9.80474 21.25 10.3304 21.25 11.0677V12.9323C21.25 13.6643 20.6932 14.1953 20.101 14.1953C19.0169 14.1953 18.0716 14.611 17.603 15.473C17.1428 16.3194 17.2749 17.3562 17.8025 18.3223C18.1426 18.9552 17.9209 19.7356 17.3736 20.0671L17.3732 20.0674L15.644 21.1162L15.644 21.1161L15.6329 21.1231C15.2402 21.3708 14.6897 21.2526 14.41 20.758L14.3039 20.5638C14.3036 20.5633 14.3034 20.5628 14.3031 20.5624C13.7837 19.6027 12.9833 18.923 12.0037 18.923C11.025 18.923 10.2221 19.6018 9.69778 20.5607L9.6976 20.561L9.59 20.758C9.31024 21.2526 8.75983 21.3708 8.36708 21.1231L8.36714 21.123L8.35598 21.1162L6.62685 20.0674L6.62644 20.0671C6.07804 19.735 5.85878 18.9444 6.19644 18.3242C6.72493 17.3576 6.85754 16.32 6.39705 15.473C5.92844 14.611 4.9831 14.1953 3.89905 14.1953C3.30683 14.1953 2.75 13.6643 2.75 12.9323V11.0677C2.75 10.3357 3.30683 9.80474 3.89905 9.80474C4.9831 9.80474 5.92844 9.38896 6.39705 8.52701C6.85759 7.6799 6.7249 6.64222 6.19627 5.67549L5.53823 6.03532L6.19675 5.67637C5.85865 5.05609 6.07787 4.26513 6.62644 3.93286Z" stroke="currentColor" stroke-width="1.5" stroke-miterlimit="10" stroke-linecap="round" stroke-linejoin="round"/>
</svg>
