<svg width="24" height="24" viewBox="0 0 24 24" fill="none" xmlns="http://www.w3.org/2000/svg">
<path fill-rule="evenodd" clip-rule="evenodd" d="M19 8.5H17C16.2312 8.5 15.9301 8.30882 15.8107 8.18934C15.6912 8.06986 15.5 7.76878 15.5 7V5C15.5 4.23122 15.6912 3.93014 15.8107 3.81066C15.9301 3.69118 16.2312 3.5 17 3.5H19C19.7688 3.5 20.0699 3.69118 20.1893 3.81066C20.3088 3.93014 20.5 4.23122 20.5 5V7C20.5 7.76878 20.3088 8.06986 20.1893 8.18934C20.0699 8.30882 19.7688 8.5 19 8.5ZM17 10H19C21 10 22 9 22 7V5C22 3 21 2 19 2H17C15 2 14 3 14 5V7C14 9 15 10 17 10ZM5 20.5C4.23122 20.5 3.93014 20.3088 3.81066 20.1893C3.69118 20.0699 3.5 19.7688 3.5 19V17C3.5 16.2312 3.69118 15.9301 3.81066 15.8107C3.93014 15.6912 4.23122 15.5 5 15.5H7C7.76878 15.5 8.06986 15.6912 8.18934 15.8107C8.30882 15.9301 8.5 16.2312 8.5 17V19C8.5 19.7688 8.30882 20.0699 8.18934 20.1893C8.06986 20.3088 7.76878 20.5 7 20.5H5ZM5 22H7C9 22 10 21 10 19V17C10 15 9 14 7 14H5C3 14 2 15 2 17V19C2 21 3 22 5 22ZM6 8.5C7.38071 8.5 8.5 7.38071 8.5 6C8.5 4.61929 7.38071 3.5 6 3.5C4.61929 3.5 3.5 4.61929 3.5 6C3.5 7.38071 4.61929 8.5 6 8.5ZM10 6C10 8.20914 8.20914 10 6 10C3.79086 10 2 8.20914 2 6C2 3.79086 3.79086 2 6 2C8.20914 2 10 3.79086 10 6ZM20.5 18C20.5 19.3807 19.3807 20.5 18 20.5C16.6193 20.5 15.5 19.3807 15.5 18C15.5 16.6193 16.6193 15.5 18 15.5C19.3807 15.5 20.5 16.6193 20.5 18ZM18 22C20.2091 22 22 20.2091 22 18C22 15.7909 20.2091 14 18 14C15.7909 14 14 15.7909 14 18C14 20.2091 15.7909 22 18 22Z" fill="currentColor"/>
</svg>
