<svg width="21" height="20" viewBox="0 0 21 20" fill="none" xmlns="http://www.w3.org/2000/svg">
<path fill-rule="evenodd" clip-rule="evenodd" d="M14.0833 4.79163C14.0833 3.75609 14.9228 2.91663 15.9583 2.91663C16.9939 2.91663 17.8333 3.75609 17.8333 4.79163C17.8333 5.82716 16.9939 6.66663 15.9583 6.66663C14.9228 6.66663 14.0833 5.82716 14.0833 4.79163ZM15.9583 1.66663C14.2324 1.66663 12.8333 3.06574 12.8333 4.79163C12.8333 5.04276 12.863 5.28697 12.9189 5.52096L7.97809 7.16789C7.40531 6.45573 6.52671 5.99997 5.54166 5.99997C3.81577 5.99997 2.41666 7.39908 2.41666 9.12497C2.41666 10.8509 3.81577 12.25 5.54166 12.25C6.50139 12.25 7.36006 11.8173 7.93331 11.1365L13.1186 13.902C12.9355 14.2994 12.8333 14.7419 12.8333 15.2083C12.8333 16.9342 14.2324 18.3333 15.9583 18.3333C17.6842 18.3333 19.0833 16.9342 19.0833 15.2083C19.0833 13.4824 17.6842 12.0833 15.9583 12.0833C15.1547 12.0833 14.4219 12.3866 13.8682 12.8851L8.531 10.0386C8.61921 9.74958 8.66666 9.44282 8.66666 9.12497C8.66666 8.83698 8.62771 8.55809 8.55478 8.29328L13.4534 6.66039C14.0233 7.42297 14.9331 7.91663 15.9583 7.91663C17.6842 7.91663 19.0833 6.51752 19.0833 4.79163C19.0833 3.06574 17.6842 1.66663 15.9583 1.66663ZM5.54166 7.24997C4.50613 7.24997 3.66666 8.08944 3.66666 9.12497C3.66666 10.1605 4.50613 11 5.54166 11C6.5772 11 7.41666 10.1605 7.41666 9.12497C7.41666 8.08944 6.5772 7.24997 5.54166 7.24997ZM14.0833 15.2083C14.0833 14.1728 14.9228 13.3333 15.9583 13.3333C16.9939 13.3333 17.8333 14.1728 17.8333 15.2083C17.8333 16.2438 16.9939 17.0833 15.9583 17.0833C14.9228 17.0833 14.0833 16.2438 14.0833 15.2083Z" fill="currentColor"/>
</svg>
