<svg width="25" height="24" viewBox="0 0 25 24" fill="none" xmlns="http://www.w3.org/2000/svg">
<path d="M12.515 7.62H7.24501C5.38501 7.62 4.96502 8.55001 4.73502 9.70001L3.88501 13.75H15.885L15.035 9.70001C14.785 8.55001 14.375 7.62 12.515 7.62Z" stroke="color2" stroke-width="1.5" stroke-linecap="round" stroke-linejoin="round"/>
<path d="M17.365 20.36C17.445 21.24 16.745 22 15.845 22H14.435C13.625 22 13.515 21.65 13.365 21.23L13.215 20.78C13.005 20.17 12.865 19.75 11.785 19.75H7.94501C6.86501 19.75 6.705 20.22 6.515 20.78L6.36501 21.23C6.22501 21.66 6.115 22 5.295 22H3.88499C2.98499 22 2.27501 21.24 2.36501 20.36L2.785 15.79C2.895 14.66 3.105 13.74 5.075 13.74H14.645C16.615 13.74 16.825 14.66 16.935 15.79L17.365 20.36Z" stroke="color2" stroke-width="1.5" stroke-linecap="round" stroke-linejoin="round"/>
<path d="M3.875 11.5H3.125" stroke="color2" stroke-width="1.5" stroke-linecap="round" stroke-linejoin="round"/>
<path d="M16.625 11.5H15.875" stroke="color2" stroke-width="1.5" stroke-linecap="round" stroke-linejoin="round"/>
<path d="M5.375 16.75H7.625" stroke="currentColor" stroke-width="1.5" stroke-linecap="round" stroke-linejoin="round"/>
<path d="M12.125 16.75H14.375" stroke="currentColor" stroke-width="1.5" stroke-linecap="round" stroke-linejoin="round"/>
<path d="M19.085 8.73992C19.365 8.08992 19.265 7.20993 18.745 6.43993C18.235 5.66993 17.455 5.23993 16.745 5.24993" stroke="currentColor" stroke-width="1.5" stroke-linecap="round" stroke-linejoin="round"/>
<path d="M22.195 9.72998C22.615 8.21998 22.315 6.37002 21.245 4.77002C20.175 3.17002 18.575 2.19 17.015 2" stroke="currentColor" stroke-width="1.5" stroke-linecap="round" stroke-linejoin="round"/>
</svg>
