<svg width="24" height="24" viewBox="0 0 24 24" fill="none" xmlns="http://www.w3.org/2000/svg">
    <path d="M22 18.1667C22 18.6271 21.6271 19 21.1667 19H2.83333C2.37292 19 2 18.6271 2 18.1667V4.83333C2 4.37292 2.37292 4 2.83333 4H21.1667C21.6271 4 22 4.37292 22 4.83333V18.1667Z" fill="#F83142"/>
    <path d="M15.8533 10.0175C15.9759 9.89053 15.886 9.6785 15.7095 9.6785H13.3634C13.2853 9.6785 13.2144 9.63311 13.1817 9.56224L12.1818 7.39367C12.1104 7.2387 11.8902 7.23865 11.8186 7.39359L10.8175 9.56233C10.7848 9.63315 10.7139 9.6785 10.6359 9.6785H8.29072C8.11418 9.6785 8.02422 9.89053 8.1469 10.0175L9.89402 11.8255C9.94182 11.875 9.96085 11.9455 9.94439 12.0123L9.28705 14.6801C9.24505 14.8506 9.42737 14.9886 9.58003 14.9019L11.9015 13.5831C11.9628 13.5483 12.0379 13.5483 12.0991 13.5831L14.4201 14.9018C14.5728 14.9886 14.7551 14.8506 14.7131 14.6801L14.0558 12.0123C14.0393 11.9455 14.0584 11.875 14.1062 11.8255L15.8533 10.0175Z" fill="#FFE040"/>
</svg>
