<svg width="24" height="24" viewBox="0 0 24 24" fill="none" xmlns="http://www.w3.org/2000/svg">
<circle cx="14" cy="14" r="10" fill="#FFF7DF00"/>
<path d="M13.2183 5.16846C13.7687 5.16846 14.2149 4.72553 14.2149 4.17915C14.2149 3.63278 13.7687 3.18985 13.2183 3.18985C12.6679 3.18985 12.2217 3.63278 12.2217 4.17915C12.2217 4.72553 12.6679 5.16846 13.2183 5.16846Z" fill="color2"/>
<path d="M15.0632 6.21136C15.4649 6.21136 15.7905 5.88815 15.7905 5.48944C15.7905 5.09073 15.4649 4.76752 15.0632 4.76752C14.6615 4.76752 14.3359 5.09073 14.3359 5.48944C14.3359 5.88815 14.6615 6.21136 15.0632 6.21136Z" fill="color2"/>
<path d="M10.8611 4.11218C11.2627 4.11218 11.5883 3.78897 11.5883 3.39026C11.5883 2.99155 11.2627 2.66833 10.8611 2.66833C10.4594 2.66833 10.1338 2.99155 10.1338 3.39026C10.1338 3.78897 10.4594 4.11218 10.8611 4.11218Z" fill="color2"/>
<path d="M16.1279 7.52127C16.4849 7.52127 16.7744 7.23397 16.7744 6.87957C16.7744 6.52516 16.4849 6.23785 16.1279 6.23785C15.7709 6.23785 15.4814 6.52516 15.4814 6.87957C15.4814 7.23397 15.7709 7.52127 16.1279 7.52127Z" fill="color2"/>
<path d="M9.04295 3.97855C9.39998 3.97855 9.68941 3.69125 9.68941 3.33684C9.68941 2.98243 9.39998 2.69513 9.04295 2.69513C8.68592 2.69513 8.39648 2.98243 8.39648 3.33684C8.39648 3.69125 8.68592 3.97855 9.04295 3.97855Z" fill="color2"/>
<path d="M16.7741 8.71125C17.0345 8.71125 17.2455 8.50176 17.2455 8.24333C17.2455 7.98491 17.0345 7.77542 16.7741 7.77542C16.5138 7.77542 16.3027 7.98491 16.3027 8.24333C16.3027 8.50176 16.5138 8.71125 16.7741 8.71125Z" fill="color2"/>
<path d="M7.60224 4.08545C7.86257 4.08545 8.07362 3.87596 8.07362 3.61754C8.07362 3.35912 7.86257 3.14963 7.60224 3.14963C7.3419 3.14963 7.13086 3.35912 7.13086 3.61754C7.13086 3.87596 7.3419 4.08545 7.60224 4.08545Z" fill="color2"/>
<path d="M17.1107 9.75409C17.3115 9.75409 17.4743 9.59248 17.4743 9.39313C17.4743 9.19377 17.3115 9.03217 17.1107 9.03217C16.9099 9.03217 16.7471 9.19377 16.7471 9.39313C16.7471 9.59248 16.9099 9.75409 17.1107 9.75409Z" fill="color2"/>
<path d="M6.43102 4.48675C6.63185 4.48675 6.79465 4.32515 6.79465 4.12579C6.79465 3.92644 6.63185 3.76483 6.43102 3.76483C6.23019 3.76483 6.06738 3.92644 6.06738 4.12579C6.06738 4.32515 6.23019 4.48675 6.43102 4.48675Z" fill="color2"/>
<path d="M17.2449 10.5828C17.3937 10.5828 17.5143 10.4631 17.5143 10.3154C17.5143 10.1677 17.3937 10.048 17.2449 10.048C17.0962 10.048 16.9756 10.1677 16.9756 10.3154C16.9756 10.4631 17.0962 10.5828 17.2449 10.5828Z" fill="color2"/>
<path d="M5.52815 4.91431C5.67691 4.91431 5.79751 4.7946 5.79751 4.64693C5.79751 4.49926 5.67691 4.37955 5.52815 4.37955C5.37939 4.37955 5.25879 4.49926 5.25879 4.64693C5.25879 4.7946 5.37939 4.91431 5.52815 4.91431Z" fill="color2"/>
<path d="M17.2317 11.2913C17.3284 11.2913 17.4068 11.2135 17.4068 11.1175C17.4068 11.0215 17.3284 10.9437 17.2317 10.9437C17.135 10.9437 17.0566 11.0215 17.0566 11.1175C17.0566 11.2135 17.135 11.2913 17.2317 11.2913Z" fill="color2"/>
<path d="M4.8411 5.3822C4.93779 5.3822 5.01618 5.30439 5.01618 5.2084C5.01618 5.11242 4.93779 5.03461 4.8411 5.03461C4.7444 5.03461 4.66602 5.11242 4.66602 5.2084C4.66602 5.30439 4.7444 5.3822 4.8411 5.3822Z" fill="color2"/>
<path d="M17.1781 11.8129C17.2376 11.8129 17.2858 11.765 17.2858 11.706C17.2858 11.6469 17.2376 11.599 17.1781 11.599C17.1186 11.599 17.0703 11.6469 17.0703 11.706C17.0703 11.765 17.1186 11.8129 17.1781 11.8129Z" fill="color2"/>
<path d="M4.32942 5.77015C4.38893 5.77015 4.43717 5.72226 4.43717 5.6632C4.43717 5.60413 4.38893 5.55624 4.32942 5.55624C4.26992 5.55624 4.22168 5.60413 4.22168 5.6632C4.22168 5.72226 4.26992 5.77015 4.32942 5.77015Z" fill="color2"/>
<path d="M18.4585 8.29687C19.009 8.29687 19.4552 7.85395 19.4552 7.30757C19.4552 6.76119 19.009 6.31827 18.4585 6.31827C17.9081 6.31827 17.4619 6.76119 17.4619 7.30757C17.4619 7.85395 17.9081 8.29687 18.4585 8.29687Z" fill="color2"/>
<path d="M18.8347 10.2485C19.2364 10.2485 19.562 9.92532 19.562 9.52661C19.562 9.1279 19.2364 8.80469 18.8347 8.80469C18.433 8.80469 18.1074 9.1279 18.1074 9.52661C18.1074 9.92532 18.433 10.2485 18.8347 10.2485Z" fill="color2"/>
<path d="M17.3386 5.81012C17.7403 5.81012 18.0659 5.4869 18.0659 5.0882C18.0659 4.68949 17.7403 4.36627 17.3386 4.36627C16.9369 4.36627 16.6113 4.68949 16.6113 5.0882C16.6113 5.4869 16.9369 5.81012 17.3386 5.81012Z" fill="color2"/>
<path d="M18.6054 11.9064C18.9625 11.9064 19.2519 11.6191 19.2519 11.2647C19.2519 10.9103 18.9625 10.623 18.6054 10.623C18.2484 10.623 17.959 10.9103 17.959 11.2647C17.959 11.6191 18.2484 11.9064 18.6054 11.9064Z" fill="color2"/>
<path d="M16.0879 4.43305C16.4449 4.43305 16.7343 4.14574 16.7343 3.79134C16.7343 3.43693 16.4449 3.14963 16.0879 3.14963C15.7308 3.14963 15.4414 3.43693 15.4414 3.79134C15.4414 4.14574 15.7308 4.43305 16.0879 4.43305Z" fill="color2"/>
<path d="M18.0934 13.1497C18.3538 13.1497 18.5648 12.9402 18.5648 12.6818C18.5648 12.4233 18.3538 12.2138 18.0934 12.2138C17.8331 12.2138 17.6221 12.4233 17.6221 12.6818C17.6221 12.9402 17.8331 13.1497 18.0934 13.1497Z" fill="color2"/>
<path d="M14.861 3.45722C15.1214 3.45722 15.3324 3.24773 15.3324 2.98931C15.3324 2.73088 15.1214 2.52139 14.861 2.52139C14.6007 2.52139 14.3896 2.73088 14.3896 2.98931C14.3896 3.24773 14.6007 3.45722 14.861 3.45722Z" fill="color2"/>
<path d="M17.5277 14.0989C17.7285 14.0989 17.8913 13.9373 17.8913 13.7379C17.8913 13.5386 17.7285 13.377 17.5277 13.377C17.3269 13.377 17.1641 13.5386 17.1641 13.7379C17.1641 13.9373 17.3269 14.0989 17.5277 14.0989Z" fill="color2"/>
<path d="M13.6761 2.88251C13.877 2.88251 14.0398 2.7209 14.0398 2.52155C14.0398 2.32219 13.877 2.16058 13.6761 2.16058C13.4753 2.16058 13.3125 2.32219 13.3125 2.52155C13.3125 2.7209 13.4753 2.88251 13.6761 2.88251Z" fill="color2"/>
<path d="M16.9627 14.754C17.1115 14.754 17.2321 14.6343 17.2321 14.4866C17.2321 14.3389 17.1115 14.2192 16.9627 14.2192C16.814 14.2192 16.6934 14.3389 16.6934 14.4866C16.6934 14.6343 16.814 14.754 16.9627 14.754Z" fill="color2"/>
<path d="M12.6668 2.53476C12.8156 2.53476 12.9362 2.41505 12.9362 2.26738C12.9362 2.11971 12.8156 2 12.6668 2C12.5181 2 12.3975 2.11971 12.3975 2.26738C12.3975 2.41505 12.5181 2.53476 12.6668 2.53476Z" fill="color2"/>
<path d="M16.3977 15.2086C16.4944 15.2086 16.5728 15.1307 16.5728 15.0348C16.5728 14.9388 16.4944 14.861 16.3977 14.861C16.301 14.861 16.2227 14.9388 16.2227 15.0348C16.2227 15.1307 16.301 15.2086 16.3977 15.2086Z" fill="color2"/>
<path d="M11.7776 2.36084C11.8743 2.36084 11.9527 2.28303 11.9527 2.18704C11.9527 2.09106 11.8743 2.01324 11.7776 2.01324C11.6809 2.01324 11.6025 2.09106 11.6025 2.18704C11.6025 2.28303 11.6809 2.36084 11.7776 2.36084Z" fill="color2"/>
<path d="M15.9388 15.5296C15.9983 15.5296 16.0465 15.4817 16.0465 15.4227C16.0465 15.3636 15.9983 15.3157 15.9388 15.3157C15.8793 15.3157 15.8311 15.3636 15.8311 15.4227C15.8311 15.4817 15.8793 15.5296 15.9388 15.5296Z" fill="color2"/>
<path d="M11.0911 2.254C11.1506 2.254 11.1989 2.20612 11.1989 2.14705C11.1989 2.08798 11.1506 2.0401 11.0911 2.0401C11.0316 2.0401 10.9834 2.08798 10.9834 2.14705C10.9834 2.20612 11.0316 2.254 11.0911 2.254Z" fill="color2"/>
<path d="M19.8169 14.2726C20.3674 14.2726 20.8136 13.8297 20.8136 13.2833C20.8136 12.7369 20.3674 12.294 19.8169 12.294C19.2665 12.294 18.8203 12.7369 18.8203 13.2833C18.8203 13.8297 19.2665 14.2726 19.8169 14.2726Z" fill="color2"/>
<path d="M18.4704 15.8101C18.8721 15.8101 19.1977 15.4869 19.1977 15.0882C19.1977 14.6895 18.8721 14.3663 18.4704 14.3663C18.0688 14.3663 17.7432 14.6895 17.7432 15.0882C17.7432 15.4869 18.0688 15.8101 18.4704 15.8101Z" fill="color2"/>
<path d="M20.6384 11.6659C21.0401 11.6659 21.3657 11.3426 21.3657 10.9439C21.3657 10.5452 21.0401 10.222 20.6384 10.222C20.2367 10.222 19.9111 10.5452 19.9111 10.9439C19.9111 11.3426 20.2367 11.6659 20.6384 11.6659Z" fill="color2"/>
<path d="M17.0703 16.786C17.4273 16.786 17.7168 16.4987 17.7168 16.1443C17.7168 15.7899 17.4273 15.5026 17.0703 15.5026C16.7133 15.5026 16.4238 15.7899 16.4238 16.1443C16.4238 16.4987 16.7133 16.786 17.0703 16.786Z" fill="color2"/>
<path d="M20.706 9.78067C21.0631 9.78067 21.3525 9.49337 21.3525 9.13896C21.3525 8.78456 21.0631 8.49725 20.706 8.49725C20.349 8.49725 20.0596 8.78456 20.0596 9.13896C20.0596 9.49337 20.349 9.78067 20.706 9.78067Z" fill="color2"/>
<path d="M15.6833 17.2406C15.9436 17.2406 16.1547 17.0311 16.1547 16.7727C16.1547 16.5142 15.9436 16.3047 15.6833 16.3047C15.423 16.3047 15.2119 16.5142 15.2119 16.7727C15.2119 17.0311 15.423 17.2406 15.6833 17.2406Z" fill="color2"/>
<path d="M20.4372 8.17637C20.6975 8.17637 20.9086 7.96688 20.9086 7.70845C20.9086 7.45003 20.6975 7.24054 20.4372 7.24054C20.1769 7.24054 19.9658 7.45003 19.9658 7.70845C19.9658 7.96688 20.1769 8.17637 20.4372 8.17637Z" fill="color2"/>
<path d="M14.5257 17.4545C14.7266 17.4545 14.8894 17.2929 14.8894 17.0935C14.8894 16.8942 14.7266 16.7325 14.5257 16.7325C14.3249 16.7325 14.1621 16.8942 14.1621 17.0935C14.1621 17.2929 14.3249 17.4545 14.5257 17.4545Z" fill="color2"/>
<path d="M19.9388 6.89301C20.1397 6.89301 20.3025 6.7314 20.3025 6.53204C20.3025 6.33269 20.1397 6.17108 19.9388 6.17108C19.738 6.17108 19.5752 6.33269 19.5752 6.53204C19.5752 6.7314 19.738 6.89301 19.9388 6.89301Z" fill="color2"/>
<path d="M13.5955 17.4813C13.7443 17.4813 13.8649 17.3616 13.8649 17.2139C13.8649 17.0662 13.7443 16.9465 13.5955 16.9465C13.4468 16.9465 13.3262 17.0662 13.3262 17.2139C13.3262 17.3616 13.4468 17.4813 13.5955 17.4813Z" fill="color2"/>
<path d="M19.4266 5.90371C19.5754 5.90371 19.6959 5.78401 19.6959 5.63634C19.6959 5.48867 19.5754 5.36896 19.4266 5.36896C19.2778 5.36896 19.1572 5.48867 19.1572 5.63634C19.1572 5.78401 19.2778 5.90371 19.4266 5.90371Z" fill="color2"/>
<path d="M12.8001 17.3743C12.8968 17.3743 12.9752 17.2965 12.9752 17.2005C12.9752 17.1045 12.8968 17.0267 12.8001 17.0267C12.7034 17.0267 12.625 17.1045 12.625 17.2005C12.625 17.2965 12.7034 17.3743 12.8001 17.3743Z" fill="color2"/>
<path d="M18.8616 5.11511C18.9583 5.11511 19.0367 5.0373 19.0367 4.94131C19.0367 4.84533 18.9583 4.76752 18.8616 4.76752C18.7649 4.76752 18.6865 4.84533 18.6865 4.94131C18.6865 5.0373 18.7649 5.11511 18.8616 5.11511Z" fill="color2"/>
<path d="M12.2093 17.2406C12.2688 17.2406 12.317 17.1927 12.317 17.1336C12.317 17.0746 12.2688 17.0267 12.2093 17.0267C12.1498 17.0267 12.1016 17.0746 12.1016 17.1336C12.1016 17.1927 12.1498 17.2406 12.2093 17.2406Z" fill="color2"/>
<path d="M18.4027 4.54008C18.4622 4.54008 18.5104 4.49219 18.5104 4.43312C18.5104 4.37406 18.4622 4.32617 18.4027 4.32617C18.3432 4.32617 18.2949 4.37406 18.2949 4.43312C18.2949 4.49219 18.3432 4.54008 18.4027 4.54008Z" fill="color2"/>
<path d="M16.6529 19.3663C17.2033 19.3663 17.6495 18.9234 17.6495 18.377C17.6495 17.8307 17.2033 17.3877 16.6529 17.3877C16.1025 17.3877 15.6562 17.8307 15.6562 18.377C15.6562 18.9234 16.1025 19.3663 16.6529 19.3663Z" fill="color2"/>
<path d="M14.4177 19.4732C14.8194 19.4732 15.145 19.15 15.145 18.7513C15.145 18.3526 14.8194 18.0294 14.4177 18.0294C14.016 18.0294 13.6904 18.3526 13.6904 18.7513C13.6904 19.15 14.016 19.4732 14.4177 19.4732Z" fill="color2"/>
<path d="M18.8884 17.9893C19.2901 17.9893 19.6157 17.6661 19.6157 17.2674C19.6157 16.8687 19.2901 16.5455 18.8884 16.5455C18.4867 16.5455 18.1611 16.8687 18.1611 17.2674C18.1611 17.6661 18.4867 17.9893 18.8884 17.9893Z" fill="color2"/>
<path d="M12.6797 19.179C13.0367 19.179 13.3261 18.8917 13.3261 18.5373C13.3261 18.1829 13.0367 17.8956 12.6797 17.8956C12.3226 17.8956 12.0332 18.1829 12.0332 18.5373C12.0332 18.8917 12.3226 19.179 12.6797 19.179Z" fill="color2"/>
<path d="M20.1963 16.6658C20.5533 16.6658 20.8427 16.3785 20.8427 16.0241C20.8427 15.6697 20.5533 15.3824 20.1963 15.3824C19.8392 15.3824 19.5498 15.6697 19.5498 16.0241C19.5498 16.3785 19.8392 16.6658 20.1963 16.6658Z" fill="color2"/>
<path d="M11.239 18.4972C11.4993 18.4972 11.7103 18.2877 11.7103 18.0293C11.7103 17.7708 11.4993 17.5613 11.239 17.5613C10.9786 17.5613 10.7676 17.7708 10.7676 18.0293C10.7676 18.2877 10.9786 18.4972 11.239 18.4972Z" fill="color2"/>
<path d="M21.0026 15.2753C21.263 15.2753 21.474 15.0658 21.474 14.8074C21.474 14.549 21.263 14.3395 21.0026 14.3395C20.7423 14.3395 20.5312 14.549 20.5312 14.8074C20.5312 15.0658 20.7423 15.2753 21.0026 15.2753Z" fill="color2"/>
<path d="M10.1752 17.8288C10.376 17.8288 10.5388 17.6672 10.5388 17.4678C10.5388 17.2685 10.376 17.1069 10.1752 17.1069C9.97433 17.1069 9.81152 17.2685 9.81152 17.4678C9.81152 17.6672 9.97433 17.8288 10.1752 17.8288Z" fill="color2"/>
<path d="M21.475 13.9785C21.6758 13.9785 21.8386 13.8169 21.8386 13.6176C21.8386 13.4182 21.6758 13.2566 21.475 13.2566C21.2741 13.2566 21.1113 13.4182 21.1113 13.6176C21.1113 13.8169 21.2741 13.9785 21.475 13.9785Z" fill="color2"/>
<path d="M9.42073 17.1737C9.56949 17.1737 9.69009 17.054 9.69009 16.9064C9.69009 16.7587 9.56949 16.639 9.42073 16.639C9.27196 16.639 9.15137 16.7587 9.15137 16.9064C9.15137 17.054 9.27196 17.1737 9.42073 17.1737Z" fill="color2"/>
<path d="M21.7303 12.8958C21.8791 12.8958 21.9997 12.7761 21.9997 12.6284C21.9997 12.4807 21.8791 12.361 21.7303 12.361C21.5815 12.361 21.4609 12.4807 21.4609 12.6284C21.4609 12.7761 21.5815 12.8958 21.7303 12.8958Z" fill="color2"/>
<path d="M8.86942 16.5188C8.96612 16.5188 9.0445 16.441 9.0445 16.345C9.0445 16.249 8.96612 16.1712 8.86942 16.1712C8.77272 16.1712 8.69434 16.249 8.69434 16.345C8.69434 16.441 8.77272 16.5188 8.86942 16.5188Z" fill="color2"/>
<path d="M21.8108 11.9064C21.9075 11.9064 21.9859 11.8286 21.9859 11.7326C21.9859 11.6366 21.9075 11.5588 21.8108 11.5588C21.7141 11.5588 21.6357 11.6366 21.6357 11.7326C21.6357 11.8286 21.7141 11.9064 21.8108 11.9064Z" fill="color2"/>
<path d="M8.47688 15.9971C8.53639 15.9971 8.58463 15.9493 8.58463 15.8902C8.58463 15.8311 8.53639 15.7832 8.47688 15.7832C8.41738 15.7832 8.36914 15.8311 8.36914 15.8902C8.36914 15.9493 8.41738 15.9971 8.47688 15.9971Z" fill="color2"/>
<path d="M21.8372 11.1576C21.8967 11.1576 21.945 11.1097 21.945 11.0506C21.945 10.9916 21.8967 10.9437 21.8372 10.9437C21.7777 10.9437 21.7295 10.9916 21.7295 11.0506C21.7295 11.1097 21.7777 11.1576 21.8372 11.1576Z" fill="color2"/>
<path d="M10.7544 20.8101C11.3049 20.8101 11.7511 20.3672 11.7511 19.8208C11.7511 19.2744 11.3049 18.8315 10.7544 18.8315C10.204 18.8315 9.75781 19.2744 9.75781 19.8208C9.75781 20.3672 10.204 20.8101 10.7544 20.8101Z" fill="color2"/>
<path d="M8.90891 19.2192C9.31057 19.2192 9.63618 18.896 9.63618 18.4973C9.63618 18.0985 9.31057 17.7753 8.90891 17.7753C8.50725 17.7753 8.18164 18.0985 8.18164 18.4973C8.18164 18.896 8.50725 19.2192 8.90891 19.2192Z" fill="color2"/>
<path d="M13.1101 21.3447C13.5117 21.3447 13.8374 21.0214 13.8374 20.6227C13.8374 20.224 13.5117 19.9008 13.1101 19.9008C12.7084 19.9008 12.3828 20.224 12.3828 20.6227C12.3828 21.0214 12.7084 21.3447 13.1101 21.3447Z" fill="color2"/>
<path d="M7.84568 17.7486C8.20271 17.7486 8.49214 17.4613 8.49214 17.1069C8.49214 16.7525 8.20271 16.4652 7.84568 16.4652C7.48865 16.4652 7.19922 16.7525 7.19922 17.1069C7.19922 17.4613 7.48865 17.7486 7.84568 17.7486Z" fill="color2"/>
<path d="M14.9287 21.318C15.2857 21.318 15.5752 21.0307 15.5752 20.6763C15.5752 20.3219 15.2857 20.0346 14.9287 20.0346C14.5717 20.0346 14.2822 20.3219 14.2822 20.6763C14.2822 21.0307 14.5717 21.318 14.9287 21.318Z" fill="color2"/>
<path d="M7.21259 16.2113C7.47292 16.2113 7.68397 16.0018 7.68397 15.7434C7.68397 15.485 7.47292 15.2755 7.21259 15.2755C6.95225 15.2755 6.74121 15.485 6.74121 15.7434C6.74121 16.0018 6.95225 16.2113 7.21259 16.2113Z" fill="color2"/>
<path d="M16.3571 20.8636C16.6175 20.8636 16.8285 20.6541 16.8285 20.3956C16.8285 20.1372 16.6175 19.9277 16.3571 19.9277C16.0968 19.9277 15.8857 20.1372 15.8857 20.3956C15.8857 20.6541 16.0968 20.8636 16.3571 20.8636Z" fill="color2"/>
<path d="M6.87535 14.9545C7.07618 14.9545 7.23899 14.7929 7.23899 14.5936C7.23899 14.3942 7.07618 14.2326 6.87535 14.2326C6.67452 14.2326 6.51172 14.3942 6.51172 14.5936C6.51172 14.7929 6.67452 14.9545 6.87535 14.9545Z" fill="color2"/>
<path d="M17.5414 20.2621C17.7422 20.2621 17.905 20.1005 17.905 19.9011C17.905 19.7018 17.7422 19.5402 17.5414 19.5402C17.3405 19.5402 17.1777 19.7018 17.1777 19.9011C17.1777 20.1005 17.3405 20.2621 17.5414 20.2621Z" fill="color2"/>
<path d="M6.74006 13.9384C6.88883 13.9384 7.00942 13.8187 7.00942 13.6711C7.00942 13.5234 6.88883 13.4037 6.74006 13.4037C6.5913 13.4037 6.4707 13.5234 6.4707 13.6711C6.4707 13.8187 6.5913 13.9384 6.74006 13.9384Z" fill="color2"/>
<path d="M18.4442 19.647C18.5929 19.647 18.7135 19.5273 18.7135 19.3796C18.7135 19.2319 18.5929 19.1122 18.4442 19.1122C18.2954 19.1122 18.1748 19.2319 18.1748 19.3796C18.1748 19.5273 18.2954 19.647 18.4442 19.647Z" fill="color2"/>
<path d="M6.76688 13.0427C6.86357 13.0427 6.94196 12.9649 6.94196 12.8689C6.94196 12.7729 6.86357 12.6951 6.76688 12.6951C6.67018 12.6951 6.5918 12.7729 6.5918 12.8689C6.5918 12.9649 6.67018 13.0427 6.76688 13.0427Z" fill="color2"/>
<path d="M19.1438 18.9922C19.2405 18.9922 19.3189 18.9143 19.3189 18.8184C19.3189 18.7224 19.2405 18.6446 19.1438 18.6446C19.0471 18.6446 18.9688 18.7224 18.9688 18.8184C18.9688 18.9143 19.0471 18.9922 19.1438 18.9922Z" fill="color2"/>
<path d="M6.82161 12.3876C6.88112 12.3876 6.92935 12.3397 6.92935 12.2806C6.92935 12.2215 6.88112 12.1736 6.82161 12.1736C6.76211 12.1736 6.71387 12.2215 6.71387 12.2806C6.71387 12.3397 6.76211 12.3876 6.82161 12.3876Z" fill="color2"/>
<path d="M19.6419 18.4704C19.7014 18.4704 19.7497 18.4225 19.7497 18.3635C19.7497 18.3044 19.7014 18.2565 19.6419 18.2565C19.5824 18.2565 19.5342 18.3044 19.5342 18.3635C19.5342 18.4225 19.5824 18.4704 19.6419 18.4704Z" fill="color2"/>
<path d="M5.52788 17.6552C6.0783 17.6552 6.52451 17.2123 6.52451 16.6659C6.52451 16.1195 6.0783 15.6766 5.52788 15.6766C4.97746 15.6766 4.53125 16.1195 4.53125 16.6659C4.53125 17.2123 4.97746 17.6552 5.52788 17.6552Z" fill="color2"/>
<path d="M5.1511 15.1683C5.55276 15.1683 5.87837 14.8451 5.87837 14.4464C5.87837 14.0477 5.55276 13.7245 5.1511 13.7245C4.74944 13.7245 4.42383 14.0477 4.42383 14.4464C4.42383 14.8451 4.74944 15.1683 5.1511 15.1683Z" fill="color2"/>
<path d="M6.63255 19.607C7.03421 19.607 7.35982 19.2838 7.35982 18.8851C7.35982 18.4864 7.03421 18.1631 6.63255 18.1631C6.23088 18.1631 5.90527 18.4864 5.90527 18.8851C5.90527 19.2838 6.23088 19.607 6.63255 19.607Z" fill="color2"/>
<path d="M5.38084 13.3637C5.73787 13.3637 6.0273 13.0764 6.0273 12.722C6.0273 12.3676 5.73787 12.0803 5.38084 12.0803C5.02381 12.0803 4.73438 12.3676 4.73438 12.722C4.73438 13.0764 5.02381 13.3637 5.38084 13.3637Z" fill="color2"/>
<path d="M7.87107 20.8367C8.22811 20.8367 8.51754 20.5494 8.51754 20.195C8.51754 19.8406 8.22811 19.5533 7.87107 19.5533C7.51404 19.5533 7.22461 19.8406 7.22461 20.195C7.22461 20.5494 7.51404 20.8367 7.87107 20.8367Z" fill="color2"/>
<path d="M5.90497 11.7594C6.16531 11.7594 6.37635 11.5499 6.37635 11.2915C6.37635 11.0331 6.16531 10.8236 5.90497 10.8236C5.64464 10.8236 5.43359 11.0331 5.43359 11.2915C5.43359 11.5499 5.64464 11.7594 5.90497 11.7594Z" fill="color2"/>
<path d="M9.09833 21.4652C9.35867 21.4652 9.56971 21.2558 9.56971 20.9973C9.56971 20.7389 9.35867 20.5294 9.09833 20.5294C8.838 20.5294 8.62695 20.7389 8.62695 20.9973C8.62695 21.2558 8.838 21.4652 9.09833 21.4652Z" fill="color2"/>
<path d="M6.48473 10.6097C6.68556 10.6097 6.84837 10.4481 6.84837 10.2487C6.84837 10.0494 6.68556 9.88779 6.48473 9.88779C6.2839 9.88779 6.12109 10.0494 6.12109 10.2487C6.12109 10.4481 6.2839 10.6097 6.48473 10.6097Z" fill="color2"/>
<path d="M10.2826 21.8396C10.4834 21.8396 10.6462 21.678 10.6462 21.4787C10.6462 21.2793 10.4834 21.1177 10.2826 21.1177C10.0818 21.1177 9.91895 21.2793 9.91895 21.4787C9.91895 21.678 10.0818 21.8396 10.2826 21.8396Z" fill="color2"/>
<path d="M7.03694 9.76736C7.1857 9.76736 7.3063 9.64765 7.3063 9.49998C7.3063 9.35232 7.1857 9.2326 7.03694 9.2326C6.88817 9.2326 6.76758 9.35232 6.76758 9.49998C6.76758 9.64765 6.88817 9.76736 7.03694 9.76736Z" fill="color2"/>
<path d="M11.2928 22C11.4416 22 11.5622 21.8803 11.5622 21.7326C11.5622 21.5849 11.4416 21.4652 11.2928 21.4652C11.144 21.4652 11.0234 21.5849 11.0234 21.7326C11.0234 21.8803 11.144 22 11.2928 22Z" fill="color2"/>
<path d="M7.61551 9.12558C7.71221 9.12558 7.7906 9.04777 7.7906 8.95178C7.7906 8.8558 7.71221 8.77798 7.61551 8.77798C7.51882 8.77798 7.44043 8.8558 7.44043 8.95178C7.44043 9.04777 7.51882 9.12558 7.61551 9.12558Z" fill="color2"/>
<path d="M12.1956 22C12.2923 22 12.3707 21.9222 12.3707 21.8262C12.3707 21.7302 12.2923 21.6524 12.1956 21.6524C12.0989 21.6524 12.0205 21.7302 12.0205 21.8262C12.0205 21.9222 12.0989 22 12.1956 22Z" fill="color2"/>
<path d="M8.07357 8.67109C8.13307 8.67109 8.18131 8.6232 8.18131 8.56414C8.18131 8.50507 8.13307 8.45718 8.07357 8.45718C8.01406 8.45718 7.96582 8.50507 7.96582 8.56414C7.96582 8.6232 8.01406 8.67109 8.07357 8.67109Z" fill="color2"/>
<path d="M12.8822 21.9598C12.9417 21.9598 12.9899 21.912 12.9899 21.8529C12.9899 21.7938 12.9417 21.7459 12.8822 21.7459C12.8227 21.7459 12.7744 21.7938 12.7744 21.8529C12.7744 21.912 12.8227 21.9598 12.8822 21.9598Z" fill="color2"/>
<path d="M4.19487 11.6792C4.7453 11.6792 5.1915 11.2363 5.1915 10.6899C5.1915 10.1435 4.7453 9.70062 4.19487 9.70062C3.64445 9.70062 3.19824 10.1435 3.19824 10.6899C3.19824 11.2363 3.64445 11.6792 4.19487 11.6792Z" fill="color2"/>
<path d="M5.52708 9.60675C5.92874 9.60675 6.25435 9.28354 6.25435 8.88483C6.25435 8.48612 5.92874 8.1629 5.52708 8.1629C5.12541 8.1629 4.7998 8.48612 4.7998 8.88483C4.7998 9.28354 5.12541 9.60675 5.52708 9.60675Z" fill="color2"/>
<path d="M3.36106 13.7513C3.76272 13.7513 4.08833 13.4281 4.08833 13.0294C4.08833 12.6307 3.76272 12.3074 3.36106 12.3074C2.9594 12.3074 2.63379 12.6307 2.63379 13.0294C2.63379 13.4281 2.9594 13.7513 3.36106 13.7513Z" fill="color2"/>
<path d="M6.94334 8.48374C7.30037 8.48374 7.5898 8.19643 7.5898 7.84203C7.5898 7.48762 7.30037 7.20032 6.94334 7.20032C6.58631 7.20032 6.29688 7.48762 6.29688 7.84203C6.29688 8.19643 6.58631 8.48374 6.94334 8.48374Z" fill="color2"/>
<path d="M3.28025 15.4759C3.63728 15.4759 3.92672 15.1886 3.92672 14.8342C3.92672 14.4798 3.63728 14.1925 3.28025 14.1925C2.92322 14.1925 2.63379 14.4798 2.63379 14.8342C2.63379 15.1886 2.92322 15.4759 3.28025 15.4759Z" fill="color2"/>
<path d="M8.32978 7.68165C8.59011 7.68165 8.80116 7.47216 8.80116 7.21373C8.80116 6.95531 8.59011 6.74582 8.32978 6.74582C8.06944 6.74582 7.8584 6.95531 7.8584 7.21373C7.8584 7.47216 8.06944 7.68165 8.32978 7.68165Z" fill="color2"/>
<path d="M3.5495 16.7326C3.80984 16.7326 4.02088 16.5231 4.02088 16.2647C4.02088 16.0062 3.80984 15.7968 3.5495 15.7968C3.28917 15.7968 3.07812 16.0062 3.07812 16.2647C3.07812 16.5231 3.28917 16.7326 3.5495 16.7326Z" fill="color2"/>
<path d="M9.48766 7.25391C9.68849 7.25391 9.85129 7.0923 9.85129 6.89294C9.85129 6.69359 9.68849 6.53198 9.48766 6.53198C9.28683 6.53198 9.12402 6.69359 9.12402 6.89294C9.12402 7.0923 9.28683 7.25391 9.48766 7.25391Z" fill="color2"/>
<path d="M4.03258 17.8021C4.23341 17.8021 4.39622 17.6405 4.39622 17.4411C4.39622 17.2418 4.23341 17.0802 4.03258 17.0802C3.83175 17.0802 3.66895 17.2418 3.66895 17.4411C3.66895 17.6405 3.83175 17.8021 4.03258 17.8021Z" fill="color2"/>
<path d="M10.4178 7.04007C10.5666 7.04007 10.6872 6.92036 10.6872 6.77269C10.6872 6.62502 10.5666 6.50531 10.4178 6.50531C10.269 6.50531 10.1484 6.62502 10.1484 6.77269C10.1484 6.92036 10.269 7.04007 10.4178 7.04007Z" fill="color2"/>
<path d="M4.5594 18.6041C4.70816 18.6041 4.82876 18.4844 4.82876 18.3367C4.82876 18.189 4.70816 18.0693 4.5594 18.0693C4.41064 18.0693 4.29004 18.189 4.29004 18.3367C4.29004 18.4844 4.41064 18.6041 4.5594 18.6041Z" fill="color2"/>
<path d="M11.2249 6.97327C11.3216 6.97327 11.4 6.89545 11.4 6.79947C11.4 6.70348 11.3216 6.62567 11.2249 6.62567C11.1282 6.62567 11.0498 6.70348 11.0498 6.79947C11.0498 6.89545 11.1282 6.97327 11.2249 6.97327Z" fill="color2"/>
<path d="M5.10965 19.2057C5.20635 19.2057 5.28474 19.1279 5.28474 19.0319C5.28474 18.936 5.20635 18.8582 5.10965 18.8582C5.01296 18.8582 4.93457 18.936 4.93457 19.0319C4.93457 19.1279 5.01296 19.2057 5.10965 19.2057Z" fill="color2"/>
<path d="M11.8177 6.97324C11.8772 6.97324 11.9254 6.92536 11.9254 6.86629C11.9254 6.80722 11.8772 6.75934 11.8177 6.75934C11.7582 6.75934 11.71 6.80722 11.71 6.86629C11.71 6.92536 11.7582 6.97324 11.8177 6.97324Z" fill="color2"/>
<path d="M5.56868 19.6471C5.62819 19.6471 5.67643 19.5992 5.67643 19.5401C5.67643 19.4811 5.62819 19.4332 5.56868 19.4332C5.50918 19.4332 5.46094 19.4811 5.46094 19.5401C5.46094 19.5992 5.50918 19.6471 5.56868 19.6471Z" fill="color2"/>
<path d="M7.37358 6.59894C7.92401 6.59894 8.37021 6.15601 8.37021 5.60963C8.37021 5.06326 7.92401 4.62033 7.37358 4.62033C6.82316 4.62033 6.37695 5.06326 6.37695 5.60963C6.37695 6.15601 6.82316 6.59894 7.37358 6.59894Z" fill="color2"/>
<path d="M9.59543 5.95706C9.9971 5.95706 10.3227 5.63385 10.3227 5.23514C10.3227 4.83643 9.9971 4.51321 9.59543 4.51321C9.19377 4.51321 8.86816 4.83643 8.86816 5.23514C8.86816 5.63385 9.19377 5.95706 9.59543 5.95706Z" fill="color2"/>
<path d="M5.12473 7.42789C5.52639 7.42789 5.852 7.10467 5.852 6.70596C5.852 6.30726 5.52639 5.98404 5.12473 5.98404C4.72307 5.98404 4.39746 6.30726 4.39746 6.70596C4.39746 7.10467 4.72307 7.42789 5.12473 7.42789Z" fill="color2"/>
<path d="M11.3467 6.10419C11.7037 6.10419 11.9931 5.81688 11.9931 5.46248C11.9931 5.10807 11.7037 4.82077 11.3467 4.82077C10.9896 4.82077 10.7002 5.10807 10.7002 5.46248C10.7002 5.81688 10.9896 6.10419 11.3467 6.10419Z" fill="color2"/>
<path d="M3.81834 8.59097C4.17537 8.59097 4.4648 8.30367 4.4648 7.94926C4.4648 7.59486 4.17537 7.30756 3.81834 7.30756C3.46131 7.30756 3.17188 7.59486 3.17188 7.94926C3.17188 8.30367 3.46131 8.59097 3.81834 8.59097Z" fill="color2"/>
<path d="M12.7741 6.43845C13.0344 6.43845 13.2455 6.22896 13.2455 5.97054C13.2455 5.71212 13.0344 5.50262 12.7741 5.50262C12.5138 5.50262 12.3027 5.71212 12.3027 5.97054C12.3027 6.22896 12.5138 6.43845 12.7741 6.43845Z" fill="color2"/>
<path d="M3.00947 9.63376C3.2698 9.63376 3.48085 9.42427 3.48085 9.16585C3.48085 8.90743 3.2698 8.69794 3.00947 8.69794C2.74913 8.69794 2.53809 8.90743 2.53809 9.16585C2.53809 9.42427 2.74913 9.63376 3.00947 9.63376Z" fill="color2"/>
<path d="M13.8382 6.90652C14.0391 6.90652 14.2019 6.74492 14.2019 6.54556C14.2019 6.34621 14.0391 6.1846 13.8382 6.1846C13.6374 6.1846 13.4746 6.34621 13.4746 6.54556C13.4746 6.74492 13.6374 6.90652 13.8382 6.90652Z" fill="color2"/>
<path d="M2.53844 10.7033C2.73927 10.7033 2.90208 10.5417 2.90208 10.3423C2.90208 10.143 2.73927 9.98135 2.53844 9.98135C2.33761 9.98135 2.1748 10.143 2.1748 10.3423C2.1748 10.5417 2.33761 10.7033 2.53844 10.7033Z" fill="color2"/>
<path d="M14.5926 7.37417C14.7414 7.37417 14.862 7.25446 14.862 7.1068C14.862 6.95913 14.7414 6.83942 14.5926 6.83942C14.4438 6.83942 14.3232 6.95913 14.3232 7.1068C14.3232 7.25446 14.4438 7.37417 14.5926 7.37417Z" fill="color2"/>
<path d="M2.26936 11.6122C2.41812 11.6122 2.53872 11.4925 2.53872 11.3449C2.53872 11.1972 2.41812 11.0775 2.26936 11.0775C2.1206 11.0775 2 11.1972 2 11.3449C2 11.4925 2.1206 11.6122 2.26936 11.6122Z" fill="color2"/>
<path d="M15.1438 7.85559C15.2405 7.85559 15.3189 7.77778 15.3189 7.68179C15.3189 7.58581 15.2405 7.508 15.1438 7.508C15.0471 7.508 14.9688 7.58581 14.9688 7.68179C14.9688 7.77778 15.0471 7.85559 15.1438 7.85559Z" fill="color2"/>
<path d="M2.18876 12.4011C2.28545 12.4011 2.36384 12.3233 2.36384 12.2273C2.36384 12.1313 2.28545 12.0535 2.18876 12.0535C2.09206 12.0535 2.01367 12.1313 2.01367 12.2273C2.01367 12.3233 2.09206 12.4011 2.18876 12.4011Z" fill="color2"/>
<path d="M15.5208 8.22998C15.5803 8.22998 15.6286 8.1821 15.6286 8.12303C15.6286 8.06397 15.5803 8.01608 15.5208 8.01608C15.4613 8.01608 15.4131 8.06397 15.4131 8.12303C15.4131 8.1821 15.4613 8.22998 15.5208 8.22998Z" fill="color2"/>
<path d="M2.16145 13.016C2.22096 13.016 2.2692 12.9681 2.2692 12.9091C2.2692 12.85 2.22096 12.8021 2.16145 12.8021C2.10195 12.8021 2.05371 12.85 2.05371 12.9091C2.05371 12.9681 2.10195 13.016 2.16145 13.016Z" fill="color2"/>
</svg>
