<svg width="24" height="24" viewBox="0 0 24 24" fill="none" xmlns="http://www.w3.org/2000/svg">
<path fill-rule="evenodd" clip-rule="evenodd" d="M12.75 7.5C12.75 7.08579 12.4142 6.75 12 6.75C11.5858 6.75 11.25 7.08579 11.25 7.5V7.74023H10.96C9.70704 7.74023 8.76001 8.80585 8.76001 10.0202C8.76001 10.5877 8.88434 11.0805 9.1939 11.4747C9.49626 11.8597 9.90083 12.0531 10.2485 12.1768L11.25 12.5262V14.7502H11.17C10.6953 14.7502 10.25 14.3378 10.25 13.7502C10.25 13.336 9.91421 13.0002 9.5 13.0002C9.08579 13.0002 8.75 13.336 8.75 13.7502C8.75 15.1027 9.80474 16.2502 11.17 16.2502H11.25V16.5C11.25 16.9142 11.5858 17.25 12 17.25C12.4142 17.25 12.75 16.9142 12.75 16.5V16.2502H13.05C14.2998 16.2502 15.25 15.1979 15.25 13.9702C15.25 13.4059 15.1248 12.9148 14.8174 12.5211C14.5166 12.1359 14.1139 11.9391 13.7615 11.8136L12.75 11.4608V9.24023H12.84C13.3147 9.24023 13.76 9.65269 13.76 10.2402C13.76 10.6544 14.0958 10.9902 14.51 10.9902C14.9242 10.9902 15.26 10.6544 15.26 10.2402C15.26 8.88778 14.2053 7.74023 12.84 7.74023H12.75V7.5ZM11.25 9.24023H10.96C10.6129 9.24023 10.26 9.55462 10.26 10.0202C10.26 10.3728 10.3357 10.5 10.3736 10.5483C10.4186 10.6056 10.5086 10.677 10.7494 10.7629L11.25 10.9375V9.24023ZM12.75 13.0494V14.7502H13.05C13.4002 14.7502 13.75 14.4425 13.75 13.9702C13.75 13.6246 13.6752 13.4956 13.6351 13.4443C13.5886 13.3847 13.4967 13.3118 13.2606 13.2276L12.75 13.0494Z" fill="color1"/>
<path fill-rule="evenodd" clip-rule="evenodd" d="M12 3.53846C7.32945 3.53846 3.53846 7.32945 3.53846 12C3.53846 16.6705 7.32945 20.4615 12 20.4615C16.6706 20.4615 20.4615 16.6705 20.4615 12C20.4615 11.5752 20.8059 11.2308 21.2308 11.2308C21.6556 11.2308 22 11.5752 22 12C22 17.5202 17.5202 22 12 22C6.47978 22 2 17.5202 2 12C2 6.47978 6.47978 2 12 2C12.4248 2 12.7692 2.34439 12.7692 2.76923C12.7692 3.19406 12.4248 3.53846 12 3.53846ZM16.2292 7.27032C15.9363 6.97743 15.9363 6.50255 16.2292 6.20966L19.9489 2.48999L17.7598 2.48999C17.3456 2.48999 17.0098 2.1542 17.0098 1.73999C17.0098 1.32577 17.3456 0.989988 17.7598 0.989988L21.7598 0.989988C22.174 0.989988 22.5098 1.32578 22.5098 1.73999L22.5098 5.73999C22.5098 6.1542 22.174 6.48999 21.7598 6.48999C21.3456 6.48999 21.0098 6.1542 21.0098 5.73999L21.0098 3.55041L17.2899 7.27032C16.997 7.56321 16.5221 7.56321 16.2292 7.27032Z" fill="color2"/>
</svg>
