<svg width="25" height="24" viewBox="0 0 25 24" fill="none" xmlns="http://www.w3.org/2000/svg">
<path fill-rule="evenodd" clip-rule="evenodd" d="M16.1667 10.0061C16.1545 12.1679 14.4594 13.9267 12.313 14C12.2276 13.9878 12.1179 13.9878 12.0203 14C9.87399 13.9267 8.16667 12.1679 8.16667 10.0061C8.16667 7.79542 9.94716 6 12.1667 6C14.374 6 16.1667 7.79542 16.1667 10.0061ZM9.66667 10.0061C9.66667 11.3316 10.6899 12.4105 11.9902 12.4968C12.1049 12.4892 12.2256 12.4886 12.3464 12.4966C13.6364 12.409 14.657 11.338 14.6667 10.0019C14.6644 8.61941 13.542 7.5 12.1667 7.5C10.7807 7.5 9.66667 8.6187 9.66667 10.0061Z" fill="color1"/>
<path fill-rule="evenodd" clip-rule="evenodd" d="M17.1364 16.8001C18.2064 17.5201 18.8064 18.4401 18.9064 19.3801C17.1264 21.0101 14.7664 22.0001 12.1664 22.0001C9.56644 22.0001 7.20644 21.0101 5.42644 19.3801C5.52644 18.4401 6.12644 17.5201 7.19644 16.8001C9.93644 14.9801 14.4164 14.9801 17.1364 16.8001ZM12.1663 20.5001C10.2964 20.5001 8.57532 19.8993 7.17253 18.8744C7.34445 18.6107 7.61631 18.326 8.03006 18.047C9.10267 17.336 10.6004 16.9351 12.1738 16.9351C13.7488 16.9351 15.24 17.3366 16.3005 18.0456C16.7154 18.3251 16.9879 18.6103 17.1601 18.8744C15.7573 19.8993 14.0363 20.5001 12.1663 20.5001Z" fill="color2"/>
<path fill-rule="evenodd" clip-rule="evenodd" d="M12.1667 20.5C16.8611 20.5 20.6667 16.6944 20.6667 12C20.6667 7.30558 16.8611 3.5 12.1667 3.5C7.47225 3.5 3.66667 7.30558 3.66667 12C3.66667 16.6944 7.47225 20.5 12.1667 20.5ZM22.1667 12C22.1667 17.5228 17.6895 22 12.1667 22C6.64382 22 2.16667 17.5228 2.16667 12C2.16667 6.47715 6.64382 2 12.1667 2C17.6895 2 22.1667 6.47715 22.1667 12Z" fill="color2"/>
</svg>
