<svg width="343" height="128" viewBox="0 0 343 128" fill="none" xmlns="http://www.w3.org/2000/svg">
<g filter="url(#filter0_d_7630_19814)">
<rect x="142.999" y="59.9407" width="57.3631" height="38.925" fill="white"/>
<g filter="url(#filter1_d_7630_19814)">
<circle cx="172.192" cy="79.9153" r="9.73125" fill="#9FA7B8"/>
</g>
<path d="M174.496 82.8785C174.014 83.3198 173.406 83.5844 172.764 83.6315V84.7811H171.765V83.6545C171.285 83.6289 170.81 83.5381 170.352 83.3843C169.964 83.2631 169.599 83.0735 169.272 82.8239L169.828 81.5593C170.101 81.7646 170.401 81.929 170.718 82.0479C171.057 82.1786 171.411 82.2617 171.77 82.2951V80.5707C171.359 80.4762 170.957 80.3444 170.569 80.177C170.245 80.0396 169.959 79.8214 169.736 79.5418C169.504 79.2211 169.387 78.8269 169.406 78.4267C169.404 78.1505 169.457 77.8767 169.561 77.6226C169.666 77.3684 169.82 77.1393 170.014 76.9495C170.498 76.5035 171.113 76.2392 171.759 76.1994V75.0498H172.758V76.1793C173.475 76.2148 174.173 76.4319 174.79 76.8115L174.291 78.0847C173.823 77.7984 173.303 77.6145 172.764 77.5444V79.3061C173.174 79.3968 173.575 79.5248 173.963 79.6884C174.282 79.8254 174.562 80.0428 174.779 80.3207C175.011 80.637 175.128 81.0277 175.109 81.4243C175.111 81.6976 175.057 81.9682 174.951 82.2186C174.846 82.4691 174.691 82.6939 174.496 82.8785ZM171.213 78.7716C171.377 78.9057 171.566 79.0035 171.768 79.059V77.5818C171.559 77.6179 171.366 77.718 171.213 77.8692C171.095 77.9955 171.03 78.1649 171.032 78.3405C171.029 78.4218 171.043 78.503 171.074 78.5777C171.105 78.6524 171.153 78.7187 171.213 78.7716ZM173.305 81.9933C173.363 81.9357 173.409 81.8665 173.44 81.7899C173.471 81.7133 173.487 81.6309 173.486 81.5478C173.487 81.4671 173.471 81.3871 173.439 81.3135C173.407 81.24 173.359 81.1747 173.3 81.1225C173.139 80.994 172.958 80.8966 172.764 80.8351V82.2721C172.966 82.234 173.154 82.1373 173.305 81.9933Z" fill="#F3F5F9"/>
<path fill-rule="evenodd" clip-rule="evenodd" d="M137.877 63.0136C137.877 62.4479 138.336 61.9893 138.901 61.9893H152.218C152.784 61.9893 153.242 62.4479 153.242 63.0136V64.3C153.242 64.8657 152.784 65.3243 152.218 65.3243C151.652 65.3243 151.193 65.7829 151.193 66.3487V93.4817C151.193 94.0474 151.652 94.506 152.218 94.506C152.783 94.506 153.242 94.9646 153.242 95.5303V96.8168C153.242 97.3825 152.783 97.8411 152.218 97.8411H138.901C138.336 97.8411 137.877 97.3825 137.877 96.8168V95.5304C137.877 94.9646 138.336 94.506 138.901 94.506C139.467 94.506 139.926 94.0474 139.926 93.4817V66.3486C139.926 65.7829 139.467 65.3243 138.901 65.3243C138.336 65.3243 137.877 64.8657 137.877 64.3V63.0136Z" fill="#F2F5F9"/>
<path fill-rule="evenodd" clip-rule="evenodd" d="M192.166 63.0136C192.166 62.4479 192.625 61.9893 193.19 61.9893H206.507C207.073 61.9893 207.531 62.4479 207.531 63.0136V64.3001C207.531 64.8657 207.073 65.3243 206.507 65.3243C205.941 65.3243 205.483 65.7829 205.483 66.3486V93.4817C205.483 94.0474 205.941 94.506 206.507 94.506C207.073 94.506 207.531 94.9646 207.531 95.5303V96.8168C207.531 97.3825 207.073 97.8411 206.507 97.8411H193.19C192.625 97.8411 192.166 97.3825 192.166 96.8168V95.5304C192.166 94.9646 192.625 94.506 193.19 94.506C193.756 94.506 194.215 94.0474 194.215 93.4817V66.3487C194.215 65.7829 193.756 65.3243 193.19 65.3243C192.625 65.3243 192.166 64.8657 192.166 64.3V63.0136Z" fill="#F2F5F9"/>
<rect x="131.73" y="97.8412" width="78.8743" height="6.14605" rx="2.04868" fill="#FCFDFF"/>
<rect x="131.73" y="56.8677" width="78.8743" height="6.14605" rx="2.04868" fill="#D5DDEA"/>
<path d="M169.769 27.1445C170.965 26.5141 172.394 26.5141 173.59 27.1445L218.241 50.6821C222.024 52.6761 220.607 58.404 216.331 58.404H127.029C122.752 58.404 121.335 52.6761 125.118 50.6821L169.769 27.1445Z" fill="#FCFDFF"/>
<circle cx="171.679" cy="46.6243" r="5.12171" fill="#CBD4E0"/>
<path d="M222.1 68.0214C221.57 67.4909 221.57 66.6308 222.1 66.1003C222.631 65.5699 223.491 65.5699 224.021 66.1003L237.148 79.2273C237.679 79.7578 237.679 80.6179 237.148 81.1483C236.618 81.6788 235.758 81.6788 235.227 81.1483L222.1 68.0214Z" fill="#848B9B"/>
<circle cx="210.254" cy="54.2539" r="17.3529" transform="rotate(-45 210.254 54.2539)" stroke="#A1AABB" stroke-width="2.42278"/>
</g>
<defs>
<filter id="filter0_d_7630_19814" x="93" y="20" width="157.359" height="95.9873" filterUnits="userSpaceOnUse" color-interpolation-filters="sRGB">
<feFlood flood-opacity="0" result="BackgroundImageFix"/>
<feColorMatrix in="SourceAlpha" type="matrix" values="0 0 0 0 0 0 0 0 0 0 0 0 0 0 0 0 0 0 127 0" result="hardAlpha"/>
<feOffset dy="4"/>
<feGaussianBlur stdDeviation="4"/>
<feComposite in2="hardAlpha" operator="out"/>
<feColorMatrix type="matrix" values="0 0 0 0 0.396078 0 0 0 0 0.478431 0 0 0 0 0.576471 0 0 0 0.1 0"/>
<feBlend mode="normal" in2="BackgroundImageFix" result="effect1_dropShadow_7630_19814"/>
<feBlend mode="normal" in="SourceGraphic" in2="effect1_dropShadow_7630_19814" result="shape"/>
</filter>
<filter id="filter1_d_7630_19814" x="139.925" y="58.9163" width="64.5339" height="64.5335" filterUnits="userSpaceOnUse" color-interpolation-filters="sRGB">
<feFlood flood-opacity="0" result="BackgroundImageFix"/>
<feColorMatrix in="SourceAlpha" type="matrix" values="0 0 0 0 0 0 0 0 0 0 0 0 0 0 0 0 0 0 127 0" result="hardAlpha"/>
<feOffset dy="11.2678"/>
<feGaussianBlur stdDeviation="11.2678"/>
<feComposite in2="hardAlpha" operator="out"/>
<feColorMatrix type="matrix" values="0 0 0 0 0.396078 0 0 0 0 0.478431 0 0 0 0 0.576471 0 0 0 0.27 0"/>
<feBlend mode="normal" in2="BackgroundImageFix" result="effect1_dropShadow_7630_19814"/>
<feBlend mode="normal" in="SourceGraphic" in2="effect1_dropShadow_7630_19814" result="shape"/>
</filter>
</defs>
</svg>
