<svg width="343" height="128" viewBox="0 0 343 128" fill="none" xmlns="http://www.w3.org/2000/svg">
<g filter="url(#filter0_d_7630_19810)">
<path d="M211.796 97H129.939C124.959 97 121 93.0413 121 88.0609V40.9391C121 35.9587 124.959 32 129.939 32H211.796C216.776 32 220.735 35.9587 220.735 40.9391V88.0609C220.735 93.0413 216.776 97 211.796 97Z" fill="url(#paint0_linear_7630_19810)"/>
<path d="M146.286 82.3143H133.26C132.111 82.3143 131.217 81.4204 131.217 80.2711C131.217 79.1218 132.111 78.2279 133.26 78.2279H146.286C147.435 78.2279 148.329 79.1218 148.329 80.2711C148.329 81.4204 147.435 82.3143 146.286 82.3143Z" fill="#D5DDEA"/>
<path d="M167.298 74.7592H133.26C132.111 74.7592 131.217 73.8653 131.217 72.7159C131.217 71.5666 132.111 70.6727 133.26 70.6727H167.298C168.447 70.6727 169.341 71.5666 169.341 72.7159C169.341 73.8653 168.447 74.7592 167.298 74.7592Z" fill="#D5DDEA"/>
<path d="M167.356 82.3143H154.33C153.181 82.3143 152.287 81.4204 152.287 80.2711C152.287 79.1218 153.181 78.2279 154.33 78.2279H167.356C168.505 78.2279 169.399 79.1218 169.399 80.2711C169.399 81.4204 168.505 82.3143 167.356 82.3143Z" fill="#D5DDEA"/>
<path d="M188.427 82.3143H175.402C174.252 82.3143 173.358 81.4204 173.358 80.2711C173.358 79.1218 174.252 78.2279 175.402 78.2279H188.427C189.576 78.2279 190.47 79.1218 190.47 80.2711C190.47 81.4204 189.576 82.3143 188.427 82.3143Z" fill="#D5DDEA"/>
<path d="M209.496 82.3143H196.471C195.322 82.3143 194.428 81.4204 194.428 80.2711C194.428 79.1218 195.322 78.2279 196.471 78.2279H209.496C210.646 78.2279 211.54 79.1218 211.54 80.2711C211.54 81.4204 210.646 82.3143 209.496 82.3143Z" fill="#D5DDEA"/>
<path d="M147.434 60.2222H133.131C132.11 60.2222 131.216 59.3283 131.216 58.3067V49.1122C131.216 48.0906 132.11 47.1967 133.131 47.1967H147.306C148.328 47.1967 149.222 48.0906 149.222 49.1122V58.3067C149.349 59.3283 148.456 60.2222 147.434 60.2222Z" fill="#CBD4E0"/>
<path d="M230.1 51.0214C229.57 50.4909 229.57 49.6308 230.1 49.1003C230.631 48.5699 231.491 48.5699 232.021 49.1003L245.148 62.2273C245.679 62.7578 245.679 63.6179 245.148 64.1483C244.618 64.6788 243.758 64.6788 243.227 64.1483L230.1 51.0214Z" fill="#848B9B"/>
<circle cx="218.254" cy="37.2539" r="17.3529" transform="rotate(-45 218.254 37.2539)" stroke="#A1AABB" stroke-width="2.42278"/>
</g>
<defs>
<filter id="filter0_d_7630_19810" x="112" y="2" width="145.815" height="107.561" filterUnits="userSpaceOnUse" color-interpolation-filters="sRGB">
<feFlood flood-opacity="0" result="BackgroundImageFix"/>
<feColorMatrix in="SourceAlpha" type="matrix" values="0 0 0 0 0 0 0 0 0 0 0 0 0 0 0 0 0 0 127 0" result="hardAlpha"/>
<feOffset dy="4"/>
<feGaussianBlur stdDeviation="4"/>
<feComposite in2="hardAlpha" operator="out"/>
<feColorMatrix type="matrix" values="0 0 0 0 0.396078 0 0 0 0 0.478431 0 0 0 0 0.576471 0 0 0 0.1 0"/>
<feBlend mode="normal" in2="BackgroundImageFix" result="effect1_dropShadow_7630_19810"/>
<feBlend mode="normal" in="SourceGraphic" in2="effect1_dropShadow_7630_19810" result="shape"/>
</filter>
<linearGradient id="paint0_linear_7630_19810" x1="170.835" y1="30.4965" x2="170.835" y2="97.7007" gradientUnits="userSpaceOnUse">
<stop stop-color="#FDFEFF"/>
<stop offset="0.9964" stop-color="#ECF0F5"/>
</linearGradient>
</defs>
</svg>
