<svg width="343" height="128" viewBox="0 0 343 128" fill="none" xmlns="http://www.w3.org/2000/svg">
<g filter="url(#filter0_d_7630_19813)">
<rect x="143.878" y="24" width="61.4634" height="80" rx="8.19015" fill="url(#paint0_linear_7630_19813)"/>
<path d="M191.443 74.3857C189.639 71.4305 187.752 70.1339 184.881 71.697L184.131 72.1226C179.476 72.047 176.859 66.2082 175.969 65.19C175.473 63.9411 171.458 58.9098 173.64 54.9045L174.378 54.479C177.159 52.7926 176.904 50.5692 175.108 47.614C173.504 44.985 172.696 42.5429 170.334 43.8992L168.853 44.7503C167.172 45.685 165.799 47.0645 164.896 48.7277C163.847 50.6956 163.33 52.8896 163.395 55.1039C163.46 57.3182 164.103 59.4804 165.265 61.3877L169.776 68.7537L174.288 76.1198C175.446 78.026 177.085 79.615 179.051 80.7373C181.017 81.8597 183.245 82.4784 185.525 82.5353C187.461 82.5659 189.365 82.0624 191.017 81.0836L192.497 80.2324C194.864 78.8761 193.047 77.0147 191.443 74.3857Z" fill="url(#paint1_linear_7630_19813)"/>
<path d="M149.003 30.778H139.724C139.324 30.778 139 31.0994 139 31.4958V33.6041C139 34.0006 139.324 34.322 139.724 34.322H149.003C149.402 34.322 149.727 34.0006 149.727 33.6041V31.4958C149.727 31.0994 149.402 30.778 149.003 30.778Z" fill="#E1E5EC"/>
<path d="M148.724 45.9025H140.002C139.449 45.9025 139 46.3475 139 46.8964V48.4526C139 49.0015 139.449 49.4465 140.002 49.4465H148.724C149.278 49.4465 149.727 49.0015 149.727 48.4526V46.8964C149.727 46.3475 149.278 45.9025 148.724 45.9025Z" fill="#E1E5EC"/>
<path d="M148.724 61.0223H140.002C139.449 61.0223 139 61.4673 139 62.0162V63.5723C139 64.1213 139.449 64.5663 140.002 64.5663H148.724C149.278 64.5663 149.727 64.1213 149.727 63.5723V62.0162C149.727 61.4673 149.278 61.0223 148.724 61.0223Z" fill="#E1E5EC"/>
<path d="M148.724 76.1468H140.002C139.449 76.1468 139 76.5918 139 77.1407V78.6968C139 79.2458 139.449 79.6908 140.002 79.6908H148.724C149.278 79.6908 149.727 79.2458 149.727 78.6968V77.1407C149.727 76.5918 149.278 76.1468 148.724 76.1468Z" fill="#E1E5EC"/>
<path d="M149.003 91.2666H139.724C139.324 91.2666 139 91.588 139 91.9844V94.0928C139 94.4892 139.324 94.8106 139.724 94.8106H149.003C149.402 94.8106 149.727 94.4892 149.727 94.0928V91.9844C149.727 91.588 149.402 91.2666 149.003 91.2666Z" fill="#E1E5EC"/>
</g>
<path d="M214.1 46.0214C213.57 45.4909 213.57 44.6308 214.1 44.1003C214.631 43.5699 215.491 43.5699 216.021 44.1003L229.148 57.2273C229.679 57.7578 229.679 58.6179 229.148 59.1483C228.618 59.6788 227.758 59.6788 227.227 59.1483L214.1 46.0214Z" fill="#848B9B"/>
<circle cx="202.254" cy="32.2539" r="17.3529" transform="rotate(-45 202.254 32.2539)" stroke="#A1AABB" stroke-width="2.42278"/>
<defs>
<filter id="filter0_d_7630_19813" x="131" y="20" width="82.3418" height="96" filterUnits="userSpaceOnUse" color-interpolation-filters="sRGB">
<feFlood flood-opacity="0" result="BackgroundImageFix"/>
<feColorMatrix in="SourceAlpha" type="matrix" values="0 0 0 0 0 0 0 0 0 0 0 0 0 0 0 0 0 0 127 0" result="hardAlpha"/>
<feOffset dy="4"/>
<feGaussianBlur stdDeviation="4"/>
<feComposite in2="hardAlpha" operator="out"/>
<feColorMatrix type="matrix" values="0 0 0 0 0.396078 0 0 0 0 0.478431 0 0 0 0 0.576471 0 0 0 0.1 0"/>
<feBlend mode="normal" in2="BackgroundImageFix" result="effect1_dropShadow_7630_19813"/>
<feBlend mode="normal" in="SourceGraphic" in2="effect1_dropShadow_7630_19813" result="shape"/>
</filter>
<linearGradient id="paint0_linear_7630_19813" x1="182.64" y1="30.9775" x2="255.308" y2="151.192" gradientUnits="userSpaceOnUse">
<stop stop-color="#FCFDFF"/>
<stop offset="1" stop-color="#D2D8E6"/>
</linearGradient>
<linearGradient id="paint1_linear_7630_19813" x1="173.412" y1="38.8931" x2="191.459" y2="76.288" gradientUnits="userSpaceOnUse">
<stop stop-color="#E5E9F1"/>
<stop offset="1" stop-color="#DCE0E7"/>
</linearGradient>
</defs>
</svg>
