<svg width="343" height="128" viewBox="0 0 343 128" fill="none" xmlns="http://www.w3.org/2000/svg">
<g clip-path="url(#clip0_7630_19817)">
<g filter="url(#filter0_d_7630_19817)">
<path d="M209.635 102.945L191.318 95.95L171.22 104L149.396 95.8945L132.694 102.279C131.191 102.834 129.632 101.446 130.077 99.8917L140.488 63.9722C140.822 62.8063 141.657 61.807 142.771 61.3074L159.473 53.4795L171.22 61.9181L182.689 54.6454L201.173 62.7508C202.397 63.306 203.288 64.3608 203.567 65.6377L212.252 100.669C212.641 102.168 211.138 103.5 209.635 102.945Z" fill="url(#paint0_linear_7630_19817)"/>
</g>
<path d="M159.473 53.5352L149.396 95.8946L132.694 102.279C131.191 102.834 129.632 101.446 130.077 99.8919L140.488 63.9724C140.822 62.8065 141.657 61.8072 142.771 61.3075L159.473 53.5352Z" fill="#E7EAF1"/>
<path d="M209.524 103.167L191.208 96.1721L182.578 54.923L201.062 63.0285C202.287 63.5836 203.177 64.6384 203.456 65.9153L212.141 100.947C212.531 102.446 211.027 103.778 209.524 103.167Z" fill="white"/>
<path d="M191.375 95.9499L171.221 104V61.918L182.689 54.6453L191.375 95.9499Z" fill="#E7EAF1"/>
<path d="M153.238 86.2901C153.182 86.2901 153.126 86.2901 153.015 86.2901C152.792 86.2345 152.625 86.2345 152.403 86.179C151.79 86.0125 151.456 85.4573 151.568 84.8466C151.679 84.2359 152.291 83.9028 152.904 84.0139C153.071 84.0694 153.238 84.0694 153.405 84.1249C154.017 84.2359 154.407 84.7911 154.296 85.4018C154.24 85.957 153.794 86.2901 153.238 86.2901ZM157.135 86.179C156.634 86.179 156.188 85.8459 156.077 85.3463C155.91 84.7356 156.3 84.1249 156.912 84.0139C157.079 83.9583 157.246 83.9028 157.413 83.9028C158.026 83.7363 158.638 84.0694 158.805 84.6245C158.972 85.2352 158.638 85.8459 158.081 86.0125C157.859 86.068 157.692 86.1235 157.469 86.179C157.302 86.179 157.191 86.179 157.135 86.179ZM149.174 84.6245C148.951 84.6245 148.728 84.569 148.561 84.458C148.394 84.347 148.227 84.2359 148.06 84.1249C147.559 83.7918 147.448 83.0701 147.782 82.5704C148.116 82.0708 148.84 81.9597 149.341 82.2928C149.508 82.4039 149.619 82.5149 149.786 82.5704C150.287 82.9035 150.454 83.5697 150.12 84.1249C149.897 84.458 149.563 84.6245 149.174 84.6245ZM161.143 84.347C160.809 84.347 160.42 84.1804 160.197 83.8473C159.863 83.3477 159.974 82.6259 160.531 82.2928C160.698 82.1818 160.809 82.1263 160.976 82.0153C161.477 81.6822 162.201 81.7932 162.535 82.2928C162.869 82.7925 162.758 83.5142 162.257 83.8473C162.09 83.9583 161.923 84.0694 161.756 84.1804C161.589 84.2359 161.366 84.347 161.143 84.347ZM189.203 83.0146C188.646 83.0146 188.145 82.5704 188.089 81.9597C188.034 81.349 188.535 80.7939 189.147 80.7939C189.259 80.7939 189.426 80.7939 189.593 80.7384C190.205 80.6273 190.762 81.0159 190.873 81.6266C190.985 82.2373 190.595 82.7925 189.982 82.9035C189.76 82.959 189.537 82.959 189.314 83.0146C189.259 83.0146 189.259 83.0146 189.203 83.0146ZM145.777 81.7377C145.499 81.7377 145.165 81.6266 144.998 81.4046C144.887 81.2935 144.72 81.127 144.608 80.9604C144.163 80.5163 144.219 79.7946 144.664 79.406C145.109 79.0173 145.833 79.0173 146.223 79.4615C146.334 79.5725 146.446 79.7391 146.613 79.8501C147.058 80.2942 147.002 81.0159 146.557 81.4046C146.334 81.6266 146.056 81.7377 145.777 81.7377ZM185.64 81.7377C185.417 81.7377 185.139 81.6821 184.972 81.5156C184.805 81.4046 184.638 81.2935 184.526 81.127C184.081 80.7384 184.025 80.0166 184.415 79.5725C184.805 79.1284 185.528 79.0729 185.974 79.4615C186.085 79.5725 186.252 79.6835 186.364 79.7946C186.865 80.1832 186.92 80.8494 186.531 81.3491C186.308 81.5711 185.974 81.7377 185.64 81.7377ZM164.651 81.5711C164.317 81.5711 164.038 81.4601 163.816 81.1825C163.426 80.7384 163.482 80.0166 163.927 79.628C164.094 79.517 164.205 79.406 164.317 79.2949C164.762 78.9063 165.486 78.9618 165.876 79.406C166.265 79.8501 166.21 80.5718 165.764 80.9604C165.597 81.0715 165.486 81.1825 165.319 81.3491C165.152 81.5156 164.929 81.5711 164.651 81.5711ZM193.323 81.4046C192.933 81.4046 192.599 81.238 192.376 80.9049C192.042 80.4053 192.209 79.6835 192.71 79.3504C192.877 79.2394 192.989 79.1839 193.156 79.0729C193.657 78.7397 194.381 78.8508 194.715 79.3504C195.049 79.8501 194.937 80.5718 194.436 80.9049C194.269 81.0159 194.102 81.127 193.935 81.238C193.713 81.349 193.49 81.4046 193.323 81.4046ZM182.411 78.6842C182.132 78.6842 181.854 78.5732 181.631 78.3511C181.52 78.2401 181.353 78.1291 181.242 77.9625C180.796 77.5739 180.741 76.8522 181.186 76.408C181.576 75.9639 182.299 75.9084 182.745 76.3525C182.912 76.4636 183.023 76.6301 183.19 76.7411C183.636 77.1853 183.636 77.8515 183.246 78.2956C182.968 78.5732 182.689 78.6842 182.411 78.6842ZM196.83 78.6842C196.496 78.6842 196.218 78.5732 195.995 78.2956C195.605 77.8515 195.661 77.1298 196.106 76.7411C196.218 76.6301 196.385 76.5191 196.496 76.408C196.942 76.0194 197.665 76.0749 198.055 76.5191C198.445 76.9632 198.389 77.6849 197.944 78.0735C197.777 78.1846 197.665 78.2956 197.498 78.4622C197.387 78.6287 197.109 78.6842 196.83 78.6842ZM167.88 78.5732C167.602 78.5732 167.323 78.4622 167.101 78.2401C166.655 77.796 166.655 77.1298 167.101 76.6856L167.49 76.297C167.936 75.8529 168.604 75.8529 169.049 76.2415C169.494 76.6856 169.494 77.3518 169.105 77.796L168.715 78.1846C168.492 78.4622 168.214 78.5732 167.88 78.5732ZM142.938 78.3511C142.604 78.3511 142.27 78.1846 142.047 77.907C141.936 77.7404 141.825 77.6294 141.713 77.4629C141.324 76.9632 141.435 76.297 141.936 75.9084C142.437 75.5198 143.105 75.6308 143.495 76.1305L143.829 76.5746C144.219 77.0742 144.107 77.7404 143.606 78.1291C143.384 78.2401 143.161 78.3511 142.938 78.3511ZM179.015 75.8529C178.792 75.8529 178.569 75.7973 178.347 75.6308C178.18 75.5198 178.068 75.4087 177.901 75.2977C177.4 74.9646 177.289 74.2429 177.679 73.7432C178.013 73.2436 178.736 73.1325 179.237 73.5212C179.404 73.6322 179.516 73.7432 179.683 73.8543C180.184 74.2429 180.295 74.9091 179.905 75.4087C179.683 75.6863 179.349 75.8529 179.015 75.8529ZM200.171 75.7418C199.892 75.7418 199.558 75.6308 199.336 75.4087C198.89 74.9646 198.946 74.2429 199.391 73.8543L199.781 73.4656C200.226 73.0215 200.95 73.077 201.34 73.5212C201.785 73.9653 201.73 74.687 201.284 75.0756L200.894 75.4642C200.727 75.6308 200.449 75.7418 200.171 75.7418ZM170.942 75.2977C170.664 75.2977 170.385 75.1867 170.163 75.0201C169.717 74.576 169.661 73.9098 170.107 73.4656C170.218 73.2991 170.385 73.1881 170.497 73.0215C170.942 72.5774 171.61 72.5774 172.055 73.0215C172.501 73.4656 172.501 74.1318 172.055 74.576C171.944 74.687 171.833 74.8536 171.666 74.9646C171.499 75.1867 171.22 75.2977 170.942 75.2977ZM140.377 74.687C139.987 74.687 139.653 74.5205 139.431 74.1874L139.097 73.7432C138.763 73.2436 138.93 72.5218 139.431 72.1887C139.932 71.8556 140.656 72.0222 140.99 72.5218L141.268 72.966C141.602 73.4656 141.491 74.1874 140.934 74.5205C140.823 74.6315 140.6 74.687 140.377 74.687ZM175.229 73.5212C175.118 73.5212 174.95 73.5212 174.839 73.4656C174.672 73.4101 174.561 73.4101 174.449 73.3546C173.837 73.2436 173.447 72.6329 173.614 72.0222C173.781 71.4115 174.338 71.0229 174.95 71.1894C175.173 71.245 175.396 71.3005 175.619 71.4115C176.175 71.6336 176.509 72.2443 176.287 72.8549C176.064 73.2436 175.674 73.5212 175.229 73.5212Z" fill="#CBD4E0"/>
<path d="M171.22 24C181.408 24 189.648 32.2165 189.648 42.3761C189.648 50.4816 177.957 66.526 173.169 72.7439C172.166 74.0763 170.162 74.0763 169.16 72.7439C164.372 66.526 152.681 50.4816 152.681 42.3761C152.792 32.2165 161.032 24 171.22 24Z" fill="#CBD4E0"/>
<path d="M171.221 49.5933C175.249 49.5933 178.514 46.3372 178.514 42.3206C178.514 38.304 175.249 35.0479 171.221 35.0479C167.193 35.0479 163.928 38.304 163.928 42.3206C163.928 46.3372 167.193 49.5933 171.221 49.5933Z" fill="#9DA6B6"/>
</g>
<defs>
<filter id="filter0_d_7630_19817" x="113.762" y="45.3604" width="114.791" height="82.9967" filterUnits="userSpaceOnUse" color-interpolation-filters="sRGB">
<feFlood flood-opacity="0" result="BackgroundImageFix"/>
<feColorMatrix in="SourceAlpha" type="matrix" values="0 0 0 0 0 0 0 0 0 0 0 0 0 0 0 0 0 0 127 0" result="hardAlpha"/>
<feOffset dy="8.11905"/>
<feGaussianBlur stdDeviation="8.11905"/>
<feColorMatrix type="matrix" values="0 0 0 0 0.397708 0 0 0 0 0.47749 0 0 0 0 0.575 0 0 0 0.27 0"/>
<feBlend mode="normal" in2="BackgroundImageFix" result="effect1_dropShadow_7630_19817"/>
<feBlend mode="normal" in="SourceGraphic" in2="effect1_dropShadow_7630_19817" result="shape"/>
</filter>
<linearGradient id="paint0_linear_7630_19817" x1="171.13" y1="52.3109" x2="171.13" y2="104.545" gradientUnits="userSpaceOnUse">
<stop stop-color="#FDFEFF"/>
<stop offset="0.9964" stop-color="#ECF0F5"/>
</linearGradient>
<clipPath id="clip0_7630_19817">
<rect width="343" height="128" fill="white"/>
</clipPath>
</defs>
</svg>
