<svg width="343" height="129" viewBox="0 0 343 129" fill="none" xmlns="http://www.w3.org/2000/svg">
<g filter="url(#filter0_d_7925_20087)">
<path d="M211.851 58.1101V92.0327C211.851 99.0804 206.151 104.812 199.049 104.812H139.802C132.794 104.812 127.093 99.1743 127 92.1267C127 92.0327 127 92.0327 127 91.9388V58.1101C127 58.0161 127 58.0161 127 57.9222C127 57.7342 127 57.5463 127.093 57.3584C127.187 57.0765 127.28 56.8885 127.374 56.6066L143.26 26.0669C143.821 24.8453 145.036 24.1875 146.344 24.1875H192.414C193.722 24.1875 194.844 24.8453 195.498 26.0669L211.384 56.6066C211.477 56.7946 211.571 57.0765 211.664 57.3584C211.851 57.5463 211.851 57.8282 211.851 58.1101Z" fill="#D5DDEA"/>
<path d="M211.851 58.1101V95.5096C211.851 100.678 207.739 104.812 202.506 104.812H136.345C131.205 104.812 127 100.678 127 95.5096V57.9222C127 57.7343 127 57.5463 127.093 57.3584H148.4C151.577 57.3584 154.193 59.8955 154.193 63.1844C154.193 64.7819 154.848 66.2854 155.876 67.3191C156.997 68.4467 158.305 69.0105 159.987 69.0105H178.957C182.135 69.0105 184.751 66.4733 184.751 63.1844C184.751 61.587 185.405 60.0835 186.433 59.0498C187.555 57.9222 188.863 57.3584 190.451 57.3584H211.664C211.851 57.5463 211.851 57.8282 211.851 58.1101Z" fill="url(#paint0_linear_7925_20087)"/>
<path d="M158.764 82.504C159.948 82.504 160.908 81.5387 160.908 80.3481C160.908 79.1574 159.948 78.1921 158.764 78.1921C157.58 78.1921 156.62 79.1574 156.62 80.3481C156.62 81.5387 157.58 82.504 158.764 82.504Z" fill="#989FB0"/>
<path d="M180.088 82.504C181.272 82.504 182.232 81.5387 182.232 80.3481C182.232 79.1574 181.272 78.1921 180.088 78.1921C178.904 78.1921 177.944 79.1574 177.944 80.3481C177.944 81.5387 178.904 82.504 180.088 82.504Z" fill="#989FB0"/>
<path d="M172.902 96.6632H166.181C165.138 96.6632 164.269 95.7892 164.269 94.7403C164.269 93.6915 165.138 92.8175 166.181 92.8175H172.844C173.888 92.8175 174.757 93.6915 174.757 94.7403C174.815 95.7892 173.945 96.6632 172.902 96.6632Z" fill="#989FB0"/>
<path d="M222.283 69.1724C221.752 68.6419 221.752 67.7819 222.283 67.2514V67.2514C222.813 66.7209 223.673 66.7209 224.204 67.2514L237.331 80.3784C237.861 80.9088 237.861 81.7689 237.331 82.2994V82.2994C236.8 82.8299 235.94 82.8299 235.41 82.2994L222.283 69.1724Z" fill="#848B9B"/>
<circle cx="210.437" cy="55.4049" r="17.3529" transform="rotate(-45 210.437 55.4049)" stroke="#A1AABB" stroke-width="2.42278"/>
</g>
<defs>
<filter id="filter0_d_7925_20087" x="121" y="22.1875" width="122.729" height="92.625" filterUnits="userSpaceOnUse" color-interpolation-filters="sRGB">
<feFlood flood-opacity="0" result="BackgroundImageFix"/>
<feColorMatrix in="SourceAlpha" type="matrix" values="0 0 0 0 0 0 0 0 0 0 0 0 0 0 0 0 0 0 127 0" result="hardAlpha"/>
<feOffset dy="4"/>
<feGaussianBlur stdDeviation="3"/>
<feComposite in2="hardAlpha" operator="out"/>
<feColorMatrix type="matrix" values="0 0 0 0 0.396078 0 0 0 0 0.478431 0 0 0 0 0.576471 0 0 0 0.1 0"/>
<feBlend mode="normal" in2="BackgroundImageFix" result="effect1_dropShadow_7925_20087"/>
<feBlend mode="normal" in="SourceGraphic" in2="effect1_dropShadow_7925_20087" result="shape"/>
</filter>
<linearGradient id="paint0_linear_7925_20087" x1="169.398" y1="56.2607" x2="169.398" y2="105.324" gradientUnits="userSpaceOnUse">
<stop stop-color="#FDFEFF"/>
<stop offset="0.9964" stop-color="#ECF0F5"/>
</linearGradient>
</defs>
</svg>
