<svg width="343" height="128" viewBox="0 0 343 128" fill="none" xmlns="http://www.w3.org/2000/svg">
<g filter="url(#filter0_d_7630_19816)">
<path d="M133.233 65.8661L120.206 26.629C119.413 24.2417 120.681 21.7142 123.068 20.9216L145.656 13.4226C148.043 12.63 150.57 13.8976 151.363 16.2849L164.39 55.522C165.182 57.9093 163.915 60.4368 161.527 61.2294L138.94 68.7284C136.553 69.521 134.025 68.2534 133.233 65.8661Z" fill="url(#paint0_linear_7630_19816)"/>
<path d="M129.847 32.1275L127.775 25.8839C127.592 25.333 127.878 24.7622 128.429 24.5793C128.98 24.3964 129.55 24.6826 129.733 25.2335L131.806 31.4772C131.989 32.0281 131.703 32.5989 131.152 32.7818C130.601 32.9647 130.03 32.6784 129.847 32.1275Z" fill="#D5DDEA"/>
<path d="M136.812 40.9969L131.396 24.6814C131.213 24.1304 131.499 23.5597 132.05 23.3768C132.601 23.1939 133.172 23.4801 133.354 24.031L138.771 40.3466C138.954 40.8975 138.668 41.4683 138.117 41.6512C137.566 41.8341 136.995 41.5479 136.812 40.9969Z" fill="#D5DDEA"/>
<path d="M133.201 42.2271L131.128 35.9835C130.945 35.4326 131.231 34.8618 131.782 34.6789C132.333 34.496 132.904 34.7822 133.087 35.3332L135.16 41.5768C135.343 42.1277 135.056 42.6985 134.506 42.8814C133.955 43.0643 133.384 42.7781 133.201 42.2271Z" fill="#D5DDEA"/>
<path d="M136.554 52.3271L134.481 46.0834C134.298 45.5325 134.584 44.9617 135.135 44.7788C135.686 44.5959 136.257 44.8822 136.439 45.4331L138.512 51.6767C138.695 52.2276 138.409 52.7984 137.858 52.9813C137.307 53.1642 136.736 52.878 136.554 52.3271Z" fill="#D5DDEA"/>
<path d="M139.907 62.4272L137.834 56.1835C137.651 55.6326 137.937 55.0618 138.488 54.8789C139.039 54.696 139.61 54.9823 139.793 55.5332L141.866 61.7768C142.049 62.3277 141.763 62.8985 141.212 63.0814C140.661 63.2643 140.09 62.9781 139.907 62.4272Z" fill="#D5DDEA"/>
<path d="M140.62 29.162L138.343 22.3062C138.181 21.8165 138.467 21.2458 138.957 21.0832L143.364 19.62C143.854 19.4574 144.424 19.7436 144.587 20.2333L146.843 27.0279C147.005 27.5176 146.719 28.0883 146.23 28.2509L141.822 29.7141C141.353 29.9379 140.782 29.6517 140.62 29.162Z" fill="#D5DDEA"/>
<circle cx="167.12" cy="32.119" r="12.1045" transform="rotate(14.0283 167.12 32.119)" fill="url(#paint1_linear_7630_19816)"/>
<path d="M169.535 36.6077C168.814 36.9985 167.993 37.1355 167.197 36.9976L166.848 38.3973L165.631 38.0934L165.974 36.7216C165.397 36.5445 164.846 36.2894 164.336 35.9629C163.9 35.6972 163.513 35.3553 163.192 34.9521L164.252 33.5813C164.523 33.9144 164.838 34.2058 165.188 34.4472C165.561 34.7093 165.966 34.9181 166.394 35.0682L166.919 32.9686C166.447 32.7285 165.997 32.4457 165.575 32.1236C165.222 31.8578 164.941 31.5051 164.754 31.0969C164.57 30.6359 164.547 30.1203 164.692 29.6387C164.773 29.3017 164.921 28.9845 165.125 28.7069C165.33 28.4293 165.587 28.1971 165.881 28.025C166.606 27.6292 167.435 27.4945 168.235 27.6428L168.585 26.2431L169.801 26.547L169.458 27.9222C170.32 28.1836 171.103 28.6602 171.739 29.3102L170.743 30.7084C170.261 30.2174 169.684 29.8354 169.049 29.5861L168.513 31.7312C168.984 31.9663 169.434 32.2441 169.857 32.5613C170.203 32.8252 170.478 33.1751 170.658 33.5794C170.844 34.0351 170.867 34.5463 170.724 35.0236C170.643 35.3569 170.495 35.67 170.29 35.9428C170.085 36.2156 169.828 36.4421 169.535 36.6077ZM166.787 30.6083C166.946 30.8215 167.146 30.9981 167.375 31.1271L167.824 29.3285C167.559 29.309 167.294 29.3721 167.061 29.5095C166.879 29.6276 166.749 29.8141 166.698 30.0285C166.669 30.1265 166.662 30.2296 166.677 30.3301C166.692 30.4306 166.73 30.5257 166.787 30.6083ZM168.355 35.1677C168.443 35.1151 168.519 35.0448 168.58 34.9609C168.642 34.8771 168.686 34.7816 168.71 34.6802C168.736 34.5823 168.741 34.48 168.724 34.3806C168.707 34.2813 168.669 34.1874 168.613 34.1057C168.457 33.9004 168.265 33.7267 168.048 33.5928L167.611 35.3424C167.869 35.3575 168.127 35.2969 168.355 35.1677Z" fill="#E1E5EF"/>
<circle cx="182.306" cy="35.9303" r="8.513" transform="rotate(-25.7203 182.306 35.9303)" fill="url(#paint2_linear_7630_19816)"/>
<path d="M185.921 37.618C185.707 38.1534 185.324 38.597 184.832 38.8802L185.273 39.7943L184.478 40.1771L184.046 39.2812C183.655 39.4449 183.242 39.5546 182.82 39.6075C182.464 39.6599 182.101 39.649 181.746 39.5754L181.703 38.3573C181.999 38.4157 182.301 38.4316 182.599 38.4045C182.918 38.3788 183.231 38.3094 183.53 38.1981L182.87 36.8269C182.507 36.9092 182.136 36.9584 181.763 36.9741C181.453 36.989 181.142 36.9251 180.858 36.788C180.551 36.6218 180.307 36.353 180.168 36.0278C180.061 35.8089 179.998 35.571 179.984 35.3289C179.969 35.0867 180.004 34.8455 180.086 34.6203C180.3 34.0802 180.687 33.6346 181.186 33.3551L180.746 32.441L181.541 32.0582L181.973 32.9564C182.557 32.71 183.195 32.6154 183.831 32.6809L183.921 33.8847C183.44 33.8362 182.956 33.889 182.501 34.0398L183.175 35.4407C183.536 35.3559 183.904 35.3039 184.275 35.2854C184.581 35.2723 184.887 35.3377 185.166 35.4756C185.472 35.6384 185.714 35.9043 185.852 36.2267C185.958 36.4434 186.018 36.6792 186.03 36.9189C186.042 37.1585 186.005 37.3967 185.921 37.618ZM181.737 35.61C181.919 35.6537 182.106 35.6591 182.288 35.6259L181.723 34.4512C181.571 34.5598 181.455 34.7135 181.391 34.8923C181.346 35.0379 181.359 35.1975 181.428 35.3363C181.457 35.4023 181.499 35.4613 181.553 35.5088C181.606 35.5562 181.669 35.5908 181.737 35.61ZM184.635 37.3702C184.659 37.3023 184.669 37.2297 184.664 37.1569C184.66 37.0841 184.64 37.0126 184.608 36.9469C184.578 36.8822 184.535 36.8247 184.481 36.7785C184.427 36.7324 184.364 36.6987 184.297 36.6799C184.12 36.6391 183.939 36.6312 183.761 36.6565L184.312 37.7992C184.458 37.6914 184.57 37.5427 184.635 37.3702Z" fill="#E1E5EF"/>
<path d="M205.433 104H134.249C129.303 104 125.372 100.069 125.372 95.1227V48.327C125.372 43.3812 129.303 39.4498 134.249 39.4498H205.433C210.379 39.4498 214.31 43.3812 214.31 48.327V95.1227C214.31 100.069 210.379 104 205.433 104Z" fill="url(#paint3_linear_7630_19816)"/>
<path d="M196.37 61.2854H213.416C213.672 61.2854 213.926 61.3358 214.163 61.4336C214.4 61.5314 214.616 61.6748 214.797 61.8556C214.978 62.0364 215.122 62.251 215.22 62.4872C215.319 62.7234 215.369 62.9765 215.369 63.2322V77.0373C215.369 77.293 215.319 77.5461 215.22 77.7823C215.122 78.0185 214.978 78.2331 214.797 78.4139C214.616 78.5947 214.4 78.7381 214.163 78.8359C213.926 78.9338 213.672 78.9841 213.416 78.9841H196.37C194.016 78.9841 191.757 78.0518 190.092 76.3922C188.428 74.7326 187.492 72.4818 187.492 70.1348C187.492 67.7878 188.428 65.5369 190.092 63.8773C191.757 62.2177 194.016 61.2854 196.37 61.2854Z" fill="#22315B"/>
<path d="M210.309 65.8364V62.7568C210.309 62.507 210.105 62.3045 209.855 62.3045H209.697C209.446 62.3045 209.243 62.507 209.243 62.7568V65.8364C209.243 66.0862 209.446 66.2887 209.697 66.2887H209.855C210.105 66.2887 210.309 66.0862 210.309 65.8364Z" fill="#2970D6"/>
<path d="M210.309 72.0311V68.9516C210.309 68.7018 210.105 68.4993 209.855 68.4993H209.697C209.446 68.4993 209.243 68.7018 209.243 68.9516V72.0311C209.243 72.281 209.446 72.4835 209.697 72.4835H209.855C210.105 72.4835 210.309 72.281 210.309 72.0311Z" fill="#2970D6"/>
<path d="M210.309 78.226V75.1464C210.309 74.8966 210.105 74.6941 209.855 74.6941H209.697C209.446 74.6941 209.243 74.8966 209.243 75.1464V78.226C209.243 78.4758 209.446 78.6783 209.697 78.6783H209.855C210.105 78.6783 210.309 78.4758 210.309 78.226Z" fill="#2970D6"/>
<path d="M198.146 74.2059C200.402 74.2059 202.23 72.3832 202.23 70.1348C202.23 67.8864 200.402 66.0637 198.146 66.0637C195.89 66.0637 194.062 67.8864 194.062 70.1348C194.062 72.3832 195.89 74.2059 198.146 74.2059Z" fill="#FFDA3E"/>
<path d="M116.836 26.6742C116.839 27.0112 116.651 27.2827 116.412 27.285L111.615 27.3315C111.376 27.3338 111.183 27.0661 111.18 26.7291C111.176 26.3921 111.365 26.1207 111.603 26.1184L116.401 26.0718C116.639 26.0695 116.833 26.3372 116.836 26.6742Z" fill="#989FB0"/>
<path d="M120.249 18.6639C119.943 18.805 119.616 18.7387 119.512 18.5145L117.434 14.0096C117.331 13.7854 117.493 13.4932 117.799 13.352C118.105 13.2109 118.432 13.2773 118.536 13.5014L120.614 18.0064C120.717 18.2305 120.555 18.5227 120.249 18.6639Z" fill="#989FB0"/>
<path d="M117.761 22.3572C117.646 22.6702 117.278 22.8396 116.965 22.7242L110.601 20.3525C110.288 20.2371 110.119 19.8699 110.234 19.5568C110.35 19.2438 110.717 19.0744 111.03 19.1898L117.38 21.5309C117.707 21.6769 117.876 22.0441 117.761 22.3572Z" fill="#989FB0"/>
<path d="M196.37 61.2854H213.416C213.672 61.2854 213.926 61.3358 214.163 61.4336C214.4 61.5314 214.616 61.6748 214.797 61.8556C214.978 62.0364 215.122 62.251 215.22 62.4872C215.319 62.7234 215.369 62.9765 215.369 63.2322V77.0373C215.369 77.293 215.319 77.5461 215.22 77.7823C215.122 78.0185 214.978 78.2331 214.797 78.4139C214.616 78.5947 214.4 78.7381 214.163 78.8359C213.926 78.9338 213.672 78.9841 213.416 78.9841H196.37C194.016 78.9841 191.757 78.0518 190.092 76.3922C188.428 74.7326 187.492 72.4818 187.492 70.1348C187.492 67.7878 188.428 65.5369 190.092 63.8773C191.757 62.2177 194.016 61.2854 196.37 61.2854Z" fill="#CBD4E0"/>
<circle cx="195.972" cy="69.6775" r="4.35303" fill="white"/>
</g>
<defs>
<filter id="filter0_d_7630_19816" x="102" y="8" width="121.369" height="108" filterUnits="userSpaceOnUse" color-interpolation-filters="sRGB">
<feFlood flood-opacity="0" result="BackgroundImageFix"/>
<feColorMatrix in="SourceAlpha" type="matrix" values="0 0 0 0 0 0 0 0 0 0 0 0 0 0 0 0 0 0 127 0" result="hardAlpha"/>
<feOffset dy="4"/>
<feGaussianBlur stdDeviation="4"/>
<feComposite in2="hardAlpha" operator="out"/>
<feColorMatrix type="matrix" values="0 0 0 0 0.396078 0 0 0 0 0.478431 0 0 0 0 0.576471 0 0 0 0.1 0"/>
<feBlend mode="normal" in2="BackgroundImageFix" result="effect1_dropShadow_7630_19816"/>
<feBlend mode="normal" in="SourceGraphic" in2="effect1_dropShadow_7630_19816" result="shape"/>
</filter>
<linearGradient id="paint0_linear_7630_19816" x1="158.592" y1="35.6486" x2="126.378" y2="46.3435" gradientUnits="userSpaceOnUse">
<stop stop-color="#FDFEFF"/>
<stop offset="0.9964" stop-color="#ECF0F5"/>
</linearGradient>
<linearGradient id="paint1_linear_7630_19816" x1="155.039" y1="23.2919" x2="179.913" y2="41.3736" gradientUnits="userSpaceOnUse">
<stop stop-color="white"/>
<stop offset="1" stop-color="#F1F1F1"/>
</linearGradient>
<linearGradient id="paint2_linear_7630_19816" x1="173.81" y1="29.7223" x2="191.304" y2="42.439" gradientUnits="userSpaceOnUse">
<stop stop-color="white"/>
<stop offset="1" stop-color="#F1F1F1"/>
</linearGradient>
<linearGradient id="paint3_linear_7630_19816" x1="174.862" y1="37.9567" x2="174.862" y2="104.696" gradientUnits="userSpaceOnUse">
<stop stop-color="#FDFEFF"/>
<stop offset="0.9964" stop-color="#ECF0F5"/>
</linearGradient>
</defs>
</svg>
