<svg width="24" height="24" viewBox="0 0 24 24" fill="none" xmlns="http://www.w3.org/2000/svg">
<path d="M3 13C3 18.523 7.477 23 13 23C18.523 23 23 18.523 23 13C23 7.477 18.523 3 13 3C7.477 3 3 7.477 3 13Z" fill="#FFC709"/>
<path d="M13.9999 3.05005C13.9999 3.05005 16.9999 7.00005 16.9999 13C16.9999 19 13.9999 22.9501 13.9999 22.9501M11.9999 22.9501C11.9999 22.9501 8.99988 19 8.99988 13C8.99988 7.00005 11.9999 3.05005 11.9999 3.05005M3.62988 16.5H22.3699H3.62988ZM3.62988 9.50005H22.3699H3.62988Z" fill="#FFC709"/>
<path d="M2 12C2 17.523 6.477 22 12 22C17.523 22 22 17.523 22 12C22 6.477 17.523 2 12 2C6.477 2 2 6.477 2 12Z" stroke="black" stroke-linecap="round" stroke-linejoin="round"/>
<path d="M12.9999 2.05005C12.9999 2.05005 15.9999 6.00005 15.9999 12C15.9999 18 12.9999 21.9501 12.9999 21.9501M10.9999 21.9501C10.9999 21.9501 7.99988 18 7.99988 12C7.99988 6.00005 10.9999 2.05005 10.9999 2.05005M2.62988 15.5H21.3699M2.62988 8.50005H21.3699" stroke="black" stroke-linecap="round" stroke-linejoin="round"/>
</svg>
