<svg width="24" height="24" viewBox="0 0 24 24" fill="none" xmlns="http://www.w3.org/2000/svg">
<path d="M3 12.8391V11.1609C3 10.1693 3.8071 9.34927 4.8041 9.34927C6.52274 9.34927 7.22539 8.12879 6.36132 6.63179C5.86757 5.77364 6.16192 4.65804 7.02599 4.16222L8.66867 3.21826C9.41879 2.77011 10.3873 3.03709 10.8336 3.79036L10.938 3.97152C11.7926 5.46852 13.1979 5.46852 14.062 3.97152L14.1664 3.79036C14.6127 3.03709 15.5812 2.77011 16.3313 3.21826L17.974 4.16222C18.8381 4.65804 19.1324 5.77364 18.6387 6.63179C17.8502 8.0021 18.5376 9.34927 20.1959 9.34927C21.1834 9.34927 22 10.1597 22 11.1609V12.8391C22 13.8307 21.1929 14.6507 20.1959 14.6507C18.4773 14.6507 17.7746 15.8712 18.6387 17.3682C19.1324 18.2359 18.8381 19.342 17.974 19.8378L16.3313 20.7817C15.5812 21.2299 14.6127 20.9629 14.1664 20.2096L14.062 20.0285C13.2074 18.5315 11.8021 18.5315 10.938 20.0285L10.8336 20.2096C10.3873 20.9629 9.41879 21.2299 8.66867 20.7817L7.02599 19.8378C6.16192 19.342 5.86757 18.2264 6.36132 17.3682C7.22539 15.8712 6.52274 14.6507 4.8041 14.6507C3.8071 14.6507 3 13.8307 3 12.8391Z" fill="#FFC709"/>
<path d="M6.20037 4.46569L6.20018 4.4658C5.50534 4.86451 5.26659 5.76535 5.66469 6.45724L5.36132 6.63179L5.66445 6.45682C6.13363 7.26969 6.22089 8.08816 5.85479 8.72611C5.48842 9.36454 4.73863 9.69927 3.8041 9.69927C3.00297 9.69927 2.35 10.36 2.35 11.1609V12.8391C2.35 13.64 3.00297 14.3007 3.8041 14.3007C4.73863 14.3007 5.48842 14.6355 5.85479 15.2739C6.22083 15.9117 6.13366 16.7301 5.66467 17.5428M6.20037 4.46569L16.974 4.16222C17.8381 4.65804 18.1324 5.77364 17.6387 6.63179C16.8502 8.0021 17.5376 9.34927 19.1959 9.34927C20.1834 9.34927 21 10.1597 21 11.1609V12.8391C21 13.8307 20.1929 14.6507 19.1959 14.6507C17.4773 14.6507 16.7746 15.8712 17.6387 17.3682L17.3345 17.5413C17.3346 17.5415 17.3347 17.5417 17.3348 17.5419C17.7341 18.2443 17.4941 19.1358 16.7998 19.5342L16.7996 19.5343L15.1569 20.4783L15.1569 20.4782L15.1518 20.4813C14.5759 20.8253 13.8209 20.6256 13.4685 20.0329C13.4682 20.0324 13.4679 20.0318 13.4675 20.0312L13.3659 19.855C13.3658 19.8547 13.3657 19.8545 13.3655 19.8543C12.9013 19.0414 12.239 18.5557 11.5036 18.5557C10.7685 18.5557 10.1039 19.041 9.6349 19.8535L9.63481 19.8537L9.53246 20.0312L9.83358 20.2096L9.53037 20.0348L9.53144 20.033C9.17912 20.6256 8.42407 20.8253 7.84817 20.4813L7.8482 20.4812L7.84305 20.4783L6.20037 19.5343L6.20018 19.5342C5.50535 19.1355 5.2666 18.2347 5.66467 17.5428M6.20037 4.46569L7.84305 3.52172L7.84308 3.52176L7.84817 3.51872C8.42408 3.17466 9.17914 3.37444 9.53146 3.96706L6.20037 4.46569ZM5.66467 17.5428C5.6646 17.5429 5.66452 17.543 5.66445 17.5432L5.36132 17.3682L5.66469 17.5428C5.66468 17.5428 5.66468 17.5428 5.66467 17.5428Z" stroke="#1B1D29" stroke-width="0.7" stroke-miterlimit="1" stroke-linecap="round"/>
<path d="M12 15C13.6569 15 15 13.6569 15 12C15 10.3431 13.6569 9 12 9C10.3431 9 9 10.3431 9 12C9 13.6569 10.3431 15 12 15Z" stroke="#1B1D29" stroke-width="0.7" stroke-miterlimit="10" stroke-linecap="round" stroke-linejoin="bevel"/>
</svg>
