<svg width="24" height="24" viewBox="0 0 24 24" fill="none" xmlns="http://www.w3.org/2000/svg">
<path fill-rule="evenodd" clip-rule="evenodd" d="M22.0002 6.25781C22.0002 5.70553 21.5525 5.25781 21.0002 5.25781H5.49609C4.94381 5.25781 4.49609 5.70553 4.49609 6.25781V17.7225C4.49609 18.2748 4.94381 18.7225 5.49609 18.7225H10.7277C11.0849 18.7225 11.4151 18.9131 11.5937 19.2225L12.3824 20.5886C12.7673 21.2553 13.7296 21.2553 14.1145 20.5886L14.9032 19.2225C15.0819 18.9131 15.412 18.7225 15.7693 18.7225H21.0002C21.5525 18.7225 22.0002 18.2748 22.0002 17.7225V6.25781Z" fill="#FFC709"/>
<path d="M14.92 8.85239C14.92 8.95586 14.88 9.0551 14.8087 9.12827C14.7374 9.20144 14.6408 9.24254 14.54 9.24254H8.46C8.35922 9.24254 8.26256 9.20144 8.1913 9.12827C8.12004 9.0551 8.08 8.95586 8.08 8.85239C8.08 8.74891 8.12004 8.64967 8.1913 8.5765C8.26256 8.50333 8.35922 8.46223 8.46 8.46223H14.54C14.6408 8.46223 14.7374 8.50333 14.8087 8.5765C14.88 8.64967 14.92 8.74891 14.92 8.85239ZM14.54 11.5835H8.46C8.35922 11.5835 8.26256 11.6246 8.1913 11.6978C8.12004 11.7709 8.08 11.8702 8.08 11.9737C8.08 12.0771 8.12004 12.1764 8.1913 12.2495C8.26256 12.3227 8.35922 12.3638 8.46 12.3638H14.54C14.6408 12.3638 14.7374 12.3227 14.8087 12.2495C14.88 12.1764 14.92 12.0771 14.92 11.9737C14.92 11.8702 14.88 11.7709 14.8087 11.6978C14.7374 11.6246 14.6408 11.5835 14.54 11.5835ZM21 4.17048V16.6556C21 16.966 20.8799 17.2637 20.6661 17.4832C20.4523 17.7027 20.1623 17.826 19.86 17.826H14.2075C14.1426 17.8252 14.0785 17.8418 14.0219 17.8743C13.9652 17.9069 13.9178 17.9541 13.8845 18.0114L12.4785 20.4206C12.3792 20.5968 12.2365 20.7431 12.0648 20.8448C11.893 20.9465 11.6983 21 11.5 21C11.3017 21 11.107 20.9465 10.9352 20.8448C10.7635 20.7431 10.6208 20.5968 10.5215 20.4206L9.1155 18.0114C9.0822 17.9541 9.03483 17.9069 8.97815 17.8743C8.92146 17.8418 8.85744 17.8252 8.7925 17.826H3.14C2.83765 17.826 2.54769 17.7027 2.3339 17.4832C2.12011 17.2637 2 16.966 2 16.6556V4.17048C2 3.86005 2.12011 3.56233 2.3339 3.34282C2.54769 3.12332 2.83765 3 3.14 3H19.86C20.1623 3 20.4523 3.12332 20.6661 3.34282C20.8799 3.56233 21 3.86005 21 4.17048ZM20.24 4.17048C20.24 4.067 20.2 3.96776 20.1287 3.89459C20.0574 3.82142 19.9608 3.78032 19.86 3.78032H3.14C3.03922 3.78032 2.94256 3.82142 2.8713 3.89459C2.80004 3.96776 2.76 4.067 2.76 4.17048V16.6556C2.76 16.759 2.80004 16.8583 2.8713 16.9315C2.94256 17.0046 3.03922 17.0457 3.14 17.0457H8.7925C8.98911 17.0462 9.1823 17.0985 9.35361 17.1976C9.52493 17.2966 9.66863 17.4391 9.771 17.6115L11.177 20.0207C11.2092 20.0796 11.2561 20.1286 11.3129 20.1627C11.3696 20.1968 11.4342 20.2147 11.5 20.2147C11.5658 20.2147 11.6304 20.1968 11.6871 20.1627C11.7439 20.1286 11.7908 20.0796 11.823 20.0207L13.229 17.6115C13.3314 17.4391 13.4751 17.2966 13.6464 17.1976C13.8177 17.0985 14.0109 17.0462 14.2075 17.0457H19.86C19.9608 17.0457 20.0574 17.0046 20.1287 16.9315C20.2 16.8583 20.24 16.759 20.24 16.6556V4.17048Z" fill="black"/>
</svg>
