<svg width="24" height="24" viewBox="0 0 24 24" fill="none" xmlns="http://www.w3.org/2000/svg">
<rect x="5" y="4" width="12" height="18" rx="0.5" fill="#FFC709"/>
<mask id="path-2-inside-1_2862_25122" fill="white">
<rect x="3" y="3" width="12" height="18" rx="0.5"/>
</mask>
<rect x="3" y="3" width="12" height="18" rx="0.5" stroke="#1B1D29" stroke-width="2" mask="url(#path-2-inside-1_2862_25122)"/>
<path fill-rule="evenodd" clip-rule="evenodd" d="M6.5 11.9496C6.5 11.8944 6.54477 11.8496 6.6 11.8496H20.28C20.3352 11.8496 20.38 11.8944 20.38 11.9496V12.7496C20.38 12.8048 20.3352 12.8496 20.28 12.8496H6.6C6.54477 12.8496 6.5 12.8048 6.5 12.7496V11.9496Z" fill="#1B1D29"/>
<path fill-rule="evenodd" clip-rule="evenodd" d="M17.6797 14.2565C17.6609 14.2753 17.6504 14.3007 17.6504 14.3272V15.4586C17.6504 15.5477 17.7581 15.5923 17.8211 15.5293L20.9297 12.4207C20.9687 12.3817 20.9687 12.3183 20.9297 12.2793L17.8211 9.17071C17.7581 9.10771 17.6504 9.15233 17.6504 9.24142V10.3728C17.6504 10.3993 17.6609 10.4247 17.6797 10.4435L19.5155 12.2793C19.5545 12.3183 19.5545 12.3817 19.5155 12.4207L17.6797 14.2565Z" fill="#1B1D29"/>
</svg>
