<svg width="20" height="20" viewBox="0 0 20 20" fill="none" xmlns="http://www.w3.org/2000/svg">
<path fill-rule="evenodd" clip-rule="evenodd" d="M9.99996 17.0833C13.912 17.0833 17.0833 13.912 17.0833 10C17.0833 6.08799 13.912 2.91667 9.99996 2.91667C6.08794 2.91667 2.91663 6.08799 2.91663 10C2.91663 13.912 6.08794 17.0833 9.99996 17.0833ZM18.3333 10C18.3333 14.6024 14.6023 18.3333 9.99996 18.3333C5.39759 18.3333 1.66663 14.6024 1.66663 10C1.66663 5.39763 5.39759 1.66667 9.99996 1.66667C14.6023 1.66667 18.3333 5.39763 18.3333 10Z" fill="currentColor"/>
<path fill-rule="evenodd" clip-rule="evenodd" d="M12.0581 10.0253C12.3021 10.2693 12.6979 10.2693 12.9419 10.0253C13.186 9.78119 13.186 9.38546 12.9419 9.14139L10.4419 6.64139C10.1979 6.39731 9.80214 6.39731 9.55806 6.64139L7.05806 9.14139C6.81398 9.38546 6.81398 9.78119 7.05806 10.0253C7.30214 10.2693 7.69786 10.2693 7.94194 10.0253L9.375 8.59221L9.375 12.9167C9.375 13.2618 9.65482 13.5417 10 13.5417C10.3452 13.5417 10.625 13.2618 10.625 12.9167L10.625 8.59221L12.0581 10.0253Z" fill="currentColor"/>
</svg>
