<svg width="20" height="20" viewBox="0 0 20 20" fill="none" xmlns="http://www.w3.org/2000/svg">
<path fill-rule="evenodd" clip-rule="evenodd" d="M9.99996 17.0833C13.912 17.0833 17.0833 13.912 17.0833 10C17.0833 6.08798 13.912 2.91666 9.99996 2.91666C6.08794 2.91666 2.91663 6.08798 2.91663 10C2.91663 13.912 6.08794 17.0833 9.99996 17.0833ZM18.3333 10C18.3333 14.6024 14.6023 18.3333 9.99996 18.3333C5.39759 18.3333 1.66663 14.6024 1.66663 10C1.66663 5.39762 5.39759 1.66666 9.99996 1.66666C14.6023 1.66666 18.3333 5.39762 18.3333 10ZM9.99996 6.45833C10.3451 6.45833 10.625 6.73815 10.625 7.08333V11.4078L12.058 9.97472C12.3021 9.73064 12.6978 9.73064 12.9419 9.97472C13.186 10.2188 13.186 10.6145 12.9419 10.8586L10.4419 13.3586C10.1978 13.6027 9.8021 13.6027 9.55802 13.3586L7.05802 10.8586C6.81394 10.6145 6.81394 10.2188 7.05802 9.97472C7.3021 9.73064 7.69782 9.73064 7.9419 9.97472L9.37496 11.4078V7.08333C9.37496 6.73815 9.65478 6.45833 9.99996 6.45833Z" fill="currentColor"/>
</svg>
