<svg width="24" height="24" viewBox="0 0 24 24" fill="none" xmlns="http://www.w3.org/2000/svg">
<path fill-rule="evenodd" clip-rule="evenodd" d="M13 4.5H11C6.85786 4.5 3.5 7.85786 3.5 12V17C3.5 18.3807 4.61929 19.5 6 19.5H13C17.1421 19.5 20.5 16.1421 20.5 12C20.5 7.85786 17.1421 4.5 13 4.5ZM11 3H13C17.9706 3 22 7.02944 22 12C22 16.9706 17.9706 21 13 21H6C3.79086 21 2 19.2091 2 17V12C2 7.02944 6.02944 3 11 3Z" fill="color1"/>
<path d="M5.61253 14.3134C5.31769 14.3134 5.11487 14.0172 5.22148 13.7423L6.52505 10.3811C6.61415 10.1514 6.83524 10 7.08165 10C7.32833 10 7.5496 10.1517 7.63851 10.3818L8.9283 13.7196C9.0388 14.0056 8.82778 14.3134 8.52121 14.3134C8.33867 14.3134 8.17541 14.1998 8.11198 14.0286L7.35666 11.9903C7.33224 11.9246 7.30171 11.8404 7.26508 11.7377C7.23252 11.635 7.19792 11.5261 7.16129 11.4111C7.12466 11.2961 7.09006 11.1872 7.0575 11.0845C7.03578 11.0133 7.01769 10.9503 7.00321 10.8955C6.99284 10.8562 7.02191 10.8181 7.06247 10.8166C7.10566 10.815 7.13819 10.8554 7.12667 10.8971C7.10769 10.9657 7.08667 11.0364 7.0636 11.1092C7.03511 11.2077 7.00458 11.3104 6.97202 11.4173C6.93946 11.52 6.90486 11.6206 6.86823 11.7192C6.8316 11.8178 6.797 11.9143 6.76444 12.0088L6.00544 14.0407C5.94419 14.2047 5.78756 14.3134 5.61253 14.3134ZM6.32665 13.4076C6.06273 13.4076 5.88238 13.1409 5.98066 12.8959C6.03737 12.7546 6.17435 12.662 6.32665 12.662H7.78415C7.93549 12.662 8.07181 12.7535 8.12915 12.8935C8.22957 13.1388 8.04918 13.4076 7.78415 13.4076H6.32665Z" fill="color1"/>
<path d="M10.6873 14.375C10.4512 14.375 10.2477 14.3237 10.0767 14.221C9.90985 14.1141 9.7796 13.9642 9.68598 13.7711C9.59644 13.5739 9.55167 13.3377 9.55167 13.0625V11.4872C9.55167 11.2478 9.74574 11.0537 9.98515 11.0537C10.2245 11.0537 10.4186 11.2478 10.4186 11.4872V12.9208C10.4186 13.0687 10.443 13.1981 10.4919 13.309C10.5407 13.4158 10.6099 13.4979 10.6995 13.5555C10.789 13.613 10.8989 13.6417 11.0292 13.6417C11.1228 13.6417 11.2103 13.6273 11.2917 13.5986C11.3731 13.5657 11.4423 13.5205 11.4993 13.463C11.5563 13.4055 11.601 13.3377 11.6336 13.2597C11.6661 13.1816 11.6824 13.0974 11.6824 13.007V11.4872C11.6824 11.2478 11.8765 11.0537 12.1159 11.0537C12.3553 11.0537 12.5494 11.2478 12.5494 11.4872V13.8919C12.5494 14.1247 12.3568 14.3134 12.1241 14.3134C11.9029 14.3134 11.7173 14.1394 11.7072 13.9185L11.6964 13.6813C11.6953 13.6574 11.7088 13.6351 11.7306 13.625C11.7774 13.6032 11.8258 13.647 11.8039 13.6938C11.7557 13.7968 11.6908 13.8924 11.6092 13.9806C11.4952 14.1039 11.3588 14.2004 11.2001 14.2702C11.0414 14.3401 10.8704 14.375 10.6873 14.375Z" fill="color1"/>
<path d="M14.1666 14.3134C13.9272 14.3134 13.7331 14.1193 13.7331 13.8799V10.6615C13.7331 10.4221 13.9272 10.228 14.1666 10.228C14.406 10.228 14.6001 10.4221 14.6001 10.6615V13.8799C14.6001 14.1193 14.406 14.3134 14.1666 14.3134ZM13.52 11.8363C13.3039 11.8363 13.1287 11.6611 13.1287 11.445C13.1287 11.2289 13.3039 11.0537 13.52 11.0537H14.8681C15.0843 11.0537 15.2594 11.2289 15.2594 11.445C15.2594 11.6611 15.0843 11.8363 14.8681 11.8363H13.52Z" fill="color1"/>
<path d="M17.2966 14.375C16.9669 14.375 16.6718 14.3031 16.4113 14.1593C16.1549 14.0114 15.9514 13.8102 15.8008 13.5555C15.6543 13.3008 15.581 13.0091 15.581 12.6805C15.581 12.3518 15.6543 12.0622 15.8008 11.8116C15.9514 11.5569 16.1549 11.3556 16.4113 11.2077C16.6718 11.0599 16.9669 10.9859 17.2966 10.9859C17.6222 10.9859 17.9132 11.0599 18.1697 11.2077C18.4302 11.3556 18.6337 11.5569 18.7802 11.8116C18.9267 12.0622 19 12.3518 19 12.6805C19 13.0091 18.9267 13.3008 18.7802 13.5555C18.6337 13.8102 18.4302 14.0114 18.1697 14.1593C17.9132 14.3031 17.6222 14.375 17.2966 14.375ZM17.2966 13.6109C17.4554 13.6109 17.5978 13.5719 17.724 13.4938C17.8502 13.4117 17.9478 13.3008 18.017 13.1611C18.0903 13.0173 18.1269 12.8571 18.1269 12.6805C18.1269 12.4997 18.0903 12.3395 18.017 12.1998C17.9478 12.056 17.8502 11.9451 17.724 11.8671C17.5978 11.7849 17.4554 11.7438 17.2966 11.7438C17.1338 11.7438 16.9893 11.7849 16.8631 11.8671C16.737 11.9492 16.6372 12.0602 16.564 12.1998C16.4907 12.3395 16.4561 12.4997 16.4602 12.6805C16.4561 12.8571 16.4907 13.0173 16.564 13.1611C16.6372 13.3008 16.737 13.4117 16.8631 13.4938C16.9893 13.5719 17.1338 13.6109 17.2966 13.6109Z" fill="color1"/>
</svg>
