<svg width="375" height="388" viewBox="0 0 375 388" fill="none" xmlns="http://www.w3.org/2000/svg">
<g filter="url(#filter0_dd_1033_3938)">
<line x1="44.5" y1="135.5" x2="330.5" y2="135.5" stroke="#E4E5F0" stroke-linecap="round" stroke-dasharray="4 8"/>
<g opacity="0.05">
<path d="M176.971 263.837C172.517 263.837 166.578 260.934 166.578 252.415C166.578 243.645 173.105 240.995 177.003 240.995C179.018 240.921 181.02 241.368 182.817 242.295L181.137 245.418C180.156 245.004 179.107 244.776 178.044 244.748C174.713 244.748 171.966 247.896 171.966 252.387C171.966 256.116 174.471 259.863 178.003 259.863C179.047 259.905 180.085 259.673 181.014 259.19L182.799 262.523C180.908 263.493 178.8 263.946 176.682 263.837" fill="#313442"/>
<path d="M227.67 263.363V247.989C227.708 247.599 227.663 247.205 227.536 246.835C227.41 246.464 227.206 246.126 226.937 245.843C226.669 245.56 226.344 245.34 225.983 245.196C225.623 245.053 225.236 244.991 224.849 245.014C224.374 244.986 223.899 245.067 223.46 245.251C223.02 245.435 222.627 245.717 222.31 246.076V263.363H216.892V247.904C216.909 247.517 216.845 247.131 216.706 246.77C216.566 246.41 216.354 246.082 216.083 245.809C215.764 245.526 215.393 245.311 214.992 245.174C214.59 245.038 214.166 244.983 213.744 245.014C212.969 245.006 212.199 245.145 211.474 245.421V263.363H206.098V242.078C208.181 241.535 210.308 241.182 212.454 241.023C214.192 240.894 215.939 241.108 217.596 241.654C218.464 242.001 219.245 242.536 219.886 243.222C220.611 242.56 221.447 242.035 222.355 241.672C223.617 241.201 224.959 240.982 226.304 241.028C228.183 241.01 229.994 241.743 231.342 243.067C231.937 243.733 232.396 244.512 232.693 245.358C232.989 246.203 233.119 247.1 233.073 247.997V263.37L227.67 263.363Z" fill="#313442"/>
<path d="M204.246 289.569C204.246 289.569 200.834 289.998 198.513 289.998C190.56 289.998 187.249 287.137 187.249 282.398C187.249 278.643 190.961 275.138 198.818 275.138V274.142C198.818 273.02 197.918 271.147 194.814 271.147C193.306 271.157 191.819 271.513 190.466 272.188C190.444 272.101 188.694 268.848 188.694 268.848C190.982 267.698 193.512 267.131 196.066 267.198C199.972 267.198 204.248 269.357 204.248 274.142L204.246 289.569ZM198.822 277.964C194.586 277.964 192.585 279.453 192.585 282.403C192.573 282.977 192.68 283.547 192.898 284.078C193.117 284.608 193.442 285.086 193.853 285.482C194.264 285.878 194.752 286.183 195.287 286.377C195.821 286.571 196.389 286.651 196.956 286.61C197.587 286.609 198.216 286.516 198.822 286.334V277.964Z" fill="#313442"/>
<path d="M184.354 286.908C182.621 288.806 179.525 290 174.897 290C171.352 290 167.437 289.571 167.437 289.571V265.653C167.437 265.653 170.985 265.243 173.54 265.243C179.636 265.243 181.081 266.322 182.182 267.007C183.009 267.437 183.709 268.082 184.21 268.875C184.711 269.668 184.995 270.581 185.035 271.521C185.035 275.342 181.505 276.34 180.501 276.763V276.831C181.468 277.046 182.381 277.46 183.184 278.047C183.987 278.635 184.662 279.382 185.167 280.244C185.578 281.338 185.718 282.516 185.575 283.677C185.433 284.838 185.012 285.947 184.349 286.905L184.354 286.908ZM179.635 271.613C179.635 269.596 178.184 268.585 175.465 268.585C174.584 268.58 173.704 268.675 172.844 268.87V275.591H173.587C178.601 275.591 179.64 273.587 179.64 271.613H179.635ZM180.33 282.796C180.33 280.91 179.572 278.358 173.587 278.358H172.844V286.359C174.688 286.825 176.633 286.66 178.375 285.89C178.955 285.613 179.446 285.176 179.791 284.628C180.137 284.08 180.322 283.445 180.325 282.796" fill="#313442"/>
<path d="M219.035 289.568V276.036C219.035 273.199 218.611 271.797 216.322 271.277C215.152 271.118 213.962 271.228 212.84 271.599V289.568H207.477V268.265C209.551 267.765 211.661 267.434 213.787 267.275C217.801 267.067 219.8 267.555 221.789 268.885C222.607 269.47 223.272 270.247 223.728 271.15C224.184 272.052 224.416 273.053 224.407 274.066V289.568H219.035Z" fill="#313442"/>
<path d="M203.379 252.422C203.379 245.265 199.648 241 193.19 241C186.731 241 182.865 245.265 182.865 252.422C182.865 259.58 186.737 263.846 193.19 263.846C199.643 263.846 203.379 259.585 203.379 252.422ZM197.953 252.422C197.953 258.234 195.408 259.89 193.19 259.89C190.971 259.89 188.29 258.234 188.29 252.422C188.29 246.611 190.979 244.957 193.19 244.957C195.401 244.957 197.953 246.617 197.953 252.422Z" fill="#313442"/>
<path d="M240.239 289.57L233.046 280.986H232.998L233.068 289.57H227.668V265.673H233.068L232.998 274.862H233.073L239.373 267.707H246.736L236.69 277.907L247.45 289.57H240.239Z" fill="#313442"/>
<path d="M233.116 236.561C231.57 238.323 235.209 240.37 237.563 241.238C241.418 242.6 245.428 243.459 249.498 243.797L249.485 231.397C241.734 232.198 235.627 234.128 233.116 236.561Z" fill="#313442"/>
<path d="M140.507 243.548C140.542 246.608 139.432 249.568 137.4 251.835C135.192 253.924 133.08 254.65 127.577 254.553H126.578V263.363H119V232.878C119 232.878 123.116 232.387 127.444 232.361C133.553 232.327 135.938 233.47 137.741 235.205C139.103 236.519 140.507 239.745 140.507 243.548ZM133.062 243.402C133.062 237.867 130.335 236.546 128.466 236.446C127.771 236.411 126.578 236.481 126.578 236.481V250.281H127.609C130.154 250.281 133.062 248.194 133.062 243.402Z" fill="#313442"/>
<path d="M158.325 263.36H151.93L141.189 232.802H150.309C150.309 232.802 155.31 250.937 155.369 251.351H155.417C155.475 250.936 160.688 232.802 160.688 232.802H169.015L158.325 263.36Z" fill="#313442"/>
<path d="M265.259 246.631C273.009 245.834 279.117 243.904 281.631 241.469C283.172 239.708 279.533 237.662 277.177 236.793C273.322 235.431 269.311 234.571 265.241 234.234L265.259 246.631Z" fill="#313442"/>
<path d="M257.382 247.028C246.734 247.039 237.612 244.989 233.794 242.092C233.761 242.07 233.743 242.092 233.736 242.1C233.736 242.116 233.741 242.131 233.751 242.145L257.409 266.037L281.669 241.427C278.396 244.659 268.768 247.018 257.384 247.03" fill="#313442"/>
<path d="M233.736 242.149C233.736 242.166 233.741 242.182 233.751 242.196V242.142L233.744 242.137L233.739 242.145L233.736 242.149ZM257.388 247.028C246.739 247.039 237.617 244.989 233.799 242.092C233.767 242.07 233.749 242.092 233.741 242.1C233.741 242.113 233.744 242.127 233.75 242.139C233.76 242.13 233.775 242.126 233.799 242.145C237.617 245.297 246.737 247.51 257.388 247.501C268.773 247.488 278.401 244.926 281.672 241.427C278.399 244.659 268.771 247.018 257.388 247.03" fill="#313442"/>
<path d="M265.246 234.66C269.289 234.98 273.28 235.786 277.134 237.062C279.116 237.748 282.001 239.208 281.998 240.642C282.084 239.107 279.17 237.53 277.181 236.793C273.326 235.431 269.316 234.571 265.246 234.234V234.66Z" fill="#313442"/>
<path d="M233.076 236.609C236.346 233.379 245.977 231.017 257.361 231.004C268.004 230.994 277.127 233.036 280.944 235.94C280.977 235.965 280.995 235.947 281 235.94C281.003 235.924 281 235.907 280.992 235.894L257.332 212L233.076 236.609Z" fill="#313442"/>
<path d="M280.996 235.894V235.899L281.003 235.885C281.006 235.869 281.003 235.853 280.995 235.838L280.996 235.894ZM257.365 230.537C245.977 230.548 236.346 233.113 233.081 236.611C236.35 233.381 245.981 231.018 257.365 231.005C268.008 230.996 277.132 233.038 280.948 235.941C280.981 235.967 280.999 235.949 281.004 235.941C281.006 235.934 281.007 235.927 281.005 235.92C281.004 235.913 281.001 235.906 280.997 235.901C280.989 235.908 280.972 235.913 280.948 235.894C277.138 232.75 268.05 230.54 257.438 230.539H257.365" fill="#313442"/>
<path d="M257.409 265.713L233.798 242.09C233.766 242.067 233.748 242.09 233.74 242.097C233.74 242.114 233.746 242.129 233.755 242.142L257.413 266.035L281.674 241.425L257.409 265.713Z" fill="#313442"/>
<path d="M237.563 241.241C241.418 242.602 245.428 243.462 249.498 243.799V243.37C245.456 243.049 241.466 242.242 237.613 240.965C235.63 240.28 232.746 238.819 232.749 237.384C232.663 238.92 235.576 240.495 237.566 241.236" fill="#313442"/>
</g>
<path fill-rule="evenodd" clip-rule="evenodd" d="M32 12C23.1634 12 16 19.1634 16 28V116C16 120.418 19.9499 123.834 23.4204 126.569C26.2094 128.766 28 132.174 28 136C28 139.826 26.2094 143.234 23.4204 145.431C19.9499 148.166 16 151.582 16 156V348C16 356.837 23.1635 364 32 364H343C351.837 364 359 356.837 359 348V156C359 151.582 355.05 148.166 351.58 145.431C348.791 143.234 347 139.826 347 136C347 132.174 348.791 128.766 351.58 126.569C355.05 123.834 359 120.418 359 116V28C359 19.1634 351.837 12 343 12H32Z" fill="white"/>
</g>
<defs>
<filter id="filter0_dd_1033_3938" x="0" y="0" width="375" height="388" filterUnits="userSpaceOnUse" color-interpolation-filters="sRGB">
<feFlood flood-opacity="0" result="BackgroundImageFix"/>
<feColorMatrix in="SourceAlpha" type="matrix" values="0 0 0 0 0 0 0 0 0 0 0 0 0 0 0 0 0 0 127 0" result="hardAlpha"/>
<feOffset dy="8"/>
<feGaussianBlur stdDeviation="8"/>
<feComposite in2="hardAlpha" operator="out"/>
<feColorMatrix type="matrix" values="0 0 0 0 0 0 0 0 0 0 0 0 0 0 0 0 0 0 0.05 0"/>
<feBlend mode="normal" in2="BackgroundImageFix" result="effect1_dropShadow_1033_3938"/>
<feColorMatrix in="SourceAlpha" type="matrix" values="0 0 0 0 0 0 0 0 0 0 0 0 0 0 0 0 0 0 127 0" result="hardAlpha"/>
<feOffset dy="4"/>
<feGaussianBlur stdDeviation="8"/>
<feComposite in2="hardAlpha" operator="out"/>
<feColorMatrix type="matrix" values="0 0 0 0 0 0 0 0 0 0 0 0 0 0 0 0 0 0 0.05 0"/>
<feBlend mode="normal" in2="effect1_dropShadow_1033_3938" result="effect2_dropShadow_1033_3938"/>
<feBlend mode="normal" in="SourceGraphic" in2="effect2_dropShadow_1033_3938" result="shape"/>
</filter>
</defs>
</svg>
