<svg width="122" height="151" viewBox="0 0 122 151" fill="none" xmlns="http://www.w3.org/2000/svg">
<path d="M-44.7383 83.6315C-49.9995 89.631 -37.6102 96.6025 -29.5938 99.5585C-16.4676 104.194 -2.81195 107.121 11.0443 108.269L11.0009 66.0493C-15.3919 68.7751 -36.1875 75.3483 -44.7383 83.6315Z" fill="url(#paint0_linear_4340_16572)"/>
<path d="M64.7151 117.919C91.1042 115.208 111.9 108.635 120.462 100.344C125.708 94.3482 113.319 87.3807 105.295 84.4212C92.1679 79.7852 78.5112 76.8569 64.6537 75.7068L64.7151 117.919Z" fill="url(#paint1_linear_4340_16572)"/>
<path d="M37.8921 119.273C1.63408 119.31 -29.4277 112.331 -42.4273 102.466C-42.5392 102.389 -42.6006 102.465 -42.6259 102.491C-42.6251 102.546 -42.6074 102.6 -42.5753 102.644L37.9823 184L120.591 100.2C109.444 111.205 76.6596 119.24 37.8992 119.281" fill="url(#paint2_linear_4340_16572)"/>
<path d="M-44.8724 83.7963C-33.7398 72.7983 -0.944763 64.7526 37.8192 64.7088C74.0591 64.6759 105.124 71.629 118.12 81.5162C118.232 81.6039 118.294 81.5418 118.312 81.5162C118.322 81.4621 118.312 81.4061 118.283 81.3592L37.7218 0L-44.8724 83.7963Z" fill="url(#paint3_linear_4340_16572)"/>
<defs>
<linearGradient id="paint0_linear_4340_16572" x1="-17.4778" y1="66.0493" x2="-17.4778" y2="108.269" gradientUnits="userSpaceOnUse">
<stop stop-color="#FFF1C9"/>
<stop offset="1" stop-color="#FFF7DF" stop-opacity="0.06"/>
</linearGradient>
<linearGradient id="paint1_linear_4340_16572" x1="93.1855" y1="75.7068" x2="93.1855" y2="117.919" gradientUnits="userSpaceOnUse">
<stop stop-color="#FFF1C9"/>
<stop offset="1" stop-color="#FFF7DF" stop-opacity="0.06"/>
</linearGradient>
<linearGradient id="paint2_linear_4340_16572" x1="38.9825" y1="100.2" x2="38.9825" y2="184" gradientUnits="userSpaceOnUse">
<stop stop-color="#FFF1C9"/>
<stop offset="1" stop-color="#FFF7DF" stop-opacity="0.06"/>
</linearGradient>
<linearGradient id="paint3_linear_4340_16572" x1="36.7216" y1="0" x2="36.7216" y2="83.7963" gradientUnits="userSpaceOnUse">
<stop stop-color="#FFF1C9"/>
<stop offset="1" stop-color="#FFF7DF" stop-opacity="0.06"/>
</linearGradient>
</defs>
</svg>
