<svg width="375" height="200" viewBox="0 0 375 200" fill="none" xmlns="http://www.w3.org/2000/svg">
<rect width="375" height="200" fill="url(#paint0_linear_1102_3909)"/>
<path d="M276.188 85.0458L257.483 70.2927L277.151 45.3558L277.151 45.3554L285.439 34.8486L304.143 49.6013L288.67 69.22L276.188 85.0458Z" fill="#DCEAFF"/>
<path d="M275.694 81.3697L261.173 69.9164L286.301 38.058L300.822 49.5119L275.694 81.3697ZM263.304 70.8791L274.257 79.5172C274.434 79.6566 274.637 79.7599 274.853 79.821C275.07 79.8821 275.297 79.9 275.52 79.8735C275.744 79.847 275.96 79.7767 276.156 79.6666C276.353 79.5566 276.526 79.4089 276.665 79.232L298.954 50.9754C299.24 50.6118 299.37 50.1494 299.315 49.6899C299.261 49.2303 299.026 48.8113 298.663 48.5249L287.754 39.922C287.576 39.7812 287.371 39.6768 287.153 39.615C286.934 39.5531 286.705 39.535 286.479 39.5616C286.253 39.5882 286.035 39.6591 285.837 39.7701C285.638 39.8811 285.464 40.0301 285.323 40.2086L263.022 68.4838C262.742 68.8388 262.614 69.2906 262.667 69.7397C262.72 70.1889 262.949 70.5987 263.304 70.8791Z" fill="#C0D8FB"/>
<path d="M277.09 56.6333C277.7 55.8606 278.524 55.286 279.461 54.9821C280.397 54.6783 281.402 54.6588 282.349 54.9262C283.296 55.1936 284.142 55.7358 284.781 56.4843C285.42 57.2329 285.823 58.154 285.938 59.1314C286.054 60.1087 285.877 61.0983 285.43 61.9751C284.983 62.8518 284.286 63.5763 283.427 64.0569C282.568 64.5375 281.586 64.7527 280.605 64.6752C279.624 64.5977 278.688 64.231 277.915 63.6215C276.879 62.8042 276.21 61.6088 276.055 60.2983C275.901 58.9877 276.273 57.6694 277.09 56.6333Z" fill="#C0D8FB"/>
<path d="M96.0305 63.5959L83.1351 79.1725L62.3695 61.9795L62.3692 61.9792L53.6197 54.7355L66.5153 39.1599L82.8522 52.6854L96.0305 63.5959Z" fill="#DCEAFF"/>
<path d="M92.9012 63.9406L82.8892 76.0333L56.3604 54.0689L66.3725 41.9762L92.9012 63.9406ZM83.7496 74.2444L91.3004 65.1254C91.4223 64.9783 91.514 64.8085 91.5703 64.6259C91.6266 64.4433 91.6464 64.2513 91.6285 64.0611C91.6106 63.8708 91.5554 63.6859 91.466 63.517C91.3766 63.3481 91.2549 63.1984 91.1077 63.0765L67.5767 43.5945C67.2741 43.344 66.8843 43.224 66.4932 43.2608C66.1021 43.2976 65.7416 43.4883 65.491 43.7908L57.9712 52.874C57.8481 53.0226 57.7555 53.1939 57.6987 53.3782C57.6419 53.5626 57.622 53.7563 57.64 53.9484C57.6581 54.1405 57.7138 54.3271 57.804 54.4976C57.8943 54.6681 58.0172 54.8192 58.1658 54.9422L81.7112 74.4361C82.007 74.6809 82.3879 74.7983 82.7701 74.7623C83.1524 74.7264 83.5047 74.54 83.7496 74.2444Z" fill="#C0D8FB"/>
<path d="M78.8199 59.546C79.1187 57.2327 77.4856 55.1151 75.1723 54.8162C72.8589 54.5174 70.7413 56.1505 70.4425 58.4639C70.1436 60.7772 71.7767 62.8948 74.0901 63.1937C76.4034 63.4925 78.521 61.8594 78.8199 59.546Z" fill="#C0D8FB"/>
<path d="M90.0206 93.8981L84.0291 111.554L60.491 103.566L60.4905 103.566L50.5729 100.2L56.5644 82.5444L75.0826 88.8289L90.0206 93.8981Z" fill="#CFE7FF"/>
<path d="M87.4382 95.223L82.7865 108.93L52.7157 98.7248L57.367 85.0179L87.4382 95.223ZM82.9394 107.107L86.4491 96.7706C86.5057 96.6038 86.5289 96.4274 86.5174 96.2516C86.5058 96.0758 86.4598 95.904 86.3818 95.746C86.3038 95.588 86.1955 95.4469 86.063 95.3307C85.9305 95.2146 85.7765 95.1257 85.6096 95.0691L58.9356 86.0147C58.7658 85.957 58.5863 85.9334 58.4073 85.9451C58.2283 85.9568 58.0533 86.0037 57.8925 86.0831C57.7316 86.1624 57.588 86.2727 57.4697 86.4076C57.3515 86.5425 57.261 86.6994 57.2035 86.8693L53.7097 97.1646C53.6524 97.333 53.629 97.5111 53.6406 97.6886C53.6522 97.8661 53.6987 98.0396 53.7773 98.1991C53.856 98.3586 53.9654 98.5011 54.0991 98.6184C54.2329 98.7356 54.3884 98.8254 54.5569 98.8825L81.246 107.94C81.5811 108.054 81.9477 108.03 82.2652 107.874C82.5827 107.718 82.8252 107.442 82.9394 107.107Z" fill="#C0D8FB"/>
<path d="M68.8253 100.662C68.0957 100.415 67.4558 99.957 66.9866 99.3461C66.5173 98.7352 66.2397 97.9989 66.189 97.2303C66.1382 96.4616 66.3165 95.6952 66.7013 95.0279C67.0862 94.3606 67.6603 93.8224 68.351 93.4814C69.0417 93.1404 69.818 93.0119 70.5818 93.1121C71.3456 93.2123 72.0625 93.5368 72.6418 94.0445C73.2212 94.5521 73.637 95.2202 73.8366 95.9642C74.0362 96.7082 74.0108 97.4947 73.7634 98.2242C73.5993 98.7085 73.3413 99.1558 73.0043 99.5404C72.6673 99.925 72.2578 100.24 71.7993 100.466C71.3407 100.692 70.8421 100.826 70.3318 100.86C69.8215 100.893 69.3096 100.826 68.8253 100.662Z" fill="#C0D8FB"/>
<path d="M224.507 78.34C224.505 78.3261 224.502 78.3124 224.499 78.2989C222.946 72.2662 220.591 67.1376 217.501 63.0587C214.866 59.5769 211.717 56.8748 208.14 55.022C201.861 51.7684 195.363 51.8067 191.987 53.2205C191.895 53.2588 191.85 53.4032 191.885 53.5419C191.92 53.6806 192.024 53.7634 192.113 53.7251C198.058 51.2376 217.488 52.4951 224.167 78.4404C224.203 78.5797 224.306 78.6613 224.396 78.6225C224.481 78.586 224.526 78.4655 224.507 78.34Z" fill="url(#paint1_linear_1102_3909)"/>
<path d="M214.781 81.4097C214.779 81.3998 214.777 81.3901 214.774 81.3806C213.445 77.1293 211.169 73.527 208.01 70.6748C205.317 68.2426 202.003 66.3659 198.162 65.0959C191.416 62.8658 184.217 62.9691 180.383 64.0114C180.359 64.0171 180.336 64.0277 180.316 64.0424C180.297 64.0571 180.28 64.0757 180.268 64.097C180.255 64.1184 180.247 64.142 180.244 64.1665C180.241 64.191 180.243 64.2159 180.249 64.2397C180.266 64.2879 180.3 64.3279 180.346 64.3515C180.391 64.3751 180.444 64.3804 180.493 64.3664C187.239 62.5399 208.681 63.2008 214.398 81.4862C214.414 81.5344 214.449 81.5744 214.494 81.5979C214.54 81.6214 214.592 81.6265 214.641 81.6123C214.686 81.6017 214.724 81.5751 214.75 81.5377C214.776 81.5003 214.787 81.4547 214.781 81.4097Z" fill="url(#paint2_linear_1102_3909)"/>
<path d="M120.901 77.7229C120.89 77.7247 120.88 77.727 120.87 77.7298C116.322 79.0711 112.497 81.2738 109.504 84.2762C106.952 86.8356 105.013 89.9556 103.743 93.5499C101.512 99.8617 101.808 106.534 103.026 110.062C103.045 110.11 103.082 110.148 103.128 110.17C103.175 110.192 103.227 110.196 103.276 110.18C103.3 110.174 103.323 110.164 103.343 110.149C103.362 110.134 103.379 110.115 103.391 110.094C103.403 110.073 103.411 110.049 103.414 110.024C103.417 110 103.414 109.975 103.407 109.952C101.263 103.743 101.429 83.8435 120.991 78.0785C121.015 78.0727 121.037 78.062 121.057 78.0472C121.076 78.0324 121.093 78.0137 121.105 77.9923C121.117 77.971 121.125 77.9473 121.127 77.9229C121.13 77.8984 121.128 77.8737 121.12 77.8502C121.104 77.8069 121.073 77.7706 121.033 77.7475C120.993 77.7243 120.946 77.7156 120.901 77.7229Z" fill="url(#paint3_linear_1102_3909)"/>
<path d="M228.094 151.161C237.968 149.828 280.632 105.255 226.952 72.7867C214.981 65.5462 211.874 67.2951 199.322 55.3102C189.783 46.2015 172.09 48.4755 159.881 47.532C145.174 46.3961 123.84 47.9436 117.977 63.0804C115.298 69.9973 114 75.9655 113.924 83.1632C113.726 101.555 99.892 103.152 96.4085 115.464C90.809 135.255 103.201 150.787 110.87 151.148C118.028 151.482 220.526 152.022 228.094 151.161Z" fill="url(#paint4_linear_1102_3909)"/>
<g filter="url(#filter0_d_1102_3909)">
<path d="M88 150.27C88 141.009 127.943 141.059 177.471 141.059C226.999 141.059 267.358 141.009 267.358 150.27C267.358 159.53 227.207 167.037 177.679 167.037C128.151 167.037 88 159.528 88 150.27Z" fill="#DFEBFC"/>
</g>
<path d="M136.36 149.26C135.981 144.814 151.158 143.305 177.471 141.059C203.784 138.813 227.236 144.182 224.241 147.623C220.195 152.266 203.528 156.34 177.158 157.821C150.052 159.344 136.74 153.706 136.36 149.26Z" fill="url(#paint5_radial_1102_3909)"/>
<path d="M140.31 76.1088C140.468 75.921 140.543 75.6796 140.622 75.4473C140.988 74.3804 141.518 73.3769 142.193 72.4729C142.341 72.2737 142.499 72.0733 142.585 71.845C142.794 71.2794 142.537 70.6526 142.231 70.1326C140.626 67.3928 137.682 65.7136 134.7 64.6245C132.68 63.8865 130.546 63.3585 128.397 63.4492C127.545 63.4858 126.663 63.6325 125.968 64.1262C125.274 64.6199 124.846 65.4059 124.637 66.2256C124.428 67.0452 124.422 67.902 124.441 68.7473C124.498 71.1601 124.763 73.6071 125.689 75.8354C125.94 76.4393 126.245 77.0341 126.705 77.501C127.164 77.9679 127.797 78.2944 128.451 78.2647C129.115 78.2345 129.707 77.8543 130.285 77.5318C131.9 76.6441 133.694 76.1318 135.534 76.0329C136.405 75.985 137.321 75.9958 138.173 76.1979C138.854 76.3571 139.751 76.7767 140.31 76.1088Z" fill="#FFEFBB"/>
<path d="M133.172 78.3206C130.906 79.6494 130.179 81.6089 128.804 84.339C127.363 83.0365 126.515 81.1118 125.811 79.3018C124.388 75.6413 122.977 71.7159 123.776 67.8705C124.108 66.2723 124.971 64.617 126.51 64.0753C127.648 63.6758 128.921 63.9766 130.009 64.496C132.24 65.5605 133.939 67.4641 135.575 69.3146C136.441 70.2947 137.308 71.2793 138.081 72.3347C138.643 73.1013 140.387 74.9603 140.314 75.9649C140.238 77.0158 137.933 76.4918 137.034 76.6327C135.626 76.8548 134.405 77.598 133.172 78.3206Z" fill="url(#paint6_linear_1102_3909)"/>
<path d="M171.74 157.182C164.663 156.84 162.26 154.64 161.992 152.876L160.68 138.976C160.68 138.116 162.69 138.063 163.551 138.063H181.017C181.878 138.063 183.349 138.732 183.349 139.593L182.58 152.876C182.458 155.19 177.3 157.452 171.74 157.182Z" fill="url(#paint7_linear_1102_3909)"/>
<path d="M210.232 151.251C216.867 150.224 218.913 147.91 218.989 146.22L220.545 121.881C220.459 121.07 217.059 119.256 216.248 119.342L199.581 134.159C198.77 134.245 197.45 135.022 197.536 135.833L199.59 148.276C199.932 150.444 205.018 152.062 210.232 151.251Z" fill="url(#paint8_linear_1102_3909)"/>
<path d="M149.029 149.57C142.613 149.259 140.433 147.266 140.191 145.666L139 133.063C139 132.283 140.827 132.238 141.604 132.238H157.442C158.223 132.238 159.554 132.844 159.554 133.624L158.853 145.668C158.747 147.764 154.07 149.815 149.029 149.57Z" fill="url(#paint9_linear_1102_3909)"/>
<path d="M188.849 148.322C182.862 148.01 180.827 146.017 180.601 144.417L179.49 131.815C179.49 131.034 181.192 130.989 181.92 130.989H196.699C197.427 130.989 198.672 131.595 198.672 132.375L198.018 144.419C197.916 146.514 193.553 148.569 188.849 148.322Z" fill="url(#paint10_linear_1102_3909)"/>
<path d="M230.802 102.761C230.802 127.212 218.897 146.413 176.301 147.28C141.274 147.994 122.915 127.46 122.915 103.01C122.915 78.5599 148.987 57.2796 178.471 57.3743C217.099 57.4982 230.802 78.3116 230.802 102.761Z" fill="url(#paint11_linear_1102_3909)"/>
<path d="M152.538 111.34C154.454 111.34 156.008 109.679 156.008 107.63C156.008 105.581 154.454 103.92 152.538 103.92C150.622 103.92 149.069 105.581 149.069 107.63C149.069 109.679 150.622 111.34 152.538 111.34Z" fill="#FFD895"/>
<path d="M131.646 101.654C130.925 101.619 128.957 101.568 127.022 101.583V126.966C128.664 126.937 130.296 126.816 131.36 126.868C137.81 127.182 142.404 121.208 142.733 114.453C143.063 107.699 138.097 101.969 131.646 101.654Z" fill="#FFD38B"/>
<path d="M168.491 82.6894C168.009 80.0666 167.109 77.5397 165.905 75.1601C165.163 73.6886 164.358 72.2108 163.269 70.9602C161.932 69.4236 160.13 68.2564 158.157 67.7946C157.545 67.5104 156.88 67.3588 156.206 67.35C155.622 67.346 155.029 67.4556 154.518 67.7375C153.977 68.0372 153.555 68.5115 153.168 68.9933C150.896 71.8358 149.466 75.2566 148.179 78.6522C148 79.1057 147.969 79.6042 148.09 80.0763C148.371 81.1038 149.06 80.8349 149.771 80.8755C150.596 80.9217 151.39 81.1843 152.139 81.5444C153.737 82.3156 155.266 83.3236 156.274 84.7791C158.983 88.6942 158.302 92.5601 158.295 92.4848C158.295 92.4848 158.329 93.0031 158.548 93.1361C159.727 93.8558 161.611 93.2228 162.839 92.6452C165.258 91.5076 167.675 89.8192 168.463 87.2655C168.917 85.7945 168.77 84.2003 168.491 82.6894Z" fill="#FFEDAF"/>
<path d="M195.957 65.1873C195.822 65.1881 195.687 65.1688 195.557 65.1302C179.17 60.1186 167.553 64.5537 167.437 64.5993C167.1 64.7317 166.725 64.7249 166.393 64.5804C166.061 64.4359 165.801 64.1655 165.668 63.8288C165.536 63.492 165.543 63.1165 165.687 62.7847C165.832 62.453 166.102 62.1923 166.439 62.0599C166.946 61.8607 179.067 57.235 196.355 62.5211C196.668 62.6165 196.936 62.8212 197.111 63.0977C197.285 63.3743 197.355 63.7044 197.306 64.0279C197.258 64.3514 197.095 64.6467 196.847 64.86C196.599 65.0733 196.283 65.1905 195.956 65.1901L195.957 65.1873Z" fill="#EFAB33"/>
<path d="M236.251 90.2691C235.389 90.5574 234.497 90.5322 233.757 90.1806C230.903 88.8233 229.573 86.0007 229.798 81.79C229.804 81.6793 229.809 81.5931 229.809 81.5349L229.806 81.4812C229.443 81.6365 229.064 81.8037 228.643 81.9892C228.353 82.1165 228.046 82.2518 227.716 82.3956C226.651 82.8591 225.452 83.4299 224.705 84.3323C224.134 85.0207 223.798 86.1183 224.258 86.8838C224.333 87.0093 224.383 87.1486 224.405 87.2935C224.427 87.4384 224.42 87.5862 224.384 87.7284C224.349 87.8706 224.286 88.0045 224.199 88.1223C224.111 88.2401 224.002 88.3397 223.876 88.4152C223.751 88.4907 223.612 88.5407 223.467 88.5625C223.322 88.5842 223.174 88.5771 223.032 88.5417C222.89 88.5063 222.756 88.4432 222.638 88.3561C222.52 88.269 222.42 88.1595 222.345 88.0339C221.452 86.5498 221.717 84.4413 222.986 82.9082C224.047 81.6273 225.524 80.9155 226.824 80.3493C227.152 80.2066 227.456 80.0725 227.743 79.9463C228.737 79.508 229.544 79.1529 230.44 78.8236C230.723 78.2937 231.06 77.7945 231.446 77.3338C232.821 75.6645 234.577 74.3501 236.566 73.5015C236.701 73.4441 236.846 73.4139 236.992 73.4125C237.139 73.4111 237.284 73.4387 237.42 73.4935C237.556 73.5483 237.68 73.6294 237.785 73.7321C237.889 73.8348 237.973 73.9571 238.03 74.092C238.087 74.2269 238.118 74.3718 238.119 74.5184C238.12 74.6651 238.093 74.8105 238.038 74.9465C237.983 75.0825 237.902 75.2063 237.799 75.311C237.697 75.4156 237.575 75.499 237.44 75.5564C236.148 76.1074 234.971 76.8951 233.97 77.8789C235.047 77.8024 236.05 78.065 236.915 78.6569C238.719 79.8927 239.577 82.31 239.762 84.0075C240.032 86.4699 238.915 88.8593 236.981 89.9466C236.749 90.077 236.504 90.1849 236.251 90.2691ZM232.118 80.6096C232.047 80.8634 232.02 81.1271 232.036 81.3899C232.044 81.5636 232.041 81.7377 232.027 81.911C231.916 83.9933 232.074 86.9072 234.716 88.1652C235.002 88.3016 235.463 88.2377 235.885 87.9991C237.032 87.3518 237.715 85.8089 237.543 84.2473C237.429 83.1793 236.827 81.2985 235.654 80.4949C235.044 80.0776 234.33 79.9863 233.47 80.2158C232.969 80.3493 232.524 80.4789 232.118 80.6096Z" fill="#FFD177"/>
<path d="M130.668 93.4325C131.041 91.4844 130.605 89.7639 129.694 89.5897C128.784 89.4156 127.744 90.8537 127.371 92.8019C126.999 94.7501 127.434 96.4705 128.345 96.6447C129.255 96.8188 130.295 95.3807 130.668 93.4325Z" fill="#FFB94A"/>
<path d="M128.592 96.6391C127.682 96.4678 127.246 94.7446 127.618 92.7965C127.955 91.0385 128.835 89.6994 129.673 89.5829C128.768 89.434 127.741 90.8632 127.371 92.7965C126.998 94.7446 127.434 96.465 128.341 96.6391C128.43 96.6539 128.521 96.6539 128.61 96.6391C128.606 96.6396 128.599 96.6408 128.592 96.6391Z" fill="#7A321B"/>
<path d="M144.539 96.7073C144.93 94.6622 144.473 92.8562 143.517 92.6734C142.562 92.4906 141.47 94.0003 141.079 96.0454C140.688 98.0904 141.145 99.8965 142.101 100.079C143.056 100.262 144.148 98.7524 144.539 96.7073Z" fill="#FFB94A"/>
<path d="M142.36 100.074C141.404 99.8909 140.947 98.0849 141.338 96.0397C141.691 94.1938 142.615 92.7862 143.494 92.6663C142.544 92.51 141.466 94.01 141.077 96.0397C140.686 98.0849 141.144 99.8909 142.099 100.074C142.194 100.089 142.29 100.089 142.385 100.074C142.374 100.074 142.367 100.075 142.36 100.074Z" fill="#7A321B"/>
<path d="M137.746 114.783C138.086 107.806 133.398 101.908 127.274 101.609C121.151 101.311 115.911 106.725 115.571 113.703C115.231 120.68 119.919 126.578 126.043 126.877C132.166 127.175 137.406 121.761 137.746 114.783Z" fill="#FFF1C4"/>
<path d="M121.394 117.021C122.284 117.021 123.006 115.427 123.006 113.46C123.006 111.493 122.284 109.899 121.394 109.899C120.503 109.899 119.782 111.493 119.782 113.46C119.782 115.427 120.503 117.021 121.394 117.021Z" fill="#FFB94A"/>
<path d="M120.153 113.562C120.153 111.595 120.875 110 121.765 110H121.771C121.656 109.935 121.526 109.9 121.394 109.897C120.503 109.897 119.781 111.492 119.781 113.459C119.781 115.425 120.5 117.012 121.388 117.019C120.68 116.644 120.153 115.241 120.153 113.562Z" fill="#A64424"/>
<path d="M128.09 118.827C128.98 118.827 129.702 117.233 129.702 115.266C129.702 113.299 128.98 111.705 128.09 111.705C127.199 111.705 126.478 113.299 126.478 115.266C126.478 117.233 127.199 118.827 128.09 118.827Z" fill="#FFB94A"/>
<path d="M126.85 115.368C126.85 113.401 127.571 111.807 128.462 111.807H128.468C128.352 111.742 128.222 111.706 128.09 111.704C127.2 111.704 126.478 113.299 126.478 115.265C126.478 117.232 127.196 118.819 128.084 118.826C127.376 118.451 126.85 117.047 126.85 115.368Z" fill="#A64424"/>
<path d="M156.044 85.081C157.492 87.3385 158.109 90.0401 158.316 92.7137C160.71 88.7929 161.467 84.1107 162.003 79.5478C162.301 77.0089 162.537 74.373 161.723 71.95C160.909 69.527 158.762 67.3671 156.206 67.35C155.622 67.346 155.029 67.4556 154.518 67.7375C153.977 68.0372 153.555 68.5115 153.168 68.9933C151.027 71.6709 149.635 74.8616 148.404 78.062C148.154 78.7104 147.907 79.4165 148.093 80.0866C148.375 81.1026 149.063 80.8349 149.771 80.8743C150.597 80.92 151.391 81.1831 152.139 81.5433C153.74 82.3167 155.089 83.5919 156.044 85.081Z" fill="url(#paint12_linear_1102_3909)"/>
<path d="M204.649 64.6907C205.488 64.9686 206.299 65.322 207.103 65.6924C207.908 66.0629 208.689 66.4761 209.458 66.9133C209.65 67.0235 209.844 67.1302 210.034 67.2438C210.224 67.3574 210.414 67.4721 210.602 67.5863L211.165 67.9385L211.722 68.3004C212.461 68.7895 213.18 69.3078 213.884 69.8455C214.589 70.3832 215.266 70.9551 215.929 71.543C216.255 71.8444 216.587 72.1372 216.9 72.45C217.058 72.6058 217.219 72.7571 217.374 72.9152L217.836 73.3935C217.992 73.5511 218.138 73.7166 218.289 73.8793C218.439 74.042 218.591 74.2024 218.733 74.3724C219.019 74.7104 219.312 75.042 219.585 75.3907C220.14 76.0791 220.655 76.7995 221.138 77.5369C220.556 76.872 219.99 76.2013 219.38 75.5671C218.786 74.9221 218.162 74.3045 217.532 73.6966C216.902 73.0887 216.247 72.5077 215.585 71.9352C215.249 71.6561 214.919 71.3644 214.576 71.0967C214.239 70.8176 213.891 70.5499 213.548 70.281C212.16 69.2159 210.724 68.2102 209.239 67.2792C208.869 67.044 208.493 66.8192 208.118 66.5943C207.93 66.4801 207.74 66.3705 207.551 66.2586L206.981 65.9321C206.215 65.4966 205.441 65.0805 204.649 64.6907Z" fill="white"/>
<path d="M108.782 67.348C108.795 63.5968 106.26 61.7931 105 61.7931C107.372 61.7856 108.795 58.9391 108.782 56.2375C108.795 58.5521 110.088 61.7856 112.564 61.7931C110.218 61.7856 108.924 65.2783 108.782 67.348Z" fill="white"/>
<path d="M95.5897 46.8462C95.5982 44.2776 93.863 43.0419 93 43.0419C94.6239 43.0373 95.5982 41.0886 95.5897 39.2375C95.5982 40.8226 96.4841 43.0373 98.1799 43.0419C96.5726 43.0356 95.6873 45.4272 95.5897 46.8462Z" fill="white"/>
<path d="M244 68.2375C243.984 63.173 247.334 60.7376 249 60.7376C245.864 60.7279 243.984 56.8862 244 53.2375C243.984 56.3623 242.273 60.7279 239 60.7376C242.103 60.7254 243.812 65.4413 244 68.2375Z" fill="white"/>
<path d="M131.414 152.445C131.414 154.342 124.787 157.982 115.106 157.748C102.012 157.426 98.5597 152.976 98.5597 151.08C98.5597 149.184 102.453 148.268 112.137 148.268C121.82 148.268 131.414 150.549 131.414 152.445Z" fill="#D9D9D9"/>
<path d="M102.59 147.789C102.625 147.617 102.69 147.452 102.781 147.301C104.342 144.874 110.649 144.337 116.816 144.37C122.908 144.403 128.922 145.353 130.762 147.698C131.308 148.393 131.018 149.737 131.014 150.487C130.997 153.823 124.611 156.494 116.751 156.452C109.16 156.412 102.974 153.856 102.574 150.677L102.59 147.789Z" fill="#F5BE51"/>
<path d="M131.027 148.489C131.045 145.152 124.688 142.413 116.829 142.37C108.97 142.328 102.584 144.998 102.566 148.335C102.547 151.671 108.904 154.41 116.764 154.453C124.623 154.495 131.009 151.825 131.027 148.489Z" fill="#FFDB6C"/>
<g opacity="0.54">
<path d="M120.18 142.544C121.199 142.652 122.212 142.815 123.214 143.033L103.903 150.903C103.449 150.489 103.101 150.051 102.875 149.595L120.18 142.544Z" fill="white"/>
</g>
<g opacity="0.54">
<path d="M116.825 142.357C117.326 142.359 117.821 142.373 118.309 142.397L102.604 148.797C102.554 148.518 102.55 148.234 102.592 147.954L116.325 142.36C116.492 142.357 116.658 142.355 116.825 142.357Z" fill="white"/>
</g>
<path d="M126.783 149.263C126.806 146.953 122.414 145.037 116.973 144.982C111.531 144.928 107.102 146.756 107.078 149.066C107.055 151.376 111.448 153.292 116.889 153.347C122.33 153.401 126.76 151.573 126.783 149.263Z" fill="#FFBF00"/>
<path d="M116.839 152.092C121.898 152.118 126.074 150.522 126.646 148.442C126.646 148.442 126.646 148.448 126.646 148.45C126.634 150.76 122.213 152.609 116.771 152.58C111.33 152.551 106.929 150.655 106.942 148.345C106.943 148.183 106.965 148.021 107.009 147.865C107.007 150.171 111.403 152.062 116.839 152.092Z" fill="#D9891A"/>
<path d="M116.817 144.14C122.321 144.169 126.789 146.103 126.776 148.451C126.764 150.799 122.275 152.684 116.771 152.655C111.267 152.626 106.8 150.692 106.812 148.344C106.824 145.997 111.313 144.111 116.817 144.14ZM116.817 144.29C111.456 144.262 107.085 146.081 107.073 148.343C107.061 150.605 111.411 152.473 116.776 152.502C122.142 152.53 126.508 150.711 126.52 148.446C126.532 146.182 122.177 144.319 116.816 144.29H116.817Z" fill="#F2AE00"/>
<path d="M102.767 147.313C102.656 147.547 102.577 147.794 102.532 148.049C102.51 148.173 102.499 148.299 102.501 148.425V148.614C102.501 148.676 102.515 148.739 102.521 148.803C102.553 149.06 102.62 149.312 102.72 149.552C102.748 149.613 102.777 149.674 102.808 149.735C102.836 149.798 102.868 149.858 102.903 149.917C102.973 150.041 103.051 150.16 103.135 150.274C103.179 150.331 103.223 150.388 103.27 150.445L103.427 150.613C103.527 150.727 103.647 150.833 103.76 150.942C103.817 150.999 103.88 151.048 103.942 151.101L104.129 151.257L104.33 151.408L104.431 151.483L104.481 151.521L104.535 151.557C105.132 151.963 105.766 152.314 106.428 152.605C107.812 153.223 109.396 153.681 111.044 153.995C112.731 154.308 114.441 154.484 116.157 154.52C117.024 154.541 117.892 154.527 118.755 154.48C119.618 154.434 120.475 154.354 121.318 154.239C123.004 154.011 124.638 153.638 126.113 153.11C126.825 152.859 127.516 152.554 128.181 152.197C128.814 151.854 129.385 151.465 129.848 151.037L130.013 150.873C130.064 150.816 130.112 150.759 130.162 150.702L130.239 150.623L130.275 150.581L130.308 150.538L130.437 150.367C130.48 150.31 130.519 150.251 130.555 150.19L130.665 150.013L130.752 149.824C130.784 149.765 130.811 149.705 130.835 149.642C130.885 149.522 130.926 149.398 130.958 149.272C130.973 149.21 130.99 149.148 131.003 149.086L131.029 148.898C131.043 148.774 131.048 148.648 131.043 148.523V148.476C131.043 148.46 131.043 148.445 131.039 148.429L131.027 148.336L131.006 148.149V148.336V148.429C131.006 148.445 131.006 148.46 131.006 148.476L131 148.522C130.989 148.647 130.969 148.771 130.939 148.893L130.896 149.077C130.876 149.137 130.853 149.198 130.832 149.258C130.787 149.381 130.734 149.5 130.674 149.616C130.644 149.677 130.611 149.735 130.574 149.791L130.467 149.962L130.342 150.134C130.302 150.192 130.258 150.248 130.211 150.301L130.068 150.465L130.032 150.506L129.993 150.546L129.913 150.625C129.858 150.678 129.807 150.731 129.752 150.783L129.576 150.935C129.462 151.039 129.337 151.137 129.219 151.238C129.162 151.289 129.093 151.335 129.028 151.384L128.832 151.527L128.622 151.665C128.551 151.71 128.485 151.758 128.409 151.8L128.184 151.936L128.072 152.002C128.035 152.023 127.995 152.044 127.958 152.064C127.31 152.412 126.636 152.71 125.942 152.955C124.499 153.468 122.896 153.835 121.241 154.061C120.412 154.175 119.57 154.253 118.722 154.298C117.873 154.344 117.019 154.359 116.167 154.337C114.481 154.303 112.801 154.131 111.144 153.823C109.524 153.516 107.975 153.066 106.625 152.463C105.981 152.179 105.363 151.837 104.781 151.44C104.271 151.097 103.815 150.677 103.431 150.197C103.34 150.089 103.255 149.977 103.175 149.861C103.135 149.806 103.099 149.749 103.066 149.69C103.032 149.633 102.996 149.575 102.963 149.515C102.845 149.286 102.755 149.044 102.696 148.794C102.682 148.733 102.665 148.672 102.656 148.61L102.636 148.425C102.62 148.302 102.616 148.178 102.624 148.054C102.637 147.802 102.685 147.552 102.767 147.313Z" fill="white"/>
<path d="M100.411 145.24C100.447 145.068 100.512 144.903 100.604 144.752C102.164 142.325 108.471 141.788 114.638 141.821C120.73 141.854 126.744 142.804 128.584 145.148C129.129 145.844 128.841 147.188 128.837 147.938C128.819 151.274 122.433 153.945 114.574 153.903C106.982 153.863 100.796 151.308 100.396 148.128L100.411 145.24Z" fill="#F5BE51"/>
<path d="M128.85 145.939C128.868 142.603 122.511 139.864 114.652 139.821C106.792 139.779 100.406 142.449 100.388 145.785C100.37 149.122 106.727 151.861 114.586 151.903C122.446 151.946 128.832 149.276 128.85 145.939Z" fill="#FFDB6C"/>
<path d="M100.589 144.764C100.478 144.998 100.399 145.245 100.354 145.5C100.332 145.624 100.322 145.75 100.323 145.876V146.064C100.323 146.128 100.336 146.19 100.342 146.253C100.375 146.511 100.442 146.763 100.542 147.002C100.569 147.064 100.599 147.124 100.63 147.186C100.658 147.248 100.689 147.309 100.725 147.368C100.795 147.492 100.872 147.611 100.957 147.725C101 147.782 101.044 147.842 101.092 147.899L101.248 148.067C101.349 148.181 101.469 148.287 101.582 148.396C101.639 148.453 101.702 148.502 101.764 148.554L101.951 148.711L102.152 148.862L102.253 148.937L102.303 148.974L102.357 149.01C102.954 149.417 103.588 149.768 104.25 150.058C105.634 150.677 107.215 151.134 108.866 151.448C110.553 151.762 112.263 151.938 113.978 151.974C114.845 151.995 115.714 151.981 116.576 151.934C117.439 151.887 118.297 151.808 119.14 151.693C120.825 151.464 122.46 151.092 123.934 150.563C124.646 150.313 125.337 150.007 126.002 149.65C126.635 149.308 127.206 148.919 127.669 148.49L127.834 148.327C127.885 148.269 127.933 148.212 127.983 148.155L128.057 148.071L128.093 148.029L128.126 147.985L128.255 147.814C128.298 147.758 128.337 147.699 128.373 147.638L128.482 147.46L128.573 147.279C128.605 147.22 128.633 147.159 128.656 147.096C128.706 146.976 128.747 146.852 128.779 146.725C128.794 146.664 128.811 146.602 128.825 146.539L128.85 146.352C128.864 146.227 128.869 146.102 128.865 145.977V145.93C128.865 145.914 128.861 145.898 128.86 145.883L128.849 145.789L128.827 145.603V145.789V145.883C128.827 145.898 128.827 145.914 128.827 145.929L128.821 145.976C128.81 146.101 128.79 146.225 128.761 146.346L128.717 146.53C128.697 146.591 128.674 146.651 128.652 146.712C128.608 146.835 128.556 146.954 128.495 147.07C128.466 147.13 128.432 147.189 128.396 147.245L128.289 147.419L128.164 147.59C128.123 147.649 128.079 147.704 128.032 147.757L127.889 147.921L127.853 147.962L127.813 148.002L127.733 148.082C127.68 148.134 127.628 148.187 127.573 148.239L127.397 148.392C127.283 148.496 127.159 148.593 127.04 148.694C126.983 148.746 126.914 148.792 126.849 148.84L126.652 148.984L126.443 149.121C126.372 149.166 126.306 149.214 126.231 149.258L126.008 149.388L125.897 149.454C125.86 149.475 125.82 149.496 125.783 149.516C125.135 149.864 124.461 150.162 123.766 150.407C122.323 150.924 120.721 151.287 119.065 151.513C118.237 151.627 117.395 151.705 116.546 151.751C115.698 151.797 114.844 151.808 113.992 151.79C112.306 151.755 110.626 151.583 108.969 151.276C107.349 150.968 105.8 150.518 104.45 149.916C103.806 149.633 103.19 149.292 102.608 148.897C102.098 148.553 101.643 148.134 101.258 147.654C101.167 147.546 101.082 147.434 101.003 147.317C100.963 147.263 100.927 147.205 100.894 147.146C100.859 147.089 100.823 147.032 100.791 146.971C100.672 146.743 100.582 146.501 100.523 146.251C100.51 146.189 100.492 146.128 100.483 146.067L100.463 145.882C100.447 145.759 100.444 145.635 100.452 145.511C100.462 145.257 100.508 145.005 100.589 144.764Z" fill="white"/>
<path d="M104.969 141.906C105.004 141.733 105.069 141.568 105.16 141.418C106.721 138.991 113.028 138.454 119.194 138.487C125.287 138.519 131.3 139.469 133.141 141.814C133.686 142.509 133.397 143.853 133.393 144.603C133.378 147.941 126.99 150.61 119.13 150.566C111.539 150.526 105.353 147.971 104.953 144.791L104.969 141.906Z" fill="#F5BD51"/>
<path d="M133.407 142.604C133.425 139.268 127.068 136.529 119.208 136.486C111.349 136.444 104.963 139.114 104.945 142.45C104.927 145.787 111.284 148.526 119.143 148.569C127.003 148.611 133.389 145.941 133.407 142.604Z" fill="#FFDB6C"/>
<g opacity="0.54">
<path d="M122.559 136.66C123.578 136.769 124.591 136.932 125.594 137.149L106.282 145.019C105.825 144.606 105.48 144.168 105.255 143.712L122.559 136.66Z" fill="white"/>
</g>
<g opacity="0.54">
<path d="M119.205 136.473C119.706 136.476 120.201 136.489 120.689 136.513L104.983 142.913C104.933 142.635 104.929 142.35 104.971 142.07L118.704 136.476C118.871 136.473 119.037 136.472 119.205 136.473Z" fill="white"/>
</g>
<path d="M129.174 143.352C129.197 141.042 124.804 139.126 119.363 139.071C113.922 139.017 109.492 140.845 109.469 143.155C109.446 145.465 113.838 147.381 119.279 147.436C124.721 147.49 129.15 145.662 129.174 143.352Z" fill="url(#paint13_linear_1102_3909)"/>
<path d="M105.145 141.429C105.035 141.663 104.956 141.911 104.911 142.166C104.889 142.289 104.878 142.415 104.879 142.541V142.73C104.879 142.793 104.893 142.856 104.899 142.919C104.932 143.176 104.999 143.428 105.099 143.668C105.126 143.729 105.156 143.79 105.187 143.851C105.214 143.914 105.246 143.975 105.281 144.034C105.351 144.157 105.429 144.276 105.514 144.39C105.557 144.448 105.601 144.505 105.648 144.562L105.805 144.73C105.905 144.844 106.026 144.949 106.139 145.058C106.196 145.115 106.259 145.164 106.32 145.217L106.507 145.374L106.708 145.525L106.809 145.599L106.86 145.637L106.913 145.673C107.511 146.08 108.145 146.43 108.807 146.721C110.191 147.339 111.775 147.797 113.423 148.111C115.11 148.425 116.82 148.6 118.536 148.637C119.402 148.658 120.27 148.643 121.133 148.597C121.995 148.55 122.853 148.47 123.697 148.355C125.382 148.127 127.017 147.755 128.491 147.226C129.203 146.975 129.895 146.67 130.559 146.313C131.192 145.97 131.763 145.582 132.226 145.153L132.391 144.989C132.442 144.932 132.49 144.875 132.54 144.818L132.614 144.734L132.65 144.691L132.683 144.648L132.812 144.477C132.855 144.42 132.895 144.362 132.93 144.3L133.04 144.123L133.13 143.941C133.162 143.882 133.19 143.821 133.214 143.759C133.263 143.638 133.304 143.514 133.336 143.388C133.351 143.327 133.368 143.264 133.382 143.202L133.407 143.014C133.421 142.89 133.426 142.764 133.422 142.639V142.592C133.422 142.576 133.419 142.561 133.417 142.546L133.406 142.452L133.384 142.265V142.452V142.546C133.384 142.561 133.384 142.576 133.384 142.592L133.379 142.639C133.367 142.764 133.347 142.887 133.318 143.009L133.274 143.193C133.254 143.253 133.231 143.314 133.21 143.374C133.166 143.497 133.113 143.617 133.052 143.732C133.023 143.793 132.989 143.851 132.953 143.908L132.846 144.079L132.721 144.25C132.68 144.308 132.636 144.364 132.589 144.417L132.446 144.581L132.411 144.622L132.371 144.662L132.291 144.742C132.237 144.794 132.186 144.847 132.13 144.899L131.954 145.051C131.843 145.155 131.716 145.253 131.598 145.354C131.541 145.405 131.472 145.452 131.406 145.5L131.21 145.643L131 145.781C130.929 145.826 130.863 145.874 130.788 145.917L130.566 146.048L130.452 146.114C130.414 146.135 130.374 146.155 130.337 146.176C129.689 146.524 129.015 146.822 128.321 147.066C126.878 147.583 125.275 147.947 123.62 148.173C122.792 148.287 121.949 148.364 121.101 148.411C120.253 148.457 119.398 148.47 118.546 148.449C116.861 148.414 115.181 148.243 113.523 147.936C111.903 147.627 110.355 147.178 109.005 146.575C108.361 146.293 107.744 145.952 107.163 145.556C106.652 145.213 106.197 144.794 105.813 144.313C105.722 144.206 105.636 144.094 105.557 143.977C105.517 143.922 105.481 143.865 105.448 143.806C105.414 143.749 105.378 143.692 105.345 143.631C105.227 143.403 105.137 143.161 105.078 142.91C105.064 142.849 105.047 142.788 105.038 142.727L105.017 142.542C105.002 142.419 104.998 142.295 105.006 142.171C105.018 141.918 105.065 141.669 105.145 141.429Z" fill="white"/>
<path d="M99.9506 138.138C99.9866 137.965 100.052 137.8 100.143 137.649C101.703 135.222 108.01 134.686 114.177 134.719C120.27 134.751 126.283 135.701 128.123 138.046C128.669 138.741 128.38 140.086 128.376 140.836C128.358 144.172 121.972 146.843 114.113 146.8C106.521 146.76 100.336 144.205 99.9352 141.026L99.9506 138.138Z" fill="#F5BE51"/>
<path d="M128.388 138.836C128.406 135.5 122.05 132.76 114.19 132.718C106.331 132.675 99.9449 135.346 99.9269 138.682C99.9088 142.019 106.265 144.758 114.125 144.8C121.984 144.843 128.37 142.173 128.388 138.836Z" fill="#FFDB6C"/>
<path d="M124.01 138.812C124.022 136.502 119.622 134.606 114.18 134.576C108.739 134.547 104.318 136.396 104.305 138.705C104.293 141.015 108.694 142.911 114.135 142.941C119.576 142.97 123.997 141.122 124.01 138.812Z" fill="url(#paint14_linear_1102_3909)"/>
<path d="M114.199 142.44C119.258 142.467 123.434 140.871 124.006 138.79V138.798C123.994 141.108 119.573 142.957 114.131 142.928C108.69 142.899 104.292 141.003 104.303 138.694C104.305 138.532 104.328 138.37 104.371 138.214C104.369 140.52 108.766 142.411 114.199 142.44Z" fill="#D9891A"/>
<path d="M100.128 137.661C100.017 137.895 99.9382 138.142 99.8935 138.397C99.8715 138.521 99.861 138.647 99.8622 138.773V138.962C99.8622 139.025 99.8753 139.088 99.8816 139.151C99.914 139.408 99.9812 139.66 100.081 139.9C100.109 139.961 100.138 140.022 100.169 140.083C100.197 140.146 100.229 140.207 100.264 140.265C100.334 140.389 100.411 140.509 100.496 140.623C100.54 140.68 100.584 140.737 100.631 140.797L100.787 140.965C100.888 141.079 101.008 141.184 101.121 141.293C101.178 141.35 101.241 141.4 101.303 141.452L101.49 141.608L101.691 141.759L101.791 141.834L101.842 141.872L101.896 141.908C102.494 142.315 103.127 142.665 103.789 142.956C105.173 143.574 106.754 144.032 108.405 144.346C110.092 144.66 111.802 144.835 113.518 144.871C114.384 144.893 115.253 144.878 116.115 144.832C116.978 144.785 117.836 144.705 118.679 144.59C120.364 144.362 121.999 143.99 123.474 143.461C124.185 143.21 124.876 142.905 125.541 142.547C126.174 142.205 126.745 141.816 127.208 141.388L127.373 141.224C127.425 141.167 127.472 141.11 127.522 141.052L127.596 140.968L127.632 140.926L127.665 140.882L127.794 140.708C127.837 140.652 127.876 140.593 127.912 140.532L128.022 140.354L128.112 140.172C128.144 140.114 128.172 140.053 128.195 139.99C128.245 139.87 128.286 139.746 128.318 139.62C128.333 139.558 128.35 139.496 128.364 139.434L128.389 139.246C128.403 139.121 128.408 138.996 128.404 138.871V138.824C128.404 138.808 128.401 138.793 128.399 138.777L128.388 138.684L128.366 138.496V138.777C128.366 138.793 128.366 138.808 128.366 138.824L128.36 138.87C128.349 138.995 128.329 139.119 128.3 139.24L128.256 139.424C128.236 139.485 128.212 139.546 128.191 139.605C128.147 139.729 128.095 139.848 128.034 139.964C128.004 140.024 127.971 140.083 127.934 140.139L127.828 140.31L127.703 140.482C127.662 140.54 127.618 140.596 127.571 140.649L127.427 140.813L127.392 140.854L127.352 140.893L127.27 140.977C127.217 141.03 127.165 141.083 127.109 141.135L126.934 141.288C126.823 141.392 126.696 141.489 126.578 141.59C126.52 141.641 126.451 141.688 126.386 141.736L126.189 141.88L125.98 142.017C125.909 142.062 125.843 142.11 125.768 142.153L125.545 142.284L125.434 142.349C125.397 142.371 125.357 142.391 125.32 142.412C124.672 142.76 123.998 143.058 123.304 143.303C121.861 143.819 120.258 144.183 118.603 144.409C117.775 144.523 116.932 144.601 116.083 144.646C115.235 144.692 114.381 144.707 113.529 144.685C111.843 144.651 110.163 144.479 108.506 144.171C106.885 143.864 105.337 143.414 103.987 142.811C103.343 142.529 102.727 142.188 102.145 141.792C101.635 141.449 101.179 141.03 100.795 140.55C100.704 140.442 100.619 140.329 100.54 140.213C100.5 140.158 100.463 140.101 100.43 140.042C100.396 139.985 100.36 139.927 100.328 139.867C100.209 139.639 100.119 139.396 100.06 139.146C100.047 139.085 100.029 139.024 100.02 138.962L99.9997 138.777C99.9844 138.654 99.9808 138.53 99.9889 138.406C100 138.153 100.047 137.902 100.128 137.661Z" fill="white"/>
<path d="M242.12 146.548C236.552 146.747 231.205 148.599 229.756 150.907C229.326 151.592 228.701 152.35 228.777 153.032C229.112 156.064 237.167 158.412 244.313 157.623C251.21 156.86 256.102 155.015 255.918 150.571C255.918 150.571 254.964 146.09 242.12 146.548Z" fill="#D9D9D9"/>
<path d="M254.459 148.92C254.422 148.763 254.358 148.613 254.271 148.478C252.783 146.299 247.006 145.966 241.371 146.154C235.803 146.337 230.331 147.357 228.708 149.547C228.227 150.196 228.525 151.417 228.548 152.103C228.648 155.152 234.553 157.432 241.733 157.195C248.669 156.967 254.26 154.475 254.546 151.558L254.459 148.92Z" fill="#F5C751"/>
<path d="M241.678 155.349C248.86 155.112 254.602 152.448 254.501 149.399C254.4 146.351 248.496 144.071 241.313 144.308C234.131 144.545 228.39 147.209 228.49 150.258C228.591 153.307 234.495 155.586 241.678 155.349Z" fill="#FFDC6C"/>
<path d="M241.622 153.651C246.594 153.487 250.569 151.642 250.5 149.531C250.43 147.421 246.342 145.842 241.37 146.006C236.397 146.17 232.422 148.015 232.492 150.126C232.561 152.237 236.649 153.815 241.622 153.651Z" fill="url(#paint15_linear_1102_3909)"/>
<path d="M241.543 153.211C236.92 153.364 233.063 152.013 232.488 150.123V150.131C232.557 152.243 236.645 153.82 241.617 153.656C246.59 153.492 250.562 151.651 250.494 149.539C250.489 149.391 250.464 149.244 250.421 149.102C250.481 151.208 246.509 153.048 241.543 153.211Z" fill="#D9891A"/>
<path d="M250.613 149.533C250.684 151.679 246.649 153.559 241.619 153.725C236.589 153.891 232.439 152.281 232.369 150.135C232.298 147.989 236.332 146.109 241.363 145.944C246.393 145.778 250.542 147.388 250.613 149.533ZM232.606 150.127C232.673 152.197 236.715 153.749 241.614 153.588C246.514 153.426 250.444 151.611 250.376 149.541C250.308 147.472 246.266 145.92 241.367 146.081C236.467 146.243 232.537 148.058 232.606 150.127Z" fill="#F2AE00"/>
<path d="M254.285 148.488C254.392 148.699 254.471 148.924 254.518 149.155C254.541 149.268 254.554 149.383 254.556 149.498L254.561 149.669C254.561 149.726 254.552 149.783 254.547 149.84C254.524 150.077 254.469 150.308 254.384 150.53C254.36 150.587 254.334 150.644 254.309 150.701C254.285 150.76 254.257 150.817 254.226 150.872C254.165 150.987 254.098 151.098 254.023 151.205C253.985 151.262 253.946 151.313 253.905 151.367L253.765 151.524C253.676 151.63 253.57 151.731 253.469 151.833C253.42 151.885 253.362 151.933 253.307 151.983L253.14 152.131L252.96 152.274L252.87 152.345L252.825 152.38L252.776 152.415C252.241 152.801 251.672 153.138 251.075 153.42C249.826 154.02 248.393 154.479 246.891 154.807C245.356 155.138 243.797 155.342 242.228 155.418C241.436 155.46 240.642 155.469 239.852 155.448C239.062 155.427 238.277 155.376 237.504 155.292C235.957 155.124 234.454 154.827 233.091 154.379C232.434 154.167 231.794 153.905 231.177 153.596C230.62 153.321 230.099 152.979 229.624 152.578L229.47 152.432C229.421 152.383 229.376 152.332 229.329 152.282L229.26 152.206L229.225 152.169L229.195 152.13L229.072 151.974C229.031 151.924 228.993 151.871 228.958 151.816L228.853 151.656L228.765 151.492C228.735 151.439 228.708 151.384 228.685 151.327C228.636 151.219 228.596 151.107 228.563 150.992C228.548 150.935 228.531 150.878 228.516 150.821L228.489 150.65C228.473 150.536 228.465 150.422 228.466 150.307V150.264C228.466 150.25 228.466 150.236 228.469 150.222L228.477 150.136L228.492 149.965L228.498 150.136L228.5 150.221C228.5 150.235 228.5 150.25 228.5 150.264L228.507 150.306C228.52 150.42 228.542 150.533 228.572 150.643L228.616 150.81C228.636 150.867 228.659 150.92 228.68 150.975C228.723 151.086 228.774 151.194 228.833 151.298C228.861 151.352 228.893 151.405 228.929 151.456L229.03 151.612L229.149 151.763C229.187 151.815 229.229 151.865 229.273 151.912L229.408 152.059L229.442 152.096L229.479 152.13L229.554 152.201C229.605 152.248 229.653 152.295 229.705 152.342L229.87 152.476C229.974 152.568 230.093 152.654 230.204 152.743C230.257 152.789 230.321 152.83 230.382 152.872L230.565 152.999L230.76 153.119C230.826 153.158 230.888 153.201 230.958 153.238L231.164 153.352L231.268 153.409C231.302 153.428 231.34 153.445 231.375 153.463C231.976 153.765 232.6 154.02 233.24 154.226C234.573 154.662 236.047 154.954 237.565 155.118C238.326 155.201 239.098 155.251 239.874 155.272C240.65 155.293 241.432 155.284 242.21 155.243C243.751 155.168 245.282 154.968 246.79 154.645C248.262 154.322 249.667 153.872 250.885 153.287C251.466 153.013 252.02 152.685 252.541 152.309C252.998 151.982 253.404 151.588 253.743 151.139C253.824 151.039 253.899 150.934 253.969 150.826C254.003 150.774 254.035 150.72 254.064 150.665C254.094 150.608 254.124 150.557 254.153 150.502C254.256 150.291 254.333 150.067 254.381 149.837C254.392 149.78 254.406 149.723 254.413 149.666L254.427 149.494C254.438 149.382 254.438 149.268 254.427 149.155C254.411 148.927 254.363 148.703 254.285 148.488Z" fill="white"/>
<path d="M220.431 55.2837C220.64 55.3762 220.857 55.4458 221.081 55.4913C224.554 56.1129 227.733 52.2195 230.19 48.0269C232.616 43.8864 233.937 39.1624 231.937 36.2986C231.343 35.4493 229.652 34.7161 228.773 34.2007C224.859 31.9079 219.149 34.3808 216.019 39.7239C212.996 44.8831 213.484 50.832 217.044 53.299L220.431 55.2837Z" fill="#F5C751"/>
<path d="M219.797 54.9337C223.711 57.2266 229.421 54.7539 232.552 49.4107C235.682 44.0676 235.048 37.8774 231.134 35.5845C227.221 33.2916 221.511 35.7643 218.38 41.1075C215.25 46.4506 215.884 52.6408 219.797 54.9337Z" fill="#FFDB6C"/>
<path d="M221.541 51.957C224.251 53.5444 228.204 51.8324 230.371 48.1333C232.539 44.4342 232.099 40.1486 229.39 38.5613C226.681 36.9739 222.728 38.6858 220.56 42.3849C218.393 46.0841 218.832 50.3696 221.541 51.957Z" fill="url(#paint16_linear_1102_3909)"/>
<path d="M221.159 42.6766C223.174 39.2377 226.732 37.5171 229.4 38.5674L229.39 38.5617C226.681 36.9743 222.727 38.6865 220.56 42.3854C218.393 46.0842 218.832 50.3701 221.541 51.9574C221.73 52.0678 221.927 52.1633 222.131 52.2431C219.429 50.6498 218.995 46.371 221.159 42.6766Z" fill="#EDBA36"/>
<path d="M221.061 55.493C220.733 55.4032 220.413 55.2862 220.104 55.1433C219.949 55.0723 219.798 54.9926 219.652 54.9046L219.429 54.7742C219.355 54.7309 219.287 54.6785 219.215 54.6299C218.932 54.4345 218.665 54.2162 218.418 53.9773C218.358 53.9162 218.299 53.8531 218.239 53.791C218.179 53.729 218.118 53.6685 218.064 53.6011C217.954 53.4682 217.838 53.34 217.74 53.1977C217.689 53.1275 217.639 53.0578 217.591 52.9859L217.457 52.7643C217.364 52.6174 217.289 52.4631 217.208 52.3117C217.166 52.2363 217.132 52.1573 217.096 52.0792L216.987 51.8442L216.892 51.6043L216.844 51.4831L216.819 51.4228L216.799 51.3617C216.573 50.7124 216.418 50.0403 216.338 49.3574C216.174 47.9947 216.278 46.6093 216.577 45.2755C216.883 43.9414 217.372 42.6559 218.03 41.4557C218.684 40.2532 219.497 39.1447 220.447 38.1603C221.399 37.1796 222.494 36.3302 223.71 35.6971C224.318 35.3785 224.957 35.1216 225.616 34.9301C226.277 34.7351 226.96 34.6256 227.649 34.6042L227.907 34.6062C227.993 34.6093 228.08 34.6172 228.165 34.6221L228.293 34.6304L228.358 34.6347L228.422 34.6429L228.679 34.6739C228.764 34.6825 228.849 34.6997 228.933 34.7162L229.186 34.7647L229.435 34.8287C229.518 34.8508 229.601 34.8693 229.682 34.8987C229.844 34.9537 230.009 35.0021 230.165 35.0717C230.244 35.1042 230.323 35.1356 230.402 35.169L230.634 35.2835C230.789 35.3546 230.932 35.4485 231.079 35.5325L231.137 35.5665C231.155 35.5771 231.172 35.5901 231.19 35.6021L231.295 35.6745L231.505 35.8182L231.121 35.5936L231.065 35.5658C230.912 35.4925 230.765 35.4099 230.606 35.3506L230.374 35.253C230.294 35.2246 230.215 35.1987 230.134 35.1725C229.977 35.1137 229.813 35.0762 229.651 35.0317C229.571 35.0077 229.487 34.9956 229.405 34.9782L229.159 34.9301L228.911 34.8977C228.828 34.8866 228.745 34.8746 228.661 34.8711L228.412 34.8541L228.35 34.85L228.287 34.8497L228.162 34.8488C228.078 34.8488 227.995 34.8468 227.912 34.8484L227.664 34.8629C227.498 34.8672 227.332 34.8855 227.167 34.896C227.083 34.8997 227.001 34.9137 226.918 34.9246L226.67 34.9585L226.425 35.0049C226.343 35.0221 226.26 35.0335 226.179 35.055L225.936 35.1147L225.815 35.1445C225.774 35.1555 225.734 35.1681 225.695 35.18C225.052 35.367 224.429 35.6174 223.836 35.9277C222.647 36.547 221.573 37.3792 220.639 38.3421C218.763 40.2873 217.448 42.7041 216.834 45.3361C216.539 46.644 216.438 48.0012 216.599 49.3308C216.677 49.9948 216.827 50.6483 217.047 51.2797C217.267 51.9093 217.572 52.5054 217.955 53.0513C218.044 53.1927 218.147 53.3226 218.246 53.4566C218.294 53.5252 218.35 53.5856 218.404 53.65C218.457 53.7144 218.509 53.7759 218.567 53.8397C218.795 54.0853 219.041 54.3128 219.305 54.5201C219.371 54.571 219.435 54.6254 219.504 54.6739L219.712 54.8154C219.85 54.9113 219.994 54.9994 220.142 55.0794C220.436 55.2425 220.744 55.3808 221.061 55.493Z" fill="white"/>
<path d="M184.786 57.6685C184.962 57.6988 185.14 57.71 185.318 57.7018C188.073 57.5091 189.74 53.9465 190.802 50.2952C191.851 46.6892 191.95 42.852 189.884 41.0616C189.272 40.5306 187.848 40.2978 187.082 40.075C183.674 39.0839 179.814 42.0527 178.461 46.706C177.154 51.199 178.663 55.6197 181.836 56.8106L184.786 57.6685Z" fill="#F5C751"/>
<path d="M184.238 57.5242C187.646 58.5154 191.506 55.5466 192.859 50.8934C194.213 46.2401 192.547 41.6644 189.139 40.6732C185.731 39.682 181.871 42.6508 180.518 47.304C179.164 51.9573 180.83 56.533 184.238 57.5242Z" fill="#FFDB6C"/>
<path d="M184.992 54.9318C187.351 55.618 190.023 53.5627 190.96 50.3412C191.897 47.1197 190.744 43.9518 188.385 43.2656C186.025 42.5795 183.353 44.6348 182.416 47.8563C181.479 51.0778 182.632 54.2456 184.992 54.9318Z" fill="url(#paint17_linear_1102_3909)"/>
<path d="M182.927 47.963C183.798 44.9681 186.168 42.9818 188.393 43.2685L188.385 43.266C186.025 42.5798 183.353 44.6353 182.416 47.8566C181.479 51.078 182.632 54.246 184.992 54.9322C185.156 54.9798 185.324 55.0146 185.494 55.0362C183.139 54.3441 181.991 51.1804 182.927 47.963Z" fill="#EDBA36"/>
<path d="M185.304 57.7068C185.038 57.7014 184.772 57.6739 184.511 57.6246C184.38 57.6003 184.25 57.5688 184.122 57.53L183.928 57.4736C183.864 57.4549 183.802 57.4281 183.738 57.4052C183.486 57.311 183.242 57.1963 183.009 57.0624C182.951 57.0275 182.894 56.9909 182.837 56.9553C182.78 56.9197 182.722 56.8855 182.668 56.8446C182.559 56.7648 182.446 56.6898 182.345 56.6006C182.293 56.5569 182.241 56.5137 182.191 56.4684L182.047 56.3257C181.948 56.2322 181.862 56.1293 181.771 56.0301C181.725 55.9809 181.684 55.9274 181.642 55.8751L181.515 55.7175L181.397 55.5536L181.337 55.471L181.307 55.4299L181.28 55.3875C180.984 54.938 180.738 54.4576 180.546 53.9547C180.161 52.9521 179.975 51.881 179.947 50.8117C179.924 49.7408 180.049 48.6719 180.319 47.6352C180.584 46.5978 180.989 45.6011 181.522 44.6723C182.057 43.7461 182.725 42.8921 183.527 42.179C183.927 41.8209 184.363 41.5038 184.826 41.2324C185.291 40.958 185.788 40.7443 186.306 40.5963L186.503 40.5483C186.569 40.5342 186.636 40.5236 186.702 40.5111L186.801 40.4928L186.85 40.4837L186.9 40.4777L187.101 40.452C187.168 40.4423 187.235 40.4392 187.302 40.4355L187.504 40.4239L187.705 40.4248C187.772 40.4258 187.839 40.4238 187.906 40.4307C188.039 40.4413 188.173 40.4466 188.305 40.4695C188.372 40.4791 188.438 40.4878 188.503 40.4981L188.701 40.5405C188.833 40.5649 188.959 40.6088 189.087 40.6443L189.138 40.659C189.153 40.6636 189.169 40.6702 189.184 40.6759L189.278 40.7108L189.465 40.7797L189.131 40.6826L189.082 40.6724C188.953 40.646 188.825 40.6114 188.693 40.5967L188.498 40.5672C188.433 40.5608 188.367 40.5564 188.301 40.552C188.17 40.5375 188.039 40.5404 187.907 40.5376C187.842 40.5346 187.776 40.5415 187.711 40.5439L187.515 40.5546L187.32 40.5775C187.255 40.585 187.19 40.5917 187.126 40.605L186.933 40.6399L186.885 40.6486L186.838 40.6604L186.743 40.6837C186.679 40.6997 186.616 40.714 186.553 40.7311L186.368 40.7895C186.242 40.8246 186.12 40.8702 185.996 40.9099C185.934 40.9287 185.874 40.955 185.814 40.9791L185.632 41.0523L185.454 41.1344C185.395 41.1632 185.335 41.1876 185.278 41.2194L185.105 41.3112L185.018 41.3571C184.989 41.3731 184.962 41.3903 184.934 41.407C184.482 41.6718 184.057 41.981 183.667 42.3299C182.883 43.0272 182.227 43.8642 181.703 44.7735C180.651 46.6085 180.116 48.6939 180.154 50.8085C180.18 51.8573 180.363 52.9064 180.739 53.8846C180.925 54.3736 181.164 54.8407 181.452 55.2778C181.739 55.7134 182.085 56.1073 182.48 56.4482C182.574 56.5386 182.678 56.6174 182.778 56.7002C182.828 56.7431 182.882 56.7782 182.935 56.8168C182.988 56.8554 183.039 56.8921 183.095 56.9294C183.315 57.0723 183.546 57.1977 183.785 57.3046C183.845 57.3305 183.905 57.3595 183.966 57.3832L184.15 57.4508C184.274 57.4971 184.4 57.5365 184.527 57.5688C184.782 57.6363 185.042 57.6824 185.304 57.7068Z" fill="white"/>
<defs>
<filter id="filter0_d_1102_3909" x="84" y="139.059" width="187.358" height="33.9779" filterUnits="userSpaceOnUse" color-interpolation-filters="sRGB">
<feFlood flood-opacity="0" result="BackgroundImageFix"/>
<feColorMatrix in="SourceAlpha" type="matrix" values="0 0 0 0 0 0 0 0 0 0 0 0 0 0 0 0 0 0 127 0" result="hardAlpha"/>
<feOffset dy="2"/>
<feGaussianBlur stdDeviation="2"/>
<feComposite in2="hardAlpha" operator="out"/>
<feColorMatrix type="matrix" values="0 0 0 0 0 0 0 0 0 0 0 0 0 0 0 0 0 0 0.05 0"/>
<feBlend mode="normal" in2="BackgroundImageFix" result="effect1_dropShadow_1102_3909"/>
<feBlend mode="normal" in="SourceGraphic" in2="effect1_dropShadow_1102_3909" result="shape"/>
</filter>
<linearGradient id="paint0_linear_1102_3909" x1="434" y1="293.125" x2="-95.8761" y2="58.013" gradientUnits="userSpaceOnUse">
<stop stop-color="#85ADE6"/>
<stop offset="1" stop-color="#E9F2FF"/>
</linearGradient>
<linearGradient id="paint1_linear_1102_3909" x1="208.192" y1="52.3068" x2="208.192" y2="78.6322" gradientUnits="userSpaceOnUse">
<stop stop-color="#F7FBFF"/>
<stop offset="1" stop-color="#F7FBFF" stop-opacity="0"/>
</linearGradient>
<linearGradient id="paint2_linear_1102_3909" x1="197.512" y1="63.2983" x2="197.512" y2="81.6202" gradientUnits="userSpaceOnUse">
<stop stop-color="#F7FBFF"/>
<stop offset="1" stop-color="#F7FBFF" stop-opacity="0"/>
</linearGradient>
<linearGradient id="paint3_linear_1102_3909" x1="111.607" y1="77.7204" x2="111.607" y2="110.19" gradientUnits="userSpaceOnUse">
<stop stop-color="#F7FBFF"/>
<stop offset="1" stop-color="#F7FBFF" stop-opacity="0"/>
</linearGradient>
<linearGradient id="paint4_linear_1102_3909" x1="174.255" y1="47.2375" x2="174.255" y2="151.625" gradientUnits="userSpaceOnUse">
<stop stop-color="#F7FBFF"/>
<stop offset="1" stop-color="#F7FBFF" stop-opacity="0"/>
</linearGradient>
<radialGradient id="paint5_radial_1102_3909" cx="0" cy="0" r="1" gradientUnits="userSpaceOnUse" gradientTransform="translate(70 129.238) rotate(12.6193) scale(171.646 862.201)">
<stop stop-color="#A7C5EF"/>
<stop offset="1" stop-color="#A7C5EF" stop-opacity="0"/>
</radialGradient>
<linearGradient id="paint6_linear_1102_3909" x1="131.93" y1="63.8911" x2="131.93" y2="84.339" gradientUnits="userSpaceOnUse">
<stop stop-color="#FFD085"/>
<stop offset="1" stop-color="#FFE4AB"/>
</linearGradient>
<linearGradient id="paint7_linear_1102_3909" x1="160.68" y1="139.718" x2="179.432" y2="161.225" gradientUnits="userSpaceOnUse">
<stop stop-color="#FFEFB7"/>
<stop offset="1" stop-color="#FEC659"/>
</linearGradient>
<linearGradient id="paint8_linear_1102_3909" x1="197.532" y1="122.116" x2="227.289" y2="142.759" gradientUnits="userSpaceOnUse">
<stop stop-color="#FFEFB7"/>
<stop offset="1" stop-color="#FEC659"/>
</linearGradient>
<linearGradient id="paint9_linear_1102_3909" x1="139" y1="133.738" x2="156" y2="153.238" gradientUnits="userSpaceOnUse">
<stop stop-color="#FFEFB7"/>
<stop offset="1" stop-color="#FEC659"/>
</linearGradient>
<linearGradient id="paint10_linear_1102_3909" x1="179.49" y1="132.489" x2="196.611" y2="150.816" gradientUnits="userSpaceOnUse">
<stop stop-color="#FFEFB7"/>
<stop offset="1" stop-color="#FEC659"/>
</linearGradient>
<linearGradient id="paint11_linear_1102_3909" x1="142" y1="61.7376" x2="217.5" y2="147.238" gradientUnits="userSpaceOnUse">
<stop stop-color="#FFF5DB"/>
<stop offset="1" stop-color="#FFE382"/>
</linearGradient>
<linearGradient id="paint12_linear_1102_3909" x1="155.154" y1="67.3499" x2="155.154" y2="92.7137" gradientUnits="userSpaceOnUse">
<stop stop-color="#FFCB7C"/>
<stop offset="1" stop-color="#FFECBB"/>
</linearGradient>
<linearGradient id="paint13_linear_1102_3909" x1="109.469" y1="143.155" x2="129.174" y2="143.352" gradientUnits="userSpaceOnUse">
<stop stop-color="#FFD874"/>
<stop offset="1" stop-color="#FFF6D5"/>
</linearGradient>
<linearGradient id="paint14_linear_1102_3909" x1="104.305" y1="138.705" x2="124.01" y2="138.812" gradientUnits="userSpaceOnUse">
<stop stop-color="#FFD874"/>
<stop offset="1" stop-color="#FFF6D5"/>
</linearGradient>
<linearGradient id="paint15_linear_1102_3909" x1="241.37" y1="146.006" x2="241.622" y2="153.651" gradientUnits="userSpaceOnUse">
<stop stop-color="#FFD874"/>
<stop offset="1" stop-color="#FFF6D5"/>
</linearGradient>
<linearGradient id="paint16_linear_1102_3909" x1="229.39" y1="38.5613" x2="221.541" y2="51.957" gradientUnits="userSpaceOnUse">
<stop stop-color="#FFD874"/>
<stop offset="1" stop-color="#FFF6D5"/>
</linearGradient>
<linearGradient id="paint17_linear_1102_3909" x1="188.385" y1="43.2656" x2="184.992" y2="54.9318" gradientUnits="userSpaceOnUse">
<stop stop-color="#FFD874"/>
<stop offset="1" stop-color="#FFF6D5"/>
</linearGradient>
</defs>
</svg>
