<svg width="181" height="187" viewBox="0 0 181 187" fill="none" xmlns="http://www.w3.org/2000/svg">
<path d="M36.8032 158.091C36.7975 158.439 36.6892 158.777 36.4919 159.064C36.2945 159.351 36.0169 159.573 35.6939 159.702C35.3709 159.832 35.0168 159.863 34.6761 159.792C34.3353 159.721 34.023 159.551 33.7784 159.304C33.5338 159.056 33.3678 158.742 33.3011 158.4C33.2344 158.059 33.27 157.705 33.4035 157.384C33.537 157.062 33.7624 156.787 34.0515 156.594C34.3405 156.4 34.6804 156.296 35.0284 156.294C35.2639 156.292 35.4974 156.337 35.715 156.427C35.9327 156.517 36.1301 156.65 36.2956 156.817C36.4611 156.985 36.5913 157.184 36.6785 157.402C36.7657 157.621 36.8081 157.855 36.8032 158.091Z" fill="url(#paint0_radial_9270_3093)"/>
<path d="M41.4614 123.362C42.4376 123.362 43.229 122.57 43.229 121.594C43.229 120.618 42.4376 119.826 41.4614 119.826C40.4852 119.826 39.6938 120.618 39.6938 121.594C39.6938 122.57 40.4852 123.362 41.4614 123.362Z" fill="url(#paint1_radial_9270_3093)"/>
<path d="M109.086 0.072534C108.604 0.0224856 108.121 -0.00169616 107.637 9.23854e-05H43.9965C35.9482 9.23854e-05 28.2693 6.51988 26.8495 14.5754L0.256005 165.262C-0.0406764 166.99 -0.0797359 168.753 0.140098 170.492C0.140098 170.492 2.26265 185.981 17.2147 185.843H80.884C88.9323 185.843 96.6112 179.323 98.0311 171.26L124.603 20.5809C124.696 20.034 124.761 19.4827 124.798 18.9292C127.863 1.01428 109.086 0.072534 109.086 0.072534Z" fill="url(#paint2_linear_9270_3093)"/>
<path d="M76.1391 178.57H13.2304C5.26177 178.57 -0.0409862 172.115 1.35715 164.154L27.6246 15.2202C29.0228 7.2516 36.6147 0.80426 44.5761 0.80426H107.47C115.439 0.80426 120.742 7.25885 119.344 15.2202L93.0905 164.154C91.6924 172.115 84.1005 178.57 76.1391 178.57Z" fill="white"/>
<path d="M116.482 15.5026L90.3522 163.712C89.1714 170.42 82.7748 175.86 76.0666 175.86H14.2591C7.55095 175.86 3.07403 170.42 4.25484 163.712L30.3919 15.5026C31.6017 8.62789 38.165 3.06434 45.047 3.06434H49.9948C50.6301 3.03922 51.2529 3.24577 51.7472 3.64555C52.2416 4.04533 52.574 4.61111 52.6824 5.2376L53.6169 10.1564C53.7298 10.7082 54.035 11.202 54.4782 11.5496C54.9214 11.8972 55.4736 12.0761 56.0364 12.0544H92.0401C92.6847 12.0317 93.312 11.8397 93.8588 11.4976C94.4056 11.1555 94.8527 10.6754 95.1551 10.1057L97.8138 5.19414C98.1457 4.55986 98.6395 4.0247 99.2451 3.643C99.8507 3.2613 100.547 3.04666 101.262 3.02087H106.21C113.106 3.06434 117.699 8.62789 116.482 15.5026Z" fill="url(#paint3_linear_9270_3093)"/>
<path d="M83.5644 8.51161H63.3169C63.143 8.51711 62.9701 8.48264 62.8116 8.41086C62.6532 8.33907 62.5132 8.23188 62.4027 8.09753C62.2921 7.96318 62.2139 7.80525 62.1739 7.63591C62.134 7.46656 62.1334 7.29031 62.1723 7.12072C62.2514 6.74032 62.4556 6.39736 62.7523 6.14657C63.049 5.89578 63.4212 5.75161 63.8095 5.73707H84.0281C84.2016 5.73039 84.3744 5.7638 84.533 5.83473C84.6915 5.90565 84.8316 6.01216 84.9423 6.14601C85.0531 6.27985 85.1314 6.43741 85.1714 6.60645C85.2113 6.7755 85.2118 6.95148 85.1727 7.12072C85.0975 7.49839 84.8985 7.84021 84.6072 8.09211C84.316 8.34402 83.949 8.49163 83.5644 8.51161Z" fill="url(#paint4_linear_9270_3093)"/>
<path d="M90.1209 7.12072C90.046 7.50244 89.8442 7.8476 89.5482 8.10011C89.2523 8.35262 88.8797 8.49764 88.491 8.5116C88.3166 8.51858 88.143 8.4851 87.9838 8.41378C87.8246 8.34245 87.684 8.23523 87.5731 8.1005C87.4623 7.96578 87.3841 7.80721 87.3448 7.63723C87.3054 7.46724 87.306 7.29045 87.3464 7.12072C87.424 6.74091 87.6267 6.39812 87.9223 6.14725C88.2178 5.89638 88.589 5.75194 88.9763 5.73707C89.1499 5.73039 89.3227 5.7638 89.4812 5.83473C89.6398 5.90565 89.7799 6.01216 89.8906 6.14601C90.0013 6.27985 90.0797 6.43741 90.1196 6.60645C90.1596 6.7755 90.16 6.95148 90.1209 7.12072Z" fill="url(#paint5_linear_9270_3093)"/>
<path d="M119.184 35.9166L119.221 35.7137H118.438C117.976 35.7295 117.532 35.9013 117.18 36.2012C116.827 36.5011 116.587 36.9114 116.497 37.3654L112.831 58.1563C112.694 58.9459 112.715 60.4455 114.28 60.6483H115.149L114.976 59.808L115.012 59.6051C115.301 59.4692 115.553 59.2672 115.75 59.0155C115.946 58.7638 116.08 58.4695 116.142 58.1563L119.786 37.3654C119.85 37.0914 119.827 36.8039 119.719 36.5438C119.611 36.2838 119.424 36.0643 119.184 35.9166Z" fill="url(#paint6_linear_9270_3093)"/>
<path d="M115.019 60.6266C113.614 60.4237 113.447 59.0691 113.607 58.1563L117.272 37.3654C117.365 36.9114 117.607 36.5016 117.96 36.202C118.314 35.9024 118.758 35.7305 119.221 35.7137C120.134 35.7137 120.793 37.2712 120.634 38.184L116.961 58.9749C116.801 59.8877 115.976 60.8004 115.019 60.6266Z" fill="#FDFBF9"/>
<rect width="17.813" height="17.813" rx="4" transform="matrix(1 0 -0.164531 0.986372 30.0337 73.1072)" fill="url(#paint7_linear_9270_3093)"/>
<rect width="17.813" height="17.813" rx="4" transform="matrix(1 0 -0.164531 0.986372 25.8967 97.9118)" fill="url(#paint8_linear_9270_3093)"/>
<rect width="17.813" height="17.813" rx="4" transform="matrix(1 0 -0.164531 0.986372 21.9316 121.683)" fill="url(#paint9_linear_9270_3093)"/>
<rect width="16.7652" height="17.813" rx="4" transform="matrix(1 0 -0.164531 0.986372 55.1816 73.1072)" fill="url(#paint10_linear_9270_3093)"/>
<rect width="16.7652" height="17.813" rx="4" transform="matrix(1 0 -0.164531 0.986372 51.0435 97.9118)" fill="url(#paint11_linear_9270_3093)"/>
<rect width="16.7652" height="17.813" rx="4" transform="matrix(1 0 -0.164531 0.986372 47.0786 121.683)" fill="url(#paint12_linear_9270_3093)"/>
<rect width="17.813" height="17.813" rx="4" transform="matrix(1 0 -0.164531 0.986372 79.2815 73.1072)" fill="url(#paint13_linear_9270_3093)"/>
<rect width="17.813" height="17.813" rx="4" transform="matrix(1 0 -0.164531 0.986372 75.1445 97.9118)" fill="url(#paint14_linear_9270_3093)"/>
<rect width="17.813" height="17.813" rx="4" transform="matrix(1 0 -0.164531 0.986372 71.1787 121.683)" fill="url(#paint15_linear_9270_3093)"/>
<path fill-rule="evenodd" clip-rule="evenodd" d="M62.8136 49.3355L63.0291 48.0436C63.3383 46.1897 63.8274 44.8646 64.5861 44.0146C65.2416 43.2804 66.3624 42.6174 68.6494 42.6174C70.9365 42.6174 71.836 43.2804 72.2466 44.0146C72.7218 44.8646 72.7688 46.1897 72.4595 48.0436L72.244 49.3355H62.8136ZM61.2375 49.3616L61.4574 48.0436C62.0993 44.1949 63.6689 41.0671 68.908 41.0671C74.1471 41.0671 74.6732 44.1949 74.0313 48.0436L73.8114 49.3616C77.1029 49.5445 76.7251 50.7377 76.097 54.5032L75.7522 56.5703C75.0626 60.7045 74.8904 61.738 70.6991 61.738H60.2209C56.0296 61.738 56.2024 60.7045 56.892 56.5703L57.2368 54.5032C57.8649 50.7377 57.885 49.5445 61.2375 49.3616ZM66.6622 54.5032C66.0835 54.5032 65.5372 54.966 65.442 55.5368C65.3468 56.1076 65.7387 56.5703 66.3174 56.5703H66.3268C66.9055 56.5703 67.4518 56.1076 67.547 55.5368C67.6423 54.966 67.2503 54.5032 66.6716 54.5032H66.6622Z" fill="url(#paint16_linear_9270_3093)"/>
<path fill-rule="evenodd" clip-rule="evenodd" d="M130.378 44.9491H150.508C151.604 44.9491 152.493 45.853 152.493 46.968V55.0968C152.493 56.2118 151.604 57.1156 150.508 57.1156H134.942V60.3116L131.799 57.1156H130.378C129.282 57.1156 128.393 56.2118 128.393 55.0968V46.968C128.393 45.853 129.282 44.9491 130.378 44.9491Z" fill="url(#paint17_linear_9270_3093)"/>
<path d="M133.745 51.9007C134.155 51.4836 134.155 50.8074 133.745 50.3904C133.335 49.9733 132.67 49.9733 132.26 50.3904C131.85 50.8074 131.85 51.4836 132.26 51.9007C132.67 52.3177 133.335 52.3177 133.745 51.9007Z" fill="white"/>
<path d="M137.545 51.3937C137.678 50.8195 137.328 50.2446 136.764 50.1097C136.199 49.9747 135.634 50.3307 135.501 50.9048C135.368 51.479 135.718 52.0539 136.283 52.1889C136.847 52.3238 137.413 51.9678 137.545 51.3937Z" fill="white"/>
<path d="M141.067 51.3937C141.2 50.8195 140.85 50.2446 140.286 50.1097C139.721 49.9747 139.156 50.3307 139.023 50.9048C138.89 51.479 139.24 52.0539 139.805 52.1889C140.369 52.3238 140.935 51.9678 141.067 51.3937Z" fill="white"/>
<path d="M144.604 51.3195C144.696 50.7373 144.308 50.1887 143.735 50.0942C143.163 49.9997 142.623 50.395 142.531 50.9772C142.438 51.5594 142.826 52.108 143.399 52.2025C143.971 52.297 144.511 51.9016 144.604 51.3195Z" fill="white"/>
<path d="M147.831 51.9011C148.241 51.4841 148.241 50.8079 147.831 50.3908C147.421 49.9738 146.756 49.9738 146.346 50.3908C145.936 50.8079 145.936 51.4841 146.346 51.9011C146.756 52.3182 147.421 52.3182 147.831 51.9011Z" fill="white"/>
<path d="M138.819 92.7034L144.104 112.042L145.695 116.554C145.695 116.554 143.036 119.665 136.947 120.699C132.78 121.41 129.994 121.389 128.17 121.168C126.664 120.958 124.846 120.581 125.898 117.882C127.394 113.871 127.009 111.278 127.009 111.278L125.009 100.23L138.819 92.7034Z" fill="#F2C6B4"/>
<path d="M138.5 104C136.402 106.989 134.066 108.371 132.043 109.266C129.21 110.536 127.209 110.788 127.209 110.788L125.008 100.731L138.786 92.4125L139.508 94.7307L140.5 98.5001C140.497 98.5806 140.432 101.166 138.5 104Z" fill="url(#paint18_linear_9270_3093)"/>
<path d="M134.544 88.3193C134.544 88.3193 130.302 83.0092 127.519 81.799C122.183 79.3073 116.91 79.3577 116.91 79.3577L117.848 76.6132L131.379 76.3805L136.415 85.1317L134.544 88.3193Z" fill="url(#paint19_linear_9270_3093)"/>
<path fill-rule="evenodd" clip-rule="evenodd" d="M120.346 73.0652C120.346 73.0652 117.887 76.6641 117.425 78.3731C116.97 79.8472 116.837 81.3327 116.807 82.1943C116.689 85.4844 116.766 90.1146 117.075 92.7139C117.719 97.2075 119.791 99.948 122.331 100.823C124.871 101.697 129.584 100.218 132.77 98.7629C135.465 97.5255 137.04 96.1697 137.5 94.539C137.622 94.0893 137.773 93.6079 137.929 93.1428C138.391 93.3913 138.903 93.5378 139.446 93.5572C141.62 93.6346 144.159 90.3519 144.249 87.8151C144.34 85.2783 141.947 84.4481 139.773 84.3707C139.307 84.3541 138.857 84.4326 138.436 84.591L133.142 72.5011L120.346 73.0652Z" fill="url(#paint20_linear_9270_3093)"/>
<path d="M139.821 91.214C139.096 91.1882 138.53 90.5797 138.556 89.8549C138.581 89.1302 139.893 87.2745 140.617 87.3003C141.342 87.3261 141.206 89.2236 141.18 89.9484C141.154 90.6732 140.546 91.2398 139.821 91.214Z" fill="url(#paint21_linear_9270_3093)"/>
<path d="M126.308 87.429C125.694 87.4072 125.214 86.9034 125.235 86.3038C125.256 85.7042 125.771 85.2358 126.385 85.2577C126.999 85.2795 127.479 85.7833 127.458 86.3829C127.437 86.9825 126.922 87.4509 126.308 87.429Z" fill="#4F2B23"/>
<path d="M118.074 86.516C117.46 86.4941 116.98 85.9903 117.001 85.3907C117.022 84.7911 117.537 84.3228 118.151 84.3446C118.765 84.3665 119.245 84.8702 119.224 85.4698C119.202 86.0694 118.688 86.5378 118.074 86.516Z" fill="#4F2B23"/>
<path d="M121.093 93.0171C121.338 93.0258 121.587 92.876 121.68 92.5618C121.773 92.2477 121.54 91.9219 121.214 91.9103C121.214 91.9103 120.325 91.7199 120.269 91.0037C120.213 90.2874 121.016 88.3319 121.459 87.316C121.633 87.0047 121.482 86.6819 121.159 86.591C120.839 86.4209 120.508 86.5678 120.415 86.882C120.241 87.1933 119.087 89.8505 119.124 91.1216C119.16 92.2301 120.12 92.9824 121.093 93.0171Z" fill="#B4603F"/>
<path d="M131.515 77.3481C131.515 77.3481 131.574 80.1414 133.074 82.6758C134.573 85.2101 134.732 85.2158 134.622 86.0647L134.643 89.942C134.684 91.0289 135.798 90.991 136.195 91.0052C136.275 91.008 136.963 87.311 136.963 87.311C136.963 87.311 137.377 84.6121 140.861 84.9688C143.396 85.2141 144.261 87.7258 144.261 87.7258C144.261 87.7258 146.247 81.0513 146.858 79.5225C147.825 76.9208 146.451 75.3213 145.217 74.2694C143.979 73.295 142.706 73.3273 142.706 73.3273C142.706 73.3273 143.4 69.4754 139.105 67.3067C136.998 66.2238 135.243 66.3939 133.499 66.2543C131.756 66.1147 130.097 65.8231 128.668 65.7722C125.169 65.8027 124.068 67.7018 124.068 67.7018C124.068 67.7018 117.343 64.5938 114.438 68.0568C111.535 71.4424 114.482 75.734 118.334 76.9565C121.159 77.9874 125.276 78.4441 131.515 77.3481Z" fill="url(#paint22_linear_9270_3093)"/>
<path d="M123.458 95.8084C126.52 95.7694 127.879 93.8191 128.24 92.7217C128.331 92.4288 128.18 92.1274 127.861 92.042C127.542 91.9566 127.215 92.093 127.124 92.3859C127.121 92.4598 126.399 94.6547 123.498 94.6995C123.176 94.6881 122.924 94.9752 122.916 95.197C122.903 95.5666 123.136 95.797 123.458 95.8084Z" fill="#CF7653"/>
<path d="M129.438 84.0323C129.924 83.7044 130.028 83.0177 129.803 82.6645C129.727 82.5755 128.535 80.5482 125.685 80.7056C125.37 80.6944 124.811 80.8471 124.781 81.709C124.762 82.2262 125.069 82.496 125.384 82.5072C127.521 82.4107 128.337 83.9068 128.413 83.9958C128.643 84.1766 129.114 84.2797 129.438 84.0323ZM117.43 81.7926C117.509 81.7954 117.666 81.801 117.748 81.7176C118.398 81.2229 119.333 81.6014 119.412 81.6042C119.724 81.7016 120.046 81.5405 120.134 81.2847C120.395 80.6036 120.016 80.1586 119.783 80.064C119.704 80.0612 118.302 79.4935 117.166 80.3161C116.923 80.48 116.668 80.9888 117.041 81.6061C117.038 81.6923 117.272 81.7869 117.43 81.7926Z" fill="#4F2B23"/>
<path d="M90.8938 119.13L90.3856 118.875C86.0127 126.206 77.7744 139.18 78.1733 149.593C79.3703 163.916 100.163 156.842 103.228 149.593C101.315 164.621 98.1682 186.053 98.509 186.23C117.509 186.203 136.509 186.23 155.509 186.23L156.227 159.145C173.905 164.067 181.313 147.735 175.534 136.831C173.368 132.744 166.94 116.308 159.082 110.414C154.89 107.27 145.893 103.435 141.49 103.441C141.762 107.69 127.009 112.73 125.509 105.23C111.982 110.534 108.647 107.01 109.932 113.716C112.964 123.439 95.2325 122.301 90.8938 119.13Z" fill="url(#paint23_linear_9270_3093)"/>
<rect width="14.7918" height="23.2598" rx="1.30616" transform="matrix(1 0 0.13191 0.991262 95.178 99.2479)" fill="url(#paint24_linear_9270_3093)"/>
<path d="M107.623 118.469L107.641 118.318C108.848 117.63 109.767 115.662 107.886 115.151L107.798 114.986C108.083 114.85 108.334 114.654 108.536 114.411C108.738 114.169 108.885 113.885 108.967 113.581C109.66 110.756 104.724 112.057 103.523 112.336C102.004 112.689 100.633 113.179 99.0643 113.305C95.8502 113.565 97.0608 111.976 96.6924 109.021C95.7377 108.498 95.6056 109.444 95.181 110.422C94.8415 111.214 94.5142 112.002 94.1073 112.743C93.7062 113.404 93.4591 114.146 93.3843 114.915C93.3483 115.479 93.3614 116.045 93.4233 116.606C93.4695 116.837 93.4587 117.076 93.3916 117.302L93.2449 117.384C92.9986 117.745 92.2782 118.895 91.2729 120.58L91.7811 120.834L99.7863 126.686C100.496 126.34 102.703 124.029 103.313 123.681C103.733 123.438 104.189 123.282 104.619 123.068C105.434 122.669 106.333 122.347 107.12 121.895C107.791 121.506 108.451 120.899 108.566 120.083C108.586 119.943 108.59 119.8 108.575 119.659C108.526 119.094 108.225 118.541 107.623 118.469Z" fill="#FEDCBE"/>
<path d="M90.5262 118.903L103.757 127.033C100.455 139.38 99.1905 161.595 85.7345 159.071C69.2691 155.982 83.83 129.399 90.5262 118.903Z" fill="url(#paint25_linear_9270_3093)"/>
<path d="M136.648 117.928C137.716 119.772 140.733 122.433 142.109 123.534C142.519 125.355 138.167 128.826 134.831 130.071C133.436 129.572 131.601 128.155 129.28 127.174C127.4 127.112 125.549 126.146 124.624 125.663C123.699 125.181 122.791 124.247 122.819 123.343C122.849 122.334 123.804 122.02 125.214 122.067C124.274 122.036 123.366 121.102 123.397 120.199C123.427 119.296 124.852 118.892 125.322 118.907C123.927 118.409 123.984 116.603 124.94 116.183C125.895 115.763 128.231 116.292 127.306 115.81C126.38 115.327 121.4 113.595 121.786 112.01C122.332 109.769 128.321 113.584 131.127 114.129C133.932 114.674 135.313 115.624 136.648 117.928Z" fill="url(#paint26_linear_9270_3093)"/>
<path d="M141.974 121.251L129.082 130.14C136.187 139.152 151.527 157.549 156.051 159.04C161.705 160.905 173.458 158.338 175.934 150.567C178.41 142.796 167.741 137.647 164.872 135.67C162.577 134.089 150.554 126.484 141.974 121.251Z" fill="url(#paint27_linear_9270_3093)"/>
<path d="M98.9203 102.653C99.3205 102.246 99.3205 101.586 98.9203 101.179C98.5202 100.772 97.8715 100.772 97.4713 101.179C97.0712 101.586 97.0712 102.246 97.4713 102.653C97.8715 103.06 98.5202 103.06 98.9203 102.653Z" fill="white"/>
<path fill-rule="evenodd" clip-rule="evenodd" d="M154.372 60H170.28C171.898 60 173.209 61.334 173.209 62.9795V74.9764C173.209 76.622 171.898 77.9559 170.28 77.9559H164.213L161.81 81.8487L159.629 77.9559H154.372C152.754 77.9559 151.442 76.622 151.442 74.9764V62.9795C151.442 61.334 152.754 60 154.372 60Z" fill="url(#paint28_linear_9270_3093)"/>
<path d="M161.857 68.5585L157.512 65.2274H166.18L161.857 68.5585Z" fill="white"/>
<path d="M166.543 66.086V71.8664H157.147V66.086L161.857 69.6775L166.543 66.086Z" fill="white"/>
<defs>
<radialGradient id="paint0_radial_9270_3093" cx="0" cy="0" r="1" gradientUnits="userSpaceOnUse" gradientTransform="translate(34.7314 157.656) scale(1.76759 1.76758)">
<stop stop-color="white"/>
<stop offset="1" stop-color="#FED5AB"/>
</radialGradient>
<radialGradient id="paint1_radial_9270_3093" cx="0" cy="0" r="1" gradientUnits="userSpaceOnUse" gradientTransform="translate(41.1644 121.196) scale(1.76759 1.76759)">
<stop stop-color="white"/>
<stop offset="1" stop-color="#FED5AB"/>
</radialGradient>
<linearGradient id="paint2_linear_9270_3093" x1="114.723" y1="210.146" x2="-29.8768" y2="-21.9476" gradientUnits="userSpaceOnUse">
<stop stop-color="#3079E4"/>
<stop offset="1" stop-color="#D3E7FF"/>
</linearGradient>
<linearGradient id="paint3_linear_9270_3093" x1="48.8936" y1="-13.2206" x2="70.6263" y2="181.402" gradientUnits="userSpaceOnUse">
<stop stop-color="#F2F2F2"/>
<stop offset="1" stop-color="white"/>
</linearGradient>
<linearGradient id="paint4_linear_9270_3093" x1="90.1567" y1="8.31601" x2="60.0932" y2="6.14275" gradientUnits="userSpaceOnUse">
<stop stop-color="#E0F2FF"/>
<stop offset="1" stop-color="#7FAAFE"/>
</linearGradient>
<linearGradient id="paint5_linear_9270_3093" x1="90.2368" y1="7.22938" x2="60.1734" y2="5.05612" gradientUnits="userSpaceOnUse">
<stop stop-color="#4C93FE"/>
<stop offset="1" stop-color="#3155D2"/>
</linearGradient>
<linearGradient id="paint6_linear_9270_3093" x1="112.781" y1="48.181" x2="119.829" y2="48.181" gradientUnits="userSpaceOnUse">
<stop stop-color="#8AB8FE"/>
<stop offset="1" stop-color="#3B75CB"/>
</linearGradient>
<linearGradient id="paint7_linear_9270_3093" x1="0" y1="0" x2="21.004" y2="22.1394" gradientUnits="userSpaceOnUse">
<stop stop-color="#CCE1FF"/>
<stop offset="1" stop-color="#CCE1FF" stop-opacity="0"/>
</linearGradient>
<linearGradient id="paint8_linear_9270_3093" x1="0" y1="0" x2="21.004" y2="22.1394" gradientUnits="userSpaceOnUse">
<stop stop-color="#CCE1FF"/>
<stop offset="1" stop-color="#CCE1FF" stop-opacity="0"/>
</linearGradient>
<linearGradient id="paint9_linear_9270_3093" x1="0" y1="0" x2="21.004" y2="22.1394" gradientUnits="userSpaceOnUse">
<stop stop-color="#CCE1FF"/>
<stop offset="1" stop-color="#CCE1FF" stop-opacity="0"/>
</linearGradient>
<linearGradient id="paint10_linear_9270_3093" x1="-2.33958" y1="-1.70303" x2="20.576" y2="24.1781" gradientUnits="userSpaceOnUse">
<stop stop-color="#CCE1FF"/>
<stop offset="1" stop-color="#CCE1FF" stop-opacity="0"/>
</linearGradient>
<linearGradient id="paint11_linear_9270_3093" x1="-2.33958" y1="-1.70303" x2="20.576" y2="24.1781" gradientUnits="userSpaceOnUse">
<stop stop-color="#CCE1FF"/>
<stop offset="1" stop-color="#CCE1FF" stop-opacity="0"/>
</linearGradient>
<linearGradient id="paint12_linear_9270_3093" x1="-2.33958" y1="-1.70303" x2="20.576" y2="24.1781" gradientUnits="userSpaceOnUse">
<stop stop-color="#CCE1FF"/>
<stop offset="1" stop-color="#CCE1FF" stop-opacity="0"/>
</linearGradient>
<linearGradient id="paint13_linear_9270_3093" x1="-19.7312" y1="-18.7333" x2="19.4385" y2="19.8687" gradientUnits="userSpaceOnUse">
<stop stop-color="#CCE1FF"/>
<stop offset="1" stop-color="#CCE1FF" stop-opacity="0"/>
</linearGradient>
<linearGradient id="paint14_linear_9270_3093" x1="-19.7312" y1="-18.7333" x2="19.4385" y2="19.8687" gradientUnits="userSpaceOnUse">
<stop stop-color="#CCE1FF"/>
<stop offset="1" stop-color="#CCE1FF" stop-opacity="0"/>
</linearGradient>
<linearGradient id="paint15_linear_9270_3093" x1="-19.7312" y1="-18.7333" x2="19.4385" y2="19.8687" gradientUnits="userSpaceOnUse">
<stop stop-color="#CCE1FF"/>
<stop offset="1" stop-color="#CCE1FF" stop-opacity="0"/>
</linearGradient>
<linearGradient id="paint16_linear_9270_3093" x1="60.0807" y1="37.4497" x2="78.1462" y2="65.4788" gradientUnits="userSpaceOnUse">
<stop stop-color="#72A5EF"/>
<stop offset="1" stop-color="#ABCDFE" stop-opacity="0"/>
</linearGradient>
<linearGradient id="paint17_linear_9270_3093" x1="127.432" y1="43.475" x2="155.297" y2="66.2163" gradientUnits="userSpaceOnUse">
<stop stop-color="#639CED"/>
<stop offset="1" stop-color="#639CED" stop-opacity="0"/>
</linearGradient>
<linearGradient id="paint18_linear_9270_3093" x1="135.772" y1="105.942" x2="130.473" y2="98.6851" gradientUnits="userSpaceOnUse">
<stop stop-color="#FFBCA0" stop-opacity="0"/>
<stop offset="0.99" stop-color="#BC5A32"/>
</linearGradient>
<linearGradient id="paint19_linear_9270_3093" x1="126.488" y1="82.2782" x2="129.117" y2="76.9361" gradientUnits="userSpaceOnUse">
<stop stop-color="#BC5A32" stop-opacity="0"/>
<stop offset="0.99" stop-color="#FB9D76"/>
</linearGradient>
<linearGradient id="paint20_linear_9270_3093" x1="134.61" y1="70.6547" x2="121.892" y2="101.156" gradientUnits="userSpaceOnUse">
<stop stop-color="#F3885B"/>
<stop offset="1" stop-color="#FECCB7"/>
</linearGradient>
<linearGradient id="paint21_linear_9270_3093" x1="139.921" y1="91.6717" x2="139.851" y2="88.8684" gradientUnits="userSpaceOnUse">
<stop stop-color="#CC7A5E" stop-opacity="0"/>
<stop offset="0.924" stop-color="#AA5F4B"/>
</linearGradient>
<linearGradient id="paint22_linear_9270_3093" x1="130.531" y1="65.8385" x2="138.5" y2="98.5" gradientUnits="userSpaceOnUse">
<stop stop-color="#321011"/>
<stop offset="1" stop-color="#A76D6F"/>
</linearGradient>
<linearGradient id="paint23_linear_9270_3093" x1="127.346" y1="102.991" x2="156.845" y2="195.421" gradientUnits="userSpaceOnUse">
<stop stop-color="#FAC45C"/>
<stop offset="1" stop-color="white"/>
</linearGradient>
<linearGradient id="paint24_linear_9270_3093" x1="-12.7919" y1="-20.6107" x2="12.6574" y2="26.6655" gradientUnits="userSpaceOnUse">
<stop stop-color="#5F97FA"/>
<stop offset="1" stop-color="#D2E2FE"/>
</linearGradient>
<linearGradient id="paint25_linear_9270_3093" x1="88.5243" y1="119.746" x2="99.7296" y2="149.679" gradientUnits="userSpaceOnUse">
<stop stop-color="#F9BD49"/>
<stop offset="0.453125" stop-color="#FFE092"/>
<stop offset="1" stop-color="#F8FAFF" stop-opacity="0"/>
</linearGradient>
<linearGradient id="paint26_linear_9270_3093" x1="116.431" y1="103.245" x2="134.884" y2="135.762" gradientUnits="userSpaceOnUse">
<stop stop-color="#FDBFA6"/>
<stop offset="1" stop-color="#FFF4F0" stop-opacity="0.61"/>
</linearGradient>
<linearGradient id="paint27_linear_9270_3093" x1="119.474" y1="134.014" x2="169.718" y2="134.778" gradientUnits="userSpaceOnUse">
<stop stop-color="#F5BE2F"/>
<stop offset="0.520833" stop-color="#F8D680"/>
<stop offset="1" stop-color="#FFFFFB" stop-opacity="0.01"/>
</linearGradient>
<linearGradient id="paint28_linear_9270_3093" x1="151.048" y1="60" x2="175.386" y2="83.5396" gradientUnits="userSpaceOnUse">
<stop stop-color="#92BAF2"/>
<stop offset="1" stop-color="#92BAF2" stop-opacity="0"/>
</linearGradient>
</defs>
</svg>
