<svg width="180" height="187" viewBox="0 0 180 187" fill="none" xmlns="http://www.w3.org/2000/svg">
<path d="M94.9065 152.294C94.901 152.629 94.7967 152.955 94.6066 153.232C94.4165 153.508 94.1491 153.722 93.8379 153.846C93.5267 153.971 93.1856 154.001 92.8573 153.933C92.5291 153.865 92.2283 153.701 91.9927 153.463C91.757 153.224 91.597 152.921 91.5328 152.592C91.4685 152.263 91.5028 151.923 91.6314 151.613C91.76 151.303 91.9772 151.039 92.2556 150.852C92.5341 150.665 92.8615 150.565 93.1968 150.563C93.4236 150.561 93.6485 150.605 93.8582 150.692C94.0679 150.778 94.2581 150.906 94.4175 151.067C94.5769 151.229 94.7023 151.42 94.7863 151.631C94.8704 151.842 94.9112 152.067 94.9065 152.294Z" fill="url(#paint0_radial_9270_5804)"/>
<path d="M99.3934 118.838C100.334 118.838 101.096 118.076 101.096 117.136C101.096 116.195 100.334 115.433 99.3934 115.433C98.453 115.433 97.6907 116.195 97.6907 117.136C97.6907 118.076 98.453 118.838 99.3934 118.838Z" fill="url(#paint1_radial_9270_5804)"/>
<path d="M164.538 0.0698746C164.075 0.0216611 163.609 -0.00163397 163.143 8.89981e-05H101.836C94.0824 8.89981e-05 86.6851 6.28083 85.3173 14.041L59.6988 159.203C59.413 160.868 59.3754 162.566 59.5872 164.241C59.5872 164.241 61.6319 179.162 76.0357 179.029H137.371C145.124 179.029 152.521 172.748 153.889 164.981L179.486 19.8263C179.576 19.2994 179.639 18.7684 179.675 18.2352C182.627 0.977095 164.538 0.0698746 164.538 0.0698746Z" fill="url(#paint2_linear_9270_5804)"/>
<path d="M132.799 172.023H72.1973C64.5209 172.023 59.4125 165.805 60.7594 158.135L86.0638 14.6623C87.4107 6.98585 94.7242 0.774902 102.394 0.774902H162.982C170.658 0.774902 175.767 6.99283 174.42 14.6623L149.129 158.135C147.783 165.805 140.469 172.023 132.799 172.023Z" fill="white"/>
<path d="M171.664 14.934L146.492 157.709C145.355 164.171 139.193 169.412 132.731 169.412H73.1891C66.7269 169.412 62.4142 164.171 63.5517 157.709L88.7305 14.934C89.8959 8.31135 96.2185 2.95178 102.848 2.95178H107.615C108.227 2.92759 108.827 3.12656 109.303 3.51169C109.779 3.89681 110.099 4.44184 110.204 5.04536L111.104 9.78383C111.213 10.3154 111.507 10.7911 111.934 11.1259C112.361 11.4608 112.893 11.6332 113.435 11.6122H148.118C148.739 11.5904 149.344 11.4054 149.87 11.0758C150.397 10.7463 150.828 10.2838 151.119 9.73498L153.68 5.00349C154 4.39247 154.476 3.87693 155.059 3.50923C155.643 3.14153 156.313 2.93476 157.002 2.90991H161.768C168.412 2.95178 172.837 8.31135 171.664 14.934Z" fill="url(#paint3_linear_9270_5804)"/>
<path d="M139.952 8.19973H120.447C120.28 8.20504 120.113 8.17183 119.96 8.10268C119.808 8.03352 119.673 7.93026 119.567 7.80084C119.46 7.67141 119.385 7.51928 119.346 7.35614C119.308 7.19301 119.307 7.02322 119.345 6.85984C119.421 6.49339 119.617 6.163 119.903 5.92141C120.189 5.67981 120.548 5.54093 120.922 5.52693H140.399C140.566 5.52049 140.733 5.55268 140.885 5.621C141.038 5.68932 141.173 5.79193 141.28 5.92087C141.386 6.0498 141.462 6.20159 141.5 6.36443C141.539 6.52728 141.539 6.69681 141.502 6.85984C141.429 7.22367 141.238 7.55295 140.957 7.79562C140.676 8.03829 140.323 8.18049 139.952 8.19973Z" fill="url(#paint4_linear_9270_5804)"/>
<path d="M146.269 6.85984C146.197 7.22757 146.002 7.56007 145.717 7.80332C145.432 8.04658 145.073 8.18628 144.699 8.19973C144.531 8.20646 144.364 8.1742 144.21 8.10549C144.057 8.03678 143.921 7.93349 143.815 7.80371C143.708 7.67392 143.633 7.52117 143.595 7.35741C143.557 7.19366 143.557 7.02335 143.596 6.85984C143.671 6.49396 143.866 6.16374 144.151 5.92206C144.436 5.68039 144.793 5.54125 145.166 5.52693C145.334 5.52049 145.5 5.55268 145.653 5.621C145.806 5.68932 145.94 5.79193 146.047 5.92087C146.154 6.0498 146.229 6.20159 146.268 6.36443C146.306 6.52728 146.307 6.69681 146.269 6.85984Z" fill="url(#paint5_linear_9270_5804)"/>
<path d="M174.267 34.5997L174.302 34.4043H173.548C173.102 34.4195 172.675 34.585 172.336 34.8739C171.996 35.1627 171.764 35.558 171.678 35.9954L168.147 56.024C168.014 56.7847 168.035 58.2292 169.542 58.4246H170.38L170.212 57.6151L170.247 57.4197C170.525 57.2887 170.769 57.0941 170.958 56.8517C171.147 56.6092 171.276 56.3257 171.336 56.024L174.846 35.9954C174.908 35.7314 174.886 35.4545 174.782 35.204C174.678 34.9534 174.498 34.742 174.267 34.5997Z" fill="url(#paint6_linear_9270_5804)"/>
<path d="M170.254 58.4037C168.9 58.2083 168.739 56.9033 168.893 56.024L172.424 35.9954C172.513 35.558 172.747 35.1633 173.087 34.8747C173.428 34.5861 173.855 34.4204 174.301 34.4043C175.181 34.4043 175.816 35.9047 175.662 36.784L172.124 56.8126C171.971 57.6919 171.175 58.5712 170.254 58.4037Z" fill="#FDFBF9"/>
<path fill-rule="evenodd" clip-rule="evenodd" d="M106.695 123.01L106.903 121.765C107.201 119.979 107.672 118.703 108.403 117.884C109.034 117.177 110.114 116.538 112.317 116.538C114.52 116.538 115.387 117.177 115.782 117.884C116.24 118.703 116.285 119.979 115.988 121.765L115.78 123.01H106.695ZM105.177 123.035L105.389 121.765C106.007 118.058 107.519 115.045 112.566 115.045C117.613 115.045 118.12 118.058 117.502 121.765L117.29 123.035C120.461 123.211 120.097 124.361 119.492 127.988L119.159 129.979C118.495 133.962 118.329 134.958 114.292 134.958H104.198C100.16 134.958 100.326 133.962 100.991 129.979L101.323 127.988C101.928 124.361 101.947 123.211 105.177 123.035ZM110.403 127.988C109.845 127.988 109.319 128.434 109.227 128.984C109.136 129.534 109.513 129.979 110.071 129.979H110.08C110.637 129.979 111.163 129.534 111.255 128.984C111.347 128.434 110.969 127.988 110.412 127.988H110.403Z" fill="url(#paint7_linear_9270_5804)"/>
<path d="M150.684 22.2446H108.958C105.874 22.2446 102.983 24.7099 102.501 27.751L95.7781 70.1994C95.2964 73.2405 97.4062 75.7058 100.49 75.7058H142.217C145.301 75.7058 148.192 73.2405 148.673 70.1994L155.397 27.751C155.878 24.7099 153.768 22.2446 150.684 22.2446Z" fill="#669AE2"/>
<path d="M148.54 22.207H106.814C103.73 22.207 100.839 24.6723 100.357 27.7134L93.634 70.1618C93.1524 73.2029 95.2621 75.6682 98.3463 75.6682H140.073C143.157 75.6682 146.048 73.2029 146.529 70.1618L153.253 27.7134C153.734 24.6723 151.624 22.207 148.54 22.207Z" fill="url(#paint8_linear_9270_5804)"/>
<path d="M148.205 36.7418H146.679L147.273 32.9878C147.437 31.9435 147.178 30.9424 146.551 30.204C145.924 29.4656 144.981 29.0502 143.93 29.049H140.101L140.34 27.54H144.175C145.629 27.5412 146.933 28.1155 147.8 29.1369C148.668 30.1583 149.027 31.5433 148.799 32.9878L148.205 36.7418Z" fill="white"/>
<path d="M105.735 37.5521H104.229L104.952 32.9838C105.187 31.5111 105.984 30.0992 107.167 29.058C108.351 28.0168 109.825 27.4314 111.266 27.4302H115.154L114.911 28.9685H111.022C109.981 28.9693 108.915 29.3926 108.059 30.1454C107.204 30.8983 106.628 31.9191 106.459 32.9838L105.735 37.5521Z" fill="white"/>
<path d="M108.638 70.5963H104.531C103.063 70.5951 101.755 69.9711 100.893 68.8615C100.031 67.7519 99.6852 66.2472 99.9322 64.6777L100.653 60.1255H102.188L101.467 64.6777C101.288 65.8122 101.538 66.8999 102.161 67.7021C102.784 68.5044 103.73 68.9556 104.79 68.9569H108.898L108.638 70.5963Z" fill="white"/>
<path d="M136.828 70.4857H132.771L133.027 68.8708H137.084C138.155 68.8675 139.252 68.4221 140.134 67.6321C141.015 66.8422 141.61 65.7719 141.789 64.6556L142.524 60.0149H144.073L143.338 64.6556C143.092 66.2004 142.269 67.6816 141.048 68.7745C139.828 69.8674 138.31 70.4828 136.828 70.4857Z" fill="white"/>
<path d="M129.571 46.2876L128.676 58.0799L128.671 60.8703C128.671 60.8703 126.529 62.3851 122.853 62.3224C120.336 62.2819 118.754 61.9666 117.76 61.6398C116.945 61.3543 115.986 60.9376 117.13 59.4868C118.792 57.3228 119.096 55.7767 119.096 55.7767L120.438 48.8866L129.571 46.2876Z" fill="#F2C6B4"/>
<path d="M127.412 52.2864C125.674 53.742 123.523 54.6633 122.235 54.9527C120.427 55.3669 119.277 55.2974 119.277 55.2974L120.13 49.6822L129.237 46.211L129.332 47.0632L129.15 48.3888C129.133 48.4337 129.029 50.9005 127.412 52.2864Z" fill="url(#paint9_linear_9270_5804)"/>
<path d="M127.13 44.1753C127.13 44.1753 124.968 41.1326 123.386 40.4772C120.366 39.1197 117.199 39.2601 117.199 39.2601L117.96 37.6217L126.093 37.2004L128.482 42.2561L127.13 44.1753Z" fill="url(#paint10_linear_9270_5804)"/>
<path d="M130.285 45.7246C129.852 45.7246 129.556 45.3776 129.624 44.9496C129.692 44.5216 130.612 43.3997 131.045 43.3997C131.478 43.3997 131.259 44.5216 131.192 44.9496C131.124 45.3776 130.718 45.7246 130.285 45.7246Z" fill="url(#paint11_linear_9270_5804)"/>
<path fill-rule="evenodd" clip-rule="evenodd" d="M119.522 35.6014C119.522 35.6014 117.788 37.7755 117.387 38.7932C117.008 39.6721 116.821 40.551 116.741 41.0599C116.433 43.0027 116.144 45.732 116.142 47.2585C116.204 49.8953 117.249 51.4681 118.709 51.9307C120.17 52.3932 123.104 51.4218 125.12 50.4966C126.826 49.7102 127.869 48.8776 128.262 47.9061C128.379 47.6095 128.52 47.2893 128.661 46.9845C128.981 47.2474 129.386 47.3995 129.846 47.3995C131.144 47.3995 132.904 45.4101 133.141 43.9121C133.379 42.414 132.004 41.9746 130.705 41.9746C130.331 41.9746 129.961 42.0754 129.619 42.2547L127.239 35L119.522 35.6014Z" fill="url(#paint12_linear_9270_5804)"/>
<path d="M122.526 43.9761C122.16 43.9761 121.908 43.6891 121.964 43.335C122.02 42.9809 122.363 42.6938 122.729 42.6938C123.096 42.6938 123.348 42.9809 123.292 43.335C123.236 43.6891 122.893 43.9761 122.526 43.9761Z" fill="#4F2B23"/>
<path d="M117.653 43.6104C117.286 43.6104 117.035 43.3233 117.091 42.9693C117.147 42.6152 117.489 42.3281 117.856 42.3281C118.223 42.3281 118.474 42.6152 118.418 42.9693C118.362 43.3233 118.019 43.6104 117.653 43.6104Z" fill="#4F2B23"/>
<path d="M119.116 47.2632C119.262 47.2632 119.422 47.1696 119.501 46.9823C119.579 46.7951 119.463 46.6079 119.268 46.6079C119.268 46.6079 118.748 46.5143 118.767 46.093C118.785 45.6717 119.407 44.5015 119.747 43.893C119.874 43.7058 119.806 43.5186 119.619 43.4718C119.44 43.3782 119.23 43.4718 119.152 43.659C119.025 43.8462 118.141 45.4377 118.071 46.1866C118.009 46.8887 118.63 47.2632 119.011 47.31C119.067 47.2632 119.116 47.2632 119.116 47.2632Z" fill="#B4603F"/>
<path d="M126.104 37.7678C126.104 37.7678 125.938 39.414 126.655 40.8772C127.371 42.3405 127.466 42.3405 127.339 42.8435L127.072 45.1298C127.018 45.77 127.689 45.7243 127.926 45.7243C127.973 45.7243 128.653 43.5294 128.653 43.5294C128.653 43.5294 129.096 41.929 131.161 42.0661C132.663 42.1576 133.001 43.6208 133.001 43.6208C133.001 43.6208 134.674 39.6426 135.151 38.7281C135.918 37.1734 135.21 36.2588 134.545 35.6644C133.874 35.1157 133.108 35.1614 133.108 35.1614C133.108 35.1614 133.802 32.875 131.382 31.6861C130.196 31.0917 129.131 31.2289 128.095 31.1832C127.06 31.1374 126.086 31.0002 125.232 31.0002C123.131 31.0917 122.334 32.2349 122.334 32.2349C122.334 32.2349 118.524 30.543 116.532 32.6464C114.546 34.7041 116.004 37.1734 118.226 37.8135C119.846 38.3623 122.283 38.5452 126.104 37.7678Z" fill="#321011"/>
<path d="M118.225 48.755C119.868 49.3277 121.147 48.5045 121.652 47.963C121.784 47.8175 121.789 47.6203 121.644 47.5107C121.498 47.4012 121.285 47.4137 121.153 47.5593C121.13 47.5999 120.121 48.6829 118.562 48.1446C118.394 48.0758 118.178 48.1869 118.11 48.309C117.998 48.5124 118.057 48.6861 118.225 48.755Z" fill="#CF7653"/>
<path d="M124.483 41.4988C124.786 41.2762 124.869 40.8667 124.744 40.6734C124.701 40.6259 124.043 39.5103 122.318 39.78C122.128 39.7931 121.787 39.9174 121.742 40.4252C121.716 40.7298 121.892 40.8691 122.082 40.8561C123.375 40.6664 123.822 41.4937 123.865 41.5412C123.999 41.633 124.28 41.6642 124.483 41.4988ZM117.304 40.9316C117.352 40.9283 117.447 40.9218 117.499 40.8678C117.906 40.537 118.458 40.701 118.506 40.6977C118.691 40.7355 118.89 40.6209 118.951 40.4653C119.129 40.0493 118.914 39.8117 118.776 39.7708C118.728 39.774 117.899 39.5281 117.189 40.0815C117.038 40.1928 116.869 40.5072 117.075 40.8463C117.071 40.8971 117.209 40.9381 117.304 40.9316Z" fill="#4F2B23"/>
<path d="M102.346 65.7709C106.523 68.2975 132.472 69.0928 140.275 65.8255C140.665 63.3881 141.281 58.5963 138.338 56.3528C136.397 54.8645 132.709 52.793 130.119 52.793C129.884 55.2638 116.957 56.1693 117.525 52.1504C115.674 52.2884 114.678 52.2322 112.863 52.522C105.179 53.6466 104.399 60.2627 102.346 65.7709Z" fill="url(#paint13_linear_9270_5804)"/>
<path d="M35.3035 86.6374L33.1913 106.696L32.3425 111.434C32.3425 111.434 35.4869 114.091 41.7005 114.131C45.9528 114.162 48.7161 113.689 50.4911 113.174C51.952 112.721 53.6962 112.052 52.2146 109.543C50.0783 105.803 50.0408 103.165 50.0408 103.165L49.8949 91.4131L35.3035 86.6374Z" fill="#F2C6B4"/>
<path d="M37.0977 96.9101C39.5798 99.4507 42.9201 101.1 45.0026 101.643C47.9211 102.418 49.8805 102.346 49.8805 102.346L50.1675 92.7774L35.8885 86.522L35.4666 87.9651L35.3655 90.2232C35.3809 90.3 34.7982 94.4927 37.0977 96.9101Z" fill="url(#paint14_linear_9270_5804)"/>
<path d="M52.2721 96.2094C45.9909 102.941 36.3442 100.52 32.3061 98.4676C13.1648 102.827 9.65659 113.66 7.47041 121.064C5.28423 128.469 -0.494997 153.286 5.26584 156.845C9.87451 159.692 13.5533 158.604 14.8167 157.704C14.9239 158.389 13.2535 160.604 12.3898 174.715C36.2975 184.973 68.1415 180.236 72.8464 178.632C72.991 177.023 68.9901 137.577 67.1929 121.875C75.1923 124.959 92.4969 130.13 97.7204 126.141C104.25 121.154 107.566 101.182 107.013 96.0654C105.319 92.3658 100.976 89.9482 94.3956 89.8631C90.8891 92.7909 86.8831 102.025 85.3183 106.276C83.8103 106.14 79.441 105.139 74.0281 102.22C63.4666 95.696 59.0332 94.2839 52.2721 96.2094Z" fill="url(#paint15_linear_9270_5804)"/>
<path opacity="0.6" d="M59.5 68.8184L105.499 66.3181L106.866 74.0296C100.787 76.9694 80.2748 91.5307 64.0003 96.3184C56.2367 93.7666 58.3148 73.7774 59.5 68.8184Z" fill="url(#paint16_linear_9270_5804)"/>
<path fill-rule="evenodd" clip-rule="evenodd" d="M50.63 64.4086C50.63 64.4086 53.6543 67.5834 54.3906 69.2053C55.0806 70.5953 55.4536 72.0486 55.6237 72.8992C56.2733 76.1469 56.9482 80.7567 57.0624 83.3877C57.1518 87.9537 55.5387 91.0106 53.1583 92.2909C50.778 93.5711 45.8585 92.8663 42.4596 91.9377C39.5824 91.146 37.7989 90.0552 37.078 88.5106C36.8634 88.038 36.6074 87.5327 36.3522 87.0539C35.8414 87.6131 35.1836 88.0091 34.424 88.161C32.2776 88.5903 29.2247 85.7424 28.7239 83.2382C28.223 80.7341 30.4638 79.522 32.6102 79.0927C33.2284 78.9691 33.8466 79.0205 34.4254 79.2164L37.8331 65.9226L50.63 64.4086Z" fill="url(#paint17_linear_9270_5804)"/>
<path d="M47.0398 79.6371C47.6457 79.5159 48.0409 78.9379 47.9226 78.346C47.8042 77.7541 47.217 77.3725 46.6111 77.4937C46.0052 77.6149 45.6099 78.193 45.7283 78.7848C45.8467 79.3767 46.4339 79.7583 47.0398 79.6371Z" fill="#4F2B23"/>
<path d="M55.0682 77.3964C55.6741 77.2752 56.0693 76.6971 55.9509 76.1053C55.8326 75.5134 55.2454 75.1318 54.6395 75.253C54.0335 75.3742 53.6383 75.9522 53.7567 76.5441C53.8751 77.136 54.4623 77.5176 55.0682 77.3964Z" fill="#4F2B23"/>
<path d="M53.1242 84.3406C52.8832 84.3888 52.6109 84.2806 52.4679 83.9837C52.325 83.6868 52.5034 83.3256 52.8248 83.2613C52.8248 83.2613 53.6772 82.928 53.6167 82.2078C53.5562 81.4875 52.4419 79.6761 51.8368 78.7392C51.6135 78.4584 51.7116 78.1133 52.0173 77.9708C52.3074 77.75 52.66 77.8422 52.803 78.1391C53.0263 78.42 54.6028 80.8713 54.7728 82.1393C54.9272 83.329 53.9276 84.1799 53.3005 84.3867C53.2046 84.3246 53.1242 84.3406 53.1242 84.3406Z" fill="#B4603F"/>
<path d="M40.2357 70.4716C40.2357 70.4716 40.6294 73.2547 39.5513 76.0142C38.4732 78.7736 38.3165 78.805 38.563 79.6301L39.1707 83.4833C39.3063 84.5691 38.1939 84.7121 37.8021 84.7905C37.7237 84.8062 36.4413 81.2469 36.4413 81.2469C36.4413 81.2469 35.5928 78.6343 32.1906 79.5533C29.7135 80.2077 29.2623 82.8418 29.2623 82.8418C29.2623 82.8418 26.2082 76.5366 25.3539 75.1175C23.9721 72.6911 25.0769 70.8802 26.132 69.6358C27.2024 68.4677 28.4715 68.2934 28.4715 68.2934C28.4715 68.2934 27.1585 64.5813 31.0712 61.7318C32.9883 60.315 34.7582 60.1995 36.4669 59.7782C38.1757 59.3569 39.7755 58.7985 41.1861 58.5163C44.6648 57.9796 46.0657 59.6867 46.0657 59.6867C46.0657 59.6867 52.2395 55.5106 55.6855 58.4781C59.1163 61.3692 56.8856 66.1081 53.2597 67.9462C50.622 69.4277 46.6082 70.5485 40.2357 70.4716Z" fill="#321011"/>
<path d="M51.2282 87.4953C48.1815 87.9529 46.5168 86.2367 45.9802 85.2055C45.8424 84.9295 45.9429 84.6058 46.2459 84.4693C46.5489 84.3328 46.8958 84.4152 47.0336 84.6913C47.0482 84.7642 48.1213 86.8265 51.0093 86.4007C51.3269 86.3372 51.6235 86.5814 51.6673 86.8003C51.7403 87.1652 51.5459 87.4318 51.2282 87.4953Z" fill="#CF7653"/>
<path d="M43.3815 76.7718C42.8461 76.5249 42.6321 75.8598 42.7977 75.4728C42.8586 75.3721 43.7135 73.1659 46.5687 72.8603C46.8803 72.798 47.4596 72.8591 47.6297 73.7099C47.7318 74.2204 47.4713 74.538 47.1597 74.6003C45.0226 74.8508 44.455 76.4686 44.3942 76.5692C44.1945 76.7861 43.7442 76.9647 43.3815 76.7718ZM54.9419 72.6014C54.864 72.617 54.7082 72.6481 54.6133 72.5786C53.8881 72.1928 53.0214 72.72 52.9435 72.7356C52.649 72.883 52.3034 72.7752 52.1744 72.5355C51.8046 71.9016 52.109 71.3983 52.3256 71.2665C52.4035 71.2509 53.7035 70.46 54.9642 71.0927C55.2319 71.2161 55.5677 71.6799 55.2974 72.3533C55.3144 72.4384 55.0977 72.5702 54.9419 72.6014Z" fill="#4F2B23"/>
<path d="M109.784 81.8759L109.739 81.7566C111.061 79.8535 109.571 79.8425 108.544 79.2345C108.726 79.0066 108.857 78.7494 108.928 78.4803C108.999 78.2113 109.008 77.9369 108.954 77.6759C108.406 75.286 104.829 78.458 103.944 79.2023C102.825 80.1437 101.882 81.1196 100.631 81.9166C98.0686 83.5499 98.5545 78.3039 97.2897 78.3585C96.2896 78.4016 96.2265 80.6271 96.2634 81.5372C96.2968 82.2724 96.3388 82.9992 96.2961 83.7272C96.226 84.3931 96.3163 85.0503 96.5602 85.6498C96.7546 86.0809 96.9905 86.4915 97.2653 86.8769C97.3955 87.0262 97.4815 87.2068 97.5157 87.4031C97.6185 89.1399 96.9531 91.4496 96.7059 93.0013L104.306 96.2132C104.757 95.6404 107.915 88.1754 108.282 87.6461C108.534 87.2786 108.851 86.9591 109.122 86.6081C109.639 85.9486 110.257 85.3085 110.73 84.6229C111.132 84.0361 111.438 83.2934 111.208 82.641C111.17 82.5284 111.116 82.422 111.048 82.3244C110.782 81.9309 110.312 81.6592 109.784 81.8759Z" fill="#FEDCBE"/>
<path fill-rule="evenodd" clip-rule="evenodd" d="M105.837 67.4797C105.722 67.0964 105.461 66.7732 105.11 66.5792C104.759 66.3852 104.345 66.3356 103.958 66.441C101.024 67.2437 94.3763 69.0488 91.3188 69.8888C91.115 69.9429 90.9247 70.0386 90.7599 70.1698C90.595 70.301 90.4593 70.4648 90.3611 70.6509C90.263 70.837 90.2042 71.0412 90.1883 71.2508C90.1725 71.4604 90.1999 71.671 90.2688 71.8697C91.0895 76.9711 92.5668 89.8516 94.0677 94.1321C94.1949 94.5009 94.4586 94.8073 94.805 94.9885C95.1513 95.1698 95.554 95.2122 95.9308 95.1071C98.6863 94.3553 104.827 92.6613 107.691 91.873C107.89 91.8188 108.075 91.7254 108.237 91.5983C108.398 91.4712 108.533 91.313 108.632 91.1332C108.731 90.9534 108.793 90.7555 108.814 90.5514C108.835 90.3473 108.815 90.141 108.755 89.9448C108.349 85.29 106.77 72.8641 105.837 67.4797Z" fill="url(#paint18_linear_9270_5804)"/>
<path d="M36.9405 122.682C36.6111 124.443 34.8871 127.52 34.0663 128.838C34.2867 130.344 39.0496 131.353 42.2597 131.072C43.285 130.195 44.3964 128.474 46.054 126.902C47.6255 126.174 48.8905 124.783 49.5228 124.088C50.155 123.393 51.0554 122.029 50.5417 121.414C50.019 120.788 49.0817 121.077 47.9031 121.623C48.6888 121.259 50.4773 120.041 49.6159 119.055C48.7545 118.068 47.2206 119.125 46.8277 119.307C47.8529 118.43 52.8435 114.793 51.8163 113.562C50.963 112.54 43.6971 118.144 44.1845 117.718C44.8928 117.098 49.0446 112.744 48.0687 110.949C47.1732 109.303 41.6243 116.16 40.0712 117.627C38.1868 119.407 37.3524 120.481 36.9405 122.682Z" fill="url(#paint19_linear_9270_5804)"/>
<path d="M35.917 121.596C22.872 126.909 17.0916 130.545 12.4434 134.687C-4.08356 149.417 3.7834 157.725 9.31282 158.223C26.1665 160.144 38.5254 141.425 42.5981 131.825C42.8411 131.002 41.8449 127.805 35.917 121.596Z" fill="url(#paint20_linear_9270_5804)"/>
<rect x="103" y="69" width="2" height="2" rx="1" fill="#D9D9D9"/>
<defs>
<radialGradient id="paint0_radial_9270_5804" cx="0" cy="0" r="1" gradientUnits="userSpaceOnUse" gradientTransform="translate(92.9107 151.875) scale(1.70278 1.70277)">
<stop stop-color="white"/>
<stop offset="1" stop-color="#FED5AB"/>
</radialGradient>
<radialGradient id="paint1_radial_9270_5804" cx="0" cy="0" r="1" gradientUnits="userSpaceOnUse" gradientTransform="translate(99.1073 116.752) scale(1.70278 1.70278)">
<stop stop-color="white"/>
<stop offset="1" stop-color="#FED5AB"/>
</radialGradient>
<linearGradient id="paint2_linear_9270_5804" x1="169.969" y1="202.441" x2="30.6708" y2="-21.1429" gradientUnits="userSpaceOnUse">
<stop stop-color="#3079E4"/>
<stop offset="1" stop-color="#D3E7FF"/>
</linearGradient>
<linearGradient id="paint3_linear_9270_5804" x1="106.554" y1="-12.7361" x2="127.49" y2="174.751" gradientUnits="userSpaceOnUse">
<stop stop-color="#F2F2F2"/>
<stop offset="1" stop-color="white"/>
</linearGradient>
<linearGradient id="paint4_linear_9270_5804" x1="146.303" y1="8.01131" x2="117.342" y2="5.91773" gradientUnits="userSpaceOnUse">
<stop stop-color="#E0F2FF"/>
<stop offset="1" stop-color="#7FAAFE"/>
</linearGradient>
<linearGradient id="paint5_linear_9270_5804" x1="146.381" y1="6.96452" x2="117.419" y2="4.87094" gradientUnits="userSpaceOnUse">
<stop stop-color="#4C93FE"/>
<stop offset="1" stop-color="#3155D2"/>
</linearGradient>
<linearGradient id="paint6_linear_9270_5804" x1="168.098" y1="46.4145" x2="174.888" y2="46.4145" gradientUnits="userSpaceOnUse">
<stop stop-color="#8AB8FE"/>
<stop offset="1" stop-color="#3B75CB"/>
</linearGradient>
<linearGradient id="paint7_linear_9270_5804" x1="104.063" y1="111.56" x2="121.466" y2="138.561" gradientUnits="userSpaceOnUse">
<stop stop-color="#72A5EF"/>
<stop offset="1" stop-color="#ABCDFE" stop-opacity="0"/>
</linearGradient>
<linearGradient id="paint8_linear_9270_5804" x1="127.677" y1="22.207" x2="127.677" y2="75.6682" gradientUnits="userSpaceOnUse">
<stop stop-color="#A2C8FF"/>
<stop offset="1" stop-color="#D7E7FF" stop-opacity="0"/>
</linearGradient>
<linearGradient id="paint9_linear_9270_5804" x1="124.937" y1="53.4811" x2="122.991" y2="49.0497" gradientUnits="userSpaceOnUse">
<stop stop-color="#FFBCA0" stop-opacity="0"/>
<stop offset="0.99" stop-color="#BC5A32"/>
</linearGradient>
<linearGradient id="paint10_linear_9270_5804" x1="122.733" y1="40.7815" x2="124.343" y2="37.4074" gradientUnits="userSpaceOnUse">
<stop stop-color="#BC5A32" stop-opacity="0"/>
<stop offset="0.99" stop-color="#FB9D76"/>
</linearGradient>
<linearGradient id="paint11_linear_9270_5804" x1="130.312" y1="45.9925" x2="130.215" y2="44.3559" gradientUnits="userSpaceOnUse">
<stop stop-color="#CC7A5E" stop-opacity="0"/>
<stop offset="0.924" stop-color="#AA5F4B"/>
</linearGradient>
<linearGradient id="paint12_linear_9270_5804" x1="128.252" y1="33.8802" x2="120.692" y2="53.0323" gradientUnits="userSpaceOnUse">
<stop stop-color="#F3885B"/>
<stop offset="1" stop-color="#FECCB7"/>
</linearGradient>
<linearGradient id="paint13_linear_9270_5804" x1="121.448" y1="52.1844" x2="136.931" y2="103.949" gradientUnits="userSpaceOnUse">
<stop stop-color="#FAC45C"/>
<stop offset="1" stop-color="white"/>
</linearGradient>
<linearGradient id="paint14_linear_9270_5804" x1="40.9016" y1="99.0369" x2="44.8508" y2="91.2404" gradientUnits="userSpaceOnUse">
<stop stop-color="#FFBCA0" stop-opacity="0"/>
<stop offset="0.99" stop-color="#BC5A32"/>
</linearGradient>
<linearGradient id="paint15_linear_9270_5804" x1="18.4677" y1="105.838" x2="54.088" y2="201.268" gradientUnits="userSpaceOnUse">
<stop stop-color="#FBCE75"/>
<stop offset="1" stop-color="#FFFAF0"/>
</linearGradient>
<linearGradient id="paint16_linear_9270_5804" x1="99.4333" y1="74.6074" x2="48.7245" y2="86.2624" gradientUnits="userSpaceOnUse">
<stop stop-color="#F2D15C"/>
<stop offset="1" stop-color="white" stop-opacity="0.53"/>
</linearGradient>
<linearGradient id="paint17_linear_9270_5804" x1="36.0765" y1="64.3272" x2="53.6481" y2="92.5507" gradientUnits="userSpaceOnUse">
<stop stop-color="#F3885B"/>
<stop offset="1" stop-color="#FECCB7"/>
</linearGradient>
<linearGradient id="paint18_linear_9270_5804" x1="81.9999" y1="70" x2="126.5" y2="90" gradientUnits="userSpaceOnUse">
<stop stop-color="#2066C6"/>
<stop offset="1" stop-color="#DEE3E9"/>
</linearGradient>
<linearGradient id="paint19_linear_9270_5804" x1="54.1013" y1="88.163" x2="50.2157" y2="135.869" gradientUnits="userSpaceOnUse">
<stop stop-color="#FDBFA6"/>
<stop offset="1" stop-color="#FFF4F0"/>
</linearGradient>
<linearGradient id="paint20_linear_9270_5804" x1="38.5002" y1="124.5" x2="7.50024" y2="150.5" gradientUnits="userSpaceOnUse">
<stop stop-color="#FDC064"/>
<stop offset="1" stop-color="#FDC064" stop-opacity="0"/>
</linearGradient>
</defs>
</svg>
