<svg width="174" height="188" viewBox="0 0 174 188" fill="none" xmlns="http://www.w3.org/2000/svg">
<path d="M80.835 158.223C80.8293 158.571 80.7209 158.91 80.5234 159.197C80.3259 159.484 80.0481 159.706 79.7248 159.836C79.4015 159.966 79.0471 159.997 78.706 159.926C78.365 159.855 78.0525 159.685 77.8077 159.437C77.5629 159.19 77.3967 158.875 77.3299 158.533C77.2632 158.191 77.2988 157.837 77.4324 157.516C77.566 157.194 77.7916 156.919 78.0809 156.725C78.3702 156.531 78.7104 156.427 79.0587 156.425C79.2944 156.423 79.528 156.468 79.7459 156.558C79.9637 156.648 80.1613 156.781 80.3269 156.949C80.4926 157.116 80.6229 157.315 80.7101 157.534C80.7974 157.753 80.8399 157.987 80.835 158.223Z" fill="url(#paint0_radial_9270_2571)"/>
<path d="M85.4972 123.466C86.4742 123.466 87.2663 122.674 87.2663 121.697C87.2663 120.72 86.4742 119.927 85.4972 119.927C84.5202 119.927 83.7281 120.72 83.7281 121.697C83.7281 122.674 84.5202 123.466 85.4972 123.466Z" fill="url(#paint1_radial_9270_2571)"/>
<path d="M153.178 0.072595C152.697 0.0225044 152.213 -0.00169758 151.728 9.2463e-05H88.0344C79.9793 9.2463e-05 72.294 6.52535 70.873 14.5877L44.2571 165.401C43.9602 167.131 43.9211 168.895 44.1411 170.636C44.1411 170.636 46.2655 186.137 61.2301 185.999H124.953C133.008 185.999 140.693 179.474 142.114 171.404L168.708 20.5982C168.801 20.0508 168.867 19.4991 168.904 18.9451C171.971 1.01514 153.178 0.072595 153.178 0.072595Z" fill="url(#paint2_linear_9270_2571)"/>
<path d="M120.204 178.72H57.2429C49.2676 178.72 43.9604 172.26 45.3597 164.292L71.6493 15.2332C73.0486 7.25787 80.6469 0.805115 88.615 0.805115H151.562C159.537 0.805115 164.845 7.26513 163.445 15.2332L137.17 164.292C135.771 172.26 128.173 178.72 120.204 178.72Z" fill="white"/>
<path d="M160.581 15.5154L134.429 163.849C133.248 170.563 126.846 176.008 120.132 176.008H58.2724C51.5586 176.008 47.0779 170.563 48.2597 163.849L74.4188 15.5154C75.6295 8.63483 82.1983 3.0666 89.0861 3.0666H94.038C94.6739 3.04147 95.2972 3.24819 95.792 3.6483C96.2868 4.04842 96.6194 4.61467 96.7279 5.24169L97.6632 10.1646C97.7762 10.7169 98.0817 11.2111 98.5252 11.559C98.9688 11.9069 99.5215 12.086 100.085 12.0642H136.119C136.764 12.0415 137.392 11.8493 137.939 11.5069C138.486 11.1646 138.934 10.6841 139.236 10.1139L141.897 5.19819C142.229 4.56338 142.724 4.02777 143.33 3.64575C143.936 3.26373 144.632 3.04891 145.348 3.0231H150.3C157.203 3.0666 161.799 8.63483 160.581 15.5154Z" fill="url(#paint3_linear_9270_2571)"/>
<path d="M127.636 8.519H107.371C107.197 8.52451 107.024 8.49002 106.865 8.41817C106.707 8.34632 106.567 8.23904 106.456 8.10458C106.345 7.97012 106.267 7.81206 106.227 7.64257C106.187 7.47308 106.187 7.29668 106.225 7.12695C106.305 6.74623 106.509 6.40298 106.806 6.15198C107.103 5.90098 107.475 5.75669 107.864 5.74214H128.1C128.273 5.73545 128.446 5.76889 128.605 5.83987C128.764 5.91086 128.904 6.01746 129.015 6.15142C129.125 6.28537 129.204 6.44306 129.244 6.61225C129.284 6.78144 129.284 6.95756 129.245 7.12695C129.17 7.50493 128.971 7.84704 128.679 8.09916C128.388 8.35127 128.02 8.49901 127.636 8.519Z" fill="url(#paint4_linear_9270_2571)"/>
<path d="M134.196 7.12649C134.121 7.50841 133.919 7.85375 133.623 8.10639C133.327 8.35903 132.955 8.50412 132.566 8.51809C132.391 8.52508 132.218 8.49158 132.058 8.42022C131.899 8.34886 131.758 8.24158 131.647 8.10678C131.536 7.97199 131.458 7.81334 131.419 7.64327C131.379 7.47319 131.38 7.29632 131.42 7.12649C131.498 6.74649 131.701 6.40352 131.997 6.15252C132.292 5.90152 132.664 5.75702 133.051 5.74214C133.225 5.73545 133.398 5.76888 133.556 5.83984C133.715 5.9108 133.855 6.01737 133.966 6.15128C134.077 6.28519 134.155 6.44283 134.195 6.61197C134.235 6.7811 134.236 6.95716 134.196 7.12649Z" fill="url(#paint5_linear_9270_2571)"/>
<path d="M163.286 35.9464L163.322 35.7434H162.539C162.076 35.7592 161.632 35.9311 161.279 36.2313C160.927 36.5314 160.686 36.9421 160.596 37.3965L156.927 58.2048C156.79 58.9951 156.811 60.4959 158.377 60.6989H159.247L159.073 59.8579L159.11 59.6549C159.399 59.5188 159.652 59.3166 159.848 59.0647C160.045 58.8129 160.179 58.5183 160.241 58.2048L163.888 37.3965C163.952 37.1222 163.929 36.8345 163.821 36.5742C163.713 36.3139 163.526 36.0943 163.286 35.9464Z" fill="url(#paint6_linear_9270_2571)"/>
<path d="M159.117 60.6772C157.711 60.4742 157.544 59.1184 157.703 58.2048L161.372 37.3965C161.464 36.9421 161.707 36.532 162.061 36.2321C162.414 35.9323 162.859 35.7602 163.322 35.7434C164.236 35.7434 164.896 37.3023 164.736 38.2158L161.06 59.0241C160.901 59.9377 160.074 60.8512 159.117 60.6772Z" fill="#FDFBF9"/>
<path d="M104.96 74.933C118.355 74.933 131.267 64.2624 133.799 51.0996C136.332 37.9368 127.526 27.2662 114.13 27.2662C100.735 27.2662 87.8231 37.9368 85.2907 51.0996C82.7583 64.2624 91.5645 74.933 104.96 74.933Z" fill="url(#paint7_linear_9270_2571)"/>
<path d="M108.64 67.393C107.427 67.3952 106.26 67.2043 105.182 66.8278C102.264 65.7989 100.201 63.4668 99.216 60.0841C97.5257 54.2828 97.6817 52.0828 97.9405 48.4383C97.9774 47.9122 98.0162 47.3678 98.0514 46.776C98.2979 43.7008 99.5373 40.9431 101.635 38.7972C103.612 36.7758 106.231 35.4635 109.008 35.1019C111.743 34.7454 114.055 35.328 115.694 36.7883C117.367 38.2785 118.215 40.5874 118.147 43.4664L118.121 44.1214C117.959 48.3394 117.885 50.2643 119.19 54.4789C120.07 57.323 119.888 59.9802 118.668 62.1652C117.626 64.0244 115.899 65.4507 113.539 66.404C111.932 67.0585 110.262 67.3957 108.64 67.393ZM110.392 35.7178C109.924 35.7186 109.45 35.7505 108.974 35.8134C103.438 36.5348 99.2525 41.008 98.7971 46.6896C98.7622 47.2797 98.7233 47.8249 98.6862 48.3518C98.4326 51.9257 98.2795 54.08 99.9385 59.7757C101.345 64.6037 104.97 66.6741 108.821 66.6741C110.326 66.6749 111.875 66.3595 113.364 65.749C115.522 64.8788 117.091 63.5881 118.026 61.9217C119.145 59.927 119.3 57.4618 118.475 54.7981C117.139 50.4837 117.215 48.5239 117.379 44.2302L117.404 43.5811C117.518 38.6833 114.81 35.7178 110.392 35.7178Z" fill="#4B8AE4"/>
<path d="M108.583 66.1193C107.524 66.1206 106.504 65.9507 105.565 65.6165C103.815 64.9907 101.517 63.4847 100.504 59.8559C98.8616 53.9632 99.0262 51.4017 99.2765 47.5245C99.3031 47.1089 99.3312 46.6776 99.3574 46.2246C99.4871 44.0204 100.547 41.7997 102.337 39.9695C104.124 38.1467 106.437 36.9147 108.824 36.5137C111.078 36.1305 113.101 36.5569 114.519 37.7138C115.981 38.9073 116.738 40.8098 116.648 43.0721C116.456 47.8927 116.42 50.411 117.786 54.8118C118.545 57.2612 118.362 59.5883 117.26 61.5382C116.336 63.1755 114.777 64.4654 112.754 65.2666C111.388 65.8315 109.965 66.1224 108.583 66.1193ZM110.297 37.0905C109.81 37.0913 109.316 37.1346 108.82 37.2201C104.258 37.9964 100.347 41.9933 100.104 46.1315C100.076 46.5853 100.049 47.0183 100.022 47.4355C99.7759 51.2463 99.6131 53.7629 101.227 59.5551C102.816 65.2533 108.261 66.4144 112.578 64.6142H112.585C114.434 63.8828 115.792 62.7657 116.622 61.2946C117.604 59.5567 117.764 57.3684 117.072 55.1326C115.684 50.6445 115.718 47.9484 115.908 43.1818C115.991 41.1131 115.307 39.3794 113.984 38.2998C113.01 37.4977 111.748 37.0905 110.297 37.0905Z" fill="#4B8AE4"/>
<path d="M114.767 49.074C114.685 49.0737 114.61 49.0462 114.556 48.9958C114.501 48.9455 114.469 48.8752 114.465 48.7964C114.391 47.1741 114.448 45.5716 114.543 43.311C114.646 40.8683 113.456 39.0888 111.359 38.5503C111.315 38.5389 111.275 38.5187 111.242 38.4907C111.209 38.4627 111.183 38.4276 111.166 38.3873C111.149 38.3469 111.141 38.3022 111.143 38.2557C111.145 38.2091 111.156 38.1617 111.177 38.116C111.197 38.0703 111.226 38.0273 111.262 37.9895C111.298 37.9516 111.339 37.9196 111.385 37.8954C111.431 37.8711 111.479 37.855 111.528 37.848C111.577 37.841 111.625 37.8433 111.669 37.8546C114.013 38.4563 115.399 40.5067 115.286 43.2054C115.192 45.4495 115.135 47.0361 115.208 48.6319C115.21 48.6777 115.202 48.7253 115.186 48.7718C115.169 48.8182 115.143 48.8628 115.11 48.9028C115.077 48.9428 115.038 48.9775 114.993 49.0049C114.949 49.0323 114.901 49.0518 114.852 49.0624C114.824 49.0695 114.795 49.0734 114.767 49.074Z" fill="#4B8AE4"/>
<path d="M108.665 64.7553C107.725 64.7553 106.822 64.5982 105.994 64.2907C104.541 63.748 102.638 62.4805 101.828 59.5192C101.809 59.4335 101.827 59.3376 101.879 59.2516C101.93 59.1656 102.01 59.0961 102.103 59.0576C102.197 59.0191 102.295 59.0146 102.378 59.045C102.461 59.0754 102.523 59.1384 102.549 59.2209C103.824 63.8827 108.29 64.8725 111.845 63.4388C113.366 62.8504 114.54 61.8888 115.244 60.6537C116.091 59.1702 116.243 57.3334 115.672 55.4816C115.137 53.7028 114.764 51.8569 114.556 49.9621C114.551 49.9169 114.556 49.8696 114.57 49.8228C114.584 49.776 114.607 49.7307 114.638 49.6894C114.669 49.648 114.707 49.6115 114.749 49.582C114.792 49.5524 114.839 49.5303 114.888 49.517C114.936 49.5037 114.985 49.4994 115.032 49.5044C115.079 49.5093 115.122 49.5235 115.16 49.546C115.198 49.5685 115.229 49.5989 115.252 49.6355C115.275 49.6721 115.289 49.7141 115.294 49.7593C115.499 51.6138 115.864 53.4205 116.388 55.1616C117.012 57.1921 116.834 59.2342 115.881 60.9006C115.068 62.3243 113.73 63.4289 112.011 64.0929C110.912 64.5323 109.772 64.7579 108.665 64.7553Z" fill="#4B8AE4"/>
<path d="M101.547 57.4365C101.474 57.4363 101.407 57.4149 101.355 57.3751C101.302 57.3354 101.266 57.2789 101.251 57.213C100.357 53.2019 100.506 50.9512 100.713 47.8362C100.747 47.3317 100.781 46.8097 100.814 46.2495C100.871 45.2534 101.137 44.2409 101.596 43.2725C102.055 42.304 102.697 41.3995 103.485 40.6128C104.676 39.4318 106.772 37.9673 110.001 37.6922C110.096 37.688 110.182 37.7197 110.242 37.7807C110.301 37.8418 110.329 37.9274 110.319 38.0197C110.309 38.112 110.263 38.2038 110.19 38.276C110.117 38.3482 110.023 38.3951 109.927 38.407C107.579 38.6065 105.518 39.5249 103.968 41.0616C103.256 41.7726 102.676 42.5901 102.262 43.4653C101.847 44.3406 101.607 45.2555 101.556 46.1556C101.523 46.7183 101.488 47.2419 101.455 47.7481C101.244 50.9221 101.105 53.0191 101.979 56.942C101.999 57.0301 101.979 57.1288 101.925 57.2166C101.871 57.3043 101.786 57.3738 101.69 57.4099C101.642 57.4271 101.594 57.4362 101.547 57.4365Z" fill="#4B8AE4"/>
<path d="M113.04 61.8155C112.969 61.8156 112.903 61.7952 112.851 61.7568C112.799 61.7184 112.763 61.6636 112.747 61.5993C112.731 61.535 112.736 61.464 112.762 61.395C112.787 61.3261 112.832 61.2622 112.891 61.2113C113.333 60.826 113.7 60.3669 113.967 59.8657C114.601 58.6863 114.706 57.2617 114.274 55.8488C112.844 51.1945 112.971 48.347 113.179 43.6354C113.238 42.3055 112.787 41.1927 111.908 40.502C111.053 39.8304 109.854 39.6085 108.53 39.877C105.652 40.4588 103.091 43.2156 102.938 45.891C102.933 45.9853 102.889 46.0806 102.815 46.1562C102.742 46.2317 102.646 46.2812 102.547 46.2937C102.449 46.3063 102.357 46.2809 102.291 46.2232C102.225 46.1654 102.192 46.08 102.197 45.9858C102.283 44.4898 103.001 42.9555 104.221 41.6548C105.407 40.3923 106.97 39.4889 108.512 39.1755C110.053 38.8622 111.438 39.1265 112.437 39.9127C113.462 40.7181 113.989 42.0038 113.922 43.5323C113.716 48.1742 113.589 50.9759 114.99 55.5322C115.476 57.1113 115.342 58.7328 114.615 60.0926C114.297 60.6918 113.858 61.2405 113.329 61.7008C113.288 61.7368 113.241 61.7655 113.192 61.7853C113.142 61.805 113.091 61.8153 113.04 61.8155Z" fill="#4B8AE4"/>
<path d="M108.819 63.3413C106.347 63.3413 103.968 62.0015 103.176 59.1083C101.799 54.08 101.872 50.5701 102.065 47.4069C102.075 47.3149 102.122 47.2235 102.194 47.1518C102.267 47.0801 102.361 47.0336 102.457 47.0218C102.552 47.0101 102.642 47.034 102.707 47.0887C102.772 47.1433 102.808 47.2245 102.807 47.3154C102.607 50.5527 102.544 53.8681 103.894 58.81C104.848 62.2941 108.339 63.2806 111.164 62.2176C111.26 62.1814 111.361 62.1818 111.443 62.2186C111.526 62.2554 111.583 62.3256 111.603 62.4137C111.623 62.5019 111.603 62.6008 111.549 62.6887C111.495 62.7767 111.41 62.8463 111.313 62.8825C110.49 63.1876 109.643 63.3434 108.819 63.3413Z" fill="#4B8AE4"/>
<path d="M108.958 61.9154C107.042 61.9154 105.164 60.8757 104.546 58.6624C103.213 54.3721 103.298 50.7525 103.579 45.7209C103.643 44.5789 104.189 43.4045 105.118 42.4138C106.001 41.4575 107.161 40.7846 108.379 40.5213C109.556 40.277 110.633 40.4789 111.412 41.089C112.206 41.7098 112.612 42.6931 112.558 43.8567L112.548 44.0611C112.337 48.6182 112.209 51.3692 113.595 55.9164C113.982 57.1863 113.839 58.4929 113.195 59.5883C112.642 60.53 111.771 61.2364 110.676 61.632H110.667C110.1 61.8209 109.521 61.9168 108.958 61.9154ZM109.19 41.1372C108.93 41.1372 108.666 41.1651 108.401 41.2203C106.299 41.6567 104.43 43.6738 104.321 45.6253C104.043 50.5888 103.959 54.1552 105.262 58.3491L105.261 58.3574C105.963 60.8632 108.489 61.6495 110.536 60.963C111.421 60.643 112.12 60.0778 112.56 59.329C113.096 58.4147 113.206 57.3193 112.874 56.2314C111.457 51.5828 111.587 48.7902 111.802 44.1625L111.812 43.9589C111.856 42.9948 111.525 42.1853 110.879 41.6791C110.421 41.3225 109.831 41.1334 109.19 41.1372Z" fill="#4B8AE4"/>
<path d="M109.057 60.4965C108.305 60.4886 107.612 60.2704 107.057 59.8673C106.503 59.4643 106.11 58.893 105.925 58.2201C104.559 54.0395 104.677 49.7292 104.885 46.851C104.892 46.7566 104.937 46.6616 105.012 46.587C105.086 46.5125 105.183 46.4644 105.281 46.4533C105.38 46.4423 105.471 46.4693 105.536 46.5283C105.6 46.5873 105.633 46.6735 105.626 46.7679C105.42 49.5938 105.306 53.8201 106.64 57.8993L106.643 57.9101C107.088 59.4668 108.714 60.0353 109.97 59.6729C110.233 59.5869 110.484 59.4504 110.707 59.2724C110.93 59.0944 111.119 58.8791 111.262 58.6406C111.61 58.0588 111.692 57.3249 111.483 56.6334C111.096 55.3535 110.678 53.0962 110.439 51.5511C110.43 51.4624 110.458 51.3674 110.518 51.2856C110.577 51.2039 110.663 51.1417 110.757 51.112C110.852 51.0823 110.948 51.0873 111.026 51.126C111.103 51.1648 111.157 51.2342 111.175 51.32C111.411 52.8443 111.821 55.0693 112.199 56.3201C112.467 57.2044 112.36 58.1228 111.889 58.9058C111.689 59.2377 111.425 59.5377 111.115 59.786C110.805 60.0344 110.455 60.2255 110.089 60.3469L110.069 60.3536C109.732 60.4502 109.391 60.4984 109.057 60.4965Z" fill="#4B8AE4"/>
<path d="M110.637 50.6454C110.555 50.6454 110.48 50.6184 110.426 50.5686C110.371 50.5189 110.339 50.4493 110.335 50.3711C110.24 48.6025 110.324 46.8804 110.432 44.6929L110.452 44.2856C110.472 44.0014 110.431 43.7273 110.33 43.481C110.229 43.2347 110.071 43.0215 109.866 42.8552C109.66 42.6977 109.413 42.5906 109.141 42.5408C108.869 42.491 108.579 42.4996 108.288 42.566C106.956 42.8478 105.772 44.1294 105.705 45.3644C105.702 45.4111 105.69 45.4585 105.669 45.5041C105.648 45.5496 105.619 45.5923 105.583 45.6298C105.546 45.6672 105.504 45.6987 105.458 45.7224C105.412 45.7461 105.363 45.7616 105.315 45.7679C105.266 45.7743 105.218 45.7713 105.174 45.7593C105.13 45.7473 105.091 45.7265 105.058 45.6979C105.025 45.6694 105 45.6338 104.984 45.5931C104.968 45.5524 104.961 45.5075 104.963 45.4608C105.052 43.8443 106.532 42.2319 108.264 41.8662C108.657 41.7776 109.05 41.7673 109.417 41.836C109.784 41.9047 110.117 42.0509 110.395 42.2651C110.673 42.4871 110.888 42.7726 111.026 43.1033C111.164 43.434 111.222 43.8025 111.196 44.185L111.176 44.5923C111.071 46.7582 110.987 48.4687 111.08 50.2024C111.084 50.2949 111.05 50.3924 110.984 50.4736C110.918 50.5548 110.826 50.613 110.727 50.6354C110.697 50.6426 110.666 50.646 110.637 50.6454Z" fill="#4B8AE4"/>
<path d="M109.063 59.0845C108.262 59.0845 107.54 58.5808 107.312 57.8021C107.286 57.7162 107.3 57.6176 107.35 57.528C107.399 57.4384 107.481 57.365 107.576 57.3242C107.671 57.2833 107.773 57.2782 107.858 57.31C107.943 57.3417 108.005 57.4078 108.03 57.4937C108.23 58.1786 108.928 58.462 109.466 58.3365C109.573 58.3018 109.674 58.2469 109.765 58.1753C109.855 58.1037 109.932 58.017 109.991 57.9209C110.07 57.7779 110.119 57.626 110.136 57.4749C110.153 57.3238 110.138 57.1768 110.091 57.0432C109.472 54.9804 109.124 53.2142 108.997 51.4838C108.848 49.4791 108.891 47.3589 108.953 45.9327C108.961 45.8408 109.006 45.7488 109.078 45.676C109.15 45.6032 109.243 45.5551 109.339 45.5417C109.435 45.5283 109.525 45.5507 109.591 45.6042C109.658 45.6576 109.695 45.7381 109.695 45.8288C109.634 47.2367 109.592 49.3295 109.742 51.3026C109.866 52.9865 110.206 54.7102 110.812 56.7307C110.958 57.2186 110.887 57.7514 110.615 58.1927C110.499 58.3845 110.345 58.5573 110.164 58.6997C109.983 58.842 109.78 58.9505 109.568 59.018L109.537 59.0263C109.379 59.0657 109.219 59.0852 109.063 59.0845Z" fill="#4B8AE4"/>
<path d="M106.87 55.0266C106.797 55.026 106.729 55.0036 106.677 54.9622C106.625 54.9208 106.59 54.8624 106.577 54.7947C105.98 51.6929 106.11 49.3882 106.285 46.1991C106.303 45.875 106.327 45.5426 106.34 45.2018C106.389 44.3058 107.204 43.4115 108.161 43.2071C108.386 43.1554 108.61 43.1491 108.82 43.1886C109.03 43.2281 109.22 43.3125 109.378 43.4362C109.535 43.5598 109.657 43.72 109.735 43.906C109.814 44.092 109.846 44.2997 109.831 44.5153C109.822 44.6075 109.777 44.6995 109.704 44.7723C109.632 44.845 109.538 44.8927 109.442 44.9055C109.346 44.9182 109.256 44.895 109.19 44.8408C109.124 44.7865 109.088 44.7053 109.088 44.6142C109.099 44.4971 109.083 44.384 109.042 44.2826C109 44.1812 108.935 44.0939 108.849 44.0267C108.764 43.9595 108.661 43.914 108.547 43.8933C108.433 43.8727 108.311 43.8773 108.189 43.9069C107.618 44.0291 107.113 44.5776 107.084 45.1046C107.066 45.4495 107.048 45.7828 107.029 46.1069C106.848 49.2494 106.725 51.52 107.306 54.5445C107.316 54.5986 107.312 54.6567 107.294 54.714C107.276 54.7713 107.244 54.8261 107.202 54.8738C107.159 54.9214 107.107 54.9605 107.05 54.9876C106.993 55.0148 106.933 55.0293 106.874 55.0299L106.87 55.0266Z" fill="#4B8AE4"/>
<path d="M108.772 56.991C108.702 56.9912 108.638 56.9717 108.586 56.9348C108.534 56.898 108.498 56.8454 108.48 56.7832C106.933 51.2346 107.674 45.4084 107.681 45.3502C107.686 45.3023 107.701 45.254 107.725 45.2082C107.748 45.1623 107.781 45.1199 107.819 45.0834C107.858 45.0469 107.903 45.0171 107.951 44.9957C107.999 44.9743 108.049 44.9618 108.099 44.9589C108.148 44.956 108.196 44.9628 108.239 44.9788C108.282 44.9949 108.319 45.0199 108.349 45.0524C108.379 45.0848 108.401 45.1241 108.413 45.1679C108.425 45.2116 108.427 45.2589 108.419 45.307C108.408 45.3644 107.689 51.0601 109.2 56.4824C109.224 56.5686 109.21 56.6671 109.159 56.7562C109.109 56.8454 109.027 56.9179 108.931 56.9578C108.879 56.9799 108.825 56.9913 108.772 56.991Z" fill="#4B8AE4"/>
<path fill-rule="evenodd" clip-rule="evenodd" d="M88.2812 145.344L88.4969 144.051C88.8064 142.196 89.2959 140.869 90.0553 140.019C90.7113 139.284 91.833 138.62 94.122 138.62C96.4109 138.62 97.3113 139.284 97.7221 140.019C98.1977 140.869 98.2448 142.196 97.9353 144.051L97.7196 145.344H88.2812ZM86.7038 145.37L86.9239 144.051C87.5664 140.199 89.1372 137.069 94.3808 137.069C99.6243 137.069 100.151 140.199 99.5083 144.051L99.2883 145.37C102.583 145.553 102.204 146.748 101.576 150.516L101.231 152.585C100.541 156.723 100.368 157.757 96.1734 157.757H85.6864C81.4915 157.757 81.6645 156.723 82.3547 152.585L82.6998 150.516C83.3284 146.748 83.3485 145.553 86.7038 145.37ZM92.1331 150.516C91.5539 150.516 91.0071 150.979 90.9118 151.551C90.8165 152.122 91.2088 152.585 91.788 152.585H91.7974C92.3766 152.585 92.9234 152.122 93.0187 151.551C93.114 150.979 92.7217 150.516 92.1425 150.516H92.1331Z" fill="url(#paint8_linear_9270_2571)"/>
<path d="M80.6568 114.603C80.8088 116.798 79.7537 120.827 79.2071 122.567C79.9149 124.36 85.3926 126.38 89.0003 125.5C89.9152 124.262 91.5003 122 92.4125 118.204C94.0005 117.056 95.0364 115.154 95.5541 114.203C96.0718 113.253 96.3116 111.927 95.7612 111.172C95.1461 110.328 94.1384 110.617 92.9474 111.478C93.7414 110.904 93.9811 109.578 93.4287 108.825C92.8763 108.072 91.409 108.557 91.012 108.844C91.9268 107.606 90.8239 106.098 89.7537 106.296C89.2166 106.395 88.4657 106.698 87.9439 106.975C88.9945 105.271 91.2397 99.9459 90.1862 99.0012C88.4076 97.4062 84.5554 106.102 83.2113 108.146C81.5806 110.625 80.4668 111.859 80.6568 114.603Z" fill="url(#paint9_linear_9270_2571)"/>
<path d="M35.6662 91.2352L29.4972 111.014L27.6842 115.617C27.6842 115.617 30.3498 118.915 36.6619 120.186C40.9807 121.06 43.8861 121.132 45.7948 120.964C47.3714 120.798 49.2796 120.47 48.2755 117.65C46.8524 113.46 47.3429 110.797 47.3429 110.797L49.5502 98.9347L35.6662 91.2352Z" fill="#F2C6B4"/>
<path d="M35.3267 101.394C37.342 104.444 40.4089 106.766 42.4182 107.725C45.2314 109.084 47.2388 109.399 47.2388 109.399L49.4486 99.8216L36.1791 90.6939L35.4606 92.0634L34.9052 94.3171C34.9054 94.3975 33.4724 98.5039 35.3267 101.394Z" fill="url(#paint10_linear_9270_2571)"/>
<path d="M34.4577 89.8829C35.2141 89.8805 35.8256 89.2716 35.8234 88.5229C35.8213 87.7741 34.5179 85.8153 33.7615 85.8177C33.0051 85.82 33.0821 87.7826 33.0842 88.5314C33.0864 89.2801 33.7013 89.8852 34.4577 89.8829Z" fill="url(#paint11_linear_9270_2571)"/>
<path fill-rule="evenodd" clip-rule="evenodd" d="M51.4385 70.4484C51.4385 70.4484 54.6884 73.5789 55.5114 75.2121C56.2777 76.6092 57.4881 80.1225 57.6961 80.9881C59.9116 84.2038 59.5006 85.8207 59.1002 87.3955C58.9191 88.108 58.7402 88.8118 58.8077 89.6511C59.0708 94.3322 57.5149 97.5363 55.0981 98.9499C52.6814 100.363 47.5614 99.8467 44.0076 99.0367C40.999 98.3452 39.1116 97.3009 38.3075 95.7464C38.0809 95.2968 37.8149 94.8189 37.5484 94.3622C37.0437 94.9424 36.3864 95.3652 35.6185 95.5499C33.4122 96.0805 30.1449 93.2867 29.5328 90.7384C28.9206 88.1902 31.1954 86.8524 33.4017 86.3219C34.0099 86.1756 34.624 86.1939 35.2074 86.3506L38.2453 72.5392L51.4385 70.4484Z" fill="url(#paint12_linear_9270_2571)"/>
<path d="M53.1109 84.492C53.7335 84.3422 54.121 83.7328 53.9764 83.1306C53.8317 82.5285 53.2097 82.1618 52.5871 82.3115C51.9645 82.4613 51.577 83.0708 51.7216 83.6729C51.8663 84.275 52.4883 84.6417 53.1109 84.492Z" fill="#4F2B23"/>
<path d="M58.8081 87.4484C58.5604 87.508 58.2743 87.4083 58.1152 87.1097C57.9561 86.8111 58.1274 86.433 58.4577 86.3536C58.4577 86.3536 59.3279 85.9759 59.2384 85.2394C59.1488 84.503 57.9274 82.6912 57.2658 81.7554C57.0241 81.4766 57.1128 81.1184 57.424 80.9593C57.7161 80.7207 58.0847 80.8005 58.2438 81.0991C58.4854 81.3778 60.2094 83.8268 60.4328 85.1206C60.6371 86.3348 59.634 87.2498 58.9924 87.4883C58.8907 87.4286 58.8081 87.4484 58.8081 87.4484Z" fill="#B4603F"/>
<path d="M40.5321 77.6175C41.0957 80.7455 39.8628 83.4576 40.7638 86.0912L40.7446 89.0954C40.3668 90.2955 37.6909 89.7481 36.6596 88.2708C36.6596 88.2708 36.0777 86.3574 32.5894 87.4431C30.0491 88.2186 29.9137 90.7477 29.9137 90.7477C29.9137 90.7477 26.2348 84.4291 25.2972 83.0091C23.7758 80.5775 24.8521 78.6731 25.898 77.352C26.9626 76.1087 28.2702 75.8765 28.2702 75.8765C28.2702 75.8765 26.772 72.1229 30.7166 69.0351C32.6487 67.5009 34.4769 67.3081 36.2304 66.8041C37.9838 66.3001 39.6194 65.66 41.0693 65.3113C44.651 64.6145 46.1654 66.3073 46.1654 66.3073C46.1654 66.3073 52.4016 61.7633 56.0804 64.6633C59.7406 67.4856 57.6081 72.4414 53.9226 74.4795C51.2469 76.1103 47.1329 77.4288 40.5321 77.6175Z" fill="#321011"/>
<path d="M57.6862 92.8225C54.7138 93.9911 52.6437 92.6607 51.868 91.7533C51.6662 91.5091 51.6942 91.1615 51.9692 90.9542C52.2442 90.7469 52.6131 90.7485 52.8148 90.9928C52.8461 91.0624 54.3976 92.8772 57.2168 91.7774C57.5231 91.6398 57.878 91.8152 57.9719 92.0242C58.1284 92.3725 57.9925 92.6848 57.6862 92.8225Z" fill="#CF7653"/>
<path d="M48.9338 81.0042C48.4615 80.6225 48.4208 79.9064 48.6879 79.5634C48.7753 79.4788 50.2089 77.5012 53.1513 77.9229C53.48 77.9401 54.0448 78.1482 53.993 79.0379C53.962 79.5717 53.6178 79.8215 53.2892 79.8043C51.0811 79.5102 50.0893 80.9755 50.002 81.0601C49.7451 81.2252 49.247 81.2883 48.9338 81.0042Z" fill="#4F2B23"/>
<path d="M59.7753 131.593C59.7753 116.585 52.7497 108.233 48.9069 105.533C41.299 110.399 34.778 104.992 31.5175 101.208C28.9556 101.776 23.141 106.182 16.651 117.097C8.59437 130.646 2.64328 170.267 0.0524521 187.516L-0.000907898 187.871H56.6292C56.2022 183.181 59.7753 150.352 59.7753 131.593Z" fill="url(#paint13_linear_9270_2571)"/>
<path d="M55.1356 112.599C59.925 115.21 61.9553 126.229 64.5128 132.609C67.5973 129.709 76.1633 119.414 79.8573 115.209L90.1879 125.794C88.9092 129.274 85.9951 137.365 79.8573 147.109C72.185 159.288 65.3653 162.624 53.8569 157.839C42.3485 153.054 38.9386 124.779 41.9223 117.819C44.9059 110.859 52.1991 110.999 55.1356 112.599Z" fill="#FBCC6F"/>
<defs>
<radialGradient id="paint0_radial_9270_2571" cx="0" cy="0" r="1" gradientUnits="userSpaceOnUse" gradientTransform="translate(78.7614 157.788) scale(1.76907 1.76907)">
<stop stop-color="white"/>
<stop offset="1" stop-color="#FED5AB"/>
</radialGradient>
<radialGradient id="paint1_radial_9270_2571" cx="0" cy="0" r="1" gradientUnits="userSpaceOnUse" gradientTransform="translate(85.2 121.298) scale(1.76907 1.76907)">
<stop stop-color="white"/>
<stop offset="1" stop-color="#FED5AB"/>
</radialGradient>
<linearGradient id="paint2_linear_9270_2571" x1="158.82" y1="210.322" x2="14.099" y2="-21.966" gradientUnits="userSpaceOnUse">
<stop stop-color="#3079E4"/>
<stop offset="1" stop-color="#D3E7FF"/>
</linearGradient>
<linearGradient id="paint3_linear_9270_2571" x1="92.936" y1="-13.2321" x2="114.687" y2="181.554" gradientUnits="userSpaceOnUse">
<stop stop-color="#F2F2F2"/>
<stop offset="1" stop-color="white"/>
</linearGradient>
<linearGradient id="paint4_linear_9270_2571" x1="134.233" y1="8.32324" x2="104.145" y2="6.14816" gradientUnits="userSpaceOnUse">
<stop stop-color="#E0F2FF"/>
<stop offset="1" stop-color="#7FAAFE"/>
</linearGradient>
<linearGradient id="paint5_linear_9270_2571" x1="134.312" y1="7.23521" x2="104.233" y2="5.06083" gradientUnits="userSpaceOnUse">
<stop stop-color="#4C93FE"/>
<stop offset="1" stop-color="#3155D2"/>
</linearGradient>
<linearGradient id="paint6_linear_9270_2571" x1="156.877" y1="48.2212" x2="163.931" y2="48.2212" gradientUnits="userSpaceOnUse">
<stop stop-color="#8AB8FE"/>
<stop offset="1" stop-color="#3B75CB"/>
</linearGradient>
<linearGradient id="paint7_linear_9270_2571" x1="103.955" y1="19.9695" x2="121.4" y2="77.7789" gradientUnits="userSpaceOnUse">
<stop stop-color="#5B97EC"/>
<stop offset="1" stop-color="#5B97EC" stop-opacity="0"/>
</linearGradient>
<linearGradient id="paint8_linear_9270_2571" x1="85.5461" y1="133.448" x2="103.627" y2="161.501" gradientUnits="userSpaceOnUse">
<stop stop-color="#72A5EF"/>
<stop offset="1" stop-color="#ABCDFE" stop-opacity="0"/>
</linearGradient>
<linearGradient id="paint9_linear_9270_2571" x1="89.5593" y1="90.3006" x2="92.7141" y2="128.785" gradientUnits="userSpaceOnUse">
<stop stop-color="#FDBFA6"/>
<stop offset="1" stop-color="#FFF4F0" stop-opacity="0.61"/>
</linearGradient>
<linearGradient id="paint10_linear_9270_2571" x1="38.7695" y1="104.289" x2="44.2786" y2="97.166" gradientUnits="userSpaceOnUse">
<stop stop-color="#FFBCA0" stop-opacity="0"/>
<stop offset="0.99" stop-color="#BC5A32"/>
</linearGradient>
<linearGradient id="paint11_linear_9270_2571" x1="34.3377" y1="90.3518" x2="34.5025" y2="87.4612" gradientUnits="userSpaceOnUse">
<stop stop-color="#CC7A5E" stop-opacity="0"/>
<stop offset="0.924" stop-color="#AA5F4B"/>
</linearGradient>
<linearGradient id="paint12_linear_9270_2571" x1="36.7594" y1="70.8816" x2="55.5796" y2="99.5572" gradientUnits="userSpaceOnUse">
<stop stop-color="#F3885B"/>
<stop offset="1" stop-color="#FECCB7"/>
</linearGradient>
<linearGradient id="paint13_linear_9270_2571" x1="49.6305" y1="103.88" x2="2.77015" y2="192.191" gradientUnits="userSpaceOnUse">
<stop stop-color="#FAC55C"/>
<stop offset="1" stop-color="white"/>
</linearGradient>
</defs>
</svg>
