<svg width="24" height="24" viewBox="0 0 24 24" fill="none" xmlns="http://www.w3.org/2000/svg">
<path fill-rule="evenodd" clip-rule="evenodd" d="M5.57143 9.40741C5.22966 9.40741 4.90993 9.45739 4.61823 9.56453C5.31253 6.09444 8.35361 3.48148 12 3.48148C15.6464 3.48148 18.6875 6.09444 19.3818 9.56453C19.0901 9.45739 18.7703 9.40741 18.4286 9.40741C17.9482 9.40741 17.5113 9.50616 17.1346 9.7236C16.7551 9.94268 16.4826 10.2558 16.293 10.61C15.9317 11.2852 15.8571 12.1398 15.8571 12.9259V14.7778C15.8571 15.5639 15.9317 16.4185 16.293 17.0937C16.4826 17.4479 16.7551 17.761 17.1346 17.9801C17.5113 18.1975 17.9482 18.2963 18.4286 18.2963C18.5529 18.2963 18.6744 18.2897 18.7926 18.2761C17.9871 19.5586 16.597 20.431 14.9999 20.5123C15 20.5082 15 20.5041 15 20.5C15 19.6716 14.3284 19 13.5 19H12.5C11.6716 19 11 19.6716 11 20.5C11 21.3284 11.6716 22 12.5 22H13H13.5H14.7551C18.2041 22 21 19.1811 21 15.7037V11.0741C21 6.0626 16.9706 2 12 2C7.02944 2 3 6.0626 3 11.0741V14.7778C3 15.5639 3.07456 16.4185 3.43587 17.0937C3.62541 17.4479 3.89793 17.761 4.27749 17.9801C4.65419 18.1975 5.09103 18.2963 5.57143 18.2963C6.05183 18.2963 6.48867 18.1975 6.86537 17.9801C7.24493 17.761 7.51744 17.4479 7.70699 17.0937C8.0683 16.4185 8.14286 15.5639 8.14286 14.7778V12.9259C8.14286 12.1398 8.0683 11.2852 7.70699 10.61C7.51744 10.2558 7.24493 9.94268 6.86537 9.7236C6.48867 9.50616 6.05183 9.40741 5.57143 9.40741ZM19.2709 11.3135C19.4476 11.6436 19.5306 12.1779 19.5306 12.9259V14.7778C19.5306 15.5258 19.4476 16.0601 19.2709 16.3903C19.1915 16.5387 19.0999 16.6324 18.9925 16.6944C18.8821 16.7581 18.709 16.8148 18.4286 16.8148C18.1482 16.8148 17.975 16.7581 17.8647 16.6944C17.7572 16.6324 17.6656 16.5387 17.5862 16.3903C17.4095 16.0601 17.3265 15.5258 17.3265 14.7778V12.9259C17.3265 12.1779 17.4095 11.6436 17.5862 11.3135C17.6656 11.165 17.7572 11.0713 17.8647 11.0093C17.975 10.9456 18.1482 10.8889 18.4286 10.8889C18.709 10.8889 18.8821 10.9456 18.9925 11.0093C19.0999 11.0713 19.1915 11.165 19.2709 11.3135ZM4.72906 11.3135C4.5524 11.6436 4.46939 12.1779 4.46939 12.9259V14.7778C4.46939 15.5258 4.5524 16.0601 4.72906 16.3903C4.80849 16.5387 4.90006 16.6324 5.00754 16.6944C5.11787 16.7581 5.29103 16.8148 5.57143 16.8148C5.85183 16.8148 6.02498 16.7581 6.13532 16.6944C6.2428 16.6324 6.33436 16.5387 6.4138 16.3903C6.59046 16.0601 6.67347 15.5258 6.67347 14.7778V12.9259C6.67347 12.1779 6.59046 11.6436 6.4138 11.3135C6.33436 11.165 6.2428 11.0713 6.13532 11.0093C6.02498 10.9456 5.85183 10.8889 5.57143 10.8889C5.29103 10.8889 5.11787 10.9456 5.00754 11.0093C4.90006 11.0713 4.80849 11.165 4.72906 11.3135Z" fill="color1"/>
</svg>
