<svg width="20" height="20" viewBox="0 0 20 20" fill="none" xmlns="http://www.w3.org/2000/svg">
<path fill-rule="evenodd" clip-rule="evenodd" d="M0.360541 2.61C0.12018 3.21 0 3.86 0 4.54C0 5.58 0.240361 6.67 0.721082 7.81C1.2018 8.94 1.86279 10.08 2.68403 11.22C3.51527 12.36 4.44667 13.45 5.47822 14.49C6.51978 15.52 7.61142 16.45 8.76314 17.29C9.90486 18.12 11.0566 18.78 12.2083 19.27C13.36 19.76 14.4517 20 15.4732 20C16.1743 20 16.8252 19.87 17.4261 19.62C18.0371 19.37 18.5779 18.98 19.0686 18.44C19.359 18.12 19.5794 17.78 19.7496 17.42C19.9199 17.06 20 16.69 20 16.33C20 16.05 19.9399 15.8 19.8398 15.55C19.7296 15.3 19.5493 15.09 19.2889 14.91L15.974 12.56C15.7236 12.39 15.4932 12.26 15.2729 12.17C15.0526 12.08 14.8523 12.04 14.662 12.04C14.4116 12.04 14.1813 12.11 13.9509 12.25C13.7206 12.37 13.4802 12.56 13.2298 12.81L12.9493 13.0865L12.4687 13.56C12.3585 13.67 12.2283 13.73 12.0581 13.73C11.968 13.73 11.8878 13.72 11.8077 13.69C11.7756 13.6762 11.7455 13.6625 11.7176 13.6497L11.7176 13.6497C11.6846 13.6346 11.6545 13.6208 11.6274 13.61C11.2869 13.43 10.8563 13.13 10.3355 12.69C9.80471 12.24 9.28393 11.75 8.74311 11.22C8.22233 10.69 7.74161 10.16 7.29094 9.64C6.85028 9.12 6.53981 8.69 6.35954 8.36C6.3487 8.32752 6.33492 8.29503 6.31979 8.25938L6.31978 8.25935C6.30697 8.22916 6.2932 8.19668 6.27942 8.16C6.25939 8.08 6.24937 8.01 6.24937 7.93C6.24937 7.77 6.29945 7.64 6.40961 7.53L6.47114 7.46614L7.17076 6.74C7.41112 6.5 7.6014 6.26 7.7316 6.03C7.87181 5.8 7.94191 5.56 7.94191 5.32C7.94191 5.13 7.89184 4.92 7.8017 4.71C7.71157 4.49 7.58137 4.26 7.4011 4.01L5.07762 0.74C4.89735 0.48 4.667 0.3 4.40661 0.18C4.15623 0.0600001 3.87581 0 3.59539 0C2.85428 0 2.15323 0.31 1.51227 0.94C0.981472 1.44 0.600901 2 0.360541 2.61ZM5.33658 6.48181L6.10062 5.6888L6.11089 5.67854C6.27813 5.51156 6.37414 5.3808 6.42197 5.2985L6.4184 5.29019L6.41368 5.27868C6.3769 5.18891 6.31028 5.06186 6.18442 4.88732L6.17831 4.87885L3.84985 1.60178L3.84493 1.59468C3.83408 1.57903 3.82603 1.5715 3.82035 1.56684C3.81412 1.56172 3.80198 1.55298 3.7788 1.5423L3.76852 1.53756L3.75831 1.53266C3.72314 1.51581 3.66611 1.5 3.59539 1.5C3.31725 1.5 2.97809 1.60251 2.56374 2.00977L2.55238 2.02094L2.54078 2.03186C2.16056 2.39003 1.91053 2.76801 1.75611 3.1599L1.75299 3.16782C1.58838 3.57872 1.5 4.03805 1.5 4.54C1.5 5.34504 1.68553 6.236 2.10231 7.22502C2.53158 8.23352 3.13199 9.27512 3.8986 10.3398C4.68158 11.4132 5.5609 12.4428 6.53806 13.4285C7.52581 14.4048 8.55858 15.2842 9.64634 16.0776C10.7058 16.8477 11.7591 17.4488 12.7955 17.8897C13.7968 18.3157 14.6885 18.5 15.4732 18.5C15.9841 18.5 16.4386 18.4062 16.85 18.2351L16.858 18.2317C17.2388 18.0759 17.5996 17.826 17.9579 17.4319C18.1431 17.2277 18.2831 17.0123 18.3936 16.7787C18.4706 16.616 18.5 16.4647 18.5 16.33C18.5 16.2901 18.4952 16.2442 18.4703 16.1697C18.4627 16.1634 18.4516 16.1547 18.436 16.1439L18.4287 16.1388L15.1197 13.7931C14.9312 13.6659 14.7983 13.5964 14.7057 13.5586L14.6937 13.5539L14.6878 13.5575L14.644 13.5803C14.5974 13.6045 14.4794 13.6821 14.2897 13.8715L14.2827 13.8785L14.0857 14.0725L13.524 14.626C13.1482 14.999 12.6443 15.23 12.0581 15.23C11.852 15.23 11.5808 15.2067 11.2817 15.0948L11.2494 15.0826L11.2176 15.069C11.167 15.0474 11.1201 15.0259 11.0934 15.0137L11.0859 15.0102L11.062 14.9994L10.997 14.9734L10.9264 14.9361C10.4551 14.6869 9.93264 14.3133 9.36744 13.8358L9.3655 13.8342C8.7957 13.3511 8.24609 12.8331 7.69322 12.2913L7.68311 12.2814L7.67319 12.2713C7.12556 11.714 6.62337 11.16 6.15741 10.6224L6.15196 10.6161L6.14657 10.6098C5.67936 10.0584 5.29443 9.5391 5.04315 9.07911L4.97906 8.96179L4.94469 8.85882L4.9421 8.8527L4.93883 8.84502L4.93882 8.845L4.9388 8.84495C4.92654 8.81611 4.90078 8.75553 4.87519 8.68738L4.84511 8.6073L4.82433 8.52432C4.77961 8.3457 4.74937 8.15232 4.74937 7.93C4.74937 7.41113 4.93084 6.89403 5.33658 6.48181ZM10.25 5.5C10.25 5.08579 10.5858 4.75 11 4.75C12.1417 4.75 13.1765 5.46194 13.8791 6.21911C14.2734 6.64175 14.6064 7.11523 14.8445 7.57833C15.075 8.02657 15.25 8.53018 15.25 9C15.25 9.41421 14.9142 9.75 14.5 9.75C14.0858 9.75 13.75 9.41421 13.75 9C13.75 8.86982 13.69 8.61343 13.5105 8.26417C13.3387 7.93008 13.087 7.56889 12.7817 7.24174L12.7801 7.24004C12.2027 6.61753 11.5379 6.25 11 6.25C10.5858 6.25 10.25 5.91421 10.25 5.5ZM11 1.25C10.5858 1.25 10.25 1.58579 10.25 2C10.25 2.41421 10.5858 2.75 11 2.75C14.4558 2.75 17.25 5.54421 17.25 9C17.25 9.41421 17.5858 9.75 18 9.75C18.4142 9.75 18.75 9.41421 18.75 9C18.75 4.71579 15.2842 1.25 11 1.25Z" fill='color1'/>
</svg>
