<svg width="21" height="20" viewBox="0 0 21 20" fill="none" xmlns="http://www.w3.org/2000/svg">
<g clip-path="url(#clip0_6707_28687)">
<path fill-rule="evenodd" clip-rule="evenodd" d="M5.86669 15.8291L5.86317 15.8291C4.37383 15.8333 3.94206 15.619 3.78533 15.4644C3.63318 15.3142 3.41669 14.8986 3.41669 13.4291V7.71236H17.5834V9.79168C17.5834 10.1369 17.8632 10.4167 18.2084 10.4167H18.2817C18.5864 10.4167 18.8334 10.1697 18.8334 9.86505V6.57908C18.8334 3.65408 18.0917 2.92075 15.125 2.92075H5.86669C2.90835 2.92075 2.16669 3.65408 2.16669 6.57908V13.4291C2.16669 16.3541 2.90835 17.0874 5.86669 17.0791H11.9908C12.318 17.0791 12.5834 16.8138 12.5834 16.4865V16.4541C12.5834 16.1089 12.3035 15.8291 11.9584 15.8291H5.86669ZM17.5829 6.46236H3.41715C3.42832 5.08789 3.63709 4.68932 3.78618 4.54191C3.94433 4.38554 4.37753 4.17075 5.86669 4.17075H15.125C16.6189 4.17075 17.0545 4.38567 17.2137 4.54273C17.3629 4.69 17.5717 5.08782 17.5829 6.46236ZM5.50002 13.1291C5.15484 13.1291 4.87502 13.4089 4.87502 13.7541C4.87502 14.0993 5.15484 14.3791 5.50002 14.3791H8.00002C8.3452 14.3791 8.62502 14.0993 8.62502 13.7541C8.62502 13.4089 8.3452 13.1291 8.00002 13.1291H5.50002ZM9.45835 13.7541C9.45835 13.409 9.73818 13.1291 10.0834 13.1291H10.9167C11.2619 13.1291 11.5417 13.409 11.5417 13.7541C11.5417 14.0993 11.2619 14.3791 10.9167 14.3791H10.0834C9.73818 14.3791 9.45835 14.0993 9.45835 13.7541Z" fill="currentColor"/>
<path fill-rule="evenodd" clip-rule="evenodd" d="M20.046 12.0033C20.3203 12.2128 20.3729 12.605 20.1634 12.8794L16.9816 17.046C16.8716 17.1901 16.7045 17.2793 16.5236 17.2905C16.3427 17.3017 16.1659 17.2339 16.0389 17.1046L14.2207 15.2527C13.9789 15.0064 13.9825 14.6107 14.2288 14.3689C14.4751 14.127 14.8708 14.1307 15.1127 14.377L16.4257 15.7144L19.17 12.1207C19.3795 11.8464 19.7717 11.7938 20.046 12.0033Z" fill="currentColor"/>
</g>
<defs>
<clipPath id="clip0_6707_28687">
<rect width="20" height="20" fill="white" transform="translate(0.5)"/>
</clipPath>
</defs>
</svg>
