<svg width="24" height="24" viewBox="0 0 24 24" fill="none" xmlns="http://www.w3.org/2000/svg">
<path fill-rule="evenodd" clip-rule="evenodd" d="M15.5303 4.46967C15.8232 4.76256 15.8232 5.23744 15.5303 5.53033L5.53033 15.5303C5.23744 15.8232 4.76256 15.8232 4.46967 15.5303C4.17678 15.2374 4.17678 14.7626 4.46967 14.4697L14.4697 4.46967C14.7626 4.17678 15.2374 4.17678 15.5303 4.46967Z" fill="color1"/>
<path fill-rule="evenodd" clip-rule="evenodd" d="M13.9106 15.4695C14.2035 15.7624 14.2035 16.2373 13.9107 16.5302L11.9108 18.5302C11.618 18.8231 11.1431 18.8231 10.8502 18.5302C10.5573 18.2374 10.5573 17.7625 10.8501 17.4696L12.8499 15.4696C13.1428 15.1767 13.6177 15.1766 13.9106 15.4695Z" fill="color1"/>
<path fill-rule="evenodd" clip-rule="evenodd" d="M16.0303 13.4697C16.3232 13.7626 16.3232 14.2374 16.0303 14.5303L15.5303 15.0303C15.2374 15.3232 14.7626 15.3232 14.4697 15.0303C14.1768 14.7374 14.1768 14.2626 14.4697 13.9697L14.9697 13.4697C15.2626 13.1768 15.7374 13.1768 16.0303 13.4697Z" fill="color1"/>
<path fill-rule="evenodd" clip-rule="evenodd" d="M11.3019 4.65966L4.66193 11.2997C3.58683 12.3748 3.50057 12.778 3.5 12.8974C3.49947 13.0094 3.57385 13.4003 4.63193 14.4583L9.54193 19.3683C10.5966 20.423 10.9903 20.4972 11.1043 20.4965C11.2274 20.4958 11.6322 20.4068 12.7006 19.3383L19.3406 12.6983C20.409 11.6299 20.498 11.2251 20.4988 11.102C20.4995 10.988 20.4253 10.5943 19.3706 9.53966L14.4606 4.62966C13.406 3.57501 13.0123 3.50075 12.8982 3.50147C12.7751 3.50225 12.3703 3.59124 11.3019 4.65966ZM10.2413 3.599L3.60127 10.239C1.47127 12.369 1.47127 13.419 3.57127 15.519L8.48127 20.429C10.5813 22.529 11.6413 22.519 13.7613 20.399L20.4013 13.759C22.5213 11.639 22.5313 10.579 20.4313 8.479L15.5213 3.569C13.4213 1.469 12.3613 1.479 10.2413 3.599Z" fill="color2"/>
<path fill-rule="evenodd" clip-rule="evenodd" d="M1.99512 21.25C1.99512 20.8358 2.3309 20.5 2.74512 20.5H21.2546C21.6688 20.5 22.0046 20.8358 22.0046 21.25C22.0046 21.6642 21.6688 22 21.2546 22H2.74512C2.3309 22 1.99512 21.6642 1.99512 21.25Z" fill="color2"/>
</svg>
