<svg width="189" height="191" viewBox="0 0 189 191" fill="none" xmlns="http://www.w3.org/2000/svg">
<ellipse cx="94.8864" cy="97.6693" rx="92.1149" ry="92.3315" fill="#F1F3F9" stroke="#D6DCE8" stroke-width="2" stroke-miterlimit="10"/>
<path d="M18.97 21.4003C24.5054 21.4003 28.9928 16.6097 28.9928 10.7002C28.9928 4.79063 24.5054 0 18.97 0C13.4346 0 8.94727 4.79063 8.94727 10.7002C8.94727 16.6097 13.4346 21.4003 18.97 21.4003Z" fill="#EAEEF9"/>
<path d="M129.746 53.4478H84.3906V35H143.844C143.953 35 144.063 35 144.172 35C153.462 35.235 161.003 43.4601 161.003 53.4478H141.33" fill="#F1F3F9"/>
<path d="M129.746 53.4478H84.3906V35H143.844C143.953 35 144.063 35 144.172 35C153.462 35.235 161.003 43.4601 161.003 53.4478H141.33H129.746Z" stroke="#D6DCE8" stroke-width="2" stroke-miterlimit="10"/>
<path d="M145.483 35C141.986 35.235 138.707 36.7625 136.412 39.3476C136.194 39.5826 135.975 39.8176 135.756 40.1701C133.68 42.7551 132.15 46.1627 132.15 49.8053V159.552C132.15 169.775 124.5 178 114.991 178H31.4941V48.9827C31.7127 45.2227 33.0242 41.8151 35.3193 39.3476C37.8329 36.645 41.2209 35 45.046 35H129.09H145.046C145.155 35 145.265 35 145.483 35Z" fill="white" stroke="#D6DCE8" stroke-width="2" stroke-miterlimit="10" stroke-linejoin="round"/>
<path d="M78.2697 163.43H100.346C100.346 167.425 101.876 171.067 104.281 173.652C106.685 176.355 110.073 177.882 113.789 177.882H14.4446C10.7287 177.882 7.34075 176.237 4.93638 173.652C2.53201 171.067 1.00195 167.425 1.00195 163.43H66.3571C66.3571 163.43 78.4883 163.547 78.2697 163.43Z" fill="#F1F3F9" stroke="#D6DCE8" stroke-width="2" stroke-miterlimit="10"/>
<path d="M82.4701 105.838L104.466 81.5215L110.923 88.6591L82.5914 119.98L82.5601 119.945L82.4388 120.079L63.4551 99.0922L69.9115 91.9545L82.4701 105.838Z" fill="#D6DCE8" stroke="#AAB2C5" stroke-width="2" stroke-miterlimit="10"/>
</svg>
