<svg width="24" height="24" viewBox="0 0 24 24" fill="none" xmlns="http://www.w3.org/2000/svg">
<path fill-rule="evenodd" clip-rule="evenodd" d="M12 14.08C13.1516 14.08 14.08 13.1516 14.08 12C14.08 10.8484 13.1516 9.92 12 9.92C10.8484 9.92 9.91998 10.8484 9.91998 12C9.91998 13.1516 10.8484 14.08 12 14.08ZM12 15.58C13.98 15.58 15.58 13.98 15.58 12C15.58 10.02 13.98 8.42 12 8.42C10.02 8.42 8.41998 10.02 8.41998 12C8.41998 13.98 10.02 15.58 12 15.58Z" fill="#1B1D29"/>
<path fill-rule="evenodd" clip-rule="evenodd" d="M20.0654 13.6717L20.0667 13.6698C20.3216 13.2921 20.5 12.6902 20.5 12C20.5 11.3098 20.3216 10.7079 20.0667 10.3302L20.0654 10.3283C17.9443 7.17393 15.0103 5.5 12 5.5C8.98971 5.5 6.05566 7.17393 3.93458 10.3283L3.93325 10.3302C3.67839 10.7079 3.5 11.3098 3.5 12C3.5 12.6902 3.67839 13.2921 3.93325 13.6698L3.93458 13.6717C6.05566 16.8261 8.98971 18.5 12 18.5C15.0103 18.5 17.9443 16.8261 20.0654 13.6717ZM21.3102 14.5088C18.9699 17.9891 15.6076 20 12 20C8.39244 20 5.03015 17.9891 2.68983 14.5088C1.77006 13.1456 1.77006 10.8544 2.68983 9.49124C5.03015 6.01088 8.39244 4 12 4C15.6076 4 18.9699 6.01088 21.3102 9.49124C22.2299 10.8544 22.2299 13.1456 21.3102 14.5088Z" fill="#1B1D29"/>
</svg>
