<svg width="279" height="105" viewBox="0 0 279 105" fill="none" xmlns="http://www.w3.org/2000/svg">
<g clip-path="url(#clip0_602_25979)">
<rect width="279" height="318" fill="url(#paint0_linear_602_25979)"/>
<path opacity="0.6" d="M503.512 -22.6409L195.984 129.638C179.126 137.985 167.992 147.295 141.513 138.959L77.8415 117.533L55.0322 182.161C48.2913 199.165 42.4696 205.464 29.1263 211.881L-276.163 363.431" stroke="url(#paint1_linear_602_25979)" stroke-miterlimit="10"/>
<path opacity="0.6" d="M499.384 -30.9815L191.856 121.297C174.998 129.645 163.864 138.954 137.384 130.619L73.713 109.193L50.9038 173.821C44.1629 190.824 38.3412 197.123 24.9978 203.541L-280.291 355.09" stroke="url(#paint2_linear_602_25979)" stroke-miterlimit="10"/>
<path opacity="0.5" d="M495.253 -39.3218L187.725 112.957C170.867 121.305 159.733 130.614 133.254 122.278L69.5827 100.853L46.7734 165.481C40.0325 182.484 34.2108 188.783 20.8675 195.201L-284.421 346.75" stroke="url(#paint3_linear_602_25979)" stroke-miterlimit="10"/>
<path opacity="0.4" d="M491.124 -47.6621L183.596 104.617C166.738 112.964 155.604 122.273 129.124 113.938L65.453 92.5123L42.6438 157.14C35.9029 174.144 30.0812 180.443 16.7378 186.86L-288.551 338.41" stroke="url(#paint4_linear_602_25979)" stroke-miterlimit="10"/>
<path opacity="0.3" d="M486.994 -56.0024L179.466 96.2763C162.608 104.624 151.474 113.933 124.994 105.598L61.3232 84.1719L38.5139 148.8C31.773 165.803 25.9513 172.102 12.6079 178.52L-292.681 330.069" stroke="url(#paint5_linear_602_25979)" stroke-miterlimit="10"/>
<path opacity="0.2" d="M482.864 -64.343L175.336 87.9358C158.478 96.2833 147.344 105.593 120.865 97.2571L57.1933 75.8313L34.384 140.459C27.6431 157.463 21.8214 163.762 8.47806 170.179L-296.811 321.729" stroke="url(#paint6_linear_602_25979)" stroke-miterlimit="10"/>
<path opacity="0.1" d="M478.729 -72.6807L171.201 79.5981C154.343 87.9457 143.209 97.2549 116.73 88.9195L53.0583 67.4937L30.249 132.122C23.5081 149.125 17.6864 155.424 4.34305 161.842L-300.946 313.391" stroke="url(#paint7_linear_602_25979)" stroke-miterlimit="10"/>
<path opacity="0.6" d="M540.005 51.0571L232.477 203.336C215.619 211.683 204.485 220.993 178.006 212.657L114.335 191.231L91.5254 255.859C84.7844 272.863 78.9628 279.162 65.6194 285.579L-239.669 437.129" stroke="url(#paint8_linear_602_25979)" stroke-miterlimit="10"/>
<path opacity="0.6" d="M535.877 42.7168L228.349 194.996C211.491 203.343 200.357 212.652 173.877 204.317L110.206 182.891L87.397 247.519C80.656 264.523 74.8344 270.822 61.491 277.239L-243.798 428.789" stroke="url(#paint9_linear_602_25979)" stroke-miterlimit="10"/>
<path opacity="0.5" d="M531.747 34.3762L224.219 186.655C207.361 195.003 196.227 204.312 169.747 195.976L106.076 174.551L83.2666 239.179C76.5257 256.182 70.704 262.481 57.3606 268.899L-247.928 420.448" stroke="url(#paint10_linear_602_25979)" stroke-miterlimit="10"/>
<path opacity="0.4" d="M527.617 26.0361L220.089 178.315C203.231 186.662 192.097 195.972 165.617 187.636L101.946 166.21L79.1369 230.838C72.396 247.842 66.5743 254.141 53.231 260.558L-252.058 412.108" stroke="url(#paint11_linear_602_25979)" stroke-miterlimit="10"/>
<path opacity="0.3" d="M523.487 17.6956L215.959 169.974C199.101 178.322 187.967 187.631 161.488 179.296L97.8163 157.87L75.0071 222.498C68.2661 239.501 62.4445 245.8 49.1011 252.218L-256.188 403.767" stroke="url(#paint12_linear_602_25979)" stroke-miterlimit="10"/>
<path opacity="0.2" d="M519.357 9.35522L211.829 161.634C194.971 169.982 183.837 179.291 157.358 170.955L93.6864 149.53L70.8772 214.158C64.1363 231.161 58.3146 237.46 44.9712 243.878L-260.318 395.427" stroke="url(#paint13_linear_602_25979)" stroke-miterlimit="10"/>
<path opacity="0.1" d="M515.222 1.01733L207.694 153.296C190.836 161.644 179.702 170.953 153.223 162.617L89.5514 141.192L66.7422 205.82C60.0012 222.823 54.1796 229.122 40.8362 235.54L-264.453 387.089" stroke="url(#paint14_linear_602_25979)" stroke-miterlimit="10"/>
<g filter="url(#filter0_d_602_25979)">
<rect x="26" y="57" width="228" height="228" rx="8" fill="white" shape-rendering="crispEdges"/>
<path d="M42 73H46.3556V77.3556H42V73ZM46.3556 73H50.7111V77.3556H46.3556V73ZM50.7111 73H55.0667V77.3556H50.7111V73ZM55.0667 73H59.4222V77.3556H55.0667V73ZM59.4222 73H63.7778V77.3556H59.4222V73ZM63.7778 73H68.1333V77.3556H63.7778V73ZM68.1333 73H72.4889V77.3556H68.1333V73ZM81.2 73H85.5556V77.3556H81.2V73ZM85.5556 73H89.9111V77.3556H85.5556V73ZM89.9111 73H94.2667V77.3556H89.9111V73ZM94.2667 73H98.6222V77.3556H94.2667V73ZM98.6222 73H102.978V77.3556H98.6222V73ZM107.333 73H111.689V77.3556H107.333V73ZM111.689 73H116.044V77.3556H111.689V73ZM116.044 73H120.4V77.3556H116.044V73ZM129.111 73H133.467V77.3556H129.111V73ZM137.822 73H142.178V77.3556H137.822V73ZM146.533 73H150.889V77.3556H146.533V73ZM150.889 73H155.244V77.3556H150.889V73ZM159.6 73H163.956V77.3556H159.6V73ZM168.311 73H172.667V77.3556H168.311V73ZM172.667 73H177.022V77.3556H172.667V73ZM177.022 73H181.378V77.3556H177.022V73ZM181.378 73H185.733V77.3556H181.378V73ZM185.733 73H190.089V77.3556H185.733V73ZM198.8 73H203.156V77.3556H198.8V73ZM207.511 73H211.867V77.3556H207.511V73ZM211.867 73H216.222V77.3556H211.867V73ZM216.222 73H220.578V77.3556H216.222V73ZM220.578 73H224.933V77.3556H220.578V73ZM224.933 73H229.289V77.3556H224.933V73ZM229.289 73H233.644V77.3556H229.289V73ZM233.644 73H238V77.3556H233.644V73ZM42 77.3556H46.3556V81.7111H42V77.3556ZM68.1333 77.3556H72.4889V81.7111H68.1333V77.3556ZM76.8444 77.3556H81.2V81.7111H76.8444V77.3556ZM81.2 77.3556H85.5556V81.7111H81.2V77.3556ZM85.5556 77.3556H89.9111V81.7111H85.5556V77.3556ZM89.9111 77.3556H94.2667V81.7111H89.9111V77.3556ZM94.2667 77.3556H98.6222V81.7111H94.2667V77.3556ZM98.6222 77.3556H102.978V81.7111H98.6222V77.3556ZM102.978 77.3556H107.333V81.7111H102.978V77.3556ZM116.044 77.3556H120.4V81.7111H116.044V77.3556ZM124.756 77.3556H129.111V81.7111H124.756V77.3556ZM133.467 77.3556H137.822V81.7111H133.467V77.3556ZM137.822 77.3556H142.178V81.7111H137.822V77.3556ZM142.178 77.3556H146.533V81.7111H142.178V77.3556ZM146.533 77.3556H150.889V81.7111H146.533V77.3556ZM150.889 77.3556H155.244V81.7111H150.889V77.3556ZM177.022 77.3556H181.378V81.7111H177.022V77.3556ZM185.733 77.3556H190.089V81.7111H185.733V77.3556ZM194.444 77.3556H198.8V81.7111H194.444V77.3556ZM207.511 77.3556H211.867V81.7111H207.511V77.3556ZM233.644 77.3556H238V81.7111H233.644V77.3556ZM42 81.7111H46.3556V86.0667H42V81.7111ZM50.7111 81.7111H55.0667V86.0667H50.7111V81.7111ZM55.0667 81.7111H59.4222V86.0667H55.0667V81.7111ZM59.4222 81.7111H63.7778V86.0667H59.4222V81.7111ZM68.1333 81.7111H72.4889V86.0667H68.1333V81.7111ZM94.2667 81.7111H98.6222V86.0667H94.2667V81.7111ZM120.4 81.7111H124.756V86.0667H120.4V81.7111ZM124.756 81.7111H129.111V86.0667H124.756V81.7111ZM146.533 81.7111H150.889V86.0667H146.533V81.7111ZM159.6 81.7111H163.956V86.0667H159.6V81.7111ZM163.956 81.7111H168.311V86.0667H163.956V81.7111ZM168.311 81.7111H172.667V86.0667H168.311V81.7111ZM172.667 81.7111H177.022V86.0667H172.667V81.7111ZM181.378 81.7111H185.733V86.0667H181.378V81.7111ZM185.733 81.7111H190.089V86.0667H185.733V81.7111ZM194.444 81.7111H198.8V86.0667H194.444V81.7111ZM207.511 81.7111H211.867V86.0667H207.511V81.7111ZM216.222 81.7111H220.578V86.0667H216.222V81.7111ZM220.578 81.7111H224.933V86.0667H220.578V81.7111ZM224.933 81.7111H229.289V86.0667H224.933V81.7111ZM233.644 81.7111H238V86.0667H233.644V81.7111ZM42 86.0667H46.3556V90.4222H42V86.0667ZM50.7111 86.0667H55.0667V90.4222H50.7111V86.0667ZM55.0667 86.0667H59.4222V90.4222H55.0667V86.0667ZM59.4222 86.0667H63.7778V90.4222H59.4222V86.0667ZM68.1333 86.0667H72.4889V90.4222H68.1333V86.0667ZM76.8444 86.0667H81.2V90.4222H76.8444V86.0667ZM89.9111 86.0667H94.2667V90.4222H89.9111V86.0667ZM94.2667 86.0667H98.6222V90.4222H94.2667V86.0667ZM98.6222 86.0667H102.978V90.4222H98.6222V86.0667ZM102.978 86.0667H107.333V90.4222H102.978V86.0667ZM107.333 86.0667H111.689V90.4222H107.333V86.0667ZM111.689 86.0667H116.044V90.4222H111.689V86.0667ZM120.4 86.0667H124.756V90.4222H120.4V86.0667ZM129.111 86.0667H133.467V90.4222H129.111V86.0667ZM137.822 86.0667H142.178V90.4222H137.822V86.0667ZM146.533 86.0667H150.889V90.4222H146.533V86.0667ZM159.6 86.0667H163.956V90.4222H159.6V86.0667ZM163.956 86.0667H168.311V90.4222H163.956V86.0667ZM177.022 86.0667H181.378V90.4222H177.022V86.0667ZM185.733 86.0667H190.089V90.4222H185.733V86.0667ZM194.444 86.0667H198.8V90.4222H194.444V86.0667ZM198.8 86.0667H203.156V90.4222H198.8V86.0667ZM207.511 86.0667H211.867V90.4222H207.511V86.0667ZM216.222 86.0667H220.578V90.4222H216.222V86.0667ZM220.578 86.0667H224.933V90.4222H220.578V86.0667ZM224.933 86.0667H229.289V90.4222H224.933V86.0667ZM233.644 86.0667H238V90.4222H233.644V86.0667ZM42 90.4222H46.3556V94.7778H42V90.4222ZM50.7111 90.4222H55.0667V94.7778H50.7111V90.4222ZM55.0667 90.4222H59.4222V94.7778H55.0667V90.4222ZM59.4222 90.4222H63.7778V94.7778H59.4222V90.4222ZM68.1333 90.4222H72.4889V94.7778H68.1333V90.4222ZM85.5556 90.4222H89.9111V94.7778H85.5556V90.4222ZM102.978 90.4222H107.333V94.7778H102.978V90.4222ZM107.333 90.4222H111.689V94.7778H107.333V90.4222ZM124.756 90.4222H129.111V94.7778H124.756V90.4222ZM129.111 90.4222H133.467V94.7778H129.111V90.4222ZM133.467 90.4222H137.822V94.7778H133.467V90.4222ZM137.822 90.4222H142.178V94.7778H137.822V90.4222ZM142.178 90.4222H146.533V94.7778H142.178V90.4222ZM146.533 90.4222H150.889V94.7778H146.533V90.4222ZM150.889 90.4222H155.244V94.7778H150.889V90.4222ZM163.956 90.4222H168.311V94.7778H163.956V90.4222ZM177.022 90.4222H181.378V94.7778H177.022V90.4222ZM181.378 90.4222H185.733V94.7778H181.378V90.4222ZM185.733 90.4222H190.089V94.7778H185.733V90.4222ZM190.089 90.4222H194.444V94.7778H190.089V90.4222ZM194.444 90.4222H198.8V94.7778H194.444V90.4222ZM198.8 90.4222H203.156V94.7778H198.8V90.4222ZM207.511 90.4222H211.867V94.7778H207.511V90.4222ZM216.222 90.4222H220.578V94.7778H216.222V90.4222ZM220.578 90.4222H224.933V94.7778H220.578V90.4222ZM224.933 90.4222H229.289V94.7778H224.933V90.4222ZM233.644 90.4222H238V94.7778H233.644V90.4222ZM42 94.7778H46.3556V99.1333H42V94.7778ZM68.1333 94.7778H72.4889V99.1333H68.1333V94.7778ZM76.8444 94.7778H81.2V99.1333H76.8444V94.7778ZM85.5556 94.7778H89.9111V99.1333H85.5556V94.7778ZM89.9111 94.7778H94.2667V99.1333H89.9111V94.7778ZM94.2667 94.7778H98.6222V99.1333H94.2667V94.7778ZM107.333 94.7778H111.689V99.1333H107.333V94.7778ZM120.4 94.7778H124.756V99.1333H120.4V94.7778ZM129.111 94.7778H133.467V99.1333H129.111V94.7778ZM146.533 94.7778H150.889V99.1333H146.533V94.7778ZM155.244 94.7778H159.6V99.1333H155.244V94.7778ZM159.6 94.7778H163.956V99.1333H159.6V94.7778ZM168.311 94.7778H172.667V99.1333H168.311V94.7778ZM172.667 94.7778H177.022V99.1333H172.667V94.7778ZM177.022 94.7778H181.378V99.1333H177.022V94.7778ZM185.733 94.7778H190.089V99.1333H185.733V94.7778ZM207.511 94.7778H211.867V99.1333H207.511V94.7778ZM233.644 94.7778H238V99.1333H233.644V94.7778ZM42 99.1333H46.3556V103.489H42V99.1333ZM46.3556 99.1333H50.7111V103.489H46.3556V99.1333ZM50.7111 99.1333H55.0667V103.489H50.7111V99.1333ZM55.0667 99.1333H59.4222V103.489H55.0667V99.1333ZM59.4222 99.1333H63.7778V103.489H59.4222V99.1333ZM63.7778 99.1333H68.1333V103.489H63.7778V99.1333ZM68.1333 99.1333H72.4889V103.489H68.1333V99.1333ZM76.8444 99.1333H81.2V103.489H76.8444V99.1333ZM85.5556 99.1333H89.9111V103.489H85.5556V99.1333ZM94.2667 99.1333H98.6222V103.489H94.2667V99.1333ZM102.978 99.1333H107.333V103.489H102.978V99.1333ZM111.689 99.1333H116.044V103.489H111.689V99.1333ZM120.4 99.1333H124.756V103.489H120.4V99.1333ZM129.111 99.1333H133.467V103.489H129.111V99.1333ZM137.822 99.1333H142.178V103.489H137.822V99.1333ZM146.533 99.1333H150.889V103.489H146.533V99.1333ZM155.244 99.1333H159.6V103.489H155.244V99.1333ZM163.956 99.1333H168.311V103.489H163.956V99.1333ZM172.667 99.1333H177.022V103.489H172.667V99.1333ZM181.378 99.1333H185.733V103.489H181.378V99.1333ZM190.089 99.1333H194.444V103.489H190.089V99.1333ZM198.8 99.1333H203.156V103.489H198.8V99.1333ZM207.511 99.1333H211.867V103.489H207.511V99.1333ZM211.867 99.1333H216.222V103.489H211.867V99.1333ZM216.222 99.1333H220.578V103.489H216.222V99.1333ZM220.578 99.1333H224.933V103.489H220.578V99.1333ZM224.933 99.1333H229.289V103.489H224.933V99.1333ZM229.289 99.1333H233.644V103.489H229.289V99.1333ZM233.644 99.1333H238V103.489H233.644V99.1333ZM81.2 103.489H85.5556V107.844H81.2V103.489ZM85.5556 103.489H89.9111V107.844H85.5556V103.489ZM89.9111 103.489H94.2667V107.844H89.9111V103.489ZM94.2667 103.489H98.6222V107.844H94.2667V103.489ZM98.6222 103.489H102.978V107.844H98.6222V103.489ZM111.689 103.489H116.044V107.844H111.689V103.489ZM116.044 103.489H120.4V107.844H116.044V103.489ZM120.4 103.489H124.756V107.844H120.4V103.489ZM129.111 103.489H133.467V107.844H129.111V103.489ZM146.533 103.489H150.889V107.844H146.533V103.489ZM168.311 103.489H172.667V107.844H168.311V103.489ZM172.667 103.489H177.022V107.844H172.667V103.489ZM181.378 103.489H185.733V107.844H181.378V103.489ZM185.733 103.489H190.089V107.844H185.733V103.489ZM198.8 103.489H203.156V107.844H198.8V103.489ZM42 107.844H46.3556V112.2H42V107.844ZM46.3556 107.844H50.7111V112.2H46.3556V107.844ZM50.7111 107.844H55.0667V112.2H50.7111V107.844ZM55.0667 107.844H59.4222V112.2H55.0667V107.844ZM59.4222 107.844H63.7778V112.2H59.4222V107.844ZM68.1333 107.844H72.4889V112.2H68.1333V107.844ZM72.4889 107.844H76.8444V112.2H72.4889V107.844ZM76.8444 107.844H81.2V112.2H76.8444V107.844ZM81.2 107.844H85.5556V112.2H81.2V107.844ZM85.5556 107.844H89.9111V112.2H85.5556V107.844ZM89.9111 107.844H94.2667V112.2H89.9111V107.844ZM94.2667 107.844H98.6222V112.2H94.2667V107.844ZM102.978 107.844H107.333V112.2H102.978V107.844ZM111.689 107.844H116.044V112.2H111.689V107.844ZM129.111 107.844H133.467V112.2H129.111V107.844ZM133.467 107.844H137.822V112.2H133.467V107.844ZM137.822 107.844H142.178V112.2H137.822V107.844ZM142.178 107.844H146.533V112.2H142.178V107.844ZM146.533 107.844H150.889V112.2H146.533V107.844ZM155.244 107.844H159.6V112.2H155.244V107.844ZM168.311 107.844H172.667V112.2H168.311V107.844ZM177.022 107.844H181.378V112.2H177.022V107.844ZM190.089 107.844H194.444V112.2H190.089V107.844ZM203.156 107.844H207.511V112.2H203.156V107.844ZM211.867 107.844H216.222V112.2H211.867V107.844ZM220.578 107.844H224.933V112.2H220.578V107.844ZM229.289 107.844H233.644V112.2H229.289V107.844ZM46.3556 112.2H50.7111V116.556H46.3556V112.2ZM55.0667 112.2H59.4222V116.556H55.0667V112.2ZM72.4889 112.2H76.8444V116.556H72.4889V112.2ZM98.6222 112.2H102.978V116.556H98.6222V112.2ZM102.978 112.2H107.333V116.556H102.978V112.2ZM107.333 112.2H111.689V116.556H107.333V112.2ZM111.689 112.2H116.044V116.556H111.689V112.2ZM124.756 112.2H129.111V116.556H124.756V112.2ZM133.467 112.2H137.822V116.556H133.467V112.2ZM137.822 112.2H142.178V116.556H137.822V112.2ZM146.533 112.2H150.889V116.556H146.533V112.2ZM150.889 112.2H155.244V116.556H150.889V112.2ZM159.6 112.2H163.956V116.556H159.6V112.2ZM163.956 112.2H168.311V116.556H163.956V112.2ZM168.311 112.2H172.667V116.556H168.311V112.2ZM172.667 112.2H177.022V116.556H172.667V112.2ZM177.022 112.2H181.378V116.556H177.022V112.2ZM181.378 112.2H185.733V116.556H181.378V112.2ZM194.444 112.2H198.8V116.556H194.444V112.2ZM198.8 112.2H203.156V116.556H198.8V112.2ZM216.222 112.2H220.578V116.556H216.222V112.2ZM220.578 112.2H224.933V116.556H220.578V112.2ZM224.933 112.2H229.289V116.556H224.933V112.2ZM229.289 112.2H233.644V116.556H229.289V112.2ZM233.644 112.2H238V116.556H233.644V112.2ZM42 116.556H46.3556V120.911H42V116.556ZM46.3556 116.556H50.7111V120.911H46.3556V116.556ZM55.0667 116.556H59.4222V120.911H55.0667V116.556ZM59.4222 116.556H63.7778V120.911H59.4222V116.556ZM68.1333 116.556H72.4889V120.911H68.1333V116.556ZM72.4889 116.556H76.8444V120.911H72.4889V116.556ZM76.8444 116.556H81.2V120.911H76.8444V116.556ZM94.2667 116.556H98.6222V120.911H94.2667V116.556ZM98.6222 116.556H102.978V120.911H98.6222V116.556ZM102.978 116.556H107.333V120.911H102.978V116.556ZM107.333 116.556H111.689V120.911H107.333V116.556ZM116.044 116.556H120.4V120.911H116.044V116.556ZM133.467 116.556H137.822V120.911H133.467V116.556ZM137.822 116.556H142.178V120.911H137.822V116.556ZM146.533 116.556H150.889V120.911H146.533V116.556ZM155.244 116.556H159.6V120.911H155.244V116.556ZM177.022 116.556H181.378V120.911H177.022V116.556ZM181.378 116.556H185.733V120.911H181.378V116.556ZM185.733 116.556H190.089V120.911H185.733V116.556ZM190.089 116.556H194.444V120.911H190.089V116.556ZM207.511 116.556H211.867V120.911H207.511V116.556ZM229.289 116.556H233.644V120.911H229.289V116.556ZM42 120.911H46.3556V125.267H42V120.911ZM46.3556 120.911H50.7111V125.267H46.3556V120.911ZM59.4222 120.911H63.7778V125.267H59.4222V120.911ZM63.7778 120.911H68.1333V125.267H63.7778V120.911ZM81.2 120.911H85.5556V125.267H81.2V120.911ZM129.111 120.911H133.467V125.267H129.111V120.911ZM142.178 120.911H146.533V125.267H142.178V120.911ZM146.533 120.911H150.889V125.267H146.533V120.911ZM163.956 120.911H168.311V125.267H163.956V120.911ZM168.311 120.911H172.667V125.267H168.311V120.911ZM172.667 120.911H177.022V125.267H172.667V120.911ZM181.378 120.911H185.733V125.267H181.378V120.911ZM185.733 120.911H190.089V125.267H185.733V120.911ZM194.444 120.911H198.8V125.267H194.444V120.911ZM203.156 120.911H207.511V125.267H203.156V120.911ZM211.867 120.911H216.222V125.267H211.867V120.911ZM216.222 120.911H220.578V125.267H216.222V120.911ZM220.578 120.911H224.933V125.267H220.578V120.911ZM50.7111 125.267H55.0667V129.622H50.7111V125.267ZM59.4222 125.267H63.7778V129.622H59.4222V125.267ZM63.7778 125.267H68.1333V129.622H63.7778V125.267ZM68.1333 125.267H72.4889V129.622H68.1333V125.267ZM72.4889 125.267H76.8444V129.622H72.4889V125.267ZM89.9111 125.267H94.2667V129.622H89.9111V125.267ZM102.978 125.267H107.333V129.622H102.978V125.267ZM107.333 125.267H111.689V129.622H107.333V125.267ZM116.044 125.267H120.4V129.622H116.044V125.267ZM120.4 125.267H124.756V129.622H120.4V125.267ZM124.756 125.267H129.111V129.622H124.756V125.267ZM146.533 125.267H150.889V129.622H146.533V125.267ZM163.956 125.267H168.311V129.622H163.956V125.267ZM177.022 125.267H181.378V129.622H177.022V125.267ZM190.089 125.267H194.444V129.622H190.089V125.267ZM203.156 125.267H207.511V129.622H203.156V125.267ZM211.867 125.267H216.222V129.622H211.867V125.267ZM216.222 125.267H220.578V129.622H216.222V125.267ZM229.289 125.267H233.644V129.622H229.289V125.267ZM42 129.622H46.3556V133.978H42V129.622ZM46.3556 129.622H50.7111V133.978H46.3556V129.622ZM50.7111 129.622H55.0667V133.978H50.7111V129.622ZM55.0667 129.622H59.4222V133.978H55.0667V129.622ZM59.4222 129.622H63.7778V133.978H59.4222V129.622ZM72.4889 129.622H76.8444V133.978H72.4889V129.622ZM85.5556 129.622H89.9111V133.978H85.5556V129.622ZM89.9111 129.622H94.2667V133.978H89.9111V129.622ZM102.978 129.622H107.333V133.978H102.978V129.622ZM107.333 129.622H111.689V133.978H107.333V129.622ZM124.756 129.622H129.111V133.978H124.756V129.622ZM129.111 129.622H133.467V133.978H129.111V129.622ZM168.311 129.622H172.667V133.978H168.311V129.622ZM172.667 129.622H177.022V133.978H172.667V129.622ZM181.378 129.622H185.733V133.978H181.378V129.622ZM207.511 129.622H211.867V133.978H207.511V129.622ZM211.867 129.622H216.222V133.978H211.867V129.622ZM224.933 129.622H229.289V133.978H224.933V129.622ZM42 133.978H46.3556V138.333H42V133.978ZM50.7111 133.978H55.0667V138.333H50.7111V133.978ZM55.0667 133.978H59.4222V138.333H55.0667V133.978ZM63.7778 133.978H68.1333V138.333H63.7778V133.978ZM68.1333 133.978H72.4889V138.333H68.1333V133.978ZM94.2667 133.978H98.6222V138.333H94.2667V133.978ZM98.6222 133.978H102.978V138.333H98.6222V133.978ZM102.978 133.978H107.333V138.333H102.978V133.978ZM107.333 133.978H111.689V138.333H107.333V133.978ZM111.689 133.978H116.044V138.333H111.689V133.978ZM116.044 133.978H120.4V138.333H116.044V133.978ZM120.4 133.978H124.756V138.333H120.4V133.978ZM133.467 133.978H137.822V138.333H133.467V133.978ZM137.822 133.978H142.178V138.333H137.822V133.978ZM146.533 133.978H150.889V138.333H146.533V133.978ZM150.889 133.978H155.244V138.333H150.889V133.978ZM155.244 133.978H159.6V138.333H155.244V133.978ZM159.6 133.978H163.956V138.333H159.6V133.978ZM163.956 133.978H168.311V138.333H163.956V133.978ZM168.311 133.978H172.667V138.333H168.311V133.978ZM172.667 133.978H177.022V138.333H172.667V133.978ZM194.444 133.978H198.8V138.333H194.444V133.978ZM198.8 133.978H203.156V138.333H198.8V133.978ZM207.511 133.978H211.867V138.333H207.511V133.978ZM216.222 133.978H220.578V138.333H216.222V133.978ZM224.933 133.978H229.289V138.333H224.933V133.978ZM46.3556 138.333H50.7111V142.689H46.3556V138.333ZM50.7111 138.333H55.0667V142.689H50.7111V138.333ZM63.7778 138.333H68.1333V142.689H63.7778V138.333ZM72.4889 138.333H76.8444V142.689H72.4889V138.333ZM81.2 138.333H85.5556V142.689H81.2V138.333ZM89.9111 138.333H94.2667V142.689H89.9111V138.333ZM94.2667 138.333H98.6222V142.689H94.2667V138.333ZM98.6222 138.333H102.978V142.689H98.6222V138.333ZM111.689 138.333H116.044V142.689H111.689V138.333ZM116.044 138.333H120.4V142.689H116.044V138.333ZM120.4 138.333H124.756V142.689H120.4V138.333ZM129.111 138.333H133.467V142.689H129.111V138.333ZM146.533 138.333H150.889V142.689H146.533V138.333ZM159.6 138.333H163.956V142.689H159.6V138.333ZM181.378 138.333H185.733V142.689H181.378V138.333ZM190.089 138.333H194.444V142.689H190.089V138.333ZM194.444 138.333H198.8V142.689H194.444V138.333ZM198.8 138.333H203.156V142.689H198.8V138.333ZM203.156 138.333H207.511V142.689H203.156V138.333ZM207.511 138.333H211.867V142.689H207.511V138.333ZM216.222 138.333H220.578V142.689H216.222V138.333ZM220.578 138.333H224.933V142.689H220.578V138.333ZM224.933 138.333H229.289V142.689H224.933V138.333ZM229.289 138.333H233.644V142.689H229.289V138.333ZM233.644 138.333H238V142.689H233.644V138.333ZM42 142.689H46.3556V147.044H42V142.689ZM50.7111 142.689H55.0667V147.044H50.7111V142.689ZM68.1333 142.689H72.4889V147.044H68.1333V142.689ZM72.4889 142.689H76.8444V147.044H72.4889V142.689ZM76.8444 142.689H81.2V147.044H76.8444V142.689ZM85.5556 142.689H89.9111V147.044H85.5556V142.689ZM94.2667 142.689H98.6222V147.044H94.2667V142.689ZM98.6222 142.689H102.978V147.044H98.6222V142.689ZM102.978 142.689H107.333V147.044H102.978V142.689ZM129.111 142.689H133.467V147.044H129.111V142.689ZM137.822 142.689H142.178V147.044H137.822V142.689ZM150.889 142.689H155.244V147.044H150.889V142.689ZM155.244 142.689H159.6V147.044H155.244V142.689ZM190.089 142.689H194.444V147.044H190.089V142.689ZM207.511 142.689H211.867V147.044H207.511V142.689ZM220.578 142.689H224.933V147.044H220.578V142.689ZM229.289 142.689H233.644V147.044H229.289V142.689ZM46.3556 147.044H50.7111V151.4H46.3556V147.044ZM50.7111 147.044H55.0667V151.4H50.7111V147.044ZM55.0667 147.044H59.4222V151.4H55.0667V147.044ZM81.2 147.044H85.5556V151.4H81.2V147.044ZM94.2667 147.044H98.6222V151.4H94.2667V147.044ZM98.6222 147.044H102.978V151.4H98.6222V147.044ZM107.333 147.044H111.689V151.4H107.333V147.044ZM111.689 147.044H116.044V151.4H111.689V147.044ZM116.044 147.044H120.4V151.4H116.044V147.044ZM129.111 147.044H133.467V151.4H129.111V147.044ZM146.533 147.044H150.889V151.4H146.533V147.044ZM150.889 147.044H155.244V151.4H150.889V147.044ZM159.6 147.044H163.956V151.4H159.6V147.044ZM163.956 147.044H168.311V151.4H163.956V147.044ZM168.311 147.044H172.667V151.4H168.311V147.044ZM172.667 147.044H177.022V151.4H172.667V147.044ZM177.022 147.044H181.378V151.4H177.022V147.044ZM181.378 147.044H185.733V151.4H181.378V147.044ZM198.8 147.044H203.156V151.4H198.8V147.044ZM203.156 147.044H207.511V151.4H203.156V147.044ZM216.222 147.044H220.578V151.4H216.222V147.044ZM220.578 147.044H224.933V151.4H220.578V147.044ZM224.933 147.044H229.289V151.4H224.933V147.044ZM229.289 147.044H233.644V151.4H229.289V147.044ZM233.644 147.044H238V151.4H233.644V147.044ZM46.3556 151.4H50.7111V155.756H46.3556V151.4ZM50.7111 151.4H55.0667V155.756H50.7111V151.4ZM55.0667 151.4H59.4222V155.756H55.0667V151.4ZM59.4222 151.4H63.7778V155.756H59.4222V151.4ZM63.7778 151.4H68.1333V155.756H63.7778V151.4ZM68.1333 151.4H72.4889V155.756H68.1333V151.4ZM76.8444 151.4H81.2V155.756H76.8444V151.4ZM94.2667 151.4H98.6222V155.756H94.2667V151.4ZM98.6222 151.4H102.978V155.756H98.6222V151.4ZM116.044 151.4H120.4V155.756H116.044V151.4ZM133.467 151.4H137.822V155.756H133.467V151.4ZM137.822 151.4H142.178V155.756H137.822V151.4ZM142.178 151.4H146.533V155.756H142.178V151.4ZM159.6 151.4H163.956V155.756H159.6V151.4ZM163.956 151.4H168.311V155.756H163.956V151.4ZM177.022 151.4H181.378V155.756H177.022V151.4ZM181.378 151.4H185.733V155.756H181.378V151.4ZM185.733 151.4H190.089V155.756H185.733V151.4ZM190.089 151.4H194.444V155.756H190.089V151.4ZM194.444 151.4H198.8V155.756H194.444V151.4ZM198.8 151.4H203.156V155.756H198.8V151.4ZM207.511 151.4H211.867V155.756H207.511V151.4ZM220.578 151.4H224.933V155.756H220.578V151.4ZM229.289 151.4H233.644V155.756H229.289V151.4ZM46.3556 155.756H50.7111V160.111H46.3556V155.756ZM55.0667 155.756H59.4222V160.111H55.0667V155.756ZM59.4222 155.756H63.7778V160.111H59.4222V155.756ZM63.7778 155.756H68.1333V160.111H63.7778V155.756ZM72.4889 155.756H76.8444V160.111H72.4889V155.756ZM76.8444 155.756H81.2V160.111H76.8444V155.756ZM81.2 155.756H85.5556V160.111H81.2V155.756ZM85.5556 155.756H89.9111V160.111H85.5556V155.756ZM98.6222 155.756H102.978V160.111H98.6222V155.756ZM107.333 155.756H111.689V160.111H107.333V155.756ZM116.044 155.756H120.4V160.111H116.044V155.756ZM120.4 155.756H124.756V160.111H120.4V155.756ZM129.111 155.756H133.467V160.111H129.111V155.756ZM137.822 155.756H142.178V160.111H137.822V155.756ZM150.889 155.756H155.244V160.111H150.889V155.756ZM159.6 155.756H163.956V160.111H159.6V155.756ZM168.311 155.756H172.667V160.111H168.311V155.756ZM172.667 155.756H177.022V160.111H172.667V155.756ZM181.378 155.756H185.733V160.111H181.378V155.756ZM185.733 155.756H190.089V160.111H185.733V155.756ZM190.089 155.756H194.444V160.111H190.089V155.756ZM198.8 155.756H203.156V160.111H198.8V155.756ZM203.156 155.756H207.511V160.111H203.156V155.756ZM207.511 155.756H211.867V160.111H207.511V155.756ZM211.867 155.756H216.222V160.111H211.867V155.756ZM224.933 155.756H229.289V160.111H224.933V155.756ZM50.7111 160.111H55.0667V164.467H50.7111V160.111ZM59.4222 160.111H63.7778V164.467H59.4222V160.111ZM63.7778 160.111H68.1333V164.467H63.7778V160.111ZM68.1333 160.111H72.4889V164.467H68.1333V160.111ZM72.4889 160.111H76.8444V164.467H72.4889V160.111ZM76.8444 160.111H81.2V164.467H76.8444V160.111ZM81.2 160.111H85.5556V164.467H81.2V160.111ZM89.9111 160.111H94.2667V164.467H89.9111V160.111ZM94.2667 160.111H98.6222V164.467H94.2667V160.111ZM102.978 160.111H107.333V164.467H102.978V160.111ZM107.333 160.111H111.689V164.467H107.333V160.111ZM111.689 160.111H116.044V164.467H111.689V160.111ZM120.4 160.111H124.756V164.467H120.4V160.111ZM124.756 160.111H129.111V164.467H124.756V160.111ZM129.111 160.111H133.467V164.467H129.111V160.111ZM133.467 160.111H137.822V164.467H133.467V160.111ZM137.822 160.111H142.178V164.467H137.822V160.111ZM142.178 160.111H146.533V164.467H142.178V160.111ZM146.533 160.111H150.889V164.467H146.533V160.111ZM155.244 160.111H159.6V164.467H155.244V160.111ZM159.6 160.111H163.956V164.467H159.6V160.111ZM168.311 160.111H172.667V164.467H168.311V160.111ZM181.378 160.111H185.733V164.467H181.378V160.111ZM185.733 160.111H190.089V164.467H185.733V160.111ZM198.8 160.111H203.156V164.467H198.8V160.111ZM203.156 160.111H207.511V164.467H203.156V160.111ZM207.511 160.111H211.867V164.467H207.511V160.111ZM211.867 160.111H216.222V164.467H211.867V160.111ZM216.222 160.111H220.578V164.467H216.222V160.111ZM224.933 160.111H229.289V164.467H224.933V160.111ZM229.289 160.111H233.644V164.467H229.289V160.111ZM42 164.467H46.3556V168.822H42V164.467ZM50.7111 164.467H55.0667V168.822H50.7111V164.467ZM55.0667 164.467H59.4222V168.822H55.0667V164.467ZM59.4222 164.467H63.7778V168.822H59.4222V164.467ZM76.8444 164.467H81.2V168.822H76.8444V164.467ZM102.978 164.467H107.333V168.822H102.978V164.467ZM111.689 164.467H116.044V168.822H111.689V164.467ZM120.4 164.467H124.756V168.822H120.4V164.467ZM129.111 164.467H133.467V168.822H129.111V164.467ZM146.533 164.467H150.889V168.822H146.533V164.467ZM155.244 164.467H159.6V168.822H155.244V164.467ZM159.6 164.467H163.956V168.822H159.6V164.467ZM163.956 164.467H168.311V168.822H163.956V164.467ZM168.311 164.467H172.667V168.822H168.311V164.467ZM172.667 164.467H177.022V168.822H172.667V164.467ZM185.733 164.467H190.089V168.822H185.733V164.467ZM190.089 164.467H194.444V168.822H190.089V164.467ZM198.8 164.467H203.156V168.822H198.8V164.467ZM216.222 164.467H220.578V168.822H216.222V164.467ZM224.933 164.467H229.289V168.822H224.933V164.467ZM233.644 164.467H238V168.822H233.644V164.467ZM50.7111 168.822H55.0667V173.178H50.7111V168.822ZM55.0667 168.822H59.4222V173.178H55.0667V168.822ZM59.4222 168.822H63.7778V173.178H59.4222V168.822ZM68.1333 168.822H72.4889V173.178H68.1333V168.822ZM76.8444 168.822H81.2V173.178H76.8444V168.822ZM81.2 168.822H85.5556V173.178H81.2V168.822ZM89.9111 168.822H94.2667V173.178H89.9111V168.822ZM98.6222 168.822H102.978V173.178H98.6222V168.822ZM102.978 168.822H107.333V173.178H102.978V168.822ZM111.689 168.822H116.044V173.178H111.689V168.822ZM124.756 168.822H129.111V173.178H124.756V168.822ZM129.111 168.822H133.467V173.178H129.111V168.822ZM137.822 168.822H142.178V173.178H137.822V168.822ZM146.533 168.822H150.889V173.178H146.533V168.822ZM159.6 168.822H163.956V173.178H159.6V168.822ZM168.311 168.822H172.667V173.178H168.311V168.822ZM198.8 168.822H203.156V173.178H198.8V168.822ZM207.511 168.822H211.867V173.178H207.511V168.822ZM216.222 168.822H220.578V173.178H216.222V168.822ZM220.578 168.822H224.933V173.178H220.578V168.822ZM50.7111 173.178H55.0667V177.533H50.7111V173.178ZM55.0667 173.178H59.4222V177.533H55.0667V173.178ZM59.4222 173.178H63.7778V177.533H59.4222V173.178ZM76.8444 173.178H81.2V177.533H76.8444V173.178ZM85.5556 173.178H89.9111V177.533H85.5556V173.178ZM94.2667 173.178H98.6222V177.533H94.2667V173.178ZM98.6222 173.178H102.978V177.533H98.6222V173.178ZM116.044 173.178H120.4V177.533H116.044V173.178ZM120.4 173.178H124.756V177.533H120.4V173.178ZM124.756 173.178H129.111V177.533H124.756V173.178ZM129.111 173.178H133.467V177.533H129.111V173.178ZM146.533 173.178H150.889V177.533H146.533V173.178ZM150.889 173.178H155.244V177.533H150.889V173.178ZM155.244 173.178H159.6V177.533H155.244V173.178ZM168.311 173.178H172.667V177.533H168.311V173.178ZM181.378 173.178H185.733V177.533H181.378V173.178ZM190.089 173.178H194.444V177.533H190.089V173.178ZM198.8 173.178H203.156V177.533H198.8V173.178ZM216.222 173.178H220.578V177.533H216.222V173.178ZM224.933 173.178H229.289V177.533H224.933V173.178ZM59.4222 177.533H63.7778V181.889H59.4222V177.533ZM63.7778 177.533H68.1333V181.889H63.7778V177.533ZM68.1333 177.533H72.4889V181.889H68.1333V177.533ZM72.4889 177.533H76.8444V181.889H72.4889V177.533ZM76.8444 177.533H81.2V181.889H76.8444V177.533ZM81.2 177.533H85.5556V181.889H81.2V177.533ZM89.9111 177.533H94.2667V181.889H89.9111V177.533ZM94.2667 177.533H98.6222V181.889H94.2667V177.533ZM102.978 177.533H107.333V181.889H102.978V177.533ZM111.689 177.533H116.044V181.889H111.689V177.533ZM124.756 177.533H129.111V181.889H124.756V177.533ZM129.111 177.533H133.467V181.889H129.111V177.533ZM133.467 177.533H137.822V181.889H133.467V177.533ZM137.822 177.533H142.178V181.889H137.822V177.533ZM142.178 177.533H146.533V181.889H142.178V177.533ZM146.533 177.533H150.889V181.889H146.533V177.533ZM150.889 177.533H155.244V181.889H150.889V177.533ZM155.244 177.533H159.6V181.889H155.244V177.533ZM168.311 177.533H172.667V181.889H168.311V177.533ZM177.022 177.533H181.378V181.889H177.022V177.533ZM194.444 177.533H198.8V181.889H194.444V177.533ZM198.8 177.533H203.156V181.889H198.8V177.533ZM203.156 177.533H207.511V181.889H203.156V177.533ZM207.511 177.533H211.867V181.889H207.511V177.533ZM211.867 177.533H216.222V181.889H211.867V177.533ZM216.222 177.533H220.578V181.889H216.222V177.533ZM220.578 177.533H224.933V181.889H220.578V177.533ZM233.644 177.533H238V181.889H233.644V177.533ZM42 181.889H46.3556V186.244H42V181.889ZM50.7111 181.889H55.0667V186.244H50.7111V181.889ZM55.0667 181.889H59.4222V186.244H55.0667V181.889ZM59.4222 181.889H63.7778V186.244H59.4222V181.889ZM72.4889 181.889H76.8444V186.244H72.4889V181.889ZM81.2 181.889H85.5556V186.244H81.2V181.889ZM85.5556 181.889H89.9111V186.244H85.5556V181.889ZM94.2667 181.889H98.6222V186.244H94.2667V181.889ZM98.6222 181.889H102.978V186.244H98.6222V181.889ZM102.978 181.889H107.333V186.244H102.978V181.889ZM107.333 181.889H111.689V186.244H107.333V181.889ZM111.689 181.889H116.044V186.244H111.689V181.889ZM116.044 181.889H120.4V186.244H116.044V181.889ZM120.4 181.889H124.756V186.244H120.4V181.889ZM137.822 181.889H142.178V186.244H137.822V181.889ZM150.889 181.889H155.244V186.244H150.889V181.889ZM168.311 181.889H172.667V186.244H168.311V181.889ZM172.667 181.889H177.022V186.244H172.667V181.889ZM185.733 181.889H190.089V186.244H185.733V181.889ZM203.156 181.889H207.511V186.244H203.156V181.889ZM211.867 181.889H216.222V186.244H211.867V181.889ZM216.222 181.889H220.578V186.244H216.222V181.889ZM220.578 181.889H224.933V186.244H220.578V181.889ZM224.933 181.889H229.289V186.244H224.933V181.889ZM229.289 181.889H233.644V186.244H229.289V181.889ZM233.644 181.889H238V186.244H233.644V181.889ZM46.3556 186.244H50.7111V190.6H46.3556V186.244ZM59.4222 186.244H63.7778V190.6H59.4222V186.244ZM68.1333 186.244H72.4889V190.6H68.1333V186.244ZM72.4889 186.244H76.8444V190.6H72.4889V186.244ZM85.5556 186.244H89.9111V190.6H85.5556V186.244ZM89.9111 186.244H94.2667V190.6H89.9111V186.244ZM94.2667 186.244H98.6222V190.6H94.2667V186.244ZM98.6222 186.244H102.978V190.6H98.6222V186.244ZM102.978 186.244H107.333V190.6H102.978V186.244ZM116.044 186.244H120.4V190.6H116.044V186.244ZM129.111 186.244H133.467V190.6H129.111V186.244ZM133.467 186.244H137.822V190.6H133.467V186.244ZM155.244 186.244H159.6V190.6H155.244V186.244ZM168.311 186.244H172.667V190.6H168.311V186.244ZM172.667 186.244H177.022V190.6H172.667V186.244ZM177.022 186.244H181.378V190.6H177.022V186.244ZM185.733 186.244H190.089V190.6H185.733V186.244ZM190.089 186.244H194.444V190.6H190.089V186.244ZM194.444 186.244H198.8V190.6H194.444V186.244ZM198.8 186.244H203.156V190.6H198.8V186.244ZM211.867 186.244H216.222V190.6H211.867V186.244ZM229.289 186.244H233.644V190.6H229.289V186.244ZM46.3556 190.6H50.7111V194.956H46.3556V190.6ZM59.4222 190.6H63.7778V194.956H59.4222V190.6ZM63.7778 190.6H68.1333V194.956H63.7778V190.6ZM81.2 190.6H85.5556V194.956H81.2V190.6ZM85.5556 190.6H89.9111V194.956H85.5556V190.6ZM94.2667 190.6H98.6222V194.956H94.2667V190.6ZM98.6222 190.6H102.978V194.956H98.6222V190.6ZM120.4 190.6H124.756V194.956H120.4V190.6ZM124.756 190.6H129.111V194.956H124.756V190.6ZM129.111 190.6H133.467V194.956H129.111V190.6ZM142.178 190.6H146.533V194.956H142.178V190.6ZM146.533 190.6H150.889V194.956H146.533V190.6ZM168.311 190.6H172.667V194.956H168.311V190.6ZM172.667 190.6H177.022V194.956H172.667V190.6ZM190.089 190.6H194.444V194.956H190.089V190.6ZM194.444 190.6H198.8V194.956H194.444V190.6ZM207.511 190.6H211.867V194.956H207.511V190.6ZM216.222 190.6H220.578V194.956H216.222V190.6ZM220.578 190.6H224.933V194.956H220.578V190.6ZM46.3556 194.956H50.7111V199.311H46.3556V194.956ZM55.0667 194.956H59.4222V199.311H55.0667V194.956ZM59.4222 194.956H63.7778V199.311H59.4222V194.956ZM68.1333 194.956H72.4889V199.311H68.1333V194.956ZM85.5556 194.956H89.9111V199.311H85.5556V194.956ZM94.2667 194.956H98.6222V199.311H94.2667V194.956ZM107.333 194.956H111.689V199.311H107.333V194.956ZM116.044 194.956H120.4V199.311H116.044V194.956ZM120.4 194.956H124.756V199.311H120.4V194.956ZM124.756 194.956H129.111V199.311H124.756V194.956ZM137.822 194.956H142.178V199.311H137.822V194.956ZM142.178 194.956H146.533V199.311H142.178V194.956ZM146.533 194.956H150.889V199.311H146.533V194.956ZM150.889 194.956H155.244V199.311H150.889V194.956ZM155.244 194.956H159.6V199.311H155.244V194.956ZM163.956 194.956H168.311V199.311H163.956V194.956ZM168.311 194.956H172.667V199.311H168.311V194.956ZM177.022 194.956H181.378V199.311H177.022V194.956ZM185.733 194.956H190.089V199.311H185.733V194.956ZM203.156 194.956H207.511V199.311H203.156V194.956ZM216.222 194.956H220.578V199.311H216.222V194.956ZM233.644 194.956H238V199.311H233.644V194.956ZM55.0667 199.311H59.4222V203.667H55.0667V199.311ZM59.4222 199.311H63.7778V203.667H59.4222V199.311ZM76.8444 199.311H81.2V203.667H76.8444V199.311ZM85.5556 199.311H89.9111V203.667H85.5556V199.311ZM102.978 199.311H107.333V203.667H102.978V199.311ZM107.333 199.311H111.689V203.667H107.333V199.311ZM111.689 199.311H116.044V203.667H111.689V199.311ZM120.4 199.311H124.756V203.667H120.4V199.311ZM129.111 199.311H133.467V203.667H129.111V199.311ZM146.533 199.311H150.889V203.667H146.533V199.311ZM163.956 199.311H168.311V203.667H163.956V199.311ZM172.667 199.311H177.022V203.667H172.667V199.311ZM177.022 199.311H181.378V203.667H177.022V199.311ZM207.511 199.311H211.867V203.667H207.511V199.311ZM233.644 199.311H238V203.667H233.644V199.311ZM42 203.667H46.3556V208.022H42V203.667ZM50.7111 203.667H55.0667V208.022H50.7111V203.667ZM63.7778 203.667H68.1333V208.022H63.7778V203.667ZM68.1333 203.667H72.4889V208.022H68.1333V203.667ZM76.8444 203.667H81.2V208.022H76.8444V203.667ZM81.2 203.667H85.5556V208.022H81.2V203.667ZM102.978 203.667H107.333V208.022H102.978V203.667ZM107.333 203.667H111.689V208.022H107.333V203.667ZM116.044 203.667H120.4V208.022H116.044V203.667ZM124.756 203.667H129.111V208.022H124.756V203.667ZM129.111 203.667H133.467V208.022H129.111V203.667ZM133.467 203.667H137.822V208.022H133.467V203.667ZM142.178 203.667H146.533V208.022H142.178V203.667ZM150.889 203.667H155.244V208.022H150.889V203.667ZM155.244 203.667H159.6V208.022H155.244V203.667ZM159.6 203.667H163.956V208.022H159.6V203.667ZM172.667 203.667H177.022V208.022H172.667V203.667ZM177.022 203.667H181.378V208.022H177.022V203.667ZM185.733 203.667H190.089V208.022H185.733V203.667ZM194.444 203.667H198.8V208.022H194.444V203.667ZM198.8 203.667H203.156V208.022H198.8V203.667ZM203.156 203.667H207.511V208.022H203.156V203.667ZM216.222 203.667H220.578V208.022H216.222V203.667ZM229.289 203.667H233.644V208.022H229.289V203.667ZM42 208.022H46.3556V212.378H42V208.022ZM46.3556 208.022H50.7111V212.378H46.3556V208.022ZM50.7111 208.022H55.0667V212.378H50.7111V208.022ZM85.5556 208.022H89.9111V212.378H85.5556V208.022ZM89.9111 208.022H94.2667V212.378H89.9111V208.022ZM94.2667 208.022H98.6222V212.378H94.2667V208.022ZM111.689 208.022H116.044V212.378H111.689V208.022ZM120.4 208.022H124.756V212.378H120.4V208.022ZM137.822 208.022H142.178V212.378H137.822V208.022ZM142.178 208.022H146.533V212.378H142.178V208.022ZM163.956 208.022H168.311V212.378H163.956V208.022ZM172.667 208.022H177.022V212.378H172.667V208.022ZM177.022 208.022H181.378V212.378H177.022V208.022ZM181.378 208.022H185.733V212.378H181.378V208.022ZM190.089 208.022H194.444V212.378H190.089V208.022ZM198.8 208.022H203.156V212.378H198.8V208.022ZM207.511 208.022H211.867V212.378H207.511V208.022ZM224.933 208.022H229.289V212.378H224.933V208.022ZM233.644 208.022H238V212.378H233.644V208.022ZM42 212.378H46.3556V216.733H42V212.378ZM50.7111 212.378H55.0667V216.733H50.7111V212.378ZM59.4222 212.378H63.7778V216.733H59.4222V212.378ZM63.7778 212.378H68.1333V216.733H63.7778V212.378ZM68.1333 212.378H72.4889V216.733H68.1333V212.378ZM72.4889 212.378H76.8444V216.733H72.4889V212.378ZM81.2 212.378H85.5556V216.733H81.2V212.378ZM94.2667 212.378H98.6222V216.733H94.2667V212.378ZM107.333 212.378H111.689V216.733H107.333V212.378ZM116.044 212.378H120.4V216.733H116.044V212.378ZM124.756 212.378H129.111V216.733H124.756V212.378ZM133.467 212.378H137.822V216.733H133.467V212.378ZM146.533 212.378H150.889V216.733H146.533V212.378ZM155.244 212.378H159.6V216.733H155.244V212.378ZM159.6 212.378H163.956V216.733H159.6V212.378ZM168.311 212.378H172.667V216.733H168.311V212.378ZM177.022 212.378H181.378V216.733H177.022V212.378ZM190.089 212.378H194.444V216.733H190.089V212.378ZM198.8 212.378H203.156V216.733H198.8V212.378ZM203.156 212.378H207.511V216.733H203.156V212.378ZM207.511 212.378H211.867V216.733H207.511V212.378ZM211.867 212.378H216.222V216.733H211.867V212.378ZM216.222 212.378H220.578V216.733H216.222V212.378ZM229.289 212.378H233.644V216.733H229.289V212.378ZM42 216.733H46.3556V221.089H42V216.733ZM46.3556 216.733H50.7111V221.089H46.3556V216.733ZM50.7111 216.733H55.0667V221.089H50.7111V216.733ZM55.0667 216.733H59.4222V221.089H55.0667V216.733ZM63.7778 216.733H68.1333V221.089H63.7778V216.733ZM81.2 216.733H85.5556V221.089H81.2V216.733ZM89.9111 216.733H94.2667V221.089H89.9111V216.733ZM107.333 216.733H111.689V221.089H107.333V216.733ZM111.689 216.733H116.044V221.089H111.689V216.733ZM116.044 216.733H120.4V221.089H116.044V216.733ZM124.756 216.733H129.111V221.089H124.756V216.733ZM133.467 216.733H137.822V221.089H133.467V216.733ZM137.822 216.733H142.178V221.089H137.822V216.733ZM146.533 216.733H150.889V221.089H146.533V216.733ZM168.311 216.733H172.667V221.089H168.311V216.733ZM172.667 216.733H177.022V221.089H172.667V216.733ZM177.022 216.733H181.378V221.089H177.022V216.733ZM181.378 216.733H185.733V221.089H181.378V216.733ZM216.222 216.733H220.578V221.089H216.222V216.733ZM220.578 216.733H224.933V221.089H220.578V216.733ZM224.933 216.733H229.289V221.089H224.933V216.733ZM233.644 216.733H238V221.089H233.644V216.733ZM59.4222 221.089H63.7778V225.444H59.4222V221.089ZM68.1333 221.089H72.4889V225.444H68.1333V221.089ZM72.4889 221.089H76.8444V225.444H72.4889V221.089ZM76.8444 221.089H81.2V225.444H76.8444V221.089ZM98.6222 221.089H102.978V225.444H98.6222V221.089ZM102.978 221.089H107.333V225.444H102.978V221.089ZM116.044 221.089H120.4V225.444H116.044V221.089ZM124.756 221.089H129.111V225.444H124.756V221.089ZM129.111 221.089H133.467V225.444H129.111V221.089ZM133.467 221.089H137.822V225.444H133.467V221.089ZM146.533 221.089H150.889V225.444H146.533V221.089ZM150.889 221.089H155.244V225.444H150.889V221.089ZM155.244 221.089H159.6V225.444H155.244V221.089ZM159.6 221.089H163.956V225.444H159.6V221.089ZM177.022 221.089H181.378V225.444H177.022V221.089ZM181.378 221.089H185.733V225.444H181.378V221.089ZM190.089 221.089H194.444V225.444H190.089V221.089ZM198.8 221.089H203.156V225.444H198.8V221.089ZM207.511 221.089H211.867V225.444H207.511V221.089ZM224.933 221.089H229.289V225.444H224.933V221.089ZM229.289 221.089H233.644V225.444H229.289V221.089ZM46.3556 225.444H50.7111V229.8H46.3556V225.444ZM50.7111 225.444H55.0667V229.8H50.7111V225.444ZM55.0667 225.444H59.4222V229.8H55.0667V225.444ZM59.4222 225.444H63.7778V229.8H59.4222V225.444ZM72.4889 225.444H76.8444V229.8H72.4889V225.444ZM76.8444 225.444H81.2V229.8H76.8444V225.444ZM89.9111 225.444H94.2667V229.8H89.9111V225.444ZM111.689 225.444H116.044V229.8H111.689V225.444ZM116.044 225.444H120.4V229.8H116.044V225.444ZM120.4 225.444H124.756V229.8H120.4V225.444ZM124.756 225.444H129.111V229.8H124.756V225.444ZM129.111 225.444H133.467V229.8H129.111V225.444ZM133.467 225.444H137.822V229.8H133.467V225.444ZM142.178 225.444H146.533V229.8H142.178V225.444ZM146.533 225.444H150.889V229.8H146.533V225.444ZM159.6 225.444H163.956V229.8H159.6V225.444ZM168.311 225.444H172.667V229.8H168.311V225.444ZM172.667 225.444H177.022V229.8H172.667V225.444ZM185.733 225.444H190.089V229.8H185.733V225.444ZM194.444 225.444H198.8V229.8H194.444V225.444ZM216.222 225.444H220.578V229.8H216.222V225.444ZM220.578 225.444H224.933V229.8H220.578V225.444ZM42 229.8H46.3556V234.156H42V229.8ZM55.0667 229.8H59.4222V234.156H55.0667V229.8ZM59.4222 229.8H63.7778V234.156H59.4222V229.8ZM68.1333 229.8H72.4889V234.156H68.1333V229.8ZM76.8444 229.8H81.2V234.156H76.8444V229.8ZM81.2 229.8H85.5556V234.156H81.2V229.8ZM102.978 229.8H107.333V234.156H102.978V229.8ZM107.333 229.8H111.689V234.156H107.333V229.8ZM116.044 229.8H120.4V234.156H116.044V229.8ZM129.111 229.8H133.467V234.156H129.111V229.8ZM133.467 229.8H137.822V234.156H133.467V229.8ZM137.822 229.8H142.178V234.156H137.822V229.8ZM142.178 229.8H146.533V234.156H142.178V229.8ZM146.533 229.8H150.889V234.156H146.533V229.8ZM181.378 229.8H185.733V234.156H181.378V229.8ZM185.733 229.8H190.089V234.156H185.733V229.8ZM190.089 229.8H194.444V234.156H190.089V229.8ZM198.8 229.8H203.156V234.156H198.8V229.8ZM203.156 229.8H207.511V234.156H203.156V229.8ZM207.511 229.8H211.867V234.156H207.511V229.8ZM211.867 229.8H216.222V234.156H211.867V229.8ZM216.222 229.8H220.578V234.156H216.222V229.8ZM224.933 229.8H229.289V234.156H224.933V229.8ZM76.8444 234.156H81.2V238.511H76.8444V234.156ZM81.2 234.156H85.5556V238.511H81.2V234.156ZM85.5556 234.156H89.9111V238.511H85.5556V234.156ZM124.756 234.156H129.111V238.511H124.756V234.156ZM129.111 234.156H133.467V238.511H129.111V234.156ZM146.533 234.156H150.889V238.511H146.533V234.156ZM150.889 234.156H155.244V238.511H150.889V234.156ZM163.956 234.156H168.311V238.511H163.956V234.156ZM168.311 234.156H172.667V238.511H168.311V234.156ZM177.022 234.156H181.378V238.511H177.022V234.156ZM194.444 234.156H198.8V238.511H194.444V234.156ZM198.8 234.156H203.156V238.511H198.8V234.156ZM216.222 234.156H220.578V238.511H216.222V234.156ZM220.578 234.156H224.933V238.511H220.578V234.156ZM233.644 234.156H238V238.511H233.644V234.156ZM42 238.511H46.3556V242.867H42V238.511ZM46.3556 238.511H50.7111V242.867H46.3556V238.511ZM50.7111 238.511H55.0667V242.867H50.7111V238.511ZM55.0667 238.511H59.4222V242.867H55.0667V238.511ZM59.4222 238.511H63.7778V242.867H59.4222V238.511ZM63.7778 238.511H68.1333V242.867H63.7778V238.511ZM68.1333 238.511H72.4889V242.867H68.1333V238.511ZM76.8444 238.511H81.2V242.867H76.8444V238.511ZM81.2 238.511H85.5556V242.867H81.2V238.511ZM85.5556 238.511H89.9111V242.867H85.5556V238.511ZM98.6222 238.511H102.978V242.867H98.6222V238.511ZM102.978 238.511H107.333V242.867H102.978V238.511ZM107.333 238.511H111.689V242.867H107.333V238.511ZM111.689 238.511H116.044V242.867H111.689V238.511ZM116.044 238.511H120.4V242.867H116.044V238.511ZM120.4 238.511H124.756V242.867H120.4V238.511ZM129.111 238.511H133.467V242.867H129.111V238.511ZM137.822 238.511H142.178V242.867H137.822V238.511ZM146.533 238.511H150.889V242.867H146.533V238.511ZM150.889 238.511H155.244V242.867H150.889V238.511ZM168.311 238.511H172.667V242.867H168.311V238.511ZM190.089 238.511H194.444V242.867H190.089V238.511ZM194.444 238.511H198.8V242.867H194.444V238.511ZM198.8 238.511H203.156V242.867H198.8V238.511ZM207.511 238.511H211.867V242.867H207.511V238.511ZM216.222 238.511H220.578V242.867H216.222V238.511ZM220.578 238.511H224.933V242.867H220.578V238.511ZM233.644 238.511H238V242.867H233.644V238.511ZM42 242.867H46.3556V247.222H42V242.867ZM68.1333 242.867H72.4889V247.222H68.1333V242.867ZM89.9111 242.867H94.2667V247.222H89.9111V242.867ZM94.2667 242.867H98.6222V247.222H94.2667V242.867ZM102.978 242.867H107.333V247.222H102.978V242.867ZM111.689 242.867H116.044V247.222H111.689V242.867ZM116.044 242.867H120.4V247.222H116.044V242.867ZM120.4 242.867H124.756V247.222H120.4V242.867ZM129.111 242.867H133.467V247.222H129.111V242.867ZM146.533 242.867H150.889V247.222H146.533V242.867ZM150.889 242.867H155.244V247.222H150.889V242.867ZM163.956 242.867H168.311V247.222H163.956V242.867ZM172.667 242.867H177.022V247.222H172.667V242.867ZM181.378 242.867H185.733V247.222H181.378V242.867ZM185.733 242.867H190.089V247.222H185.733V242.867ZM194.444 242.867H198.8V247.222H194.444V242.867ZM198.8 242.867H203.156V247.222H198.8V242.867ZM216.222 242.867H220.578V247.222H216.222V242.867ZM224.933 242.867H229.289V247.222H224.933V242.867ZM42 247.222H46.3556V251.578H42V247.222ZM50.7111 247.222H55.0667V251.578H50.7111V247.222ZM55.0667 247.222H59.4222V251.578H55.0667V247.222ZM59.4222 247.222H63.7778V251.578H59.4222V247.222ZM68.1333 247.222H72.4889V251.578H68.1333V247.222ZM76.8444 247.222H81.2V251.578H76.8444V247.222ZM81.2 247.222H85.5556V251.578H81.2V247.222ZM89.9111 247.222H94.2667V251.578H89.9111V247.222ZM94.2667 247.222H98.6222V251.578H94.2667V247.222ZM98.6222 247.222H102.978V251.578H98.6222V247.222ZM102.978 247.222H107.333V251.578H102.978V247.222ZM107.333 247.222H111.689V251.578H107.333V247.222ZM116.044 247.222H120.4V251.578H116.044V247.222ZM124.756 247.222H129.111V251.578H124.756V247.222ZM129.111 247.222H133.467V251.578H129.111V247.222ZM133.467 247.222H137.822V251.578H133.467V247.222ZM137.822 247.222H142.178V251.578H137.822V247.222ZM142.178 247.222H146.533V251.578H142.178V247.222ZM146.533 247.222H150.889V251.578H146.533V247.222ZM150.889 247.222H155.244V251.578H150.889V247.222ZM177.022 247.222H181.378V251.578H177.022V247.222ZM185.733 247.222H190.089V251.578H185.733V247.222ZM198.8 247.222H203.156V251.578H198.8V247.222ZM203.156 247.222H207.511V251.578H203.156V247.222ZM207.511 247.222H211.867V251.578H207.511V247.222ZM211.867 247.222H216.222V251.578H211.867V247.222ZM216.222 247.222H220.578V251.578H216.222V247.222ZM229.289 247.222H233.644V251.578H229.289V247.222ZM42 251.578H46.3556V255.933H42V251.578ZM50.7111 251.578H55.0667V255.933H50.7111V251.578ZM55.0667 251.578H59.4222V255.933H55.0667V251.578ZM59.4222 251.578H63.7778V255.933H59.4222V251.578ZM68.1333 251.578H72.4889V255.933H68.1333V251.578ZM76.8444 251.578H81.2V255.933H76.8444V251.578ZM81.2 251.578H85.5556V255.933H81.2V251.578ZM85.5556 251.578H89.9111V255.933H85.5556V251.578ZM94.2667 251.578H98.6222V255.933H94.2667V251.578ZM107.333 251.578H111.689V255.933H107.333V251.578ZM111.689 251.578H116.044V255.933H111.689V251.578ZM120.4 251.578H124.756V255.933H120.4V251.578ZM142.178 251.578H146.533V255.933H142.178V251.578ZM146.533 251.578H150.889V255.933H146.533V251.578ZM150.889 251.578H155.244V255.933H150.889V251.578ZM168.311 251.578H172.667V255.933H168.311V251.578ZM172.667 251.578H177.022V255.933H172.667V251.578ZM181.378 251.578H185.733V255.933H181.378V251.578ZM207.511 251.578H211.867V255.933H207.511V251.578ZM216.222 251.578H220.578V255.933H216.222V251.578ZM220.578 251.578H224.933V255.933H220.578V251.578ZM229.289 251.578H233.644V255.933H229.289V251.578ZM233.644 251.578H238V255.933H233.644V251.578ZM42 255.933H46.3556V260.289H42V255.933ZM50.7111 255.933H55.0667V260.289H50.7111V255.933ZM55.0667 255.933H59.4222V260.289H55.0667V255.933ZM59.4222 255.933H63.7778V260.289H59.4222V255.933ZM68.1333 255.933H72.4889V260.289H68.1333V255.933ZM76.8444 255.933H81.2V260.289H76.8444V255.933ZM81.2 255.933H85.5556V260.289H81.2V255.933ZM89.9111 255.933H94.2667V260.289H89.9111V255.933ZM94.2667 255.933H98.6222V260.289H94.2667V255.933ZM98.6222 255.933H102.978V260.289H98.6222V255.933ZM116.044 255.933H120.4V260.289H116.044V255.933ZM124.756 255.933H129.111V260.289H124.756V255.933ZM129.111 255.933H133.467V260.289H129.111V255.933ZM133.467 255.933H137.822V260.289H133.467V255.933ZM142.178 255.933H146.533V260.289H142.178V255.933ZM146.533 255.933H150.889V260.289H146.533V255.933ZM155.244 255.933H159.6V260.289H155.244V255.933ZM190.089 255.933H194.444V260.289H190.089V255.933ZM203.156 255.933H207.511V260.289H203.156V255.933ZM220.578 255.933H224.933V260.289H220.578V255.933ZM224.933 255.933H229.289V260.289H224.933V255.933ZM42 260.289H46.3556V264.644H42V260.289ZM68.1333 260.289H72.4889V264.644H68.1333V260.289ZM76.8444 260.289H81.2V264.644H76.8444V260.289ZM81.2 260.289H85.5556V264.644H81.2V260.289ZM94.2667 260.289H98.6222V264.644H94.2667V260.289ZM98.6222 260.289H102.978V264.644H98.6222V260.289ZM102.978 260.289H107.333V264.644H102.978V260.289ZM111.689 260.289H116.044V264.644H111.689V260.289ZM120.4 260.289H124.756V264.644H120.4V260.289ZM124.756 260.289H129.111V264.644H124.756V260.289ZM129.111 260.289H133.467V264.644H129.111V260.289ZM133.467 260.289H137.822V264.644H133.467V260.289ZM142.178 260.289H146.533V264.644H142.178V260.289ZM146.533 260.289H150.889V264.644H146.533V260.289ZM155.244 260.289H159.6V264.644H155.244V260.289ZM159.6 260.289H163.956V264.644H159.6V260.289ZM163.956 260.289H168.311V264.644H163.956V260.289ZM168.311 260.289H172.667V264.644H168.311V260.289ZM172.667 260.289H177.022V264.644H172.667V260.289ZM185.733 260.289H190.089V264.644H185.733V260.289ZM190.089 260.289H194.444V264.644H190.089V260.289ZM194.444 260.289H198.8V264.644H194.444V260.289ZM203.156 260.289H207.511V264.644H203.156V260.289ZM216.222 260.289H220.578V264.644H216.222V260.289ZM220.578 260.289H224.933V264.644H220.578V260.289ZM42 264.644H46.3556V269H42V264.644ZM46.3556 264.644H50.7111V269H46.3556V264.644ZM50.7111 264.644H55.0667V269H50.7111V264.644ZM55.0667 264.644H59.4222V269H55.0667V264.644ZM59.4222 264.644H63.7778V269H59.4222V264.644ZM63.7778 264.644H68.1333V269H63.7778V264.644ZM68.1333 264.644H72.4889V269H68.1333V264.644ZM76.8444 264.644H81.2V269H76.8444V264.644ZM81.2 264.644H85.5556V269H81.2V264.644ZM85.5556 264.644H89.9111V269H85.5556V264.644ZM102.978 264.644H107.333V269H102.978V264.644ZM107.333 264.644H111.689V269H107.333V264.644ZM111.689 264.644H116.044V269H111.689V264.644ZM120.4 264.644H124.756V269H120.4V264.644ZM124.756 264.644H129.111V269H124.756V264.644ZM137.822 264.644H142.178V269H137.822V264.644ZM146.533 264.644H150.889V269H146.533V264.644ZM150.889 264.644H155.244V269H150.889V264.644ZM155.244 264.644H159.6V269H155.244V264.644ZM159.6 264.644H163.956V269H159.6V264.644ZM168.311 264.644H172.667V269H168.311V264.644ZM185.733 264.644H190.089V269H185.733V264.644ZM190.089 264.644H194.444V269H190.089V264.644ZM194.444 264.644H198.8V269H194.444V264.644ZM198.8 264.644H203.156V269H198.8V264.644ZM207.511 264.644H211.867V269H207.511V264.644ZM216.222 264.644H220.578V269H216.222V264.644ZM224.933 264.644H229.289V269H224.933V264.644ZM229.289 264.644H233.644V269H229.289V264.644Z" fill="#1B1D29"/>
</g>
</g>
<rect x="0.5" y="0.5" width="278" height="317" rx="23.5" stroke="black"/>
<rect x="0.5" y="0.5" width="278" height="317" rx="23.5" stroke="url(#paint15_linear_602_25979)"/>
<defs>
<filter id="filter0_d_602_25979" x="11" y="42" width="258" height="258" filterUnits="userSpaceOnUse" color-interpolation-filters="sRGB">
<feFlood flood-opacity="0" result="BackgroundImageFix"/>
<feColorMatrix in="SourceAlpha" type="matrix" values="0 0 0 0 0 0 0 0 0 0 0 0 0 0 0 0 0 0 127 0" result="hardAlpha"/>
<feOffset/>
<feGaussianBlur stdDeviation="7.5"/>
<feComposite in2="hardAlpha" operator="out"/>
<feColorMatrix type="matrix" values="0 0 0 0 0.895833 0 0 0 0 0.712779 0 0 0 0 0.0970486 0 0 0 0.15 0"/>
<feBlend mode="normal" in2="BackgroundImageFix" result="effect1_dropShadow_602_25979"/>
<feBlend mode="normal" in="SourceGraphic" in2="effect1_dropShadow_602_25979" result="shape"/>
</filter>
<linearGradient id="paint0_linear_602_25979" x1="139.5" y1="-0.000187835" x2="139.5" y2="318" gradientUnits="userSpaceOnUse">
<stop stop-color="#0B1D36"/>
<stop offset="1" stop-color="#040B14"/>
</linearGradient>
<linearGradient id="paint1_linear_602_25979" x1="-290.15" y1="335.184" x2="498.63" y2="-55.3962" gradientUnits="userSpaceOnUse">
<stop stop-color="#FBE1AD" stop-opacity="0"/>
<stop offset="0.463542" stop-color="#F6B333"/>
<stop offset="1" stop-color="#FBE1AD" stop-opacity="0"/>
</linearGradient>
<linearGradient id="paint2_linear_602_25979" x1="-294.278" y1="326.844" x2="494.501" y2="-63.7368" gradientUnits="userSpaceOnUse">
<stop stop-color="#FBE1AD" stop-opacity="0"/>
<stop offset="0.463542" stop-color="#F6B333"/>
<stop offset="1" stop-color="#FBE1AD" stop-opacity="0"/>
</linearGradient>
<linearGradient id="paint3_linear_602_25979" x1="-298.408" y1="318.503" x2="490.371" y2="-72.0771" gradientUnits="userSpaceOnUse">
<stop stop-color="#FBE1AD" stop-opacity="0"/>
<stop offset="0.463542" stop-color="#F6B333"/>
<stop offset="1" stop-color="#FBE1AD" stop-opacity="0"/>
</linearGradient>
<linearGradient id="paint4_linear_602_25979" x1="-302.538" y1="310.163" x2="486.241" y2="-80.4175" gradientUnits="userSpaceOnUse">
<stop stop-color="#FBE1AD" stop-opacity="0"/>
<stop offset="0.463542" stop-color="#F6B333"/>
<stop offset="1" stop-color="#FBE1AD" stop-opacity="0"/>
</linearGradient>
<linearGradient id="paint5_linear_602_25979" x1="-306.668" y1="301.823" x2="482.111" y2="-88.7578" gradientUnits="userSpaceOnUse">
<stop stop-color="#FBE1AD" stop-opacity="0"/>
<stop offset="0.463542" stop-color="#F6B333"/>
<stop offset="1" stop-color="#FBE1AD" stop-opacity="0"/>
</linearGradient>
<linearGradient id="paint6_linear_602_25979" x1="-310.798" y1="293.482" x2="477.981" y2="-97.0984" gradientUnits="userSpaceOnUse">
<stop stop-color="#FBE1AD" stop-opacity="0"/>
<stop offset="0.463542" stop-color="#F6B333"/>
<stop offset="1" stop-color="#FBE1AD" stop-opacity="0"/>
</linearGradient>
<linearGradient id="paint7_linear_602_25979" x1="-314.933" y1="285.144" x2="473.846" y2="-105.436" gradientUnits="userSpaceOnUse">
<stop stop-color="#FBE1AD" stop-opacity="0"/>
<stop offset="0.463542" stop-color="#F6B333"/>
<stop offset="1" stop-color="#FBE1AD" stop-opacity="0"/>
</linearGradient>
<linearGradient id="paint8_linear_602_25979" x1="-253.656" y1="408.882" x2="535.123" y2="18.3018" gradientUnits="userSpaceOnUse">
<stop stop-color="#FBE1AD" stop-opacity="0"/>
<stop offset="0.463542" stop-color="#F6B333"/>
<stop offset="1" stop-color="#FBE1AD" stop-opacity="0"/>
</linearGradient>
<linearGradient id="paint9_linear_602_25979" x1="-257.785" y1="400.542" x2="530.994" y2="9.96144" gradientUnits="userSpaceOnUse">
<stop stop-color="#FBE1AD" stop-opacity="0"/>
<stop offset="0.463542" stop-color="#F6B333"/>
<stop offset="1" stop-color="#FBE1AD" stop-opacity="0"/>
</linearGradient>
<linearGradient id="paint10_linear_602_25979" x1="-261.915" y1="392.201" x2="526.864" y2="1.62086" gradientUnits="userSpaceOnUse">
<stop stop-color="#FBE1AD" stop-opacity="0"/>
<stop offset="0.463542" stop-color="#F6B333"/>
<stop offset="1" stop-color="#FBE1AD" stop-opacity="0"/>
</linearGradient>
<linearGradient id="paint11_linear_602_25979" x1="-266.045" y1="383.861" x2="522.734" y2="-6.71923" gradientUnits="userSpaceOnUse">
<stop stop-color="#FBE1AD" stop-opacity="0"/>
<stop offset="0.463542" stop-color="#F6B333"/>
<stop offset="1" stop-color="#FBE1AD" stop-opacity="0"/>
</linearGradient>
<linearGradient id="paint12_linear_602_25979" x1="-270.175" y1="375.521" x2="518.604" y2="-15.0598" gradientUnits="userSpaceOnUse">
<stop stop-color="#FBE1AD" stop-opacity="0"/>
<stop offset="0.463542" stop-color="#F6B333"/>
<stop offset="1" stop-color="#FBE1AD" stop-opacity="0"/>
</linearGradient>
<linearGradient id="paint13_linear_602_25979" x1="-274.305" y1="367.18" x2="514.475" y2="-23.4001" gradientUnits="userSpaceOnUse">
<stop stop-color="#FBE1AD" stop-opacity="0"/>
<stop offset="0.463542" stop-color="#F6B333"/>
<stop offset="1" stop-color="#FBE1AD" stop-opacity="0"/>
</linearGradient>
<linearGradient id="paint14_linear_602_25979" x1="-278.44" y1="358.842" x2="510.34" y2="-31.738" gradientUnits="userSpaceOnUse">
<stop stop-color="#FBE1AD" stop-opacity="0"/>
<stop offset="0.463542" stop-color="#F6B333"/>
<stop offset="1" stop-color="#FBE1AD" stop-opacity="0"/>
</linearGradient>
<linearGradient id="paint15_linear_602_25979" x1="5.38308" y1="-0.383653" x2="278.349" y2="308.066" gradientUnits="userSpaceOnUse">
<stop stop-color="#FCDFAA"/>
<stop offset="1" stop-color="#F9C461"/>
</linearGradient>
<clipPath id="clip0_602_25979">
<rect width="279" height="318" rx="24" fill="white"/>
</clipPath>
</defs>
</svg>
