<svg width="279" height="104" viewBox="0 0 279 104" fill="none" xmlns="http://www.w3.org/2000/svg">
<g clip-path="url(#clip0_9316_82438)">
<rect width="279" height="318" fill="white"/>
<rect width="279" height="318" fill="url(#paint0_linear_9316_82438)"/>
<mask id="mask0_9316_82438" style="mask-type:luminance" maskUnits="userSpaceOnUse" x="-67" y="43" width="407" height="196">
<path d="M98.4303 232.735L96.8844 232.812C88.5175 227.522 80.2403 222.614 72.6513 220.127C64.3303 217.401 56.7915 217.628 50.8087 223.61C48.6571 225.76 46.4883 228.06 44.3043 230.46C42.7734 232.142 41.2289 233.879 39.6753 235.651L38.1188 235.729C39.8129 233.792 41.4993 231.89 43.1815 230.042C45.3686 227.638 47.5434 225.331 49.7087 223.168C56.1167 216.763 64.2153 216.527 73.1675 219.46C81.1396 222.071 89.7526 227.232 98.4303 232.735ZM117.558 231.786L115.909 231.868C111.915 229.662 107.881 227.284 103.855 224.908C95.1551 219.777 86.475 214.658 78.3289 211.375C66.7441 206.706 56.1727 205.766 48.015 213.922C42.2283 219.705 36.334 226.553 30.2945 233.568L28.001 236.23L26.4503 236.307L29.1575 233.165C35.1968 226.148 41.0928 219.3 46.9168 213.479C55.562 204.838 66.7299 205.819 78.9572 210.747C87.2249 214.078 95.9499 219.224 104.694 224.383C108.996 226.919 113.304 229.461 117.559 231.785L117.558 231.786ZM145.719 230.388L142.811 230.533C131.202 227.505 118.897 220.753 106.738 214.081C98.157 209.372 89.6462 204.702 81.5632 201.444C67.7021 195.858 55.0249 194.436 45.2222 204.234C39.4174 210.036 33.5286 216.876 27.4947 223.883L27.4952 223.885C23.7842 228.195 20.0176 232.569 16.1692 236.819L14.5983 236.897C18.5776 232.518 22.5004 227.963 26.3622 223.478C32.4126 216.453 38.317 209.596 44.124 203.791C54.4221 193.498 67.6934 194.973 82.1905 200.816C90.3687 204.112 98.9176 208.803 107.537 213.533C120.114 220.434 132.85 227.424 144.645 230.184C144.991 230.258 145.351 230.325 145.719 230.388L145.719 230.388ZM339.844 193.495L339.975 193.951C327.914 200.009 314.941 205.716 301.592 211.019C289.402 215.862 276.896 220.367 264.484 224.494L261.246 224.654C274.467 220.308 287.829 215.528 300.832 210.362C314.255 205.03 327.299 199.287 339.414 193.189L339.844 193.495ZM337.045 183.787L337.177 184.246C320.111 192.963 301.181 201.084 281.966 208.33C263.782 215.187 245.346 221.257 227.995 226.305L224.301 226.488C242.512 221.28 262.015 214.913 281.23 207.666C300.498 200.4 319.49 192.245 336.61 183.482L337.045 183.786L337.045 183.787ZM334.269 174.158L334.402 174.618C301.714 191.646 262.137 206.846 227.061 217.266C210.229 222.266 194.419 226.165 180.878 228.643L174.305 228.969C188.974 226.639 206.996 222.337 226.418 216.567C261.539 206.134 301.168 190.905 333.83 173.856L334.269 174.157L334.269 174.158ZM331.516 164.605L331.649 165.069C298.741 182.611 258.729 198.661 223.617 209.042C189.947 218.995 160.707 223.738 146.398 219.61L146.38 219.605C134.629 215.942 122.578 209.708 110.759 203.594C102.184 199.158 93.7308 194.784 85.65 191.528C69.1579 184.882 54.1077 182.872 42.4304 194.546C36.6463 200.328 30.7536 207.171 24.717 214.183L24.714 214.183C17.86 222.144 10.8169 230.324 3.50324 237.447L1.86485 237.528C9.35785 230.298 16.5689 221.924 23.5822 213.78L23.5803 213.78C29.6174 206.767 35.5108 199.922 41.3321 194.103C53.5136 181.926 69.1546 183.999 86.2783 190.899C94.4465 194.191 102.928 198.579 111.528 203.029C123.284 209.11 135.269 215.311 146.869 218.926C160.796 222.932 189.637 218.199 222.98 208.342C258.12 197.953 298.181 181.872 331.072 164.306L331.516 164.605ZM328.787 155.14L328.922 155.607C296.277 173.469 256.525 190.192 221.742 200.404C190.515 209.571 163.219 213.496 148.502 208.318L148.485 208.311C137.666 204.245 126.872 198.884 116.333 193.65C107.468 189.247 98.7819 184.933 90.4556 181.578C70.998 173.736 53.3887 171.11 39.6365 184.857C33.8522 190.639 27.959 197.484 21.921 204.497C11.3674 216.757 0.366567 229.533 -11.3985 238.186L-13.2547 238.278C-1.24405 229.68 10.0034 216.616 20.785 204.094C26.8238 197.079 32.7168 190.234 38.5382 184.415C52.8015 170.158 70.9958 172.854 91.0839 180.95C99.4809 184.333 108.191 188.659 117.081 193.074C127.578 198.288 138.331 203.628 149.056 207.659C163.351 212.688 190.232 208.77 221.11 199.704C255.915 189.486 295.713 172.729 328.34 154.844L328.787 155.139L328.787 155.14ZM326.089 145.782L326.225 146.253C294.195 164.298 255.199 181.524 220.974 191.476C191.665 199.998 165.786 203.189 150.617 197.025L150.601 197.02C141.603 193.154 132.736 188.826 124.091 184.606C114.263 179.808 104.719 175.15 95.5968 171.473C72.945 162.345 52.7691 159.251 36.8438 175.17C31.0588 180.952 25.1721 187.789 19.1392 194.793C1.78944 214.939 -16.7629 236.482 -38.0416 238.858L-38.2104 238.479L-38.3216 238.094C-17.6143 235.746 0.791744 214.374 18.0068 194.385C24.0416 187.377 29.9323 180.537 35.7453 174.726C52.1826 158.295 72.9389 161.459 96.2236 170.843C105.41 174.546 114.977 179.215 124.825 184.023C133.441 188.228 142.278 192.542 151.267 196.404L151.267 196.404C165.987 202.377 191.419 199.184 220.341 190.774C254.58 180.819 293.622 163.555 325.636 145.488L326.089 145.781L326.089 145.782ZM323.426 136.543L323.563 137.02C292.384 155.15 254.478 172.725 220.959 182.345C193.198 190.314 168.383 192.833 152.742 185.736L152.728 185.729C146.703 182.864 140.792 179.945 135.002 177.087C122.943 171.133 111.4 165.432 100.476 161.03C74.6032 150.602 52.098 147.442 34.0509 165.481C28.2658 171.263 22.3791 178.1 16.3462 185.105C-1.00413 205.252 -19.5565 226.795 -40.8354 229.17L-41.0042 228.791L-41.1153 228.406C-20.4081 226.058 -2.00202 204.686 15.2131 184.697C21.2478 177.689 27.1385 170.849 32.9515 165.038C51.5079 146.49 74.5867 149.714 101.102 160.401C112.095 164.831 123.66 170.542 135.742 176.507C141.525 179.363 147.429 182.278 153.434 185.134C168.613 192.021 192.971 189.496 220.33 181.643C253.856 172.02 291.802 154.405 322.966 136.253L323.426 136.543L323.426 136.543ZM320.8 127.433L320.939 127.915C290.771 146.064 254.176 163.84 221.455 173.075C194.982 180.547 170.995 182.434 154.871 174.447L154.862 174.441L150.614 172.251C134.185 163.776 118.845 155.863 104.6 150.123C75.678 138.467 51.2525 135.808 31.2591 155.793C25.474 161.575 19.5873 168.412 13.5544 175.417C-3.79596 195.564 -22.3483 217.106 -43.627 219.482L-43.7958 219.104L-43.907 218.718C-23.1997 216.371 -4.79366 194.999 12.4214 175.01C18.4562 168.001 24.3469 161.161 30.1599 155.351C50.6534 134.865 75.6472 137.574 105.226 149.495C119.533 155.26 134.91 163.191 151.377 171.686L155.616 173.871C171.268 181.624 194.787 179.725 220.836 172.372C253.547 163.14 290.178 145.318 320.334 127.146L320.799 127.432L320.8 127.433ZM318.215 118.467L318.356 118.956C289.3 137.073 254.154 154.912 222.302 163.709C196.931 170.717 173.612 171.996 157.01 163.161L157.001 163.157C129.193 147.874 104.962 135.58 83.719 131.148C62.6483 126.751 44.446 130.132 28.4664 146.105C22.6814 151.888 16.7947 158.725 10.7618 165.729C-6.58857 185.876 -25.1409 207.419 -46.4198 209.794L-46.5886 209.416L-46.6998 209.03C-25.9925 206.683 -7.58644 185.311 9.62862 165.322C15.6634 158.313 21.5543 151.474 27.3673 145.663C43.6945 129.342 62.367 125.905 84.0251 130.423C105.509 134.904 129.869 147.258 157.799 162.609C173.924 171.184 196.764 169.887 221.693 163.002C253.524 154.21 288.701 136.323 317.74 118.186L318.215 118.467L318.215 118.467ZM315.677 109.663L315.82 110.158C287.941 128.195 254.322 145.963 223.386 154.273C198.98 160.83 176.212 161.519 159.147 151.877L159.141 151.872C129.556 134.716 104.444 122.491 82.592 118.757C60.8921 115.05 42.3362 119.761 25.6738 136.418C19.8888 142.2 14.0021 149.037 7.96918 156.042C-9.38119 176.189 -27.9335 197.732 -49.2123 200.107L-49.381 199.729L-49.4922 199.343C-28.7849 196.996 -10.3789 175.624 6.83618 155.635C12.871 148.627 18.7617 141.786 24.5747 135.976C41.5577 119 60.5539 114.213 82.8255 118.018C104.941 121.796 130.221 134.091 159.961 151.337C176.549 160.709 198.833 159.999 222.783 153.564C253.695 145.258 287.339 127.441 315.196 109.386L315.677 109.662L315.677 109.663ZM313.19 101.034L313.335 101.537C309.109 104.374 304.726 107.218 300.212 110.029C277.649 124.082 252.393 136.95 228.265 143.796C203.974 150.688 180.802 151.496 162.582 141.338C162.178 141.112 161.745 140.863 161.289 140.592L161.283 140.589C129.917 121.558 103.925 109.4 81.4653 106.364C59.1372 103.347 40.2266 109.391 22.8801 126.73C17.095 132.512 11.2083 139.349 5.17541 146.354C-12.1749 166.501 -30.7273 188.044 -52.0062 190.419L-52.175 190.04L-52.2861 189.655C-31.5789 187.307 -13.1728 165.935 4.04227 145.946C10.077 138.938 15.9677 132.098 21.7807 126.287C39.4199 108.654 58.7424 102.52 81.6249 105.613C104.377 108.688 130.581 120.926 162.135 140.071C162.521 140.301 162.943 140.543 163.392 140.794C181.122 150.679 203.805 149.856 227.641 143.092C251.639 136.283 276.786 123.467 299.267 109.466C303.842 106.616 308.334 103.698 312.701 100.76L313.188 101.032L313.19 101.034ZM310.757 92.5939L310.904 93.1032C303.033 98.5883 294.68 104.026 286.036 109.132C266.14 120.887 244.705 130.892 224.072 135.714C203.298 140.57 183.327 140.187 166.519 131.099C165.479 130.536 164.449 129.938 163.432 129.308L163.429 129.306C130.281 108.4 103.403 96.3068 80.337 93.9695C57.3792 91.6432 38.1141 99.0209 20.087 117.041C14.3019 122.823 8.41521 129.66 2.38229 136.664C-14.968 156.812 -33.5204 178.354 -54.7993 180.73L-54.9681 180.351L-55.0792 179.966C-34.372 177.618 -15.9659 156.246 1.24915 136.257C7.28392 129.249 13.1746 122.409 18.9876 116.598C37.2858 98.3074 56.9301 90.828 80.4247 93.2088C103.814 95.5787 130.935 107.758 164.298 128.799C165.289 129.414 166.295 129.997 167.31 130.547C183.667 139.391 203.18 139.745 223.519 134.991C244 130.205 265.311 120.253 285.111 108.556C293.857 103.389 302.308 97.8793 310.262 92.3247L310.754 92.5928L310.757 92.5939ZM308.381 84.354L308.531 84.8716C298.631 92.0218 287.941 99.0514 276.842 105.314C259.205 115.266 240.539 123.279 222.375 126.764C204.091 130.271 186.314 129.205 170.594 120.952C168.902 120.064 167.228 119.089 165.58 118.026L165.576 118.024C130.647 95.2436 102.88 83.2139 79.2085 81.5736C55.6212 79.9393 36.0023 88.6532 17.2953 107.353C11.5105 113.136 5.62181 119.973 -0.410936 126.978C-17.7615 147.125 -36.3122 168.666 -57.5911 171.042L-57.7599 170.663L-57.8711 170.278C-37.1638 167.93 -18.7592 146.56 -1.54506 126.571C4.4907 119.563 10.383 112.721 16.196 106.91C35.1527 87.9612 55.1222 79.1374 79.2302 80.8077C103.253 82.472 131.293 94.5909 166.465 117.528C168.07 118.563 169.706 119.516 171.367 120.389C186.673 128.424 204.023 129.453 221.894 126.025C239.885 122.572 258.411 114.616 275.935 104.727C287.121 98.415 297.903 91.3118 307.879 84.0899L308.381 84.3528L308.381 84.354ZM306.066 76.3231L306.217 76.8461C295.325 84.9792 283.447 92.8847 271.091 99.5813C255.27 108.155 238.653 114.755 222.289 117.332C205.824 119.926 189.623 118.458 174.751 110.865C172.372 109.65 170.026 108.278 167.725 106.743L167.725 106.741C131.013 82.0867 102.359 70.1203 78.0777 69.1765C53.8622 68.2354 33.8895 78.2856 14.5023 97.6647C8.7175 103.448 2.82885 110.285 -3.20389 117.29C-20.5544 137.436 -39.1052 158.978 -60.3838 161.354L-60.5525 160.976L-60.6637 160.59C-39.9566 158.242 -21.5512 136.871 -4.33686 116.883C1.69887 109.874 7.59035 103.034 13.4034 97.2231C33.0204 77.6138 53.3144 67.4474 78.0353 68.4091C102.691 69.3673 131.646 81.4239 168.625 106.258C170.886 107.765 173.184 109.11 175.511 110.298C189.995 117.693 205.795 119.119 221.867 116.587C238.04 114.04 254.505 107.495 270.202 98.9874C282.648 92.2425 294.609 84.2649 305.561 76.0659L306.067 76.3243L306.066 76.3231ZM303.814 68.5091L303.967 69.0404C292.766 77.6549 280.483 85.917 267.655 92.6244C253.288 100.137 238.23 105.703 223.228 107.642C208.142 109.591 193.127 107.879 178.943 100.813C175.878 99.2862 172.85 97.5081 169.873 95.4624L169.87 95.4608C131.374 68.9302 101.83 57.026 76.9435 56.7778C52.0998 56.53 31.7741 67.9193 11.7086 87.9767C5.92373 93.7596 0.0349208 100.596 -5.99766 107.602C-23.3482 127.748 -41.8989 149.29 -63.1775 151.666L-63.3463 151.288L-63.4574 150.902C-42.7503 148.554 -24.3449 127.183 -7.13062 107.195C-1.09487 100.186 4.79658 93.3458 10.6094 87.5345C30.8866 67.2653 51.5074 55.7568 76.8412 56.0091C102.131 56.2613 132.004 68.2555 170.789 94.9851C173.712 96.9931 176.683 98.7387 179.69 100.236C193.508 107.12 208.146 108.786 222.858 106.886C237.655 104.974 252.547 99.4635 266.778 92.0215C279.683 85.2737 292.043 76.9374 303.302 68.2534L303.813 68.5079L303.814 68.5091ZM301.106 60.6528C282.658 75.2423 261.14 88.5087 238.932 94.3569C216.876 100.165 194.1 98.6288 172.949 83.7115C132.358 55.0867 101.572 43.1558 75.6521 43.6102C49.7051 44.0653 28.7573 56.9147 7.81839 77.8457C2.00556 83.657 -3.88606 90.4971 -9.92165 97.506C-27.1358 117.495 -45.5414 138.865 -66.2484 141.213L-66.1373 141.599L-65.9685 141.977C-44.6898 139.601 -26.139 118.06 -8.78868 97.9129C-2.75593 90.9078 3.13176 84.0709 8.91759 78.288C29.6599 57.5536 50.3378 44.8257 75.8091 44.3786C101.307 43.9313 131.742 55.7733 172.023 84.1804C193.659 99.4383 216.958 101.009 239.524 95.0671C261.789 89.204 283.311 75.9939 301.777 61.4401L301.622 60.9041L301.107 60.6527L301.106 60.6528Z" fill="white"/>
</mask>
<g mask="url(#mask0_9316_82438)">
<path opacity="0.5" d="M287.687 31.6834L347.59 224.33L-32.27 239.931L-92.1728 47.2852L287.687 31.6834Z" fill="#FFC709"/>
</g>
<g filter="url(#filter0_d_9316_82438)">
<rect x="25" y="57" width="228" height="228" rx="8" fill="white" shape-rendering="crispEdges"/>
<path d="M41 73H45.3556V77.3556H41V73ZM45.3556 73H49.7111V77.3556H45.3556V73ZM49.7111 73H54.0667V77.3556H49.7111V73ZM54.0667 73H58.4222V77.3556H54.0667V73ZM58.4222 73H62.7778V77.3556H58.4222V73ZM62.7778 73H67.1333V77.3556H62.7778V73ZM67.1333 73H71.4889V77.3556H67.1333V73ZM80.2 73H84.5556V77.3556H80.2V73ZM84.5556 73H88.9111V77.3556H84.5556V73ZM88.9111 73H93.2667V77.3556H88.9111V73ZM93.2667 73H97.6222V77.3556H93.2667V73ZM97.6222 73H101.978V77.3556H97.6222V73ZM106.333 73H110.689V77.3556H106.333V73ZM110.689 73H115.044V77.3556H110.689V73ZM115.044 73H119.4V77.3556H115.044V73ZM128.111 73H132.467V77.3556H128.111V73ZM136.822 73H141.178V77.3556H136.822V73ZM145.533 73H149.889V77.3556H145.533V73ZM149.889 73H154.244V77.3556H149.889V73ZM158.6 73H162.956V77.3556H158.6V73ZM167.311 73H171.667V77.3556H167.311V73ZM171.667 73H176.022V77.3556H171.667V73ZM176.022 73H180.378V77.3556H176.022V73ZM180.378 73H184.733V77.3556H180.378V73ZM184.733 73H189.089V77.3556H184.733V73ZM197.8 73H202.156V77.3556H197.8V73ZM206.511 73H210.867V77.3556H206.511V73ZM210.867 73H215.222V77.3556H210.867V73ZM215.222 73H219.578V77.3556H215.222V73ZM219.578 73H223.933V77.3556H219.578V73ZM223.933 73H228.289V77.3556H223.933V73ZM228.289 73H232.644V77.3556H228.289V73ZM232.644 73H237V77.3556H232.644V73ZM41 77.3556H45.3556V81.7111H41V77.3556ZM67.1333 77.3556H71.4889V81.7111H67.1333V77.3556ZM75.8444 77.3556H80.2V81.7111H75.8444V77.3556ZM80.2 77.3556H84.5556V81.7111H80.2V77.3556ZM84.5556 77.3556H88.9111V81.7111H84.5556V77.3556ZM88.9111 77.3556H93.2667V81.7111H88.9111V77.3556ZM93.2667 77.3556H97.6222V81.7111H93.2667V77.3556ZM97.6222 77.3556H101.978V81.7111H97.6222V77.3556ZM101.978 77.3556H106.333V81.7111H101.978V77.3556ZM115.044 77.3556H119.4V81.7111H115.044V77.3556ZM123.756 77.3556H128.111V81.7111H123.756V77.3556ZM132.467 77.3556H136.822V81.7111H132.467V77.3556ZM136.822 77.3556H141.178V81.7111H136.822V77.3556ZM141.178 77.3556H145.533V81.7111H141.178V77.3556ZM145.533 77.3556H149.889V81.7111H145.533V77.3556ZM149.889 77.3556H154.244V81.7111H149.889V77.3556ZM176.022 77.3556H180.378V81.7111H176.022V77.3556ZM184.733 77.3556H189.089V81.7111H184.733V77.3556ZM193.444 77.3556H197.8V81.7111H193.444V77.3556ZM206.511 77.3556H210.867V81.7111H206.511V77.3556ZM232.644 77.3556H237V81.7111H232.644V77.3556ZM41 81.7111H45.3556V86.0667H41V81.7111ZM49.7111 81.7111H54.0667V86.0667H49.7111V81.7111ZM54.0667 81.7111H58.4222V86.0667H54.0667V81.7111ZM58.4222 81.7111H62.7778V86.0667H58.4222V81.7111ZM67.1333 81.7111H71.4889V86.0667H67.1333V81.7111ZM93.2667 81.7111H97.6222V86.0667H93.2667V81.7111ZM119.4 81.7111H123.756V86.0667H119.4V81.7111ZM123.756 81.7111H128.111V86.0667H123.756V81.7111ZM145.533 81.7111H149.889V86.0667H145.533V81.7111ZM158.6 81.7111H162.956V86.0667H158.6V81.7111ZM162.956 81.7111H167.311V86.0667H162.956V81.7111ZM167.311 81.7111H171.667V86.0667H167.311V81.7111ZM171.667 81.7111H176.022V86.0667H171.667V81.7111ZM180.378 81.7111H184.733V86.0667H180.378V81.7111ZM184.733 81.7111H189.089V86.0667H184.733V81.7111ZM193.444 81.7111H197.8V86.0667H193.444V81.7111ZM206.511 81.7111H210.867V86.0667H206.511V81.7111ZM215.222 81.7111H219.578V86.0667H215.222V81.7111ZM219.578 81.7111H223.933V86.0667H219.578V81.7111ZM223.933 81.7111H228.289V86.0667H223.933V81.7111ZM232.644 81.7111H237V86.0667H232.644V81.7111ZM41 86.0667H45.3556V90.4222H41V86.0667ZM49.7111 86.0667H54.0667V90.4222H49.7111V86.0667ZM54.0667 86.0667H58.4222V90.4222H54.0667V86.0667ZM58.4222 86.0667H62.7778V90.4222H58.4222V86.0667ZM67.1333 86.0667H71.4889V90.4222H67.1333V86.0667ZM75.8444 86.0667H80.2V90.4222H75.8444V86.0667ZM88.9111 86.0667H93.2667V90.4222H88.9111V86.0667ZM93.2667 86.0667H97.6222V90.4222H93.2667V86.0667ZM97.6222 86.0667H101.978V90.4222H97.6222V86.0667ZM101.978 86.0667H106.333V90.4222H101.978V86.0667ZM106.333 86.0667H110.689V90.4222H106.333V86.0667ZM110.689 86.0667H115.044V90.4222H110.689V86.0667ZM119.4 86.0667H123.756V90.4222H119.4V86.0667ZM128.111 86.0667H132.467V90.4222H128.111V86.0667ZM136.822 86.0667H141.178V90.4222H136.822V86.0667ZM145.533 86.0667H149.889V90.4222H145.533V86.0667ZM158.6 86.0667H162.956V90.4222H158.6V86.0667ZM162.956 86.0667H167.311V90.4222H162.956V86.0667ZM176.022 86.0667H180.378V90.4222H176.022V86.0667ZM184.733 86.0667H189.089V90.4222H184.733V86.0667ZM193.444 86.0667H197.8V90.4222H193.444V86.0667ZM197.8 86.0667H202.156V90.4222H197.8V86.0667ZM206.511 86.0667H210.867V90.4222H206.511V86.0667ZM215.222 86.0667H219.578V90.4222H215.222V86.0667ZM219.578 86.0667H223.933V90.4222H219.578V86.0667ZM223.933 86.0667H228.289V90.4222H223.933V86.0667ZM232.644 86.0667H237V90.4222H232.644V86.0667ZM41 90.4222H45.3556V94.7778H41V90.4222ZM49.7111 90.4222H54.0667V94.7778H49.7111V90.4222ZM54.0667 90.4222H58.4222V94.7778H54.0667V90.4222ZM58.4222 90.4222H62.7778V94.7778H58.4222V90.4222ZM67.1333 90.4222H71.4889V94.7778H67.1333V90.4222ZM84.5556 90.4222H88.9111V94.7778H84.5556V90.4222ZM101.978 90.4222H106.333V94.7778H101.978V90.4222ZM106.333 90.4222H110.689V94.7778H106.333V90.4222ZM123.756 90.4222H128.111V94.7778H123.756V90.4222ZM128.111 90.4222H132.467V94.7778H128.111V90.4222ZM132.467 90.4222H136.822V94.7778H132.467V90.4222ZM136.822 90.4222H141.178V94.7778H136.822V90.4222ZM141.178 90.4222H145.533V94.7778H141.178V90.4222ZM145.533 90.4222H149.889V94.7778H145.533V90.4222ZM149.889 90.4222H154.244V94.7778H149.889V90.4222ZM162.956 90.4222H167.311V94.7778H162.956V90.4222ZM176.022 90.4222H180.378V94.7778H176.022V90.4222ZM180.378 90.4222H184.733V94.7778H180.378V90.4222ZM184.733 90.4222H189.089V94.7778H184.733V90.4222ZM189.089 90.4222H193.444V94.7778H189.089V90.4222ZM193.444 90.4222H197.8V94.7778H193.444V90.4222ZM197.8 90.4222H202.156V94.7778H197.8V90.4222ZM206.511 90.4222H210.867V94.7778H206.511V90.4222ZM215.222 90.4222H219.578V94.7778H215.222V90.4222ZM219.578 90.4222H223.933V94.7778H219.578V90.4222ZM223.933 90.4222H228.289V94.7778H223.933V90.4222ZM232.644 90.4222H237V94.7778H232.644V90.4222ZM41 94.7778H45.3556V99.1333H41V94.7778ZM67.1333 94.7778H71.4889V99.1333H67.1333V94.7778ZM75.8444 94.7778H80.2V99.1333H75.8444V94.7778ZM84.5556 94.7778H88.9111V99.1333H84.5556V94.7778ZM88.9111 94.7778H93.2667V99.1333H88.9111V94.7778ZM93.2667 94.7778H97.6222V99.1333H93.2667V94.7778ZM106.333 94.7778H110.689V99.1333H106.333V94.7778ZM119.4 94.7778H123.756V99.1333H119.4V94.7778ZM128.111 94.7778H132.467V99.1333H128.111V94.7778ZM145.533 94.7778H149.889V99.1333H145.533V94.7778ZM154.244 94.7778H158.6V99.1333H154.244V94.7778ZM158.6 94.7778H162.956V99.1333H158.6V94.7778ZM167.311 94.7778H171.667V99.1333H167.311V94.7778ZM171.667 94.7778H176.022V99.1333H171.667V94.7778ZM176.022 94.7778H180.378V99.1333H176.022V94.7778ZM184.733 94.7778H189.089V99.1333H184.733V94.7778ZM206.511 94.7778H210.867V99.1333H206.511V94.7778ZM232.644 94.7778H237V99.1333H232.644V94.7778ZM41 99.1333H45.3556V103.489H41V99.1333ZM45.3556 99.1333H49.7111V103.489H45.3556V99.1333ZM49.7111 99.1333H54.0667V103.489H49.7111V99.1333ZM54.0667 99.1333H58.4222V103.489H54.0667V99.1333ZM58.4222 99.1333H62.7778V103.489H58.4222V99.1333ZM62.7778 99.1333H67.1333V103.489H62.7778V99.1333ZM67.1333 99.1333H71.4889V103.489H67.1333V99.1333ZM75.8444 99.1333H80.2V103.489H75.8444V99.1333ZM84.5556 99.1333H88.9111V103.489H84.5556V99.1333ZM93.2667 99.1333H97.6222V103.489H93.2667V99.1333ZM101.978 99.1333H106.333V103.489H101.978V99.1333ZM110.689 99.1333H115.044V103.489H110.689V99.1333ZM119.4 99.1333H123.756V103.489H119.4V99.1333ZM128.111 99.1333H132.467V103.489H128.111V99.1333ZM136.822 99.1333H141.178V103.489H136.822V99.1333ZM145.533 99.1333H149.889V103.489H145.533V99.1333ZM154.244 99.1333H158.6V103.489H154.244V99.1333ZM162.956 99.1333H167.311V103.489H162.956V99.1333ZM171.667 99.1333H176.022V103.489H171.667V99.1333ZM180.378 99.1333H184.733V103.489H180.378V99.1333ZM189.089 99.1333H193.444V103.489H189.089V99.1333ZM197.8 99.1333H202.156V103.489H197.8V99.1333ZM206.511 99.1333H210.867V103.489H206.511V99.1333ZM210.867 99.1333H215.222V103.489H210.867V99.1333ZM215.222 99.1333H219.578V103.489H215.222V99.1333ZM219.578 99.1333H223.933V103.489H219.578V99.1333ZM223.933 99.1333H228.289V103.489H223.933V99.1333ZM228.289 99.1333H232.644V103.489H228.289V99.1333ZM232.644 99.1333H237V103.489H232.644V99.1333ZM80.2 103.489H84.5556V107.844H80.2V103.489ZM84.5556 103.489H88.9111V107.844H84.5556V103.489ZM88.9111 103.489H93.2667V107.844H88.9111V103.489ZM93.2667 103.489H97.6222V107.844H93.2667V103.489ZM97.6222 103.489H101.978V107.844H97.6222V103.489ZM110.689 103.489H115.044V107.844H110.689V103.489ZM115.044 103.489H119.4V107.844H115.044V103.489ZM119.4 103.489H123.756V107.844H119.4V103.489ZM128.111 103.489H132.467V107.844H128.111V103.489ZM145.533 103.489H149.889V107.844H145.533V103.489ZM167.311 103.489H171.667V107.844H167.311V103.489ZM171.667 103.489H176.022V107.844H171.667V103.489ZM180.378 103.489H184.733V107.844H180.378V103.489ZM184.733 103.489H189.089V107.844H184.733V103.489ZM197.8 103.489H202.156V107.844H197.8V103.489ZM41 107.844H45.3556V112.2H41V107.844ZM45.3556 107.844H49.7111V112.2H45.3556V107.844ZM49.7111 107.844H54.0667V112.2H49.7111V107.844ZM54.0667 107.844H58.4222V112.2H54.0667V107.844ZM58.4222 107.844H62.7778V112.2H58.4222V107.844ZM67.1333 107.844H71.4889V112.2H67.1333V107.844ZM71.4889 107.844H75.8444V112.2H71.4889V107.844ZM75.8444 107.844H80.2V112.2H75.8444V107.844ZM80.2 107.844H84.5556V112.2H80.2V107.844ZM84.5556 107.844H88.9111V112.2H84.5556V107.844ZM88.9111 107.844H93.2667V112.2H88.9111V107.844ZM93.2667 107.844H97.6222V112.2H93.2667V107.844ZM101.978 107.844H106.333V112.2H101.978V107.844ZM110.689 107.844H115.044V112.2H110.689V107.844ZM128.111 107.844H132.467V112.2H128.111V107.844ZM132.467 107.844H136.822V112.2H132.467V107.844ZM136.822 107.844H141.178V112.2H136.822V107.844ZM141.178 107.844H145.533V112.2H141.178V107.844ZM145.533 107.844H149.889V112.2H145.533V107.844ZM154.244 107.844H158.6V112.2H154.244V107.844ZM167.311 107.844H171.667V112.2H167.311V107.844ZM176.022 107.844H180.378V112.2H176.022V107.844ZM189.089 107.844H193.444V112.2H189.089V107.844ZM202.156 107.844H206.511V112.2H202.156V107.844ZM210.867 107.844H215.222V112.2H210.867V107.844ZM219.578 107.844H223.933V112.2H219.578V107.844ZM228.289 107.844H232.644V112.2H228.289V107.844ZM45.3556 112.2H49.7111V116.556H45.3556V112.2ZM54.0667 112.2H58.4222V116.556H54.0667V112.2ZM71.4889 112.2H75.8444V116.556H71.4889V112.2ZM97.6222 112.2H101.978V116.556H97.6222V112.2ZM101.978 112.2H106.333V116.556H101.978V112.2ZM106.333 112.2H110.689V116.556H106.333V112.2ZM110.689 112.2H115.044V116.556H110.689V112.2ZM123.756 112.2H128.111V116.556H123.756V112.2ZM132.467 112.2H136.822V116.556H132.467V112.2ZM136.822 112.2H141.178V116.556H136.822V112.2ZM145.533 112.2H149.889V116.556H145.533V112.2ZM149.889 112.2H154.244V116.556H149.889V112.2ZM158.6 112.2H162.956V116.556H158.6V112.2ZM162.956 112.2H167.311V116.556H162.956V112.2ZM167.311 112.2H171.667V116.556H167.311V112.2ZM171.667 112.2H176.022V116.556H171.667V112.2ZM176.022 112.2H180.378V116.556H176.022V112.2ZM180.378 112.2H184.733V116.556H180.378V112.2ZM193.444 112.2H197.8V116.556H193.444V112.2ZM197.8 112.2H202.156V116.556H197.8V112.2ZM215.222 112.2H219.578V116.556H215.222V112.2ZM219.578 112.2H223.933V116.556H219.578V112.2ZM223.933 112.2H228.289V116.556H223.933V112.2ZM228.289 112.2H232.644V116.556H228.289V112.2ZM232.644 112.2H237V116.556H232.644V112.2ZM41 116.556H45.3556V120.911H41V116.556ZM45.3556 116.556H49.7111V120.911H45.3556V116.556ZM54.0667 116.556H58.4222V120.911H54.0667V116.556ZM58.4222 116.556H62.7778V120.911H58.4222V116.556ZM67.1333 116.556H71.4889V120.911H67.1333V116.556ZM71.4889 116.556H75.8444V120.911H71.4889V116.556ZM75.8444 116.556H80.2V120.911H75.8444V116.556ZM93.2667 116.556H97.6222V120.911H93.2667V116.556ZM97.6222 116.556H101.978V120.911H97.6222V116.556ZM101.978 116.556H106.333V120.911H101.978V116.556ZM106.333 116.556H110.689V120.911H106.333V116.556ZM115.044 116.556H119.4V120.911H115.044V116.556ZM132.467 116.556H136.822V120.911H132.467V116.556ZM136.822 116.556H141.178V120.911H136.822V116.556ZM145.533 116.556H149.889V120.911H145.533V116.556ZM154.244 116.556H158.6V120.911H154.244V116.556ZM176.022 116.556H180.378V120.911H176.022V116.556ZM180.378 116.556H184.733V120.911H180.378V116.556ZM184.733 116.556H189.089V120.911H184.733V116.556ZM189.089 116.556H193.444V120.911H189.089V116.556ZM206.511 116.556H210.867V120.911H206.511V116.556ZM228.289 116.556H232.644V120.911H228.289V116.556ZM41 120.911H45.3556V125.267H41V120.911ZM45.3556 120.911H49.7111V125.267H45.3556V120.911ZM58.4222 120.911H62.7778V125.267H58.4222V120.911ZM62.7778 120.911H67.1333V125.267H62.7778V120.911ZM80.2 120.911H84.5556V125.267H80.2V120.911ZM128.111 120.911H132.467V125.267H128.111V120.911ZM141.178 120.911H145.533V125.267H141.178V120.911ZM145.533 120.911H149.889V125.267H145.533V120.911ZM162.956 120.911H167.311V125.267H162.956V120.911ZM167.311 120.911H171.667V125.267H167.311V120.911ZM171.667 120.911H176.022V125.267H171.667V120.911ZM180.378 120.911H184.733V125.267H180.378V120.911ZM184.733 120.911H189.089V125.267H184.733V120.911ZM193.444 120.911H197.8V125.267H193.444V120.911ZM202.156 120.911H206.511V125.267H202.156V120.911ZM210.867 120.911H215.222V125.267H210.867V120.911ZM215.222 120.911H219.578V125.267H215.222V120.911ZM219.578 120.911H223.933V125.267H219.578V120.911ZM49.7111 125.267H54.0667V129.622H49.7111V125.267ZM58.4222 125.267H62.7778V129.622H58.4222V125.267ZM62.7778 125.267H67.1333V129.622H62.7778V125.267ZM67.1333 125.267H71.4889V129.622H67.1333V125.267ZM71.4889 125.267H75.8444V129.622H71.4889V125.267ZM88.9111 125.267H93.2667V129.622H88.9111V125.267ZM101.978 125.267H106.333V129.622H101.978V125.267ZM106.333 125.267H110.689V129.622H106.333V125.267ZM115.044 125.267H119.4V129.622H115.044V125.267ZM119.4 125.267H123.756V129.622H119.4V125.267ZM123.756 125.267H128.111V129.622H123.756V125.267ZM145.533 125.267H149.889V129.622H145.533V125.267ZM162.956 125.267H167.311V129.622H162.956V125.267ZM176.022 125.267H180.378V129.622H176.022V125.267ZM189.089 125.267H193.444V129.622H189.089V125.267ZM202.156 125.267H206.511V129.622H202.156V125.267ZM210.867 125.267H215.222V129.622H210.867V125.267ZM215.222 125.267H219.578V129.622H215.222V125.267ZM228.289 125.267H232.644V129.622H228.289V125.267ZM41 129.622H45.3556V133.978H41V129.622ZM45.3556 129.622H49.7111V133.978H45.3556V129.622ZM49.7111 129.622H54.0667V133.978H49.7111V129.622ZM54.0667 129.622H58.4222V133.978H54.0667V129.622ZM58.4222 129.622H62.7778V133.978H58.4222V129.622ZM71.4889 129.622H75.8444V133.978H71.4889V129.622ZM84.5556 129.622H88.9111V133.978H84.5556V129.622ZM88.9111 129.622H93.2667V133.978H88.9111V129.622ZM101.978 129.622H106.333V133.978H101.978V129.622ZM106.333 129.622H110.689V133.978H106.333V129.622ZM123.756 129.622H128.111V133.978H123.756V129.622ZM128.111 129.622H132.467V133.978H128.111V129.622ZM167.311 129.622H171.667V133.978H167.311V129.622ZM171.667 129.622H176.022V133.978H171.667V129.622ZM180.378 129.622H184.733V133.978H180.378V129.622ZM206.511 129.622H210.867V133.978H206.511V129.622ZM210.867 129.622H215.222V133.978H210.867V129.622ZM223.933 129.622H228.289V133.978H223.933V129.622ZM41 133.978H45.3556V138.333H41V133.978ZM49.7111 133.978H54.0667V138.333H49.7111V133.978ZM54.0667 133.978H58.4222V138.333H54.0667V133.978ZM62.7778 133.978H67.1333V138.333H62.7778V133.978ZM67.1333 133.978H71.4889V138.333H67.1333V133.978ZM93.2667 133.978H97.6222V138.333H93.2667V133.978ZM97.6222 133.978H101.978V138.333H97.6222V133.978ZM101.978 133.978H106.333V138.333H101.978V133.978ZM106.333 133.978H110.689V138.333H106.333V133.978ZM110.689 133.978H115.044V138.333H110.689V133.978ZM115.044 133.978H119.4V138.333H115.044V133.978ZM119.4 133.978H123.756V138.333H119.4V133.978ZM132.467 133.978H136.822V138.333H132.467V133.978ZM136.822 133.978H141.178V138.333H136.822V133.978ZM145.533 133.978H149.889V138.333H145.533V133.978ZM149.889 133.978H154.244V138.333H149.889V133.978ZM154.244 133.978H158.6V138.333H154.244V133.978ZM158.6 133.978H162.956V138.333H158.6V133.978ZM162.956 133.978H167.311V138.333H162.956V133.978ZM167.311 133.978H171.667V138.333H167.311V133.978ZM171.667 133.978H176.022V138.333H171.667V133.978ZM193.444 133.978H197.8V138.333H193.444V133.978ZM197.8 133.978H202.156V138.333H197.8V133.978ZM206.511 133.978H210.867V138.333H206.511V133.978ZM215.222 133.978H219.578V138.333H215.222V133.978ZM223.933 133.978H228.289V138.333H223.933V133.978ZM45.3556 138.333H49.7111V142.689H45.3556V138.333ZM49.7111 138.333H54.0667V142.689H49.7111V138.333ZM62.7778 138.333H67.1333V142.689H62.7778V138.333ZM71.4889 138.333H75.8444V142.689H71.4889V138.333ZM80.2 138.333H84.5556V142.689H80.2V138.333ZM88.9111 138.333H93.2667V142.689H88.9111V138.333ZM93.2667 138.333H97.6222V142.689H93.2667V138.333ZM97.6222 138.333H101.978V142.689H97.6222V138.333ZM110.689 138.333H115.044V142.689H110.689V138.333ZM115.044 138.333H119.4V142.689H115.044V138.333ZM119.4 138.333H123.756V142.689H119.4V138.333ZM128.111 138.333H132.467V142.689H128.111V138.333ZM145.533 138.333H149.889V142.689H145.533V138.333ZM158.6 138.333H162.956V142.689H158.6V138.333ZM180.378 138.333H184.733V142.689H180.378V138.333ZM189.089 138.333H193.444V142.689H189.089V138.333ZM193.444 138.333H197.8V142.689H193.444V138.333ZM197.8 138.333H202.156V142.689H197.8V138.333ZM202.156 138.333H206.511V142.689H202.156V138.333ZM206.511 138.333H210.867V142.689H206.511V138.333ZM215.222 138.333H219.578V142.689H215.222V138.333ZM219.578 138.333H223.933V142.689H219.578V138.333ZM223.933 138.333H228.289V142.689H223.933V138.333ZM228.289 138.333H232.644V142.689H228.289V138.333ZM232.644 138.333H237V142.689H232.644V138.333ZM41 142.689H45.3556V147.044H41V142.689ZM49.7111 142.689H54.0667V147.044H49.7111V142.689ZM67.1333 142.689H71.4889V147.044H67.1333V142.689ZM71.4889 142.689H75.8444V147.044H71.4889V142.689ZM75.8444 142.689H80.2V147.044H75.8444V142.689ZM84.5556 142.689H88.9111V147.044H84.5556V142.689ZM93.2667 142.689H97.6222V147.044H93.2667V142.689ZM97.6222 142.689H101.978V147.044H97.6222V142.689ZM101.978 142.689H106.333V147.044H101.978V142.689ZM128.111 142.689H132.467V147.044H128.111V142.689ZM136.822 142.689H141.178V147.044H136.822V142.689ZM149.889 142.689H154.244V147.044H149.889V142.689ZM154.244 142.689H158.6V147.044H154.244V142.689ZM189.089 142.689H193.444V147.044H189.089V142.689ZM206.511 142.689H210.867V147.044H206.511V142.689ZM219.578 142.689H223.933V147.044H219.578V142.689ZM228.289 142.689H232.644V147.044H228.289V142.689ZM45.3556 147.044H49.7111V151.4H45.3556V147.044ZM49.7111 147.044H54.0667V151.4H49.7111V147.044ZM54.0667 147.044H58.4222V151.4H54.0667V147.044ZM80.2 147.044H84.5556V151.4H80.2V147.044ZM93.2667 147.044H97.6222V151.4H93.2667V147.044ZM97.6222 147.044H101.978V151.4H97.6222V147.044ZM106.333 147.044H110.689V151.4H106.333V147.044ZM110.689 147.044H115.044V151.4H110.689V147.044ZM115.044 147.044H119.4V151.4H115.044V147.044ZM128.111 147.044H132.467V151.4H128.111V147.044ZM145.533 147.044H149.889V151.4H145.533V147.044ZM149.889 147.044H154.244V151.4H149.889V147.044ZM158.6 147.044H162.956V151.4H158.6V147.044ZM162.956 147.044H167.311V151.4H162.956V147.044ZM167.311 147.044H171.667V151.4H167.311V147.044ZM171.667 147.044H176.022V151.4H171.667V147.044ZM176.022 147.044H180.378V151.4H176.022V147.044ZM180.378 147.044H184.733V151.4H180.378V147.044ZM197.8 147.044H202.156V151.4H197.8V147.044ZM202.156 147.044H206.511V151.4H202.156V147.044ZM215.222 147.044H219.578V151.4H215.222V147.044ZM219.578 147.044H223.933V151.4H219.578V147.044ZM223.933 147.044H228.289V151.4H223.933V147.044ZM228.289 147.044H232.644V151.4H228.289V147.044ZM232.644 147.044H237V151.4H232.644V147.044ZM45.3556 151.4H49.7111V155.756H45.3556V151.4ZM49.7111 151.4H54.0667V155.756H49.7111V151.4ZM54.0667 151.4H58.4222V155.756H54.0667V151.4ZM58.4222 151.4H62.7778V155.756H58.4222V151.4ZM62.7778 151.4H67.1333V155.756H62.7778V151.4ZM67.1333 151.4H71.4889V155.756H67.1333V151.4ZM75.8444 151.4H80.2V155.756H75.8444V151.4ZM93.2667 151.4H97.6222V155.756H93.2667V151.4ZM97.6222 151.4H101.978V155.756H97.6222V151.4ZM115.044 151.4H119.4V155.756H115.044V151.4ZM132.467 151.4H136.822V155.756H132.467V151.4ZM136.822 151.4H141.178V155.756H136.822V151.4ZM141.178 151.4H145.533V155.756H141.178V151.4ZM158.6 151.4H162.956V155.756H158.6V151.4ZM162.956 151.4H167.311V155.756H162.956V151.4ZM176.022 151.4H180.378V155.756H176.022V151.4ZM180.378 151.4H184.733V155.756H180.378V151.4ZM184.733 151.4H189.089V155.756H184.733V151.4ZM189.089 151.4H193.444V155.756H189.089V151.4ZM193.444 151.4H197.8V155.756H193.444V151.4ZM197.8 151.4H202.156V155.756H197.8V151.4ZM206.511 151.4H210.867V155.756H206.511V151.4ZM219.578 151.4H223.933V155.756H219.578V151.4ZM228.289 151.4H232.644V155.756H228.289V151.4ZM45.3556 155.756H49.7111V160.111H45.3556V155.756ZM54.0667 155.756H58.4222V160.111H54.0667V155.756ZM58.4222 155.756H62.7778V160.111H58.4222V155.756ZM62.7778 155.756H67.1333V160.111H62.7778V155.756ZM71.4889 155.756H75.8444V160.111H71.4889V155.756ZM75.8444 155.756H80.2V160.111H75.8444V155.756ZM80.2 155.756H84.5556V160.111H80.2V155.756ZM84.5556 155.756H88.9111V160.111H84.5556V155.756ZM97.6222 155.756H101.978V160.111H97.6222V155.756ZM106.333 155.756H110.689V160.111H106.333V155.756ZM115.044 155.756H119.4V160.111H115.044V155.756ZM119.4 155.756H123.756V160.111H119.4V155.756ZM128.111 155.756H132.467V160.111H128.111V155.756ZM136.822 155.756H141.178V160.111H136.822V155.756ZM149.889 155.756H154.244V160.111H149.889V155.756ZM158.6 155.756H162.956V160.111H158.6V155.756ZM167.311 155.756H171.667V160.111H167.311V155.756ZM171.667 155.756H176.022V160.111H171.667V155.756ZM180.378 155.756H184.733V160.111H180.378V155.756ZM184.733 155.756H189.089V160.111H184.733V155.756ZM189.089 155.756H193.444V160.111H189.089V155.756ZM197.8 155.756H202.156V160.111H197.8V155.756ZM202.156 155.756H206.511V160.111H202.156V155.756ZM206.511 155.756H210.867V160.111H206.511V155.756ZM210.867 155.756H215.222V160.111H210.867V155.756ZM223.933 155.756H228.289V160.111H223.933V155.756ZM49.7111 160.111H54.0667V164.467H49.7111V160.111ZM58.4222 160.111H62.7778V164.467H58.4222V160.111ZM62.7778 160.111H67.1333V164.467H62.7778V160.111ZM67.1333 160.111H71.4889V164.467H67.1333V160.111ZM71.4889 160.111H75.8444V164.467H71.4889V160.111ZM75.8444 160.111H80.2V164.467H75.8444V160.111ZM80.2 160.111H84.5556V164.467H80.2V160.111ZM88.9111 160.111H93.2667V164.467H88.9111V160.111ZM93.2667 160.111H97.6222V164.467H93.2667V160.111ZM101.978 160.111H106.333V164.467H101.978V160.111ZM106.333 160.111H110.689V164.467H106.333V160.111ZM110.689 160.111H115.044V164.467H110.689V160.111ZM119.4 160.111H123.756V164.467H119.4V160.111ZM123.756 160.111H128.111V164.467H123.756V160.111ZM128.111 160.111H132.467V164.467H128.111V160.111ZM132.467 160.111H136.822V164.467H132.467V160.111ZM136.822 160.111H141.178V164.467H136.822V160.111ZM141.178 160.111H145.533V164.467H141.178V160.111ZM145.533 160.111H149.889V164.467H145.533V160.111ZM154.244 160.111H158.6V164.467H154.244V160.111ZM158.6 160.111H162.956V164.467H158.6V160.111ZM167.311 160.111H171.667V164.467H167.311V160.111ZM180.378 160.111H184.733V164.467H180.378V160.111ZM184.733 160.111H189.089V164.467H184.733V160.111ZM197.8 160.111H202.156V164.467H197.8V160.111ZM202.156 160.111H206.511V164.467H202.156V160.111ZM206.511 160.111H210.867V164.467H206.511V160.111ZM210.867 160.111H215.222V164.467H210.867V160.111ZM215.222 160.111H219.578V164.467H215.222V160.111ZM223.933 160.111H228.289V164.467H223.933V160.111ZM228.289 160.111H232.644V164.467H228.289V160.111ZM41 164.467H45.3556V168.822H41V164.467ZM49.7111 164.467H54.0667V168.822H49.7111V164.467ZM54.0667 164.467H58.4222V168.822H54.0667V164.467ZM58.4222 164.467H62.7778V168.822H58.4222V164.467ZM75.8444 164.467H80.2V168.822H75.8444V164.467ZM101.978 164.467H106.333V168.822H101.978V164.467ZM110.689 164.467H115.044V168.822H110.689V164.467ZM119.4 164.467H123.756V168.822H119.4V164.467ZM128.111 164.467H132.467V168.822H128.111V164.467ZM145.533 164.467H149.889V168.822H145.533V164.467ZM154.244 164.467H158.6V168.822H154.244V164.467ZM158.6 164.467H162.956V168.822H158.6V164.467ZM162.956 164.467H167.311V168.822H162.956V164.467ZM167.311 164.467H171.667V168.822H167.311V164.467ZM171.667 164.467H176.022V168.822H171.667V164.467ZM184.733 164.467H189.089V168.822H184.733V164.467ZM189.089 164.467H193.444V168.822H189.089V164.467ZM197.8 164.467H202.156V168.822H197.8V164.467ZM215.222 164.467H219.578V168.822H215.222V164.467ZM223.933 164.467H228.289V168.822H223.933V164.467ZM232.644 164.467H237V168.822H232.644V164.467ZM49.7111 168.822H54.0667V173.178H49.7111V168.822ZM54.0667 168.822H58.4222V173.178H54.0667V168.822ZM58.4222 168.822H62.7778V173.178H58.4222V168.822ZM67.1333 168.822H71.4889V173.178H67.1333V168.822ZM75.8444 168.822H80.2V173.178H75.8444V168.822ZM80.2 168.822H84.5556V173.178H80.2V168.822ZM88.9111 168.822H93.2667V173.178H88.9111V168.822ZM97.6222 168.822H101.978V173.178H97.6222V168.822ZM101.978 168.822H106.333V173.178H101.978V168.822ZM110.689 168.822H115.044V173.178H110.689V168.822ZM123.756 168.822H128.111V173.178H123.756V168.822ZM128.111 168.822H132.467V173.178H128.111V168.822ZM136.822 168.822H141.178V173.178H136.822V168.822ZM145.533 168.822H149.889V173.178H145.533V168.822ZM158.6 168.822H162.956V173.178H158.6V168.822ZM167.311 168.822H171.667V173.178H167.311V168.822ZM197.8 168.822H202.156V173.178H197.8V168.822ZM206.511 168.822H210.867V173.178H206.511V168.822ZM215.222 168.822H219.578V173.178H215.222V168.822ZM219.578 168.822H223.933V173.178H219.578V168.822ZM49.7111 173.178H54.0667V177.533H49.7111V173.178ZM54.0667 173.178H58.4222V177.533H54.0667V173.178ZM58.4222 173.178H62.7778V177.533H58.4222V173.178ZM75.8444 173.178H80.2V177.533H75.8444V173.178ZM84.5556 173.178H88.9111V177.533H84.5556V173.178ZM93.2667 173.178H97.6222V177.533H93.2667V173.178ZM97.6222 173.178H101.978V177.533H97.6222V173.178ZM115.044 173.178H119.4V177.533H115.044V173.178ZM119.4 173.178H123.756V177.533H119.4V173.178ZM123.756 173.178H128.111V177.533H123.756V173.178ZM128.111 173.178H132.467V177.533H128.111V173.178ZM145.533 173.178H149.889V177.533H145.533V173.178ZM149.889 173.178H154.244V177.533H149.889V173.178ZM154.244 173.178H158.6V177.533H154.244V173.178ZM167.311 173.178H171.667V177.533H167.311V173.178ZM180.378 173.178H184.733V177.533H180.378V173.178ZM189.089 173.178H193.444V177.533H189.089V173.178ZM197.8 173.178H202.156V177.533H197.8V173.178ZM215.222 173.178H219.578V177.533H215.222V173.178ZM223.933 173.178H228.289V177.533H223.933V173.178ZM58.4222 177.533H62.7778V181.889H58.4222V177.533ZM62.7778 177.533H67.1333V181.889H62.7778V177.533ZM67.1333 177.533H71.4889V181.889H67.1333V177.533ZM71.4889 177.533H75.8444V181.889H71.4889V177.533ZM75.8444 177.533H80.2V181.889H75.8444V177.533ZM80.2 177.533H84.5556V181.889H80.2V177.533ZM88.9111 177.533H93.2667V181.889H88.9111V177.533ZM93.2667 177.533H97.6222V181.889H93.2667V177.533ZM101.978 177.533H106.333V181.889H101.978V177.533ZM110.689 177.533H115.044V181.889H110.689V177.533ZM123.756 177.533H128.111V181.889H123.756V177.533ZM128.111 177.533H132.467V181.889H128.111V177.533ZM132.467 177.533H136.822V181.889H132.467V177.533ZM136.822 177.533H141.178V181.889H136.822V177.533ZM141.178 177.533H145.533V181.889H141.178V177.533ZM145.533 177.533H149.889V181.889H145.533V177.533ZM149.889 177.533H154.244V181.889H149.889V177.533ZM154.244 177.533H158.6V181.889H154.244V177.533ZM167.311 177.533H171.667V181.889H167.311V177.533ZM176.022 177.533H180.378V181.889H176.022V177.533ZM193.444 177.533H197.8V181.889H193.444V177.533ZM197.8 177.533H202.156V181.889H197.8V177.533ZM202.156 177.533H206.511V181.889H202.156V177.533ZM206.511 177.533H210.867V181.889H206.511V177.533ZM210.867 177.533H215.222V181.889H210.867V177.533ZM215.222 177.533H219.578V181.889H215.222V177.533ZM219.578 177.533H223.933V181.889H219.578V177.533ZM232.644 177.533H237V181.889H232.644V177.533ZM41 181.889H45.3556V186.244H41V181.889ZM49.7111 181.889H54.0667V186.244H49.7111V181.889ZM54.0667 181.889H58.4222V186.244H54.0667V181.889ZM58.4222 181.889H62.7778V186.244H58.4222V181.889ZM71.4889 181.889H75.8444V186.244H71.4889V181.889ZM80.2 181.889H84.5556V186.244H80.2V181.889ZM84.5556 181.889H88.9111V186.244H84.5556V181.889ZM93.2667 181.889H97.6222V186.244H93.2667V181.889ZM97.6222 181.889H101.978V186.244H97.6222V181.889ZM101.978 181.889H106.333V186.244H101.978V181.889ZM106.333 181.889H110.689V186.244H106.333V181.889ZM110.689 181.889H115.044V186.244H110.689V181.889ZM115.044 181.889H119.4V186.244H115.044V181.889ZM119.4 181.889H123.756V186.244H119.4V181.889ZM136.822 181.889H141.178V186.244H136.822V181.889ZM149.889 181.889H154.244V186.244H149.889V181.889ZM167.311 181.889H171.667V186.244H167.311V181.889ZM171.667 181.889H176.022V186.244H171.667V181.889ZM184.733 181.889H189.089V186.244H184.733V181.889ZM202.156 181.889H206.511V186.244H202.156V181.889ZM210.867 181.889H215.222V186.244H210.867V181.889ZM215.222 181.889H219.578V186.244H215.222V181.889ZM219.578 181.889H223.933V186.244H219.578V181.889ZM223.933 181.889H228.289V186.244H223.933V181.889ZM228.289 181.889H232.644V186.244H228.289V181.889ZM232.644 181.889H237V186.244H232.644V181.889ZM45.3556 186.244H49.7111V190.6H45.3556V186.244ZM58.4222 186.244H62.7778V190.6H58.4222V186.244ZM67.1333 186.244H71.4889V190.6H67.1333V186.244ZM71.4889 186.244H75.8444V190.6H71.4889V186.244ZM84.5556 186.244H88.9111V190.6H84.5556V186.244ZM88.9111 186.244H93.2667V190.6H88.9111V186.244ZM93.2667 186.244H97.6222V190.6H93.2667V186.244ZM97.6222 186.244H101.978V190.6H97.6222V186.244ZM101.978 186.244H106.333V190.6H101.978V186.244ZM115.044 186.244H119.4V190.6H115.044V186.244ZM128.111 186.244H132.467V190.6H128.111V186.244ZM132.467 186.244H136.822V190.6H132.467V186.244ZM154.244 186.244H158.6V190.6H154.244V186.244ZM167.311 186.244H171.667V190.6H167.311V186.244ZM171.667 186.244H176.022V190.6H171.667V186.244ZM176.022 186.244H180.378V190.6H176.022V186.244ZM184.733 186.244H189.089V190.6H184.733V186.244ZM189.089 186.244H193.444V190.6H189.089V186.244ZM193.444 186.244H197.8V190.6H193.444V186.244ZM197.8 186.244H202.156V190.6H197.8V186.244ZM210.867 186.244H215.222V190.6H210.867V186.244ZM228.289 186.244H232.644V190.6H228.289V186.244ZM45.3556 190.6H49.7111V194.956H45.3556V190.6ZM58.4222 190.6H62.7778V194.956H58.4222V190.6ZM62.7778 190.6H67.1333V194.956H62.7778V190.6ZM80.2 190.6H84.5556V194.956H80.2V190.6ZM84.5556 190.6H88.9111V194.956H84.5556V190.6ZM93.2667 190.6H97.6222V194.956H93.2667V190.6ZM97.6222 190.6H101.978V194.956H97.6222V190.6ZM119.4 190.6H123.756V194.956H119.4V190.6ZM123.756 190.6H128.111V194.956H123.756V190.6ZM128.111 190.6H132.467V194.956H128.111V190.6ZM141.178 190.6H145.533V194.956H141.178V190.6ZM145.533 190.6H149.889V194.956H145.533V190.6ZM167.311 190.6H171.667V194.956H167.311V190.6ZM171.667 190.6H176.022V194.956H171.667V190.6ZM189.089 190.6H193.444V194.956H189.089V190.6ZM193.444 190.6H197.8V194.956H193.444V190.6ZM206.511 190.6H210.867V194.956H206.511V190.6ZM215.222 190.6H219.578V194.956H215.222V190.6ZM219.578 190.6H223.933V194.956H219.578V190.6ZM45.3556 194.956H49.7111V199.311H45.3556V194.956ZM54.0667 194.956H58.4222V199.311H54.0667V194.956ZM58.4222 194.956H62.7778V199.311H58.4222V194.956ZM67.1333 194.956H71.4889V199.311H67.1333V194.956ZM84.5556 194.956H88.9111V199.311H84.5556V194.956ZM93.2667 194.956H97.6222V199.311H93.2667V194.956ZM106.333 194.956H110.689V199.311H106.333V194.956ZM115.044 194.956H119.4V199.311H115.044V194.956ZM119.4 194.956H123.756V199.311H119.4V194.956ZM123.756 194.956H128.111V199.311H123.756V194.956ZM136.822 194.956H141.178V199.311H136.822V194.956ZM141.178 194.956H145.533V199.311H141.178V194.956ZM145.533 194.956H149.889V199.311H145.533V194.956ZM149.889 194.956H154.244V199.311H149.889V194.956ZM154.244 194.956H158.6V199.311H154.244V194.956ZM162.956 194.956H167.311V199.311H162.956V194.956ZM167.311 194.956H171.667V199.311H167.311V194.956ZM176.022 194.956H180.378V199.311H176.022V194.956ZM184.733 194.956H189.089V199.311H184.733V194.956ZM202.156 194.956H206.511V199.311H202.156V194.956ZM215.222 194.956H219.578V199.311H215.222V194.956ZM232.644 194.956H237V199.311H232.644V194.956ZM54.0667 199.311H58.4222V203.667H54.0667V199.311ZM58.4222 199.311H62.7778V203.667H58.4222V199.311ZM75.8444 199.311H80.2V203.667H75.8444V199.311ZM84.5556 199.311H88.9111V203.667H84.5556V199.311ZM101.978 199.311H106.333V203.667H101.978V199.311ZM106.333 199.311H110.689V203.667H106.333V199.311ZM110.689 199.311H115.044V203.667H110.689V199.311ZM119.4 199.311H123.756V203.667H119.4V199.311ZM128.111 199.311H132.467V203.667H128.111V199.311ZM145.533 199.311H149.889V203.667H145.533V199.311ZM162.956 199.311H167.311V203.667H162.956V199.311ZM171.667 199.311H176.022V203.667H171.667V199.311ZM176.022 199.311H180.378V203.667H176.022V199.311ZM206.511 199.311H210.867V203.667H206.511V199.311ZM232.644 199.311H237V203.667H232.644V199.311ZM41 203.667H45.3556V208.022H41V203.667ZM49.7111 203.667H54.0667V208.022H49.7111V203.667ZM62.7778 203.667H67.1333V208.022H62.7778V203.667ZM67.1333 203.667H71.4889V208.022H67.1333V203.667ZM75.8444 203.667H80.2V208.022H75.8444V203.667ZM80.2 203.667H84.5556V208.022H80.2V203.667ZM101.978 203.667H106.333V208.022H101.978V203.667ZM106.333 203.667H110.689V208.022H106.333V203.667ZM115.044 203.667H119.4V208.022H115.044V203.667ZM123.756 203.667H128.111V208.022H123.756V203.667ZM128.111 203.667H132.467V208.022H128.111V203.667ZM132.467 203.667H136.822V208.022H132.467V203.667ZM141.178 203.667H145.533V208.022H141.178V203.667ZM149.889 203.667H154.244V208.022H149.889V203.667ZM154.244 203.667H158.6V208.022H154.244V203.667ZM158.6 203.667H162.956V208.022H158.6V203.667ZM171.667 203.667H176.022V208.022H171.667V203.667ZM176.022 203.667H180.378V208.022H176.022V203.667ZM184.733 203.667H189.089V208.022H184.733V203.667ZM193.444 203.667H197.8V208.022H193.444V203.667ZM197.8 203.667H202.156V208.022H197.8V203.667ZM202.156 203.667H206.511V208.022H202.156V203.667ZM215.222 203.667H219.578V208.022H215.222V203.667ZM228.289 203.667H232.644V208.022H228.289V203.667ZM41 208.022H45.3556V212.378H41V208.022ZM45.3556 208.022H49.7111V212.378H45.3556V208.022ZM49.7111 208.022H54.0667V212.378H49.7111V208.022ZM84.5556 208.022H88.9111V212.378H84.5556V208.022ZM88.9111 208.022H93.2667V212.378H88.9111V208.022ZM93.2667 208.022H97.6222V212.378H93.2667V208.022ZM110.689 208.022H115.044V212.378H110.689V208.022ZM119.4 208.022H123.756V212.378H119.4V208.022ZM136.822 208.022H141.178V212.378H136.822V208.022ZM141.178 208.022H145.533V212.378H141.178V208.022ZM162.956 208.022H167.311V212.378H162.956V208.022ZM171.667 208.022H176.022V212.378H171.667V208.022ZM176.022 208.022H180.378V212.378H176.022V208.022ZM180.378 208.022H184.733V212.378H180.378V208.022ZM189.089 208.022H193.444V212.378H189.089V208.022ZM197.8 208.022H202.156V212.378H197.8V208.022ZM206.511 208.022H210.867V212.378H206.511V208.022ZM223.933 208.022H228.289V212.378H223.933V208.022ZM232.644 208.022H237V212.378H232.644V208.022ZM41 212.378H45.3556V216.733H41V212.378ZM49.7111 212.378H54.0667V216.733H49.7111V212.378ZM58.4222 212.378H62.7778V216.733H58.4222V212.378ZM62.7778 212.378H67.1333V216.733H62.7778V212.378ZM67.1333 212.378H71.4889V216.733H67.1333V212.378ZM71.4889 212.378H75.8444V216.733H71.4889V212.378ZM80.2 212.378H84.5556V216.733H80.2V212.378ZM93.2667 212.378H97.6222V216.733H93.2667V212.378ZM106.333 212.378H110.689V216.733H106.333V212.378ZM115.044 212.378H119.4V216.733H115.044V212.378ZM123.756 212.378H128.111V216.733H123.756V212.378ZM132.467 212.378H136.822V216.733H132.467V212.378ZM145.533 212.378H149.889V216.733H145.533V212.378ZM154.244 212.378H158.6V216.733H154.244V212.378ZM158.6 212.378H162.956V216.733H158.6V212.378ZM167.311 212.378H171.667V216.733H167.311V212.378ZM176.022 212.378H180.378V216.733H176.022V212.378ZM189.089 212.378H193.444V216.733H189.089V212.378ZM197.8 212.378H202.156V216.733H197.8V212.378ZM202.156 212.378H206.511V216.733H202.156V212.378ZM206.511 212.378H210.867V216.733H206.511V212.378ZM210.867 212.378H215.222V216.733H210.867V212.378ZM215.222 212.378H219.578V216.733H215.222V212.378ZM228.289 212.378H232.644V216.733H228.289V212.378ZM41 216.733H45.3556V221.089H41V216.733ZM45.3556 216.733H49.7111V221.089H45.3556V216.733ZM49.7111 216.733H54.0667V221.089H49.7111V216.733ZM54.0667 216.733H58.4222V221.089H54.0667V216.733ZM62.7778 216.733H67.1333V221.089H62.7778V216.733ZM80.2 216.733H84.5556V221.089H80.2V216.733ZM88.9111 216.733H93.2667V221.089H88.9111V216.733ZM106.333 216.733H110.689V221.089H106.333V216.733ZM110.689 216.733H115.044V221.089H110.689V216.733ZM115.044 216.733H119.4V221.089H115.044V216.733ZM123.756 216.733H128.111V221.089H123.756V216.733ZM132.467 216.733H136.822V221.089H132.467V216.733ZM136.822 216.733H141.178V221.089H136.822V216.733ZM145.533 216.733H149.889V221.089H145.533V216.733ZM167.311 216.733H171.667V221.089H167.311V216.733ZM171.667 216.733H176.022V221.089H171.667V216.733ZM176.022 216.733H180.378V221.089H176.022V216.733ZM180.378 216.733H184.733V221.089H180.378V216.733ZM215.222 216.733H219.578V221.089H215.222V216.733ZM219.578 216.733H223.933V221.089H219.578V216.733ZM223.933 216.733H228.289V221.089H223.933V216.733ZM232.644 216.733H237V221.089H232.644V216.733ZM58.4222 221.089H62.7778V225.444H58.4222V221.089ZM67.1333 221.089H71.4889V225.444H67.1333V221.089ZM71.4889 221.089H75.8444V225.444H71.4889V221.089ZM75.8444 221.089H80.2V225.444H75.8444V221.089ZM97.6222 221.089H101.978V225.444H97.6222V221.089ZM101.978 221.089H106.333V225.444H101.978V221.089ZM115.044 221.089H119.4V225.444H115.044V221.089ZM123.756 221.089H128.111V225.444H123.756V221.089ZM128.111 221.089H132.467V225.444H128.111V221.089ZM132.467 221.089H136.822V225.444H132.467V221.089ZM145.533 221.089H149.889V225.444H145.533V221.089ZM149.889 221.089H154.244V225.444H149.889V221.089ZM154.244 221.089H158.6V225.444H154.244V221.089ZM158.6 221.089H162.956V225.444H158.6V221.089ZM176.022 221.089H180.378V225.444H176.022V221.089ZM180.378 221.089H184.733V225.444H180.378V221.089ZM189.089 221.089H193.444V225.444H189.089V221.089ZM197.8 221.089H202.156V225.444H197.8V221.089ZM206.511 221.089H210.867V225.444H206.511V221.089ZM223.933 221.089H228.289V225.444H223.933V221.089ZM228.289 221.089H232.644V225.444H228.289V221.089ZM45.3556 225.444H49.7111V229.8H45.3556V225.444ZM49.7111 225.444H54.0667V229.8H49.7111V225.444ZM54.0667 225.444H58.4222V229.8H54.0667V225.444ZM58.4222 225.444H62.7778V229.8H58.4222V225.444ZM71.4889 225.444H75.8444V229.8H71.4889V225.444ZM75.8444 225.444H80.2V229.8H75.8444V225.444ZM88.9111 225.444H93.2667V229.8H88.9111V225.444ZM110.689 225.444H115.044V229.8H110.689V225.444ZM115.044 225.444H119.4V229.8H115.044V225.444ZM119.4 225.444H123.756V229.8H119.4V225.444ZM123.756 225.444H128.111V229.8H123.756V225.444ZM128.111 225.444H132.467V229.8H128.111V225.444ZM132.467 225.444H136.822V229.8H132.467V225.444ZM141.178 225.444H145.533V229.8H141.178V225.444ZM145.533 225.444H149.889V229.8H145.533V225.444ZM158.6 225.444H162.956V229.8H158.6V225.444ZM167.311 225.444H171.667V229.8H167.311V225.444ZM171.667 225.444H176.022V229.8H171.667V225.444ZM184.733 225.444H189.089V229.8H184.733V225.444ZM193.444 225.444H197.8V229.8H193.444V225.444ZM215.222 225.444H219.578V229.8H215.222V225.444ZM219.578 225.444H223.933V229.8H219.578V225.444ZM41 229.8H45.3556V234.156H41V229.8ZM54.0667 229.8H58.4222V234.156H54.0667V229.8ZM58.4222 229.8H62.7778V234.156H58.4222V229.8ZM67.1333 229.8H71.4889V234.156H67.1333V229.8ZM75.8444 229.8H80.2V234.156H75.8444V229.8ZM80.2 229.8H84.5556V234.156H80.2V229.8ZM101.978 229.8H106.333V234.156H101.978V229.8ZM106.333 229.8H110.689V234.156H106.333V229.8ZM115.044 229.8H119.4V234.156H115.044V229.8ZM128.111 229.8H132.467V234.156H128.111V229.8ZM132.467 229.8H136.822V234.156H132.467V229.8ZM136.822 229.8H141.178V234.156H136.822V229.8ZM141.178 229.8H145.533V234.156H141.178V229.8ZM145.533 229.8H149.889V234.156H145.533V229.8ZM180.378 229.8H184.733V234.156H180.378V229.8ZM184.733 229.8H189.089V234.156H184.733V229.8ZM189.089 229.8H193.444V234.156H189.089V229.8ZM197.8 229.8H202.156V234.156H197.8V229.8ZM202.156 229.8H206.511V234.156H202.156V229.8ZM206.511 229.8H210.867V234.156H206.511V229.8ZM210.867 229.8H215.222V234.156H210.867V229.8ZM215.222 229.8H219.578V234.156H215.222V229.8ZM223.933 229.8H228.289V234.156H223.933V229.8ZM75.8444 234.156H80.2V238.511H75.8444V234.156ZM80.2 234.156H84.5556V238.511H80.2V234.156ZM84.5556 234.156H88.9111V238.511H84.5556V234.156ZM123.756 234.156H128.111V238.511H123.756V234.156ZM128.111 234.156H132.467V238.511H128.111V234.156ZM145.533 234.156H149.889V238.511H145.533V234.156ZM149.889 234.156H154.244V238.511H149.889V234.156ZM162.956 234.156H167.311V238.511H162.956V234.156ZM167.311 234.156H171.667V238.511H167.311V234.156ZM176.022 234.156H180.378V238.511H176.022V234.156ZM193.444 234.156H197.8V238.511H193.444V234.156ZM197.8 234.156H202.156V238.511H197.8V234.156ZM215.222 234.156H219.578V238.511H215.222V234.156ZM219.578 234.156H223.933V238.511H219.578V234.156ZM232.644 234.156H237V238.511H232.644V234.156ZM41 238.511H45.3556V242.867H41V238.511ZM45.3556 238.511H49.7111V242.867H45.3556V238.511ZM49.7111 238.511H54.0667V242.867H49.7111V238.511ZM54.0667 238.511H58.4222V242.867H54.0667V238.511ZM58.4222 238.511H62.7778V242.867H58.4222V238.511ZM62.7778 238.511H67.1333V242.867H62.7778V238.511ZM67.1333 238.511H71.4889V242.867H67.1333V238.511ZM75.8444 238.511H80.2V242.867H75.8444V238.511ZM80.2 238.511H84.5556V242.867H80.2V238.511ZM84.5556 238.511H88.9111V242.867H84.5556V238.511ZM97.6222 238.511H101.978V242.867H97.6222V238.511ZM101.978 238.511H106.333V242.867H101.978V238.511ZM106.333 238.511H110.689V242.867H106.333V238.511ZM110.689 238.511H115.044V242.867H110.689V238.511ZM115.044 238.511H119.4V242.867H115.044V238.511ZM119.4 238.511H123.756V242.867H119.4V238.511ZM128.111 238.511H132.467V242.867H128.111V238.511ZM136.822 238.511H141.178V242.867H136.822V238.511ZM145.533 238.511H149.889V242.867H145.533V238.511ZM149.889 238.511H154.244V242.867H149.889V238.511ZM167.311 238.511H171.667V242.867H167.311V238.511ZM189.089 238.511H193.444V242.867H189.089V238.511ZM193.444 238.511H197.8V242.867H193.444V238.511ZM197.8 238.511H202.156V242.867H197.8V238.511ZM206.511 238.511H210.867V242.867H206.511V238.511ZM215.222 238.511H219.578V242.867H215.222V238.511ZM219.578 238.511H223.933V242.867H219.578V238.511ZM232.644 238.511H237V242.867H232.644V238.511ZM41 242.867H45.3556V247.222H41V242.867ZM67.1333 242.867H71.4889V247.222H67.1333V242.867ZM88.9111 242.867H93.2667V247.222H88.9111V242.867ZM93.2667 242.867H97.6222V247.222H93.2667V242.867ZM101.978 242.867H106.333V247.222H101.978V242.867ZM110.689 242.867H115.044V247.222H110.689V242.867ZM115.044 242.867H119.4V247.222H115.044V242.867ZM119.4 242.867H123.756V247.222H119.4V242.867ZM128.111 242.867H132.467V247.222H128.111V242.867ZM145.533 242.867H149.889V247.222H145.533V242.867ZM149.889 242.867H154.244V247.222H149.889V242.867ZM162.956 242.867H167.311V247.222H162.956V242.867ZM171.667 242.867H176.022V247.222H171.667V242.867ZM180.378 242.867H184.733V247.222H180.378V242.867ZM184.733 242.867H189.089V247.222H184.733V242.867ZM193.444 242.867H197.8V247.222H193.444V242.867ZM197.8 242.867H202.156V247.222H197.8V242.867ZM215.222 242.867H219.578V247.222H215.222V242.867ZM223.933 242.867H228.289V247.222H223.933V242.867ZM41 247.222H45.3556V251.578H41V247.222ZM49.7111 247.222H54.0667V251.578H49.7111V247.222ZM54.0667 247.222H58.4222V251.578H54.0667V247.222ZM58.4222 247.222H62.7778V251.578H58.4222V247.222ZM67.1333 247.222H71.4889V251.578H67.1333V247.222ZM75.8444 247.222H80.2V251.578H75.8444V247.222ZM80.2 247.222H84.5556V251.578H80.2V247.222ZM88.9111 247.222H93.2667V251.578H88.9111V247.222ZM93.2667 247.222H97.6222V251.578H93.2667V247.222ZM97.6222 247.222H101.978V251.578H97.6222V247.222ZM101.978 247.222H106.333V251.578H101.978V247.222ZM106.333 247.222H110.689V251.578H106.333V247.222ZM115.044 247.222H119.4V251.578H115.044V247.222ZM123.756 247.222H128.111V251.578H123.756V247.222ZM128.111 247.222H132.467V251.578H128.111V247.222ZM132.467 247.222H136.822V251.578H132.467V247.222ZM136.822 247.222H141.178V251.578H136.822V247.222ZM141.178 247.222H145.533V251.578H141.178V247.222ZM145.533 247.222H149.889V251.578H145.533V247.222ZM149.889 247.222H154.244V251.578H149.889V247.222ZM176.022 247.222H180.378V251.578H176.022V247.222ZM184.733 247.222H189.089V251.578H184.733V247.222ZM197.8 247.222H202.156V251.578H197.8V247.222ZM202.156 247.222H206.511V251.578H202.156V247.222ZM206.511 247.222H210.867V251.578H206.511V247.222ZM210.867 247.222H215.222V251.578H210.867V247.222ZM215.222 247.222H219.578V251.578H215.222V247.222ZM228.289 247.222H232.644V251.578H228.289V247.222ZM41 251.578H45.3556V255.933H41V251.578ZM49.7111 251.578H54.0667V255.933H49.7111V251.578ZM54.0667 251.578H58.4222V255.933H54.0667V251.578ZM58.4222 251.578H62.7778V255.933H58.4222V251.578ZM67.1333 251.578H71.4889V255.933H67.1333V251.578ZM75.8444 251.578H80.2V255.933H75.8444V251.578ZM80.2 251.578H84.5556V255.933H80.2V251.578ZM84.5556 251.578H88.9111V255.933H84.5556V251.578ZM93.2667 251.578H97.6222V255.933H93.2667V251.578ZM106.333 251.578H110.689V255.933H106.333V251.578ZM110.689 251.578H115.044V255.933H110.689V251.578ZM119.4 251.578H123.756V255.933H119.4V251.578ZM141.178 251.578H145.533V255.933H141.178V251.578ZM145.533 251.578H149.889V255.933H145.533V251.578ZM149.889 251.578H154.244V255.933H149.889V251.578ZM167.311 251.578H171.667V255.933H167.311V251.578ZM171.667 251.578H176.022V255.933H171.667V251.578ZM180.378 251.578H184.733V255.933H180.378V251.578ZM206.511 251.578H210.867V255.933H206.511V251.578ZM215.222 251.578H219.578V255.933H215.222V251.578ZM219.578 251.578H223.933V255.933H219.578V251.578ZM228.289 251.578H232.644V255.933H228.289V251.578ZM232.644 251.578H237V255.933H232.644V251.578ZM41 255.933H45.3556V260.289H41V255.933ZM49.7111 255.933H54.0667V260.289H49.7111V255.933ZM54.0667 255.933H58.4222V260.289H54.0667V255.933ZM58.4222 255.933H62.7778V260.289H58.4222V255.933ZM67.1333 255.933H71.4889V260.289H67.1333V255.933ZM75.8444 255.933H80.2V260.289H75.8444V255.933ZM80.2 255.933H84.5556V260.289H80.2V255.933ZM88.9111 255.933H93.2667V260.289H88.9111V255.933ZM93.2667 255.933H97.6222V260.289H93.2667V255.933ZM97.6222 255.933H101.978V260.289H97.6222V255.933ZM115.044 255.933H119.4V260.289H115.044V255.933ZM123.756 255.933H128.111V260.289H123.756V255.933ZM128.111 255.933H132.467V260.289H128.111V255.933ZM132.467 255.933H136.822V260.289H132.467V255.933ZM141.178 255.933H145.533V260.289H141.178V255.933ZM145.533 255.933H149.889V260.289H145.533V255.933ZM154.244 255.933H158.6V260.289H154.244V255.933ZM189.089 255.933H193.444V260.289H189.089V255.933ZM202.156 255.933H206.511V260.289H202.156V255.933ZM219.578 255.933H223.933V260.289H219.578V255.933ZM223.933 255.933H228.289V260.289H223.933V255.933ZM41 260.289H45.3556V264.644H41V260.289ZM67.1333 260.289H71.4889V264.644H67.1333V260.289ZM75.8444 260.289H80.2V264.644H75.8444V260.289ZM80.2 260.289H84.5556V264.644H80.2V260.289ZM93.2667 260.289H97.6222V264.644H93.2667V260.289ZM97.6222 260.289H101.978V264.644H97.6222V260.289ZM101.978 260.289H106.333V264.644H101.978V260.289ZM110.689 260.289H115.044V264.644H110.689V260.289ZM119.4 260.289H123.756V264.644H119.4V260.289ZM123.756 260.289H128.111V264.644H123.756V260.289ZM128.111 260.289H132.467V264.644H128.111V260.289ZM132.467 260.289H136.822V264.644H132.467V260.289ZM141.178 260.289H145.533V264.644H141.178V260.289ZM145.533 260.289H149.889V264.644H145.533V260.289ZM154.244 260.289H158.6V264.644H154.244V260.289ZM158.6 260.289H162.956V264.644H158.6V260.289ZM162.956 260.289H167.311V264.644H162.956V260.289ZM167.311 260.289H171.667V264.644H167.311V260.289ZM171.667 260.289H176.022V264.644H171.667V260.289ZM184.733 260.289H189.089V264.644H184.733V260.289ZM189.089 260.289H193.444V264.644H189.089V260.289ZM193.444 260.289H197.8V264.644H193.444V260.289ZM202.156 260.289H206.511V264.644H202.156V260.289ZM215.222 260.289H219.578V264.644H215.222V260.289ZM219.578 260.289H223.933V264.644H219.578V260.289ZM41 264.644H45.3556V269H41V264.644ZM45.3556 264.644H49.7111V269H45.3556V264.644ZM49.7111 264.644H54.0667V269H49.7111V264.644ZM54.0667 264.644H58.4222V269H54.0667V264.644ZM58.4222 264.644H62.7778V269H58.4222V264.644ZM62.7778 264.644H67.1333V269H62.7778V264.644ZM67.1333 264.644H71.4889V269H67.1333V264.644ZM75.8444 264.644H80.2V269H75.8444V264.644ZM80.2 264.644H84.5556V269H80.2V264.644ZM84.5556 264.644H88.9111V269H84.5556V264.644ZM101.978 264.644H106.333V269H101.978V264.644ZM106.333 264.644H110.689V269H106.333V264.644ZM110.689 264.644H115.044V269H110.689V264.644ZM119.4 264.644H123.756V269H119.4V264.644ZM123.756 264.644H128.111V269H123.756V264.644ZM136.822 264.644H141.178V269H136.822V264.644ZM145.533 264.644H149.889V269H145.533V264.644ZM149.889 264.644H154.244V269H149.889V264.644ZM154.244 264.644H158.6V269H154.244V264.644ZM158.6 264.644H162.956V269H158.6V264.644ZM167.311 264.644H171.667V269H167.311V264.644ZM184.733 264.644H189.089V269H184.733V264.644ZM189.089 264.644H193.444V269H189.089V264.644ZM193.444 264.644H197.8V269H193.444V264.644ZM197.8 264.644H202.156V269H197.8V264.644ZM206.511 264.644H210.867V269H206.511V264.644ZM215.222 264.644H219.578V269H215.222V264.644ZM223.933 264.644H228.289V269H223.933V264.644ZM228.289 264.644H232.644V269H228.289V264.644Z" fill="#1B1D29"/>
</g>
</g>
<defs>
<filter id="filter0_d_9316_82438" x="10" y="42" width="258" height="258" filterUnits="userSpaceOnUse" color-interpolation-filters="sRGB">
<feFlood flood-opacity="0" result="BackgroundImageFix"/>
<feColorMatrix in="SourceAlpha" type="matrix" values="0 0 0 0 0 0 0 0 0 0 0 0 0 0 0 0 0 0 127 0" result="hardAlpha"/>
<feOffset/>
<feGaussianBlur stdDeviation="7.5"/>
<feComposite in2="hardAlpha" operator="out"/>
<feColorMatrix type="matrix" values="0 0 0 0 0.895833 0 0 0 0 0.712779 0 0 0 0 0.0970486 0 0 0 0.15 0"/>
<feBlend mode="normal" in2="BackgroundImageFix" result="effect1_dropShadow_9316_82438"/>
<feBlend mode="normal" in="SourceGraphic" in2="effect1_dropShadow_9316_82438" result="shape"/>
</filter>
<linearGradient id="paint0_linear_9316_82438" x1="139.5" y1="0" x2="139.5" y2="318" gradientUnits="userSpaceOnUse">
<stop stop-color="white"/>
<stop offset="0.213542" stop-color="#FFFBEE"/>
<stop offset="1" stop-color="#FFF7DB"/>
</linearGradient>
<clipPath id="clip0_9316_82438">
<path d="M0 24C0 10.7452 10.7452 0 24 0H255C268.255 0 279 10.7452 279 24V104H0V24Z" fill="white"/>
</clipPath>
</defs>
</svg>
