<svg width="25" height="24" viewBox="0 0 25 24" fill="none" xmlns="http://www.w3.org/2000/svg">
<path fill-rule="evenodd" clip-rule="evenodd" d="M7.58939 13.4426C8.40656 13.0591 9.31634 12.915 10.2151 13.0356C11.1388 13.1596 12.4723 13.3432 13.651 13.523C14.2398 13.6128 14.7947 13.7023 15.2424 13.7835C15.6633 13.8599 16.0582 13.9403 16.2774 14.0194C16.8181 14.2144 17.2186 14.5358 17.3433 15.0526C17.3925 15.2566 17.383 15.443 17.3783 15.5349L17.3782 15.5369C17.3736 15.6262 17.3732 15.6488 17.3727 15.6499C17.4057 15.8695 17.4153 16.1146 17.3534 16.371C17.2889 16.6379 17.1591 16.8668 16.9836 17.0681C16.7059 17.3868 16.3177 17.4911 16.0868 17.5328C15.829 17.5793 15.5816 17.5788 15.4299 17.5727C15.27 17.5662 15.1249 17.5408 15.013 17.5188L12.3353 16.9914C11.9289 16.9114 11.6643 16.5171 11.7444 16.1107C11.8244 15.7042 12.2188 15.4397 12.6252 15.5197L15.3028 16.0471C15.391 16.0644 15.4468 16.0721 15.4906 16.0739C15.59 16.0779 15.7152 16.0756 15.8204 16.0566C15.848 16.0516 15.8689 16.0464 15.8841 16.0419C15.8867 16.0378 15.8886 16.0346 15.8898 16.0322C15.8935 16.0253 15.8946 16.0217 15.8954 16.0186C15.8969 16.0121 15.9049 15.9746 15.8888 15.8694C15.8738 15.771 15.8723 15.6828 15.8734 15.6175C15.8742 15.5683 15.8772 15.5146 15.8791 15.4801C15.8791 15.4787 15.8792 15.4774 15.8793 15.4762C15.8526 15.4633 15.8164 15.4477 15.7685 15.4304C15.6905 15.4023 15.429 15.3419 14.9746 15.2594C14.5471 15.1819 14.0081 15.0948 13.4249 15.0058C12.2595 14.8281 10.9364 14.6459 10.0155 14.5223C9.40633 14.4405 8.78671 14.5377 8.22655 14.8005L6.02702 15.8326L7.50492 18.3423C8.26652 18.1111 9.09156 18.1406 9.84463 18.4393L11.9029 19.2556C12.8224 19.6203 13.858 19.5463 14.7163 19.0547L20.9929 15.4598C21.185 15.3498 21.3065 15.1483 21.3142 14.927C21.3218 14.7071 21.2088 14.4888 21.0165 14.3642C20.8158 14.2342 20.5597 14.2197 20.3533 14.3212L18.665 15.1513C18.2933 15.3341 17.8438 15.1809 17.6611 14.8092C17.4783 14.4375 17.6315 13.988 18.0032 13.8052L19.6915 12.9751C20.3796 12.6368 21.1963 12.6934 21.8322 13.1054C22.459 13.5116 22.8394 14.2233 22.8133 14.9788C22.7877 15.719 22.3811 16.3933 21.7384 16.7614L15.4618 20.3563C14.2073 21.0748 12.6938 21.1829 11.3499 20.6499L9.29164 19.8336C8.72399 19.6085 8.08552 19.6482 7.55017 19.942L7.20868 20.1294C5.76049 20.9241 3.94198 20.3694 3.18401 18.9016C2.4684 17.5159 2.95999 15.8125 4.3039 15.0211L4.58228 14.8572C4.60242 14.8453 4.6231 14.8344 4.64426 14.8245L7.58939 13.4426ZM6.12436 18.954L4.72985 16.5859C4.33588 17.0195 4.23458 17.6669 4.51679 18.2133C4.82661 18.8133 5.49838 19.1016 6.12436 18.954Z" fill="currentColor"/>
<path fill-rule="evenodd" clip-rule="evenodd" d="M11.3614 7.06393C11.5412 6.44357 12.0931 5.97501 12.7666 5.97501H16.0494C16.6907 5.97501 17.2266 6.40165 17.4293 6.98455L17.4339 6.99765L18.3853 10.1812C18.6993 11.1142 18.0794 12.225 17.0003 12.225H11.9617C10.9185 12.225 10.2941 11.1777 10.5531 10.2574L11.3584 7.07425L11.3614 7.06393ZM12.5643 7.40414L11.76 10.5834L11.757 10.5938C11.726 10.701 11.7485 10.8039 11.7986 10.8773C11.8478 10.9494 11.908 10.975 11.9617 10.975H17.0003C17.0557 10.975 17.1181 10.948 17.1677 10.8708C17.2182 10.7923 17.2371 10.6848 17.1996 10.5771L17.1951 10.564L16.2452 7.38541C16.1998 7.26624 16.1096 7.22501 16.0494 7.22501H12.7666C12.7036 7.22501 12.6059 7.27144 12.5643 7.40414Z" fill="currentColor"/>
<path fill-rule="evenodd" clip-rule="evenodd" d="M15.0622 2.16728C15.0622 1.85398 14.8104 1.60001 14.4997 1.60001C14.1891 1.60001 13.9373 1.85398 13.9373 2.16728V4.03968C13.9373 4.35297 14.1891 4.60695 14.4997 4.60695C14.8104 4.60695 15.0622 4.35297 15.0622 4.03968V2.16728ZM9.17872 3.76721C9.39629 3.54358 9.75242 3.54018 9.97415 3.7596L11.2986 5.07028C11.5204 5.2897 11.5237 5.64887 11.3062 5.87249C11.0886 6.09611 10.7325 6.09952 10.5107 5.88009L9.18625 4.56941C8.96452 4.34999 8.96114 3.99083 9.17872 3.76721ZM7.56248 8.46546C7.25183 8.46546 7 8.71944 7 9.03273C7 9.34603 7.25183 9.60001 7.56248 9.60001H9.45461C9.76526 9.60001 10.0171 9.34603 10.0171 9.03273C10.0171 8.71944 9.76526 8.46546 9.45461 8.46546H7.56248ZM19.8207 3.76721C20.0383 3.99083 20.0349 4.34999 19.8132 4.56941L18.4887 5.88009C18.267 6.09952 17.9108 6.09611 17.6933 5.87249C17.4757 5.64887 17.4791 5.28971 17.7008 5.07028L19.0253 3.7596C19.247 3.54018 19.6031 3.54358 19.8207 3.76721ZM19.5454 8.46546C19.2347 8.46546 18.9829 8.71944 18.9829 9.03273C18.9829 9.34603 19.2347 9.60001 19.5454 9.60001H21.4375C21.7482 9.60001 22 9.34603 22 9.03273C22 8.71944 21.7482 8.46546 21.4375 8.46546H19.5454Z" fill="currentColor"/>
</svg>
