<svg width="25" height="24" viewBox="0 0 25 24" fill="none" xmlns="http://www.w3.org/2000/svg">
<path fill-rule="evenodd" clip-rule="evenodd" d="M21.9248 6.49057C21.5106 6.4921 21.1736 6.15756 21.172 5.74335L21.164 3.55424L17.4583 7.28742C17.1665 7.58139 16.6916 7.58315 16.3976 7.29134C16.1036 6.99953 16.1019 6.52466 16.3937 6.23069L20.0996 2.49729L17.9101 2.50538C17.4958 2.50691 17.1588 2.17237 17.1573 1.75816C17.1558 1.34394 17.4903 1.00692 17.9045 1.00539L21.9045 0.990606C21.9791 0.99033 22.0513 1.00097 22.1194 1.02102C22.2351 1.05499 22.3442 1.11741 22.4358 1.20832C22.5874 1.35875 22.6613 1.55783 22.6573 1.75569L22.672 5.7378C22.6736 6.15201 22.339 6.48904 21.9248 6.49057ZM12.1665 3.53847C7.49595 3.53847 3.70497 7.32945 3.70497 12C3.70497 16.6706 7.49595 20.4615 12.1665 20.4615C16.8371 20.4615 20.628 16.6706 20.628 12C20.628 11.5752 20.9724 11.2308 21.3973 11.2308C21.8221 11.2308 22.1665 11.5752 22.1665 12C22.1665 17.5202 17.6867 22 12.1665 22C6.64629 22 2.1665 17.5202 2.1665 12C2.1665 6.47978 6.64629 2 12.1665 2C12.5913 2 12.9357 2.3444 12.9357 2.76923C12.9357 3.19407 12.5913 3.53847 12.1665 3.53847Z" fill="currentColor"/>
<path fill-rule="evenodd" clip-rule="evenodd" d="M9.24368 10.0639C9.42351 9.44357 9.97539 8.97501 10.6489 8.97501H13.9318C14.5731 8.97501 15.1089 9.40165 15.3117 9.98455L15.3162 9.99765L16.2676 13.1812C16.5816 14.1142 15.9618 15.225 14.8826 15.225H9.84398C8.80082 15.225 8.17646 14.1777 8.43546 13.2574L9.24069 10.0742L9.24368 10.0639ZM10.4466 10.4041L9.64236 13.5834L9.63937 13.5938C9.60829 13.701 9.63086 13.8039 9.68091 13.8773C9.73013 13.9494 9.79036 13.975 9.84398 13.975H14.8826C14.9381 13.975 15.0004 13.948 15.05 13.8708C15.1005 13.7923 15.1194 13.6848 15.0819 13.5771L15.0774 13.564L14.1275 10.3854C14.0821 10.2662 13.9919 10.225 13.9318 10.225H10.6489C10.5859 10.225 10.4883 10.2714 10.4466 10.4041Z" fill="currentColor"/>
</svg>
