<svg width="232" height="120" viewBox="0 0 232 120" fill="none" xmlns="http://www.w3.org/2000/svg">
<g clip-path="url(#clip0_933_2400)">
<mask id="mask0_933_2400" style="mask-type:luminance" maskUnits="userSpaceOnUse" x="11" y="-132" width="258" height="205">
<path d="M66.6088 -130.932L66.7969 -131.171C76.4528 -128.13 86.3845 -124.541 96.2843 -120.623C105.324 -117.046 114.338 -113.194 123.091 -109.235L124.86 -107.841C115.565 -112.078 105.952 -116.207 96.3089 -120.023C86.3551 -123.962 76.3666 -127.569 66.6595 -130.618L66.6088 -130.932ZM62.6055 -125.85L62.7946 -126.09C76.5393 -121.845 90.915 -116.526 104.947 -110.735C118.227 -105.254 131.194 -99.3505 143.025 -93.5318L145.043 -91.9421C132.676 -98.0842 118.989 -104.351 104.956 -110.143C90.8851 -115.95 76.4577 -121.283 62.6598 -125.535L62.6055 -125.85ZM28.479 -82.5304L28.6863 -82.7937C32.4708 -82.0101 36.3412 -81.1579 40.26 -80.2338C59.8527 -75.6167 80.1745 -69.3213 96.529 -61.1622C112.994 -52.948 125.46 -42.8411 129.198 -30.6437C129.28 -30.3727 129.365 -30.0801 129.449 -29.768L129.451 -29.7644C135.019 -8.15885 141.662 8.32308 151.6 19.6228C161.479 30.8563 174.678 36.9841 193.412 37.9603C199.66 38.286 206.553 38.2421 213.616 38.198C233.929 38.0701 255.65 37.9336 268.016 46.5715L267.89 46.7965L267.731 46.9983C255.678 38.6066 234.129 38.7418 213.974 38.8683C206.908 38.913 200.011 38.9564 193.733 38.6293C174.682 37.6372 161.219 31.3595 151.095 19.847C141.027 8.39989 134.319 -8.20818 128.718 -29.9435C128.647 -30.2075 128.564 -30.493 128.472 -30.7938C124.835 -42.6634 112.613 -52.5442 96.4572 -60.6042C80.191 -68.7194 59.9543 -74.9864 40.4338 -79.5869C36.4606 -80.5231 32.4932 -81.3951 28.5782 -82.2025L28.4787 -82.5291L28.479 -82.5304ZM24.9983 -78.1122L25.2084 -78.3788C32.3703 -76.9978 39.7553 -75.3811 47.1052 -73.5033C64.0232 -69.1808 80.7566 -63.4772 94.1621 -56.0933C107.659 -48.6591 117.797 -39.5237 121.404 -28.3831C121.627 -27.6934 121.826 -26.9944 121.998 -26.2886L121.999 -26.2865C127.438 -3.14097 134.577 13.7138 145.221 25.0113C155.815 36.2561 169.947 42.0182 189.417 43.0324C195.664 43.3581 202.557 43.3143 209.62 43.2701C229.934 43.1422 251.654 43.0057 264.02 51.6436L263.895 51.8686L263.736 52.0704C251.682 43.6788 230.133 43.8139 209.978 43.9404C202.912 43.9852 196.016 44.0285 189.738 43.7014C169.976 42.6718 155.59 36.7792 144.748 25.2714C133.955 13.8156 126.737 -3.18255 121.264 -26.478C121.096 -27.166 120.902 -27.848 120.684 -28.5218C117.174 -39.363 107.257 -48.2816 94.0423 -55.56C80.736 -62.889 64.0966 -68.5582 47.2612 -72.8598C39.8241 -74.7601 32.3475 -76.3926 25.1037 -77.7835L24.9989 -78.1107L24.9983 -78.1122ZM21.6003 -73.7988L21.8138 -74.0697C30.9627 -72.4318 40.4541 -70.3903 49.7259 -67.8631C64.4605 -63.8473 78.6391 -58.6047 90.0128 -51.8053C101.462 -44.9603 110.079 -36.5431 113.592 -26.2205C113.97 -25.1095 114.289 -23.9726 114.546 -22.8122L114.547 -22.81C119.856 1.87547 127.492 19.1049 138.841 30.4004C150.151 41.6559 165.217 47.0509 185.421 48.1032C191.669 48.4286 198.563 48.3856 205.626 48.3411C225.939 48.2135 247.659 48.0768 260.024 56.7147L259.899 56.9397L259.74 57.1415C247.686 48.7499 226.139 48.8849 205.985 49.0119C198.918 49.0562 192.02 49.0993 185.742 48.7722C165.269 47.7056 149.959 42.1962 138.4 30.6923C126.881 19.2289 119.154 1.84154 113.808 -23.0144C113.558 -24.1444 113.245 -25.2554 112.874 -26.3464C109.454 -36.3966 101.038 -44.6078 89.8469 -51.2979C78.5809 -58.0326 64.507 -63.2338 49.8664 -67.2238C40.5216 -69.7709 30.9415 -71.8244 21.7124 -73.4688L21.6003 -73.7988ZM18.2885 -69.5948L18.5041 -69.8685C28.7202 -68.1707 39.3194 -65.94 49.4868 -63.0183C62.505 -59.2768 74.8273 -54.3997 84.7587 -48.0526C94.7514 -41.6664 102.325 -33.7995 105.769 -24.1186C106.32 -22.5696 106.765 -20.9738 107.095 -19.3343C112.275 6.89087 120.406 24.4954 132.463 35.791C144.487 47.0561 160.487 52.0841 181.426 53.175C187.673 53.5004 194.567 53.4574 201.63 53.413C221.944 53.2853 243.663 53.1486 256.029 61.7859L255.904 62.0109L255.745 62.2127C243.691 53.8214 222.143 53.9563 201.989 54.0829C194.923 54.1272 188.025 54.1705 181.747 53.8434C160.561 52.7397 144.328 47.6129 132.053 36.1123C119.81 24.6425 111.574 6.86771 106.356 -19.5483C106.031 -21.159 105.595 -22.7222 105.056 -24.237C101.703 -33.6658 94.3132 -41.3353 84.5589 -47.5694C74.744 -53.8423 62.5315 -58.6725 49.6138 -62.3845C39.3722 -65.328 28.6897 -67.5677 18.4058 -69.2661L18.2885 -69.5948ZM15.066 -65.5043L15.2851 -65.7824C25.9313 -64.1356 36.941 -61.8628 47.3592 -58.733C59.0284 -55.2277 69.9616 -50.645 78.8276 -44.6589C87.7431 -38.6393 94.5652 -31.21 97.9484 -22.0463C98.6793 -20.0661 99.2499 -18.0036 99.6439 -15.8588L99.6447 -15.8566C104.695 11.91 113.323 29.8895 126.085 41.1837C138.824 52.4584 155.76 57.1179 177.431 58.247C183.679 58.5723 190.572 58.5296 197.636 58.4849C217.949 58.3573 239.668 58.2205 252.034 66.8578L251.909 67.0828L251.75 67.2847C239.696 58.8933 218.148 59.0282 197.994 59.1549C190.928 59.1992 184.03 59.2424 177.752 58.9157C155.853 57.7748 138.697 53.0295 125.706 41.5325C112.737 30.0554 103.99 11.8924 98.9012 -16.0826C98.5141 -18.1884 97.9543 -20.2126 97.2371 -22.1549C93.941 -31.0827 87.289 -38.3238 78.5949 -44.1946C69.8497 -50.099 59.0338 -54.629 47.4755 -58.1008C36.9945 -61.2494 25.903 -63.5278 15.1876 -65.1734L15.066 -65.5043ZM12.0557 -61.1924C29.816 -58.6378 48.4243 -54.1812 63.2229 -46.4926C77.9199 -38.857 88.8638 -28.0051 91.4477 -12.6149C96.4073 16.9187 105.664 35.4677 119.356 46.95C133.063 58.4443 151.141 62.8087 173.756 63.9866C180.034 64.3134 186.931 64.2705 193.998 64.2259C214.152 64.0989 235.7 63.9643 247.754 72.3557L247.913 72.1538L248.038 71.9288C235.672 63.2912 213.953 63.428 193.639 63.5559C186.576 63.6003 179.683 63.6437 173.434 63.318C151.032 62.151 133.162 57.8602 119.706 46.5768C106.237 35.2816 97.1126 16.9256 92.1909 -12.3832C89.5473 -28.1254 78.3516 -39.2264 63.3151 -47.0385C48.4785 -54.747 29.9 -59.2274 12.1503 -61.8042L11.9293 -61.5236L12.0557 -61.1924Z" fill="white"/>
</mask>
<g mask="url(#mask0_933_2400)">
<path opacity="0.5" d="M-2.8449e-05 -46.3795L77.6915 -145L288.287 20.9039L210.596 119.524L-2.8449e-05 -46.3795Z" fill="#BCBFD6"/>
</g>
</g>
<defs>
<clipPath id="clip0_933_2400">
<rect width="125.547" height="268.095" fill="white" transform="matrix(-0.618826 0.785528 0.785528 0.618826 77.6915 -145)"/>
</clipPath>
</defs>
</svg>
