<svg width="25" height="24" viewBox="0 0 25 24" fill="none" xmlns="http://www.w3.org/2000/svg">
<path fill-rule="evenodd" clip-rule="evenodd" d="M8.25 6.25C7.83579 6.25 7.5 6.58579 7.5 7C7.5 7.41421 7.83579 7.75 8.25 7.75H16.25C16.6642 7.75 17 7.41421 17 7C17 6.58579 16.6642 6.25 16.25 6.25H8.25ZM9.25 10.25C8.83579 10.25 8.5 10.5858 8.5 11C8.5 11.4142 8.83579 11.75 9.25 11.75H15.25C15.6642 11.75 16 11.4142 16 11C16 10.5858 15.6642 10.25 15.25 10.25H9.25Z" fill="color2"/>
<path fill-rule="evenodd" clip-rule="evenodd" d="M14.5807 19.8478C15.2588 18.8879 16.4359 18.8179 17.2082 19.6978C18.8844 21.5976 20.2499 20.9676 20.2499 18.308V7.03937C20.2593 3.00987 19.3741 2 15.8144 2H8.69495C5.13522 2 4.25 3.00987 4.25 7.03937V18.298C4.25 20.9676 5.62492 21.5876 7.29178 19.6978C8.06399 18.8179 9.24115 18.8879 9.91919 19.8478L10.8703 21.1976C11.6331 22.2675 12.8668 22.2675 13.6296 21.1976L14.5807 19.8478ZM12.4064 20.3294L12.4082 20.3268L13.3556 18.9823C13.9267 18.1738 14.7894 17.6422 15.7725 17.5854C16.7574 17.5284 17.677 17.9589 18.3341 18.7067C18.4703 18.8609 18.59 18.978 18.6914 19.066C18.7253 18.8786 18.7499 18.629 18.7499 18.308V7.03586C18.7547 4.98956 18.4945 4.28382 18.2443 3.99929C18.0547 3.78378 17.5771 3.5 15.8144 3.5H8.69495C6.93287 3.5 6.45402 3.78351 6.26302 4.00028C6.01109 4.28619 5.75 4.99321 5.75 7.03937V18.298C5.75 18.6236 5.77534 18.8758 5.80997 19.0643C5.91113 18.9767 6.0283 18.8626 6.16438 18.7084C6.82162 17.9595 7.74182 17.5284 8.72738 17.5854C9.71057 17.6422 10.5732 18.1738 11.1444 18.9823L11.1454 18.9838L12.0917 20.3268L12.0935 20.3294C12.1646 20.4285 12.2222 20.4732 12.25 20.4909C12.2778 20.4732 12.3353 20.4285 12.4064 20.3294Z" fill="currentColor"/>
</svg>
