
<svg width="155" height="96" viewBox="0 0 155 96" fill="none" xmlns="http://www.w3.org/2000/svg">
<g clip-path="url(#clip0_3_58)">
<path d="M165.577 68.0097L114.664 32.5228C114.136 32.1216 113.529 31.8344 112.884 31.6795C112.238 31.5245 111.568 31.5051 110.915 31.6226L86.6971 35.9002L136.405 75.6513L165.577 68.0097Z" fill="#FFF0AB"/>
<path d="M165.577 68.0097L114.664 32.5228C114.136 32.1216 113.529 31.8344 112.884 31.6795C112.238 31.5245 111.568 31.5051 110.915 31.6226L86.6971 35.9002L136.405 75.6513L165.577 68.0097Z" fill="url(#paint0_linear_3_58)"/>
<path d="M165.577 68.0097L114.664 32.5228C114.136 32.1216 113.529 31.8344 112.884 31.6795C112.238 31.5245 111.568 31.5051 110.915 31.6226L86.6971 35.9002L136.405 75.6513L165.577 68.0097Z" fill="url(#paint1_linear_3_58)"/>
<path d="M133.542 71.6647L89.4114 36.2116C88.8158 35.6972 87.2184 35.616 86.3385 36.0356C86.1561 36.3226 85.9476 36.5922 85.7159 36.8411L83.3469 47.5893C83.1282 48.3596 83.1222 49.1748 83.3296 49.9482C83.5369 50.7216 83.9499 51.4245 84.5246 51.9821L130.015 97.3847C130.875 98.2172 132.621 100.694 135.586 99.9567L136.736 97.0734C136.784 97.0734 137.995 96.2612 138.043 96.2408L136.195 99.7334L167.181 89.6484C168.154 89.2598 168.944 88.5159 169.39 87.5672C169.836 86.6186 169.905 85.5359 169.584 84.5382L166.457 70.6223C166.33 69.8899 166.165 69.1647 165.962 68.4497C165.671 68.0502 165.269 67.7458 164.805 67.5747C164.341 67.4037 163.837 67.3737 163.357 67.4885L163.208 67.5291L138.246 73.262C137.623 73.4056 136.977 73.4109 136.353 73.2775C135.728 73.1442 135.141 72.8755 134.631 72.4904L133.542 71.6647Z" fill="#C2A155"/>
<path d="M133.542 71.6647L89.4114 36.2116C88.8158 35.6972 87.2184 35.616 86.3385 36.0356C86.1561 36.3226 85.9476 36.5922 85.7159 36.8411L83.3469 47.5893C83.1282 48.3596 83.1222 49.1748 83.3296 49.9482C83.5369 50.7216 83.9499 51.4245 84.5246 51.9821L130.015 97.3847C130.875 98.2172 132.621 100.694 135.586 99.9567L136.736 97.0734C136.784 97.0734 137.995 96.2612 138.043 96.2408L136.195 99.7334L167.181 89.6484C168.154 89.2598 168.944 88.5159 169.39 87.5672C169.836 86.6186 169.905 85.5359 169.584 84.5382L166.457 70.6223C166.33 69.8899 166.165 69.1647 165.962 68.4497C165.671 68.0502 165.269 67.7458 164.805 67.5747C164.341 67.4037 163.837 67.3737 163.357 67.4885L163.208 67.5291L138.246 73.262C137.623 73.4056 136.977 73.4109 136.353 73.2775C135.728 73.1442 135.141 72.8755 134.631 72.4904L133.542 71.6647Z" fill="#FFEC99"/>
<path d="M133.542 71.6647L89.4114 36.2116C88.8158 35.6972 87.2184 35.616 86.3385 36.0356C86.1561 36.3226 85.9476 36.5922 85.7159 36.8411L83.3469 47.5893C83.1282 48.3596 83.1222 49.1748 83.3296 49.9482C83.5369 50.7216 83.9499 51.4245 84.5246 51.9821L130.015 97.3847C130.875 98.2172 132.621 100.694 135.586 99.9567L136.736 97.0734C136.784 97.0734 137.995 96.2612 138.043 96.2408L136.195 99.7334L167.181 89.6484C168.154 89.2598 168.944 88.5159 169.39 87.5672C169.836 86.6186 169.905 85.5359 169.584 84.5382L166.457 70.6223C166.33 69.8899 166.165 69.1647 165.962 68.4497C165.671 68.0502 165.269 67.7458 164.805 67.5747C164.341 67.4037 163.837 67.3737 163.357 67.4885L163.208 67.5291L138.246 73.262C137.623 73.4056 136.977 73.4109 136.353 73.2775C135.728 73.1442 135.141 72.8755 134.631 72.4904L133.542 71.6647Z" fill="url(#paint2_linear_3_58)"/>
<path d="M137.677 99.3273C139.234 98.3662 158.476 90.217 159.18 80.0305C159.857 70.5547 144.825 73.4448 141.948 74.081L141.481 74.1893L137.528 75.0083C136.934 75.198 136.406 75.5536 136.006 76.0332C135.607 76.5129 135.353 77.0966 135.274 77.7157L133.386 97.5743C133.323 97.9064 133.344 98.249 133.447 98.571C133.55 98.893 133.732 99.1842 133.976 99.4182C134.22 99.6521 134.518 99.8214 134.844 99.9108C135.17 100 135.514 100.007 135.843 99.9297C136.007 99.9012 136.168 99.8559 136.323 99.7943L137.616 99.3882L137.677 99.3273Z" fill="#FFC709"/>
<path d="M137.677 99.3273C139.234 98.3662 158.476 90.217 159.18 80.0305C159.857 70.5547 144.825 73.4448 141.948 74.081L141.481 74.1893L137.528 75.0083C136.934 75.198 136.406 75.5536 136.006 76.0332C135.607 76.5129 135.353 77.0966 135.274 77.7157L133.386 97.5743C133.323 97.9064 133.344 98.249 133.447 98.571C133.55 98.893 133.732 99.1842 133.976 99.4182C134.22 99.6521 134.518 99.8214 134.844 99.9108C135.17 100 135.514 100.007 135.843 99.9297C136.007 99.9012 136.168 99.8559 136.323 99.7943L137.616 99.3882L137.677 99.3273Z" fill="url(#paint3_linear_3_58)"/>
<path d="M170.876 85.831C170.876 85.831 166.815 70.0267 166.091 68.7204C165.59 67.8472 164.439 68.2127 163.553 68.4902L141.968 74.081C144.845 73.4447 159.85 70.5885 159.201 80.0304C158.524 90.1831 139.254 98.3661 137.697 99.3272L137.636 99.3679L168.487 90.156C170.49 89.3709 171.519 87.9021 170.876 85.831Z" fill="#FFC709"/>
<path d="M170.876 85.831C170.876 85.831 166.815 70.0267 166.091 68.7204C165.59 67.8472 164.439 68.2127 163.553 68.4902L141.968 74.081C144.845 73.4447 159.85 70.5885 159.201 80.0304C158.524 90.1831 139.254 98.3661 137.697 99.3272L137.636 99.3679L168.487 90.156C170.49 89.3709 171.519 87.9021 170.876 85.831Z" fill="url(#paint4_linear_3_58)"/>
<path d="M125.399 80.2335L74.4598 42.2558C73.931 41.8546 73.3248 41.5674 72.6793 41.4125C72.0339 41.2575 71.3634 41.2381 70.7101 41.3556L46.5129 45.6332L96.2271 87.8683L125.399 80.2335Z" fill="#FFF0AC"/>
<path d="M125.399 80.2335L74.4598 42.2558C73.931 41.8546 73.3248 41.5674 72.6793 41.4125C72.0339 41.2575 71.3634 41.2381 70.7101 41.3556L46.5129 45.6332L96.2271 87.8683L125.399 80.2335Z" fill="url(#paint5_linear_3_58)"/>
<path d="M125.399 80.2335L74.4598 42.2558C73.931 41.8546 73.3248 41.5674 72.6793 41.4125C72.0339 41.2575 71.3634 41.2381 70.7101 41.3556L46.5129 45.6332L96.2271 87.8683L125.399 80.2335Z" fill="url(#paint6_linear_3_58)"/>
<path d="M93.3641 83.8816L49.2339 45.9784C48.6383 45.464 47.0409 45.3828 46.1611 45.8024C45.9786 46.0894 45.7701 46.359 45.5384 46.6079L43.1694 59.8063C42.95 60.5766 42.9436 61.3919 43.151 62.1655C43.3584 62.939 43.7718 63.6419 44.3471 64.199L89.8378 109.608C90.6974 110.441 92.4436 112.918 95.4082 112.18L96.5588 109.29C96.6062 109.29 97.8178 108.485 97.8651 108.465L96.0173 111.957L126.996 101.872C127.971 101.485 128.763 100.741 129.21 99.7927C129.657 98.8439 129.727 97.7605 129.406 96.762L126.279 82.8393C126.152 82.1093 125.987 81.3864 125.785 80.6734C125.496 80.2712 125.094 79.9646 124.629 79.7933C124.165 79.622 123.66 79.5938 123.179 79.7123L123.03 79.7529L98.0614 85.4858C97.4403 85.6287 96.7953 85.6337 96.172 85.5004C95.5487 85.3671 94.9622 85.0987 94.4538 84.7142L93.3641 83.8816Z" fill="#FFEC99"/>
<path d="M93.3641 83.8816L49.2339 45.9784C48.6383 45.464 47.0409 45.3828 46.1611 45.8024C45.9786 46.0894 45.7701 46.359 45.5384 46.6079L43.1694 59.8063C42.95 60.5766 42.9436 61.3919 43.151 62.1655C43.3584 62.939 43.7718 63.6419 44.3471 64.199L89.8378 109.608C90.6974 110.441 92.4436 112.918 95.4082 112.18L96.5588 109.29C96.6062 109.29 97.8178 108.485 97.8651 108.465L96.0173 111.957L126.996 101.872C127.971 101.485 128.763 100.741 129.21 99.7927C129.657 98.8439 129.727 97.7605 129.406 96.762L126.279 82.8393C126.152 82.1093 125.987 81.3864 125.785 80.6734C125.496 80.2712 125.094 79.9646 124.629 79.7933C124.165 79.622 123.66 79.5938 123.179 79.7123L123.03 79.7529L98.0614 85.4858C97.4403 85.6287 96.7953 85.6337 96.172 85.5004C95.5487 85.3671 94.9622 85.0987 94.4538 84.7142L93.3641 83.8816Z" fill="url(#paint7_linear_3_58)"/>
<path d="M93.3641 83.8816L49.2339 45.9784C48.6383 45.464 47.0409 45.3828 46.1611 45.8024C45.9786 46.0894 45.7701 46.359 45.5384 46.6079L43.1694 59.8063C42.95 60.5766 42.9436 61.3919 43.151 62.1655C43.3584 62.939 43.7718 63.6419 44.3471 64.199L89.8378 109.608C90.6974 110.441 92.4436 112.918 95.4082 112.18L96.5588 109.29C96.6062 109.29 97.8178 108.485 97.8651 108.465L96.0173 111.957L126.996 101.872C127.971 101.485 128.763 100.741 129.21 99.7927C129.657 98.8439 129.727 97.7605 129.406 96.762L126.279 82.8393C126.152 82.1093 125.987 81.3864 125.785 80.6734C125.496 80.2712 125.094 79.9646 124.629 79.7933C124.165 79.622 123.66 79.5938 123.179 79.7123L123.03 79.7529L98.0614 85.4858C97.4403 85.6287 96.7953 85.6337 96.172 85.5004C95.5487 85.3671 94.9622 85.0987 94.4538 84.7142L93.3641 83.8816Z" fill="url(#paint8_linear_3_58)"/>
<path d="M97.5198 111.551C99.0765 110.59 118.319 102.441 119.023 92.2544C119.7 82.7786 104.667 85.6687 101.791 86.3049L101.324 86.4132L97.3709 87.2322C96.7763 87.4219 96.2484 87.7775 95.8491 88.2571C95.4498 88.7368 95.1958 89.3205 95.117 89.9396L93.2083 109.798C93.1454 110.13 93.1663 110.473 93.2693 110.795C93.3723 111.117 93.5541 111.408 93.7981 111.642C94.0422 111.876 94.3408 112.045 94.6668 112.135C94.9929 112.224 95.336 112.23 95.6652 112.154C95.8277 112.126 95.9866 112.081 96.139 112.018L97.4386 111.605L97.5198 111.551Z" fill="#FFC709"/>
<path d="M97.5198 111.551C99.0765 110.59 118.319 102.441 119.023 92.2544C119.7 82.7786 104.667 85.6687 101.791 86.3049L101.324 86.4132L97.3709 87.2322C96.7763 87.4219 96.2484 87.7775 95.8491 88.2571C95.4498 88.7368 95.1958 89.3205 95.117 89.9396L93.2083 109.798C93.1454 110.13 93.1663 110.473 93.2693 110.795C93.3723 111.117 93.5541 111.408 93.7981 111.642C94.0422 111.876 94.3408 112.045 94.6668 112.135C94.9929 112.224 95.336 112.23 95.6652 112.154C95.8277 112.126 95.9866 112.081 96.139 112.018L97.4386 111.605L97.5198 111.551Z" fill="url(#paint9_linear_3_58)"/>
<path d="M130.699 98.0482C130.699 98.0482 126.638 82.2506 125.907 80.9443C125.413 80.0712 124.262 80.4299 123.375 80.7142L101.804 86.3049C104.681 85.6687 119.68 82.8056 119.037 92.2544C118.36 102.407 99.0901 110.59 97.5334 111.551L97.4724 111.592L128.323 102.38C130.313 101.595 131.369 100.126 130.699 98.0482Z" fill="#FFC709"/>
<path d="M130.699 98.0482C130.699 98.0482 126.638 82.2506 125.907 80.9443C125.413 80.0712 124.262 80.4299 123.375 80.7142L101.804 86.3049C104.681 85.6687 119.68 82.8056 119.037 92.2544C118.36 102.407 99.0901 110.59 97.5334 111.551L97.4724 111.592L128.323 102.38C130.313 101.595 131.369 100.126 130.699 98.0482Z" fill="url(#paint10_linear_3_58)"/>
<path d="M205 9.1763C177.333 5.67629 138.816 55.3891 96 60.6106C34.5 68.1106 61.4998 103.176 2 111.611" stroke="url(#paint11_linear_3_58)" stroke-width="20" stroke-linejoin="round"/>
<path d="M101.324 86.4132L101.791 86.3049C101.493 86.3658 101.324 86.4132 101.324 86.4132Z" fill="url(#paint12_linear_3_58)"/>
<g filter="url(#filter0_d_3_58)">
<path d="M139.717 47.5995L96.7202 13.1159C96.2177 12.681 95.6312 12.3542 94.997 12.1557C94.3628 11.9571 93.6946 11.8911 93.0338 11.9618L68.6077 14.5876L110.065 53.2334L139.717 47.5995Z" fill="url(#paint13_linear_3_58)"/>
<path d="M107.494 49.0619L71.3015 15.0769C70.7423 14.5231 69.1547 14.3265 68.2405 14.6982C68.0394 14.9702 67.8131 15.2228 67.5648 15.4526L64.2992 28.4994C64.0314 29.2529 63.972 30.0647 64.1274 30.8491C64.2828 31.6336 64.6472 32.3614 65.182 32.9559L102.223 74.4818C103.024 75.371 104.597 77.9614 107.612 77.4279L108.95 74.6292C108.997 74.6324 110.261 73.9047 110.31 73.8877L108.228 77.2461L139.829 69.2963C140.828 68.9763 141.668 68.2882 142.177 67.3718C142.687 66.4553 142.829 65.3791 142.575 64.3618L140.403 50.2651C140.326 49.5259 140.211 48.7912 140.058 48.0638C139.795 47.6455 139.414 47.3143 138.963 47.1121C138.512 46.9098 138.012 46.8456 137.524 46.9273L137.373 46.9577L112.078 50.9761C111.448 51.0764 110.803 51.0375 110.189 50.8619C109.575 50.6864 109.007 50.3785 108.525 49.96L107.494 49.0619Z" fill="#FFEC99"/>
<path d="M107.494 49.0619L71.3015 15.0769C70.7423 14.5231 69.1547 14.3265 68.2405 14.6982C68.0394 14.9702 67.8131 15.2228 67.5648 15.4526L64.2992 28.4994C64.0314 29.2529 63.972 30.0647 64.1274 30.8491C64.2828 31.6336 64.6472 32.3614 65.182 32.9559L102.223 74.4818C103.024 75.371 104.597 77.9614 107.612 77.4279L108.95 74.6292C108.997 74.6324 110.261 73.9047 110.31 73.8877L108.228 77.2461L139.829 69.2963C140.828 68.9763 141.668 68.2882 142.177 67.3718C142.687 66.4553 142.829 65.3791 142.575 64.3618L140.403 50.2651C140.326 49.5259 140.211 48.7912 140.058 48.0638C139.795 47.6455 139.414 47.3143 138.963 47.1121C138.512 46.9098 138.012 46.8456 137.524 46.9273L137.373 46.9577L112.078 50.9761C111.448 51.0764 110.803 51.0375 110.189 50.8619C109.575 50.6864 109.007 50.3785 108.525 49.96L107.494 49.0619Z" fill="url(#paint14_linear_3_58)"/>
<path d="M109.754 76.9502C111.374 76.0906 131.127 69.2718 132.523 59.1569C133.844 49.7493 118.65 51.6082 115.743 52.0474L115.263 52.1231L111.264 52.6708C110.658 52.82 110.108 53.1391 109.679 53.5905C109.249 54.042 108.957 54.6069 108.837 55.2187L105.573 74.9006C105.487 75.2277 105.485 75.571 105.566 75.8992C105.647 76.2275 105.808 76.5304 106.036 76.7804C106.263 77.0305 106.55 77.2197 106.869 77.3311C107.188 77.4424 107.53 77.4723 107.864 77.418C108.03 77.4008 108.193 77.3665 108.352 77.3157L109.67 76.9986L109.754 76.9502Z" fill="#FFC709"/>
<path d="M109.754 76.9502C111.374 76.0906 131.127 69.2718 132.523 59.1569C133.844 49.7493 118.65 51.6082 115.743 52.0474L115.263 52.1231L111.264 52.6708C110.658 52.82 110.108 53.1391 109.679 53.5905C109.249 54.042 108.957 54.6069 108.837 55.2187L105.573 74.9006C105.487 75.2277 105.485 75.571 105.566 75.8992C105.647 76.2275 105.808 76.5304 106.036 76.7804C106.263 77.0305 106.55 77.2197 106.869 77.3311C107.188 77.4424 107.53 77.4723 107.864 77.418C108.03 77.4008 108.193 77.3665 108.352 77.3157L109.67 76.9986L109.754 76.9502Z" fill="url(#paint15_linear_3_58)"/>
<path d="M143.776 65.7396C143.776 65.7396 140.801 49.702 140.168 48.3427C139.728 47.4374 138.555 47.7237 137.652 47.9401L115.743 52.0474C118.65 51.6082 133.815 49.7812 132.523 59.1569C131.156 69.2398 111.374 76.0906 109.754 76.9502L109.694 76.9459L141.107 69.8584C143.15 69.245 144.304 67.8516 143.776 65.7396Z" fill="#FFC709"/>
<path d="M143.776 65.7396C143.776 65.7396 140.801 49.702 140.168 48.3427C139.728 47.4374 138.555 47.7237 137.652 47.9401L115.743 52.0474C118.65 51.6082 133.815 49.7812 132.523 59.1569C131.156 69.2398 111.374 76.0906 109.754 76.9502L109.694 76.9459L141.107 69.8584C143.15 69.245 144.304 67.8516 143.776 65.7396Z" fill="url(#paint16_linear_3_58)"/>
</g>
<g opacity="0.7">
<path d="M122.534 39.1938C122.684 38.6339 121.195 38.4601 120.323 38.4638C118.861 38.4589 117.537 38.6323 116.209 38.8887L118.505 41.8537C120.71 40.9798 122.211 39.9938 122.534 39.1938Z" fill="url(#paint17_linear_3_58)"/>
<path d="M107.814 43.4196L119.676 47.1534L122.531 39.1672C122.129 40.2209 119.625 41.6157 116.154 42.6056C112.749 43.5905 109.44 43.881 107.814 43.4196Z" fill="url(#paint18_linear_3_58)"/>
<path d="M106.853 42.2241C106.718 42.7799 108.193 42.9578 109.065 42.9541C110.527 42.959 111.851 42.7855 113.179 42.5292L110.892 39.5754C108.678 40.4381 107.163 41.4281 106.853 42.2241Z" fill="url(#paint19_linear_3_58)"/>
<path d="M121.552 37.9908L109.69 34.257L106.834 42.2431C107.236 41.1895 109.741 39.7946 113.211 38.8048C116.617 37.8198 119.934 37.5405 121.552 37.9908Z" fill="url(#paint20_linear_3_58)"/>
</g>
</g>
<defs>
<filter id="filter0_d_3_58" x="61.0428" y="11.9343" width="85.8608" height="72.5653" filterUnits="userSpaceOnUse" color-interpolation-filters="sRGB">
<feFlood flood-opacity="0" result="BackgroundImageFix"/>
<feColorMatrix in="SourceAlpha" type="matrix" values="0 0 0 0 0 0 0 0 0 0 0 0 0 0 0 0 0 0 127 0" result="hardAlpha"/>
<feOffset dy="4"/>
<feGaussianBlur stdDeviation="1.5"/>
<feComposite in2="hardAlpha" operator="out"/>
<feColorMatrix type="matrix" values="0 0 0 0 0.935417 0 0 0 0 0.613878 0 0 0 0 0.0645833 0 0 0 0.25 0"/>
<feBlend mode="normal" in2="BackgroundImageFix" result="effect1_dropShadow_3_58"/>
<feBlend mode="normal" in="SourceGraphic" in2="effect1_dropShadow_3_58" result="shape"/>
</filter>
<linearGradient id="paint0_linear_3_58" x1="138.902" y1="74.3556" x2="115.379" y2="34.4765" gradientUnits="userSpaceOnUse">
<stop stop-color="#FFE094"/>
<stop offset="0.15" stop-color="#FFEAA4"/>
<stop offset="1" stop-color="#FFF9B9"/>
</linearGradient>
<linearGradient id="paint1_linear_3_58" x1="138.902" y1="74.3556" x2="115.379" y2="34.4765" gradientUnits="userSpaceOnUse">
<stop stop-color="#FFDE6C"/>
<stop offset="0.15" stop-color="#FFDE6D"/>
<stop offset="0.9999" stop-color="#FFEAAF"/>
<stop offset="1" stop-color="#FFF9B9"/>
</linearGradient>
<linearGradient id="paint2_linear_3_58" x1="140.496" y1="98.2025" x2="102.434" y2="49.6263" gradientUnits="userSpaceOnUse">
<stop stop-color="#FFC709"/>
<stop offset="0.15" stop-color="#FFC709"/>
<stop offset="0.854167" stop-color="#FFFDF7"/>
<stop offset="1" stop-color="#FFF9B9"/>
</linearGradient>
<linearGradient id="paint3_linear_3_58" x1="150.46" y1="99.1952" x2="134.186" y2="84.3216" gradientUnits="userSpaceOnUse">
<stop stop-color="#FFC709"/>
<stop offset="0.15" stop-color="#FFC709"/>
<stop offset="1" stop-color="#FFEAAF"/>
</linearGradient>
<linearGradient id="paint4_linear_3_58" x1="159.762" y1="98.4514" x2="140.754" y2="79.1422" gradientUnits="userSpaceOnUse">
<stop stop-color="#FFC709"/>
<stop offset="0.15" stop-color="#FFC709"/>
<stop offset="1" stop-color="#FFEAAF"/>
</linearGradient>
<linearGradient id="paint5_linear_3_58" x1="98.7219" y1="86.4996" x2="73.2379" y2="45.5953" gradientUnits="userSpaceOnUse">
<stop stop-color="#FFE094"/>
<stop offset="0.15" stop-color="#FFEAA4"/>
<stop offset="1" stop-color="#FFF9B9"/>
</linearGradient>
<linearGradient id="paint6_linear_3_58" x1="98.7219" y1="86.4996" x2="55.7102" y2="43.8109" gradientUnits="userSpaceOnUse">
<stop stop-color="#FFC709"/>
<stop offset="0.25" stop-color="#FFC709"/>
<stop offset="1" stop-color="#FFF9B9"/>
</linearGradient>
<linearGradient id="paint7_linear_3_58" x1="100.317" y1="110.354" x2="27.7055" y2="77.9429" gradientUnits="userSpaceOnUse">
<stop stop-color="#FFC709"/>
<stop offset="0.463842" stop-color="#FFC709"/>
<stop offset="1" stop-color="#FFEAAF"/>
</linearGradient>
<linearGradient id="paint8_linear_3_58" x1="100.317" y1="110.354" x2="60.4728" y2="61.373" gradientUnits="userSpaceOnUse">
<stop stop-color="#FFC709"/>
<stop offset="0.0001" stop-color="#FFC709"/>
<stop offset="0.15" stop-color="#FFC709"/>
<stop offset="0.71875" stop-color="#FFEC8C"/>
</linearGradient>
<linearGradient id="paint9_linear_3_58" x1="119.596" y1="110.675" x2="100.586" y2="91.3677" gradientUnits="userSpaceOnUse">
<stop stop-color="#FFC709"/>
<stop offset="0.15" stop-color="#FFC709"/>
<stop offset="1" stop-color="#FFEAAF"/>
</linearGradient>
<linearGradient id="paint10_linear_3_58" x1="119.596" y1="110.675" x2="100.586" y2="91.3677" gradientUnits="userSpaceOnUse">
<stop stop-color="#FFC709"/>
<stop offset="0.15" stop-color="#FFC709"/>
<stop offset="1" stop-color="#FFEAAF"/>
</linearGradient>
<linearGradient id="paint11_linear_3_58" x1="175.999" y1="14.1753" x2="25.9996" y2="71.6754" gradientUnits="userSpaceOnUse">
<stop stop-color="#E43434"/>
<stop offset="0.340154" stop-color="#F28888"/>
<stop offset="0.636146" stop-color="#F07777"/>
<stop offset="0.848128" stop-color="#E43434"/>
</linearGradient>
<linearGradient id="paint12_linear_3_58" x1="121.723" y1="90.9957" x2="98.4335" y2="85.6356" gradientUnits="userSpaceOnUse">
<stop stop-color="#B1780A"/>
<stop offset="1" stop-color="#D9AD28"/>
</linearGradient>
<linearGradient id="paint13_linear_3_58" x1="114.582" y1="52.3615" x2="95.9627" y2="14.3735" gradientUnits="userSpaceOnUse">
<stop stop-color="#FFC709"/>
<stop offset="0.15" stop-color="#FFC709"/>
<stop offset="1" stop-color="#FFF9B9"/>
</linearGradient>
<linearGradient id="paint14_linear_3_58" x1="114.54" y1="76.261" x2="81.9999" y2="28.5141" gradientUnits="userSpaceOnUse">
<stop stop-color="#FFC709"/>
<stop offset="0.0001" stop-color="#FFC709"/>
<stop offset="0.15" stop-color="#FFC709"/>
<stop offset="0.71875" stop-color="#FFEC8C"/>
</linearGradient>
<linearGradient id="paint15_linear_3_58" x1="131.837" y1="77.5409" x2="114.21" y2="56.977" gradientUnits="userSpaceOnUse">
<stop stop-color="#FFC709"/>
<stop offset="0.15" stop-color="#FFC709"/>
<stop offset="1" stop-color="#FFEAAF"/>
</linearGradient>
<linearGradient id="paint16_linear_3_58" x1="131.837" y1="77.5409" x2="114.21" y2="56.977" gradientUnits="userSpaceOnUse">
<stop stop-color="#FFC709"/>
<stop offset="0.15" stop-color="#FFC709"/>
<stop offset="1" stop-color="#FFEAAF"/>
</linearGradient>
<linearGradient id="paint17_linear_3_58" x1="121.588" y1="40.1527" x2="116.437" y2="38.7238" gradientUnits="userSpaceOnUse">
<stop stop-color="white" stop-opacity="0.35"/>
<stop offset="1" stop-color="white"/>
</linearGradient>
<linearGradient id="paint18_linear_3_58" x1="109.819" y1="43.8639" x2="119.26" y2="36.5541" gradientUnits="userSpaceOnUse">
<stop stop-color="white" stop-opacity="0.35"/>
<stop offset="1" stop-color="white"/>
</linearGradient>
<linearGradient id="paint19_linear_3_58" x1="107.421" y1="41.3594" x2="113.39" y2="42.1368" gradientUnits="userSpaceOnUse">
<stop stop-color="white" stop-opacity="0.35"/>
<stop offset="1" stop-color="white"/>
</linearGradient>
<linearGradient id="paint20_linear_3_58" x1="119.28" y1="35.1062" x2="108.072" y2="43.7841" gradientUnits="userSpaceOnUse">
<stop stop-color="white" stop-opacity="0.35"/>
<stop offset="1" stop-color="white"/>
</linearGradient>
<clipPath id="clip0_3_58">
<rect width="155" height="96" fill="white"/>
</clipPath>
</defs>
</svg>
