<svg width="25" height="24" viewBox="0 0 25 24" fill="none" xmlns="http://www.w3.org/2000/svg">
<path fill-rule="evenodd" clip-rule="evenodd" d="M19.75 12C19.75 16.1456 16.3985 19.5 12.272 19.5C10.5082 19.5 9.76815 19.0121 7.6389 17.8663C7.58727 17.8385 7.52858 17.8234 7.46995 17.8234C6.66349 17.8234 6.26574 18.7379 6.91178 19.2206C8.40771 20.3384 10.2628 21 12.272 21C17.2304 21 21.25 16.9706 21.25 12C21.25 7.02944 17.2304 3 12.272 3C7.31355 3 3.29395 7.02944 3.29395 12C3.29395 12.9212 3.43201 13.8101 3.68853 14.647H5.27287C4.96335 13.8241 4.79395 12.932 4.79395 12C4.79395 7.85441 8.14543 4.5 12.272 4.5C16.3985 4.5 19.75 7.85441 19.75 12Z" fill="currentColor"/>
<path fill-rule="evenodd" clip-rule="evenodd" d="M7.72493 11.4195C8.04551 11.6818 8.09276 12.1543 7.83047 12.4749C7.30121 13.1218 5.57408 14.7865 4.93822 15.384C4.53988 15.7583 3.92611 15.7368 3.55041 15.3611L4.08074 14.8307L3.55041 15.3611L0.71967 12.5303C0.426777 12.2374 0.426777 11.7626 0.71967 11.4697C1.01256 11.1768 1.48744 11.1768 1.78033 11.4697L4.26539 13.9547C5.03706 13.2173 6.2841 11.9962 6.66953 11.5251C6.93183 11.2045 7.40434 11.1572 7.72493 11.4195Z" fill="currentColor"/>
<path fill-rule="evenodd" clip-rule="evenodd" d="M12.25 7.25C12.6642 7.25 13 7.58579 13 8V11.2974C13 11.52 13.0989 11.7311 13.2699 11.8736L15.7301 13.9238C16.0483 14.189 16.0913 14.6619 15.8262 14.9801C15.561 15.2983 15.0881 15.3413 14.7699 15.0762L11.7699 12.5762C11.5989 12.4337 11.5 12.2226 11.5 12V8C11.5 7.58579 11.8358 7.25 12.25 7.25Z" fill="currentColor"/>
</svg>
