<svg width="25" height="24" viewBox="0 0 25 24" fill="none" xmlns="http://www.w3.org/2000/svg">
<path d="M15.5 22.75H9.5C4.07 22.75 1.75 20.43 1.75 15V9C1.75 3.57 4.07 1.25 9.5 1.25H15.5C20.93 1.25 23.25 3.57 23.25 9V15C23.25 20.43 20.93 22.75 15.5 22.75ZM9.5 2.75C4.89 2.75 3.25 4.39 3.25 9V15C3.25 19.61 4.89 21.25 9.5 21.25H15.5C20.11 21.25 21.75 19.61 21.75 15V9C21.75 4.39 20.11 2.75 15.5 2.75H9.5Z" fill="currentColor"/>
<path d="M16.5 19.75H8.5C6.08 19.75 4.75 18.42 4.75 16V8C4.75 5.58 6.08 4.25 8.5 4.25H16.5C18.92 4.25 20.25 5.58 20.25 8V16C20.25 18.42 18.92 19.75 16.5 19.75ZM8.5 5.75C6.92 5.75 6.25 6.42 6.25 8V16C6.25 17.58 6.92 18.25 8.5 18.25H16.5C18.08 18.25 18.75 17.58 18.75 16V8C18.75 6.42 18.08 5.75 16.5 5.75H8.5Z" fill="currentColor"/>
<path d="M7.98 15.25H5.5C5.09 15.25 4.75 14.91 4.75 14.5C4.75 14.09 5.09 13.75 5.5 13.75H7.98C8.95 13.75 9.73 12.96 9.73 12C9.73 11.04 8.94 10.25 7.98 10.25H5.5C5.09 10.25 4.75 9.91 4.75 9.5C4.75 9.09 5.09 8.75 5.5 8.75H7.98C9.77 8.75 11.23 10.21 11.23 12C11.23 13.79 9.78 15.25 7.98 15.25Z" fill="currentColor"/>
<path d="M19.5 10.74H16.5C16.09 10.74 15.75 10.4 15.75 9.98999C15.75 9.57999 16.09 9.23999 16.5 9.23999H19.5C19.91 9.23999 20.25 9.57999 20.25 9.98999C20.25 10.4 19.91 10.74 19.5 10.74Z" fill="currentColor"/>
<path d="M19.5 14.75H16.5C16.09 14.75 15.75 14.41 15.75 14C15.75 13.59 16.09 13.25 16.5 13.25H19.5C19.91 13.25 20.25 13.59 20.25 14C20.25 14.41 19.91 14.75 19.5 14.75Z" fill="currentColor"/>
<path d="M7.75 13C7.62 13 7.49 12.97 7.37 12.92C7.25 12.87 7.13999 12.8 7.03999 12.71C6.84999 12.52 6.75 12.27 6.75 12C6.75 11.74 6.85999 11.48 7.03999 11.29C7.31999 11.02 7.76 10.92 8.13 11.08C8.26 11.13 8.37001 11.2 8.46001 11.29C8.64001 11.48 8.75 11.74 8.75 12C8.75 12.27 8.65001 12.52 8.46001 12.71C8.36001 12.8 8.25 12.87 8.13 12.92C8.01 12.97 7.88 13 7.75 13Z" fill="currentColor"/>
</svg>
