<svg width="132" height="124" viewBox="0 0 132 124" fill="none" xmlns="http://www.w3.org/2000/svg">
<path d="M119.253 73.1766H11.9228C10.455 73.1766 9.2627 71.9764 9.2627 70.4988V18.2079C9.2627 16.7303 10.455 15.5301 11.9228 15.5301H119.253C120.72 15.5301 121.913 16.7303 121.913 18.2079V70.4988C121.913 71.9764 120.72 73.1766 119.253 73.1766Z" fill="url(#paint0_linear_1008_12961)"/>
<path d="M117.209 19.4989H117.965V74.7349H115.019C110.811 69.0262 107.6 62.4502 106.729 54.5982C105.025 41.0578 108.758 27.9762 117.209 19.4989Z" fill="url(#paint1_linear_1008_12961)"/>
<path d="M117.968 69.2079L117.968 19.499L13.2031 19.499L13.2031 69.2079L117.968 69.2079Z" fill="url(#paint2_linear_1008_12961)"/>
<path d="M13.9616 19.4989H13.2052V74.7349H16.1508C20.3589 69.0262 23.57 62.4502 24.4416 54.5982C26.1449 41.0578 22.4178 27.9762 13.9616 19.4989Z" fill="url(#paint3_linear_1008_12961)"/>
<path d="M0 24.8596L18.4069 68.9859H113.215L131.874 24.8596H0Z" fill="url(#paint4_linear_1008_12961)"/>
<g filter="url(#filter0_d_1008_12961)">
<g filter="url(#filter1_d_1008_12961)">
<path d="M113.2 71.7778C113.2 76.0658 109.295 79.5762 104.524 79.5762H27.0835C22.3125 79.5762 18.4069 76.0658 18.4069 71.7778V19.7968C18.4069 15.5087 22.3125 12 27.0835 12H104.525C109.296 12 113.201 15.5087 113.201 19.7968V71.7778H113.2Z" fill="url(#paint5_linear_1008_12961)"/>
</g>
</g>
<path fill-rule="evenodd" clip-rule="evenodd" d="M123.866 76.4344H7.30896V83.0155H7.30897V89.5916V96.1727V102.749V102.754V109.33V115.906C7.30897 115.908 7.30897 115.909 7.30897 115.911C7.31166 119.545 10.2362 122.487 13.8464 122.487H117.329C120.939 122.487 123.864 119.545 123.866 115.911C123.866 115.909 123.866 115.908 123.866 115.906V109.33V102.754V102.749V96.1727V89.5916L123.866 83.0155L123.866 83.0105L123.866 76.4344Z" fill="url(#paint6_linear_1008_12961)"/>
<path d="M57.8754 85.5925V122.558C57.8754 123.349 58.3964 123.995 59.0427 123.995H72.1326C72.7789 123.995 73.2999 123.349 73.2999 122.558V86.1422C68.3604 83.8527 62.8499 83.656 57.8754 85.5925Z" fill="url(#paint7_linear_1008_12961)"/>
<path d="M13.4506 110.656V114.469C13.4506 115.286 14.1069 115.946 14.9184 115.946H18.7057C19.5172 115.946 20.1735 116.607 20.1735 117.424V122.522C20.1735 123.339 19.5172 124 18.7057 124H13.4506H6.91818C6.10663 124 5.45038 123.339 5.45038 122.522V115.946V110.661C5.45038 109.844 6.10663 109.184 6.91818 109.184H11.9828C12.7944 109.179 13.4506 109.839 13.4506 110.656Z" fill="url(#paint8_linear_1008_12961)"/>
<path d="M117.184 110.783V114.547C117.184 115.353 116.527 116.005 115.716 116.005H111.929C111.117 116.005 110.461 116.657 110.461 117.464V122.496C110.461 123.302 111.117 123.955 111.929 123.955H117.184H123.716C124.528 123.955 125.184 123.302 125.184 122.496V116.005V110.788C125.184 109.982 124.528 109.33 123.716 109.33H118.651C117.84 109.325 117.184 109.977 117.184 110.783Z" fill="url(#paint9_linear_1008_12961)"/>
<path d="M69.3023 85.3605C69.3023 83.1517 67.4036 81.669 65.1594 81.9212C63.4761 82.1128 62.1085 83.1971 61.9031 84.8865C61.7128 86.4397 62.4692 87.8266 63.6715 88.5578L62.5594 93.6462C62.4893 94.0849 62.8199 94.4783 63.2607 94.4783H67.9196C68.3605 94.4783 68.6961 94.0799 68.621 93.6462L67.5088 88.5578C68.5809 87.9022 69.3023 86.7171 69.3023 85.3605Z" fill="#1A53B6"/>
<path d="M115.361 43.3223C115.367 41.4306 114.098 40.5209 113.467 40.5209C114.655 40.5172 115.367 39.0817 115.361 37.7193C115.367 38.8865 116.015 40.5172 117.256 40.5209C116.08 40.5172 115.432 42.2786 115.361 43.3223Z" fill="white"/>
<path d="M15.2792 48.007C15.2842 46.5768 14.2771 45.8891 13.7763 45.8891C14.7187 45.8862 15.2842 44.8009 15.2792 43.7709C15.2842 44.6534 15.7981 45.8862 16.782 45.8891C15.8496 45.8862 15.3354 47.2179 15.2792 48.007Z" fill="white"/>
<path d="M27.2524 53.0258C27.2565 52.0042 26.4173 51.513 26 51.513C26.7853 51.511 27.2565 50.7357 27.2524 50C27.2565 50.6303 27.6848 51.511 28.5048 51.513C27.7278 51.511 27.2993 52.4621 27.2524 53.0258Z" fill="white"/>
<path d="M26.3917 60.0952C26.4407 59.9941 26.4787 59.8879 26.505 59.7785C26.8712 58.0754 25.0159 56.4316 23.0011 55.1392C21.0113 53.8628 18.7157 53.121 17.2748 54.0544C16.8475 54.3313 16.4579 55.1525 16.1894 55.5772C14.9953 57.466 16.1088 60.3325 18.6765 61.9796C21.1558 63.57 24.0845 63.4417 25.358 61.7303L26.3917 60.0952Z" fill="#FAC233"/>
<path d="M26.2101 60.4001C27.4044 58.5111 26.2909 55.6446 23.7232 53.9975C21.1555 52.3504 18.1058 52.5465 16.9116 54.4355C15.7173 56.3244 16.8308 59.191 19.3985 60.8381C21.9662 62.4852 25.0159 62.2891 26.2101 60.4001Z" fill="#FFDB6C"/>
<path d="M24.7796 59.4826C25.6064 58.1748 24.8355 56.1903 23.0579 55.05C21.2802 53.9097 19.1689 54.0454 18.3421 55.3532C17.5153 56.6609 18.2862 58.6455 20.0639 59.7858C21.8415 60.9261 23.9529 60.7903 24.7796 59.4826Z" fill="url(#paint10_linear_1008_12961)"/>
<path d="M20.2165 59.4965C18.5644 58.4369 17.7825 56.6479 18.3448 55.3512L18.3418 55.3559C17.5153 56.6631 18.286 58.6469 20.063 59.7867C21.84 60.9265 23.9508 60.7908 24.7773 59.4836C24.8348 59.3925 24.8851 59.297 24.9279 59.198C24.0986 60.5015 21.9913 60.6349 20.2165 59.4965Z" fill="#EDBA36"/>
<path d="M26.5034 59.7883C26.4536 59.9486 26.3905 60.1044 26.315 60.2541C26.2774 60.3293 26.2357 60.4023 26.1899 60.4728L26.122 60.5802C26.0995 60.6159 26.0726 60.6485 26.0475 60.6834C25.9466 60.8193 25.8348 60.9467 25.7132 61.0642C25.6822 61.0929 25.6502 61.1206 25.6187 61.1491C25.5872 61.1775 25.5564 61.2067 25.5224 61.2319C25.4553 61.2834 25.3903 61.3386 25.3187 61.3843C25.2834 61.4078 25.2483 61.4315 25.2122 61.4539L25.1011 61.5155C25.0274 61.5588 24.9503 61.5927 24.8746 61.6302C24.8369 61.6495 24.7975 61.6647 24.7586 61.6811L24.6414 61.73L24.522 61.7724L24.4616 61.7941L24.4316 61.805L24.4013 61.814C24.0787 61.9133 23.7461 61.9768 23.4096 62.0035C22.738 62.0586 22.06 61.9812 21.4107 61.8084C20.7614 61.632 20.1392 61.3662 19.5618 61.0186C18.9832 60.6734 18.4535 60.2511 17.9872 59.7632C17.5226 59.275 17.125 58.7183 16.8357 58.1061C16.6901 57.7998 16.5752 57.4797 16.4928 57.1506C16.4087 56.8207 16.367 56.4815 16.3686 56.1412L16.3741 56.0137C16.3771 55.9712 16.3825 55.9285 16.3864 55.8866L16.3928 55.8233L16.396 55.7916L16.4012 55.7602L16.4209 55.6339C16.4266 55.592 16.4365 55.5507 16.4461 55.5094L16.4743 55.3853L16.5101 55.2636C16.5224 55.2232 16.533 55.1822 16.5488 55.1429C16.5786 55.0639 16.6053 54.9837 16.6422 54.9078C16.6595 54.8694 16.6763 54.8309 16.6941 54.7928L16.7543 54.6804C16.792 54.6052 16.8405 54.5365 16.8844 54.4652L16.902 54.4373C16.9076 54.4285 16.9142 54.4204 16.9205 54.412L16.9579 54.3614L17.032 54.2607L16.9151 54.4457L16.9004 54.4731C16.8618 54.5471 16.8187 54.6181 16.7868 54.6952L16.7348 54.8083C16.7195 54.8468 16.7054 54.8858 16.6911 54.925C16.6595 55.0016 16.6382 55.0819 16.6135 55.1608C16.6003 55.1998 16.593 55.2409 16.5829 55.281L16.555 55.4017L16.5347 55.5237C16.5278 55.5645 16.5205 55.6051 16.5174 55.6463L16.5046 55.7692L16.5015 55.7998L16.5003 55.8307L16.4976 55.8924C16.4962 55.9337 16.4937 55.9747 16.493 56.0157L16.4958 56.1383C16.495 56.2204 16.5011 56.3026 16.5033 56.3846C16.5037 56.4259 16.5091 56.4668 16.513 56.5077L16.5253 56.6309L16.5437 56.7529C16.5507 56.7937 16.5549 56.8347 16.564 56.8749L16.589 56.9961L16.6015 57.0566C16.6062 57.0768 16.6117 57.0967 16.6168 57.1166C16.6973 57.4374 16.8093 57.7495 16.9511 58.0481C17.2341 58.6467 17.6236 59.1927 18.0798 59.6719C19.0013 60.6349 20.1642 61.3297 21.445 61.6824C22.0816 61.8528 22.7458 61.9283 23.4011 61.8742C23.7283 61.8484 24.0517 61.7866 24.3654 61.6901C24.6782 61.5935 24.9761 61.4538 25.2507 61.2751C25.3216 61.2342 25.3872 61.1857 25.4547 61.1393C25.4892 61.117 25.5198 61.0905 25.5524 61.0652C25.5849 61.0398 25.616 61.0154 25.6483 60.9881C25.7728 60.8803 25.8888 60.7629 25.9951 60.6369C26.0213 60.605 26.0491 60.5743 26.0741 60.5414L26.1472 60.4415C26.1967 60.375 26.2424 60.3058 26.2843 60.2341C26.3695 60.0919 26.4428 59.9428 26.5034 59.7883Z" fill="white"/>
<path d="M43.6356 71.221C43.6892 71.1707 43.7372 71.1146 43.7789 71.0538C44.4007 70.0978 43.6501 68.6586 42.7198 67.397C41.801 66.1511 40.5704 65.1606 39.4711 65.3945C39.1451 65.4639 38.715 65.8751 38.4516 66.072C37.28 66.948 37.2913 68.9615 38.4769 70.5693C39.6216 72.1218 41.4427 72.7282 42.6214 71.9793L43.6356 71.221Z" fill="#FAC233"/>
<path d="M43.4515 71.3663C44.6232 70.4903 44.6119 68.4767 43.4263 66.8689C42.2407 65.2611 40.3298 64.6679 39.1581 65.5439C37.9865 66.4199 37.9977 68.4335 39.1833 70.0413C40.3689 71.6491 42.2798 72.2423 43.4515 71.3663Z" fill="#FFDB6C"/>
<path d="M42.7909 70.4706C43.6021 69.8641 43.5943 68.4701 42.7735 67.357C41.9527 66.2439 40.6297 65.8332 39.8186 66.4397C39.0074 67.0462 39.0152 68.4402 39.836 69.5533C40.6568 70.6664 41.9798 71.0771 42.7909 70.4706Z" fill="url(#paint11_linear_1008_12961)"/>
<path d="M39.9983 69.4112C39.235 68.3762 39.1748 67.0985 39.822 66.4364L39.8191 66.4386C39.0077 67.0452 39.0156 68.4396 39.8366 69.5529C40.6575 70.6662 41.9809 71.0771 42.7923 70.4705C42.8487 70.4282 42.9019 70.3815 42.9512 70.3309C42.1389 70.9346 40.8182 70.5232 39.9983 69.4112Z" fill="#EDBA36"/>
<path d="M43.7779 71.0601C43.71 71.1465 43.635 71.2272 43.5538 71.3011C43.5132 71.3383 43.4706 71.3733 43.4261 71.4057L43.3594 71.4555C43.3373 71.4721 43.3132 71.4857 43.2897 71.5012C43.1962 71.5608 43.098 71.6126 42.9962 71.656C42.9705 71.6663 42.9444 71.6758 42.9185 71.6859C42.8925 71.6959 42.8669 71.7065 42.8402 71.714C42.7871 71.7298 42.7344 71.7484 42.68 71.7596C42.6528 71.7658 42.6258 71.772 42.5985 71.7773L42.5161 71.789C42.4609 71.7983 42.4058 71.801 42.3507 71.8062C42.3231 71.8092 42.2954 71.8093 42.2678 71.8102L42.1846 71.8127L42.1017 71.8107L42.0597 71.8099L42.0387 71.8096L42.0181 71.8079C41.7975 71.7932 41.5791 71.7543 41.367 71.6919C40.9432 71.5685 40.5464 71.3625 40.1895 71.1048C39.8334 70.845 39.5148 70.5368 39.2427 70.189C38.9694 69.8423 38.744 69.4599 38.5727 69.0523C38.4025 68.6448 38.2894 68.2112 38.2555 67.7688C38.2379 67.5473 38.2425 67.3245 38.269 67.1039C38.2947 66.8823 38.3484 66.665 38.429 66.4571L38.4621 66.3803C38.4739 66.3551 38.4872 66.3302 38.4994 66.3055L38.5181 66.2683L38.5275 66.2496L38.5379 66.2316L38.5795 66.1589C38.5928 66.1346 38.6086 66.1116 38.6241 66.0886L38.6704 66.0193L38.7207 65.9532C38.7377 65.9313 38.7537 65.9087 38.7726 65.8884C38.8093 65.847 38.8444 65.8042 38.8847 65.7663C38.9043 65.7469 38.9236 65.7273 38.9434 65.7081L39.0065 65.6534C39.0471 65.6162 39.0929 65.5855 39.1364 65.5522L39.1537 65.5392C39.1592 65.5351 39.1651 65.5317 39.1709 65.528L39.2056 65.5058L39.2745 65.4616L39.1597 65.5474L39.1443 65.5608C39.1034 65.597 39.0604 65.6304 39.0229 65.6701L38.9646 65.7271C38.9462 65.7471 38.9285 65.7676 38.9106 65.7883C38.8734 65.8278 38.8416 65.8719 38.808 65.9145C38.7908 65.9352 38.7767 65.9587 38.7612 65.9809L38.7159 66.0482L38.675 66.1181C38.6612 66.1415 38.6472 66.1646 38.6357 66.1891L38.5992 66.2613L38.5901 66.2793L38.5821 66.2979L38.5661 66.3351C38.5555 66.36 38.5444 66.3845 38.5344 66.4094L38.5075 66.4851C38.4878 66.5352 38.4723 66.5868 38.4545 66.6376C38.445 66.6629 38.4388 66.6892 38.4316 66.7152L38.4103 66.7934L38.3931 66.8724C38.3879 66.899 38.3808 66.9251 38.377 66.9518L38.364 67.0318L38.3575 67.0718C38.3556 67.0853 38.3543 67.0987 38.3528 67.1121C38.3271 67.3272 38.3226 67.5444 38.3396 67.7604C38.3729 68.1928 38.4836 68.6181 38.6507 69.0181C38.9895 69.823 39.5386 70.5202 40.2399 71.0358C40.5896 71.289 40.9784 71.4906 41.392 71.6108C41.5983 71.6715 41.8106 71.7094 42.0251 71.7237C42.2391 71.7378 42.454 71.722 42.6638 71.6769C42.7168 71.6685 42.7682 71.6541 42.8204 71.6415C42.8467 71.636 42.8717 71.6269 42.8975 71.619C42.9233 71.6111 42.9481 71.6034 42.9742 71.5943C43.0756 71.5575 43.174 71.5127 43.2686 71.4605C43.292 71.4471 43.3162 71.4348 43.3392 71.4205L43.4073 71.3765C43.4531 71.3474 43.4973 71.3157 43.5397 71.2817C43.625 71.2146 43.7047 71.1405 43.7779 71.0601Z" fill="white"/>
<path d="M29.3537 45.2711C29.4662 45.1654 29.567 45.0478 29.6543 44.9203C30.959 42.9143 29.3841 39.8946 27.4321 37.2475C25.5044 34.6333 22.9223 32.5549 20.6158 33.0458C19.9317 33.1914 19.0292 34.0541 18.4766 34.4673C16.0183 36.3053 16.0421 40.5302 18.5296 43.9037C20.9316 47.1611 24.7526 48.4334 27.2257 46.8621L29.3537 45.2711Z" fill="#FAC233"/>
<path d="M28.9673 45.576C31.4257 43.7379 31.4021 39.513 28.9145 36.1395C26.4269 32.7659 22.4174 31.5212 19.959 33.3593C17.5005 35.1974 17.5242 39.4223 20.0117 42.7958C22.4993 46.1694 26.5089 47.4141 28.9673 45.576Z" fill="#FFDB6C"/>
<path d="M27.5814 43.6966C29.2834 42.4241 29.267 39.4991 27.5448 37.1636C25.8226 34.828 23.0468 33.9663 21.3448 35.2388C19.6428 36.5113 19.6592 39.4363 21.3814 41.7718C23.1036 44.1074 25.8794 44.9691 27.5814 43.6966Z" fill="url(#paint12_linear_1008_12961)"/>
<path d="M21.7218 41.4738C20.1203 39.3021 19.994 36.6211 21.352 35.232L21.3459 35.2366C19.6434 36.5094 19.6599 39.4352 21.3825 41.7711C23.105 44.107 25.8817 44.9691 27.5842 43.6963C27.7027 43.6075 27.8142 43.5096 27.9176 43.4034C26.2134 44.6702 23.4423 43.8069 21.7218 41.4738Z" fill="#EDBA36"/>
<path d="M29.6523 44.9334C29.5097 45.1148 29.3524 45.2839 29.1819 45.4391C29.0968 45.5172 29.0074 45.5905 28.9141 45.6586L28.7742 45.7631C28.7278 45.7979 28.6772 45.8265 28.6279 45.859C28.4317 45.984 28.2257 46.0926 28.012 46.1838C27.958 46.2054 27.9033 46.2254 27.8489 46.2464C27.7946 46.2674 27.7407 46.2898 27.6847 46.3056C27.5732 46.3387 27.4627 46.3777 27.3485 46.4012C27.2916 46.414 27.2349 46.4272 27.1775 46.4383L27.0047 46.4628C26.8888 46.4823 26.7732 46.488 26.6576 46.499C26.5997 46.5052 26.5417 46.5054 26.4837 46.5073L26.3092 46.5126L26.1351 46.5084L26.047 46.5067L26.0031 46.5059L25.9598 46.5025C25.4969 46.4717 25.0388 46.39 24.5936 46.259C23.7044 46.0001 22.8718 45.5679 22.1229 45.0273C21.3758 44.482 20.7073 43.8353 20.1364 43.1056C19.5629 42.3782 19.09 41.5759 18.7305 40.7206C18.3735 39.8656 18.1361 38.9558 18.0649 38.0276C18.0282 37.5628 18.0377 37.0954 18.0934 36.6324C18.1472 36.1676 18.26 35.7115 18.429 35.2754L18.4986 35.1143C18.5233 35.0613 18.5512 35.0091 18.5768 34.9572L18.6159 34.8791L18.6357 34.8399L18.6577 34.8021L18.7449 34.6497C18.7728 34.5987 18.8059 34.5504 18.8384 34.5021L18.9355 34.3567L19.0411 34.218C19.0768 34.1721 19.1104 34.1247 19.1501 34.082C19.2271 33.9952 19.3006 33.9053 19.3852 33.8259C19.4264 33.7851 19.4668 33.744 19.5083 33.7038L19.6407 33.5891C19.7259 33.511 19.822 33.4466 19.9133 33.3766L19.9496 33.3494C19.9611 33.3408 19.9736 33.3337 19.9857 33.3259L20.0585 33.2793L20.2032 33.1865L19.9623 33.3666L19.93 33.3946C19.8441 33.4706 19.7539 33.5407 19.6751 33.624L19.5529 33.7437C19.5144 33.7856 19.4772 33.8287 19.4396 33.872C19.3614 33.9549 19.2948 34.0475 19.2243 34.1368C19.1883 34.1803 19.1586 34.2296 19.1261 34.2761L19.0311 34.4174L18.9452 34.564C18.9163 34.6131 18.887 34.6616 18.8627 34.7129L18.7861 34.8644L18.7671 34.9022L18.7503 34.9413L18.7167 35.0193C18.6945 35.0716 18.6712 35.123 18.6503 35.1753L18.5938 35.334C18.5524 35.4391 18.5199 35.5476 18.4825 35.654C18.4627 35.7072 18.4496 35.7624 18.4346 35.8168L18.3899 35.981L18.3538 36.1468C18.3428 36.2026 18.328 36.2572 18.3199 36.3134L18.2926 36.4812L18.279 36.5651C18.2751 36.5934 18.2724 36.6215 18.2693 36.6496C18.2152 37.1011 18.2059 37.5567 18.2415 38.0098C18.3113 38.9173 18.5436 39.8096 18.8942 40.6488C19.605 42.3377 20.7573 43.8007 22.2287 44.8824C22.9625 45.4137 23.7783 45.8367 24.6461 46.0889C25.0789 46.2163 25.5243 46.2958 25.9744 46.3258C26.4234 46.3554 26.8744 46.3223 27.3147 46.2276C27.4258 46.2099 27.5338 46.1798 27.6432 46.1534C27.6984 46.1417 27.7507 46.1227 27.805 46.1061C27.8592 46.0896 27.9111 46.0735 27.9659 46.0543C28.1787 45.977 28.3852 45.8832 28.5835 45.7735C28.6327 45.7455 28.6836 45.7197 28.7318 45.6897L28.8746 45.5974C28.9707 45.5362 29.0635 45.4698 29.1523 45.3984C29.3315 45.2576 29.4987 45.1021 29.6523 44.9334Z" fill="white"/>
<path d="M105.435 55.1801C105.35 55.1498 105.263 55.1288 105.174 55.1174C103.797 54.9742 102.671 56.5989 101.837 58.3202C101.014 60.0201 100.64 61.9172 101.509 62.9856C101.767 63.3024 102.451 63.5415 102.811 63.7186C104.411 64.5064 106.569 63.3667 107.632 61.1731C108.658 59.055 108.287 56.7287 106.82 55.862L105.435 55.1801Z" fill="#FAC233"/>
<path d="M105.695 55.3007C104.094 54.5129 101.936 55.6525 100.873 57.8461C99.8102 60.0398 100.246 62.4567 101.846 63.2445C103.447 64.0324 105.605 62.8927 106.668 60.6991C107.731 58.5055 107.295 56.0886 105.695 55.3007Z" fill="#FFDB6C"/>
<path d="M105.103 56.5228C103.995 55.9774 102.5 56.7664 101.765 58.2851C101.029 59.8037 101.33 61.477 102.438 62.0224C103.546 62.5678 105.041 61.7788 105.777 60.2602C106.512 58.7415 106.211 57.0682 105.103 56.5228Z" fill="url(#paint13_linear_1008_12961)"/>
<path d="M105.533 60.1618C104.848 61.5742 103.508 62.3553 102.432 62.0199L102.436 62.0218C103.544 62.5675 105.04 61.7781 105.776 60.2589C106.512 58.7397 106.21 57.0657 105.102 56.52C105.024 56.4821 104.944 56.4503 104.862 56.4248C105.968 56.973 106.268 58.6444 105.533 60.1618Z" fill="#EDBA36"/>
<path d="M105.182 55.114C105.313 55.1398 105.442 55.1765 105.567 55.2237C105.63 55.2471 105.691 55.2741 105.751 55.3044L105.842 55.3493C105.872 55.3642 105.901 55.3828 105.93 55.3998C106.047 55.4684 106.158 55.5466 106.262 55.6334C106.287 55.6557 106.312 55.6788 106.338 55.7014C106.363 55.7241 106.389 55.7461 106.412 55.7711C106.459 55.8202 106.508 55.8673 106.551 55.9204C106.573 55.9465 106.595 55.9725 106.616 55.9994L106.675 56.0827C106.716 56.1378 106.75 56.1964 106.786 56.2536C106.805 56.282 106.821 56.3121 106.837 56.3418L106.887 56.4311L106.931 56.5228L106.954 56.569L106.965 56.5921L106.975 56.6155C107.083 56.8645 107.164 57.1245 107.216 57.3909C107.322 57.9225 107.323 58.4708 107.246 59.0044C107.167 59.5385 107.015 60.0587 106.793 60.5503C106.574 61.0427 106.29 61.5027 105.947 61.9179C105.605 62.3317 105.202 62.698 104.745 62.9827C104.517 63.1259 104.275 63.2457 104.022 63.3403C103.77 63.4363 103.506 63.4994 103.237 63.5279L103.135 63.5347C103.102 63.536 103.067 63.5354 103.034 63.536L102.983 63.5365L102.958 63.5366L102.933 63.5353L102.831 63.5306C102.798 63.5297 102.764 63.5254 102.731 63.5214L102.63 63.5097L102.531 63.4918C102.498 63.4855 102.464 63.4806 102.432 63.4714C102.367 63.4545 102.301 63.4403 102.237 63.4175C102.206 63.407 102.174 63.3969 102.142 63.3861L102.048 63.3478C101.985 63.3243 101.926 63.2916 101.866 63.2628L101.842 63.2511C101.835 63.2475 101.828 63.2429 101.82 63.2386L101.777 63.2132L101.691 63.1628L101.847 63.24L101.87 63.2493C101.932 63.2737 101.993 63.3019 102.056 63.3206L102.15 63.3522C102.182 63.3611 102.214 63.3689 102.247 63.3769C102.31 63.3954 102.375 63.4054 102.44 63.4182C102.472 63.4253 102.505 63.4276 102.538 63.4321L102.636 63.4438L102.734 63.4493C102.767 63.4512 102.799 63.4535 102.832 63.4525L102.93 63.4519L102.955 63.4517L102.979 63.45L103.028 63.4467C103.061 63.4442 103.094 63.4426 103.126 63.4395L103.223 63.4266C103.288 63.4201 103.352 63.408 103.416 63.399C103.449 63.3951 103.481 63.3872 103.513 63.3805L103.609 63.3599L103.704 63.3345C103.735 63.3253 103.767 63.3184 103.798 63.3076L103.891 63.277L103.938 63.2617C103.954 63.2562 103.969 63.2501 103.984 63.2442C104.23 63.1519 104.466 63.0351 104.689 62.8956C105.135 62.6172 105.53 62.2583 105.867 61.852C106.542 61.0316 106.983 60.042 107.144 58.9881C107.22 58.4647 107.218 57.9276 107.115 57.409C107.064 57.1499 106.986 56.8971 106.88 56.655C106.775 56.4137 106.638 56.188 106.471 55.9843C106.432 55.9312 106.388 55.8831 106.345 55.8333C106.324 55.8077 106.301 55.7855 106.278 55.7618C106.255 55.738 106.232 55.7153 106.208 55.6919C106.111 55.6019 106.008 55.5195 105.898 55.4456C105.871 55.4276 105.844 55.408 105.816 55.3909L105.73 55.3413C105.673 55.3076 105.614 55.2771 105.554 55.25C105.434 55.1944 105.309 55.1489 105.182 55.114Z" fill="white"/>
<path d="M124.344 39.7738C124.234 39.7088 124.117 39.656 123.996 39.6163C122.103 39.0473 120.093 41.023 118.466 43.2121C116.859 45.3741 115.83 47.9328 116.764 49.6624C117.041 50.1754 117.936 50.6933 118.393 51.0377C120.426 52.5696 123.755 51.5499 125.828 48.76C127.83 46.0662 127.93 42.7069 126.104 41.0999L124.344 39.7738Z" fill="#FAC233"/>
<path d="M124.676 40.0111C122.643 38.479 119.314 39.4987 117.24 42.2886C115.167 45.0785 115.134 48.5821 117.167 50.1141C119.2 51.6462 122.529 50.6265 124.602 47.8367C126.676 45.0468 126.709 41.5431 124.676 40.0111Z" fill="#FFDB6C"/>
<path d="M123.521 41.5653C122.113 40.5047 119.808 41.2106 118.373 43.1421C116.937 45.0736 116.915 47.4992 118.322 48.5598C119.73 49.6205 122.034 48.9145 123.47 46.9831C124.905 45.0516 124.928 42.626 123.521 41.5653Z" fill="url(#paint14_linear_1008_12961)"/>
<path d="M123.154 46.7809C121.819 48.5769 119.733 49.313 118.315 48.5553L118.32 48.5592C119.728 49.6201 122.033 48.9138 123.469 46.9821C124.905 45.0503 124.928 42.624 123.52 41.5631C123.422 41.4893 123.318 41.4233 123.21 41.3656C124.613 42.4294 124.588 44.8515 123.154 46.7809Z" fill="#EDBA36"/>
<path d="M124.007 39.6149C124.184 39.6861 124.355 39.7719 124.517 39.8716C124.599 39.9212 124.678 39.9754 124.754 40.034L124.87 40.1211C124.908 40.1501 124.943 40.1837 124.98 40.2155C125.125 40.3429 125.26 40.482 125.382 40.6314C125.412 40.6695 125.441 40.7086 125.47 40.7471C125.5 40.7856 125.53 40.8234 125.556 40.8645C125.608 40.9459 125.665 41.0251 125.711 41.1109C125.735 41.1534 125.758 41.1956 125.781 41.2389L125.841 41.3715C125.884 41.4596 125.916 41.5507 125.952 41.6406C125.97 41.6855 125.984 41.7319 126 41.7778L126.045 41.9162L126.083 42.0565L126.102 42.1274L126.112 42.1628L126.12 42.1982C126.205 42.576 126.249 42.9619 126.251 43.3492C126.257 44.1221 126.113 44.8908 125.864 45.6181C125.611 46.3452 125.259 47.0333 124.818 47.663C124.38 48.2943 123.858 48.8628 123.268 49.353C122.678 49.8412 122.016 50.2467 121.3 50.5236C120.942 50.6631 120.571 50.7662 120.192 50.8313C119.813 50.8983 119.426 50.9161 119.042 50.8842L118.898 50.8666C118.85 50.8594 118.803 50.8494 118.756 50.8413L118.685 50.8284L118.649 50.8219L118.614 50.8133L118.473 50.7796C118.426 50.7693 118.38 50.7543 118.334 50.7397L118.197 50.6964L118.062 50.6448C118.018 50.6271 117.972 50.6114 117.929 50.5898C117.842 50.5487 117.754 50.5112 117.671 50.4623C117.629 50.439 117.587 50.4164 117.546 50.3927L117.424 50.3139C117.342 50.2642 117.268 50.2026 117.192 50.1461L117.161 50.1235C117.152 50.1163 117.143 50.108 117.134 50.1002L117.08 50.0529L116.973 49.9592L117.172 50.1093L117.202 50.1285C117.282 50.1792 117.359 50.2348 117.443 50.2781L117.567 50.3475C117.609 50.3685 117.652 50.388 117.695 50.4078C117.779 50.4507 117.868 50.4822 117.955 50.5174C117.998 50.5359 118.043 50.548 118.088 50.563L118.222 50.6056L118.358 50.6396C118.404 50.6511 118.449 50.663 118.495 50.6703L118.633 50.6957L118.667 50.702L118.702 50.7061L118.771 50.7146C118.818 50.7199 118.864 50.7264 118.91 50.7307L119.049 50.7384C119.142 50.7466 119.235 50.7469 119.328 50.7516C119.375 50.7549 119.421 50.7523 119.468 50.7514L119.608 50.7483L119.747 50.738C119.794 50.7335 119.841 50.7324 119.887 50.7256L120.026 50.7076L120.095 50.6987C120.118 50.6951 120.141 50.6906 120.164 50.6865C120.533 50.6228 120.895 50.5223 121.244 50.3865C121.944 50.1157 122.593 49.7184 123.173 49.2391C124.338 48.2702 125.219 47.0015 125.725 45.5678C125.97 44.8547 126.111 44.1017 126.105 43.3474C126.103 42.9709 126.06 42.5957 125.977 42.2283C125.894 41.862 125.761 41.509 125.582 41.1791C125.542 41.0944 125.492 41.0151 125.446 40.9338C125.423 40.8923 125.396 40.855 125.37 40.8155C125.344 40.776 125.319 40.7383 125.291 40.699C125.18 40.547 125.057 40.404 124.923 40.2712C124.889 40.2385 124.857 40.2039 124.822 40.1725L124.715 40.08C124.644 40.0176 124.57 39.9591 124.492 39.9049C124.339 39.7949 124.176 39.6979 124.007 39.6149Z" fill="white"/>
<path d="M124.498 76.4344H6.67276C5.68086 76.4344 4.87933 75.6275 4.87933 74.629V71.0939C4.87933 70.0954 5.68587 69.2834 6.67777 69.2834H124.498C125.489 69.2834 126.296 70.0954 126.296 71.0939V74.629C126.291 75.6225 125.489 76.4344 124.498 76.4344Z" fill="#397FF6"/>
<path d="M23.2524 39.0258C23.2565 38.0042 22.4173 37.513 22 37.513C22.7853 37.511 23.2565 36.7357 23.2524 36C23.2565 36.6303 23.6848 37.511 24.5048 37.513C23.7278 37.511 23.2993 38.4621 23.2524 39.0258Z" fill="white"/>
<path d="M38.3231 67.473C38.3265 66.6217 37.6551 66.2123 37.3212 66.2123C37.9495 66.2106 38.3265 65.5646 38.3231 64.9515C38.3265 65.4768 38.6691 66.2106 39.3251 66.2123C38.7034 66.2106 38.3606 67.0033 38.3231 67.473Z" fill="white"/>
<path d="M102.195 54.3612C102.199 53.3396 101.36 52.8484 100.943 52.8484C101.728 52.8463 102.199 52.0711 102.195 51.3354C102.199 51.9657 102.627 52.8463 103.447 52.8484C102.67 52.8463 102.242 53.7975 102.195 54.3612Z" fill="white"/>
<defs>
<filter id="filter0_d_1008_12961" x="14.3725" y="9.9828" width="102.863" height="75.645" filterUnits="userSpaceOnUse" color-interpolation-filters="sRGB">
<feFlood flood-opacity="0" result="BackgroundImageFix"/>
<feColorMatrix in="SourceAlpha" type="matrix" values="0 0 0 0 0 0 0 0 0 0 0 0 0 0 0 0 0 0 127 0" result="hardAlpha"/>
<feOffset dy="2.0172"/>
<feGaussianBlur stdDeviation="2.0172"/>
<feComposite in2="hardAlpha" operator="out"/>
<feColorMatrix type="matrix" values="0 0 0 0 0 0 0 0 0 0 0 0 0 0 0 0 0 0 0.05 0"/>
<feBlend mode="normal" in2="BackgroundImageFix" result="effect1_dropShadow_1008_12961"/>
<feBlend mode="normal" in="SourceGraphic" in2="effect1_dropShadow_1008_12961" result="shape"/>
</filter>
<filter id="filter1_d_1008_12961" x="10.8985" y="0.737301" width="109.811" height="82.5931" filterUnits="userSpaceOnUse" color-interpolation-filters="sRGB">
<feFlood flood-opacity="0" result="BackgroundImageFix"/>
<feColorMatrix in="SourceAlpha" type="matrix" values="0 0 0 0 0 0 0 0 0 0 0 0 0 0 0 0 0 0 127 0" result="hardAlpha"/>
<feOffset dy="-3.75423"/>
<feGaussianBlur stdDeviation="3.75423"/>
<feComposite in2="hardAlpha" operator="out"/>
<feColorMatrix type="matrix" values="0 0 0 0 0 0 0 0 0 0 0 0 0 0 0 0 0 0 0.05 0"/>
<feBlend mode="normal" in2="BackgroundImageFix" result="effect1_dropShadow_1008_12961"/>
<feBlend mode="normal" in="SourceGraphic" in2="effect1_dropShadow_1008_12961" result="shape"/>
</filter>
<linearGradient id="paint0_linear_1008_12961" x1="65.5877" y1="76.2982" x2="65.5877" y2="-98.1895" gradientUnits="userSpaceOnUse">
<stop stop-color="#397FF6"/>
<stop offset="1" stop-color="#CFE1FF"/>
</linearGradient>
<linearGradient id="paint1_linear_1008_12961" x1="112.145" y1="19.4989" x2="112.145" y2="74.7349" gradientUnits="userSpaceOnUse">
<stop stop-color="#437AD7"/>
<stop offset="1" stop-color="#1A53B6" stop-opacity="0"/>
</linearGradient>
<linearGradient id="paint2_linear_1008_12961" x1="66.8776" y1="74.0289" x2="66.8776" y2="-5.39834" gradientUnits="userSpaceOnUse">
<stop stop-color="#285EBA"/>
<stop offset="1" stop-color="#285EBA" stop-opacity="0"/>
</linearGradient>
<linearGradient id="paint3_linear_1008_12961" x1="19.0251" y1="19.4989" x2="19.0251" y2="74.7349" gradientUnits="userSpaceOnUse">
<stop stop-color="#437AD7"/>
<stop offset="1" stop-color="#1A53B6" stop-opacity="0"/>
</linearGradient>
<linearGradient id="paint4_linear_1008_12961" x1="66.0633" y1="75.5418" x2="66.0633" y2="25.8682" gradientUnits="userSpaceOnUse">
<stop stop-color="#FFE5A2"/>
<stop offset="1" stop-color="white" stop-opacity="0"/>
</linearGradient>
<linearGradient id="paint5_linear_1008_12961" x1="65.8046" y1="79.5762" x2="65.8046" y2="12.0008" gradientUnits="userSpaceOnUse">
<stop stop-color="#FBECBB"/>
<stop offset="1" stop-color="white"/>
</linearGradient>
<linearGradient id="paint6_linear_1008_12961" x1="67.8796" y1="125.72" x2="67.8796" y2="68.4816" gradientUnits="userSpaceOnUse">
<stop stop-color="#6DA2EF"/>
<stop offset="0.508154" stop-color="#C2D9FA"/>
<stop offset="1" stop-color="#EAF3FF"/>
</linearGradient>
<linearGradient id="paint7_linear_1008_12961" x1="65.5876" y1="84.2702" x2="65.3719" y2="127.233" gradientUnits="userSpaceOnUse">
<stop stop-color="#397FF6"/>
<stop offset="1" stop-color="#397FF6" stop-opacity="0"/>
</linearGradient>
<linearGradient id="paint8_linear_1008_12961" x1="12.7744" y1="124.963" x2="12.7744" y2="106.556" gradientUnits="userSpaceOnUse">
<stop stop-color="#397FF6"/>
<stop offset="1" stop-color="#7EAEFF"/>
</linearGradient>
<linearGradient id="paint9_linear_1008_12961" x1="117.86" y1="124.905" x2="117.86" y2="106.736" gradientUnits="userSpaceOnUse">
<stop stop-color="#397FF6"/>
<stop offset="1" stop-color="#7EAEFF"/>
</linearGradient>
<linearGradient id="paint10_linear_1008_12961" x1="18.3421" y1="55.3532" x2="24.8065" y2="59.44" gradientUnits="userSpaceOnUse">
<stop stop-color="#FFD874"/>
<stop offset="1" stop-color="#FFF6D5"/>
</linearGradient>
<linearGradient id="paint11_linear_1008_12961" x1="39.8186" y1="66.4397" x2="42.8175" y2="70.4507" gradientUnits="userSpaceOnUse">
<stop stop-color="#FFD874"/>
<stop offset="1" stop-color="#FFF6D5"/>
</linearGradient>
<linearGradient id="paint12_linear_1008_12961" x1="21.3448" y1="35.2388" x2="27.6372" y2="43.6549" gradientUnits="userSpaceOnUse">
<stop stop-color="#FFD874"/>
<stop offset="1" stop-color="#FFF6D5"/>
</linearGradient>
<linearGradient id="paint13_linear_1008_12961" x1="102.438" y1="62.0224" x2="105.137" y2="56.5399" gradientUnits="userSpaceOnUse">
<stop stop-color="#FFD874"/>
<stop offset="1" stop-color="#FFF6D5"/>
</linearGradient>
<linearGradient id="paint14_linear_1008_12961" x1="118.322" y1="48.5598" x2="123.567" y2="41.6002" gradientUnits="userSpaceOnUse">
<stop stop-color="#FFD874"/>
<stop offset="1" stop-color="#FFF6D5"/>
</linearGradient>
</defs>
</svg>
