<svg width="20" height="20" viewBox="0 0 20 20" fill="none" xmlns="http://www.w3.org/2000/svg">
<path fill-rule="evenodd" clip-rule="evenodd" d="M3.46298 5.45217C3.67349 5.17862 4.06591 5.12752 4.33946 5.33804L9.31316 9.16568C9.47965 9.2938 9.72622 9.37501 9.99995 9.37501C10.2737 9.37501 10.5203 9.2938 10.6867 9.16568L15.6604 5.33804C15.934 5.12752 16.3264 5.17862 16.5369 5.45217C16.7474 5.72572 16.6963 6.11813 16.4228 6.32865L11.4491 10.1563C11.0282 10.4802 10.5005 10.625 9.99995 10.625C9.4994 10.625 8.97169 10.4802 8.5508 10.1563L3.57711 6.32865C3.30356 6.11813 3.25246 5.72572 3.46298 5.45217Z" fill="#FFEAAF"/>
<path fill-rule="evenodd" clip-rule="evenodd" d="M3.46298 9.61882C3.67349 9.34527 4.06591 9.29418 4.33946 9.50469L9.31316 13.3323C9.47965 13.4605 9.72622 13.5417 9.99995 13.5417C10.2737 13.5417 10.5203 13.4605 10.6867 13.3323L15.6604 9.50469C15.934 9.29418 16.3264 9.34527 16.5369 9.61882C16.7474 9.89237 16.6963 10.2848 16.4228 10.4953L11.4491 14.3229C11.0282 14.6469 10.5005 14.7917 9.99995 14.7917C9.4994 14.7917 8.97169 14.6469 8.5508 14.3229L3.57711 10.4953C3.30356 10.2848 3.25246 9.89237 3.46298 9.61882Z" fill="#FFC709"/>
</svg>
