
<svg width="40" height="40" viewBox="0 0 40 40" fill="none" xmlns="http://www.w3.org/2000/svg">
<rect width="40" height="40" rx="20" fill="#FFEAAF"/>
<path d="M17.5031 11.7843C18.8821 10.4052 21.1179 10.4052 22.4969 11.7843L28.2157 17.5031C29.5948 18.8821 29.5948 21.1179 28.2157 22.4969L22.4969 28.2157C21.1179 29.5948 18.8821 29.5948 17.5031 28.2157L11.7843 22.4969C10.4052 21.1179 10.4052 18.8821 11.7843 17.5031L17.5031 11.7843Z" stroke="#1B1D29" stroke-width="1.5"/>
<path fill-rule="evenodd" clip-rule="evenodd" d="M20.8839 15.4697C21.1768 15.1768 21.6517 15.1768 21.9445 15.4697L23.2374 16.7626C23.9209 17.446 23.9209 18.554 23.2374 19.2374L21.9445 20.5303C21.6516 20.8232 21.1768 20.8232 20.8839 20.5303C20.591 20.2374 20.591 19.7626 20.8839 19.4697L21.6036 18.75H20C19.3096 18.75 18.75 19.3096 18.75 20V24C18.75 24.4142 18.4142 24.75 18 24.75C17.5858 24.75 17.25 24.4142 17.25 24V20C17.25 18.4812 18.4812 17.25 20 17.25L21.6036 17.25L20.8839 16.5303C20.591 16.2374 20.591 15.7626 20.8839 15.4697Z" fill="#1B1D29"/>
</svg>
