<svg width="24" height="24" viewBox="0 0 24 24" fill="none" xmlns="http://www.w3.org/2000/svg">
<path fill-rule="evenodd" clip-rule="evenodd" d="M14.1486 8.5L9.8515 8.5L8.89912 12.5H15.101L14.1486 8.5ZM9.8515 7C9.15691 7 8.55317 7.47687 8.39229 8.15257L7.43991 12.1526C7.21549 13.0951 7.93021 14 8.89912 14H15.101C16.0699 14 16.7846 13.0951 16.5602 12.1526L15.6078 8.15257C15.4469 7.47687 14.8432 7 14.1486 7H9.8515Z" fill="color1"/>
<path fill-rule="evenodd" clip-rule="evenodd" d="M9.14859 15.5L4.8515 15.5L3.89912 19.5H10.101L9.14859 15.5ZM4.8515 14C4.15691 14 3.55317 14.4769 3.39229 15.1526L2.43991 19.1526C2.21549 20.0951 2.93021 21 3.89912 21H10.101C11.0699 21 11.7846 20.0951 11.5602 19.1526L10.6078 15.1526C10.4469 14.4769 9.84318 14 9.14859 14H4.8515Z" fill="color2"/>
<path fill-rule="evenodd" clip-rule="evenodd" d="M19.1486 15.5L14.8515 15.5L13.8991 19.5H20.101L19.1486 15.5ZM14.8515 14C14.1569 14 13.5532 14.4769 13.3923 15.1526L12.4399 19.1526C12.2155 20.0951 12.9302 21 13.8991 21H20.101C21.0699 21 21.7846 20.0951 21.5602 19.1526L20.6078 15.1526C20.4469 14.4769 19.8432 14 19.1486 14H14.8515Z" fill="color2"/>
<path fill-rule="evenodd" clip-rule="evenodd" d="M12 2.25C12.4142 2.25 12.75 2.58579 12.75 3V4C12.75 4.41421 12.4142 4.75 12 4.75C11.5858 4.75 11.25 4.41421 11.25 4V3C11.25 2.58579 11.5858 2.25 12 2.25Z" fill="color2"/>
<path fill-rule="evenodd" clip-rule="evenodd" d="M18.5303 3.46967C18.8232 3.76256 18.8232 4.23744 18.5303 4.53033L17.5303 5.53033C17.2374 5.82322 16.7626 5.82322 16.4697 5.53033C16.1768 5.23744 16.1768 4.76256 16.4697 4.46967L17.4697 3.46967C17.7626 3.17678 18.2374 3.17678 18.5303 3.46967Z" fill="color2"/>
<path fill-rule="evenodd" clip-rule="evenodd" d="M5.46967 3.46967C5.76256 3.17678 6.23744 3.17678 6.53033 3.46967L7.53033 4.46967C7.82322 4.76256 7.82322 5.23744 7.53033 5.53033C7.23744 5.82322 6.76256 5.82322 6.46967 5.53033L5.46967 4.53033C5.17678 4.23744 5.17678 3.76256 5.46967 3.46967Z" fill="color2"/>
</svg>