
<svg width="24" height="24" viewBox="0 0 24 24" fill="none" xmlns="http://www.w3.org/2000/svg">
<path fill-rule="evenodd" clip-rule="evenodd" d="M18.5 17V7C18.5 4.98928 18.2123 4.33365 17.9393 4.06066C17.6664 3.78767 17.0107 3.5 15 3.5H9C6.98928 3.5 6.33365 3.78767 6.06066 4.06066C5.78767 4.33365 5.5 4.98928 5.5 7V17C5.5 19.0107 5.78767 19.6664 6.06066 19.9393C6.33365 20.2123 6.98928 20.5 9 20.5H15C17.0107 20.5 17.6664 20.2123 17.9393 19.9393C18.2123 19.6664 18.5 19.0107 18.5 17ZM20 17V7C20 3 19 2 15 2H9C5 2 4 3 4 7V17C4 21 5 22 9 22H15C19 22 20 21 20 17Z" fill="color2"/>
<path fill-rule="evenodd" clip-rule="evenodd" d="M12 15.75C11.5858 15.75 11.25 16.0858 11.25 16.5C11.25 16.9142 11.5858 17.25 12 17.25C12.4142 17.25 12.75 16.9142 12.75 16.5C12.75 16.0858 12.4142 15.75 12 15.75ZM9.75 16.5C9.75 15.2574 10.7574 14.25 12 14.25C13.2426 14.25 14.25 15.2574 14.25 16.5C14.25 17.7426 13.2426 18.75 12 18.75C10.7574 18.75 9.75 17.7426 9.75 16.5Z" fill="color1"/>
<path fill-rule="evenodd" clip-rule="evenodd" d="M8.25 5.75C8.25 5.33579 8.58579 5 9 5H15C15.4142 5 15.75 5.33579 15.75 5.75C15.75 6.16421 15.4142 6.5 15 6.5H9C8.58579 6.5 8.25 6.16421 8.25 5.75Z" fill="color2"/>
</svg>
