
<svg width="24" height="24" viewBox="0 0 24 24" fill="none" xmlns="http://www.w3.org/2000/svg">
<path fill-rule="evenodd" clip-rule="evenodd" d="M17.5 14.75C16.2574 14.75 15.25 15.7574 15.25 17C15.25 18.2426 16.2574 19.25 17.5 19.25C18.7426 19.25 19.75 18.2426 19.75 17C19.75 15.7574 18.7426 14.75 17.5 14.75ZM13.75 17C13.75 14.9289 15.4289 13.25 17.5 13.25C19.5711 13.25 21.25 14.9289 21.25 17C21.25 19.0711 19.5711 20.75 17.5 20.75C15.4289 20.75 13.75 19.0711 13.75 17Z" fill="color1"/>
<path fill-rule="evenodd" clip-rule="evenodd" d="M22.0303 21.5303C21.7374 21.8232 21.2626 21.8232 20.9697 21.5303L19.9697 20.5303C19.6768 20.2374 19.6768 19.7626 19.9697 19.4697C20.2626 19.1768 20.7374 19.1768 21.0303 19.4697L22.0303 20.4697C22.3232 20.7626 22.3232 21.2374 22.0303 21.5303Z" fill="color1"/>
<path fill-rule="evenodd" clip-rule="evenodd" d="M7.25 7C7.25 6.58579 7.58579 6.25 8 6.25H16C16.4142 6.25 16.75 6.58579 16.75 7C16.75 7.41421 16.4142 7.75 16 7.75H8C7.58579 7.75 7.25 7.41421 7.25 7Z" fill="color2"/>
<path fill-rule="evenodd" clip-rule="evenodd" d="M8.25 11C8.25 10.5858 8.58579 10.25 9 10.25H15C15.4142 10.25 15.75 10.5858 15.75 11C15.75 11.4142 15.4142 11.75 15 11.75H9C8.58579 11.75 8.25 11.4142 8.25 11Z" fill="color2"/>
<path fill-rule="evenodd" clip-rule="evenodd" d="M13.7184 20.8548L13.3895 21.2891L13.4601 21.2C12.6501 22.27 11.3401 22.27 10.5301 21.2L9.52008 19.85C8.80007 18.89 7.55006 18.82 6.73004 19.7C4.96002 21.59 3.5 20.97 3.5 18.3V7.04C3.5 3.01 4.44001 2 8.22006 2H15.7802C19.5602 2 20.5002 3.01 20.4902 7.04V11.8926C20.4902 12.2555 20.0631 12.5 19.7002 12.5C19.3659 12.5 18.9902 12.273 18.9902 11.9388V7.04V7.03628C18.9953 4.99822 18.7218 4.31273 18.4602 4.03255C18.2315 3.78769 17.6679 3.5 15.7802 3.5H8.22006C6.33304 3.5 5.76814 3.78742 5.53791 4.03352C5.27439 4.31519 5.00002 5.00211 5.00002 7.04V18.3C5.00002 18.6914 5.03945 18.9723 5.08678 19.1616C5.22648 19.0665 5.41124 18.9136 5.63409 18.6758C6.32596 17.9342 7.26576 17.5339 8.24413 17.5872C9.22252 17.6405 10.1129 18.1404 10.7201 18.95L10.7212 18.9514L10.784 19.0354L10.8468 19.1193L10.9724 19.2872L11.2236 19.623L11.4748 19.9588L11.7261 20.2946L11.7281 20.2973C11.812 20.4075 11.8838 20.4581 11.9247 20.48C11.9645 20.5013 11.9869 20.5025 11.9951 20.5025C12.0033 20.5025 12.0257 20.5013 12.0655 20.48C12.1064 20.4581 12.1782 20.4075 12.262 20.2974L12.2642 20.2946C12.5452 19.9189 12.9533 19.67 13.3317 19.9474C13.4117 20.006 13.5003 20.0782 13.5981 20.1669C13.8209 20.3689 13.9053 20.6193 13.7184 20.8548Z" fill="color2"/>
</svg>
