<svg width="21" height="20" viewBox="0 0 21 20" fill="none" xmlns="http://www.w3.org/2000/svg">
<path d="M6.00004 9.79166C6.00004 9.44648 6.27986 9.16666 6.62504 9.16666H9.54171V6.45832C9.54171 6.11315 9.82153 5.83332 10.1667 5.83332C10.5119 5.83332 10.7917 6.11315 10.7917 6.45832V9.16666H13.7084C14.0536 9.16666 14.3334 9.44648 14.3334 9.79166C14.3334 10.1368 14.0536 10.4167 13.7084 10.4167H10.7917V13.5417C10.7917 13.8868 10.5119 14.1667 10.1667 14.1667C9.82153 14.1667 9.54171 13.8868 9.54171 13.5417V10.4167H6.62504C6.27986 10.4167 6.00004 10.1368 6.00004 9.79166Z" fill="currentColor"/>
<path fill-rule="evenodd" clip-rule="evenodd" d="M10.1667 18.3333C14.7691 18.3333 18.5 14.6024 18.5 9.99999C18.5 5.39762 14.7691 1.66666 10.1667 1.66666C5.56433 1.66666 1.83337 5.39762 1.83337 9.99999C1.83337 14.6024 5.56433 18.3333 10.1667 18.3333ZM10.1667 17.0833C14.0787 17.0833 17.25 13.912 17.25 9.99999C17.25 6.08797 14.0787 2.91666 10.1667 2.91666C6.25469 2.91666 3.08337 6.08797 3.08337 9.99999C3.08337 13.912 6.25469 17.0833 10.1667 17.0833Z" fill="currentColor"/>
</svg>
