<svg width="15" height="20" viewBox="0 0 15 20" fill="none" xmlns="http://www.w3.org/2000/svg">
<path fill-rule="evenodd" clip-rule="evenodd" d="M8.5 1.5C8.5 1.08579 8.16421 0.75 7.75 0.75C7.33579 0.75 7 1.08579 7 1.5V16.6896L2.21002 11.8997C1.91712 11.6068 1.44225 11.6068 1.14936 11.8997C0.856464 12.1926 0.856464 12.6674 1.14936 12.9603L7.21936 19.0303C7.36001 19.171 7.55078 19.25 7.74969 19.25C7.9486 19.25 8.13937 19.171 8.28002 19.0303L14.35 12.9603C14.6429 12.6674 14.6429 12.1926 14.35 11.8997C14.0571 11.6068 13.5822 11.6068 13.2894 11.8997L8.5 16.689V1.5Z" fill="currentColor"/>
</svg>
