<svg width="12" height="12" viewBox="0 0 12 12" fill="none" xmlns="http://www.w3.org/2000/svg">
<path fill-rule="evenodd" clip-rule="evenodd" d="M6.50008 0.666504C6.50008 0.390362 6.27622 0.166504 6.00008 0.166504C5.72394 0.166504 5.50008 0.390362 5.50008 0.666504V5.49984H0.666748C0.390606 5.49984 0.166748 5.7237 0.166748 5.99984C0.166748 6.27598 0.390606 6.49984 0.666748 6.49984H5.50008V11.3332C5.50008 11.6093 5.72394 11.8332 6.00008 11.8332C6.27622 11.8332 6.50008 11.6093 6.50008 11.3332V6.49984H11.3334C11.6096 6.49984 11.8334 6.27598 11.8334 5.99984C11.8334 5.7237 11.6096 5.49984 11.3334 5.49984H6.50008V0.666504Z" fill="color1"/>
</svg>
