<svg width="19" height="16" viewBox="0 0 19 16" fill="none" xmlns="http://www.w3.org/2000/svg">
<path fill-rule="evenodd" clip-rule="evenodd" d="M4.36317 13.8291L4.36669 13.8291H11.7084C12.0535 13.8291 12.3334 14.1089 12.3334 14.4541V14.4865C12.3334 14.8138 12.068 15.0791 11.7408 15.0791H4.36669C1.40835 15.0874 0.666687 14.3541 0.666687 11.4291V4.57911C0.666687 1.65411 1.40835 0.920776 4.36669 0.920776H13.625C16.5917 0.920776 17.3334 1.65411 17.3334 4.57911V8.28175C17.3334 8.5864 17.0864 8.83337 16.7817 8.83337H16.7084C16.3632 8.83337 16.0834 8.55355 16.0834 8.20838V5.71239H1.91669V11.4291C1.91669 12.8986 2.13318 13.3143 2.28533 13.4644C2.44206 13.6191 2.87383 13.8333 4.36317 13.8291ZM1.91715 4.46239H16.0829C16.0717 3.08785 15.8629 2.69003 15.7137 2.54276C15.5545 2.3857 15.1189 2.17078 13.625 2.17078H4.36669C2.87753 2.17078 2.44433 2.38557 2.28618 2.54194C2.13709 2.68935 1.92832 3.08792 1.91715 4.46239ZM3.37502 11.7541C3.37502 11.4089 3.65484 11.1291 4.00002 11.1291H6.50002C6.8452 11.1291 7.12502 11.4089 7.12502 11.7541C7.12502 12.0993 6.8452 12.3791 6.50002 12.3791H4.00002C3.65484 12.3791 3.37502 12.0993 3.37502 11.7541ZM8.58335 11.1292C8.23818 11.1292 7.95835 11.409 7.95835 11.7542C7.95835 12.0993 8.23818 12.3792 8.58335 12.3792H9.41669C9.76186 12.3792 10.0417 12.0993 10.0417 11.7542C10.0417 11.409 9.76186 11.1292 9.41669 11.1292H8.58335ZM15.875 9.66671C16.2202 9.66671 16.5 9.94653 16.5 10.2917V11.75H17.9584C18.3035 11.75 18.5834 12.0299 18.5834 12.375C18.5834 12.7202 18.3035 13 17.9584 13H16.5V14.4584C16.5 14.8036 16.2202 15.0834 15.875 15.0834C15.5298 15.0834 15.25 14.8036 15.25 14.4584V13H13.7917C13.4465 13 13.1667 12.7202 13.1667 12.375C13.1667 12.0299 13.4465 11.75 13.7917 11.75H15.25V10.2917C15.25 9.94653 15.5298 9.66671 15.875 9.66671Z" fill="color1"/>
</svg>
