<svg width="21" height="20" viewBox="0 0 21 20" fill="none" xmlns="http://www.w3.org/2000/svg">
<path d="M10.5001 1.66663C5.90841 1.66663 2.16675 5.40829 2.16675 9.99996C2.16675 14.5916 5.90841 18.3333 10.5001 18.3333C15.0917 18.3333 18.8334 14.5916 18.8334 9.99996C18.8334 5.40829 15.0917 1.66663 10.5001 1.66663ZM14.4834 8.08329L9.75841 12.8083C9.64175 12.925 9.48341 12.9916 9.31675 12.9916C9.15008 12.9916 8.99175 12.925 8.87508 12.8083L6.51675 10.45C6.27508 10.2083 6.27508 9.80829 6.51675 9.56663C6.75841 9.32496 7.15841 9.32496 7.40008 9.56663L9.31675 11.4833L13.6001 7.19996C13.8417 6.95829 14.2417 6.95829 14.4834 7.19996C14.7251 7.44163 14.7251 7.83329 14.4834 8.08329Z" fill="color1"/>
</svg>
