<svg width="21" height="20" viewBox="0 0 21 20" fill="none" xmlns="http://www.w3.org/2000/svg">
<path fill-rule="evenodd" clip-rule="evenodd" d="M18.8334 9.99996C18.8334 14.6023 15.1025 18.3333 10.5001 18.3333C5.89771 18.3333 2.16675 14.6023 2.16675 9.99996C2.16675 5.39759 5.89771 1.66663 10.5001 1.66663C15.1025 1.66663 18.8334 5.39759 18.8334 9.99996ZM6.33342 9.79163C6.33342 9.44645 6.61324 9.16663 6.95842 9.16663H9.87508V6.45829C9.87508 6.11311 10.1549 5.83329 10.5001 5.83329C10.8453 5.83329 11.1251 6.11311 11.1251 6.45829V9.16663H14.0417C14.3869 9.16663 14.6667 9.44645 14.6667 9.79163C14.6667 10.1368 14.3869 10.4166 14.0417 10.4166H11.1251V13.5416C11.1251 13.8868 10.8453 14.1666 10.5001 14.1666C10.1549 14.1666 9.87508 13.8868 9.87508 13.5416V10.4166H6.95842C6.61324 10.4166 6.33342 10.1368 6.33342 9.79163Z" fill="color1"/>
</svg>
