<svg width="16" height="17" viewBox="0 0 16 17" fill="none" xmlns="http://www.w3.org/2000/svg">
<path d="M11.0668 8.57337L5.60016 13.84C5.46683 13.9734 5.3335 14.04 5.1335 14.04C4.7335 14.04 4.46683 13.7067 4.46683 13.3734C4.46683 13.1734 4.5335 13.04 4.66683 12.9067L9.66683 8.04004L4.66683 3.24004C4.5335 3.1067 4.46683 2.9067 4.46683 2.7067C4.46683 2.3067 4.80016 2.04004 5.1335 2.04004C5.3335 2.04004 5.46683 2.1067 5.60016 2.24004L11.0668 7.50671C11.2002 7.64004 11.3335 7.84004 11.3335 8.04004C11.3335 8.24004 11.2002 8.44004 11.0668 8.57337Z" fill="white"/>
</svg>
