<svg width="16" height="16" viewBox="0 0 16 16" fill="none" xmlns="http://www.w3.org/2000/svg">
<path fill-rule="evenodd" clip-rule="evenodd" d="M11.3687 2.90933C11.6039 2.80193 11.7091 2.52064 11.6036 2.28106C11.4982 2.04147 11.2221 1.93431 10.9869 2.04171L1.27589 6.01981C1.04071 6.12721 0.935518 6.4085 1.04094 6.64808C1.14637 6.88767 1.42249 6.99483 1.65767 6.88743L2.55566 6.47734V13L14.0665 12.9995V9.69734L14.3856 9.8057C14.6301 9.88873 14.8944 9.75411 14.9759 9.50503C15.0574 9.25594 14.9253 8.98671 14.6808 8.90368L13.7522 8.58835L10.7111 7.5V3.20962L11.3687 2.90933ZM7.42495 12.0492H9.77771L9.77782 3.63584L3.48898 6.05112V12.0492H4.57495V8.57495H7.42495V12.0492ZM5.42495 12.0492H6.57495V9.42495H5.42495V12.0492ZM10.7111 12.0486V8.5L13.1332 9.37278V12.0486H10.7111Z" fill="#F04F24"/>
</svg>
