<svg width="16" height="16" viewBox="0 0 16 16" fill="none" xmlns="http://www.w3.org/2000/svg">
<path fill-rule="evenodd" clip-rule="evenodd" d="M8 16C12.4183 16 16 12.4183 16 8C16 3.58172 12.4183 0 8 0C3.58172 0 0 3.58172 0 8C0 12.4183 3.58172 16 8 16ZM7.75871 5.13017C7.58515 4.95661 7.30374 4.95661 7.13017 5.13017C6.95661 5.30374 6.95661 5.58515 7.13017 5.75871L9.48257 8.11111L7.13017 10.4635C6.95661 10.6371 6.95661 10.9185 7.13017 11.092C7.30374 11.2656 7.58515 11.2656 7.75871 11.092L10.4254 8.42538C10.5989 8.25181 10.5989 7.97041 10.4254 7.79684L7.75871 5.13017Z" fill="#D9D9D9"/>
</svg>
