<svg width="24" height="24" viewBox="0 0 24 24" fill="none" xmlns="http://www.w3.org/2000/svg">
<path d="M19.5002 16.7996H12.8002C12.6411 16.7996 12.4885 16.7364 12.3759 16.6239C12.2634 16.5114 12.2002 16.3587 12.2002 16.1996C12.2002 16.0405 12.2634 15.8879 12.3759 15.7753C12.4885 15.6628 12.6411 15.5996 12.8002 15.5996H19.5002C19.6555 15.6112 19.8015 15.6781 19.9116 15.7882C20.0217 15.8983 20.0886 16.0443 20.1002 16.1996C20.103 16.2792 20.0894 16.3584 20.0602 16.4325C20.0311 16.5065 19.987 16.5738 19.9307 16.6301C19.8744 16.6864 19.8071 16.7305 19.7331 16.7596C19.659 16.7888 19.5797 16.8024 19.5002 16.7996V16.7996Z" fill="white"/>
<path d="M16.2001 20.1002C16.0448 20.0886 15.8988 20.0217 15.7887 19.9116C15.6786 19.8015 15.6116 19.6555 15.6001 19.5002V12.8002C15.6001 12.6411 15.6633 12.4885 15.7758 12.3759C15.8884 12.2634 16.041 12.2002 16.2001 12.2002C16.3592 12.2002 16.5118 12.2634 16.6244 12.3759C16.7369 12.4885 16.8001 12.6411 16.8001 12.8002V19.5002C16.8029 19.5797 16.7893 19.659 16.7601 19.7331C16.731 19.8071 16.6869 19.8744 16.6306 19.9307C16.5743 19.987 16.507 20.0311 16.433 20.0602C16.3589 20.0894 16.2796 20.103 16.2001 20.1002Z" fill="white"/>
<path d="M10.5002 4.2002H5.2002C4.93498 4.2002 4.68063 4.30555 4.49309 4.49309C4.30555 4.68063 4.2002 4.93498 4.2002 5.2002V10.5002C4.2002 10.7654 4.30555 11.0198 4.49309 11.2073C4.68063 11.3948 4.93498 11.5002 5.2002 11.5002H10.5002C10.7654 11.5002 11.0198 11.3948 11.2073 11.2073C11.3948 11.0198 11.5002 10.7654 11.5002 10.5002V5.2002C11.4837 4.94039 11.373 4.69552 11.189 4.51144C11.0049 4.32736 10.76 4.2167 10.5002 4.2002Z" fill="white"/>
<path d="M18.8 4.20029H13.5C13.2348 4.20029 12.9804 4.30565 12.7929 4.49319C12.6054 4.68072 12.5 4.93508 12.5 5.20029V10.5003C12.5 10.7655 12.6054 11.0199 12.7929 11.2074C12.9804 11.3949 13.2348 11.5003 13.5 11.5003H18.8C19.0652 11.5003 19.3196 11.3949 19.5071 11.2074C19.6946 11.0199 19.8 10.7655 19.8 10.5003V5.20029C19.8088 5.06668 19.789 4.93273 19.7419 4.8074C19.6948 4.68206 19.6214 4.56824 19.5267 4.47356C19.432 4.37888 19.3182 4.30552 19.1929 4.25839C19.0676 4.21126 18.9336 4.19145 18.8 4.20029V4.20029Z" fill="white"/>
<path d="M10.5002 12.5996H5.2002C4.93498 12.5996 4.68063 12.705 4.49309 12.8925C4.30555 13.08 4.2002 13.3344 4.2002 13.5996V18.8996C4.2002 19.1648 4.30555 19.4192 4.49309 19.6067C4.68063 19.7943 4.93498 19.8996 5.2002 19.8996H10.5002C10.7654 19.8996 11.0198 19.7943 11.2073 19.6067C11.3948 19.4192 11.5002 19.1648 11.5002 18.8996V13.5996C11.4837 13.3398 11.373 13.0949 11.189 12.9109C11.0049 12.7268 10.76 12.6161 10.5002 12.5996V12.5996Z" fill="white"/>
</svg>
