<svg width="24" height="24" viewBox="0 0 24 24" fill="none" xmlns="http://www.w3.org/2000/svg">
<g clip-path="url(#clip0_217_65859)">
<path d="M10.2002 5.4002V10.2002H5.4002V5.4002H10.2002ZM10.5002 4.2002H5.2002C4.7002 4.2002 4.2002 4.6002 4.2002 5.2002V10.5002C4.2002 11.0002 4.6002 11.5002 5.2002 11.5002H10.5002C11.0002 11.5002 11.5002 11.1002 11.5002 10.5002V5.2002C11.4002 4.6002 11.0002 4.2002 10.5002 4.2002Z" fill="currentColor"/>
<path d="M10.2002 13.7996V18.5996H5.4002V13.7996H10.2002ZM10.5002 12.5996H5.2002C4.7002 12.5996 4.2002 12.9996 4.2002 13.5996V18.8996C4.2002 19.3996 4.6002 19.8996 5.2002 19.8996H10.5002C11.0002 19.8996 11.5002 19.4996 11.5002 18.8996V13.5996C11.4002 12.9996 11.0002 12.5996 10.5002 12.5996Z" fill="currentColor"/>
<path d="M18.6 5.4002V10.2002H13.8V5.4002H18.6ZM18.8 4.2002H13.5C13 4.2002 12.5 4.6002 12.5 5.2002V10.5002C12.5 11.0002 12.9 11.5002 13.5 11.5002H18.8C19.3 11.5002 19.8 11.1002 19.8 10.5002V5.2002C19.8 4.6002 19.4 4.2002 18.8 4.2002Z" fill="currentColor"/>
<path fill-rule="evenodd" clip-rule="evenodd" d="M15.6002 19.5002C15.6002 19.8002 15.9002 20.1002 16.2002 20.1002C16.5002 20.1002 16.8002 19.9002 16.8002 19.5002V16.8002H19.5002C19.9002 16.8002 20.1002 16.5002 20.1002 16.2002C20.1002 15.9002 19.8002 15.6002 19.5002 15.6002H16.8002V12.8002C16.8002 12.5002 16.5002 12.2002 16.2002 12.2002C15.9002 12.2002 15.6002 12.5002 15.6002 12.8002V15.6002H12.8002C12.5002 15.6002 12.2002 15.9002 12.2002 16.2002C12.2002 16.5002 12.5002 16.8002 12.8002 16.8002H15.6002V19.5002Z" fill="currentColor"/>
</g>
<defs>
<clipPath id="clip0_217_65859">
<rect width="24" height="24" fill="currentColor"/>
</clipPath>
</defs>
</svg>
