<svg width="width" height="height" viewBox="0 0 24 24" fill="none" xmlns="http://www.w3.org/2000/svg">
<path fill-rule="evenodd" clip-rule="evenodd" d="M3.75 7.52778C3.75 5.8211 5.05965 4.5 6.6 4.5L17.4 4.5C18.9404 4.5 20.25 5.82111 20.25 7.52778C20.25 8.9484 19.3426 10.1019 18.15 10.4486V7.52778C18.15 7.32887 18.071 7.1381 17.9303 6.99745C17.7897 6.8568 17.5989 6.77778 17.4 6.77778L6.6 6.77778C6.40109 6.77778 6.21032 6.8568 6.06967 6.99745C5.92902 7.1381 5.85 7.32887 5.85 7.52778V10.4486C4.65742 10.1019 3.75 8.9484 3.75 7.52778ZM21.75 7.52778C21.75 9.73444 20.2177 11.6172 18.15 11.989L18.15 18.75C18.15 20.2688 16.9188 21.5 15.4 21.5H8.6C7.08122 21.5 5.85 20.2688 5.85 18.75V11.989C3.78234 11.6172 2.25 9.73444 2.25 7.52778C2.25 5.06163 4.1639 3 6.6 3H17.4C19.8361 3 21.75 5.06163 21.75 7.52778ZM7.35 18.75V8.27778L16.65 8.27778L16.65 18.75C16.65 19.4404 16.0904 20 15.4 20H8.6C7.90965 20 7.35 19.4404 7.35 18.75ZM10.5303 15.2196L11.25 15.9392V11.7499C11.25 11.3357 11.5858 10.9999 12 10.9999C12.4142 10.9999 12.75 11.3357 12.75 11.7499V15.9392L13.4697 15.2196C13.7626 14.9267 14.2374 14.9267 14.5303 15.2196C14.8232 15.5125 14.8232 15.9873 14.5303 16.2802L13.2374 17.5731C12.554 18.2565 11.446 18.2565 10.7626 17.5731L9.46967 16.2802C9.17678 15.9873 9.17678 15.5125 9.46967 15.2196C9.76256 14.9267 10.2374 14.9267 10.5303 15.2196Z" fill="currentColor"/>
</svg>
