<svg width="24" height="24" viewBox="0 0 24 24" fill="none" xmlns="http://www.w3.org/2000/svg">
<path fill-rule="evenodd" clip-rule="evenodd" d="M13 5.66146C13.1556 5.48517 13.25 5.25361 13.25 5C13.25 4.44772 12.8023 4 12.25 4C11.6977 4 11.25 4.44772 11.25 5C11.25 5.25361 11.3444 5.48517 11.5 5.66146V6.0582L2.51905 7.40535C2.10942 7.46679 1.82715 7.84867 1.8886 8.2583C1.95004 8.66793 2.33193 8.9502 2.74156 8.88875L4.62664 8.60599L1.65524 15.0254C1.53995 15.2744 1.49293 15.5604 1.50085 15.8359C1.50028 15.8628 1.5 15.8897 1.5 15.9167C1.5 17.9877 3.17893 19.6667 5.25 19.6667C7.32107 19.6667 9 17.9877 9 15.9167C9 15.8897 8.99972 15.8628 8.99915 15.836C9.00707 15.5604 8.96005 15.2744 8.84476 15.0254L5.80604 8.46055C5.80143 8.4506 5.79676 8.44081 5.79202 8.43118L11.5 7.57498V20.25C11.5 20.6642 11.8358 21 12.25 21C12.6642 21 13 20.6642 13 20.25V7.34998L18.1391 6.57912L15.1552 13.0254C15.04 13.2744 14.9929 13.5604 15.0009 13.8359C15.0003 13.8628 15 13.8897 15 13.9167C15 15.9877 16.6789 17.6667 18.75 17.6667C20.8211 17.6667 22.5 15.9877 22.5 13.9167C22.5 13.8897 22.4997 13.8628 22.4991 13.836C22.5071 13.5604 22.4601 13.2744 22.3448 13.0254L19.306 6.46055C19.2977 6.44248 19.2891 6.42494 19.2803 6.40794L21.2582 6.11126C21.6678 6.04982 21.95 5.66793 21.8886 5.2583C21.8272 4.84867 21.4453 4.56641 21.0356 4.62786L13 5.8332V5.66146ZM3.08844 15.5L5.25 10.8302L7.41156 15.5H3.08844ZM3.27749 17C3.66025 17.6954 4.40009 18.1667 5.25 18.1667C6.09991 18.1667 6.83975 17.6954 7.22251 17H3.27749ZM18.75 8.83019L16.5884 13.5H20.9116L18.75 8.83019ZM18.75 16.1667C17.9001 16.1667 17.1602 15.6954 16.7775 15H20.7225C20.3398 15.6954 19.5999 16.1667 18.75 16.1667Z" fill="#1B1D29"/>
</svg>
