<svg width="20" height="20" viewBox="0 0 20 20" fill="none" xmlns="http://www.w3.org/2000/svg">
<path fill-rule="evenodd" clip-rule="evenodd" d="M6.04166 5.83331C6.04166 5.48814 6.32148 5.20831 6.66666 5.20831H13.3333C13.6785 5.20831 13.9583 5.48814 13.9583 5.83331C13.9583 6.17849 13.6785 6.45831 13.3333 6.45831H6.66666C6.32148 6.45831 6.04166 6.17849 6.04166 5.83331Z" fill="currentColor"/>
<path fill-rule="evenodd" clip-rule="evenodd" d="M6.875 9.16669C6.875 8.82151 7.15482 8.54169 7.5 8.54169H12.5C12.8452 8.54169 13.125 8.82151 13.125 9.16669C13.125 9.51186 12.8452 9.79169 12.5 9.79169H7.5C7.15482 9.79169 6.875 9.51186 6.875 9.16669Z" fill="currentColor"/>
<path fill-rule="evenodd" clip-rule="evenodd" d="M11.9423 16.5398C12.5073 15.7399 13.4883 15.6816 14.1318 16.4148C15.5287 17.998 16.6666 17.473 16.6666 15.2567V5.86616C16.6744 2.50825 15.9368 1.66669 12.9703 1.66669H7.03745C4.07102 1.66669 3.33333 2.50825 3.33333 5.86616V15.2483C3.33333 17.473 4.4791 17.9896 5.86814 16.4148C6.51166 15.6816 7.49262 15.7399 8.05766 16.5398L8.85028 17.6647C9.48594 18.5562 10.514 18.5562 11.1497 17.6647L11.9423 16.5398ZM10.1303 16.9412L10.1319 16.939L10.9213 15.8186C11.3973 15.1448 12.1161 14.7019 12.9355 14.6545C13.7562 14.607 14.5225 14.9657 15.0701 15.589C15.1836 15.7175 15.2834 15.815 15.3678 15.8884C15.3961 15.7322 15.4166 15.5241 15.4166 15.2567V5.86324C15.4206 4.15799 15.2038 3.56987 14.9952 3.33277C14.8373 3.15317 14.4393 2.91669 12.9703 2.91669H7.03745C5.56906 2.91669 5.17001 3.15295 5.01084 3.33359C4.80091 3.57185 4.58333 4.16103 4.58333 5.86616V15.2483C4.58333 15.5197 4.60445 15.7298 4.6333 15.887C4.71761 15.8139 4.81525 15.7189 4.92865 15.5903C5.47635 14.9662 6.24318 14.607 7.06448 14.6545C7.88381 14.7019 8.60266 15.1448 9.07863 15.8186L9.07947 15.8198L9.86807 16.939L9.8696 16.9412C9.92885 17.0237 9.97679 17.061 9.99997 17.0758C10.0231 17.061 10.0711 17.0238 10.1303 16.9412Z" fill="currentColor"/>
</svg>
