<svg width="193" height="255" viewBox="0 0 193 255" fill="none" xmlns="http://www.w3.org/2000/svg">
<g clip-path="url(#clip0_64_19259)">
<g style="mix-blend-mode:lighten" opacity="0.3">
<path d="M134.127 103.828C150.003 103.828 162.872 90.958 162.872 75.0827C162.872 59.2073 150.003 46.3378 134.127 46.3378C118.252 46.3378 105.382 59.2073 105.382 75.0827C105.382 90.958 118.252 103.828 134.127 103.828Z" fill="url(#paint0_linear_64_19259)"/>
<path d="M22.1327 219.676C38.0081 219.676 50.8777 206.806 50.8777 190.931C50.8777 175.055 38.0081 162.186 22.1327 162.186C6.25728 162.186 -6.6123 175.055 -6.6123 190.931C-6.6123 206.806 6.25728 219.676 22.1327 219.676Z" fill="url(#paint1_linear_64_19259)"/>
<path d="M77.4423 83.1374V63.1031C77.4423 55.2636 81.1443 47.8596 87.895 43.5043C98.3477 36.9714 104.663 24.3411 102.485 10.6219C100.308 -2.66174 89.6371 -13.3322 76.3535 -15.7276C62.6343 -18.123 50.4395 -11.8079 43.6888 -1.57292C39.5512 4.96001 31.9294 8.66201 24.3077 8.66201H4.05559C-3.78394 8.66201 -11.4057 4.74224 -15.5432 -2.00845C-22.0762 -12.6789 -34.7064 -19.2118 -48.4256 -16.8164C-62.7981 -14.421 -73.9042 -2.44398 -75.2108 11.9285C-76.2996 24.5588 -70.2022 35.8826 -60.6205 41.98C-54.0876 46.1175 -50.3856 53.7393 -50.3856 61.361V82.7019C-50.3856 90.5414 -54.0876 97.9454 -60.6205 102.083C-70.8554 108.834 -77.1706 121.246 -74.9929 134.748C-72.8153 148.031 -61.927 158.702 -48.8612 160.879C-35.142 163.275 -22.7294 156.96 -16.1965 146.507C-12.059 139.974 -4.43728 136.272 3.18448 136.272H25.1788C33.2361 136.272 40.8578 140.192 44.9953 147.16C52.3993 159.137 67.4251 166.106 83.322 160.879C92.6858 157.831 100.307 150.209 103.356 140.845C108.365 124.73 101.396 109.705 88.9838 102.518C81.7975 99.252 77.4423 91.4125 77.4423 83.1374ZM26.7032 122.553H2.74905C-5.30824 122.553 -12.4945 118.198 -16.8498 111.665C-19.0274 108.398 -21.8584 105.567 -25.1249 103.39C-31.6579 98.8165 -36.0131 91.6303 -36.0131 83.7907V61.361C-36.0131 53.5215 -31.8756 46.7708 -25.3426 42.4155C-22.0762 40.2379 -19.463 37.6247 -17.0676 34.3582C-12.4945 28.043 -5.52603 23.9055 2.3135 23.9055H24.3077C32.1472 23.9055 39.3335 28.2608 43.6888 34.7937C45.8664 38.0602 48.6973 40.8911 51.9638 43.0688C58.4967 47.6418 62.852 54.8281 62.852 62.6676V87.4927C62.852 94.679 59.1501 100.994 53.4882 105.349C50.6572 107.527 48.2618 109.922 46.302 112.971C41.7289 119.069 34.3249 122.553 26.7032 122.553Z" fill="url(#paint2_linear_64_19259)"/>
</g>
</g>
<defs>
<linearGradient id="paint0_linear_64_19259" x1="162.872" y1="75.0827" x2="106.593" y2="78.1374" gradientUnits="userSpaceOnUse">
<stop offset="0.11918" stop-color="#4A4A4A"/>
<stop offset="1" stop-color="#232323"/>
</linearGradient>
<linearGradient id="paint1_linear_64_19259" x1="50.8777" y1="190.931" x2="-5.40161" y2="193.985" gradientUnits="userSpaceOnUse">
<stop offset="0.11918" stop-color="#4A4A4A"/>
<stop offset="1" stop-color="#232323"/>
</linearGradient>
<linearGradient id="paint2_linear_64_19259" x1="104.993" y1="72.6635" x2="-71.6198" y2="82.2745" gradientUnits="userSpaceOnUse">
<stop offset="0.11918" stop-color="#4A4A4A"/>
<stop offset="1" stop-color="#232323"/>
</linearGradient>
<clipPath id="clip0_64_19259">
<rect width="193" height="255" fill="white"/>
</clipPath>
</defs>
</svg>
