<svg width="223" height="157" viewBox="0 0 223 157" fill="none" xmlns="http://www.w3.org/2000/svg">
<path d="M148.937 134.23C152.691 141.148 156.951 142.908 162.235 134.23H148.937Z" fill="#85AEE9"/>
<path d="M75.7969 134.23C79.5517 141.148 83.8112 142.908 89.095 134.23H75.7969Z" fill="#85AEE9"/>
<path d="M165.658 26.3037H72.4527C69.0535 26.3037 66.2979 29.1402 66.2979 32.6392V128.58C66.2979 132.079 69.0535 134.915 72.4527 134.915H165.658C169.057 134.915 171.812 132.079 171.812 128.58V32.6392C171.812 29.1402 169.057 26.3037 165.658 26.3037Z" fill="url(#paint0_linear_2900_27200)"/>
<path d="M159.71 33.5225H78.3213C75.3533 33.5225 72.9473 35.9991 72.9473 39.0542V122.832C72.9473 125.887 75.3533 128.364 78.3213 128.364H159.71C162.678 128.364 165.085 125.887 165.085 122.832V39.0542C165.085 35.9991 162.678 33.5225 159.71 33.5225Z" fill="white"/>
<path d="M167.048 63.6861C166.528 63.6861 166.028 63.4673 165.66 63.0778C165.292 62.6884 165.085 62.1601 165.085 61.6093V48.587C165.085 48.0362 165.292 47.5079 165.66 47.1185C166.028 46.729 166.528 46.5103 167.048 46.5103C167.569 46.5104 168.068 46.7293 168.436 47.1187C168.804 47.5081 169.011 48.0363 169.011 48.587V61.6093C169.011 62.16 168.804 62.6882 168.436 63.0776C168.068 63.467 167.569 63.6859 167.048 63.6861Z" fill="white"/>
<path d="M169.011 48.6308V52.0671C169.011 51.5039 168.804 50.9637 168.436 50.5655C168.068 50.1672 167.569 49.9435 167.048 49.9435C166.527 49.9435 166.028 50.1672 165.66 50.5655C165.292 50.9637 165.085 51.5039 165.085 52.0671V48.6339C165.085 48.0707 165.292 47.5305 165.66 47.1323C166.028 46.734 166.527 46.5103 167.048 46.5103C167.569 46.5103 168.068 46.734 168.436 47.1323C168.804 47.5305 169.011 48.0707 169.011 48.6339V48.6308Z" fill="white"/>
<path d="M167.048 115.719C166.528 115.719 166.028 115.5 165.66 115.111C165.292 114.721 165.085 114.193 165.085 113.642V100.62C165.085 100.069 165.292 99.5407 165.66 99.1512C166.028 98.7618 166.528 98.543 167.048 98.543C167.569 98.5431 168.068 98.762 168.436 99.1514C168.804 99.5409 169.011 100.069 169.011 100.62V113.642C169.011 114.193 168.804 114.721 168.436 115.11C168.068 115.5 167.569 115.719 167.048 115.719Z" fill="white"/>
<path d="M169.011 100.708V105.615C169.011 105.041 168.804 104.49 168.436 104.084C168.068 103.678 167.569 103.45 167.048 103.45C166.527 103.45 166.028 103.678 165.66 104.084C165.292 104.49 165.085 105.041 165.085 105.615V100.708C165.085 100.134 165.292 99.5833 165.66 99.1772C166.028 98.7711 166.527 98.543 167.048 98.543C167.569 98.543 168.068 98.7711 168.436 99.1772C168.804 99.5833 169.011 100.134 169.011 100.708Z" fill="white"/>
<path d="M92.2754 79.5283L82.1493 93.7143L63.8533 79.7514L56.1443 73.8681L66.2702 59.6828L80.6642 70.6674L92.2754 79.5283Z" fill="url(#paint1_linear_2900_27200)"/>
<path d="M89.6573 79.9797L81.796 90.9926L58.4217 73.1546L66.2835 62.1415L89.6573 79.9797ZM82.4358 89.3938L88.3648 81.0866C88.4605 80.9526 88.5297 80.8003 88.5684 80.6385C88.6072 80.4768 88.6147 80.3087 88.5906 80.1439C88.5665 79.9791 88.5113 79.8208 88.428 79.6781C88.3447 79.5354 88.2351 79.4111 88.1053 79.3122L67.3737 63.4892C67.1069 63.286 66.773 63.2007 66.4455 63.2519C66.1179 63.3031 65.8235 63.4868 65.6269 63.7624L59.7221 72.035C59.6254 72.1704 59.5555 72.3241 59.5163 72.4874C59.477 72.6507 59.4693 72.8204 59.4936 72.9868C59.5178 73.1533 59.5735 73.3131 59.6575 73.4573C59.7415 73.6015 59.8522 73.7271 59.9831 73.8271L80.7283 89.6586C80.9888 89.8575 81.315 89.9413 81.6352 89.8917C81.9554 89.8421 82.2434 89.663 82.4358 89.3938Z" fill="#C0D8FB"/>
<path d="M71.9258 79.5304C71.3589 79.0978 70.9287 78.501 70.6898 77.8157C70.4508 77.1304 70.4138 76.3873 70.5833 75.6803C70.7529 74.9733 71.1214 74.3343 71.6423 73.8439C72.1632 73.3536 72.8131 73.034 73.5097 72.9256C74.2064 72.8172 74.9186 72.9248 75.5562 73.2349C76.1939 73.5449 76.7283 74.0434 77.092 74.6674C77.4556 75.2914 77.6322 76.0129 77.5993 76.7405C77.5664 77.4681 77.3256 78.1693 76.9072 78.7552C76.3462 79.541 75.5063 80.0641 74.5721 80.2095C73.6379 80.3549 72.686 80.1106 71.9258 79.5304Z" fill="#C0D8FB"/>
<path d="M102.67 76.7231L85.0792 83.0726L76.9648 58.9211L73.5458 48.7447L91.1363 42.3957L97.5204 61.3961L102.67 76.7231Z" fill="url(#paint2_linear_2900_27200)"/>
<path d="M100.045 75.4707L86.3883 80.3998L76.0214 49.5451L89.6784 44.616L100.045 75.4707ZM87.9197 79.3667L98.2201 75.6479C98.3864 75.5879 98.5397 75.4947 98.6712 75.3738C98.8028 75.2528 98.9101 75.1063 98.9869 74.9428C99.0637 74.7793 99.1086 74.6018 99.119 74.4207C99.1294 74.2395 99.1051 74.0582 99.0474 73.887L89.8536 46.5192C89.735 46.1674 89.4857 45.8791 89.1603 45.7177C88.835 45.5563 88.4603 45.5351 88.1187 45.6586L77.8606 49.3615C77.6927 49.422 77.5379 49.516 77.405 49.6381C77.2721 49.7602 77.1637 49.908 77.086 50.0731C77.0083 50.2382 76.9629 50.4173 76.9523 50.6002C76.9417 50.7832 76.9661 50.9663 77.0242 51.1392L86.2251 78.5233C86.3406 78.8673 86.5839 79.1494 86.9017 79.3075C87.2195 79.4656 87.5856 79.4869 87.9197 79.3667Z" fill="#C0D8FB"/>
<path d="M84.3591 63.8348C84.1077 63.0864 84.0774 62.2771 84.2721 61.5091C84.4668 60.7412 84.8777 60.0491 85.4529 59.5204C86.028 58.9917 86.7416 58.6502 87.5034 58.5389C88.2652 58.4277 89.041 58.5518 89.7326 58.8956C90.4242 59.2393 91.0006 59.7872 91.389 60.4701C91.7773 61.1529 91.9602 61.94 91.9143 62.7317C91.8685 63.5235 91.5961 64.2844 91.1315 64.9183C90.667 65.5521 90.0311 66.0304 89.3044 66.2926C88.33 66.6443 87.2615 66.5829 86.3341 66.122C85.4067 65.661 84.6962 64.8383 84.3591 63.8348Z" fill="#C0D8FB"/>
<path d="M92.2653 77.47C90.4469 76.4764 88.7128 74.3267 87.6071 72.7288C86.5802 71.2424 85.639 69.3597 85.5133 67.5141C85.3876 65.6686 86.6845 64.1946 88.4748 64.0611C89.3593 63.9942 90.2375 64.2592 90.9469 64.807C91.5673 65.2928 91.7692 66.5686 92.6182 66.7214C94.1598 66.9967 94.5596 64.3088 94.9192 63.234C95.3925 61.8288 96.7777 60.0534 98.334 59.9309C101.008 59.7066 100.34 63.3083 101.027 64.902C101.277 65.4745 101.82 65.959 102.428 65.9287C102.919 65.9039 103.346 65.5543 103.631 65.1373C103.916 64.7203 104.075 64.2359 104.282 63.7762C105.184 61.7765 107.295 59.3405 109.681 60.308C114.124 62.1082 112.161 68.1527 110.415 71.2603C108.209 75.1868 103.873 77.5912 99.6135 78.2793C97.4422 78.6261 95.1719 78.5422 93.0728 77.8348C92.7939 77.7374 92.5237 77.6154 92.2653 77.47Z" fill="#FFDB6C"/>
<path d="M93.0669 77.8261C95.166 78.5335 97.4363 78.6175 99.6076 78.2706C103.867 77.5825 108.203 75.1795 110.409 71.2517C111.975 68.4634 113.711 63.323 110.855 60.9902C111.98 67.3926 105.349 72.1862 98.9445 73.239C92.5401 74.2918 86.4326 70.7204 86.4326 70.7204C86.7723 71.4193 87.1653 72.0894 87.6079 72.7243C88.7136 74.3221 90.4477 76.4718 92.266 77.4655C92.5225 77.6091 92.7904 77.7297 93.0669 77.8261Z" fill="#FFB103"/>
<path d="M89.2465 76.1417C89.0808 76.1421 88.9198 76.0856 88.7888 75.9812C88.6578 75.8769 88.5644 75.7305 88.5233 75.5653C88.4822 75.4002 88.4957 75.2256 88.5618 75.0693C88.6279 74.9129 88.7427 74.7837 88.8881 74.7021C95.1721 71.1499 103.146 70.6655 109.195 73.4634C109.375 73.5469 109.516 73.7006 109.586 73.8908C109.656 74.081 109.65 74.2921 109.569 74.4778C109.488 74.6634 109.339 74.8082 109.154 74.8805C108.969 74.9528 108.764 74.9465 108.584 74.8631C102.946 72.2482 95.4957 72.7134 89.5981 76.0426C89.4905 76.1048 89.3698 76.1388 89.2465 76.1417Z" fill="#7C5932"/>
<path d="M127.685 105.302C128.344 90.1745 116.391 73.2065 100.069 73.2065C89.155 73.2065 79.3305 82.3037 74.5787 91.7985C69.4687 102.009 72.1641 114.357 80.7491 121.975C89.7232 129.936 103.95 130.052 114.427 125.173C123.339 121.024 127.331 113.428 127.685 105.302Z" fill="#FFDB6C"/>
<path d="M115.396 78.7554C119.209 84.4861 121.312 91.417 121.025 98.0038C120.671 106.124 116.677 113.724 107.767 117.874C97.9239 122.459 84.7703 122.632 75.7734 116.034C77.1361 118.258 78.8128 120.26 80.7485 121.974C89.7226 129.936 103.95 130.052 114.427 125.173C123.338 121.023 127.33 113.428 127.685 105.302C128.111 95.5307 123.274 84.994 115.396 78.7554Z" fill="#FFB103"/>
<path d="M105.818 100.44C104.597 99.3865 103.071 98.7273 101.239 98.4621L98.9501 98.0947C98.3129 98.0133 97.7128 97.7416 97.224 97.3129C96.7534 96.8946 96.5185 96.3326 96.5194 95.627C96.5203 94.9215 96.7962 94.2934 97.3471 93.7429C97.8997 93.1924 98.6159 92.9171 99.4956 92.9171C100.375 92.9171 101.098 93.1061 101.663 93.4842C102.147 93.809 102.492 94.3714 102.699 95.1715C102.733 95.289 102.804 95.3916 102.901 95.4629C102.998 95.5342 103.115 95.5701 103.234 95.5651L106.666 95.4274C106.735 95.427 106.803 95.4122 106.866 95.384C106.929 95.3558 106.986 95.3147 107.033 95.2633C107.08 95.2118 107.117 95.1511 107.141 95.0847C107.164 95.0183 107.175 94.9476 107.171 94.8769C107.071 93.5366 106.48 92.2855 105.519 91.3757C104.488 90.3665 103.12 89.7095 101.417 89.4049C101.3 89.3861 101.193 89.3254 101.116 89.2334C101.038 89.1415 100.995 89.0243 100.993 88.9026V87.6433C100.989 87.5034 100.931 87.3708 100.832 87.2749C100.733 87.1789 100.601 87.1273 100.465 87.1313H97.9634C97.8955 87.1284 97.8278 87.1393 97.764 87.1635C97.7003 87.1877 97.6419 87.2247 97.5921 87.2723C97.5424 87.32 97.5023 87.3773 97.4743 87.441C97.4462 87.5046 97.4307 87.5734 97.4286 87.6433V88.9865C97.4271 89.1039 97.3864 89.2172 97.3134 89.3074C97.2403 89.3977 97.1394 89.4593 97.0275 89.482C95.4766 89.8426 94.2354 90.5504 93.3039 91.6056C92.2931 92.7506 91.7882 94.1911 91.7891 95.927C91.7899 97.663 92.2682 99.0291 93.2237 100.026C94.1739 101.027 95.4712 101.661 97.1157 101.926L100.37 102.291L100.413 102.298C101.996 102.568 102.787 103.435 102.787 104.899C102.787 105.716 102.431 106.37 101.718 106.86C101.005 107.35 100.118 107.595 99.0584 107.596C98.0022 107.596 97.2214 107.321 96.716 106.771C96.2828 106.299 96.0354 105.58 95.9739 104.613C95.9623 104.474 95.8985 104.346 95.796 104.255C95.6936 104.164 95.5607 104.118 95.4257 104.127L92.0377 104.264C91.9701 104.266 91.9033 104.28 91.8412 104.308C91.7792 104.336 91.723 104.376 91.6761 104.426C91.6291 104.476 91.5922 104.535 91.5676 104.6C91.5429 104.665 91.5309 104.734 91.5323 104.804C91.6215 106.62 92.175 108.051 93.1929 109.098C94.2108 110.145 95.4904 110.833 97.0315 111.162C97.1433 111.186 97.244 111.248 97.3169 111.338C97.3898 111.428 97.4307 111.542 97.4326 111.659V114.037C97.4347 114.107 97.4502 114.176 97.4783 114.24C97.5063 114.303 97.5464 114.361 97.5962 114.408C97.6459 114.456 97.7043 114.493 97.7681 114.517C97.8318 114.541 97.8996 114.552 97.9674 114.549H100.469C100.605 114.553 100.737 114.502 100.836 114.406C100.935 114.31 100.993 114.177 100.997 114.037V111.623C101.001 111.503 101.044 111.388 101.121 111.297C101.197 111.206 101.302 111.145 101.417 111.124C102.981 110.786 104.44 110.057 105.665 109.002C106.991 107.858 107.654 106.408 107.654 104.65C107.654 102.892 107.042 101.489 105.818 100.44Z" fill="url(#paint3_linear_2900_27200)"/>
<path d="M95.6264 101.965H75.4171C74.5773 101.965 73.8965 102.524 73.8965 103.214V105.91C73.8965 106.6 74.5773 107.159 75.4171 107.159H95.6264C96.4662 107.159 97.147 106.6 97.147 105.91V103.214C97.147 102.524 96.4662 101.965 95.6264 101.965Z" fill="url(#paint4_linear_2900_27200)"/>
<path d="M74.2119 102.456H96.8314C96.6899 102.304 96.5073 102.18 96.2977 102.094C96.0882 102.009 95.8575 101.965 95.6236 101.965H75.4187C75.185 101.965 74.9545 102.009 74.7451 102.094C74.5358 102.18 74.3533 102.304 74.2119 102.456Z" fill="#FFBA33"/>
<path d="M99.4271 107.427H79.2179C78.3781 107.427 77.6973 107.986 77.6973 108.676V111.372C77.6973 112.062 78.3781 112.621 79.2179 112.621H99.4271C100.267 112.621 100.948 112.062 100.948 111.372V108.676C100.948 107.986 100.267 107.427 99.4271 107.427Z" fill="url(#paint5_linear_2900_27200)"/>
<path d="M78.0127 107.918H100.632C100.491 107.765 100.308 107.641 100.099 107.556C99.889 107.471 99.6583 107.427 99.4244 107.427H79.2194C78.9858 107.427 78.7552 107.471 78.5459 107.556C78.3366 107.642 78.1541 107.766 78.0127 107.918Z" fill="#FFBA33"/>
<path d="M95.6264 112.888H75.4171C74.5773 112.888 73.8965 113.447 73.8965 114.137V116.834C73.8965 117.524 74.5773 118.083 75.4171 118.083H95.6264C96.4662 118.083 97.147 117.524 97.147 116.834V114.137C97.147 113.447 96.4662 112.888 95.6264 112.888Z" fill="url(#paint6_linear_2900_27200)"/>
<path d="M74.2119 113.38H96.8314C96.6899 113.227 96.5073 113.103 96.2977 113.018C96.0882 112.932 95.8575 112.888 95.6236 112.888H75.4187C75.185 112.888 74.9545 112.933 74.7451 113.018C74.5358 113.103 74.3533 113.227 74.2119 113.38Z" fill="#FFBA33"/>
<path d="M100.376 118.35H80.1671C79.3273 118.35 78.6465 118.909 78.6465 119.599V122.295C78.6465 122.985 79.3273 123.544 80.1671 123.544H100.376C101.216 123.544 101.897 122.985 101.897 122.295V119.599C101.897 118.909 101.216 118.35 100.376 118.35Z" fill="url(#paint7_linear_2900_27200)"/>
<path d="M78.9619 118.841H101.581C101.44 118.688 101.257 118.564 101.048 118.479C100.838 118.394 100.607 118.349 100.374 118.35H80.1687C79.935 118.35 79.7045 118.394 79.4951 118.479C79.2858 118.565 79.1033 118.688 78.9619 118.841Z" fill="#FFBA33"/>
<path d="M96.5775 123.812H76.3682C75.5284 123.812 74.8477 124.371 74.8477 125.061V127.757C74.8477 128.447 75.5284 129.006 76.3682 129.006H96.5775C97.4173 129.006 98.0981 128.447 98.0981 127.757V125.061C98.0981 124.371 97.4173 123.812 96.5775 123.812Z" fill="url(#paint8_linear_2900_27200)"/>
<path d="M75.1631 124.303H97.7826C97.6411 124.15 97.4585 124.026 97.2489 123.941C97.0394 123.856 96.8086 123.811 96.5748 123.812H76.3698C76.1362 123.811 75.9056 123.856 75.6963 123.941C75.487 124.026 75.3045 124.15 75.1631 124.303Z" fill="#FFBA33"/>
<path d="M165.085 38.3067V122.874C165.085 124.384 164.614 125.854 163.74 127.07C162.866 128.287 161.635 129.185 160.227 129.634L118.859 142.846C118.275 143.034 117.655 143.079 117.051 142.976C116.447 142.873 115.875 142.626 115.381 142.255C114.888 141.884 114.487 141.399 114.21 140.839C113.934 140.28 113.791 139.661 113.792 139.034V21.8734C113.792 20.8184 114.2 19.8063 114.926 19.0578C115.653 18.3093 116.639 17.8852 117.67 17.8779H117.722C118.115 17.8813 118.505 17.9456 118.879 18.0685L160.263 31.5562C161.662 32.0122 162.884 32.912 163.751 34.1256C164.618 35.3391 165.085 36.8035 165.085 38.3067Z" fill="url(#paint9_linear_2900_27200)"/>
<path d="M161.285 42.292V118.85C161.285 121.529 159.755 123.897 157.507 124.694L125.332 135.049C125.037 135.155 124.727 135.208 124.415 135.208C122.799 135.202 121.391 133.715 121.391 131.754V29.154C121.391 27.1943 122.796 25.7087 124.407 25.7002H124.448C124.755 25.703 125.06 25.7587 125.349 25.8651L157.538 36.4562C159.77 37.2665 161.285 39.6243 161.285 42.292Z" fill="url(#paint10_linear_2900_27200)"/>
<path d="M145.612 95.1204C150.071 95.1204 153.686 88.7729 153.686 80.943C153.686 73.113 150.071 66.7656 145.612 66.7656C141.153 66.7656 137.538 73.113 137.538 80.943C137.538 88.7729 141.153 95.1204 145.612 95.1204Z" fill="white"/>
<path d="M118.114 143.03H113.685L112.471 143.01C111.77 142.82 111.14 142.329 110.689 141.617C110.238 140.906 109.992 140.018 109.992 139.102V21.8757C109.992 21.8389 109.992 21.8088 109.992 21.7686C110.031 19.7547 111.221 18.1957 112.665 17.9214L113.525 17.9147L118.079 17.8779C117.267 17.8852 116.489 18.2951 115.909 19.021C115.329 19.747 114.993 20.7322 114.971 21.7686C114.971 21.8054 114.971 21.8389 114.971 21.8757V139.106C114.973 140.162 115.301 141.174 115.885 141.923C116.468 142.671 117.287 143.024 118.114 143.03Z" fill="#85AEE9"/>
<path d="M154.636 80.4538C154.636 84.7742 152.935 88.2758 150.837 88.2758C149.71 88.2758 148.696 87.2682 148.004 85.6622C147.401 84.2798 147.037 82.4534 147.037 80.4538C147.037 78.4542 147.401 76.6279 148.004 75.2455C148.696 73.6426 149.71 72.6318 150.837 72.6318C152.935 72.6318 154.636 76.1335 154.636 80.4538Z" fill="#D6E7FF"/>
<path d="M150.837 88.2758H145.15C143.425 88.2758 141.969 85.9236 141.498 82.699C141.39 81.9577 141.337 81.2064 141.338 80.4538C141.338 78.6495 141.638 76.99 142.137 75.6674C142.834 73.819 143.925 72.6318 145.15 72.6318H150.837C149.706 72.6318 148.689 73.6395 147.995 75.2455C147.934 75.3809 147.879 75.5226 147.824 75.6674C147.322 76.99 147.024 78.6495 147.024 80.4538C147.023 81.2064 147.077 81.9577 147.185 82.699C147.326 83.7296 147.599 84.728 147.995 85.659C148.689 87.265 149.706 88.2758 150.837 88.2758Z" fill="#85AEE9"/>
<path d="M108.913 51.9312C109.098 52.0151 109.29 52.0782 109.488 52.1195C112.561 52.6833 115.375 49.1521 117.549 45.3496C119.696 41.5943 120.865 37.3099 119.095 34.7126C118.57 33.9422 117.074 33.2773 116.295 32.8098C112.832 30.7304 107.779 32.9732 105.008 37.8191C102.333 42.4983 102.765 47.8937 105.916 50.1312L108.913 51.9312Z" fill="#F5C751"/>
<path d="M108.353 51.6135C111.816 53.6931 116.87 51.4504 119.64 46.6044C122.411 41.7585 121.85 36.1442 118.386 34.0647C114.923 31.9851 109.87 34.2278 107.099 39.0737C104.329 43.9197 104.89 49.534 108.353 51.6135Z" fill="#FFDB6C"/>
<path d="M109.897 48.9143C112.294 50.354 115.793 48.8013 117.711 45.4464C119.629 42.0915 119.24 38.2046 116.843 36.765C114.445 35.3253 110.947 36.8779 109.028 40.2329C107.11 43.5878 107.499 47.4746 109.897 48.9143Z" fill="url(#paint11_linear_2900_27200)"/>
<path d="M109.558 40.4975C111.341 37.3786 114.49 35.8181 116.85 36.7707L116.842 36.7655C114.444 35.3258 110.945 36.8786 109.027 40.2334C107.109 43.5881 107.498 47.4751 109.896 48.9148C110.063 49.0149 110.237 49.1015 110.418 49.1739C108.026 47.7288 107.642 43.8481 109.558 40.4975Z" fill="#EDBA36"/>
<path d="M109.471 52.1216C109.181 52.0401 108.898 51.934 108.624 51.8044C108.487 51.74 108.353 51.6677 108.224 51.5879L108.027 51.4696C107.962 51.4304 107.901 51.3829 107.837 51.3388C107.587 51.1616 107.351 50.9636 107.132 50.7469C107.079 50.6915 107.027 50.6342 106.974 50.578C106.921 50.5217 106.866 50.4668 106.819 50.4057C106.722 50.2852 106.619 50.1689 106.532 50.0399C106.487 49.9762 106.443 49.9129 106.4 49.8477L106.282 49.6467C106.199 49.5136 106.133 49.3736 106.061 49.2363C106.024 49.1679 105.994 49.0962 105.962 49.0254L105.866 48.8123L105.782 48.5947L105.739 48.4848L105.717 48.4301L105.699 48.3747C105.499 47.7858 105.363 47.1762 105.292 46.5569C105.147 45.321 105.238 44.0645 105.503 42.8548C105.774 41.6448 106.207 40.4789 106.789 39.3903C107.367 38.2998 108.087 37.2944 108.928 36.4016C109.77 35.5121 110.739 34.7418 111.815 34.1676C112.354 33.8786 112.919 33.6456 113.502 33.472C114.087 33.2951 114.692 33.1958 115.301 33.1764L115.53 33.1781C115.606 33.181 115.683 33.1881 115.758 33.1926L115.872 33.2002L115.929 33.2041L115.985 33.2115L116.213 33.2396C116.288 33.2474 116.363 33.263 116.438 33.2779L116.662 33.3219L116.882 33.3799C116.955 33.4 117.029 33.4168 117.101 33.4435C117.244 33.4933 117.39 33.5372 117.528 33.6004C117.598 33.6299 117.668 33.6583 117.738 33.6887L117.943 33.7924C118.08 33.8569 118.207 33.9421 118.337 34.0183L118.388 34.0491C118.405 34.0588 118.42 34.0705 118.435 34.0814L118.528 34.1471L118.714 34.2774L118.374 34.0737L118.324 34.0485C118.189 33.982 118.059 33.9071 117.919 33.8533L117.713 33.7648C117.643 33.739 117.572 33.7156 117.501 33.6918C117.361 33.6385 117.216 33.6045 117.073 33.5641C117.003 33.5423 116.928 33.5314 116.856 33.5155L116.638 33.472L116.418 33.4425C116.344 33.4325 116.271 33.4216 116.197 33.4185L115.977 33.403L115.922 33.3993L115.866 33.3991L115.755 33.3982C115.681 33.3982 115.608 33.3964 115.534 33.3979L115.315 33.411C115.168 33.4149 115.021 33.4315 114.875 33.441C114.801 33.4444 114.728 33.457 114.655 33.467L114.435 33.4977L114.218 33.5398C114.145 33.5554 114.072 33.5657 114.001 33.5852L113.786 33.6393L113.678 33.6664C113.642 33.6763 113.607 33.6878 113.572 33.6986C113.003 33.8682 112.452 34.0953 111.927 34.3768C110.875 34.9384 109.924 35.6931 109.098 36.5665C107.437 38.3307 106.274 40.5226 105.731 42.9097C105.47 44.096 105.38 45.3268 105.522 46.5327C105.591 47.135 105.724 47.7277 105.919 48.3003C106.113 48.8713 106.384 49.412 106.723 49.9071C106.801 50.0353 106.892 50.1531 106.98 50.2747C107.022 50.3369 107.072 50.3917 107.119 50.4501C107.167 50.5085 107.213 50.5643 107.264 50.6221C107.466 50.8449 107.684 51.0512 107.917 51.2392C107.976 51.2853 108.033 51.3347 108.093 51.3787L108.277 51.507C108.4 51.594 108.527 51.6739 108.658 51.7465C108.918 51.8944 109.19 52.0199 109.471 52.1216Z" fill="white"/>
<path d="M55.3356 98.1898C55.412 98.0285 55.4703 97.8595 55.5094 97.6858C56.0482 94.9842 52.9737 92.4557 49.6513 90.4875C46.3701 88.5438 42.6092 87.4549 40.2955 88.9799C39.6093 89.4322 39.0028 90.7425 38.5801 91.4225C36.7 94.4468 38.6083 98.932 42.8424 101.44C46.9308 103.862 51.6928 103.555 53.7081 100.808L55.3356 98.1898Z" fill="#F5C751"/>
<path d="M55.0476 98.6794C56.9279 95.6548 55.0197 91.1696 50.7855 88.6613C46.5514 86.1531 41.5946 86.5717 39.7144 89.5963C37.8341 92.6208 39.7423 97.1061 43.9764 99.6143C48.2106 102.123 53.1673 101.704 55.0476 98.6794Z" fill="#FFDB6C"/>
<path d="M52.6889 97.2822C53.9907 95.1882 52.6696 92.083 49.7382 90.3466C46.8069 88.6101 43.3753 88.8998 42.0735 90.9938C40.7718 93.0877 42.0929 96.1929 45.0243 97.9294C47.9556 99.6659 51.3872 99.3761 52.6889 97.2822Z" fill="url(#paint12_linear_2900_27200)"/>
<path d="M45.2653 97.4666C42.5401 95.8522 41.2074 93.0551 42.0792 90.9872L42.0745 90.9947C40.7728 93.0886 42.0941 96.194 45.0252 97.9303C47.9564 99.6667 51.3882 99.377 52.6899 97.2831C52.7804 97.1371 52.8592 96.9845 52.9255 96.8266C51.619 98.9149 48.1929 99.2008 45.2653 97.4666Z" fill="#EDBA36"/>
<path d="M55.5112 97.7008C55.4354 97.9557 55.3381 98.204 55.2201 98.4432C55.1614 98.5633 55.0959 98.6801 55.0238 98.793L54.9169 98.9651C54.8814 99.0222 54.8386 99.0746 54.799 99.1307C54.6393 99.3489 54.4616 99.554 54.2676 99.7439C54.218 99.7903 54.1668 99.8353 54.1165 99.8813C54.0662 99.9273 54.0171 99.9745 53.9625 100.016C53.855 100.099 53.7511 100.189 53.6361 100.263C53.5794 100.302 53.523 100.341 53.465 100.377L53.2862 100.479C53.1677 100.55 53.0434 100.606 52.9214 100.668C52.8606 100.7 52.797 100.725 52.7342 100.752L52.545 100.834L52.352 100.905L52.2546 100.941L52.206 100.96L52.157 100.975C51.6351 101.143 51.0959 101.255 50.5489 101.31C49.4575 101.421 48.3511 101.323 47.2883 101.073C46.2254 100.818 45.2035 100.42 44.2518 99.892C43.2984 99.3675 42.4219 98.7195 41.6463 97.9657C40.8736 97.2114 40.2078 96.3466 39.7162 95.3901C39.4688 94.9117 39.2711 94.4103 39.126 93.8935C38.9781 93.3756 38.8987 92.8414 38.8899 92.304L38.8946 92.1024C38.8981 92.0353 38.9055 91.9676 38.9104 91.9013L38.9186 91.8012L38.9228 91.7509L38.9301 91.7011L38.958 91.501C38.9659 91.4347 38.9807 91.369 38.9949 91.3035L39.0367 91.1065L39.0908 90.913C39.1095 90.8488 39.1254 90.7838 39.1499 90.7211C39.1957 90.5952 39.2364 90.4677 39.2939 90.3464C39.3209 90.2852 39.347 90.2238 39.3746 90.163L39.4689 89.9834C39.5276 89.8633 39.6044 89.753 39.6734 89.6389L39.7012 89.5942C39.71 89.5801 39.7205 89.567 39.7303 89.5536L39.7895 89.4723L39.9069 89.3107L39.7227 89.607L39.6998 89.6508C39.6394 89.769 39.5715 89.8828 39.5222 90.0056L39.4414 90.1861C39.4177 90.2474 39.3961 90.3094 39.3742 90.3718C39.3253 90.494 39.2933 90.6215 39.2558 90.7471C39.2356 90.8091 39.225 90.8743 39.21 90.938L39.1686 91.1296L39.1397 91.3229C39.1298 91.3877 39.1193 91.452 39.1155 91.5171L39.0989 91.7116L39.0948 91.7601L39.0939 91.8089L39.0916 91.9065C39.0906 91.9718 39.088 92.0366 39.0883 92.1013L39.0969 92.2948C39.0983 92.4246 39.111 92.5541 39.1174 92.6835C39.1193 92.7487 39.1295 92.8131 39.1373 92.8775L39.1614 93.0717L39.1955 93.2638C39.2083 93.3278 39.2164 93.3924 39.2326 93.4557L39.2774 93.6461L39.2998 93.7413C39.3081 93.773 39.3177 93.8041 39.3267 93.8354C39.4685 94.3392 39.6612 94.8279 39.9022 95.2945C40.3829 96.2295 41.0353 97.0779 41.794 97.8183C43.3265 99.3061 45.2429 100.362 47.3399 100.873C48.382 101.119 49.4658 101.215 50.5308 101.106C51.0626 101.053 51.5869 100.944 52.0943 100.781C52.6003 100.617 53.0807 100.386 53.5217 100.093C53.6358 100.026 53.7409 99.9474 53.8492 99.8718C53.9047 99.8354 53.9536 99.7924 54.0058 99.7512C54.0579 99.7101 54.1077 99.6703 54.1593 99.6261C54.3585 99.4514 54.5434 99.2618 54.7122 99.059C54.7537 99.0078 54.798 98.9582 54.8376 98.9054L54.9532 98.7451C55.0315 98.6383 55.1037 98.5273 55.1695 98.4127C55.3034 98.1851 55.4177 97.9469 55.5112 97.7008Z" fill="white"/>
<path d="M51.7387 54.6354C51.915 54.5028 52.077 54.3509 52.2217 54.1823C54.4013 51.5185 52.7063 46.8865 50.4172 42.7257C48.1565 38.6165 44.8836 35.1653 41.5561 35.4679C40.5692 35.5577 39.1519 36.6433 38.3038 37.1422C34.5312 39.361 33.8379 45.4585 36.7551 50.7611C39.572 55.8812 44.7256 58.3877 48.4731 56.5561L51.7387 54.6354Z" fill="#F5C751"/>
<path d="M51.1446 55.0046C54.9174 52.7857 55.611 46.6882 52.6937 41.3855C49.7764 36.0828 44.3531 33.583 40.5803 35.802C36.8075 38.021 36.1139 44.1185 39.0312 49.4211C41.9485 54.7238 47.3718 57.2236 51.1446 55.0046Z" fill="#FFDB6C"/>
<path d="M49.52 52.0513C52.1319 50.5151 52.612 46.2937 50.5923 42.6226C48.5727 38.9515 44.818 37.2208 42.2061 38.757C39.5942 40.2932 39.1141 44.5146 41.1337 48.1857C43.1534 51.8568 46.9081 53.5875 49.52 52.0513Z" fill="url(#paint13_linear_2900_27200)"/>
<path d="M41.6619 47.8181C39.7843 44.4053 40.0678 40.5173 42.2155 38.7529L42.2061 38.7585C39.5942 40.2947 39.1142 44.5163 41.1337 48.1872C43.1533 51.858 46.9081 53.5889 49.52 52.0528C49.7018 51.9455 49.8754 51.8239 50.0391 51.689C47.4256 53.2161 43.679 51.4845 41.6619 47.8181Z" fill="#EDBA36"/>
<path d="M52.2158 54.1998C51.9841 54.4362 51.7339 54.6525 51.4676 54.8463C51.3345 54.944 51.1962 55.0339 51.0533 55.1156L50.8387 55.2419C50.7675 55.2838 50.6915 55.3161 50.6166 55.3544C50.3193 55.5001 50.0111 55.6206 49.6949 55.7146C49.6154 55.7362 49.535 55.7554 49.455 55.7762C49.375 55.7969 49.2955 55.8197 49.2139 55.8326C49.0516 55.8608 48.8895 55.8976 48.7249 55.9114C48.6427 55.92 48.5608 55.929 48.4782 55.9348L48.231 55.9399C48.0648 55.9476 47.9014 55.9355 47.737 55.931C47.6545 55.9298 47.5729 55.9199 47.491 55.9125L47.2449 55.8895L47.0009 55.8528L46.8773 55.8349L46.8157 55.8261L46.7554 55.8136C46.11 55.6877 45.4801 55.4895 44.877 55.2224C43.6715 54.6928 42.5755 53.9233 41.6158 53.0123C40.6594 52.0947 39.8309 51.0448 39.1539 49.8922C38.4729 48.7427 37.9461 47.5027 37.5879 46.2061C37.2331 44.9107 37.0559 43.5569 37.1155 42.2061C37.1437 41.5294 37.2375 40.8571 37.3954 40.1993C37.551 39.5385 37.788 38.9007 38.1005 38.3014L38.226 38.0814C38.2699 38.0094 38.3181 37.9389 38.363 37.8687L38.4315 37.7629L38.4659 37.7099L38.5034 37.6592L38.6522 37.4547C38.7002 37.3861 38.7549 37.3224 38.809 37.2584L38.9705 37.0657L39.1428 36.8843C39.2008 36.8244 39.2562 36.762 39.3193 36.7074C39.4425 36.5957 39.5613 36.4791 39.694 36.3794C39.7588 36.3278 39.8227 36.2756 39.888 36.225L40.0938 36.0828C40.227 35.9852 40.3732 35.9091 40.5135 35.8243L40.5693 35.7915C40.5869 35.7811 40.6057 35.773 40.624 35.764L40.7344 35.7096L40.9537 35.6011L40.5841 35.8184L40.5339 35.8532C40.4001 35.9477 40.2612 36.0329 40.1362 36.1392L39.9438 36.2904C39.8824 36.344 39.8227 36.3996 39.7625 36.4555C39.6383 36.5612 39.5287 36.6831 39.4143 36.7994C39.3562 36.8559 39.306 36.9216 39.2523 36.9831L39.0944 37.1701L38.9485 37.3664C38.8994 37.4321 38.8499 37.4969 38.8069 37.5666L38.6732 37.7716L38.6399 37.8228L38.6097 37.8762L38.549 37.9827C38.5088 38.0543 38.4672 38.1243 38.4289 38.196L38.3221 38.415C38.2458 38.5593 38.1815 38.7099 38.1107 38.8569C38.0737 38.9301 38.0457 39.0073 38.0153 39.0832L37.9243 39.3121L37.8449 39.5448C37.8199 39.6233 37.7897 39.6995 37.7687 39.7791L37.7015 40.0163L37.6679 40.1349C37.6575 40.1749 37.6489 40.2151 37.6396 40.255C37.486 40.8965 37.3946 41.5519 37.3667 42.2115C37.3087 43.5322 37.4818 44.8597 37.8303 46.1314C38.539 48.6917 39.9071 51.0036 41.7894 52.8219C42.7295 53.7169 43.8035 54.4701 44.98 54.9864C45.5665 55.2461 46.1789 55.4389 46.8064 55.5614C47.4325 55.6828 48.0721 55.7144 48.7072 55.6551C48.8665 55.6492 49.0234 55.6247 49.1818 55.6058C49.2614 55.5988 49.3383 55.5805 49.4173 55.5662C49.4963 55.5518 49.5721 55.5377 49.6525 55.5196C49.9649 55.4456 50.2713 55.3466 50.5689 55.2233C50.6429 55.1915 50.7188 55.1633 50.7917 55.1286L51.0084 55.0204C51.154 54.9492 51.2958 54.8697 51.433 54.7824C51.709 54.6108 51.9709 54.4159 52.2158 54.1998Z" fill="white"/>
<defs>
<linearGradient id="paint0_linear_2900_27200" x1="71.9971" y1="29.1226" x2="155.743" y2="137.28" gradientUnits="userSpaceOnUse">
<stop stop-color="#E1EDFD"/>
<stop offset="1" stop-color="#93BBF0"/>
</linearGradient>
<linearGradient id="paint1_linear_2900_27200" x1="52.6597" y1="73.4936" x2="98.7461" y2="101.389" gradientUnits="userSpaceOnUse">
<stop stop-color="#E6F0FF"/>
<stop offset="0.0001" stop-color="#DFECFF"/>
</linearGradient>
<linearGradient id="paint2_linear_2900_27200" x1="70.6345" y1="46.2006" x2="95.2152" y2="100.584" gradientUnits="userSpaceOnUse">
<stop stop-color="#EDF4FF"/>
<stop offset="1" stop-color="#C7DDFF"/>
</linearGradient>
<linearGradient id="paint3_linear_2900_27200" x1="99.5932" y1="87.1309" x2="99.5932" y2="114.55" gradientUnits="userSpaceOnUse">
<stop stop-color="white"/>
<stop offset="1" stop-color="#FFE7B1"/>
</linearGradient>
<linearGradient id="paint4_linear_2900_27200" x1="96.6933" y1="106.646" x2="74.3716" y2="100.805" gradientUnits="userSpaceOnUse">
<stop stop-color="#FFC738"/>
<stop offset="1" stop-color="#FFF5DA"/>
</linearGradient>
<linearGradient id="paint5_linear_2900_27200" x1="100.494" y1="112.108" x2="78.1724" y2="106.267" gradientUnits="userSpaceOnUse">
<stop stop-color="#FFC738"/>
<stop offset="1" stop-color="#FFF5DA"/>
</linearGradient>
<linearGradient id="paint6_linear_2900_27200" x1="96.6933" y1="117.57" x2="74.3716" y2="111.729" gradientUnits="userSpaceOnUse">
<stop stop-color="#FFC738"/>
<stop offset="1" stop-color="#FFF5DA"/>
</linearGradient>
<linearGradient id="paint7_linear_2900_27200" x1="101.443" y1="123.031" x2="79.1216" y2="117.19" gradientUnits="userSpaceOnUse">
<stop stop-color="#FFC738"/>
<stop offset="1" stop-color="#FFF5DA"/>
</linearGradient>
<linearGradient id="paint8_linear_2900_27200" x1="97.6445" y1="128.493" x2="75.3228" y2="122.652" gradientUnits="userSpaceOnUse">
<stop stop-color="#FFC738"/>
<stop offset="1" stop-color="#FFF5DA"/>
</linearGradient>
<linearGradient id="paint9_linear_2900_27200" x1="139.438" y1="17.8779" x2="139.438" y2="143.03" gradientUnits="userSpaceOnUse">
<stop stop-color="white"/>
<stop offset="1" stop-color="#CEDCF1"/>
</linearGradient>
<linearGradient id="paint10_linear_2900_27200" x1="123.29" y1="28.6334" x2="163.22" y2="125.612" gradientUnits="userSpaceOnUse">
<stop stop-color="#EEF5FF"/>
<stop offset="1" stop-color="#A1C4F4"/>
</linearGradient>
<linearGradient id="paint11_linear_2900_27200" x1="116.843" y1="36.765" x2="109.64" y2="48.7602" gradientUnits="userSpaceOnUse">
<stop stop-color="#FFD874"/>
<stop offset="1" stop-color="#FFF6D5"/>
</linearGradient>
<linearGradient id="paint12_linear_2900_27200" x1="42.0735" y1="90.9938" x2="52.5496" y2="97.5063" gradientUnits="userSpaceOnUse">
<stop stop-color="#FFD874"/>
<stop offset="1" stop-color="#FFF6D5"/>
</linearGradient>
<linearGradient id="paint13_linear_2900_27200" x1="42.2061" y1="38.757" x2="49.8953" y2="51.8305" gradientUnits="userSpaceOnUse">
<stop stop-color="#FFD874"/>
<stop offset="1" stop-color="#FFF6D5"/>
</linearGradient>
</defs>
</svg>
