<svg width="24" height="24" viewBox="0 0 24 24" fill="none" xmlns="http://www.w3.org/2000/svg">
<path fill-rule="evenodd" clip-rule="evenodd" d="M9.47363 11.75C9.47363 11.3358 9.13785 11 8.72363 11C8.30942 11 7.97363 11.3358 7.97363 11.75V11.7974H7.88509C6.7877 11.7974 5.96705 12.7288 5.96705 13.7799C5.96705 14.2578 6.07194 14.6904 6.34771 15.0416C6.61629 15.3836 6.97273 15.5512 7.26304 15.6545L7.97363 15.9024V17.4379C7.70641 17.3957 7.45898 17.1472 7.45898 16.7846C7.45898 16.3704 7.1232 16.0346 6.70898 16.0346C6.29477 16.0346 5.95898 16.3704 5.95898 16.7846C5.95898 17.9219 6.82695 18.8988 7.97363 18.9428V19C7.97363 19.4142 8.30942 19.75 8.72363 19.75C9.13785 19.75 9.47363 19.4142 9.47363 19V18.9443H9.5687C10.663 18.9443 11.4868 18.0242 11.4868 16.9618C11.4868 16.4859 11.381 16.0552 11.1074 15.7047C10.8404 15.3628 10.4858 15.1922 10.1908 15.0872L9.47363 14.837V13.3028C9.74335 13.3419 9.99483 13.5915 9.99483 13.9571C9.99483 14.3713 10.3306 14.7071 10.7448 14.7071C11.159 14.7071 11.4948 14.3713 11.4948 13.9571C11.4948 12.8176 10.6236 11.8391 9.47363 11.7987V11.75ZM7.97363 13.2974H7.88509C7.69359 13.2974 7.46705 13.4776 7.46705 13.7799C7.46705 14.0391 7.52162 14.1079 7.5272 14.1149C7.53851 14.1293 7.58075 14.1752 7.76398 14.2406L7.97363 14.3137V13.2974ZM9.47363 16.4256V17.4443H9.5687C9.76331 17.4443 9.98676 17.2688 9.98676 16.9618C9.98676 16.7067 9.93228 16.6371 9.92529 16.6281C9.91241 16.6116 9.86835 16.5648 9.68981 16.5011L9.47363 16.4256Z" fill="color1"/>
<path fill-rule="evenodd" clip-rule="evenodd" d="M21.2488 7.49997C20.8346 7.5015 20.4976 7.16695 20.4961 6.75274L20.488 4.56364L16.7823 8.29682C16.4905 8.59079 16.0156 8.59255 15.7216 8.30074C15.4277 8.00893 15.4259 7.53406 15.7177 7.24008L19.4236 3.50669L17.2341 3.51478C16.8199 3.51631 16.4828 3.18177 16.4813 2.76755C16.4798 2.35334 16.8143 2.01632 17.2285 2.01479L21.2285 2.00001C21.3032 1.99973 21.3753 2.01037 21.4434 2.03042C21.5591 2.06439 21.6683 2.12681 21.7599 2.21772C21.9114 2.36815 21.9853 2.56723 21.9813 2.76509L21.9961 6.7472C21.9976 7.16141 21.663 7.49844 21.2488 7.49997ZM19.6328 8.87853C19.6204 8.88003 19.6206 8.87999 19.6205 8.88001C19.5969 8.88365 19.5851 8.88548 19.5732 8.88772C19.1887 8.95999 18.9204 9.32583 18.9671 9.71428C18.9686 9.72631 18.9702 9.73714 18.9735 9.75879C19 9.93167 19 9.96231 19 10.2C19 11.941 18.1441 13.4826 16.8302 14.4265C16.4994 14.6641 16.334 14.7829 16.1107 14.7926C15.9226 14.8008 15.7188 14.7281 15.5784 14.6026C15.4116 14.4537 15.3316 14.1555 15.1716 13.5591C14.5541 11.258 12.742 9.44589 10.4409 8.82841C9.84454 8.66837 9.54634 8.58835 9.39737 8.42161C9.27194 8.28121 9.1992 8.07743 9.20738 7.88934C9.2171 7.66596 9.3359 7.50058 9.5735 7.16982C10.5174 5.85591 12.059 5 13.8 5C13.9706 5 14.1393 5.00822 14.3057 5.02428C14.6643 5.05888 14.9887 4.70039 15.0235 4.34184C15.0614 3.95079 14.8151 3.56478 14.4238 3.52866C14.2184 3.50969 14.0104 3.5 13.8 3.5C10.8637 3.5 8.36934 5.38837 7.46383 8.01712C7.35927 8.32067 7.30699 8.47245 7.24866 8.55699C7.18374 8.65109 7.15133 8.6835 7.05722 8.74842C6.97268 8.80674 6.82088 8.85902 6.5173 8.96358C3.88862 9.8689 2 12.3639 2 15.3C2 19.0003 4.99969 22 8.7 22C11.6361 22 14.1311 20.1114 15.0364 17.4827C15.141 17.1791 15.1933 17.0273 15.2516 16.9428C15.3165 16.8487 15.3489 16.8163 15.443 16.7513C15.5276 16.693 15.6793 16.6407 15.9829 16.5362L15.9829 16.5362C18.6116 15.6307 20.5 13.1363 20.5 10.2C20.5 9.9611 20.4875 9.72513 20.4631 9.49269C20.4626 9.48815 20.4624 9.48633 20.4624 9.48638C20.4625 9.4866 20.467 9.5303 20.4656 9.52003C20.4135 9.14503 20.0087 8.83316 19.6328 8.87853ZM7.99148 10.1479C7.99917 10.147 8.00683 10.1459 8.01445 10.1448C8.23878 10.1152 8.46761 10.1 8.7 10.1C11.5719 10.1 13.9 12.4281 13.9 15.3C13.9 15.5324 13.8847 15.7613 13.8552 15.9856C13.8541 15.9932 13.853 16.0008 13.8521 16.0084C13.5066 18.5452 11.3316 20.5 8.7 20.5C5.82812 20.5 3.5 18.1719 3.5 15.3C3.5 12.6684 5.45477 10.4935 7.99148 10.1479Z" fill="color2"/>
</svg>
