<svg width="24" height="24" viewBox="0 0 24 24" fill="none" xmlns="http://www.w3.org/2000/svg">
<path fill-rule="evenodd" clip-rule="evenodd" d="M6.75 10C6.75 9.58579 6.41421 9.25 6 9.25C5.58579 9.25 5.25 9.58579 5.25 10V17C5.25 17.4142 5.58579 17.75 6 17.75C6.41421 17.75 6.75 17.4142 6.75 17V10ZM10.75 10C10.75 9.58579 10.4142 9.25 10 9.25C9.58579 9.25 9.25 9.58579 9.25 10V17C9.25 17.4142 9.58579 17.75 10 17.75C10.4142 17.75 10.75 17.4142 10.75 17V10ZM14 9.25C14.4142 9.25 14.75 9.58579 14.75 10V17C14.75 17.4142 14.4142 17.75 14 17.75C13.5858 17.75 13.25 17.4142 13.25 17V10C13.25 9.58579 13.5858 9.25 14 9.25ZM18.75 10C18.75 9.58579 18.4142 9.25 18 9.25C17.5858 9.25 17.25 9.58579 17.25 10V17C17.25 17.4142 17.5858 17.75 18 17.75C18.4142 17.75 18.75 17.4142 18.75 17V10Z" fill="currentColor"/>
<path fill-rule="evenodd" clip-rule="evenodd" d="M12 3.53601L4.5 6.52889V8.5H19.5V6.52889L12 3.53601ZM20.433 5.28618L12.333 2.05387C12.153 1.98204 11.847 1.98204 11.667 2.05387L3.567 5.28618C3.252 5.41188 3 5.78898 3 6.12119V9.10213C3 9.59596 3.405 10 3.9 10H20.1C20.595 10 21 9.59596 21 9.10213V6.12119C21 5.78898 20.748 5.41188 20.433 5.28618Z" fill="currentColor"/>
<circle cx="12" cy="6" r="1" fill="currentColor"/>
<path fill-rule="evenodd" clip-rule="evenodd" d="M4.75 18C4.75 17.8848 4.7884 17.8026 4.82065 17.7623C4.82478 17.7571 4.82833 17.7531 4.83129 17.75H19.1687C19.1717 17.7531 19.1752 17.7571 19.1793 17.7623C19.2116 17.8026 19.25 17.8848 19.25 18V20.25H4.75V18ZM3.25 20.25V18C3.25 17.2006 3.79826 16.25 4.8 16.25H19.2C20.2017 16.25 20.75 17.2006 20.75 18V20.25H21C21.4142 20.25 21.75 20.5858 21.75 21C21.75 21.4142 21.4142 21.75 21 21.75H20H4H3C2.58579 21.75 2.25 21.4142 2.25 21C2.25 20.5858 2.58579 20.25 3 20.25H3.25ZM4.84172 17.7408C4.84173 17.7409 4.84108 17.7414 4.83976 17.7421C4.84104 17.7411 4.8417 17.7408 4.84172 17.7408ZM19.1583 17.7408C19.1583 17.7408 19.159 17.7411 19.1602 17.7421C19.1589 17.7414 19.1583 17.7409 19.1583 17.7408Z" fill="currentColor"/>
</svg>
