<svg width="145" height="102" viewBox="0 0 145 102" fill="none" xmlns="http://www.w3.org/2000/svg">
<g filter="url(#filter0_d_10868_2295)">
<rect x="41.9988" y="37.9407" width="57.3631" height="38.925" fill="white"/>
<g filter="url(#filter1_d_10868_2295)">
<circle cx="71.1924" cy="57.9153" r="9.73125" fill="#9FA7B8"/>
</g>
<path d="M73.4961 60.8785C73.0144 61.3198 72.4057 61.5844 71.7642 61.6315V62.7811H70.765V61.6545C70.2847 61.6289 69.8097 61.5381 69.3523 61.3843C68.964 61.2631 68.5987 61.0735 68.2726 60.8239L68.8277 59.5593C69.1011 59.7646 69.4011 59.929 69.7186 60.0479C70.0571 60.1786 70.4108 60.2617 70.7706 60.2951V58.5707C70.3596 58.4762 69.9574 58.3444 69.5688 58.177C69.2448 58.0396 68.9588 57.8214 68.7361 57.5418C68.5043 57.2211 68.3875 56.8269 68.4058 56.4267C68.4038 56.1505 68.4567 55.8767 68.5613 55.6226C68.6658 55.3684 68.8198 55.1393 69.0137 54.9495C69.4977 54.5035 70.1127 54.2392 70.7595 54.1994V53.0498H71.7586V54.1793C72.4756 54.2148 73.1732 54.4319 73.7903 54.8115L73.2907 56.0847C72.8229 55.7984 72.3034 55.6145 71.7642 55.5444V57.3061C72.1739 57.3968 72.5752 57.5248 72.9632 57.6884C73.2818 57.8254 73.5623 58.0428 73.7792 58.3207C74.0109 58.637 74.1278 59.0277 74.1095 59.4243C74.111 59.6976 74.0572 59.9682 73.9515 60.2186C73.8459 60.4691 73.6907 60.6939 73.4961 60.8785ZM70.2127 56.7716C70.3768 56.9057 70.5657 57.0035 70.7678 57.059V55.5818C70.5592 55.6179 70.3658 55.718 70.2127 55.8692C70.095 55.9955 70.0301 56.1649 70.0323 56.3405C70.0287 56.4218 70.043 56.503 70.0743 56.5777C70.1056 56.6524 70.1529 56.7187 70.2127 56.7716ZM72.3054 59.9933C72.3632 59.9357 72.4091 59.8665 72.4401 59.7899C72.4711 59.7133 72.4867 59.6309 72.4858 59.5478C72.4871 59.4671 72.4711 59.3871 72.439 59.3135C72.4068 59.24 72.3593 59.1747 72.2999 59.1225C72.1395 58.994 71.958 58.8966 71.7642 58.8351V60.2721C71.9664 60.234 72.1541 60.1373 72.3054 59.9933Z" fill="#F3F5F9"/>
<path fill-rule="evenodd" clip-rule="evenodd" d="M36.877 41.0136C36.877 40.4479 37.3356 39.9893 37.9013 39.9893H51.2177C51.7835 39.9893 52.2421 40.4479 52.2421 41.0136V42.3C52.2421 42.8657 51.7834 43.3243 51.2177 43.3243C50.652 43.3243 50.1933 43.7829 50.1933 44.3487V71.4817C50.1933 72.0474 50.6519 72.506 51.2176 72.506C51.7834 72.506 52.242 72.9646 52.242 73.5303V74.8168C52.242 75.3825 51.7833 75.8411 51.2176 75.8411H37.9012C37.3354 75.8411 36.8768 75.3825 36.8768 74.8168V73.5304C36.8768 72.9646 37.3355 72.506 37.9012 72.506C38.4669 72.506 38.9256 72.0474 38.9256 71.4817V44.3486C38.9256 43.7829 38.467 43.3243 37.9013 43.3243C37.3356 43.3243 36.877 42.8657 36.877 42.3V41.0136Z" fill="#F2F5F9"/>
<path fill-rule="evenodd" clip-rule="evenodd" d="M91.1656 41.0136C91.1656 40.4479 91.6242 39.9893 92.1899 39.9893H105.506C106.072 39.9893 106.531 40.4479 106.531 41.0136V42.3001C106.531 42.8657 106.072 43.3243 105.506 43.3243C104.941 43.3243 104.482 43.7829 104.482 44.3486V71.4817C104.482 72.0474 104.941 72.506 105.506 72.506C106.072 72.506 106.531 72.9646 106.531 73.5303V74.8168C106.531 75.3825 106.072 75.8411 105.506 75.8411H92.19C91.6243 75.8411 91.1657 75.3825 91.1657 74.8168V73.5304C91.1657 72.9646 91.6243 72.506 92.19 72.506C92.7558 72.506 93.2144 72.0474 93.2144 71.4817V44.3487C93.2144 43.7829 92.7557 43.3243 92.19 43.3243C91.6243 43.3243 91.1656 42.8657 91.1656 42.3V41.0136Z" fill="#F2F5F9"/>
<rect x="30.7306" y="75.8412" width="78.8743" height="6.14605" rx="2.04868" fill="#FCFDFF"/>
<rect x="30.7306" y="34.8677" width="78.8743" height="6.14605" rx="2.04868" fill="#D5DDEA"/>
<path d="M68.7692 5.14448C69.965 4.51412 71.3948 4.51412 72.5906 5.14448L117.242 28.6821C121.024 30.6761 119.607 36.404 115.331 36.404H26.0289C21.7527 36.404 20.3355 30.6761 24.1182 28.6821L68.7692 5.14448Z" fill="#FCFDFF"/>
<circle cx="70.6797" cy="24.6243" r="5.12171" fill="#CBD4E0"/>
<path d="M121.1 46.0214C120.57 45.4909 120.57 44.6308 121.1 44.1003C121.631 43.5699 122.491 43.5699 123.021 44.1003L136.148 57.2273C136.679 57.7578 136.679 58.6179 136.148 59.1483C135.618 59.6788 134.758 59.6788 134.227 59.1483L121.1 46.0214Z" fill="#848B9B"/>
<circle cx="109.254" cy="32.2539" r="17.3529" transform="rotate(-45 109.254 32.2539)" stroke="#A1AABB" stroke-width="2.42278"/>
</g>
<defs>
<filter id="filter0_d_10868_2295" x="-8" y="-2" width="157.359" height="95.9873" filterUnits="userSpaceOnUse" color-interpolation-filters="sRGB">
<feFlood flood-opacity="0" result="BackgroundImageFix"/>
<feColorMatrix in="SourceAlpha" type="matrix" values="0 0 0 0 0 0 0 0 0 0 0 0 0 0 0 0 0 0 127 0" result="hardAlpha"/>
<feOffset dy="4"/>
<feGaussianBlur stdDeviation="4"/>
<feComposite in2="hardAlpha" operator="out"/>
<feColorMatrix type="matrix" values="0 0 0 0 0.396078 0 0 0 0 0.478431 0 0 0 0 0.576471 0 0 0 0.1 0"/>
<feBlend mode="normal" in2="BackgroundImageFix" result="effect1_dropShadow_10868_2295"/>
<feBlend mode="normal" in="SourceGraphic" in2="effect1_dropShadow_10868_2295" result="shape"/>
</filter>
<filter id="filter1_d_10868_2295" x="38.9256" y="36.9163" width="64.5335" height="64.5335" filterUnits="userSpaceOnUse" color-interpolation-filters="sRGB">
<feFlood flood-opacity="0" result="BackgroundImageFix"/>
<feColorMatrix in="SourceAlpha" type="matrix" values="0 0 0 0 0 0 0 0 0 0 0 0 0 0 0 0 0 0 127 0" result="hardAlpha"/>
<feOffset dy="11.2678"/>
<feGaussianBlur stdDeviation="11.2678"/>
<feComposite in2="hardAlpha" operator="out"/>
<feColorMatrix type="matrix" values="0 0 0 0 0.396078 0 0 0 0 0.478431 0 0 0 0 0.576471 0 0 0 0.27 0"/>
<feBlend mode="normal" in2="BackgroundImageFix" result="effect1_dropShadow_10868_2295"/>
<feBlend mode="normal" in="SourceGraphic" in2="effect1_dropShadow_10868_2295" result="shape"/>
</filter>
</defs>
</svg>
