<svg width="223" height="156" viewBox="0 0 223 156" fill="none" xmlns="http://www.w3.org/2000/svg">
<path d="M24.6865 139.903C23.0685 141.503 20.4597 141.489 18.8588 139.872C17.2573 138.253 17.271 135.643 18.8895 134.042L44.2052 109C46.3759 106.853 49.6374 106.248 52.4341 107.474L73.9175 116.892C77.0042 118.245 80.6147 117.357 82.7216 114.727L105.761 85.9649C107.828 83.3844 111.349 82.4755 114.407 83.7328L150.821 98.7043C153.582 99.8396 156.755 99.2166 158.881 97.1213L187.986 68.4453C189.607 66.848 192.216 66.8668 193.814 68.4873C195.414 70.1089 195.395 72.7199 193.773 74.3183L160.788 106.818C158.662 108.913 155.489 109.536 152.728 108.401L116.985 93.7068C113.927 92.4497 110.407 93.3585 108.34 95.9388L85.2043 124.818C83.0975 127.448 79.4874 128.336 76.4008 126.983L54.2506 117.275C51.4542 116.05 48.1932 116.654 46.0225 118.801L24.6865 139.903Z" fill="#C0D8FB"/>
<path d="M198.228 76.6434C198.832 77.1847 199.794 76.8214 199.889 76.0167L201.73 60.4456C201.812 59.7458 201.165 59.1822 200.483 59.3608L185.629 63.253C184.859 63.4549 184.622 64.4326 185.215 64.9646L198.228 76.6434Z" fill="#C0D8FB"/>
<path d="M32.9711 109.718C33.0377 109.639 33.0695 109.538 33.103 109.44C33.2576 108.992 33.4814 108.57 33.7663 108.19C33.829 108.106 33.8956 108.022 33.932 107.926C34.0203 107.688 33.9117 107.424 33.7827 107.206C33.1045 106.054 31.8608 105.348 30.6014 104.89C29.7478 104.58 28.8465 104.358 27.9384 104.396C27.5786 104.411 27.2061 104.473 26.9127 104.68C26.6192 104.888 26.4386 105.219 26.3504 105.563C26.2621 105.908 26.2592 106.268 26.2674 106.623C26.2915 107.638 26.4034 108.666 26.7945 109.603C26.9006 109.857 27.0296 110.107 27.2237 110.304C27.4178 110.5 27.6852 110.637 27.9613 110.625C28.242 110.612 28.4918 110.452 28.7363 110.317C29.4183 109.943 30.1762 109.728 30.9534 109.686C31.3214 109.666 31.7084 109.671 32.0681 109.756C32.356 109.823 32.7348 109.999 32.9711 109.718Z" fill="#FFEFBB"/>
<path d="M29.9564 110.649C28.9991 111.207 28.6917 112.031 28.1111 113.179C27.5025 112.631 27.1439 111.822 26.8466 111.061C26.2455 109.522 25.6495 107.872 25.987 106.255C26.1271 105.583 26.4917 104.887 27.142 104.659C27.6226 104.491 28.1605 104.618 28.6201 104.836C29.5624 105.284 30.2802 106.084 30.9713 106.862C31.3371 107.274 31.7033 107.688 32.0301 108.132C32.2676 108.454 33.004 109.236 32.9731 109.658C32.941 110.1 31.9676 109.88 31.5878 109.939C30.993 110.032 30.4772 110.345 29.9564 110.649Z" fill="url(#paint0_linear_1983_27857)"/>
<path d="M46.2482 143.804C43.2582 143.66 42.2431 142.735 42.1303 141.993L41.5757 136.15C41.5757 135.788 42.4252 135.766 42.7888 135.766H50.1671C50.5308 135.766 51.1521 136.047 51.1521 136.409L50.8273 141.993C50.7757 142.966 48.5969 143.917 46.2482 143.804Z" fill="url(#paint1_linear_1983_27857)"/>
<path d="M62.5085 141.311C65.3113 140.879 66.176 139.906 66.2081 139.196L66.8654 128.963C66.829 128.622 65.3926 127.859 65.05 127.895L58.0092 134.125C57.6665 134.161 57.1091 134.488 57.1452 134.829L58.0133 140.06C58.1577 140.971 60.3061 141.652 62.5085 141.311Z" fill="url(#paint2_linear_1983_27857)"/>
<path d="M36.6546 140.604C33.9444 140.473 33.0233 139.635 32.9211 138.963L32.4181 133.664C32.4181 133.336 33.1897 133.317 33.5181 133.317H40.2088C40.5384 133.317 41.1009 133.572 41.1009 133.9L40.8048 138.963C40.7597 139.845 38.7842 140.707 36.6546 140.604Z" fill="url(#paint3_linear_1983_27857)"/>
<path d="M53.4755 140.078C50.9463 139.947 50.0867 139.109 49.9915 138.437L49.522 133.138C49.522 132.81 50.2408 132.791 50.5485 132.791H56.7919C57.0993 132.791 57.6252 133.046 57.6252 133.374L57.3489 138.437C57.306 139.318 55.4626 140.182 53.4755 140.078Z" fill="url(#paint4_linear_1983_27857)"/>
<path d="M71.074 121.062C71.074 131.342 66.0449 139.414 48.0505 139.779C33.2538 140.079 25.4985 131.446 25.4985 121.167C25.4985 110.887 36.5121 101.941 48.9673 101.981C65.2853 102.033 71.074 110.783 71.074 121.062Z" fill="url(#paint5_linear_1983_27857)"/>
<path d="M38.1365 124.531C38.9459 124.531 39.6021 123.832 39.6021 122.971C39.6021 122.109 38.9459 121.411 38.1365 121.411C37.3271 121.411 36.671 122.109 36.671 122.971C36.671 123.832 37.3271 124.531 38.1365 124.531Z" fill="#FFD895"/>
<path d="M29.311 120.458C29.0065 120.443 28.1751 120.422 27.3579 120.428V131.1C28.0514 131.088 28.741 131.037 29.1904 131.059C31.9151 131.191 33.8557 128.679 33.9948 125.839C34.134 123 32.0364 120.591 29.311 120.458Z" fill="#FFD38B"/>
<path d="M44.876 112.485C44.672 111.383 44.2923 110.32 43.7833 109.32C43.4698 108.701 43.1298 108.08 42.67 107.554C42.105 106.908 41.3438 106.417 40.5102 106.223C40.2519 106.104 39.971 106.04 39.6861 106.036C39.4397 106.034 39.1891 106.081 38.9733 106.199C38.7445 106.325 38.5663 106.525 38.4028 106.727C37.4429 107.922 36.8391 109.36 36.2952 110.788C36.2195 110.979 36.2065 111.188 36.2578 111.387C36.3764 111.819 36.6677 111.706 36.9677 111.723C37.3166 111.742 37.652 111.852 37.9681 112.004C38.6432 112.328 39.2892 112.752 39.7148 113.364C40.8594 115.01 40.5715 116.635 40.5688 116.603C40.5688 116.603 40.5831 116.821 40.6754 116.877C41.1738 117.18 41.9695 116.914 42.4884 116.671C43.5101 116.193 44.531 115.483 44.864 114.409C45.0559 113.791 44.9937 113.12 44.876 112.485Z" fill="#FFEDAF"/>
<path d="M56.6591 105.129C56.602 105.129 56.5451 105.121 56.4904 105.105C49.5679 102.998 44.6604 104.862 44.6114 104.882C44.4692 104.937 44.3105 104.934 44.1704 104.874C44.0302 104.813 43.9201 104.699 43.8642 104.558C43.8083 104.416 43.8111 104.258 43.8722 104.119C43.9332 103.979 44.0474 103.869 44.1897 103.814C44.4041 103.73 49.5241 101.785 56.8274 104.008C56.9596 104.048 57.0729 104.134 57.1466 104.25C57.2204 104.367 57.2497 104.505 57.2292 104.641C57.2088 104.777 57.1399 104.902 57.0352 104.991C56.9304 105.081 56.7968 105.13 56.6587 105.13L56.6591 105.129Z" fill="#EFAB33"/>
<path d="M73.5002 115.672C73.1361 115.793 72.759 115.783 72.4465 115.635C71.2409 115.064 70.6793 113.877 70.7741 112.107C70.7765 112.061 70.7789 112.024 70.7789 112L70.7775 111.977C70.6241 112.043 70.464 112.113 70.2861 112.191C70.1636 112.244 70.0341 112.301 69.8945 112.362C69.4448 112.557 68.9384 112.797 68.6225 113.176C68.3814 113.465 68.2394 113.927 68.4337 114.249C68.4656 114.301 68.4868 114.36 68.496 114.421C68.5051 114.482 68.5022 114.544 68.4872 114.604C68.4722 114.664 68.4456 114.72 68.4088 114.769C68.372 114.819 68.3257 114.861 68.2727 114.892C68.2196 114.924 68.1608 114.945 68.0996 114.954C68.0384 114.963 67.9759 114.961 67.9158 114.946C67.8558 114.931 67.7992 114.904 67.7495 114.868C67.6997 114.831 67.6576 114.785 67.6257 114.732C67.2486 114.108 67.3605 113.222 67.8965 112.577C68.3448 112.039 68.9686 111.739 69.5178 111.501C69.6562 111.441 69.7848 111.385 69.906 111.332C70.3261 111.148 70.6668 110.998 71.0454 110.86C71.165 110.637 71.3073 110.427 71.4702 110.234C72.051 109.532 72.7928 108.979 73.6331 108.622C73.6901 108.598 73.7513 108.586 73.8132 108.585C73.8752 108.584 73.9366 108.596 73.9941 108.619C74.0515 108.642 74.1038 108.676 74.148 108.719C74.1922 108.763 74.2275 108.814 74.2517 108.871C74.2759 108.927 74.2887 108.988 74.2893 109.05C74.2899 109.112 74.2782 109.173 74.2551 109.23C74.2319 109.287 74.1977 109.339 74.1543 109.383C74.1109 109.427 74.0592 109.462 74.0023 109.486C73.4567 109.718 72.9596 110.049 72.5365 110.463C72.9917 110.431 73.4154 110.541 73.7807 110.79C74.5428 111.309 74.905 112.326 74.9834 113.039C75.0974 114.075 74.6253 115.079 73.8086 115.536C73.7104 115.591 73.6071 115.636 73.5002 115.672ZM71.754 111.611C71.7243 111.717 71.7128 111.828 71.7198 111.939C71.7229 112.012 71.7216 112.085 71.7157 112.158C71.6689 113.033 71.7357 114.258 72.8518 114.787C72.9724 114.845 73.1672 114.818 73.3454 114.718C73.8301 114.445 74.1185 113.797 74.0461 113.14C73.9979 112.691 73.7433 111.9 73.2478 111.563C72.9903 111.387 72.6886 111.349 72.3252 111.445C72.1135 111.501 71.9259 111.556 71.754 111.611Z" fill="#FFD177"/>
<path d="M28.8977 117.002C29.0551 116.183 28.871 115.46 28.4865 115.387C28.102 115.314 27.6626 115.918 27.5052 116.737C27.3477 117.556 27.5318 118.28 27.9164 118.353C28.3009 118.426 28.7403 117.821 28.8977 117.002Z" fill="#FFB94A"/>
<path d="M28.021 118.35C27.6365 118.278 27.4525 117.553 27.6097 116.734C27.7519 115.995 28.1235 115.432 28.4777 115.383C28.0953 115.321 27.6615 115.922 27.5053 116.734C27.3478 117.553 27.532 118.277 27.9152 118.35C27.9528 118.356 27.9912 118.356 28.0288 118.35C28.0268 118.35 28.0239 118.351 28.021 118.35Z" fill="#7A321B"/>
<path d="M34.7575 118.379C34.9228 117.519 34.7296 116.76 34.3259 116.683C33.9223 116.606 33.4611 117.241 33.2958 118.1C33.1306 118.96 33.3238 119.72 33.7274 119.796C34.1311 119.873 34.5923 119.239 34.7575 118.379Z" fill="#FFB94A"/>
<path d="M33.8368 119.794C33.4332 119.717 33.2398 118.958 33.405 118.098C33.5542 117.322 33.9444 116.73 34.3159 116.68C33.9145 116.614 33.459 117.245 33.295 118.098C33.1298 118.958 33.323 119.717 33.7266 119.794C33.7665 119.801 33.8073 119.801 33.8472 119.794C33.8428 119.794 33.8397 119.795 33.8368 119.794Z" fill="#7A321B"/>
<path d="M31.8882 125.978C32.0318 123.045 30.0513 120.565 27.4645 120.44C24.8777 120.314 22.6642 122.59 22.5206 125.524C22.3769 128.457 24.3575 130.937 26.9443 131.063C29.5311 131.188 31.7446 128.912 31.8882 125.978Z" fill="#FFF1C4"/>
<path d="M24.9801 126.919C25.3562 126.919 25.6611 126.249 25.6611 125.422C25.6611 124.595 25.3562 123.925 24.9801 123.925C24.6041 123.925 24.2992 124.595 24.2992 125.422C24.2992 126.249 24.6041 126.919 24.9801 126.919Z" fill="#FFB94A"/>
<path d="M24.4564 125.465C24.4564 124.638 24.7614 123.968 25.1373 123.968H25.1398C25.091 123.941 25.0363 123.926 24.9804 123.925C24.6042 123.925 24.2992 124.595 24.2992 125.422C24.2992 126.249 24.6028 126.916 24.978 126.919C24.679 126.761 24.4564 126.171 24.4564 125.465Z" fill="#A64424"/>
<path d="M27.809 127.679C28.1851 127.679 28.4899 127.009 28.4899 126.182C28.4899 125.355 28.1851 124.685 27.809 124.685C27.4329 124.685 27.1281 125.355 27.1281 126.182C27.1281 127.009 27.4329 127.679 27.809 127.679Z" fill="#FFB94A"/>
<path d="M27.2853 126.225C27.2853 125.398 27.59 124.728 27.9662 124.728H27.9686C27.9198 124.7 27.865 124.686 27.809 124.685C27.4331 124.685 27.1281 125.355 27.1281 126.182C27.1281 127.008 27.4316 127.676 27.8066 127.679C27.5076 127.521 27.2853 126.931 27.2853 126.225Z" fill="#A64424"/>
<path d="M39.6181 113.491C40.2298 114.44 40.4902 115.576 40.5778 116.7C41.5893 115.051 41.9088 113.083 42.1352 111.164C42.2613 110.097 42.3609 108.989 42.017 107.97C41.6732 106.951 40.7661 106.043 39.6863 106.036C39.4399 106.034 39.1894 106.081 38.9736 106.199C38.7447 106.325 38.5665 106.525 38.4031 106.727C37.4986 107.853 36.9108 109.194 36.3907 110.54C36.285 110.812 36.1806 111.109 36.2592 111.391C36.3784 111.818 36.6692 111.706 36.9679 111.722C37.3168 111.741 37.6522 111.852 37.9683 112.003C38.6447 112.329 39.2144 112.865 39.6181 113.491Z" fill="url(#paint6_linear_1983_27857)"/>
<path d="M60.1498 104.918C60.5043 105.035 60.8469 105.184 61.1867 105.34C61.5264 105.495 61.8565 105.669 62.1815 105.853C62.2626 105.899 62.3445 105.944 62.4248 105.992C62.5051 106.04 62.5854 106.088 62.6648 106.136L62.9025 106.284L63.1378 106.436C63.4499 106.642 63.7537 106.86 64.0512 107.086C64.3488 107.312 64.635 107.552 64.9152 107.799C65.0526 107.926 65.1929 108.049 65.3251 108.181C65.3919 108.246 65.4601 108.31 65.5254 108.376L65.7205 108.577C65.7863 108.644 65.8483 108.713 65.9117 108.782C65.9751 108.85 66.0395 108.917 66.0996 108.989C66.2201 109.131 66.3441 109.27 66.4593 109.417C66.6939 109.706 66.9112 110.009 67.1154 110.319C66.8697 110.04 66.6303 109.758 66.373 109.491C66.1217 109.22 65.8584 108.96 65.5922 108.705C65.326 108.449 65.0492 108.205 64.7698 107.964C64.6275 107.847 64.4884 107.724 64.3432 107.612C64.201 107.494 64.0539 107.382 63.9092 107.269C63.3228 106.821 62.7164 106.398 62.089 106.007C61.9325 105.908 61.7736 105.813 61.6151 105.719C61.5358 105.671 61.4555 105.625 61.376 105.578L61.1348 105.44C60.8115 105.257 60.4843 105.082 60.1498 104.918Z" fill="white"/>
<g opacity="0.8">
<path d="M151.308 56.3608L129.155 57.291L128.858 28.0182L128.733 15.6839L150.885 14.7541L151.119 37.7836L151.308 56.3608Z" fill="url(#paint7_linear_1983_27857)"/>
<path d="M148.807 54.0863L131.609 54.8083L131.23 17.4109L148.429 16.6892L148.807 54.0863ZM133.714 54.2004L146.686 53.6549C146.895 53.6461 147.102 53.5965 147.295 53.5089C147.487 53.4213 147.662 53.2975 147.808 53.1445C147.955 52.9915 148.071 52.8123 148.149 52.6172C148.227 52.4221 148.266 52.2148 148.263 52.0073L147.929 18.8366C147.924 18.4101 147.749 18.0084 147.441 17.7198C147.134 17.4312 146.719 17.2794 146.289 17.2976L133.37 17.8404C133.159 17.8492 132.95 17.8991 132.756 17.9875C132.561 18.0758 132.385 18.2007 132.237 18.3552C132.089 18.5096 131.972 18.6904 131.893 18.8874C131.814 19.0844 131.774 19.2937 131.776 19.5032L132.113 52.6942C132.117 53.111 132.288 53.5039 132.588 53.7863C132.889 54.0688 133.293 54.2177 133.714 54.2004Z" fill="#C0D8FB"/>
<path d="M135.392 35.9444C135.383 35.0373 135.645 34.1392 136.146 33.3637C136.647 32.5882 137.363 31.97 138.205 31.5874C139.047 31.2049 139.977 31.075 140.876 31.2143C141.775 31.3537 142.604 31.7559 143.258 32.3701C143.911 32.9844 144.36 33.7831 144.548 34.6652C144.735 35.5474 144.653 36.4734 144.311 37.3261C143.97 38.1788 143.384 38.9199 142.628 39.4558C141.872 39.9916 140.98 40.2981 140.065 40.3365C138.838 40.3879 137.656 39.9541 136.78 39.1304C135.903 38.3067 135.404 37.1607 135.392 35.9444Z" fill="#C0D8FB"/>
</g>
<g opacity="0.8">
<path d="M150.84 66.5148L130.714 53.8304L148.605 26.8066L156.143 15.42L176.268 28.1041L162.193 49.3646L150.84 66.5148Z" fill="url(#paint8_linear_1983_27857)"/>
<path d="M150.044 62.9013L134.42 53.054L157.276 18.5294L172.901 28.3773L150.044 62.9013ZM136.654 53.7826L148.44 61.2093C148.63 61.3292 148.843 61.4101 149.068 61.4475C149.292 61.4849 149.523 61.4781 149.747 61.4273C149.971 61.3765 150.184 61.2828 150.374 61.1516C150.564 61.0204 150.727 60.8542 150.854 60.6626L171.128 30.041C171.388 29.647 171.483 29.1715 171.39 28.7189C171.298 28.2663 171.026 27.8738 170.635 27.6276L158.899 20.2311C158.707 20.11 158.491 20.0281 158.265 19.9902C158.038 19.9524 157.805 19.9592 157.579 20.0103C157.353 20.0615 157.137 20.1559 156.946 20.2883C156.754 20.4207 156.589 20.5884 156.461 20.7818L136.176 51.4232C135.921 51.8079 135.828 52.2726 135.918 52.7151C136.007 53.1575 136.272 53.5415 136.654 53.7826Z" fill="#C0D8FB"/>
<path d="M149.456 38.067C150.01 37.2296 150.799 36.5665 151.722 36.1614C152.645 35.7563 153.66 35.6274 154.641 35.7911C155.621 35.9548 156.522 36.4037 157.229 37.081C157.936 37.7583 158.418 38.6337 158.614 39.5963C158.81 40.559 158.711 41.5657 158.329 42.4892C157.948 43.4127 157.301 44.2115 156.47 44.7846C155.64 45.3577 154.663 45.6793 153.664 45.7088C152.665 45.7382 151.688 45.4743 150.856 44.9502C149.741 44.2475 148.968 43.1276 148.705 41.8367C148.442 40.5459 148.713 39.1899 149.456 38.067Z" fill="#C0D8FB"/>
</g>
<g opacity="0.8">
<path d="M152.892 77.1114L139.454 57.4819L166.603 39.7775L178.043 32.3177L191.479 51.9466L170.121 65.8754L152.892 77.1114Z" fill="url(#paint9_linear_1983_27857)"/>
<path d="M153.596 73.4788L143.164 58.2398L177.848 35.6211L188.28 50.8608L153.596 73.4788ZM144.926 59.7952L152.795 71.289C152.922 71.4745 153.086 71.6335 153.277 71.7568C153.468 71.8801 153.682 71.9654 153.908 72.0078C154.134 72.0502 154.367 72.0488 154.593 72.0037C154.82 71.9586 155.035 71.8707 155.228 71.7451L185.992 51.6844C186.388 51.426 186.663 51.027 186.758 50.5749C186.853 50.1228 186.759 49.6547 186.498 49.2735L178.662 37.8269C178.533 37.6395 178.368 37.4789 178.175 37.3542C177.983 37.2296 177.766 37.1434 177.538 37.1005C177.31 37.0576 177.075 37.0588 176.846 37.1042C176.617 37.1496 176.4 37.2382 176.205 37.3649L145.423 57.4396C145.036 57.6915 144.767 58.0812 144.673 58.523C144.58 58.9647 144.671 59.4223 144.926 59.7952Z" fill="#C0D8FB"/>
<path d="M162.915 50.4507C163.756 49.9021 164.743 49.6064 165.751 49.6007C166.759 49.5951 167.742 49.88 168.577 50.4193C169.412 50.9585 170.061 51.728 170.441 52.6304C170.821 53.5327 170.916 54.5275 170.714 55.4888C170.511 56.4501 170.021 57.3348 169.304 58.031C168.587 58.7272 167.676 59.2037 166.687 59.4002C165.697 59.5967 164.673 59.5043 163.744 59.1348C162.815 58.7653 162.023 58.1353 161.468 57.3243C160.724 56.2369 160.458 54.9019 160.729 53.6128C161.001 52.3238 161.787 51.1863 162.915 50.4507Z" fill="#C0D8FB"/>
</g>
<path d="M164.407 102.242L164.706 105.107L164.413 105.138L164.139 102.538L163.451 102.606L163.424 102.345L164.407 102.242Z" fill="white"/>
<path d="M167.623 104.527L167.651 104.788L165.644 104.997L165.623 104.788L166.689 103.5C166.981 103.156 167.032 102.947 167.001 102.751C166.967 102.407 166.713 102.239 166.273 102.287C166.127 102.293 165.984 102.333 165.855 102.402C165.726 102.471 165.614 102.568 165.527 102.685L165.297 102.527C165.412 102.376 165.558 102.252 165.726 102.163C165.894 102.074 166.08 102.022 166.269 102.012C166.85 101.954 167.249 102.208 167.3 102.699C167.311 102.875 167.283 103.052 167.218 103.216C167.152 103.38 167.051 103.527 166.922 103.647L166.049 104.705L167.623 104.527Z" fill="white"/>
<path d="M168.197 72.8652H64.5107V139.71H168.197V72.8652Z" fill="#E0E0E0"/>
<path d="M168.162 72.9233H64.4759V139.768H168.162V72.9233Z" fill="url(#paint10_linear_1983_27857)"/>
<path d="M82.4273 72.8652H67.0382V76.1458H82.4273V72.8652Z" fill="#CBDFF9"/>
<path d="M82.4273 134.423H67.0382V137.704H82.4273V134.423Z" fill="#CBDFF9"/>
<path d="M79.9576 76.0151H69.6295V134.698H79.9576V76.0151Z" fill="url(#paint11_linear_1983_27857)"/>
<path d="M103.613 72.8652H88.2241V76.1458H103.613V72.8652Z" fill="#CBDFF9"/>
<path d="M103.613 134.423H88.2241V137.704H103.613V134.423Z" fill="#CBDFF9"/>
<path d="M101.084 76.146H90.7556V134.829H101.084V76.146Z" fill="url(#paint12_linear_1983_27857)"/>
<path d="M145.568 72.8652H130.179V76.1458H145.568V72.8652Z" fill="#CBDFF9"/>
<path d="M145.568 134.423H130.179V137.704H145.568V134.423Z" fill="#CBDFF9"/>
<path d="M143.036 76.146H132.708V134.829H143.036V76.146Z" fill="url(#paint13_linear_1983_27857)"/>
<path d="M166.771 72.8652H151.382V76.1458H166.771V72.8652Z" fill="#CBDFF9"/>
<path d="M166.771 134.423H151.382V137.704H166.771V134.423Z" fill="#CBDFF9"/>
<path d="M164.24 76.146H153.912V134.829H164.24V76.146Z" fill="url(#paint14_linear_1983_27857)"/>
<path d="M56.5729 66.5409V63.0714L118.023 32.0449L177.023 63.274V66.5409H56.5729Z" fill="url(#paint15_linear_1983_27857)"/>
<path d="M171.069 66.5405H62.4827V73.1807H171.069V66.5405Z" fill="#E7F1FF"/>
<path d="M171.159 137.704H63.0571V141.706H171.159V137.704Z" fill="url(#paint16_linear_1983_27857)"/>
<path d="M173.745 141.596H58.9504V145.598H173.745V141.596Z" fill="#A6C7F4"/>
<path d="M71.6732 61.3089L117.964 37.936L162.121 61.3089H71.6732Z" fill="url(#paint17_linear_1983_27857)"/>
<path d="M120.939 55.2427C120.343 55.7701 119.589 56.0865 118.795 56.1427V57.5167H117.558V56.1701C116.964 56.1396 116.376 56.0311 115.81 55.8472C115.329 55.7024 114.877 55.4758 114.473 55.1774L115.16 53.6659C115.499 53.9112 115.87 54.1078 116.263 54.2499C116.682 54.4061 117.12 54.5054 117.565 54.5453V52.4842C117.057 52.3713 116.559 52.2138 116.078 52.0136C115.677 51.8495 115.322 51.5887 115.047 51.2544C114.76 50.8711 114.615 50.3999 114.638 49.9216C114.635 49.5914 114.701 49.2642 114.83 48.9604C114.96 48.6567 115.15 48.3828 115.39 48.1559C115.99 47.6228 116.751 47.307 117.552 47.2593V45.8853H118.788V47.2353C119.676 47.2777 120.54 47.5372 121.303 47.991L120.685 49.5128C120.106 49.1705 119.463 48.9507 118.795 48.867V50.9727C119.303 51.0811 119.799 51.234 120.28 51.4296C120.674 51.5934 121.021 51.8532 121.29 52.1854C121.577 52.5635 121.721 53.0304 121.699 53.5045C121.7 53.8311 121.634 54.1546 121.503 54.4539C121.372 54.7533 121.18 55.022 120.939 55.2427ZM116.875 50.3338C117.078 50.4941 117.312 50.611 117.562 50.6773V48.9116C117.304 48.9548 117.064 49.0745 116.875 49.2552C116.729 49.4062 116.649 49.6087 116.651 49.8185C116.647 49.9157 116.665 50.0127 116.703 50.102C116.742 50.1913 116.801 50.2706 116.875 50.3338ZM119.465 54.1846C119.537 54.1158 119.594 54.033 119.632 53.9415C119.67 53.8499 119.69 53.7515 119.689 53.6522C119.69 53.5557 119.67 53.46 119.631 53.3721C119.591 53.2842 119.532 53.2062 119.458 53.1438C119.26 52.9902 119.035 52.8738 118.795 52.8002V54.5178C119.046 54.4723 119.278 54.3567 119.465 54.1846Z" fill="#F9FBFF"/>
<path d="M126.018 105.485H108.389V137.704H126.018V105.485Z" fill="url(#paint18_linear_1983_27857)"/>
<path d="M198.996 116.9H177.421C176.525 116.9 175.798 117.497 175.798 118.234V121.112C175.798 121.848 176.525 122.445 177.421 122.445H198.996C199.892 122.445 200.619 121.848 200.619 121.112V118.234C200.619 117.497 199.892 116.9 198.996 116.9Z" fill="url(#paint19_linear_1983_27857)"/>
<path d="M176.135 117.425H200.283C200.132 117.262 199.937 117.13 199.713 117.039C199.489 116.947 199.243 116.9 198.993 116.9H177.423C177.174 116.9 176.928 116.948 176.704 117.039C176.481 117.13 176.286 117.262 176.135 117.425Z" fill="#FFBA33"/>
<path d="M203.054 122.729H181.48C180.583 122.729 179.856 123.326 179.856 124.063V126.941C179.856 127.677 180.583 128.274 181.48 128.274H203.054C203.951 128.274 204.678 127.677 204.678 126.941V124.063C204.678 123.326 203.951 122.729 203.054 122.729Z" fill="url(#paint20_linear_1983_27857)"/>
<path d="M180.194 123.254H204.341C204.19 123.091 203.995 122.959 203.772 122.868C203.548 122.777 203.302 122.729 203.052 122.729H181.482C181.232 122.729 180.986 122.777 180.763 122.868C180.539 122.959 180.345 123.091 180.194 123.254Z" fill="#FFBA33"/>
<path d="M198.996 128.56H177.421C176.525 128.56 175.798 129.156 175.798 129.893V132.771C175.798 133.507 176.525 134.104 177.421 134.104H198.996C199.892 134.104 200.619 133.507 200.619 132.771V129.893C200.619 129.156 199.892 128.56 198.996 128.56Z" fill="url(#paint21_linear_1983_27857)"/>
<path d="M176.135 129.084H200.283C200.132 128.921 199.937 128.789 199.713 128.698C199.489 128.607 199.243 128.559 198.993 128.56H177.423C177.174 128.56 176.928 128.607 176.704 128.698C176.481 128.789 176.286 128.921 176.135 129.084Z" fill="#FFBA33"/>
<path d="M204.064 134.389H182.49C181.593 134.389 180.866 134.986 180.866 135.722V138.6C180.866 139.336 181.593 139.933 182.49 139.933H204.064C204.961 139.933 205.688 139.336 205.688 138.6V135.722C205.688 134.986 204.961 134.389 204.064 134.389Z" fill="url(#paint22_linear_1983_27857)"/>
<path d="M181.204 134.913H205.352C205.2 134.75 205.005 134.618 204.782 134.527C204.558 134.436 204.312 134.388 204.062 134.389H182.492C182.243 134.389 181.997 134.436 181.773 134.527C181.55 134.618 181.355 134.75 181.204 134.913Z" fill="#FFBA33"/>
<path d="M200.011 140.219H178.436C177.54 140.219 176.813 140.816 176.813 141.552V144.43C176.813 145.166 177.54 145.763 178.436 145.763H200.011C200.908 145.763 201.634 145.166 201.634 144.43V141.552C201.634 140.816 200.908 140.219 200.011 140.219Z" fill="url(#paint23_linear_1983_27857)"/>
<path d="M177.15 140.744H201.298C201.147 140.58 200.952 140.448 200.728 140.357C200.505 140.266 200.258 140.219 200.009 140.219H178.439C178.189 140.219 177.943 140.266 177.72 140.357C177.496 140.448 177.301 140.58 177.15 140.744Z" fill="#FFBA33"/>
<path d="M61.5488 44.3814C61.6377 44.2909 61.7166 44.1909 61.784 44.0834C62.7881 42.394 61.3905 39.9757 59.6956 37.8759C58.0218 35.8022 55.8283 34.1906 53.949 34.6741C53.3916 34.8175 52.6791 35.5561 52.2389 35.9142C50.2808 37.5067 50.4444 40.967 52.6043 43.643C54.6899 46.2268 57.8744 47.1344 59.8538 45.7599L61.5488 44.3814Z" fill="#F5C751"/>
<path d="M61.2428 44.6434C63.2011 43.0508 63.0375 39.5905 60.8775 36.9146C58.7175 34.2386 55.379 33.3603 53.4207 34.9529C51.4624 36.5454 51.6259 40.0057 53.7859 42.6817C55.9459 45.3576 59.2845 46.2359 61.2428 44.6434Z" fill="#FFDB6C"/>
<path d="M60.0395 43.1525C61.3952 42.05 61.282 39.6544 59.7866 37.8018C58.2912 35.9492 55.9799 35.3411 54.6241 36.4436C53.2684 37.5462 53.3816 39.9418 54.877 41.7944C56.3725 43.647 58.6838 44.2551 60.0395 43.1525Z" fill="url(#paint24_linear_1983_27857)"/>
<path d="M55.1458 41.5394C53.7556 39.8171 53.5604 37.6258 54.629 36.4402L54.6241 36.4441C53.2684 37.5466 53.3817 39.9424 54.877 41.7949C56.3723 43.6473 58.6837 44.2555 60.0394 43.153C60.1338 43.0761 60.2221 42.9919 60.3035 42.9013C58.9461 43.9989 56.6393 43.3896 55.1458 41.5394Z" fill="#EDBA36"/>
<path d="M61.7811 44.0943C61.6701 44.2479 61.5466 44.3919 61.4118 44.525C61.3445 44.592 61.2735 44.6552 61.1991 44.7142L61.0877 44.8048C61.0507 44.8349 61.0102 44.8601 60.9707 44.8885C60.8138 44.9978 60.6482 45.094 60.4756 45.1762C60.432 45.1958 60.3877 45.2141 60.3438 45.2333C60.2998 45.2524 60.2563 45.2726 60.2108 45.2875C60.1203 45.3186 60.0308 45.3544 59.9378 45.3777C59.8914 45.3902 59.8453 45.403 59.7985 45.4141L59.6573 45.4403C59.5627 45.4603 59.4679 45.4691 59.3733 45.4821C59.3259 45.4893 59.2783 45.4915 59.2306 45.4951L59.0874 45.5056L58.9442 45.5083L58.8717 45.51L58.8356 45.5109L58.7999 45.5097C58.4184 45.5007 58.0391 45.45 57.6688 45.3584C56.9291 45.1777 56.2302 44.853 55.5963 44.4367C54.9636 44.0164 54.3922 43.5103 53.8981 42.9327C53.402 42.3572 52.986 41.7168 52.6613 41.0288C52.3388 40.3412 52.1127 39.6043 52.0225 38.8466C51.9764 38.4673 51.9683 38.0841 51.9983 37.7029C52.0267 37.3203 52.1039 36.9428 52.2278 36.5796L52.2795 36.4452C52.2981 36.4009 52.3192 36.3572 52.3385 36.3138L52.368 36.2484L52.3829 36.2156L52.3997 36.1839L52.4662 36.0559C52.4874 36.0132 52.5129 35.9725 52.5379 35.9318L52.6128 35.8092L52.6949 35.6919C52.7226 35.6531 52.7486 35.6131 52.7798 35.5767C52.8401 35.5029 52.8975 35.4267 52.9643 35.3587C52.9967 35.3238 53.0285 35.2887 53.0613 35.2543L53.1662 35.1557C53.2336 35.0887 53.3104 35.0325 53.383 34.972L53.4119 34.9485C53.4211 34.9411 53.4311 34.9347 53.4408 34.928L53.499 34.8873L53.6147 34.8061L53.4229 34.9621L53.3973 34.9862C53.3293 35.0515 53.2576 35.1121 53.1957 35.1831L53.0993 35.2854C53.0691 35.3211 53.04 35.3577 53.0106 35.3945C52.9492 35.4652 52.8975 35.5434 52.8427 35.619C52.8145 35.6559 52.7918 35.6973 52.7667 35.7365L52.6934 35.8556L52.6278 35.9787C52.6058 36.02 52.5833 36.0607 52.5651 36.1036L52.5073 36.2304L52.493 36.262L52.4806 36.2946L52.4556 36.3597C52.4391 36.4033 52.4218 36.4462 52.4063 36.4898L52.3653 36.6218C52.3348 36.7094 52.3119 36.7993 52.2848 36.8878C52.2703 36.9321 52.2614 36.9777 52.2509 37.0228L52.2198 37.1589L52.1957 37.296C52.1886 37.342 52.1783 37.3873 52.1736 37.4336L52.1569 37.572L52.1486 37.6413C52.1463 37.6645 52.1451 37.6877 52.1434 37.7108C52.1144 38.0825 52.1223 38.456 52.167 38.8259C52.2553 39.5666 52.4766 40.2893 52.7934 40.9643C53.4352 42.3226 54.4321 43.4801 55.6783 44.3142C56.2995 44.7235 56.9843 45.0412 57.7062 45.2172C58.0662 45.3063 58.435 45.3557 58.8059 45.3644C59.1759 45.3728 59.5455 45.3298 59.904 45.2367C59.9948 45.2183 60.0825 45.1898 60.1715 45.1643C60.2165 45.1528 60.2589 45.1354 60.3028 45.1199C60.3468 45.1045 60.3889 45.0894 60.4334 45.0718C60.6056 45.001 60.7721 44.9168 60.9314 44.82C60.9708 44.7953 61.0118 44.7724 61.0504 44.7462L61.1646 44.6655C61.2415 44.612 61.3155 44.5544 61.3861 44.4927C61.5285 44.3711 61.6606 44.2378 61.7811 44.0943Z" fill="white"/>
<path d="M53.1337 82.8628C53.148 82.6907 53.1435 82.5176 53.1205 82.3464C52.7013 79.7051 49.1346 78.3905 45.534 77.6679C41.9783 76.9542 38.2808 77.1762 36.735 79.317C36.2765 79.952 36.1737 81.3446 36.0246 82.1022C35.3612 85.472 38.5433 88.9504 43.1318 89.8714C47.5624 90.7607 51.6843 88.94 52.5595 85.7797L53.1337 82.8628Z" fill="#F5C751"/>
<path d="M53.0412 83.4036C53.7046 80.0336 50.5226 76.5551 45.9341 75.6341C41.3455 74.7131 37.088 76.6984 36.4246 80.0685C35.7612 83.4385 38.9432 86.917 43.5318 87.838C48.1203 88.759 52.3779 86.7737 53.0412 83.4036Z" fill="#FFDB6C"/>
<path d="M50.4856 82.8903C50.9448 80.5572 48.7419 78.149 45.5652 77.5114C42.3884 76.8737 39.4409 78.2482 38.9816 80.5813C38.5224 82.9143 40.7253 85.3226 43.9021 85.9602C47.0788 86.5978 50.0263 85.2233 50.4856 82.8903Z" fill="url(#paint25_linear_1983_27857)"/>
<path d="M43.9614 85.4591C41.0081 84.8663 38.8971 82.7431 38.9837 80.5727L38.982 80.5812C38.5228 82.9143 40.7259 85.3226 43.9025 85.9602C47.079 86.5978 50.0268 85.2233 50.4861 82.8902C50.5179 82.7276 50.537 82.5628 50.5434 82.3971C50.0781 84.7266 47.1341 86.0959 43.9614 85.4591Z" fill="#EDBA36"/>
<path d="M53.1282 82.3594C53.1456 82.6167 53.1417 82.875 53.1165 83.1315C53.1043 83.2602 53.085 83.388 53.0586 83.5145L53.0208 83.7062C53.0083 83.7698 52.9878 83.8315 52.9713 83.8955C52.9021 84.1464 52.8126 84.3912 52.7036 84.6274C52.675 84.6858 52.6446 84.7434 52.6152 84.8017C52.5859 84.86 52.558 84.919 52.5232 84.9742C52.4556 85.0854 52.3932 85.2008 52.316 85.306C52.2785 85.3595 52.2413 85.413 52.202 85.4653L52.077 85.6156C51.9955 85.7188 51.9039 85.8104 51.8163 85.9064C51.7729 85.9551 51.725 85.9989 51.6783 86.0441L51.5375 86.1797L51.39 86.3071L51.3157 86.3719L51.2787 86.4043L51.2402 86.4341C50.8333 86.7566 50.3923 87.0335 49.9251 87.2598C48.9938 87.7142 47.98 87.9826 46.9544 88.0983C45.9268 88.2089 44.8884 88.1765 43.8689 88.0019C42.849 87.8313 41.8564 87.5231 40.9181 87.0856C39.9823 86.6467 39.1045 86.0724 38.3508 85.3579C37.9725 85.001 37.6306 84.6072 37.3303 84.1822C37.0271 83.7571 36.7793 83.295 36.593 82.807L36.5302 82.6214C36.5111 82.559 36.4951 82.4948 36.4775 82.4327L36.4515 82.3386L36.4386 82.2914L36.4285 82.2435L36.3868 82.0518C36.3718 81.9886 36.3631 81.9239 36.3539 81.8595L36.3256 81.6661L36.3094 81.4719C36.3046 81.4072 36.297 81.3427 36.2979 81.2775C36.2968 81.1477 36.2906 81.0181 36.3013 80.8888C36.3049 80.8241 36.3076 80.7597 36.312 80.6952L36.336 80.5007C36.3482 80.3721 36.3797 80.2465 36.403 80.12L36.4128 80.0702C36.4159 80.0545 36.4209 80.0391 36.4251 80.0236L36.4506 79.9303L36.5011 79.7447L36.4361 80.0749L36.4303 80.1223C36.416 80.2498 36.3936 80.3756 36.3906 80.5037L36.3789 80.6947C36.3783 80.7583 36.3796 80.822 36.381 80.886C36.3781 81.0134 36.3921 81.1402 36.4006 81.267C36.4032 81.3301 36.4155 81.3931 36.4233 81.4561L36.4503 81.6445L36.4888 81.8303C36.5016 81.8927 36.5136 81.9549 36.5318 82.0155L36.5817 82.1985L36.5942 82.2441L36.6096 82.289L36.64 82.3788C36.6608 82.4388 36.6799 82.4988 36.7017 82.5578L36.7736 82.7317C36.8179 82.8498 36.8722 82.9639 36.9208 83.0801C36.9442 83.139 36.9746 83.1945 37.0029 83.2508L37.0888 83.4203L37.1828 83.5846C37.2154 83.639 37.2441 83.6954 37.2794 83.7479L37.3824 83.9073L37.4339 83.987C37.4518 84.0133 37.4706 84.0386 37.489 84.0642C37.782 84.4784 38.1153 84.8624 38.484 85.2105C39.2209 85.9088 40.0813 86.4725 41.0001 86.9032C42.8536 87.7662 44.9039 88.1102 46.9337 87.8989C47.9398 87.7868 48.9328 87.5233 49.8413 87.0796C50.2956 86.8596 50.7244 86.5904 51.1202 86.2769C51.5146 85.9637 51.8639 85.5972 52.1581 85.1878C52.237 85.0897 52.304 84.9836 52.375 84.8794C52.412 84.8283 52.4412 84.7732 52.4738 84.7187C52.5063 84.6643 52.5373 84.6119 52.5684 84.5548C52.6871 84.3309 52.7881 84.098 52.8705 83.8581C52.8903 83.798 52.9132 83.7384 52.9307 83.6773L52.98 83.4935C53.014 83.3707 53.0412 83.246 53.0615 83.1201C53.1047 82.8689 53.127 82.6145 53.1282 82.3594Z" fill="white"/>
<path d="M187.872 96.757C187.73 96.6438 187.576 96.5462 187.413 96.466C184.862 95.2848 181.625 97.6273 178.885 100.346C176.179 103.031 174.206 106.387 175.17 108.99C175.455 109.762 176.611 110.668 177.185 111.242C179.738 113.794 184.639 113.055 188.131 109.59C191.503 106.245 192.328 101.581 190.082 98.9666L187.872 96.757Z" fill="#F5C751"/>
<path d="M188.29 97.1537C185.737 94.6009 180.836 95.3401 177.344 98.8048C173.852 102.27 173.091 107.148 175.644 109.7C178.197 112.253 183.098 111.514 186.59 108.049C190.082 104.585 190.843 99.7066 188.29 97.1537Z" fill="#FFDB6C"/>
<path d="M186.343 99.0839C184.576 97.3166 181.183 97.8284 178.765 100.227C176.348 102.626 175.821 106.003 177.588 107.77C179.356 109.538 182.749 109.026 185.166 106.627C187.584 104.228 188.111 100.851 186.343 99.0839Z" fill="url(#paint26_linear_1983_27857)"/>
<path d="M184.764 106.282C182.517 108.512 179.427 109.111 177.583 107.764L177.589 107.77C179.357 109.537 182.75 109.026 185.167 106.627C187.585 104.229 188.112 100.851 186.344 99.0839C186.221 98.9609 186.088 98.8476 185.947 98.7451C187.708 100.516 187.179 103.887 184.764 106.282Z" fill="#EDBA36"/>
<path d="M187.428 96.4682C187.663 96.6037 187.886 96.7584 188.095 96.9306C188.201 97.0166 188.301 97.1083 188.396 97.2055L188.541 97.3507C188.589 97.3989 188.631 97.4529 188.677 97.5048C188.856 97.7122 189.017 97.9336 189.159 98.1671C189.194 98.2263 189.226 98.2866 189.26 98.3463C189.293 98.4061 189.329 98.465 189.356 98.5276C189.414 98.6517 189.478 98.7738 189.525 98.9028C189.549 98.9669 189.574 99.0307 189.597 99.0956L189.655 99.2927C189.697 99.4243 189.724 99.5578 189.756 99.6905C189.773 99.7569 189.783 99.8244 189.795 99.8916L189.831 100.094L189.856 100.297L189.869 100.4L189.876 100.451L189.879 100.502C189.922 101.046 189.906 101.593 189.83 102.134C189.681 103.212 189.321 104.254 188.821 105.217C188.316 106.179 187.679 107.066 186.93 107.853C186.183 108.643 185.333 109.329 184.401 109.891C183.47 110.451 182.454 110.88 181.389 111.12C180.856 111.241 180.312 111.308 179.765 111.321C179.216 111.337 178.667 111.283 178.132 111.159L177.934 111.106C177.868 111.086 177.802 111.062 177.738 111.041L177.641 111.008L177.592 110.992L177.544 110.973L177.352 110.897C177.288 110.873 177.227 110.843 177.165 110.813L176.98 110.724L176.801 110.625C176.741 110.591 176.681 110.56 176.624 110.521C176.51 110.446 176.394 110.376 176.287 110.29C176.233 110.249 176.178 110.209 176.124 110.168L175.969 110.033C175.863 109.947 175.772 109.846 175.675 109.751L175.638 109.714C175.626 109.702 175.615 109.688 175.604 109.676L175.538 109.599L175.405 109.446L175.655 109.696L175.693 109.729C175.796 109.816 175.893 109.909 176.003 109.987L176.163 110.109C176.218 110.147 176.275 110.183 176.331 110.219C176.441 110.296 176.56 110.358 176.675 110.425C176.732 110.46 176.794 110.486 176.854 110.516L177.034 110.603L177.219 110.678C177.281 110.704 177.342 110.73 177.406 110.749L177.595 110.813L177.642 110.829L177.69 110.842L177.786 110.868C177.851 110.885 177.914 110.903 177.978 110.919L178.172 110.958C178.301 110.988 178.433 111.008 178.563 111.033C178.628 111.047 178.694 111.053 178.76 111.062L178.958 111.086L179.157 111.1C179.223 111.104 179.289 111.112 179.356 111.111L179.555 111.115L179.655 111.117C179.688 111.117 179.722 111.115 179.755 111.114C180.288 111.101 180.818 111.035 181.338 110.917C182.38 110.683 183.376 110.262 184.29 109.713C186.129 108.601 187.63 107.013 188.635 105.118C189.127 104.175 189.478 103.154 189.623 102.101C189.697 101.576 189.713 101.044 189.672 100.515C189.629 99.9873 189.514 99.4679 189.329 98.9714C189.29 98.8451 189.236 98.7244 189.187 98.6015C189.164 98.5392 189.133 98.4815 189.104 98.4212C189.076 98.3608 189.048 98.3031 189.017 98.2425C188.891 98.0078 188.747 97.7833 188.586 97.5709C188.545 97.5184 188.506 97.4635 188.463 97.4124L188.331 97.2617C188.244 97.1601 188.151 97.0634 188.053 96.9719C187.859 96.7871 187.65 96.6186 187.428 96.4682Z" fill="white"/>
<path d="M88.1315 39.2214C88.2438 39.2335 88.3571 39.2335 88.4694 39.2212C90.2035 38.9903 91.1216 36.6801 91.6533 34.3381C92.1784 32.0252 92.094 29.6044 90.7194 28.5589C90.3117 28.2489 89.4027 28.1589 88.9097 28.049C86.717 27.5604 84.3902 29.5838 83.7126 32.5685C83.0583 35.4504 84.1813 38.1747 86.2335 38.7984L88.1315 39.2214Z" fill="#F5C751"/>
<path d="M87.7795 39.1527C89.9724 39.6414 92.2993 37.618 92.9769 34.6334C93.6545 31.6487 92.4261 28.833 90.2333 28.3443C88.0405 27.8556 85.7135 29.879 85.0359 32.8637C84.3583 35.8483 85.5867 38.664 87.7795 39.1527Z" fill="#FFDB6C"/>
<path d="M88.1568 37.4894C89.6749 37.8278 91.2859 36.4269 91.755 34.3606C92.2241 32.2943 91.3737 30.3449 89.8556 30.0066C88.3375 29.6683 86.7265 31.0691 86.2574 33.1355C85.7883 35.2018 86.6387 37.1511 88.1568 37.4894Z" fill="url(#paint27_linear_1983_27857)"/>
<path d="M86.584 33.1826C87.0201 31.2617 88.4431 29.9163 89.8608 30.0083L89.8553 30.0071C88.3373 29.6688 86.7263 31.0697 86.2573 33.1359C85.7882 35.2021 86.6385 37.1515 88.1566 37.4899C88.2624 37.5133 88.3699 37.5285 88.4781 37.5354C86.9625 37.1932 86.1155 35.2463 86.584 33.1826Z" fill="#EDBA36"/>
<path d="M88.4602 39.2251C88.2917 39.2323 88.1229 39.2256 87.9555 39.2049C87.8716 39.1948 87.7883 39.1801 87.7061 39.1608L87.5813 39.133C87.5399 39.1237 87.4999 39.1093 87.4583 39.0975C87.2954 39.0482 87.1368 38.9856 86.9842 38.9105C86.9464 38.8909 86.9092 38.8701 86.8716 38.8499C86.834 38.8298 86.7959 38.8106 86.7604 38.787C86.6888 38.741 86.6143 38.6983 86.5467 38.6461C86.5124 38.6207 86.478 38.5955 86.4445 38.569L86.3483 38.4848C86.2821 38.4298 86.2237 38.3685 86.1624 38.3096C86.1312 38.2805 86.1034 38.2484 86.0746 38.2171L85.9883 38.1229L85.9074 38.0244L85.8662 37.9748L85.8456 37.95L85.8268 37.9244C85.6226 37.6531 85.4488 37.3603 85.3085 37.0512C85.0266 36.435 84.8678 35.7678 84.8089 35.0955C84.7535 34.4219 84.7917 33.7437 84.9226 33.08C85.0509 32.416 85.2687 31.7722 85.5702 31.166C85.8726 30.5614 86.2626 29.9969 86.7421 29.5159C86.9817 29.2744 87.2448 29.0573 87.5277 28.8679C87.8106 28.6767 88.1169 28.5223 88.439 28.4084L88.5614 28.3704C88.6025 28.3589 88.6447 28.3495 88.6856 28.339L88.7476 28.3236L88.7787 28.3159L88.8102 28.3101L88.9362 28.2859C88.9778 28.2772 89.0202 28.2725 89.0625 28.2676L89.1895 28.2522L89.3167 28.2448C89.3591 28.2427 89.4014 28.2388 89.444 28.2405C89.5289 28.2419 89.6137 28.2399 89.6981 28.2491C89.7403 28.2525 89.7824 28.2553 89.8245 28.2592L89.9513 28.278C90.0352 28.2881 90.1168 28.3108 90.1991 28.328L90.2316 28.3353C90.2418 28.3376 90.2517 28.3411 90.2618 28.3441L90.3224 28.3623L90.4429 28.3983L90.2281 28.3504L90.1972 28.3459C90.1141 28.3344 90.0322 28.3177 89.9484 28.3137L89.8238 28.3029C89.7821 28.3015 89.7405 28.3013 89.6986 28.3012C89.6154 28.2972 89.5322 28.3043 89.4492 28.3078C89.4079 28.3085 89.3664 28.3154 89.3251 28.3196L89.2015 28.3341L89.0793 28.3562C89.0384 28.3636 88.9975 28.3704 88.9575 28.3813L88.8371 28.4109L88.8071 28.4184L88.7774 28.4277L88.7182 28.4461C88.6787 28.4587 88.6391 28.4703 88.6002 28.4835L88.4853 28.5277C88.4073 28.5548 88.3318 28.5884 88.2551 28.6183C88.2162 28.6326 88.1794 28.6516 88.1421 28.6691L88.0298 28.7225L87.9208 28.7813C87.8847 28.8017 87.8474 28.8195 87.8125 28.8418L87.7066 28.9065L87.6536 28.9389C87.6361 28.9501 87.6193 28.962 87.6022 28.9737C87.3266 29.1584 87.07 29.37 86.8363 29.6054C86.3676 30.0757 85.9849 30.629 85.6881 31.2226C85.0934 32.4201 84.8348 33.7549 84.9397 35.0852C84.9965 35.7448 85.1524 36.3982 85.4277 36.9994C85.5641 37.2999 85.733 37.5847 85.9316 37.8485C86.1299 38.1115 86.3638 38.3458 86.6266 38.5448C86.6895 38.598 86.7578 38.6435 86.8247 38.6916C86.8576 38.7167 86.8931 38.7366 86.9282 38.7588C86.9633 38.781 86.997 38.8021 87.0338 38.8234C87.1783 38.9046 87.329 38.9744 87.4844 39.0322C87.5235 39.0461 87.562 39.0621 87.6017 39.0745L87.721 39.1098C87.8008 39.134 87.8819 39.1538 87.9639 39.1691C88.1275 39.2015 88.2935 39.2202 88.4602 39.2251Z" fill="white"/>
<defs>
<linearGradient id="paint0_linear_1983_27857" x1="29.4316" y1="104.582" x2="29.4316" y2="113.179" gradientUnits="userSpaceOnUse">
<stop stop-color="#FFD085"/>
<stop offset="1" stop-color="#FFE4AB"/>
</linearGradient>
<linearGradient id="paint1_linear_1983_27857" x1="41.5757" y1="136.461" x2="49.4545" y2="145.541" gradientUnits="userSpaceOnUse">
<stop stop-color="#FFF8B7"/>
<stop offset="1" stop-color="#FEC659"/>
</linearGradient>
<linearGradient id="paint2_linear_1983_27857" x1="57.1436" y1="129.062" x2="69.675" y2="137.797" gradientUnits="userSpaceOnUse">
<stop stop-color="#FFEFB7"/>
<stop offset="1" stop-color="#FED059"/>
</linearGradient>
<linearGradient id="paint3_linear_1983_27857" x1="32.4181" y1="133.948" x2="39.5606" y2="142.18" gradientUnits="userSpaceOnUse">
<stop stop-color="#FFEFB7"/>
<stop offset="1" stop-color="#FEC659"/>
</linearGradient>
<linearGradient id="paint4_linear_1983_27857" x1="49.522" y1="133.422" x2="56.7178" y2="141.161" gradientUnits="userSpaceOnUse">
<stop stop-color="#FFEFB7"/>
<stop offset="1" stop-color="#FEC659"/>
</linearGradient>
<linearGradient id="paint5_linear_1983_27857" x1="36.7856" y1="102.89" x2="69.3667" y2="142.535" gradientUnits="userSpaceOnUse">
<stop offset="0.0230301" stop-color="#FFFDEB"/>
<stop offset="1" stop-color="#FDDF40"/>
</linearGradient>
<linearGradient id="paint6_linear_1983_27857" x1="39.2421" y1="106.036" x2="39.2421" y2="116.7" gradientUnits="userSpaceOnUse">
<stop stop-color="#FFCB7C"/>
<stop offset="1" stop-color="#FFECBB"/>
</linearGradient>
<linearGradient id="paint7_linear_1983_27857" x1="126.384" y1="11.8949" x2="134.424" y2="79.9437" gradientUnits="userSpaceOnUse">
<stop stop-color="white"/>
<stop offset="0.0001" stop-color="white"/>
<stop offset="0.994792" stop-color="#DFECFF"/>
</linearGradient>
<linearGradient id="paint8_linear_1983_27857" x1="156.42" y1="10.51" x2="121.077" y2="77.6969" gradientUnits="userSpaceOnUse">
<stop stop-color="white"/>
<stop offset="1" stop-color="#C7DDFF"/>
</linearGradient>
<linearGradient id="paint9_linear_1983_27857" x1="180.246" y1="27.9207" x2="144.553" y2="88.8934" gradientUnits="userSpaceOnUse">
<stop stop-color="white"/>
<stop offset="1" stop-color="#C7DDFF"/>
</linearGradient>
<linearGradient id="paint10_linear_1983_27857" x1="116.529" y1="141.111" x2="116.529" y2="63.3049" gradientUnits="userSpaceOnUse">
<stop stop-color="#E1EDFE"/>
<stop offset="1" stop-color="white"/>
</linearGradient>
<linearGradient id="paint11_linear_1983_27857" x1="74.9583" y1="154.378" x2="74.9583" y2="75.8846" gradientUnits="userSpaceOnUse">
<stop stop-color="#A7C9F8"/>
<stop offset="1" stop-color="#EFF6FF"/>
</linearGradient>
<linearGradient id="paint12_linear_1983_27857" x1="96.0845" y1="154.509" x2="96.0845" y2="76.0155" gradientUnits="userSpaceOnUse">
<stop stop-color="#A7C9F8"/>
<stop offset="1" stop-color="#EFF6FF"/>
</linearGradient>
<linearGradient id="paint13_linear_1983_27857" x1="138.037" y1="154.509" x2="138.037" y2="76.0155" gradientUnits="userSpaceOnUse">
<stop stop-color="#A7C9F8"/>
<stop offset="1" stop-color="#EFF6FF"/>
</linearGradient>
<linearGradient id="paint14_linear_1983_27857" x1="159.241" y1="154.509" x2="159.241" y2="76.0155" gradientUnits="userSpaceOnUse">
<stop stop-color="#A7C9F8"/>
<stop offset="1" stop-color="#EFF6FF"/>
</linearGradient>
<linearGradient id="paint15_linear_1983_27857" x1="100.895" y1="26.2051" x2="118.24" y2="74.6431" gradientUnits="userSpaceOnUse">
<stop stop-color="#DAE9FD"/>
<stop offset="1" stop-color="#A6C7F4"/>
</linearGradient>
<linearGradient id="paint16_linear_1983_27857" x1="117.108" y1="135.787" x2="117.108" y2="152.619" gradientUnits="userSpaceOnUse">
<stop stop-color="#C7DEFF"/>
<stop offset="0.712564" stop-color="#7DACEE"/>
</linearGradient>
<linearGradient id="paint17_linear_1983_27857" x1="116.897" y1="37.936" x2="116.897" y2="75.4996" gradientUnits="userSpaceOnUse">
<stop stop-color="#F9FCFF"/>
<stop offset="1" stop-color="#F9FCFF" stop-opacity="0"/>
</linearGradient>
<linearGradient id="paint18_linear_1983_27857" x1="117.204" y1="105.485" x2="117.204" y2="137.704" gradientUnits="userSpaceOnUse">
<stop stop-color="#DDEBFF"/>
<stop offset="1" stop-color="#98BEF1"/>
</linearGradient>
<linearGradient id="paint19_linear_1983_27857" x1="200.135" y1="121.897" x2="176.306" y2="115.661" gradientUnits="userSpaceOnUse">
<stop stop-color="#FFC738"/>
<stop offset="1" stop-color="#FFF5DA"/>
</linearGradient>
<linearGradient id="paint20_linear_1983_27857" x1="204.193" y1="127.726" x2="180.364" y2="121.49" gradientUnits="userSpaceOnUse">
<stop stop-color="#FFC738"/>
<stop offset="1" stop-color="#FFF5DA"/>
</linearGradient>
<linearGradient id="paint21_linear_1983_27857" x1="200.135" y1="133.557" x2="176.306" y2="127.32" gradientUnits="userSpaceOnUse">
<stop stop-color="#FFC738"/>
<stop offset="1" stop-color="#FFF5DA"/>
</linearGradient>
<linearGradient id="paint22_linear_1983_27857" x1="205.203" y1="139.386" x2="181.374" y2="133.149" gradientUnits="userSpaceOnUse">
<stop stop-color="#FFC738"/>
<stop offset="1" stop-color="#FFF5DA"/>
</linearGradient>
<linearGradient id="paint23_linear_1983_27857" x1="201.15" y1="145.216" x2="177.321" y2="138.979" gradientUnits="userSpaceOnUse">
<stop stop-color="#FFC738"/>
<stop offset="1" stop-color="#FFF5DA"/>
</linearGradient>
<linearGradient id="paint24_linear_1983_27857" x1="54.6241" y1="36.4436" x2="60.0639" y2="43.1327" gradientUnits="userSpaceOnUse">
<stop stop-color="#FFD874"/>
<stop offset="1" stop-color="#FFF6D5"/>
</linearGradient>
<linearGradient id="paint25_linear_1983_27857" x1="38.9816" y1="80.5813" x2="50.494" y2="82.8474" gradientUnits="userSpaceOnUse">
<stop stop-color="#FFD874"/>
<stop offset="1" stop-color="#FFF6D5"/>
</linearGradient>
<linearGradient id="paint26_linear_1983_27857" x1="177.588" y1="107.77" x2="186.308" y2="99.0487" gradientUnits="userSpaceOnUse">
<stop stop-color="#FFD874"/>
<stop offset="1" stop-color="#FFF6D5"/>
</linearGradient>
<linearGradient id="paint27_linear_1983_27857" x1="89.8556" y1="30.0066" x2="88.1865" y2="37.4961" gradientUnits="userSpaceOnUse">
<stop stop-color="#FFD874"/>
<stop offset="1" stop-color="#FFF6D5"/>
</linearGradient>
</defs>
</svg>
