<svg width="375" height="80" viewBox="0 0 375 80" fill="none" xmlns="http://www.w3.org/2000/svg">
<g filter="url(#filter0_d_3954_8364)">
<path fill-rule="evenodd" clip-rule="evenodd" d="M188 50C203.452 50 216.751 40.7767 222.69 27.5351C226.306 19.4723 233.163 12 242 12H359C367.837 12 375 19.1634 375 28V64C375 72.8366 367.837 80 359 80H16C7.16345 80 0 72.8366 0 64V28C0 19.1634 7.16344 12 16 12H134C142.837 12 149.694 19.4723 153.31 27.5351C159.249 40.7767 172.548 50 188 50Z" fill="white"/>
</g>
<defs>
<filter id="filter0_d_3954_8364" x="-8" y="-36" width="391" height="120" filterUnits="userSpaceOnUse" color-interpolation-filters="sRGB">
<feFlood flood-opacity="0" result="BackgroundImageFix"/>
<feColorMatrix in="SourceAlpha" type="matrix" values="0 0 0 0 0 0 0 0 0 0 0 0 0 0 0 0 0 0 127 0" result="hardAlpha"/>
<feOffset dy="-4"/>
<feGaussianBlur stdDeviation="4"/>
<feComposite in2="hardAlpha" operator="out"/>
<feColorMatrix type="matrix" values="0 0 0 0 0 0 0 0 0 0 0 0 0 0 0 0 0 0 0.05 0"/>
<feBlend mode="normal" in2="BackgroundImageFix" result="effect1_dropShadow_3954_8364"/>
<feBlend mode="normal" in="SourceGraphic" in2="effect1_dropShadow_3954_8364" result="shape"/>
</filter>
</defs>
</svg>
