<svg width="21" height="20" viewBox="0 0 21 20" fill="none" xmlns="http://www.w3.org/2000/svg">
<path fill-rule="evenodd" clip-rule="evenodd" d="M16.75 14.1667V5.83335C16.75 4.77497 16.4852 4.08394 16.0944 3.66308C15.7192 3.25899 15.0534 2.91669 13.8333 2.91669H7.16667C5.94658 2.91669 5.2808 3.25899 4.90558 3.66308C4.51478 4.08394 4.25 4.77497 4.25 5.83335V14.1667C4.25 15.2251 4.51478 15.9161 4.90558 16.337C5.2808 16.741 5.94658 17.0834 7.16667 17.0834H13.8333C15.0534 17.0834 15.7192 16.741 16.0944 16.337C16.4852 15.9161 16.75 15.2251 16.75 14.1667ZM18 14.1667V5.83335C18 3.33335 16.75 1.66669 13.8333 1.66669H7.16667C4.25 1.66669 3 3.33335 3 5.83335V14.1667C3 16.6667 4.25 18.3334 7.16667 18.3334H13.8333C16.75 18.3334 18 16.6667 18 14.1667Z" fill="currentColor"/>
<path fill-rule="evenodd" clip-rule="evenodd" d="M3 5.20831C3.34518 5.20831 3.625 5.48813 3.625 5.83331V6.66665C3.625 7.01182 3.34518 7.29165 3 7.29165C2.65482 7.29165 2.375 7.01182 2.375 6.66665V5.83331C2.375 5.48813 2.65482 5.20831 3 5.20831Z" fill="currentColor"/>
<path fill-rule="evenodd" clip-rule="evenodd" d="M3 14.7917C2.65482 14.7917 2.375 14.5119 2.375 14.1667L2.375 13.3334C2.375 12.9882 2.65482 12.7084 3 12.7084C3.34518 12.7084 3.625 12.9882 3.625 13.3334V14.1667C3.625 14.5119 3.34518 14.7917 3 14.7917Z" fill="currentColor"/>
<path d="M7.375 15.625C7.375 15.2798 7.65482 15 8 15H10.5C10.8452 15 11.125 15.2798 11.125 15.625C11.125 15.9702 10.8452 16.25 10.5 16.25H8C7.65482 16.25 7.375 15.9702 7.375 15.625Z" fill="currentColor"/>
<path d="M12.1666 15C11.8214 15 11.5416 15.2798 11.5416 15.625C11.5416 15.9702 11.8214 16.25 12.1666 16.25H13C13.3451 16.25 13.625 15.9702 13.625 15.625C13.625 15.2798 13.3451 15 13 15H12.1666Z" fill="currentColor"/>
<path d="M10.5 9.16667C11.6506 9.16667 12.5833 8.23393 12.5833 7.08333C12.5833 5.93274 11.6506 5 10.5 5C9.34937 5 8.41663 5.93274 8.41663 7.08333C8.41663 8.23393 9.34937 9.16667 10.5 9.16667Z" fill="currentColor"/>
<path d="M10.5 10C8.20356 10 6.33337 11.4 6.33337 13.125C6.33337 13.2417 6.43422 13.3333 6.56256 13.3333H14.4375C14.5659 13.3333 14.6667 13.2417 14.6667 13.125C14.6667 11.4 12.7965 10 10.5 10Z" fill="currentColor"/>
</svg>
