<svg width="49" height="49" viewBox="0 0 49 49" fill="none" xmlns="http://www.w3.org/2000/svg">
<circle cx="23.3503" cy="23.4433" r="17.1818" fill="color2"/>
<path d="M24.5002 4.08331C13.2506 4.08331 4.0835 13.2504 4.0835 24.5C4.0835 35.7496 13.2506 44.9166 24.5002 44.9166C35.7497 44.9166 44.9168 35.7496 44.9168 24.5C44.9168 13.2504 35.7497 4.08331 24.5002 4.08331ZM34.2593 19.8041L22.6831 31.3804C22.3972 31.6662 22.0093 31.8296 21.601 31.8296C21.1927 31.8296 20.8047 31.6662 20.5189 31.3804L14.741 25.6025C14.1489 25.0104 14.1489 24.0304 14.741 23.4383C15.3331 22.8462 16.3131 22.8462 16.9052 23.4383L21.601 28.1341L32.0952 17.64C32.6872 17.0479 33.6672 17.0479 34.2593 17.64C34.8514 18.2321 34.8514 19.1916 34.2593 19.8041Z" fill="color1"/>
</svg>
