<svg width="33" height="32" viewBox="0 0 33 32" fill="none" xmlns="http://www.w3.org/2000/svg">
<path d="M6.61928 27.3125L24.0588 27.3125C24.6111 27.3125 25.0588 26.8648 25.0588 26.3125L25.0588 24.5625C25.0588 24.0102 24.6111 23.5625 24.0588 23.5625L6.61928 23.5625C6.06699 23.5625 5.61928 24.0102 5.61928 24.5625L5.61928 26.3125C5.61928 26.8648 6.06699 27.3125 6.61928 27.3125Z" stroke="currentColor" stroke-miterlimit="10"/>
<path d="M8.27455 31.0625L25.7141 31.0625C26.2663 31.0625 26.7141 30.6148 26.7141 30.0625L26.7141 28.3125C26.7141 27.7602 26.2663 27.3125 25.7141 27.3125L8.27455 27.3125C7.72227 27.3125 7.27455 27.7602 7.27455 28.3125L7.27455 30.0625C7.27455 30.6148 7.72227 31.0625 8.27455 31.0625Z" stroke="currentColor" stroke-miterlimit="10"/>
<path d="M8.27455 23.5625L25.7141 23.5625C26.2663 23.5625 26.7141 23.1148 26.7141 22.5625L26.7141 20.8125C26.7141 20.2602 26.2663 19.8125 25.7141 19.8125L8.27455 19.8125C7.72227 19.8125 7.27455 20.2602 7.27455 20.8125L7.27455 22.5625C7.27455 23.1148 7.72227 23.5625 8.27455 23.5625Z" stroke="currentColor" stroke-miterlimit="10"/>
<path d="M16.9943 19.8125C22.2065 19.8125 26.4318 15.5872 26.4318 10.375C26.4318 5.16281 22.2065 0.9375 16.9943 0.9375C11.7821 0.9375 7.55682 5.16281 7.55682 10.375C7.55682 15.5872 11.7821 19.8125 16.9943 19.8125Z" stroke="currentColor" stroke-miterlimit="10"/>
<path d="M15.1858 12.1484C15.1858 13.0338 15.9035 13.7515 16.7889 13.7515H17.6487C18.5336 13.7515 19.2508 13.0343 19.2508 12.1494C19.2508 11.2646 18.5336 10.5474 17.6487 10.5474H16.7687C15.8839 10.5474 15.1667 9.83014 15.1667 8.94532C15.1667 8.06051 15.8839 7.34326 16.7687 7.34326H17.6644C18.5336 7.34326 19.2381 8.04782 19.2381 8.91695" stroke="currentColor" stroke-miterlimit="10" stroke-linecap="round"/>
<path d="M17.2087 15.5947V13.7515" stroke="currentColor" stroke-miterlimit="10" stroke-linecap="round"/>
<path d="M17.2087 7.34325V5.5" stroke="currentColor" stroke-miterlimit="10" stroke-linecap="round"/>
</svg>
