<svg width="21" height="20" viewBox="0 0 21 20" fill="none" xmlns="http://www.w3.org/2000/svg">
<path fill-rule="evenodd" clip-rule="evenodd" d="M2.2172 3.84167C2.0169 4.34167 1.91675 4.88333 1.91675 5.45C1.91675 6.31667 2.11705 7.225 2.51765 8.175C2.91825 9.11667 3.46908 10.0667 4.15344 11.0167C4.84614 11.9667 5.62231 12.875 6.48193 13.7417C7.3499 14.6 8.2596 15.375 9.21937 16.075C10.1708 16.7667 11.1306 17.3167 12.0903 17.725C13.0501 18.1333 13.9598 18.3333 14.8111 18.3333C15.3953 18.3333 15.9378 18.225 16.4385 18.0167C16.9476 17.8083 17.3983 17.4833 17.8073 17.0333C18.0493 16.7667 18.2329 16.4833 18.3748 16.1833C18.5166 15.8833 18.5834 15.575 18.5834 15.275C18.5834 15.0417 18.5333 14.8333 18.4499 14.625C18.3581 14.4167 18.2079 14.2417 17.9909 14.0917L15.2284 12.1333C15.0197 11.9917 14.8278 11.8833 14.6442 11.8083C14.4606 11.7333 14.2936 11.7 14.1351 11.7C13.9264 11.7 13.7345 11.7583 13.5425 11.875C13.3506 11.975 13.1503 12.1333 12.9416 12.3417L12.7078 12.5721L12.3073 12.9667C12.2155 13.0583 12.107 13.1083 11.9652 13.1083C11.89 13.1083 11.8233 13.1 11.7565 13.075C11.7297 13.0635 11.7047 13.0521 11.6814 13.0414L11.6814 13.0414C11.6539 13.0288 11.6289 13.0174 11.6063 13.0083C11.3225 12.8583 10.9637 12.6083 10.5297 12.2417C10.0873 11.8667 9.65335 11.4583 9.20268 11.0167C8.76869 10.575 8.36809 10.1333 7.99253 9.7C7.62531 9.26667 7.36659 8.90833 7.21636 8.63333C7.20733 8.60626 7.19585 8.57919 7.18324 8.54948L7.18323 8.54946C7.17256 8.5243 7.16108 8.49723 7.1496 8.46667C7.13291 8.4 7.12456 8.34167 7.12456 8.275C7.12456 8.14167 7.16629 8.03333 7.25809 7.94167L7.30937 7.88845L7.89238 7.28333C8.09268 7.08333 8.25125 6.88333 8.35975 6.69167C8.47659 6.5 8.53501 6.3 8.53501 6.1C8.53501 5.94167 8.49328 5.76667 8.41817 5.59167C8.34305 5.40833 8.23456 5.21667 8.08433 5.00833L6.1481 2.28333C5.99787 2.06667 5.80592 1.91667 5.58892 1.81667C5.38028 1.71667 5.14659 1.66667 4.91291 1.66667C4.29532 1.66667 3.71111 1.925 3.17697 2.45C2.73464 2.86667 2.4175 3.33333 2.2172 3.84167ZM6.3639 7.06817L7.0006 6.40733L7.00916 6.39879C7.14852 6.25963 7.22853 6.15066 7.26839 6.08209L7.26541 6.07516L7.26148 6.06557C7.23083 5.99076 7.17531 5.88488 7.07044 5.73944L7.06534 5.73237L5.12496 3.00148L5.12086 2.99557C5.11181 2.98253 5.1051 2.97625 5.10038 2.97237C5.09518 2.9681 5.08507 2.96082 5.06575 2.95191L5.05718 2.94796L5.04867 2.94389C5.01936 2.92984 4.97184 2.91667 4.91291 2.91667C4.68112 2.91667 4.39849 3.00209 4.0532 3.34147L4.04373 3.35078L4.03407 3.35988C3.71721 3.65835 3.50886 3.97334 3.38017 4.29992L3.37757 4.30651C3.2404 4.64893 3.16675 5.03171 3.16675 5.45C3.16675 6.12087 3.32136 6.86333 3.66868 7.68752C4.0264 8.52793 4.52674 9.39593 5.16558 10.2831C5.81807 11.1776 6.55084 12.0357 7.36514 12.8571C8.18826 13.6707 9.0489 14.4035 9.95537 15.0647C10.8383 15.7064 11.716 16.2073 12.5797 16.5748C13.4141 16.9298 14.1572 17.0833 14.8111 17.0833C15.2369 17.0833 15.6156 17.0052 15.9584 16.8626L15.9651 16.8598C16.2824 16.7299 16.5831 16.5216 16.8816 16.1932C17.036 16.023 17.1527 15.8436 17.2448 15.6489C17.3089 15.5133 17.3334 15.3872 17.3334 15.275C17.3334 15.2418 17.3294 15.2035 17.3086 15.1415C17.3023 15.1361 17.2931 15.1289 17.2801 15.1199L17.274 15.1157L14.5165 13.1609C14.3594 13.0549 14.2486 12.997 14.1715 12.9655L14.1615 12.9616L14.1566 12.9646L14.12 12.9836C14.0813 13.0038 13.9829 13.0684 13.8248 13.2262L13.819 13.232L13.6549 13.3937L13.1867 13.855C12.8736 14.1659 12.4537 14.3583 11.9652 14.3583C11.7934 14.3583 11.5674 14.339 11.3182 14.2456L11.2912 14.2355L11.2647 14.2242C11.2226 14.2062 11.1835 14.1883 11.1613 14.1781L11.155 14.1752L11.1351 14.1661L11.0809 14.1445L11.0221 14.1134C10.6293 13.9058 10.1939 13.5944 9.72295 13.1965L9.72133 13.1951C9.2465 12.7926 8.78849 12.361 8.32776 11.9094L8.31934 11.9012L8.31107 11.8928C7.85472 11.4283 7.43622 10.9667 7.04793 10.5187L7.04338 10.5134L7.03889 10.5081C6.64955 10.0487 6.32878 9.61592 6.11937 9.23259L6.06597 9.13482L6.03732 9.04902L6.03516 9.04392L6.03244 9.03752L6.03244 9.0375L6.03242 9.03746C6.0222 9.01343 6.00073 8.96294 5.9794 8.90615L5.95434 8.83941L5.93703 8.77026C5.89976 8.62142 5.87456 8.46026 5.87456 8.275C5.87456 7.84261 6.02578 7.41169 6.3639 7.06817ZM10.4584 6.25C10.4584 5.90482 10.7382 5.625 11.0834 5.625C12.0348 5.625 12.8972 6.21828 13.4827 6.84926C13.8112 7.20146 14.0888 7.59603 14.2872 7.98194C14.4792 8.35547 14.6251 8.77515 14.6251 9.16667C14.6251 9.51184 14.3453 9.79167 14.0001 9.79167C13.6549 9.79167 13.3751 9.51184 13.3751 9.16667C13.3751 9.05818 13.3251 8.84453 13.1755 8.55347C13.0324 8.27506 12.8226 7.97407 12.5682 7.70145L12.5668 7.70003C12.0857 7.18127 11.5317 6.875 11.0834 6.875C10.7382 6.875 10.4584 6.59518 10.4584 6.25ZM11.0834 2.70833C10.7382 2.70833 10.4584 2.98815 10.4584 3.33333C10.4584 3.67851 10.7382 3.95833 11.0834 3.95833C13.9632 3.95833 16.2917 6.28684 16.2917 9.16667C16.2917 9.51184 16.5716 9.79167 16.9167 9.79167C17.2619 9.79167 17.5417 9.51184 17.5417 9.16667C17.5417 5.59649 14.6536 2.70833 11.0834 2.70833Z" fill="currentColor"/>
</svg>
