<svg width="14" height="14" viewBox="0 0 14 14" fill="none" xmlns="http://www.w3.org/2000/svg">
<path fill-rule="evenodd" clip-rule="evenodd" d="M1.81304 0.752873C1.52015 0.45998 1.04528 0.45998 0.752385 0.752873C0.459492 1.04577 0.459492 1.52064 0.752385 1.81353L5.87892 6.94007L0.752409 12.0666C0.459516 12.3595 0.459515 12.8343 0.752409 13.1272C1.0453 13.4201 1.52018 13.4201 1.81307 13.1272L6.93958 8.00073L12.0661 13.1272C12.359 13.4201 12.8339 13.4201 13.1268 13.1272C13.4196 12.8343 13.4196 12.3595 13.1268 12.0666L8.00024 6.94007L13.1268 1.81353C13.4197 1.52064 13.4197 1.04577 13.1268 0.752873C12.8339 0.45998 12.359 0.45998 12.0661 0.752873L6.93958 5.87941L1.81304 0.752873Z" fill="currentColor"/>
</svg>
