<svg width="21" height="20" viewBox="0 0 21 20" fill="none" xmlns="http://www.w3.org/2000/svg">
<path fill-rule="evenodd" clip-rule="evenodd" d="M10.2516 3.88304L4.71832 9.41637C3.8224 10.3123 3.75051 10.6483 3.75004 10.7478C3.74961 10.8389 3.80861 11.1512 4.63066 11.9855L12.8208 3.79539C11.9892 2.97619 11.6746 2.9173 11.5819 2.91788C11.4793 2.91853 11.142 2.99269 10.2516 3.88304ZM8.78498 16.1403L5.51431 12.8696L13.7049 4.67904L16.9756 7.94971C17.8544 8.82858 17.9163 9.15664 17.9157 9.25169C17.9151 9.35427 17.8409 9.69159 16.9506 10.5819L11.4172 16.1153C10.5269 17.0056 10.1895 17.0798 10.087 17.0804C9.99192 17.081 9.66386 17.0191 8.78498 16.1403ZM9.36777 2.99916L3.83443 8.53249C2.05943 10.3075 2.05943 11.1825 3.80943 12.9325L7.9011 17.0242C7.92105 17.0441 7.94089 17.0638 7.96062 17.0833H3.12097C2.77579 17.0833 2.49597 17.3631 2.49597 17.7083C2.49597 18.0535 2.77579 18.3333 3.12097 18.3333H18.5456C18.8907 18.3333 19.1706 18.0535 19.1706 17.7083C19.1706 17.3631 18.8907 17.0833 18.5456 17.0833H12.2162C12.2443 17.0557 12.2726 17.0277 12.3011 16.9992L17.8344 11.4658C19.6011 9.69916 19.6094 8.81582 17.8594 7.06582L13.7678 2.97416C12.0178 1.22416 11.1344 1.23249 9.36777 2.99916ZM12.4258 12.8914C12.6699 13.1354 12.67 13.5312 12.4259 13.7752L10.7594 15.4419C10.5153 15.686 10.1196 15.686 9.8755 15.442C9.63141 15.1979 9.63139 14.8022 9.87546 14.5581L11.542 12.8914C11.786 12.6473 12.1818 12.6473 12.4258 12.8914ZM14.192 12.1086C14.4361 11.8645 14.4361 11.4688 14.192 11.2247C13.9479 10.9806 13.5522 10.9806 13.3081 11.2247L12.8914 11.6414C12.6474 11.8855 12.6474 12.2812 12.8914 12.5253C13.1355 12.7693 13.5312 12.7693 13.7753 12.5253L14.192 12.1086Z" fill="#1B1D29"/>
</svg>
