<svg width="30" height="25" viewBox="0 0 30 25" fill="none" xmlns="http://www.w3.org/2000/svg">
<path fill-rule="evenodd" clip-rule="evenodd" d="M15.2098 16.8948C15.2098 12.9458 18.4088 9.74447 22.3549 9.74447C26.3011 9.74447 29.5001 12.9458 29.5001 16.8948C29.5001 20.8438 26.3011 24.0451 22.3549 24.0451C18.4088 24.0451 15.2098 20.8438 15.2098 16.8948ZM23.0919 14.2018C23.0551 14.2018 23.0253 14.1719 23.0253 14.1351C23.0253 13.8086 22.7567 13.543 22.4291 13.543C22.1006 13.543 21.8313 13.8094 21.8313 14.1368C21.8313 14.1723 21.8034 14.2016 21.7679 14.2034C21.3987 14.2215 21.056 14.3957 20.8057 14.6792C20.5421 14.9778 20.3996 15.3754 20.3996 15.783C20.3996 16.1906 20.5421 16.5881 20.8057 16.8868C21.0704 17.1867 21.4385 17.3642 21.8322 17.3642H23.0244C23.0732 17.3642 23.1296 17.3857 23.1782 17.4407C23.2276 17.4967 23.2609 17.5801 23.2609 17.6742C23.2609 17.7682 23.2276 17.8517 23.1782 17.9076C23.1297 17.9626 23.0732 17.9841 23.0244 17.9841H21.2448C20.8937 17.9841 20.6091 18.2687 20.6091 18.6197C20.6091 18.9708 20.8937 19.2554 21.2448 19.2554H21.7636C21.8003 19.2554 21.8301 19.285 21.8303 19.3217L21.8306 19.389C21.8321 19.7174 22.0982 19.9831 22.4265 19.9841C22.7575 19.9852 23.0264 19.7172 23.0264 19.3862V19.3203C23.0264 19.2848 23.0542 19.2555 23.0897 19.2537C23.4585 19.2353 23.8009 19.0612 24.0509 18.7779C24.3145 18.4793 24.457 18.0818 24.457 17.6742C24.457 17.2665 24.3145 16.869 24.0509 16.5704C23.7862 16.2705 23.4181 16.093 23.0244 16.093H21.8322C21.7835 16.093 21.727 16.0715 21.6784 16.0165C21.629 15.9605 21.5957 15.877 21.5957 15.783C21.5957 15.6889 21.629 15.6055 21.6784 15.5495C21.727 15.4945 21.7835 15.473 21.8322 15.473H23.4644C23.8154 15.473 24.1 15.1884 24.1 14.8374C24.1 14.4864 23.8154 14.2018 23.4644 14.2018H23.0919Z" fill="#D9D9D9"/>
<path d="M15.3298 11.6108C16.9393 9.33513 19.4757 7.7615 22.3892 7.43956C20.5308 3.46515 16.4989 0.711914 11.8244 0.711914C5.38591 0.711914 0.166504 5.93511 0.166504 12.3783C0.166504 18.8214 5.38591 24.0446 11.8244 24.0446C13.1251 24.0446 14.376 23.8314 15.5442 23.4381C14.2616 21.7567 13.4998 19.6566 13.4998 17.3786C13.4998 17.3174 13.5004 17.2564 13.5015 17.1955H12.7797V18.1838C12.7797 18.5219 12.7635 18.7338 12.4253 18.7355C11.7358 18.7392 11.0198 18.1635 11.0198 17.474V17.1955L8.74434 17.1911C8.22918 17.1901 7.81209 16.7722 7.81209 16.257C7.81209 15.7408 8.23084 15.3225 8.74707 15.323L13.7103 15.3278C13.873 14.5472 14.1267 13.8 14.4598 13.0978C14.2195 12.9665 13.8589 12.8386 13.3664 12.8386H10.4331C9.65516 12.8386 8.90907 12.5108 8.35897 11.9271C7.80888 11.3435 7.49984 10.5519 7.49984 9.72658C7.49984 8.90121 7.80888 8.10965 8.35897 7.52602C8.90907 6.9424 9.65516 6.61452 10.4331 6.61452H11.0198V6.25856C11.0198 5.77256 11.4137 5.37858 11.8997 5.37858C12.3857 5.37858 12.7797 5.77256 12.7797 6.25856V6.61452H14.5664C15.082 6.61452 15.5 7.03252 15.5 7.54814C15.5 8.06376 15.082 8.48175 14.5664 8.48175H10.4331C10.1219 8.48175 9.82349 8.61291 9.60345 8.84635C9.38342 9.0798 9.2598 9.39643 9.2598 9.72658C9.2598 10.0567 9.38342 10.3733 9.60345 10.6068C9.82349 10.8402 10.1219 10.9714 10.4331 10.9714H13.3664C14.1802 10.9714 14.9879 11.2061 15.3298 11.6108Z" fill="#D9D9D9"/>
</svg>
