<svg width="width" height="height" viewBox="0 0 16 16" fill="none" xmlns="http://www.w3.org/2000/svg">
<path fill-rule="evenodd" clip-rule="evenodd" d="M12 2.33331H7.33337C6.4129 2.33331 5.66671 3.07951 5.66671 3.99998V4.66665H8.66671C10.1395 4.66665 11.3334 5.86055 11.3334 7.33331V10.3333H12C12.9205 10.3333 13.6667 9.58712 13.6667 8.66665V3.99998C13.6667 3.07951 12.9205 2.33331 12 2.33331ZM11.3334 11.3333V12C11.3334 13.4727 10.1395 14.6666 8.66671 14.6666H4.00004C2.52728 14.6666 1.33337 13.4727 1.33337 12V7.33331C1.33337 5.86055 2.52728 4.66665 4.00004 4.66665H4.66671V3.99998C4.66671 2.52722 5.86061 1.33331 7.33337 1.33331H12C13.4728 1.33331 14.6667 2.52722 14.6667 3.99998V8.66665C14.6667 10.1394 13.4728 11.3333 12 11.3333H11.3334ZM4.00004 5.66665H8.66671C9.58718 5.66665 10.3334 6.41284 10.3334 7.33331V12C10.3334 12.9205 9.58718 13.6666 8.66671 13.6666H4.00004C3.07957 13.6666 2.33337 12.9205 2.33337 12V7.33331C2.33337 6.41284 3.07957 5.66665 4.00004 5.66665Z" fill="currentColor"/>
</svg>
