<svg width="33" height="32" viewBox="0 0 33 32" fill="none" xmlns="http://www.w3.org/2000/svg">
<path fill-rule="evenodd" clip-rule="evenodd" d="M8.83663 25.3266L8.83099 25.3266C6.44806 25.3333 5.75722 24.9905 5.50646 24.7431C5.26302 24.5028 4.91663 23.8377 4.91663 21.4866V12.3398H27.5833V21.4732C27.5833 23.8235 27.2373 24.4903 26.9921 24.7327C26.7391 24.9829 26.0459 25.3266 23.6633 25.3266L8.83663 25.3266ZM27.5825 10.3398H4.91737C4.93524 8.14067 5.26927 7.50297 5.50781 7.26711C5.76086 7.01691 6.45397 6.67325 8.83663 6.67325H23.65C26.0402 6.67325 26.7371 7.01713 26.9918 7.26843C27.2305 7.50405 27.5647 8.14056 27.5825 10.3398ZM2.91663 11.3398V21.4866C2.91663 26.1666 4.10329 27.3399 8.83663 27.3266H23.6633C28.3966 27.3266 29.5833 26.1532 29.5833 21.4732V10.5266C29.5833 5.84658 28.3966 4.67325 23.65 4.67325H8.83663C4.10329 4.67325 2.91663 5.84658 2.91663 10.5266V11.3398Z" fill="color2"/>
<path d="M15.5833 21.0066C15.031 21.0066 14.5833 21.4543 14.5833 22.0066C14.5833 22.5589 15.031 23.0066 15.5833 23.0066H16.9167C17.469 23.0066 17.9167 22.5589 17.9167 22.0066C17.9167 21.4543 17.469 21.0066 16.9167 21.0066H15.5833Z" fill="color1"/>
<path d="M7.25 22.0065C7.25 21.4542 7.69772 21.0065 8.25 21.0065H12.25C12.8023 21.0065 13.25 21.4542 13.25 22.0065C13.25 22.5588 12.8023 23.0065 12.25 23.0065H8.25C7.69772 23.0065 7.25 22.5588 7.25 22.0065Z" fill="color1"/>
</svg>
