<svg width="24" height="25" viewBox="0 0 24 25" fill="none" xmlns="http://www.w3.org/2000/svg">
<path fill-rule="evenodd" clip-rule="evenodd" d="M12 22.04C17.5228 22.04 22 17.5629 22 12.04C22 6.51719 17.5228 2.04004 12 2.04004C6.47715 2.04004 2 6.51719 2 12.04C2 17.5629 6.47715 22.04 12 22.04ZM8.19526 15.8448C7.93491 15.5844 7.93491 15.1623 8.19526 14.902L11.0572 12.04L8.19526 9.17811C7.93491 8.91776 7.93491 8.49565 8.19526 8.2353C8.45561 7.97495 8.87772 7.97495 9.13807 8.2353L12 11.0972L14.8619 8.2353C15.1223 7.97495 15.5444 7.97495 15.8047 8.2353C16.0651 8.49565 16.0651 8.91776 15.8047 9.17811L12.9428 12.04L15.8047 14.902C16.0651 15.1623 16.0651 15.5844 15.8047 15.8448C15.5444 16.1051 15.1223 16.1051 14.8619 15.8448L12 12.9828L9.13807 15.8448C8.87772 16.1051 8.45561 16.1051 8.19526 15.8448Z" fill="white" fill-opacity="0.6"/>
</svg>
