<svg width="20" height="20" viewBox="0 0 20 20" fill="none" xmlns="http://www.w3.org/2000/svg">
<path fill-rule="evenodd" clip-rule="evenodd" d="M10.0002 17.0833C13.3348 17.0833 16.0418 14.3763 16.0418 11.0417C16.0418 7.70702 13.3348 5 10.0002 5C6.66552 5 3.9585 7.70702 3.9585 11.0417C3.9585 14.3763 6.66552 17.0833 10.0002 17.0833ZM10.0002 18.3333C14.0252 18.3333 17.2918 15.0667 17.2918 11.0417C17.2918 7.01667 14.0252 3.75 10.0002 3.75C5.97516 3.75 2.7085 7.01667 2.7085 11.0417C2.7085 15.0667 5.97516 18.3333 10.0002 18.3333Z" fill="currentColor"/>
<path fill-rule="evenodd" clip-rule="evenodd" d="M10.625 7.5C10.625 7.15482 10.3452 6.875 10 6.875C9.65482 6.875 9.375 7.15482 9.375 7.5V11.6667C9.375 11.9645 9.58336 12.2137 9.86227 12.2764C10.0047 12.3112 10.1599 12.2963 10.3001 12.223L12.5152 11.064C12.821 10.9039 12.9392 10.5263 12.7792 10.2204C12.6192 9.91458 12.2415 9.79638 11.9356 9.95641L10.625 10.6422V7.5Z" fill="currentColor"/>
<path fill-rule="evenodd" clip-rule="evenodd" d="M6.875 2.5C6.875 2.15482 7.15482 1.875 7.5 1.875H12.5C12.8452 1.875 13.125 2.15482 13.125 2.5C13.125 2.84518 12.8452 3.125 12.5 3.125H7.5C7.15482 3.125 6.875 2.84518 6.875 2.5Z" fill="currentColor"/>
</svg>
