<svg width="25" height="24" viewBox="0 0 25 24" fill="none" xmlns="http://www.w3.org/2000/svg">
<path fill-rule="evenodd" clip-rule="evenodd" d="M3.19379 4.61C2.95343 5.21 2.83325 5.86 2.83325 6.54C2.83325 7.58 3.07361 8.67 3.55433 9.81C4.03505 10.94 4.69605 12.08 5.51728 13.22C6.34852 14.36 7.27992 15.45 8.31147 16.49C9.35303 17.52 10.4447 18.45 11.5964 19.29C12.7381 20.12 13.8898 20.78 15.0416 21.27C16.1933 21.76 17.2849 22 18.3065 22C19.0075 22 19.6585 21.87 20.2594 21.62C20.8703 21.37 21.4111 20.98 21.9019 20.44C22.1923 20.12 22.4126 19.78 22.5829 19.42C22.7531 19.06 22.8333 18.69 22.8333 18.33C22.8333 18.05 22.7732 17.8 22.673 17.55C22.5628 17.3 22.3826 17.09 22.1222 16.91L18.8072 14.56C18.5568 14.39 18.3265 14.26 18.1062 14.17C17.8858 14.08 17.6855 14.04 17.4952 14.04C17.2449 14.04 17.0145 14.11 16.7842 14.25C16.5538 14.37 16.3135 14.56 16.0631 14.81L15.302 15.56C15.1918 15.67 15.0616 15.73 14.8913 15.73C14.8012 15.73 14.7211 15.72 14.641 15.69C14.6088 15.6762 14.5788 15.6625 14.5508 15.6497C14.5178 15.6346 14.4878 15.6208 14.4607 15.61C14.1202 15.43 13.6895 15.13 13.1688 14.69C12.638 14.24 12.1172 13.75 11.5764 13.22C11.0556 12.69 10.5749 12.16 10.1242 11.64C9.68353 11.12 9.37306 10.69 9.19279 10.36C9.18195 10.3275 9.16817 10.295 9.15304 10.2594C9.14023 10.2292 9.12645 10.1967 9.11267 10.16C9.09264 10.08 9.08263 10.01 9.08263 9.93C9.08263 9.77 9.1327 9.64 9.24287 9.53L10.004 8.74C10.2444 8.5 10.4347 8.26 10.5648 8.03C10.7051 7.8 10.7752 7.56 10.7752 7.32C10.7752 7.13 10.7251 6.92 10.635 6.71C10.5448 6.49 10.4146 6.26 10.2344 6.01L7.91087 2.74C7.7306 2.48 7.50025 2.3 7.23986 2.18C6.98949 2.06 6.70907 2 6.42865 2C5.68753 2 4.98648 2.31 4.34552 2.94C3.81472 3.44 3.43415 4 3.19379 4.61ZM8.16983 8.48181L8.93387 7.6888L8.94414 7.67854C9.11138 7.51156 9.20739 7.3808 9.25522 7.2985L9.25165 7.29019L9.24693 7.27868C9.21016 7.18891 9.14353 7.06186 9.01768 6.88732L9.01157 6.87885L6.6831 3.60178L6.67818 3.59468C6.66733 3.57903 6.65928 3.5715 6.65361 3.56684C6.64737 3.56172 6.63523 3.55298 6.61205 3.5423L6.60177 3.53756L6.59156 3.53266C6.55639 3.51581 6.49936 3.5 6.42865 3.5C6.1505 3.5 5.81134 3.60251 5.39699 4.00977L5.38563 4.02094L5.37403 4.03186C4.99381 4.39003 4.74378 4.76801 4.58936 5.1599L4.58624 5.16782C4.42163 5.57872 4.33325 6.03805 4.33325 6.54C4.33325 7.34504 4.51879 8.236 4.93557 9.22502C5.36483 10.2335 5.96524 11.2751 6.73185 12.3398C7.51483 13.4132 8.39416 14.4428 9.37132 15.4285C10.3591 16.4048 11.3918 17.2842 12.4796 18.0776C13.5391 18.8477 14.5923 19.4488 15.6288 19.8897C16.63 20.3157 17.5218 20.5 18.3065 20.5C18.8174 20.5 19.2718 20.4062 19.6832 20.2351L19.6913 20.2317C20.072 20.0759 20.4329 19.826 20.7911 19.4319M8.16983 8.48181C7.7641 8.89403 7.58263 9.41113 7.58263 9.93C7.58263 10.1523 7.61286 10.3457 7.65759 10.5243L7.67836 10.6073L7.70844 10.6874C7.73405 10.7556 7.75982 10.8162 7.77208 10.845C7.77331 10.8479 7.77441 10.8505 7.77535 10.8527C7.77633 10.855 7.77719 10.857 7.77794 10.8588L7.81231 10.9618L7.8764 11.0791C8.12769 11.5391 8.51261 12.0584 8.97983 12.6098L8.98521 12.6161L8.99066 12.6224C9.45662 13.16 9.95881 13.714 10.5064 14.2713L10.5164 14.2814L10.5265 14.2913C11.0793 14.8331 11.6289 15.3511 12.1988 15.8342L12.2007 15.8358C12.7659 16.3133 13.2883 16.6869 13.7597 16.9361L13.8302 16.9734L13.8952 16.9994L13.9191 17.0102L13.9267 17.0137C13.9534 17.0259 14.0002 17.0474 14.0508 17.069L14.0826 17.0826L14.115 17.0948C14.4141 17.2067 14.6852 17.23 14.8913 17.23C15.4776 17.23 15.9816 16.999 16.3573 16.6259L17.1159 15.8785L17.123 15.8715C17.3126 15.6821 17.4307 15.6045 17.4772 15.5803L17.521 15.5575L17.527 15.5539C17.5307 15.5553 17.5347 15.5569 17.5389 15.5586C17.6315 15.5964 17.7645 15.6659 17.9529 15.7931L21.2619 18.1388L21.2692 18.1439C21.2848 18.1547 21.296 18.1634 21.3035 18.1697C21.3285 18.2442 21.3333 18.2901 21.3333 18.33C21.3333 18.4647 21.3038 18.616 21.2269 18.7787C21.1164 19.0123 20.9764 19.2277 20.7911 19.4319" fill="color2"/>
<path fill-rule="evenodd" clip-rule="evenodd" d="M13.8333 3.25C13.419 3.25 13.0833 3.58579 13.0833 4C13.0833 4.41421 13.419 4.75 13.8333 4.75C17.289 4.75 20.0833 7.54421 20.0833 11C20.0833 11.4142 20.419 11.75 20.8333 11.75C21.2475 11.75 21.5833 11.4142 21.5833 11C21.5833 6.71579 18.1175 3.25 13.8333 3.25ZM13.8333 6.75C13.419 6.75 13.0833 7.08579 13.0833 7.5C13.0833 7.91421 13.419 8.25 13.8333 8.25C14.3711 8.25 15.036 8.61753 15.6134 9.24004L15.615 9.24174C15.9203 9.56889 16.172 9.93008 16.3437 10.2642C16.5233 10.6134 16.5833 10.8698 16.5833 11C16.5833 11.4142 16.919 11.75 17.3333 11.75C17.7475 11.75 18.0833 11.4142 18.0833 11C18.0833 10.5302 17.9082 10.0266 17.6778 9.57833C17.4397 9.11523 17.1066 8.64175 16.7123 8.21911C16.0098 7.46194 14.9749 6.75 13.8333 6.75Z" fill="color1"/>
</svg>
