<svg width="20" height="20" viewBox="0 0 20 20" fill="none" xmlns="http://www.w3.org/2000/svg">
<path fill-rule="evenodd" clip-rule="evenodd" d="M7.29167 2.29169C7.29167 1.94651 7.01184 1.66669 6.66667 1.66669C6.32149 1.66669 6.04167 1.94651 6.04167 2.29169V2.94416C3.57048 3.16995 2.5 4.76982 2.5 7.08335V7.57502V14.1667C2.5 16.6667 3.75 18.3334 6.66667 18.3334H13.3333C16.25 18.3334 17.5 16.6667 17.5 14.1667V7.08335C17.5 4.76982 16.4295 3.16995 13.9583 2.94416V2.29169C13.9583 1.94651 13.6785 1.66669 13.3333 1.66669C12.9882 1.66669 12.7083 1.94651 12.7083 2.29169V2.91669H7.29167V2.29169ZM6.04167 4.20041V4.79169C6.04167 5.13687 6.32149 5.41669 6.66667 5.41669C7.01184 5.41669 7.29167 5.13687 7.29167 4.79169V4.16669H12.7083V4.79169C12.7083 5.13687 12.9882 5.41669 13.3333 5.41669C13.6785 5.41669 13.9583 5.13687 13.9583 4.79169V4.20041C14.791 4.29617 15.289 4.58416 15.5944 4.91308C15.9686 5.31601 16.2272 5.96656 16.2486 6.95002H3.75143C3.7728 5.96656 4.03143 5.31601 4.40558 4.91308C4.71101 4.58416 5.20895 4.29617 6.04167 4.20041ZM3.75 8.20002V14.1667C3.75 15.2251 4.01478 15.9161 4.40558 16.337C4.7808 16.741 5.44658 17.0834 6.66667 17.0834H13.3333C14.5534 17.0834 15.2192 16.741 15.5944 16.337C15.9852 15.9161 16.25 15.2251 16.25 14.1667V8.20002H3.75ZM12.2453 11.4167C12.2453 10.9565 12.6184 10.5834 13.0786 10.5834H13.0861C13.5463 10.5834 13.9194 10.9565 13.9194 11.4167C13.9194 11.8769 13.5463 12.25 13.0861 12.25H13.0786C12.6184 12.25 12.2453 11.8769 12.2453 11.4167ZM13.0786 13.0834C12.6184 13.0834 12.2453 13.4565 12.2453 13.9167C12.2453 14.3769 12.6184 14.75 13.0786 14.75H13.0861C13.5463 14.75 13.9194 14.3769 13.9194 13.9167C13.9194 13.4565 13.5463 13.0834 13.0861 13.0834H13.0786ZM9.1626 11.4167C9.1626 10.9565 9.53569 10.5834 9.99593 10.5834H10.0034C10.4637 10.5834 10.8367 10.9565 10.8367 11.4167C10.8367 11.8769 10.4637 12.25 10.0034 12.25H9.99593C9.53569 12.25 9.1626 11.8769 9.1626 11.4167ZM9.99593 13.0834C9.53569 13.0834 9.1626 13.4565 9.1626 13.9167C9.1626 14.3769 9.53569 14.75 9.99593 14.75H10.0034C10.4637 14.75 10.8367 14.3769 10.8367 13.9167C10.8367 13.4565 10.4637 13.0834 10.0034 13.0834H9.99593ZM6.07829 11.4167C6.07829 10.9565 6.45138 10.5834 6.91162 10.5834H6.91911C7.37934 10.5834 7.75244 10.9565 7.75244 11.4167C7.75244 11.8769 7.37934 12.25 6.91911 12.25H6.91162C6.45138 12.25 6.07829 11.8769 6.07829 11.4167ZM6.91162 13.0834C6.45138 13.0834 6.07829 13.4565 6.07829 13.9167C6.07829 14.3769 6.45138 14.75 6.91162 14.75H6.91911C7.37934 14.75 7.75244 14.3769 7.75244 13.9167C7.75244 13.4565 7.37934 13.0834 6.91911 13.0834H6.91162Z" fill="currentColor"/>
</svg>
