<svg width="25" height="24" viewBox="0 0 25 24" fill="none" xmlns="http://www.w3.org/2000/svg">
<path fill-rule="evenodd" clip-rule="evenodd" d="M21 12C21 16.6716 17.1716 20.5 12.5 20.5C7.82843 20.5 4 16.6716 4 12C4 7.32843 7.82843 3.5 12.5 3.5C17.1716 3.5 21 7.32843 21 12ZM12.5 22C18 22 22.5 17.5 22.5 12C22.5 6.5 18 2 12.5 2C7 2 2.5 6.5 2.5 12C2.5 17.5 7 22 12.5 22ZM17.2799 9.70072C17.573 9.40809 17.5734 8.93321 17.2808 8.64006C16.9882 8.34691 16.5133 8.34649 16.2201 8.63912L11.0805 13.7697L8.78033 11.4696C8.48744 11.1767 8.01256 11.1767 7.71967 11.4696C7.42678 11.7625 7.42678 12.2374 7.71967 12.5303L10.5497 15.3603C10.8424 15.653 11.3169 15.6532 11.6099 15.3607L17.2799 9.70072Z" fill="currentColor"/>
</svg>
