<svg width="53" height="42" viewBox="0 0 53 42" fill="none" xmlns="http://www.w3.org/2000/svg">
<path d="M51.9033 8.35773C51.9333 8.32768 51.9598 8.29451 51.9825 8.25881C52.3206 7.69804 51.85 6.89532 51.2794 6.19833C50.7159 5.50999 49.9774 4.97506 49.3446 5.13556C49.157 5.18316 48.9171 5.42833 48.7689 5.54717C48.1096 6.07577 48.1647 7.22437 48.8919 8.11262C49.5941 8.9703 50.6662 9.27155 51.3327 8.8153L51.9033 8.35773Z" fill="#F5C751"/>
<path d="M51.8001 8.445C52.4594 7.91638 52.4044 6.76779 51.6771 5.87955C50.9499 4.9913 49.8259 4.69977 49.1666 5.22839C48.5073 5.75701 48.5623 6.90561 49.2895 7.79385C50.0168 8.68209 51.1408 8.97362 51.8001 8.445Z" fill="#FFDB6C"/>
<path d="M51.3951 7.95001C51.8515 7.58404 51.8134 6.78886 51.3099 6.17392C50.8064 5.55897 50.0283 5.35714 49.5718 5.7231C49.1154 6.08907 49.1535 6.88425 49.657 7.4992C50.1604 8.11414 50.9386 8.31597 51.3951 7.95001Z" fill="url(#paint0_linear_10326_102075)"/>
<path d="M49.7475 7.41439C49.2794 6.84271 49.2137 6.11533 49.5735 5.72178L49.5718 5.72311C49.1154 6.08907 49.1535 6.88429 49.657 7.49919C50.1604 8.11409 50.9386 8.31596 51.395 7.95C51.4268 7.92447 51.4565 7.89654 51.484 7.86646C51.0269 8.2308 50.2503 8.02854 49.7475 7.41439Z" fill="#EDBA36"/>
<path d="M51.9815 8.26361C51.9441 8.31459 51.9025 8.36241 51.8571 8.40659C51.8345 8.42883 51.8106 8.44979 51.7855 8.46939L51.748 8.49946C51.7356 8.50944 51.7219 8.51781 51.7086 8.52723C51.6558 8.56351 51.6 8.59546 51.5419 8.62275C51.5273 8.62925 51.5124 8.63532 51.4975 8.64168C51.4827 8.64803 51.4681 8.65474 51.4528 8.65968C51.4223 8.66999 51.3922 8.68189 51.3609 8.68961C51.3453 8.69378 51.3297 8.69802 51.314 8.7017L51.2664 8.7104C51.2346 8.71704 51.2027 8.71995 51.1708 8.72428C51.1549 8.72665 51.1388 8.72738 51.1228 8.72859L51.0746 8.73207L51.0263 8.73297L51.0019 8.73352L50.9898 8.73384L50.9778 8.73342C50.8493 8.73045 50.7216 8.71361 50.5969 8.68321C50.3479 8.62322 50.1126 8.51547 49.8992 8.37726C49.6862 8.23776 49.4938 8.06977 49.3274 7.87806C49.1604 7.68702 49.0203 7.47444 48.911 7.24609C48.8024 7.01784 48.7263 6.77324 48.696 6.52174C48.6804 6.39581 48.6777 6.26863 48.6878 6.14209C48.6974 6.01509 48.7233 5.88978 48.7651 5.76922L48.7825 5.72462C48.7887 5.70993 48.7958 5.6954 48.8023 5.681L48.8123 5.6593L48.8173 5.64842L48.8229 5.63788L48.8453 5.59541C48.8525 5.58122 48.861 5.56773 48.8695 5.55421L48.8947 5.51353L48.9223 5.47458C48.9317 5.4617 48.9404 5.44842 48.9509 5.43634C48.9712 5.41183 48.9905 5.38655 49.013 5.36396C49.0239 5.3524 49.0347 5.34074 49.0457 5.32933L49.081 5.29659C49.1037 5.27436 49.1296 5.25571 49.154 5.23563L49.1637 5.22781C49.1668 5.22535 49.1702 5.22325 49.1734 5.22101L49.1931 5.20749L49.232 5.18055L49.1674 5.23233L49.1588 5.24033C49.1359 5.262 49.1118 5.28211 49.0909 5.30568L49.0585 5.33966C49.0483 5.3515 49.0385 5.36365 49.0286 5.37586C49.0079 5.39931 48.9906 5.42527 48.9721 5.45037C48.9626 5.46263 48.955 5.47636 48.9465 5.48939L48.9218 5.52892L48.8998 5.56979C48.8923 5.58347 48.8848 5.59701 48.8786 5.61123L48.8592 5.65332L48.8544 5.66381L48.8502 5.67464L48.8418 5.69623C48.8362 5.71072 48.8304 5.72497 48.8252 5.73942L48.8114 5.78324C48.8011 5.8123 48.7934 5.84217 48.7843 5.87155C48.7794 5.88624 48.7764 5.90139 48.7729 5.91636L48.7624 5.96154L48.7543 6.00702C48.7519 6.02231 48.7484 6.03735 48.7468 6.05271L48.7412 6.09866L48.7384 6.12163C48.7376 6.12935 48.7372 6.13704 48.7367 6.14472C48.7269 6.26808 48.7295 6.39207 48.7446 6.51485C48.7743 6.76073 48.8488 7.00061 48.9555 7.22466C49.1716 7.67552 49.5072 8.05976 49.9268 8.33662C50.1359 8.47248 50.3665 8.57792 50.6095 8.63635C50.7307 8.66593 50.8549 8.68231 50.9798 8.68521C51.1044 8.68798 51.2288 8.67371 51.3495 8.64281C51.38 8.63671 51.4096 8.62725 51.4395 8.61879C51.4547 8.61498 51.469 8.60918 51.4838 8.60405C51.4986 8.59892 51.5128 8.59393 51.5277 8.58807C51.5857 8.56458 51.6418 8.53664 51.6954 8.50451C51.7087 8.49631 51.7224 8.4887 51.7354 8.47999L51.7739 8.45321C51.7998 8.43547 51.8247 8.41632 51.8485 8.39587C51.8964 8.35549 51.9409 8.31125 51.9815 8.26361Z" fill="white"/>
<path d="M17.5838 23.1338C17.6564 22.9935 17.7135 22.8459 17.7539 22.6934C18.323 20.319 15.7316 17.9742 12.9034 16.1171C10.1102 14.2831 6.86714 13.1898 4.79173 14.4611C4.17621 14.8382 3.5989 15.9779 3.20506 16.5657C1.45333 19.1799 2.9552 23.2178 6.55953 25.5844C10.0398 27.8696 14.2079 27.7607 16.0674 25.3967L17.5838 23.1338Z" fill="#F5C751"/>
<path d="M17.3144 23.5584C19.0663 20.944 17.5645 16.906 13.9602 14.5393C10.3558 12.1727 6.01372 12.3735 4.26186 14.9879C2.51001 17.6023 4.01176 21.6402 7.61613 24.0069C11.2205 26.3736 15.5626 26.1727 17.3144 23.5584Z" fill="#FFDB6C"/>
<path d="M15.3071 22.2402C16.5199 20.4303 15.4802 17.6348 12.9848 15.9963C10.4895 14.3578 7.4834 14.4968 6.27058 16.3068C5.05777 18.1167 6.09747 20.9122 8.59283 22.5507C11.0882 24.1892 14.0942 24.0502 15.3071 22.2402Z" fill="url(#paint1_linear_10326_102075)"/>
<path d="M8.81983 22.1482C6.50003 20.625 5.43885 18.1019 6.27549 16.3002L6.27111 16.3067C5.05829 18.1167 6.09815 20.9124 8.59335 22.5507C11.0886 24.1891 14.0948 24.0502 15.3077 22.2402C15.392 22.114 15.4663 21.9815 15.53 21.8439C14.3132 23.6488 11.312 23.7846 8.81983 22.1482Z" fill="#EDBA36"/>
<path d="M17.7558 22.7065C17.6803 22.9297 17.5862 23.1463 17.4745 23.354C17.4189 23.4584 17.3574 23.5596 17.2904 23.6572L17.1907 23.8059C17.1577 23.8553 17.1185 23.9002 17.0818 23.9485C16.9344 24.1363 16.7718 24.3119 16.5955 24.4735C16.5505 24.5129 16.5042 24.551 16.4586 24.59C16.413 24.629 16.3684 24.6691 16.3193 24.7037C16.2224 24.7741 16.1284 24.8499 16.0253 24.912C15.9744 24.9441 15.9238 24.9764 15.8718 25.0069L15.712 25.0905C15.6059 25.1493 15.4954 25.1949 15.3866 25.2456C15.3324 25.2717 15.2759 25.292 15.2201 25.314L15.052 25.3797L14.8809 25.4361L14.7945 25.465L14.7515 25.4796L14.7081 25.4914C14.2464 25.6226 13.7716 25.7035 13.2922 25.7327C12.3354 25.7936 11.3732 25.669 10.4546 25.4115C9.53605 25.1488 8.65861 24.7618 7.84716 24.2613C7.03402 23.7641 6.29262 23.1601 5.64315 22.4659C4.99625 21.7713 4.44662 20.9825 4.05249 20.1185C3.85402 19.6863 3.69974 19.2354 3.59195 18.7728C3.48175 18.309 3.43202 17.8331 3.44398 17.3568L3.45539 17.1784C3.46097 17.1191 3.46984 17.0594 3.47661 17.0009L3.48742 16.9125L3.49293 16.8681L3.50113 16.8242L3.53275 16.648C3.54212 16.5894 3.55739 16.5318 3.57217 16.4743L3.61589 16.3012L3.67021 16.1317C3.68889 16.0755 3.70506 16.0184 3.72874 15.9637C3.77339 15.8538 3.81354 15.7423 3.86821 15.6368C3.89398 15.5835 3.91896 15.5301 3.94535 15.4772L4.03419 15.3213C4.08985 15.217 4.16093 15.1219 4.2253 15.0232L4.25121 14.9846C4.25938 14.9724 4.26906 14.9612 4.27813 14.9495L4.33277 14.8796L4.44114 14.7405L4.26953 14.9966L4.24792 15.0346C4.19085 15.1372 4.12748 15.2357 4.07992 15.3428L4.00278 15.4999C3.9799 15.5534 3.95872 15.6076 3.93734 15.6621C3.89018 15.7686 3.85763 15.8804 3.82027 15.9904C3.80039 16.0446 3.78872 16.102 3.77334 16.1579L3.73021 16.3262L3.69788 16.4964C3.6869 16.5534 3.67533 16.6101 3.66965 16.6676L3.64802 16.8393L3.64271 16.8821L3.64011 16.9253L3.63459 17.0117C3.63132 17.0695 3.62664 17.1268 3.62456 17.1841L3.62503 17.3557C3.62147 17.4708 3.62782 17.5859 3.62866 17.7008C3.62798 17.7586 3.6345 17.816 3.63892 17.8733L3.65289 18.0461L3.67564 18.2174C3.68446 18.2745 3.68918 18.332 3.701 18.3886L3.73316 18.5588L3.74923 18.6439C3.75529 18.6723 3.76255 18.7002 3.76931 18.7282C3.87461 19.1792 4.02501 19.6187 4.21828 20.0402C4.60377 20.8848 5.14227 21.6586 5.77744 22.3404C7.06086 23.7107 8.69515 24.7112 10.5069 25.2359C11.4076 25.4898 12.3502 25.6115 13.2838 25.5516C13.75 25.5233 14.2116 25.4447 14.6605 25.3171C15.1082 25.1894 15.536 25.0011 15.9316 24.7575C16.0337 24.702 16.1283 24.6357 16.2256 24.5724C16.2754 24.5421 16.3197 24.5056 16.3667 24.471C16.4137 24.4363 16.4586 24.4028 16.5053 24.3654C16.6856 24.2175 16.8538 24.0559 17.0087 23.8821C17.0467 23.8381 17.0872 23.7958 17.1237 23.7504L17.2305 23.6123C17.3028 23.5204 17.3699 23.4246 17.4315 23.3253C17.5567 23.1283 17.6652 22.9213 17.7558 22.7065Z" fill="white"/>
<path d="M50.9176 24.5278H37.6703C37.1198 24.5278 36.6736 24.8892 36.6736 25.3349V27.0772C36.6736 27.5229 37.1198 27.8843 37.6703 27.8843H50.9176C51.4681 27.8843 51.9143 27.5229 51.9143 27.0772V25.3349C51.9143 24.8892 51.4681 24.5278 50.9176 24.5278Z" fill="url(#paint2_linear_10326_102075)"/>
<path d="M36.8807 24.8455H51.7079C51.6151 24.7467 51.4954 24.6666 51.358 24.6115C51.2207 24.5563 51.0694 24.5277 50.9162 24.5278H37.6718C37.5186 24.5278 37.3675 24.5565 37.2303 24.6116C37.093 24.6667 36.9734 24.7467 36.8807 24.8455Z" fill="#FFBA33"/>
<path d="M50.9176 28.0566H37.6703C37.1198 28.0566 36.6736 28.418 36.6736 28.8637V30.606C36.6736 31.0517 37.1198 31.4131 37.6703 31.4131H50.9176C51.4681 31.4131 51.9143 31.0517 51.9143 30.606V28.8637C51.9143 28.418 51.4681 28.0566 50.9176 28.0566Z" fill="url(#paint3_linear_10326_102075)"/>
<path d="M36.8807 28.3743H51.7079C51.6151 28.2755 51.4954 28.1954 51.358 28.1403C51.2207 28.0852 51.0694 28.0565 50.9162 28.0566H37.6718C37.5186 28.0566 37.3675 28.0853 37.2303 28.1404C37.093 28.1955 36.9734 28.2756 36.8807 28.3743Z" fill="#FFBA33"/>
<path d="M50.9176 31.5864H37.6703C37.1198 31.5864 36.6736 31.9478 36.6736 32.3935V34.1358C36.6736 34.5815 37.1198 34.9429 37.6703 34.9429H50.9176C51.4681 34.9429 51.9143 34.5815 51.9143 34.1358V32.3935C51.9143 31.9478 51.4681 31.5864 50.9176 31.5864Z" fill="url(#paint4_linear_10326_102075)"/>
<path d="M36.8807 31.9041H51.7079C51.6151 31.8053 51.4954 31.7252 51.358 31.67C51.2207 31.6149 51.0694 31.5863 50.9162 31.5864H37.6718C37.5186 31.5864 37.3675 31.6151 37.2303 31.6702C37.093 31.7253 36.9734 31.8053 36.8807 31.9041Z" fill="#FFBA33"/>
<path d="M50.9176 35.1152H37.6703C37.1198 35.1152 36.6736 35.4766 36.6736 35.9223V37.6646C36.6736 38.1103 37.1198 38.4717 37.6703 38.4717H50.9176C51.4681 38.4717 51.9143 38.1103 51.9143 37.6646V35.9223C51.9143 35.4766 51.4681 35.1152 50.9176 35.1152Z" fill="url(#paint5_linear_10326_102075)"/>
<path d="M36.8807 35.4329H51.7079C51.6151 35.3341 51.4954 35.254 51.358 35.1989C51.2207 35.1437 51.0694 35.1151 50.9162 35.1152H37.6718C37.5186 35.1152 37.3675 35.1439 37.2303 35.199C37.093 35.2541 36.9734 35.3341 36.8807 35.4329Z" fill="#FFBA33"/>
<path d="M50.9176 38.6431H37.6703C37.1198 38.6431 36.6736 39.0044 36.6736 39.4502V41.1924C36.6736 41.6382 37.1198 41.9995 37.6703 41.9995H50.9176C51.4681 41.9995 51.9143 41.6382 51.9143 41.1924V39.4502C51.9143 39.0044 51.4681 38.6431 50.9176 38.6431Z" fill="url(#paint6_linear_10326_102075)"/>
<path d="M36.8807 38.9607H51.7079C51.6151 38.8619 51.4954 38.7818 51.358 38.7267C51.2207 38.6716 51.0694 38.643 50.9162 38.6431H37.6718C37.5186 38.643 37.3675 38.6717 37.2303 38.7268C37.093 38.7819 36.9734 38.862 36.8807 38.9607Z" fill="#FFBA33"/>
<path d="M32.4065 35.1152H19.1592C18.6087 35.1152 18.1625 35.4766 18.1625 35.9223V37.6646C18.1625 38.1103 18.6087 38.4717 19.1592 38.4717H32.4065C32.9569 38.4717 33.4032 38.1103 33.4032 37.6646V35.9223C33.4032 35.4766 32.9569 35.1152 32.4065 35.1152Z" fill="url(#paint7_linear_10326_102075)"/>
<path d="M18.3696 35.4329H33.1968C33.104 35.3341 32.9843 35.254 32.8469 35.1989C32.7096 35.1437 32.5583 35.1151 32.405 35.1152H19.1606C19.0075 35.1152 18.8564 35.1439 18.7191 35.199C18.5819 35.2541 18.4623 35.3341 18.3696 35.4329Z" fill="#FFBA33"/>
<path d="M34.1362 31.5488H20.889C20.3385 31.5488 19.8922 31.9102 19.8922 32.3559V34.0982C19.8922 34.5439 20.3385 34.9053 20.889 34.9053H34.1362C34.6867 34.9053 35.1329 34.5439 35.1329 34.0982V32.3559C35.1329 31.9102 34.6867 31.5488 34.1362 31.5488Z" fill="url(#paint8_linear_10326_102075)"/>
<path d="M20.0994 31.8665H34.9265C34.8338 31.7677 34.714 31.6876 34.5767 31.6324C34.4393 31.5773 34.2881 31.5487 34.1348 31.5488H20.8904C20.7372 31.5488 20.5861 31.5775 20.4489 31.6326C20.3117 31.6877 20.192 31.7677 20.0994 31.8665Z" fill="#FFBA33"/>
<path d="M34.3101 38.6431H21.0629C20.5124 38.6431 20.0662 39.0044 20.0662 39.4502V41.1924C20.0662 41.6382 20.5124 41.9995 21.0629 41.9995H34.3101C34.8606 41.9995 35.3069 41.6382 35.3069 41.1924V39.4502C35.3069 39.0044 34.8606 38.6431 34.3101 38.6431Z" fill="url(#paint9_linear_10326_102075)"/>
<path d="M20.2734 38.9607H35.1006C35.0078 38.8619 34.8881 38.7818 34.7507 38.7267C34.6134 38.6716 34.4621 38.643 34.3089 38.6431H21.0645C20.9113 38.643 20.7602 38.6717 20.623 38.7268C20.4857 38.7819 20.3661 38.862 20.2734 38.9607Z" fill="#FFBA33"/>
<path d="M38.0428 11.9533C37.9557 11.8847 37.8613 11.8257 37.7613 11.7771C36.1947 11.0621 34.2071 12.4801 32.5246 14.1259C30.863 15.7512 29.652 17.7831 30.2435 19.3589C30.419 19.8262 31.1285 20.3743 31.4809 20.7217C33.0486 22.267 36.0577 21.8194 38.2019 19.722C40.2722 17.6968 40.779 14.8738 39.3998 13.2909L38.0428 11.9533Z" fill="#F5C751"/>
<path d="M38.2996 12.1939C36.7319 10.6485 33.7227 11.096 31.5785 13.1934C29.4343 15.2908 28.967 18.2439 30.5348 19.7892C32.1026 21.3346 35.1117 20.8871 37.2559 18.7897C39.4001 16.6923 39.8674 13.7393 38.2996 12.1939Z" fill="#FFDB6C"/>
<path d="M37.1042 13.3621C36.0188 12.2922 33.9355 12.602 32.4511 14.0541C30.9666 15.5061 30.6431 17.5506 31.7285 18.6204C32.8139 19.6903 34.8971 19.3805 36.3816 17.9284C37.866 16.4764 38.1895 14.4319 37.1042 13.3621Z" fill="url(#paint10_linear_10326_102075)"/>
<path d="M36.1348 17.7196C34.7547 19.0695 32.8573 19.4319 31.7252 18.6166L31.7291 18.6204C32.8145 19.6903 34.8978 19.3804 36.3822 17.9284C37.8665 16.4765 38.1901 14.4319 37.1048 13.3621C37.0291 13.2876 36.9476 13.219 36.8611 13.157C37.9424 14.2287 37.6173 16.2694 36.1348 17.7196Z" fill="#EDBA36"/>
<path d="M37.7703 11.7787C37.9145 11.8607 38.0515 11.9544 38.18 12.0587C38.2446 12.1107 38.3062 12.1662 38.3644 12.225L38.4536 12.3129C38.4832 12.3421 38.5089 12.3748 38.5372 12.4063C38.6469 12.5318 38.7459 12.6659 38.8332 12.8072C38.8543 12.843 38.8742 12.8795 38.8949 12.9157C38.9156 12.9518 38.9372 12.9875 38.9543 13.0254C38.9896 13.1005 39.0289 13.1745 39.0576 13.2525C39.0728 13.2913 39.0881 13.3299 39.102 13.3692L39.1376 13.4885C39.1636 13.5682 39.1797 13.6491 39.1997 13.7294C39.2102 13.7696 39.2164 13.8104 39.2238 13.8511L39.2459 13.9736L39.2611 14.0967L39.2691 14.1589L39.2732 14.1899L39.2753 14.2208C39.3018 14.5502 39.2916 14.8813 39.2448 15.2083C39.1534 15.8614 38.9326 16.4921 38.6257 17.0749C38.3154 17.657 37.9245 18.194 37.4642 18.6707C37.0059 19.149 36.4836 19.5641 35.9117 19.9046C35.3398 20.2433 34.7162 20.5034 34.0621 20.6482C33.7348 20.7215 33.4007 20.7624 33.0648 20.7704C32.7279 20.7798 32.3911 20.7468 32.0625 20.6722L31.9405 20.6396C31.9001 20.6276 31.86 20.6133 31.8204 20.6005L31.7606 20.5809L31.7306 20.571L31.7013 20.5593L31.5835 20.5134C31.5443 20.4989 31.5065 20.4806 31.4686 20.4626L31.3548 20.409L31.2449 20.3487C31.2085 20.3283 31.1712 20.3094 31.1366 20.2858C31.0666 20.2404 30.9949 20.1977 30.9294 20.1462C30.8961 20.1214 30.8625 20.0971 30.8295 20.0719L30.7339 19.9903C30.6693 19.9382 30.6133 19.877 30.5539 19.8199L30.5307 19.797C30.5234 19.7898 30.517 19.7818 30.5102 19.774L30.4694 19.7274L30.3881 19.635L30.5416 19.7864L30.565 19.8063C30.6281 19.859 30.6875 19.9155 30.7552 19.9625L30.8533 20.0364C30.8872 20.0593 30.9218 20.0811 30.9566 20.1031C31.0238 20.1498 31.0968 20.1873 31.1678 20.2279C31.2026 20.2488 31.2408 20.2647 31.2774 20.2829L31.388 20.3354L31.5015 20.381C31.5396 20.3964 31.5772 20.4121 31.6163 20.4239L31.7323 20.4625L31.7612 20.472L31.7908 20.4798L31.8499 20.4956C31.8895 20.5059 31.9286 20.5171 31.9681 20.5265L32.0871 20.5501C32.1664 20.5686 32.247 20.5804 32.3268 20.5959C32.3668 20.6044 32.4075 20.6081 32.4478 20.6131L32.5696 20.6278L32.6915 20.6364C32.7324 20.6385 32.7729 20.6433 32.8138 20.6433L32.9362 20.6454L32.9975 20.6464C33.018 20.6463 33.0383 20.6453 33.0587 20.6447C33.3861 20.6368 33.7118 20.5968 34.031 20.5255C34.6704 20.3839 35.282 20.1292 35.8434 19.7966C36.9726 19.1235 37.8945 18.1623 38.5114 17.0152C38.8132 16.4439 39.0292 15.8259 39.1181 15.1887C39.1636 14.8707 39.1736 14.5487 39.1478 14.2285C39.1219 13.9091 39.0511 13.5946 38.9374 13.2941C38.9132 13.2176 38.8804 13.1446 38.8502 13.0702C38.8361 13.0324 38.817 12.9975 38.7996 12.961C38.7821 12.9245 38.7652 12.8895 38.7457 12.8528C38.6684 12.7108 38.5799 12.5748 38.481 12.4462C38.4558 12.4144 38.4321 12.3812 38.4057 12.3503L38.3249 12.2591C38.2713 12.1976 38.2143 12.139 38.1541 12.0837C38.035 11.9718 37.9066 11.8698 37.7703 11.7787Z" fill="white"/>
<path d="M20.9573 6.72485C21.0064 6.67549 21.05 6.62102 21.0873 6.5624C21.6425 5.64144 20.8697 4.32313 19.9326 3.17845C19.0071 2.048 17.7943 1.16949 16.7551 1.43307C16.4469 1.51124 16.053 1.91388 15.8096 2.10906C14.7269 2.97718 14.8173 4.86353 16.0116 6.3223C17.1648 7.73087 18.9256 8.22562 20.0201 7.47631L20.9573 6.72485Z" fill="#F5C751"/>
<path d="M20.7882 6.86745C21.871 5.9993 21.7806 4.11296 20.5862 2.65419C19.3919 1.19543 17.5459 0.716648 16.4631 1.5848C15.3803 2.45296 15.4708 4.3393 16.6651 5.79806C17.8594 7.25683 19.7054 7.73561 20.7882 6.86745Z" fill="#FFDB6C"/>
<path d="M20.1229 6.05435C20.8725 5.45332 20.8099 4.14739 19.983 3.13747C19.1562 2.12754 17.8782 1.79607 17.1286 2.3971C16.3789 2.99812 16.4415 4.30406 17.2684 5.31398C18.0952 6.3239 19.3732 6.65538 20.1229 6.05435Z" fill="url(#paint11_linear_10326_102075)"/>
<path d="M17.417 5.17519C16.6483 4.23632 16.5404 3.04174 17.1313 2.39542L17.1285 2.39759C16.3789 2.99861 16.4416 4.30461 17.2684 5.31446C18.0952 6.32431 19.3732 6.65584 20.1228 6.05483C20.175 6.01289 20.2238 5.96702 20.2688 5.91763C19.5183 6.51599 18.2428 6.18382 17.417 5.17519Z" fill="#EDBA36"/>
<path d="M21.0859 6.56875C21.0245 6.65247 20.9562 6.73102 20.8816 6.80357C20.8444 6.84009 20.8052 6.87452 20.7641 6.9067L20.7025 6.95608C20.682 6.97248 20.6596 6.98622 20.6378 7.0017C20.551 7.06128 20.4594 7.11375 20.364 7.15858C20.3399 7.16925 20.3154 7.17922 20.2911 7.18965C20.2668 7.20008 20.2428 7.2111 20.2176 7.21922C20.1676 7.23615 20.1181 7.2557 20.0666 7.26837C20.041 7.27522 20.0155 7.28218 19.9896 7.28823L19.9115 7.30251C19.8592 7.31342 19.8068 7.3182 19.7545 7.32532C19.7283 7.32921 19.7019 7.33041 19.6756 7.33239L19.5964 7.3381L19.5172 7.33958L19.4772 7.3405L19.4572 7.34101L19.4375 7.34033C19.2265 7.33545 19.0168 7.30779 18.8121 7.25787C18.4031 7.15934 18.0166 6.98238 17.6661 6.75541C17.3163 6.52631 17.0003 6.25041 16.7271 5.93556C16.4528 5.62182 16.2228 5.27269 16.0433 4.89767C15.8649 4.52282 15.7399 4.12112 15.69 3.70807C15.6646 3.50126 15.6601 3.29239 15.6767 3.08458C15.6924 2.87601 15.735 2.67021 15.8036 2.47221L15.8322 2.39895C15.8424 2.37483 15.8541 2.35097 15.8647 2.32733L15.8811 2.29169L15.8893 2.27382L15.8986 2.25651L15.9353 2.18676C15.9471 2.16346 15.9612 2.14129 15.975 2.1191L16.0164 2.05228L16.0618 1.98832C16.0771 1.96717 16.0915 1.94536 16.1087 1.92552C16.1421 1.88527 16.1738 1.84375 16.2108 1.80665C16.2287 1.78766 16.2463 1.76852 16.2644 1.74977L16.3224 1.69601C16.3597 1.6595 16.4021 1.62888 16.4423 1.5959L16.4583 1.58305C16.4633 1.57901 16.4689 1.57556 16.4742 1.57188L16.5065 1.54967L16.5704 1.50543L16.4644 1.59047L16.4502 1.60361C16.4126 1.63919 16.3729 1.67222 16.3387 1.71093L16.2854 1.76673C16.2687 1.78618 16.2526 1.80614 16.2364 1.8262C16.2024 1.86471 16.1739 1.90734 16.1435 1.94857C16.128 1.96869 16.1154 1.99124 16.1015 2.01265L16.061 2.07756L16.0247 2.14468C16.0125 2.16715 16.0001 2.18938 15.9901 2.21275L15.9581 2.28187L15.9502 2.2991L15.9433 2.31688L15.9295 2.35233C15.9204 2.37613 15.9108 2.39953 15.9023 2.42328L15.8796 2.49524C15.8627 2.54297 15.85 2.59201 15.8351 2.64026C15.8271 2.66439 15.8221 2.68928 15.8163 2.71385L15.7991 2.78805L15.7858 2.86275C15.7819 2.88786 15.7762 2.91255 15.7736 2.93779L15.7644 3.01325L15.7597 3.05098C15.7585 3.06366 15.7578 3.07628 15.7569 3.08889C15.7408 3.29149 15.7452 3.49512 15.7699 3.69675C15.8188 4.10057 15.9411 4.49453 16.1163 4.86249C16.4712 5.60292 17.0224 6.23397 17.7114 6.68866C18.0549 6.91179 18.4336 7.08495 18.8327 7.18091C19.0318 7.22948 19.2357 7.25639 19.4408 7.26115C19.6454 7.2657 19.8497 7.24227 20.048 7.19151C20.0981 7.18149 20.1466 7.16596 20.1959 7.15207C20.2207 7.14581 20.2442 7.13629 20.2685 7.12786C20.2928 7.11944 20.3161 7.11124 20.3406 7.10161C20.4359 7.06303 20.528 7.01715 20.616 6.96439C20.6378 6.95092 20.6605 6.93842 20.6818 6.92412L20.745 6.88013C20.7875 6.85099 20.8284 6.81956 20.8674 6.78597C20.9462 6.71966 21.0192 6.647 21.0859 6.56875Z" fill="white"/>
<defs>
<linearGradient id="paint0_linear_10326_102075" x1="49.5718" y1="5.7231" x2="51.3721" y2="7.96844" gradientUnits="userSpaceOnUse">
<stop stop-color="#FFD874"/>
<stop offset="1" stop-color="#FFF6D5"/>
</linearGradient>
<linearGradient id="paint1_linear_10326_102075" x1="6.27058" y1="16.3068" x2="15.2508" y2="22.3242" gradientUnits="userSpaceOnUse">
<stop stop-color="#FFD874"/>
<stop offset="1" stop-color="#FFF6D5"/>
</linearGradient>
<linearGradient id="paint2_linear_10326_102075" x1="51.617" y1="27.5528" x2="37.0124" y2="23.6757" gradientUnits="userSpaceOnUse">
<stop stop-color="#FFC738"/>
<stop offset="1" stop-color="#FFF5DA"/>
</linearGradient>
<linearGradient id="paint3_linear_10326_102075" x1="51.617" y1="31.0816" x2="37.0124" y2="27.2046" gradientUnits="userSpaceOnUse">
<stop stop-color="#FFC738"/>
<stop offset="1" stop-color="#FFF5DA"/>
</linearGradient>
<linearGradient id="paint4_linear_10326_102075" x1="51.617" y1="34.6114" x2="37.0124" y2="30.7343" gradientUnits="userSpaceOnUse">
<stop stop-color="#FFC738"/>
<stop offset="1" stop-color="#FFF5DA"/>
</linearGradient>
<linearGradient id="paint5_linear_10326_102075" x1="51.617" y1="38.1402" x2="37.0124" y2="34.2631" gradientUnits="userSpaceOnUse">
<stop stop-color="#FFC738"/>
<stop offset="1" stop-color="#FFF5DA"/>
</linearGradient>
<linearGradient id="paint6_linear_10326_102075" x1="51.617" y1="41.668" x2="37.0124" y2="37.791" gradientUnits="userSpaceOnUse">
<stop stop-color="#FFC738"/>
<stop offset="1" stop-color="#FFF5DA"/>
</linearGradient>
<linearGradient id="paint7_linear_10326_102075" x1="33.1059" y1="38.1402" x2="18.5013" y2="34.2631" gradientUnits="userSpaceOnUse">
<stop stop-color="#FFC738"/>
<stop offset="1" stop-color="#FFF5DA"/>
</linearGradient>
<linearGradient id="paint8_linear_10326_102075" x1="34.8356" y1="34.5738" x2="20.231" y2="30.6967" gradientUnits="userSpaceOnUse">
<stop stop-color="#FFC738"/>
<stop offset="1" stop-color="#FFF5DA"/>
</linearGradient>
<linearGradient id="paint9_linear_10326_102075" x1="35.0095" y1="41.668" x2="20.4049" y2="37.791" gradientUnits="userSpaceOnUse">
<stop stop-color="#FFC738"/>
<stop offset="1" stop-color="#FFF5DA"/>
</linearGradient>
<linearGradient id="paint10_linear_10326_102075" x1="31.7285" y1="18.6204" x2="37.0066" y2="13.2659" gradientUnits="userSpaceOnUse">
<stop stop-color="#FFD874"/>
<stop offset="1" stop-color="#FFF6D5"/>
</linearGradient>
<linearGradient id="paint11_linear_10326_102075" x1="17.1286" y1="2.3971" x2="20.0851" y2="6.08462" gradientUnits="userSpaceOnUse">
<stop stop-color="#FFD874"/>
<stop offset="1" stop-color="#FFF6D5"/>
</linearGradient>
</defs>
</svg>
