<svg width="33" height="33" viewBox="0 0 33 33" fill="none" xmlns="http://www.w3.org/2000/svg">
<path d="M28.4351 17.2534L25.7109 9.08105C25.5285 8.53241 25.1913 8.04827 24.7398 7.68706C24.2884 7.32586 23.742 7.10302 23.1667 7.04544V4.02979H26.1667C26.2994 4.02978 26.4265 3.9771 26.5203 3.88333C26.6141 3.78956 26.6667 3.66239 26.6667 3.52979V1.02979H25.6667V3.02979H5.66675V1.02979H4.66675V3.52979C4.66675 3.66239 4.71944 3.78956 4.8132 3.88333C4.90697 3.9771 5.03414 4.02978 5.16675 4.02979H8.16675V21.0298C8.16675 21.1624 8.21944 21.2896 8.3132 21.3833C8.40697 21.4771 8.53414 21.5298 8.66675 21.5298H14.3282L16.9283 28.0298H15.6667C15.5341 28.0298 15.407 28.0825 15.3132 28.1762C15.2194 28.27 15.1668 28.3972 15.1667 28.5298V31.0298H16.1667V29.0298H26.6667V31.0298H27.6667V28.5298C27.6667 28.3972 27.6141 28.27 27.5203 28.1762C27.4265 28.0825 27.2994 28.0298 27.1667 28.0298H26.771L28.5359 18.7635C28.6316 18.2598 28.5969 17.7399 28.4351 17.2534ZM19.6344 4.02979C19.5129 4.99635 19.0427 5.8853 18.3121 6.52975C17.5816 7.17419 16.6409 7.5298 15.6667 7.5298C14.6926 7.5298 13.7519 7.17419 13.0214 6.52975C12.2908 5.8853 11.8206 4.99635 11.6991 4.02979H19.6344ZM10.6918 4.02979C10.8158 5.26309 11.3934 6.40639 12.3126 7.23788C13.2319 8.06938 14.4272 8.52978 15.6667 8.52978C16.9063 8.52978 18.1016 8.06938 19.0209 7.23788C19.9401 6.40639 20.5177 5.26309 20.6417 4.02979H22.1667V15.3227L21.1417 14.2975C20.65 13.806 19.9833 13.5299 19.2881 13.5299C18.593 13.53 17.9263 13.8061 17.4347 14.2977C16.9431 14.7893 16.6669 15.456 16.6669 16.1512C16.6669 16.8464 16.943 17.5131 17.4345 18.0047L18.2041 18.7743C17.9266 19.3229 17.753 19.9181 17.6919 20.5298H13.6417C13.5247 19.3828 13.0157 18.3113 12.2005 17.4961C11.3852 16.6808 10.3137 16.1718 9.16675 16.0548V4.02979H10.6918ZM19.9596 20.5298H18.6985C18.7414 20.1862 18.8288 19.8497 18.9586 19.5287L19.9596 20.5298ZM9.16675 17.0621C10.0472 17.1744 10.8654 17.5759 11.4931 18.2035C12.1207 18.8311 12.5221 19.6493 12.6344 20.5298H9.16675V17.0621ZM27.5536 18.5764L25.753 28.0298H18.0052L15.4052 21.5298H20.1163C19.668 22.2075 19.3773 22.9772 19.2658 23.7822C19.1543 24.5871 19.2248 25.4068 19.472 26.1809L20.4253 25.8787C20.1768 25.1011 20.1475 24.2701 20.3407 23.477C20.5339 22.6839 20.9421 21.9595 21.5203 21.3834C21.6141 21.2896 21.6668 21.1624 21.6668 21.0298C21.6668 20.8972 21.6141 20.77 21.5203 20.6762L18.1417 17.2975C17.8376 16.9935 17.6668 16.5811 17.6668 16.1511C17.6668 15.7211 17.8376 15.3088 18.1417 15.0047C18.4457 14.7007 18.8581 14.5298 19.2881 14.5298C19.7181 14.5298 20.1305 14.7007 20.4345 15.0047L22.3132 16.8834L23.8132 18.3834L24.5203 17.6762L23.1667 16.3226V8.05249C23.5308 8.10778 23.8725 8.26264 24.1541 8.49998C24.4356 8.73731 24.6461 9.04787 24.7622 9.39734L27.4863 17.5697C27.5942 17.894 27.6174 18.2406 27.5536 18.5764Z" fill="currentColor"/>
</svg>
