<svg width="32" height="24" viewBox="0 0 32 24" fill="none" xmlns="http://www.w3.org/2000/svg">
<path opacity="0.8" d="M28.9355 1.26481e-06L3.06471 1.33957e-07C1.37218 5.99748e-08 0.000122021 1.1168 0.000121961 2.49445L0.00012113 21.5056C0.00012107 22.8832 1.37218 24 3.06471 24L28.9355 24C30.6281 24 32.0001 22.8832 32.0001 21.5056L32.0001 2.49445C32.0001 1.1168 30.6281 1.33879e-06 28.9355 1.26481e-06Z" fill="url(#paint0_linear_5695_14203)"/>
<path d="M21.7919 23.9995L21.4687 23.9995L21.4687 5.51608L32 5.51608L32 5.7791L21.7919 5.7791L21.7919 23.9995Z" fill="#1B1D29"/>
<path d="M11.6044 24L11.6044 0L11.2812 -1.41246e-08L11.2812 24L11.6044 24Z" fill="#1B1D29"/>
<path d="M11.4426 12.1309L11.4426 11.8679L0.121158 11.8679L0.121158 12.1309L11.4426 12.1309Z" fill="#1B1D29"/>
<path d="M11.4426 5.77913L11.4426 5.51611L0.121158 5.51611L0.121158 5.77913L11.4426 5.77913Z" fill="#1B1D29"/>
<path d="M11.4426 18.4834L11.4426 18.2203L0.121158 18.2203L0.121158 18.4834L11.4426 18.4834Z" fill="#1B1D29"/>
<path d="M32 12.1309L32 11.8679L21.6832 11.8679L21.6832 12.1309L32 12.1309Z" fill="#1B1D29"/>
<path d="M32 18.4834L32 18.2203L21.6832 18.2203L21.6832 18.4834L32 18.4834Z" fill="url(#paint1_linear_5695_14203)"/>
<defs>
<linearGradient id="paint0_linear_5695_14203" x1="16.0001" y1="6.99382e-07" x2="16.0001" y2="24" gradientUnits="userSpaceOnUse">
<stop stop-color="#FFE99E"/>
<stop offset="1" stop-color="#FFD548"/>
</linearGradient>
<linearGradient id="paint1_linear_5695_14203" x1="29.0009" y1="18.2203" x2="29.0008" y2="18.4857" gradientUnits="userSpaceOnUse">
<stop offset="0.2382" stop-color="#FFEDCB"/>
<stop offset="1" stop-color="#E3B370"/>
</linearGradient>
</defs>
</svg>
