<svg width="21" height="21" viewBox="0 0 21 21" fill="none" xmlns="http://www.w3.org/2000/svg">
<path fill-rule="evenodd" clip-rule="evenodd" d="M19 2.56066V4.75C19 5.16421 19.3358 5.5 19.75 5.5C20.1642 5.5 20.5 5.16421 20.5 4.75V0.750281L20.5 0.747751C20.4997 0.646878 20.4795 0.55069 20.4431 0.462912C20.4065 0.374453 20.3522 0.291577 20.2803 0.21967C20.2084 0.147762 20.1255 0.0935089 20.0371 0.0569091C19.9487 0.0202391 19.8517 0 19.75 0H15.75C15.3358 0 15 0.335786 15 0.75C15 1.16421 15.3358 1.5 15.75 1.5L17.9393 1.5L16.2478 3.19153C14.5361 1.8202 12.3639 1 10 1C4.47715 1 0 5.47715 0 11C0 16.5228 4.47715 21 10 21C15.5228 21 20 16.5228 20 11C20 8.3812 18.9933 5.99751 17.3459 4.21479L19 2.56066ZM16.2478 3.19153C16.639 3.50491 17.006 3.84706 17.3459 4.21479L16.2803 5.28033C15.9874 5.57322 15.5126 5.57322 15.2197 5.28033C14.9268 4.98744 14.9268 4.51256 15.2197 4.21967L16.2478 3.19153ZM13.5685 13.2093V14.1947C13.5685 14.4596 13.628 14.6609 13.747 14.7987C13.8696 14.9329 14.0289 15 14.2249 15C14.4245 15 14.5838 14.9347 14.7028 14.804C14.8219 14.6698 14.8814 14.4667 14.8814 14.1947V13.2093H15.2018C15.4678 13.2093 15.6674 13.1634 15.8004 13.0715C15.9335 12.9762 16 12.826 16 12.6212C16 12.3704 15.9177 12.2079 15.7532 12.1338C15.5921 12.0596 15.3768 12.0225 15.1072 12.0225H14.8814V7.92185C14.8814 7.30728 14.6153 7 14.0832 7C13.9186 7 13.7768 7.05651 13.6578 7.16954C13.5422 7.27903 13.3934 7.4574 13.2114 7.70464L10.428 11.4609C10.351 11.5634 10.2862 11.6499 10.2337 11.7205C10.1812 11.7912 10.1304 11.8653 10.0814 11.943C10.0324 12.0172 9.99562 12.0896 9.97112 12.1603C9.94661 12.2274 9.93435 12.2945 9.93435 12.3616C9.93435 12.623 10.0166 12.8296 10.1812 12.9815C10.3492 13.1333 10.5996 13.2093 10.9322 13.2093H13.5685ZM13.5685 12.0225H11.3103L13.5685 8.94437V12.0225ZM8.54792 13.6172H5.80656C5.89409 13.483 5.97987 13.3682 6.0639 13.2728C6.25996 13.0327 6.62057 12.6954 7.14573 12.2609C7.6744 11.8265 8.05077 11.5086 8.27484 11.3073C8.49891 11.1024 8.71772 10.8216 8.93129 10.4649C9.14836 10.1046 9.25689 9.70552 9.25689 9.26755C9.25689 8.98852 9.20438 8.72009 9.09934 8.46225C8.99781 8.20088 8.85427 7.9713 8.66871 7.77351C8.48315 7.57572 8.26783 7.42031 8.02276 7.30728C7.64464 7.13775 7.18775 7.05298 6.65208 7.05298C6.20744 7.05298 5.81882 7.12009 5.48621 7.2543C5.15711 7.38499 4.88403 7.55806 4.66696 7.77351C4.45339 7.98896 4.29234 8.22914 4.18381 8.49404C4.07527 8.75894 4.02101 9.01324 4.02101 9.25695C4.02101 9.45828 4.07877 9.61722 4.19431 9.73378C4.30985 9.85033 4.45514 9.90861 4.6302 9.90861C4.82976 9.90861 4.98031 9.84503 5.08184 9.71788C5.18687 9.59073 5.27965 9.40883 5.36018 9.17218C5.4442 8.93554 5.50372 8.79073 5.53873 8.73775C5.80131 8.33157 6.16193 8.12848 6.62057 8.12848C6.83764 8.12848 7.0372 8.17793 7.21926 8.27682C7.40481 8.37572 7.55011 8.51523 7.65514 8.69536C7.76368 8.87196 7.81794 9.07329 7.81794 9.29934C7.81794 9.50773 7.76718 9.72141 7.66565 9.9404C7.56762 10.1558 7.42232 10.3678 7.22976 10.5762C7.0407 10.781 6.80263 10.9859 6.51554 11.1907C6.35449 11.3002 6.08665 11.5298 5.71204 11.8795C5.33742 12.2256 4.91729 12.6424 4.45164 13.1298C4.33961 13.2499 4.23632 13.4159 4.14179 13.6278C4.04726 13.8362 4 14.004 4 14.1311C4 14.3289 4.07352 14.502 4.22057 14.6503C4.36761 14.7951 4.57243 14.8675 4.83501 14.8675H8.70022C8.93129 14.8675 9.10285 14.8075 9.21488 14.6874C9.33042 14.5673 9.38818 14.4208 9.38818 14.2477C9.38818 14.0534 9.31641 13.8998 9.17287 13.7868C9.02932 13.6737 8.82101 13.6172 8.54792 13.6172Z" fill="currentColor"/>
</svg>
