<svg width="40" height="40" viewBox="0 0 40 40" fill="none" xmlns="http://www.w3.org/2000/svg">
<path fill-rule="evenodd" clip-rule="evenodd" d="M12.7998 11.0274L12.7998 11.0274L6.91877 17.298L6.91866 17.2981C5.47153 18.8414 5.47153 21.1586 6.91866 22.7019L6.91877 22.702L12.7998 28.9726L12.8045 28.9777C13.9029 30.1553 15.4677 30.8333 17.1406 30.8333H28.3364C31.6262 30.8333 34.1666 28.2613 34.1666 25.2525V14.7475C34.1666 11.7387 31.6262 9.16667 28.3364 9.16667H17.1406C15.4677 9.16667 13.9029 9.84469 12.8045 11.0223L12.7998 11.0274ZM10.9763 30.6828C12.559 32.3798 14.7915 33.3333 17.1406 33.3333H28.3364C32.9347 33.3333 36.6666 29.7131 36.6666 25.2525V14.7475C36.6666 10.2869 32.9347 6.66667 28.3364 6.66667H17.1406C14.7915 6.66667 12.559 7.62021 10.9763 9.31718L5.09515 15.5879C2.74603 18.0929 2.74603 21.9071 5.09515 24.4121L10.9763 30.6828ZM17.5503 14.9999C18.0385 14.5118 18.83 14.5118 19.3181 14.9999L22.5509 18.2327L25.7837 14.9999C26.2718 14.5118 27.0633 14.5118 27.5514 14.9999C28.0396 15.4881 28.0396 16.2795 27.5514 16.7677L24.3187 20.0005L27.5514 23.2332C28.0396 23.7214 28.0396 24.5129 27.5514 25.001C27.0633 25.4892 26.2718 25.4892 25.7837 25.001L22.5509 21.7682L19.3181 25.001C18.83 25.4892 18.0385 25.4892 17.5503 25.001C17.0622 24.5129 17.0622 23.7214 17.5503 23.2332L20.7831 20.0005L17.5503 16.7677C17.0622 16.2795 17.0622 15.4881 17.5503 14.9999Z" fill="color1"/>
</svg>
