<svg width="24" height="24" viewBox="0 0 24 24" fill="none" xmlns="http://www.w3.org/2000/svg">
<path fill-rule="evenodd" clip-rule="evenodd" d="M19.0942 8.73772C20.5966 7.20155 21.2737 5.45032 18.9355 3.30993C16.608 1.19001 14.8412 1.93762 13.3388 3.47378L4.6528 12.3733C4.32483 12.7113 4.00743 13.3769 3.94395 13.8378L3.5525 17.1559C3.41496 18.3541 4.30367 19.1734 5.53092 18.9686L8.93762 18.4053C9.41371 18.3234 10.0802 17.9855 10.4082 17.6373L19.0942 8.73772ZM8.67207 16.9278C8.68298 16.9257 8.72215 16.9168 8.78728 16.8933C8.85398 16.8692 8.93 16.8362 9.00715 16.7962C9.08451 16.7562 9.15212 16.7148 9.20473 16.6777C9.25483 16.6423 9.27581 16.6219 9.27581 16.6219L9.27509 16.6226L9.29373 16.6032L17.9808 7.70258C18.6477 7.0207 18.8934 6.51853 18.9204 6.14506C18.9416 5.85178 18.8499 5.28955 17.8839 4.40472C16.9261 3.53292 16.3378 3.46972 16.0215 3.50888C15.6262 3.55781 15.1173 3.82904 14.4529 4.50828L5.7703 13.4043C5.76802 13.4068 5.74514 13.4325 5.7085 13.4884C5.67098 13.5455 5.63026 13.6171 5.59168 13.6972C5.55316 13.7772 5.52191 13.8549 5.49963 13.9223C5.48867 13.9555 5.48092 13.983 5.47572 14.0042C5.47316 14.0147 5.47141 14.0229 5.47026 14.0288L5.46965 14.032L5.08142 17.3228L5.08122 17.3245C5.07063 17.4186 5.08209 17.472 5.08846 17.4928C5.11054 17.4981 5.16901 17.5072 5.27135 17.4901L5.27371 17.4897L8.67207 16.9278Z" fill="currentColor"/>
<path fill-rule="evenodd" clip-rule="evenodd" d="M2 21.25C2 20.8358 2.3444 20.5 2.76923 20.5H21.2308C21.6556 20.5 22 20.8358 22 21.25C22 21.6642 21.6556 22 21.2308 22H2.76923C2.3444 22 2 21.6642 2 21.25Z" fill="currentColor"/>
<path fill-rule="evenodd" clip-rule="evenodd" d="M13.3621 5.62573C14.0699 7.12781 15.2767 8.31049 16.7463 8.96727L15.6364 10.1045C14.2115 9.35552 13.0301 8.19741 12.2364 6.77909L13.3621 5.62573Z" fill="currentColor"/>
</svg>
