<svg width="24" height="24" viewBox="0 0 24 24" fill="none" xmlns="http://www.w3.org/2000/svg">
<path fill-rule="evenodd" clip-rule="evenodd" d="M21.265 4.29526C21.5661 4.01085 21.5797 3.53617 21.2953 3.23503C21.0109 2.9339 20.5362 2.92033 20.235 3.20474L17.587 5.70564C15.8841 4.59868 13.9674 4 11.996 4C10.2167 4 8.48742 4.49473 6.90805 5.39085C5.32868 6.30564 3.90924 7.64048 2.7497 9.33937C1.7501 10.8049 1.7501 13.1852 2.7497 14.6507C3.4757 15.7105 4.3062 16.6337 5.20629 17.3986L2.23503 20.2047C1.9339 20.4892 1.92033 20.9638 2.20474 21.265C2.48915 21.5661 2.96383 21.5797 3.26497 21.2953L21.265 4.29526ZM8.66555 14.1315L9.48842 13.3543C9.26834 12.9487 9.14014 12.4858 9.14014 11.9996C9.14014 10.4296 10.4201 9.13965 12.0001 9.13965C12.5436 9.13965 13.058 9.29986 13.4958 9.56954L14.2692 8.83916C13.6227 8.36385 12.8407 8 11.996 8C9.75692 8 8 9.91811 8 11.9997C8 12.7924 8.23423 13.526 8.66555 14.1315ZM21.2623 9.36796C20.9724 8.93857 20.6625 8.53718 20.3426 8.1638C19.9728 7.72508 19.2731 7.68774 18.8532 8.07979L15.8544 10.8802C16.0743 11.4962 16.1143 12.2057 15.9144 12.9431C15.5645 14.2593 14.425 15.3234 13.0155 15.6501C12.2259 15.8368 11.4662 15.7995 10.8064 15.5941L8.34739 17.8904C7.84759 18.3571 8.00753 19.1786 8.67726 19.4213C9.74684 19.804 10.8564 20 11.9959 20C13.7752 20 15.5045 19.5146 17.0839 18.6092C18.6933 17.6757 20.1427 16.3035 21.3122 14.558C22.2619 13.1485 22.2119 10.7775 21.2623 9.36796ZM14.8601 12.0001C14.8601 13.5701 13.5801 14.8601 12.0001 14.8601H12.0001C11.9401 14.8601 11.8901 14.8601 11.8301 14.8401L14.8401 11.8301C14.8601 11.8901 14.8601 11.9401 14.8601 12.0001V12.0001Z" fill="currentColor"/>
</svg>
