<svg width="25" height="24" viewBox="0 0 25 24" fill="none" xmlns="http://www.w3.org/2000/svg">
    <path d="M9.66669 12L3.16669 15.5V19.5H21.1667V11L16.1667 16L9.66669 12Z" fill="#FFC709"/>
    <path d="M21.5417 19.5C21.5417 19.5995 21.5022 19.6948 21.4319 19.7652C21.3615 19.8355 21.2661 19.875 21.1667 19.875H3.16669C3.06723 19.875 2.97185 19.8355 2.90152 19.7652C2.8312 19.6948 2.79169 19.5995 2.79169 19.5V4.5C2.79169 4.40054 2.8312 4.30516 2.90152 4.23484C2.97185 4.16451 3.06723 4.125 3.16669 4.125C3.26614 4.125 3.36153 4.16451 3.43185 4.23484C3.50218 4.30516 3.54169 4.40054 3.54169 4.5V14.175L8.92294 9.46875C8.98647 9.41115 9.06822 9.37771 9.15391 9.37429C9.23959 9.37086 9.32376 9.39766 9.39169 9.45L15.1479 13.7719L20.9229 8.71875C20.9989 8.66774 21.0909 8.64627 21.1816 8.65838C21.2723 8.67048 21.3554 8.71533 21.4154 8.78448C21.4753 8.85363 21.5079 8.9423 21.507 9.0338C21.5061 9.1253 21.4717 9.2133 21.4104 9.28125L15.4104 14.5312C15.3469 14.5889 15.2652 14.6223 15.1795 14.6257C15.0938 14.6291 15.0096 14.6023 14.9417 14.55L9.18544 10.2281L3.54169 15.1688V19.125H21.1667C21.2661 19.125 21.3615 19.1645 21.4319 19.2348C21.5022 19.3052 21.5417 19.4005 21.5417 19.5Z" fill="black"/>
</svg>
