<svg width="48" height="49" viewBox="0 0 48 49" fill="none" xmlns="http://www.w3.org/2000/svg">
<path fill-rule="evenodd" clip-rule="evenodd" d="M23.9998 28.6601C26.303 28.6601 28.1598 26.8032 28.1598 24.5001C28.1598 22.1969 26.303 20.3401 23.9998 20.3401C21.6967 20.3401 19.8398 22.1969 19.8398 24.5001C19.8398 26.8032 21.6967 28.6601 23.9998 28.6601ZM23.9998 31.6601C27.9598 31.6601 31.1598 28.4601 31.1598 24.5001C31.1598 20.5401 27.9598 17.3401 23.9998 17.3401C20.0398 17.3401 16.8398 20.5401 16.8398 24.5001C16.8398 28.4601 20.0398 31.6601 23.9998 31.6601Z" fill="currentColor"/>
<path fill-rule="evenodd" clip-rule="evenodd" d="M40.1308 27.8435L40.1335 27.8395C40.6432 27.0841 41 25.8804 41 24.5C41 23.1196 40.6432 21.9159 40.1335 21.1605L40.1308 21.1565C35.8887 14.8479 30.0206 11.5 24 11.5C17.9794 11.5 12.1113 14.8479 7.86917 21.1565L7.8665 21.1605C7.35679 21.9159 7 23.1196 7 24.5C7 25.8804 7.35679 27.0841 7.8665 27.8395L7.86917 27.8435C12.1113 34.1521 17.9794 37.5 24 37.5C30.0206 37.5 35.8887 34.1521 40.1308 27.8435ZM42.6203 29.5175C37.9397 36.4782 31.2151 40.5 24 40.5C16.7849 40.5 10.0603 36.4782 5.37966 29.5175C3.54011 26.7912 3.54011 22.2088 5.37966 19.4825C10.0603 12.5218 16.7849 8.5 24 8.5C31.2151 8.5 37.9397 12.5218 42.6203 19.4825C44.4599 22.2088 44.4599 26.7912 42.6203 29.5175Z" fill="currentColor"/>
</svg>
