<svg width="163" height="147" viewBox="0 0 163 147" fill="none" xmlns="http://www.w3.org/2000/svg">
<path d="M79.2202 142.394C115.439 142.394 144.875 112.958 144.875 76.7396C144.875 40.521 115.439 11.0849 79.2202 11.0849C43.0016 11.2206 13.5656 40.521 13.5656 76.8752C13.5656 113.094 43.0016 142.394 79.2202 142.394Z" fill="#F3F3F7"/>
<path fill-rule="evenodd" clip-rule="evenodd" d="M79.2172 10.2881L79.2202 10.2881C115.879 10.2881 145.672 40.0809 145.672 76.7395C145.672 113.398 115.879 143.191 79.2202 143.191C42.5637 143.191 12.7688 113.536 12.7688 76.8752C12.7688 40.0792 42.5626 10.4254 79.2172 10.2881ZM79.2217 11.8816C43.4399 12.0164 14.3623 40.9631 14.3623 76.8752C14.3623 112.652 43.4395 141.597 79.2202 141.597C114.999 141.597 144.078 112.518 144.078 76.7395C144.078 40.9615 115 11.8824 79.2217 11.8816Z" fill="#DCDEE9"/>
<path d="M122.357 66.1587V114.857C122.357 117.841 119.915 120.283 116.931 120.283H39.7458C36.7615 120.283 34.3198 117.841 34.3198 114.857V66.1587C34.3198 63.1744 36.8972 60.7327 39.7458 60.7327H116.931C119.237 60.7327 121.136 62.0892 122.085 64.1239C122.221 64.6665 122.357 65.3448 122.357 66.1587Z" fill="#F3F3F7"/>
<path fill-rule="evenodd" clip-rule="evenodd" d="M39.7461 61.5294C37.3246 61.5294 35.1169 63.6272 35.1169 66.1586V114.857C35.1169 117.401 37.2019 119.486 39.7461 119.486H116.931C119.475 119.486 121.56 117.401 121.56 114.857V66.1586C121.56 65.4706 121.452 64.8868 121.331 64.3928C120.49 62.648 118.871 61.5294 116.931 61.5294H39.7461ZM33.5234 66.1586C33.5234 62.7215 36.4703 59.9359 39.7461 59.9359H116.931C119.578 59.9359 121.741 61.5012 122.808 63.787L122.84 63.8564L122.859 63.9307C123.003 64.5061 123.154 65.2544 123.154 66.1586V114.857C123.154 118.281 120.355 121.08 116.931 121.08H39.7461C36.3218 121.08 33.5234 118.281 33.5234 114.857V66.1586Z" fill="#DCDEE9"/>
<path d="M160.475 60.4614C162.645 58.4267 162.781 55.0354 160.882 52.865C158.847 50.6946 155.456 50.559 153.285 52.4581C151.115 54.4928 150.979 57.8841 152.878 60.0545C154.913 62.3605 158.304 62.4962 160.475 60.4614Z" fill="#F3F3F7"/>
<path d="M160.881 36.7227C161.831 35.9088 161.831 34.4166 161.017 33.6027C160.203 32.6532 158.711 32.6532 157.897 33.4671C157.083 34.281 156.948 35.7731 157.761 36.587C158.575 37.5366 159.932 37.5366 160.881 36.7227Z" fill="#F3F3F7"/>
<path d="M104.181 3.89589C104.859 3.35317 104.859 2.26773 104.316 1.72501C103.774 1.04661 102.824 1.04661 102.145 1.58933C101.467 2.13205 101.467 3.08181 102.01 3.76021C102.552 4.43861 103.502 4.43861 104.181 3.89589Z" fill="#F3F3F7"/>
<path d="M150.301 34.9592L131.039 69.143C130.36 70.2282 128.868 70.6352 127.783 69.9569L94.9558 50.8303C93.8706 50.152 93.4636 48.6599 94.1419 47.5747L119.508 4.031C120.187 2.94579 121.679 2.53884 122.764 3.21709L146.638 17.1891L150.301 34.9592Z" fill="white"/>
<path fill-rule="evenodd" clip-rule="evenodd" d="M120.19 4.44382L94.8239 47.9865L94.8174 47.997C94.3937 48.6748 94.6317 49.681 95.3685 50.1487L128.195 69.2747L128.205 69.2813C128.882 69.7041 129.885 69.4679 130.354 68.7345L149.46 34.8279L145.93 17.6975L122.351 3.89889L122.342 3.89274C121.664 3.46909 120.658 3.70708 120.19 4.44382ZM123.176 2.53482C121.687 1.61312 119.722 2.18585 118.833 3.60871L118.826 3.61922L93.459 47.1637C92.5379 48.652 93.1107 50.6168 94.5333 51.5059L94.5438 51.5125L127.372 70.6396C128.86 71.5608 130.825 70.988 131.714 69.5653L131.724 69.55L151.141 35.0905L147.347 16.6806L123.176 2.53482Z" fill="#DCDEE9"/>
<path d="M146.367 17.0534L140.941 26.2776C140.263 27.6341 140.67 29.2619 141.891 30.0758L150.165 34.8236" fill="#DCDEE9"/>
<path fill-rule="evenodd" clip-rule="evenodd" d="M125.341 25.8707C124.934 25.8707 124.391 25.8707 123.848 26.0064L123.713 28.3124C123.713 28.5837 123.984 28.9907 124.255 29.1263C124.391 29.262 124.662 29.262 124.798 29.262H125.748C126.155 29.262 126.561 29.262 126.968 29.3976C127.511 29.5333 128.054 29.8046 128.461 30.0759C128.868 30.3472 129.139 30.6185 129.41 30.8898L129.41 30.8898C129.681 31.1611 129.817 31.4324 129.953 31.8393C130.088 32.1106 130.088 32.3819 130.088 32.7889C129.953 33.1958 129.817 33.6028 129.681 33.8741C129.41 34.4167 129.139 34.8237 128.596 35.095C128.054 35.3663 127.647 35.5019 127.104 35.6376C126.561 35.7732 126.019 35.9089 125.476 35.9089C125.205 35.9767 124.968 36.0106 124.73 36.0445C124.493 36.0784 124.255 36.1123 123.984 36.1802C123.577 36.3158 123.17 36.4515 122.763 36.7228L122.763 36.7228C122.492 36.9941 122.085 37.401 121.949 37.808L120.864 40.3853L123.442 41.7418L124.934 39.7071C125.205 39.4358 125.476 39.3001 125.883 39.1645C125.996 39.1361 126.104 39.1078 126.206 39.0808C126.596 38.9781 126.918 38.8932 127.24 38.8932L128.732 38.7575C129.274 38.7575 129.817 38.6219 130.36 38.3506C131.038 38.0793 131.445 37.808 131.987 37.401C132.53 36.8584 132.937 36.3158 133.344 35.6376C133.751 34.8236 134.022 34.0097 134.158 33.1958C134.158 32.3819 134.158 31.568 133.887 30.8898C133.615 29.9402 133.208 29.262 132.666 28.7194C131.987 28.0411 131.309 27.4985 130.495 27.0916C129.953 26.8203 129.41 26.549 128.732 26.2777C128.461 26.2099 128.155 26.142 127.85 26.0742C127.545 26.0064 127.24 25.9386 126.968 25.8707H125.341ZM117.067 44.3192C116.795 44.5905 116.524 44.8618 116.388 45.1331C116.253 45.4044 116.117 45.6757 116.117 46.2183C115.981 46.4896 115.981 46.8965 116.117 47.1678C116.117 47.3487 116.238 47.5296 116.358 47.7104C116.419 47.8009 116.479 47.8913 116.524 47.9817C116.795 48.253 117.067 48.5243 117.338 48.66C118.016 48.9313 118.694 49.0669 119.373 48.9313C120.729 48.5243 121.543 47.0322 121.136 45.6757L120.729 44.8618C120.458 44.5905 120.187 44.3192 119.915 44.1835C119.237 43.7766 118.559 43.7766 117.881 43.9122C117.7 43.9122 117.519 44.0328 117.338 44.1534C117.248 44.2137 117.157 44.274 117.067 44.3192Z" fill="#DCDEE9"/>
<path d="M33.4138 44.554L55.5248 67.4789C56.2031 68.2928 56.203 69.5136 55.3891 70.3275L32.8712 91.4889C32.0573 92.1672 30.8365 92.1672 30.0226 91.3533L2.07864 61.6459C1.40039 60.832 1.40039 59.6112 2.21429 58.7973L18.4923 43.4688L33.4138 44.554Z" fill="white"/>
<path fill-rule="evenodd" clip-rule="evenodd" d="M18.2009 42.6487L33.7756 43.7814L56.1183 66.9465L56.1368 66.9688C57.0677 68.0859 57.0699 69.7734 55.9525 70.8909L55.9437 70.8996L33.3995 92.0858L33.3812 92.101C32.2641 93.0319 30.5765 93.0341 29.4591 91.9166L29.4505 91.908L1.48181 62.1743L1.46648 62.1559C0.535555 61.0388 0.533402 59.3512 1.65083 58.2338L1.65929 58.2254L18.2009 42.6487ZM18.7836 44.2888L2.77011 59.3682C2.27261 59.873 2.26724 60.6116 2.67722 61.1194L30.5936 90.7975C31.0984 91.2949 31.8371 91.3002 32.3448 90.8902L54.8335 69.7562C55.3296 69.2525 55.3359 68.5163 54.9288 68.0087L33.0519 45.3265L18.7836 44.2888Z" fill="#DCDEE9"/>
<path d="M18.4916 43.3331L24.5959 49.7086C25.4098 50.5225 26.9019 50.5225 27.8515 49.7086L33.4131 44.4183" fill="#DCDEE9"/>
<path fill-rule="evenodd" clip-rule="evenodd" d="M20.3915 61.7816C20.2559 62.1886 20.1202 62.5955 20.1202 63.0024L21.6124 63.2737C21.8837 63.4094 22.2906 63.4094 22.4263 63.1381C22.5619 63.0024 22.6976 62.8668 22.6976 62.7311C22.6976 62.5955 22.6976 62.3242 22.8332 62.0529C22.9689 61.646 23.1045 61.3747 23.2402 61.1034L23.2402 61.1033C23.3758 60.9677 23.5115 60.7981 23.6471 60.6286C23.7828 60.459 23.9184 60.2894 24.0541 60.1538C24.3254 59.8825 24.5967 59.7468 24.868 59.6112C25.1393 59.4755 25.4106 59.3399 25.6819 59.3399C25.9532 59.3399 26.2245 59.3399 26.4958 59.4755C26.7671 59.6112 27.0384 59.7468 27.174 60.0181C27.4453 60.4251 27.7166 60.832 27.8523 61.239C27.9879 61.6459 27.9879 62.0529 27.9879 62.4598C27.9879 62.8668 27.9879 63.2737 27.8523 63.6807C27.8523 63.8842 27.8184 64.0876 27.7845 64.2911C27.7506 64.4946 27.7166 64.6981 27.7166 64.9015C27.7166 65.3085 27.7166 65.5798 27.8523 65.9867C27.9879 66.3937 28.2592 66.665 28.5305 66.9363L30.1583 68.4285L31.7862 66.9363L30.701 65.3085C30.4297 65.0372 30.4297 64.7659 30.4297 64.4946C30.4297 64.2911 30.4636 64.1216 30.4975 63.952C30.5314 63.7824 30.5653 63.6129 30.5653 63.4094C30.6331 63.2059 30.667 63.0024 30.701 62.799C30.7349 62.5955 30.7688 62.392 30.8366 62.1885V60.832L30.8366 60.832C30.7009 60.2894 30.5653 59.7468 30.4297 59.3399C30.294 58.7973 29.8871 58.2547 29.4801 57.8477C28.9375 57.4408 28.3949 57.0338 27.8523 56.7625C27.3097 56.6269 26.6314 56.4912 26.0888 56.4912C25.5462 56.4912 24.868 56.6269 24.3254 56.8982C23.6471 57.1695 23.1045 57.5764 22.5619 58.119C22.155 58.526 21.748 58.9329 21.4767 59.3399C21.2054 59.7468 20.9341 60.1538 20.7985 60.5607L20.3915 61.7816L20.3915 61.7816ZM33.0069 72.4979C33.1425 72.7692 33.2782 73.0405 33.4138 73.1762C33.5495 73.4475 33.8208 73.5831 34.3634 73.7188C34.7703 73.8544 35.3129 73.8544 35.8555 73.7188C36.1268 73.7188 36.3981 73.4475 36.5338 73.3118C36.8051 73.0405 36.9407 72.9049 37.0764 72.6336C37.0764 72.4979 37.1103 72.3623 37.1442 72.2266C37.1781 72.091 37.212 71.9553 37.212 71.8197C37.212 71.5484 37.212 71.2771 37.0764 71.0058C36.6694 70.1919 35.8555 69.6493 35.0416 69.6493C34.7703 69.6493 34.499 69.6493 34.2277 69.7849C33.9564 69.9206 33.6851 70.0562 33.5495 70.1919C33.1425 70.5988 32.8712 71.1414 32.8712 71.684C32.8712 71.9553 32.8712 72.2266 33.0069 72.4979Z" fill="#DCDEE9"/>
<path opacity="0.1" d="M122.357 66.1587V114.857C122.357 117.841 119.915 120.283 116.931 120.283H39.7458C36.7615 120.283 34.3198 117.841 34.3198 114.857V77.282H65.9263C69.0463 77.282 72.1662 76.1968 74.4723 74.1621L83.0182 67.1083C85.4599 65.2092 88.4442 63.9883 91.5642 63.9883H121.95C122.221 64.6666 122.357 65.3448 122.357 66.1587Z" fill="#DCDEE9"/>
<path d="M153.692 108.346L125.748 123.539C124.799 124.081 123.578 123.674 123.171 122.725L109.063 95.4592C108.656 94.5096 108.928 93.2888 109.877 92.8818L146.231 73.6195C147.181 73.0769 148.402 73.4838 148.809 74.4334L158.982 94.2383L153.692 108.346Z" fill="white"/>
<path fill-rule="evenodd" clip-rule="evenodd" d="M148.077 74.7472C147.865 74.2533 147.181 73.995 146.627 74.3112L146.616 74.3175L110.222 93.6012L110.191 93.6141C109.785 93.7884 109.505 94.4368 109.786 95.1212L123.892 122.384L123.904 122.411C124.115 122.905 124.8 123.163 125.353 122.847L125.361 122.843L153.051 107.788L158.113 94.2887L148.088 74.7727L148.077 74.7472ZM149.529 74.0917C148.918 72.7112 147.184 72.1671 145.849 72.9208L109.531 92.1638C108.072 92.8134 107.818 94.576 108.331 95.773L108.343 95.7996L122.452 123.068C123.064 124.449 124.801 124.992 126.136 124.235L154.334 108.904L159.853 94.1879L149.529 74.0917Z" fill="#DCDEE9"/>
<path d="M158.982 94.3739L151.114 98.4435C150.165 98.9861 149.622 100.478 150.165 101.563L153.692 108.482" fill="#DCDEE9"/>
<path fill-rule="evenodd" clip-rule="evenodd" d="M140.195 90.9827C139.992 90.881 139.788 90.7793 139.585 90.7114L138.906 92.4749C138.771 92.7462 138.771 93.1531 138.906 93.2888C138.997 93.4696 139.087 93.5299 139.178 93.5902C139.223 93.6204 139.268 93.6505 139.313 93.6957C139.313 93.7771 139.46 93.8585 139.606 93.9399C139.704 93.9942 139.802 94.0484 139.856 94.1027C140.127 94.1027 140.534 94.5096 140.67 94.6453C140.801 94.9076 140.964 95.1065 141.112 95.2879C141.271 95.4819 141.414 95.6559 141.484 95.8661C141.654 96.1216 141.718 96.3236 141.775 96.5057C141.809 96.6137 141.84 96.7147 141.891 96.8157C141.891 96.9632 141.909 97.0929 141.925 97.2113C141.953 97.4194 141.977 97.5923 141.891 97.7652C141.755 98.3078 141.348 98.8504 140.806 99.1217C140.399 99.393 139.856 99.5287 139.449 99.5287C139.042 99.5287 138.635 99.393 138.228 99.2574C138.025 99.1896 137.821 99.0878 137.618 98.9861C137.414 98.8843 137.211 98.7826 137.007 98.7148C136.925 98.6737 136.831 98.6202 136.727 98.5618C136.49 98.4273 136.206 98.2668 135.922 98.1722C135.515 97.9009 135.108 97.9009 134.701 97.9009C134.294 97.9009 133.887 97.9009 133.616 98.1722L131.717 99.393L132.802 101.428L134.701 100.75C134.973 100.478 135.38 100.478 135.651 100.614C135.787 100.682 135.956 100.75 136.126 100.817C136.295 100.885 136.465 100.953 136.6 101.021L137.821 101.563L137.821 101.563C138.228 101.699 138.635 101.835 139.178 101.97C139.72 102.106 140.263 102.106 140.806 101.97C141.484 101.97 142.026 101.699 142.569 101.428C142.617 101.396 142.669 101.362 142.724 101.326C143.132 101.059 143.702 100.685 144.061 100.207C144.212 99.9801 144.322 99.6689 144.435 99.344C144.526 99.086 144.619 98.8193 144.739 98.5791C144.739 98.3531 144.755 98.127 144.77 97.9009C144.8 97.4487 144.83 96.9966 144.739 96.5444C144.729 96.4928 144.719 96.4405 144.708 96.3875C144.582 95.7439 144.437 95.011 144.061 94.5096C143.987 94.3978 143.912 94.2756 143.835 94.1489C143.63 93.8146 143.407 93.4482 143.112 93.1531L142.026 92.0679C141.619 91.661 141.213 91.3897 140.806 91.254C140.602 91.1862 140.399 91.0845 140.195 90.9827ZM126.969 100.614C126.698 100.478 126.427 100.614 126.155 100.75C126.02 100.885 125.749 101.021 125.477 101.157C125.477 101.292 125.342 101.564 125.206 101.835C125.206 101.925 125.191 102.016 125.176 102.106C125.146 102.287 125.115 102.468 125.206 102.649V103.598C125.477 104.005 125.884 104.277 126.427 104.548H127.241C127.512 104.548 127.783 104.548 128.055 104.412C128.462 104.141 129.004 103.734 129.14 103.191V102.377C129.14 102.106 129.14 101.835 129.004 101.564C128.733 101.157 128.326 100.885 127.783 100.614C127.693 100.614 127.602 100.599 127.512 100.584C127.331 100.554 127.15 100.524 126.969 100.614Z" fill="#DCDEE9"/>
<path fill-rule="evenodd" clip-rule="evenodd" d="M33.3709 88.838C34.031 88.838 34.5661 89.3731 34.5661 90.0332V115.942C34.5661 118.286 36.4915 120.309 38.9326 120.309H118.288C120.631 120.309 122.654 118.383 122.654 115.942V91.9323C122.654 91.2722 123.189 90.7371 123.85 90.7371C124.51 90.7371 125.045 91.2722 125.045 91.9323V115.942C125.045 119.741 121.913 122.699 118.288 122.699H38.9326C35.1337 122.699 32.1758 119.568 32.1758 115.942V90.0332C32.1758 89.3731 32.7109 88.838 33.3709 88.838Z" fill="#DCDEE9"/>
<path d="M120.729 76.6038H93.5991C91.0217 76.6038 88.4443 77.5534 86.4096 79.1812L79.2201 85.0141C77.1854 86.6419 74.608 87.5915 72.0307 87.5915H41.1025C37.9825 87.5915 35.4052 90.0332 35.4052 93.1531C35.4052 93.4244 35.4052 93.6957 35.5408 93.967L41.1025 123.674C41.5094 126.523 43.9511 128.558 46.7998 128.558H112.726C115.574 128.558 117.88 126.523 118.423 123.81L126.291 83.115C126.698 80.1307 124.799 77.1464 121.543 76.7395C121.272 76.6038 121 76.6038 120.729 76.6038Z" fill="white"/>
<path d="M105.397 84.3275L52.6447 96.8468C50.396 97.3805 48.1432 95.9929 47.6076 93.7359L30.4368 21.3834C29.904 19.1383 31.293 16.8864 33.5417 16.3527L86.2942 3.8334C88.5441 3.29946 90.7969 4.68706 91.3297 6.93219L108.501 79.2847C109.036 81.5417 107.647 83.7936 105.397 84.3275Z" fill="#F3F3F7"/>
<path fill-rule="evenodd" clip-rule="evenodd" d="M33.8886 15.6969C32.0673 16.1291 30.9439 17.9521 31.3749 19.7684L48.5457 92.1209C48.9799 93.9504 50.8038 95.0724 52.6236 94.6405L105.376 82.1212C107.197 81.689 108.322 79.8671 107.888 78.0377L90.7173 5.68511C90.2863 3.869 88.4637 2.74503 86.6411 3.17757L33.8886 15.6969ZM29.8244 20.1363C29.1898 17.4623 30.8445 14.7815 33.5206 14.1464L86.2731 1.62711C88.9502 0.991771 91.6331 2.64299 92.2678 5.31716L109.439 77.6697C110.076 80.3542 108.423 83.036 105.744 83.6717L52.9916 96.191C50.314 96.8264 47.6323 95.1732 46.9953 92.4889L29.8244 20.1363Z" fill="#DCDEE9"/>
<path d="M81.4059 68.0083L67.6952 71.2621C66.1697 71.6242 64.6428 70.6759 64.281 69.1516C63.9193 67.6272 64.8601 66.1058 66.3856 65.7438L80.0963 62.49C81.623 62.1276 83.1459 63.0643 83.5077 64.5887C83.8694 66.113 82.9326 67.646 81.4059 68.0083Z" fill="#DCDEE9"/>
<path d="M89.1157 72.482L62.792 78.7292C61.9897 78.9196 61.1954 78.434 61.0047 77.6305C60.814 76.827 61.3026 76.0245 62.105 75.8341L88.4286 69.5869C89.231 69.3965 90.028 69.8939 90.2187 70.6974C90.401 71.4655 89.918 72.2916 89.1157 72.482Z" fill="#DCDEE9"/>
<path d="M84.8766 33.6357C86.161 39.0476 84.9274 44.458 81.9344 48.6508C79.4281 52.1539 75.6735 54.805 71.1478 55.879C66.6221 56.9531 62.0767 56.2718 58.254 54.2333C53.699 51.8443 50.163 47.5533 48.8814 42.1531C46.523 32.2155 52.6705 22.2438 62.6058 19.8859C72.54 17.5283 82.5182 23.698 84.8766 33.6357Z" fill="#DCDEE9"/>
<path d="M81.8107 47.1841C79.3044 50.6872 75.5498 53.3382 71.0241 54.4123C66.4984 55.4863 61.953 54.8051 58.1303 52.7665C59.3225 51.9468 60.8789 50.8785 62.9576 49.3866C63.4424 49.0469 63.7488 48.5498 63.8693 47.9845C63.9339 47.6571 63.9169 47.349 63.8412 47.03L62.8176 42.717C62.7177 42.6533 62.6392 42.5596 62.5681 42.5016C62.0589 42.0233 61.6664 41.4424 61.4262 40.7879L61.0067 40.6878C59.9735 41.2201 59.7734 40.0193 58.9367 37.8089C58.6089 36.9006 58.6975 36.6798 59.09 36.4244L59.3224 35.8575C56.0359 31.5448 56.3898 28.2654 58.2497 26.6881C57.192 25.329 57.003 24.7747 57.003 24.7747C57.003 24.7747 61.6822 24.4631 63.1376 23.8056C64.9979 22.9397 68.1379 22.7063 69.8798 25.039C71.925 25.315 72.9342 26.3487 73.3922 27.5631C73.8333 28.7066 73.7916 30.077 73.6785 31.1524C73.6682 31.2297 73.6562 31.295 73.6402 31.3487C73.6487 31.3841 73.6271 31.4142 73.6327 31.4378C73.6132 31.5923 73.6112 31.7051 73.5833 31.824C73.5673 31.8777 73.5814 31.9368 73.5666 31.9903C73.5646 32.1031 73.5367 32.222 73.5292 32.3112C73.5376 32.3466 73.5376 32.3466 73.516 32.3767C73.5096 32.4656 73.4993 32.543 73.4917 32.6321C73.491 32.7446 73.4834 32.8338 73.4759 32.923C73.5087 32.9402 73.5227 32.9992 73.5555 33.0164C73.8806 33.0766 74.0526 33.3228 74.1414 34.1755C74.3891 36.4134 74.7808 37.706 73.5869 37.6773L73.0021 39.6259C73.0198 39.8214 73.019 39.934 73.0171 40.0468C73.0656 40.3723 73.2171 41.0104 74.0584 44.5553C74.1593 44.9807 74.3894 45.3505 74.6846 45.6424C75.0154 45.9633 75.4397 46.1997 75.9123 46.2872C75.9123 46.2872 75.9395 46.2808 75.9451 46.3044C78.5097 46.7442 80.3785 46.9872 81.8107 47.1841Z" fill="white"/>
<path fill-rule="evenodd" clip-rule="evenodd" d="M56.0108 24.5346L56.3459 25.5177L57.1 25.2606C56.3459 25.5177 56.3458 25.5173 56.3459 25.5177L56.3464 25.5191L56.3469 25.5206L56.348 25.5237L56.3504 25.5304L56.3561 25.5462C56.3604 25.5577 56.3657 25.5712 56.372 25.5868C56.3847 25.618 56.4017 25.6576 56.4244 25.706C56.4697 25.8028 56.5376 25.9356 56.638 26.1083C56.7806 26.3533 56.9899 26.6807 57.2951 27.1015C56.4984 28.0382 56.0722 29.2982 56.1577 30.7788C56.2536 32.4396 56.9877 34.3512 58.4956 36.4357C58.2988 36.6111 58.109 36.8635 58.0524 37.239C57.9887 37.6614 58.1233 38.1191 58.2843 38.5653L58.2864 38.571L58.2886 38.5768C58.4197 38.9233 58.5309 39.2331 58.6352 39.524C58.6973 39.697 58.7569 39.8634 58.817 40.0268C58.9689 40.4401 59.1232 40.8346 59.2988 41.1501C59.4665 41.4515 59.7271 41.8199 60.1611 41.997C60.4499 42.1148 60.7337 42.1172 60.9945 42.0586C61.2759 42.6266 61.6583 43.1349 62.1196 43.5682L62.14 43.5874L62.159 43.6029C62.1604 43.6041 62.1644 43.6077 62.1719 43.6149L62.1969 43.6388C62.1979 43.6398 62.1989 43.6407 62.1999 43.6417L63.163 47.6998C63.2161 47.9238 63.2236 48.1138 63.1857 48.3103C63.1029 48.6923 62.9023 49.0063 62.5973 49.22L62.59 49.2252C60.5697 50.6751 59.0449 51.7234 57.8653 52.5344L56.6956 53.3385L57.8524 53.9554C61.8422 56.083 66.5859 56.7933 71.3051 55.6734C76.0239 54.5535 79.941 51.7882 82.5557 48.1336L83.3236 47.0603L82.0162 46.8806C81.8498 46.8577 81.6777 46.8343 81.4996 46.81C80.1671 46.6283 78.4953 46.4003 76.3049 46.0269C76.2522 46.0074 76.2039 45.9957 76.164 45.9885C76.1453 45.9852 76.1272 45.9826 76.1099 45.9807C75.8238 45.9183 75.5562 45.7688 75.3391 45.559C75.1357 45.357 74.9921 45.1162 74.9306 44.8572C74.1365 41.5111 73.9649 40.7845 73.9117 40.4744C73.9123 40.3963 73.9112 40.3094 73.9047 40.1994L74.3031 38.8718C74.5296 38.796 74.7437 38.6648 74.92 38.4542C75.2225 38.0928 75.2862 37.6392 75.298 37.2893C75.3105 36.9211 75.2679 36.4952 75.2151 36.0606C75.1942 35.8883 75.1717 35.7152 75.1485 35.5367C75.1098 35.2384 75.0692 34.9251 75.0306 34.5762C74.9845 34.1349 74.9085 33.7275 74.7353 33.4064C74.655 33.2574 74.549 33.1174 74.4095 33.0006C74.4104 32.9967 74.4112 32.9927 74.412 32.9887C74.4255 32.9213 74.429 32.8603 74.428 32.8093C74.4296 32.7992 74.4313 32.7879 74.4351 32.7626C74.442 32.7161 74.452 32.6459 74.4571 32.5653C74.4611 32.5376 74.4634 32.5132 74.4648 32.4931C74.4663 32.4736 74.4671 32.4546 74.4675 32.4391C74.4854 32.3511 74.4945 32.2727 74.5007 32.2116C74.5039 32.1811 74.5062 32.1567 74.5083 32.1348C74.512 32.0962 74.5149 32.0657 74.5202 32.0237L74.522 32.0088C74.5253 31.9903 74.5287 31.9679 74.5313 31.9427C74.5467 31.8719 74.5572 31.8039 74.5653 31.7439L74.5668 31.7327L74.5679 31.7215C74.683 30.6263 74.7458 29.0952 74.2336 27.7651C73.9615 27.0446 73.5162 26.356 72.8209 25.8088C72.1926 25.3145 71.3944 24.9625 70.4068 24.7859C69.3947 23.5896 68.0472 23.0492 66.7304 22.916C65.3392 22.7752 63.9479 23.0817 62.9031 23.567C62.6313 23.689 62.1479 23.8175 61.5141 23.9374C60.8958 24.0543 60.1943 24.1524 59.5279 24.2313C58.863 24.3101 58.2416 24.3687 57.786 24.4077C57.5584 24.4272 57.3727 24.4417 57.2444 24.4514C57.1802 24.4562 57.1304 24.4597 57.0969 24.4621L57.059 24.4647L56.0108 24.5346ZM59.7153 25.8138C59.253 25.8685 58.8123 25.9138 58.431 25.9497C58.5764 26.1578 58.7555 26.4019 58.9755 26.6847L59.4447 27.2876L58.8621 27.7817C58.1385 28.3953 57.6719 29.3595 57.7486 30.687C57.8265 32.0351 58.471 33.7843 60.0532 35.8605L60.3297 36.2234L59.8299 37.4425L59.6432 37.564C59.6436 37.5657 59.6439 37.5674 59.6443 37.5691C59.6648 37.6679 59.7062 37.8105 59.7811 38.0186C59.9145 38.3712 60.0363 38.7104 60.1443 39.0112C60.2049 39.18 60.2611 39.3368 60.3127 39.4771C60.4659 39.894 60.5831 40.1809 60.6912 40.3753C60.7112 40.4111 60.7287 40.4399 60.7437 40.4628L61.0015 40.33L62.1239 40.5981L62.2712 40.9993C62.4643 41.5257 62.7799 41.998 63.1954 42.3924C63.2251 42.4179 63.2504 42.4415 63.2682 42.4584L63.301 42.4898L63.3255 42.5132C63.3391 42.526 63.3469 42.5328 63.3502 42.5356L63.6152 42.7043L64.7134 47.3319C64.8112 47.7438 64.838 48.1683 64.748 48.6246L64.7468 48.6305L64.7455 48.6364C64.5869 49.3808 64.1765 50.0576 63.5158 50.5222C62.0326 51.5866 60.8143 52.4363 59.8054 53.1331C63.1932 54.6197 67.0711 55.0404 70.9371 54.1229C74.7975 53.2067 78.07 51.093 80.4337 48.2723C79.2181 48.1041 77.7384 47.8896 75.9074 47.5755L75.3885 47.4865L75.3733 47.4225C74.9344 47.2627 74.5452 47.009 74.2268 46.7001L74.2213 46.6948C73.8358 46.3136 73.5203 45.8158 73.3801 45.2252L73.3111 44.9341C72.5375 41.6746 72.3797 41.0095 72.3261 40.6501L72.3163 40.5849L72.3175 40.5189C72.3191 40.4233 72.3199 40.3412 72.3056 40.1836L72.2917 40.0303L73.0955 37.352L73.6957 37.3664C73.6998 37.3333 73.7036 37.2902 73.7054 37.2352C73.7133 37.0041 73.6862 36.6891 73.6332 36.2528C73.6154 36.106 73.5943 35.9434 73.5718 35.7694C73.5314 35.4573 73.4863 35.1087 73.4464 34.7491L73.4459 34.7439C73.4257 34.5506 73.4028 34.4109 73.3793 34.3106C73.3739 34.2875 73.3687 34.2676 73.3639 34.2506L73.2826 34.208C73.2058 34.1677 73.1461 34.1213 73.102 34.0808C73.0867 34.0667 73.0727 34.0529 73.0601 34.0397L72.7343 33.8689L72.779 33.3416C72.7865 33.2527 72.7915 33.1911 72.792 33.1126L72.7922 33.0817L72.7948 33.0508C72.802 32.9661 72.8059 32.9332 72.809 32.9066C72.812 32.8808 72.8143 32.8609 72.8183 32.8057L72.8344 32.5812L72.8553 32.552L72.8589 32.5284C72.8623 32.5055 72.8644 32.4897 72.8657 32.4774C72.8668 32.4669 72.8669 32.4623 72.867 32.4621L72.8687 32.3613L72.876 32.3349C72.8766 32.3199 72.8775 32.3028 72.879 32.2848C72.8825 32.2434 72.8895 32.1865 72.9061 32.121C72.9083 32.1099 72.9113 32.0902 72.9156 32.0486C72.9166 32.0388 72.9178 32.0256 72.9193 32.0101C72.9224 31.9777 72.9265 31.9348 72.9315 31.8898L72.9129 31.8115L72.973 31.6092C72.9731 31.6088 72.9733 31.6082 72.9735 31.6072C72.974 31.6049 72.9749 31.6009 72.9761 31.5949C72.9784 31.5828 72.9812 31.566 72.9844 31.5429C73.0941 30.4911 73.1133 29.2883 72.7458 28.3357L72.7436 28.3301C72.5577 27.8372 72.2697 27.4028 71.8355 27.0612C71.4006 26.7189 70.7771 26.4368 69.8703 26.3144L69.5386 26.2697L69.3384 26.0016C68.6274 25.0493 67.631 24.6088 66.5699 24.5014C65.4926 24.3924 64.3858 24.6345 63.5709 25.0138L63.5627 25.0176C63.1061 25.2239 62.4602 25.3802 61.8102 25.5031C61.1418 25.6295 60.4005 25.7326 59.7153 25.8138ZM72.8526 32.9881C72.8527 32.9886 72.8522 32.9867 72.8514 32.9831L72.8526 32.9881Z" fill="#DCDEE9"/>
<path d="M129.091 71.1777H96.5348C93.4148 71.1777 90.2949 72.263 87.9888 74.2977L79.4428 81.2159C77.0011 83.2506 74.0168 84.3358 70.8969 84.3358H33.8644C30.2019 84.3358 27.0819 87.3201 27.0819 91.1183C27.0819 91.3896 27.0819 91.7966 27.2176 92.0679L34.0001 128.015C34.5427 131.406 37.3913 133.984 40.7826 133.984H119.46C122.851 133.984 125.7 131.542 126.242 128.286L135.602 79.0455C136.145 75.3829 133.839 71.856 130.04 71.3134C129.769 71.1777 129.362 71.1777 129.091 71.1777Z" fill="white"/>
<path d="M93.6872 108.346C95.5863 108.346 97.2141 106.718 97.2141 104.819C97.2141 102.92 95.5863 101.292 93.6872 101.292C91.7881 101.292 90.1603 102.92 90.1603 104.819C90.1603 106.854 91.6525 108.346 93.6872 108.346Z" fill="#DCDEE9"/>
<path d="M87.4466 114.314H85.6831C84.191 111.059 80.2571 109.838 77.1372 111.466C75.9163 112.008 74.8311 113.094 74.2885 114.314H72.5251C74.0172 110.109 78.9006 107.939 82.9701 109.567C84.8692 110.381 86.6327 112.008 87.4466 114.314Z" fill="#DCDEE9"/>
<path fill-rule="evenodd" clip-rule="evenodd" d="M137.616 145.628C137.789 145.652 137.966 145.65 138.18 145.65C140.622 145.65 141.843 142.665 140.215 140.902L128.82 129.507C136.959 117.57 128.413 101.835 114.306 101.835C104.539 101.835 96.6712 109.702 96.6712 119.469C96.6712 133.848 112.949 142.394 124.886 133.577C135.488 144.179 136.474 145.472 137.616 145.628ZM102.232 119.469C102.232 112.822 107.658 107.396 114.305 107.396C120.952 107.396 126.378 112.822 126.242 119.469C126.242 120.012 126.242 120.554 126.107 121.097C126.107 121.775 125.971 122.454 125.7 123.132C125.609 123.584 125.398 124.036 125.187 124.488C125.082 124.714 124.976 124.941 124.886 125.167C124.682 125.438 124.479 125.743 124.276 126.048C124.072 126.354 123.869 126.659 123.665 126.93C123.258 127.473 122.851 128.015 122.309 128.422C121.766 128.965 121.088 129.507 120.41 129.914C119.867 130.321 119.189 130.593 118.51 130.864C117.832 131.135 117.154 131.271 116.476 131.406C115.797 131.542 114.984 131.542 114.305 131.542H114.305C107.658 131.542 102.232 126.116 102.232 119.469Z" fill="#DCDEE9"/>
<path d="M137.616 145.628L137.752 144.638L137.616 145.628ZM140.215 140.902L140.95 140.224L140.936 140.209L140.922 140.195L140.215 140.902ZM128.82 129.507L127.994 128.944L127.527 129.629L128.113 130.214L128.82 129.507ZM124.886 133.577L125.594 132.87L124.985 132.261L124.292 132.773L124.886 133.577ZM126.242 119.469L125.243 119.449L125.242 119.459V119.469H126.242ZM126.107 121.097L125.137 120.855L125.107 120.974V121.097H126.107ZM125.7 123.132L124.771 122.76L124.737 122.846L124.719 122.936L125.7 123.132ZM125.187 124.488L126.094 124.911V124.911L125.187 124.488ZM124.886 125.167L125.686 125.767L125.765 125.661L125.814 125.538L124.886 125.167ZM123.665 126.93L122.865 126.33H122.865L123.665 126.93ZM122.309 128.422L121.709 127.622L121.652 127.665L121.602 127.715L122.309 128.422ZM120.41 129.914L119.895 129.057L119.851 129.083L119.81 129.114L120.41 129.914ZM118.51 130.864L118.139 129.935L118.51 130.864ZM116.476 131.406L116.28 130.426H116.28L116.476 131.406ZM138.18 144.65C137.937 144.65 137.841 144.65 137.752 144.638L137.48 146.619C137.737 146.654 137.995 146.65 138.18 146.65V144.65ZM139.48 141.58C140.549 142.738 139.703 144.65 138.18 144.65V146.65C141.541 146.65 143.137 142.593 140.95 140.224L139.48 141.58ZM128.113 130.214L139.508 141.609L140.922 140.195L129.527 128.8L128.113 130.214ZM114.306 102.835C127.616 102.835 135.677 117.676 127.994 128.944L129.647 130.071C138.242 117.465 129.211 100.835 114.306 100.835V102.835ZM97.6712 119.469C97.6712 110.255 105.091 102.835 114.306 102.835V100.835C103.987 100.835 95.6712 109.15 95.6712 119.469H97.6712ZM124.292 132.773C113.024 141.096 97.6712 133.038 97.6712 119.469H95.6712C95.6712 134.658 112.875 143.692 125.481 134.381L124.292 132.773ZM137.752 144.638C137.682 144.628 137.561 144.609 137.23 144.365C136.872 144.101 136.354 143.638 135.496 142.803C133.787 141.14 130.91 138.186 125.594 132.87L124.179 134.284C129.465 139.569 132.382 142.563 134.101 144.236C134.958 145.069 135.563 145.621 136.043 145.975C136.549 146.349 136.98 146.55 137.48 146.619L137.752 144.638ZM114.305 106.396C107.106 106.396 101.232 112.27 101.232 119.469H103.232C103.232 113.375 108.211 108.396 114.305 108.396V106.396ZM127.242 119.49C127.39 112.271 121.5 106.396 114.305 106.396V108.396C120.404 108.396 125.367 113.374 125.243 119.449L127.242 119.49ZM127.077 121.34C127.247 120.659 127.242 119.993 127.242 119.469H125.242C125.242 120.03 125.238 120.45 125.137 120.855L127.077 121.34ZM126.628 123.503C126.943 122.716 127.107 121.912 127.107 121.097H125.107C125.107 121.639 124.999 122.191 124.771 122.76L126.628 123.503ZM126.094 124.911C126.293 124.484 126.562 123.92 126.68 123.328L124.719 122.936C124.657 123.248 124.504 123.588 124.281 124.065L126.094 124.911ZM125.814 125.538C125.893 125.342 125.986 125.142 126.094 124.911L124.281 124.065C124.178 124.287 124.06 124.539 123.957 124.795L125.814 125.538ZM125.108 126.603C125.315 126.293 125.502 126.012 125.686 125.767L124.086 124.567C123.863 124.864 123.644 125.194 123.444 125.494L125.108 126.603ZM124.465 127.53C124.688 127.232 124.908 126.903 125.108 126.603L123.444 125.494C123.237 125.804 123.049 126.085 122.865 126.33L124.465 127.53ZM122.909 129.222C123.585 128.715 124.073 128.053 124.465 127.53L122.865 126.33C122.443 126.893 122.118 127.315 121.709 127.622L122.909 129.222ZM120.924 130.772C121.678 130.319 122.421 129.724 123.016 129.129L121.602 127.715C121.112 128.205 120.497 128.696 119.895 129.057L120.924 130.772ZM118.882 131.792C119.532 131.532 120.342 131.215 121.01 130.714L119.81 129.114C119.392 129.427 118.846 129.653 118.139 129.935L118.882 131.792ZM116.672 132.387C117.338 132.254 118.105 132.103 118.882 131.792L118.139 129.935C117.559 130.167 116.969 130.288 116.28 130.426L116.672 132.387ZM114.305 132.542C114.959 132.542 115.878 132.546 116.672 132.387L116.28 130.426C115.717 130.538 115.008 130.542 114.305 130.542V132.542ZM114.305 132.542H114.305V130.542H114.305V132.542ZM101.232 119.469C101.232 126.668 107.106 132.542 114.305 132.542V130.542C108.211 130.542 103.232 125.564 103.232 119.469H101.232Z" fill="#DCDEE9"/>
<path d="M66.5566 108.346C68.4557 108.346 70.0835 106.718 70.0835 104.819C70.0835 102.92 68.4557 101.292 66.5566 101.292C64.6575 101.292 63.0297 102.92 63.0297 104.819C63.1653 106.854 64.6575 108.346 66.5566 108.346Z" fill="#DCDEE9"/>
<path fill-rule="evenodd" clip-rule="evenodd" d="M130.262 70.5411C134.478 71.2039 136.986 75.1442 136.39 79.1623L136.388 79.1783L127.027 128.426C126.416 132.063 123.236 134.781 119.46 134.781H40.7828C36.9767 134.781 33.8199 131.897 33.2154 128.152L26.4519 92.3058C26.3602 92.0786 26.3239 91.848 26.3063 91.6724C26.2854 91.4629 26.2854 91.2601 26.2854 91.1285L26.2854 91.1184C26.2854 86.8698 29.7725 83.5391 33.8647 83.5391H70.8972C73.8281 83.5391 76.6325 82.521 78.933 80.6038L78.9374 80.6002L87.4748 73.689C89.938 71.5217 93.2447 70.381 96.535 70.381L129.101 70.381C129.233 70.381 129.436 70.381 129.645 70.402C129.816 70.4191 130.04 70.4541 130.262 70.5411ZM129.487 71.9876C129.362 71.9751 129.231 71.9746 129.091 71.9746H96.535C93.5912 71.9746 90.6638 73.0003 88.5162 74.8952L88.5035 74.9064L79.9532 81.828C79.9517 81.8292 79.9502 81.8304 79.9488 81.8317C77.3667 83.9817 74.2043 85.1326 70.8972 85.1326H33.8647C30.6318 85.1326 27.8789 87.7705 27.8789 91.1184C27.8789 91.2585 27.8795 91.3897 27.8919 91.5139C27.8979 91.5739 27.9059 91.6223 27.9147 91.6596C27.923 91.6945 27.9298 91.71 27.9304 91.7115C27.9305 91.7116 27.9305 91.7117 27.9304 91.7115L27.9802 91.811L34.7853 127.878L34.7871 127.889C35.2722 130.922 37.8102 133.187 40.7828 133.187H119.46C122.463 133.187 124.978 131.025 125.456 128.156L125.458 128.147L134.816 78.9131C135.292 75.6464 133.238 72.5751 129.928 72.1022L129.8 72.0839L129.684 72.0261C129.686 72.0267 129.671 72.0194 129.632 72.0103C129.595 72.0015 129.547 71.9936 129.487 71.9876Z" fill="#DCDEE9"/>
</svg>
