<svg width="48" height="49" viewBox="0 0 48 49" fill="none" xmlns="http://www.w3.org/2000/svg">
<path fill-rule="evenodd" clip-rule="evenodd" d="M43.0299 9.09052C43.6322 8.52171 43.6593 7.57235 43.0905 6.97007C42.5217 6.36779 41.5723 6.34067 40.9701 6.90948L35.4168 12.1542C31.97 9.78566 28.082 8.5 24.0654 8.5C16.8267 8.5 10.0801 12.6481 5.38417 19.8276C3.53861 22.6396 3.53861 27.3661 5.38417 30.1781C6.82369 32.3755 8.4737 34.3052 10.2623 35.9113L4.97007 40.9095C4.36779 41.4783 4.34067 42.4277 4.90948 43.0299C5.4783 43.6322 6.42766 43.6593 7.02994 43.0905L43.0299 9.09052ZM12.4517 33.8435L17.233 29.3279C17.1869 29.2338 17.1413 29.1414 17.0964 29.0505L17.0962 29.0501L17.0962 29.0499C16.4853 27.8122 16 26.8288 16 24.9899C16 20.2954 19.5722 16.5 23.9907 16.5C25.8495 16.5 27.5522 17.1729 28.9077 18.3017L33.1781 14.2686C30.3312 12.4467 27.2217 11.5 24.0654 11.5C18.0597 11.5 12.1693 14.9346 7.89482 21.4698L7.89223 21.4737C7.36527 22.2766 7 23.5499 7 25.0028C7 26.4558 7.36527 27.7291 7.89223 28.532L7.89365 28.5341C9.2511 30.6063 10.799 32.3914 12.4517 33.8435ZM27.0173 20.0871C26.1476 19.4769 25.1114 19.1249 23.9907 19.1249C20.9367 19.1249 18.4706 21.7451 18.4706 24.9899C18.4706 26.0795 18.6521 26.5212 19.14 27.5268L27.0173 20.0871ZM19.3594 36.9887C18.8198 36.855 18.2437 36.9832 17.8359 37.3609C16.9869 38.147 17.2585 39.5418 18.3779 39.8344C20.0449 40.2702 21.763 40.5 23.5002 40.5C30.8956 40.5 37.7883 36.4546 42.5859 29.453C44.4714 26.7107 44.4714 22.1013 42.5859 19.359C42.1938 18.7854 41.7814 18.2306 41.3565 17.6946C40.8292 17.0292 39.8489 16.978 39.226 17.5548C38.6326 18.1042 38.5846 19.0219 39.0842 19.6578C39.4414 20.1125 39.7846 20.5772 40.1092 21.052L40.1138 21.0587C40.6367 21.8193 41 23.0255 41 24.406C41 25.7865 40.6367 26.9927 40.1138 27.7533L40.1111 27.7573C35.7632 34.1025 29.7268 37.5 23.5002 37.5C22.1052 37.5 20.7173 37.3251 19.3594 36.9887ZM30.9083 24.5223C31.6324 24.6559 32.1112 25.3511 31.9777 26.0753C31.3857 29.2855 28.7855 31.8857 25.5753 32.4777C24.8511 32.6112 24.1559 32.1324 24.0223 31.4083C23.8888 30.6842 24.3676 29.9889 25.0917 29.8554C27.2145 29.4639 28.9639 27.7145 29.3554 25.5917C29.4889 24.8676 30.1842 24.3888 30.9083 24.5223Z" fill="currentColor"/>
</svg>
