<svg width="32" height="32" viewBox="0 0 32 32" fill="none" xmlns="http://www.w3.org/2000/svg">
<path d="M22.8801 2.66663C22.3278 2.66663 21.8801 3.11434 21.8801 3.66663C21.8801 4.21891 22.3278 4.66663 22.8801 4.66663H26.1529C26.806 4.66663 27.3347 5.19527 27.3347 5.84844V9.12117C27.3347 9.67346 27.7824 10.1212 28.3347 10.1212C28.887 10.1212 29.3347 9.67346 29.3347 9.12117V5.84844C29.3347 4.0907 27.9106 2.66663 26.1529 2.66663H22.8801Z" fill="#DB850D"/>
<path d="M9.12109 29.3334C9.67338 29.3334 10.1211 28.8857 10.1211 28.3334C10.1211 27.7811 9.67338 27.3334 9.12109 27.3334L5.84837 27.3334C5.1952 27.3334 4.66655 26.8047 4.66655 26.1516L4.66655 22.8788C4.66655 22.3265 4.21883 21.8788 3.66655 21.8788C3.11426 21.8788 2.66655 22.3265 2.66655 22.8788L2.66655 26.1516C2.66655 27.9093 4.09063 29.3334 5.84837 29.3334L9.12109 29.3334Z" fill="#DB850D"/>
<path d="M2.66675 9.12109C2.66675 9.67338 3.11446 10.1211 3.66675 10.1211C4.21903 10.1211 4.66675 9.67338 4.66675 9.12109L4.66675 5.84837C4.66675 5.1952 5.1954 4.66655 5.84857 4.66655L9.12129 4.66655C9.67358 4.66655 10.1213 4.21883 10.1213 3.66655C10.1213 3.11426 9.67358 2.66655 9.12129 2.66655L5.84857 2.66655C4.09083 2.66655 2.66675 4.09063 2.66675 5.84837L2.66675 9.12109Z" fill="#DB850D"/>
<path d="M29.3347 22.88C29.3347 22.3277 28.887 21.88 28.3347 21.88C27.7824 21.88 27.3347 22.3277 27.3347 22.88V26.1527C27.3347 26.8059 26.806 27.3345 26.1529 27.3345H22.8801C22.3278 27.3345 21.8801 27.7823 21.8801 28.3345C21.8801 28.8868 22.3278 29.3345 22.8801 29.3345H26.1529C27.9106 29.3345 29.3347 27.9105 29.3347 26.1527V22.88Z" fill="#DB850D"/>
<path d="M11.3333 11.6666C11.3333 11.1143 10.8855 10.6666 10.3333 10.6666C9.78097 10.6666 9.33325 11.1143 9.33325 11.6666V13.8484C9.33325 14.4007 9.78097 14.8484 10.3333 14.8484C10.8855 14.8484 11.3333 14.4007 11.3333 13.8484V11.6666Z" fill="#DB850D"/>
<path d="M21.2423 10.6666C21.7946 10.6666 22.2423 11.1143 22.2423 11.6666V13.8484C22.2423 14.4007 21.7946 14.8484 21.2423 14.8484C20.69 14.8484 20.2423 14.4007 20.2423 13.8484V11.6666C20.2423 11.1143 20.69 10.6666 21.2423 10.6666Z" fill="#DB850D"/>
<path d="M11.7737 19.8059C12.0984 19.3592 12.7238 19.2602 13.1706 19.5849C13.8109 20.0503 14.6997 20.4847 15.7878 20.4847C16.8758 20.4847 17.7646 20.0503 18.405 19.5849C18.8517 19.2602 19.4771 19.3592 19.8018 19.8059C20.1265 20.2527 20.0275 20.8781 19.5808 21.2028C18.72 21.8283 17.427 22.4847 15.7878 22.4847C14.1486 22.4847 12.8555 21.8283 11.9948 21.2028C11.548 20.8781 11.4491 20.2527 11.7737 19.8059Z" fill="#DB850D"/>
<path d="M15.7878 10.6666C16.3401 10.6666 16.7878 11.1143 16.7878 11.6666V16.0303C16.7878 17.1847 15.8513 18.1212 14.6969 18.1212C14.1446 18.1212 13.6969 17.6735 13.6969 17.1212C13.6969 16.5689 14.1446 16.1212 14.6969 16.1212C14.7468 16.1212 14.7878 16.0802 14.7878 16.0303V11.6666C14.7878 11.1143 15.2355 10.6666 15.7878 10.6666Z" fill="#DB850D"/>
</svg>
