<svg width="17" height="16" viewBox="0 0 17 16" fill="none" xmlns="http://www.w3.org/2000/svg">
<path fill-rule="evenodd" clip-rule="evenodd" d="M5.16667 0.833252L8.0621 0.833252C8.90195 0.833252 9.7074 1.16688 10.3013 1.76075L14.0725 5.53198C14.6664 6.12585 15 6.9313 15 7.77115V11.9999C15 13.7488 13.5822 15.1666 11.8333 15.1666H5.16667C3.41777 15.1666 2 13.7488 2 11.9999L2 3.99992C2 2.25102 3.41777 0.833252 5.16667 0.833252ZM8.0621 1.83325L5.16667 1.83325C3.97005 1.83325 3 2.8033 3 3.99992L3 11.9999C3 13.1965 3.97005 14.1666 5.16667 14.1666H11.8333C13.03 14.1666 14 13.1965 14 11.9999V7.77115C14 7.56472 13.9705 7.36132 13.9139 7.16658L11.8333 7.16658C10.0844 7.16658 8.66667 5.74882 8.66667 3.99992V1.9193C8.47193 1.86271 8.26853 1.83325 8.0621 1.83325ZM9.66667 2.54036V3.99992C9.66667 5.19654 10.6367 6.16658 11.8333 6.16658L13.2929 6.16658L9.66667 2.54036Z" fill="currentColor"/>
</svg>
