<svg width="24" height="24" viewBox="0 0 24 24" fill="none" xmlns="http://www.w3.org/2000/svg">
<path d="M17.1602 2C16.7459 2 16.4102 2.33579 16.4102 2.75C16.4102 3.16421 16.7459 3.5 17.1602 3.5H19.6147C20.1046 3.5 20.5011 3.89649 20.5011 4.38636V6.84091C20.5011 7.25512 20.8369 7.59091 21.2511 7.59091C21.6653 7.59091 22.0011 7.25512 22.0011 6.84091V4.38636C22.0011 3.06806 20.933 2 19.6147 2H17.1602Z" fill="currentColor"/>
<path d="M6.84082 22C7.25503 22 7.59082 21.6642 7.59082 21.25C7.59082 20.8358 7.25503 20.5 6.84082 20.5L4.38628 20.5C3.8964 20.5 3.49991 20.1035 3.49991 19.6136L3.49991 17.1591C3.49991 16.7449 3.16412 16.4091 2.74991 16.4091C2.3357 16.4091 1.99991 16.7449 1.99991 17.1591L1.99991 19.6136C1.99991 20.9319 3.06797 22 4.38628 22L6.84082 22Z" fill="currentColor"/>
<path d="M2 6.84082C2 7.25503 2.33579 7.59082 2.75 7.59082C3.16421 7.59082 3.5 7.25503 3.5 6.84082L3.5 4.38628C3.5 3.8964 3.89649 3.49991 4.38636 3.49991L6.84091 3.49991C7.25512 3.49991 7.59091 3.16413 7.59091 2.74991C7.59091 2.3357 7.25512 1.99991 6.84091 1.99991L4.38636 1.99991C3.06806 1.99991 2 3.06797 2 4.38628L2 6.84082Z" fill="currentColor"/>
<path d="M22.0011 17.16C22.0011 16.7458 21.6653 16.41 21.2511 16.41C20.8369 16.41 20.5011 16.7458 20.5011 17.16V19.6146C20.5011 20.1045 20.1046 20.5009 19.6147 20.5009H17.1602C16.7459 20.5009 16.4102 20.8367 16.4102 21.2509C16.4102 21.6652 16.7459 22.0009 17.1602 22.0009H19.6147C20.933 22.0009 22.0011 20.9329 22.0011 19.6146V17.16Z" fill="currentColor"/>
<path d="M8.5 8.75C8.5 8.33579 8.16421 8 7.75 8C7.33579 8 7 8.33579 7 8.75V10.3864C7 10.8006 7.33579 11.1364 7.75 11.1364C8.16421 11.1364 8.5 10.8006 8.5 10.3864V8.75Z" fill="currentColor"/>
<path d="M15.9318 8C16.346 8 16.6818 8.33579 16.6818 8.75V10.3864C16.6818 10.8006 16.346 11.1364 15.9318 11.1364C15.5175 11.1364 15.1818 10.8006 15.1818 10.3864V8.75C15.1818 8.33579 15.5175 8 15.9318 8Z" fill="currentColor"/>
<path d="M8.83037 14.8545C9.07388 14.5194 9.54292 14.4452 9.87799 14.6887C10.3582 15.0377 11.0248 15.3636 11.8409 15.3636C12.6569 15.3636 13.3235 15.0377 13.8038 14.6887C14.1389 14.4452 14.6079 14.5194 14.8514 14.8545C15.0949 15.1896 15.0207 15.6586 14.6856 15.9021C14.0401 16.3713 13.0703 16.8636 11.8409 16.8636C10.6115 16.8636 9.64171 16.3713 8.99615 15.9021C8.66108 15.6586 8.58686 15.1896 8.83037 14.8545Z" fill="currentColor"/>
<path d="M11.8409 8C12.2551 8 12.5909 8.33579 12.5909 8.75V12.0227C12.5909 12.8886 11.8886 13.5909 11.0227 13.5909C10.6085 13.5909 10.2727 13.2551 10.2727 12.8409C10.2727 12.4267 10.6085 12.0909 11.0227 12.0909C11.0601 12.0909 11.0909 12.0602 11.0909 12.0227V8.75C11.0909 8.33579 11.4267 8 11.8409 8Z" fill="currentColor"/>
</svg>
