<svg width="24" height="24" viewBox="0 0 24 24" fill="none" xmlns="http://www.w3.org/2000/svg">
<path fill-rule="evenodd" clip-rule="evenodd" d="M4.43905 12.5122C4.43905 8.06697 8.04261 4.46341 12.4878 4.46341C16.933 4.46341 20.5366 8.06697 20.5366 12.5122V16.4146C20.5366 16.8187 20.8642 17.1463 21.2683 17.1463C21.6724 17.1463 22 16.8187 22 16.4146V12.5122C22 7.25875 17.7413 3 12.4878 3C7.23439 3 2.97564 7.25875 2.97564 12.5122V16.3851C2.91162 17.169 2.81783 17.6365 2.69527 17.9767C2.57646 18.3065 2.4176 18.5542 2.1546 18.8917C1.90619 19.2104 1.96321 19.6702 2.28196 19.9186C2.60071 20.167 3.06047 20.11 3.30888 19.7912C3.61592 19.3972 3.87867 19.0095 4.07206 18.4727C4.26021 17.9504 4.36841 17.3274 4.43673 16.4729L4.43905 16.4438V12.5122ZM7.36617 12.7073C7.36617 9.87852 9.65934 7.58535 12.4881 7.58535H13.4637C13.8678 7.58535 14.1954 7.25776 14.1954 6.85365C14.1954 6.44954 13.8678 6.12194 13.4637 6.12194H12.4881C8.85112 6.12194 5.90276 9.0703 5.90276 12.7073V14.6585C5.90276 15.0626 6.23035 15.3902 6.63446 15.3902C7.03857 15.3902 7.36617 15.0626 7.36617 14.6585V12.7073ZM10.293 12.7072C10.293 11.4948 11.2758 10.5121 12.4881 10.5121C13.7004 10.5121 14.6832 11.4948 14.6832 12.7072V17.5961L14.6836 17.607C14.7054 18.342 14.6542 18.8249 14.5312 19.2389C14.4081 19.653 14.1989 20.0473 13.8326 20.5909C13.6067 20.926 13.6953 21.3808 14.0304 21.6066C14.3655 21.8325 14.8203 21.7439 15.0461 21.4088C15.448 20.8125 15.7497 20.2758 15.9339 19.6558C16.1174 19.0384 16.1702 18.387 16.1466 17.5745V12.7072C16.1466 10.6866 14.5087 9.04865 12.4881 9.04865C10.4676 9.04865 8.82958 10.6866 8.82958 12.7072V14.1706C8.82958 14.5747 9.15718 14.9023 9.56129 14.9023C9.9654 14.9023 10.293 14.5747 10.293 14.1706V12.7072ZM10.2927 16.6097C10.2927 16.2056 9.96508 15.878 9.56097 15.878C9.15686 15.878 8.82927 16.2056 8.82927 16.6097C8.82927 17.7057 8.82553 18.3246 8.72316 18.8086C8.63379 19.2311 8.46518 19.5604 8.04598 20.0177C7.77292 20.3156 7.79304 20.7784 8.09093 21.0515C8.38882 21.3246 8.85168 21.3045 9.12474 21.0066C9.68116 20.3996 10.0004 19.842 10.1549 19.1115C10.2928 18.4593 10.2928 17.6826 10.2927 16.6873L10.2927 16.6097ZM13.2193 18.561C13.2193 18.1568 12.8917 17.8292 12.4876 17.8292C12.0835 17.8292 11.7559 18.1568 11.7559 18.561L11.7559 18.5816C11.7561 18.9029 11.7564 19.3629 11.3454 20.1849C11.1646 20.5464 11.3112 20.9859 11.6726 21.1666C12.034 21.3474 12.4736 21.2008 12.6543 20.8394C13.21 19.728 13.2193 19.0192 13.2193 18.561ZM6.66018 16.1759C7.06403 16.1904 7.3797 16.5295 7.36525 16.9334C7.3141 18.3629 6.9619 19.7595 6.00593 20.9665C5.75504 21.2833 5.29484 21.3367 4.97805 21.0858C4.66126 20.8349 4.60784 20.3747 4.85873 20.0579C5.56509 19.1661 5.85906 18.1029 5.90278 16.881C5.91723 16.4772 6.25633 16.1615 6.66018 16.1759ZM12.4881 11.9756C12.8922 11.9756 13.2198 12.3032 13.2198 12.7073V16.1219C13.2198 16.526 12.8922 16.8536 12.4881 16.8536C12.084 16.8536 11.7564 16.526 11.7564 16.1219V12.7073C11.7564 12.3032 12.084 11.9756 12.4881 11.9756ZM15.2937 7.4233C15.5178 7.08706 15.9721 6.9962 16.3084 7.22036C19.2779 9.20007 19.1491 12.5494 19.0872 14.1586C19.0797 14.3522 19.0732 14.5206 19.0732 14.6584C19.0732 15.3942 19.0633 16.3481 18.9952 17.2688C18.9287 18.1687 18.802 19.1171 18.5356 19.8018C18.3891 20.1784 17.965 20.3649 17.5884 20.2184C17.2118 20.0718 17.0253 19.6477 17.1718 19.2711C17.353 18.8054 17.4703 18.0464 17.5358 17.1609C17.5997 16.296 17.6098 15.386 17.6098 14.6584C17.6098 14.4684 17.6153 14.2617 17.6212 14.0422L17.6212 14.042C17.6662 12.3623 17.7313 9.92777 15.4966 8.43799C15.1604 8.21383 15.0695 7.75953 15.2937 7.4233Z" fill="currentColor"/>
</svg>
