<svg xmlns="http://www.w3.org/2000/svg" width="24" height="24" viewBox="0 0 24 24" fill="none">
<path fill-rule="evenodd" clip-rule="evenodd" d="M13.6636 19.6785C14.1711 19.9113 14.6363 20.0015 15.0577 20C15.6457 19.9979 16.1995 19.817 16.7127 19.5146C17.4743 19.0657 18.1099 18.3691 18.5584 17.7071C17.2346 17.299 16.1787 17.5428 15.3626 18.0149C14.6169 18.4462 14.0421 19.0877 13.6636 19.6785ZM14.6115 16.7165C15.9993 15.9138 17.8245 15.6459 19.9686 16.6502C20.152 16.7361 20.2928 16.8924 20.3591 17.0838C20.4254 17.2751 20.4116 17.4851 20.3206 17.6661C19.8253 18.652 18.8452 19.9988 17.4744 20.8068C16.7787 21.2168 15.9666 21.4968 15.063 21.5C14.1552 21.5032 13.2057 21.2265 12.2423 20.6015C11.9316 20.4 11.8145 20.0018 11.9667 19.6642C12.3824 18.7419 13.2666 17.4944 14.6115 16.7165Z" fill="color1"/>
<path fill-rule="evenodd" clip-rule="evenodd" d="M5.32734 17.7916C6.06862 19.0812 6.97764 19.6313 7.79709 19.8342C8.4839 20.0043 9.16339 19.9439 9.71162 19.7931C9.05623 18.5477 8.16791 18.001 7.32317 17.7888C6.62582 17.6136 5.91517 17.657 5.32734 17.7916ZM7.68861 16.334C9.1717 16.7065 10.5881 17.7691 11.4191 19.9386C11.5563 20.2965 11.4014 20.7002 11.0601 20.8747C10.2239 21.3021 8.86307 21.6435 7.43652 21.2903C5.96591 20.9261 4.53719 19.8511 3.5826 17.6502C3.41866 17.2722 3.59031 16.8327 3.96704 16.6659C4.84457 16.2774 6.25564 15.974 7.68861 16.334Z" fill="color1"/>
<path fill-rule="evenodd" clip-rule="evenodd" d="M11.1657 7.25C10.9002 7.25 10.758 7.44619 10.758 7.5913C10.758 7.6958 10.7708 7.75295 10.7793 7.77912C10.7833 7.7918 10.7866 7.79806 10.7878 7.80008C10.7888 7.80197 10.7894 7.8026 10.7899 7.80316C10.793 7.80672 10.8326 7.84921 11.0238 7.91019L13.4289 8.65972C13.7117 8.74964 14.0652 8.89857 14.3381 9.21076C14.6274 9.54174 14.742 9.95626 14.742 10.4087C14.742 11.4721 13.843 12.25 12.8343 12.25H11.3333C10.2337 12.25 9.25 11.4053 9.25 10.2518C9.25 9.83757 9.58579 9.50178 10 9.50178C10.4142 9.50178 10.75 9.83757 10.75 10.2518C10.75 10.482 10.9639 10.75 11.3333 10.75H12.8343C13.1031 10.75 13.242 10.5578 13.242 10.4087C13.242 10.3068 13.2294 10.2506 13.2209 10.2245C13.2168 10.2118 13.2134 10.2052 13.212 10.2027C13.2107 10.2002 13.2097 10.199 13.2088 10.1979C13.2042 10.1927 13.1629 10.1494 12.9762 10.0898L10.5711 9.34028C10.2929 9.2518 9.93755 9.10554 9.66325 8.79349C9.37158 8.46169 9.25799 8.04532 9.25799 7.5913C9.25799 6.53812 10.1537 5.75 11.1657 5.75H12.6667C13.7663 5.75 14.75 6.5947 14.75 7.74822C14.75 8.16243 14.4142 8.49822 14 8.49822C13.5858 8.49822 13.25 8.16243 13.25 7.74822C13.25 7.518 13.0361 7.25 12.6667 7.25H11.1657Z" fill="color2"/>
<path fill-rule="evenodd" clip-rule="evenodd" d="M12 4.75C12.4142 4.75 12.75 5.08579 12.75 5.5V12.5C12.75 12.9142 12.4142 13.25 12 13.25C11.5858 13.25 11.25 12.9142 11.25 12.5V5.5C11.25 5.08579 11.5858 4.75 12 4.75Z" fill="color2"/>
<path fill-rule="evenodd" clip-rule="evenodd" d="M12 14.5C15.0376 14.5 17.5 12.0376 17.5 9C17.5 5.96243 15.0376 3.5 12 3.5C8.96243 3.5 6.5 5.96243 6.5 9C6.5 12.0376 8.96243 14.5 12 14.5ZM19 9C19 12.866 15.866 16 12 16C8.13401 16 5 12.866 5 9C5 5.13401 8.13401 2 12 2C15.866 2 19 5.13401 19 9Z" fill="color1"/>
<path fill-rule="evenodd" clip-rule="evenodd" d="M12.0593 21.9976C11.6463 22.0304 11.2851 21.7222 11.2523 21.3093C11.1788 20.3816 11.1074 18.97 11.1344 17.749C11.1478 17.1428 11.1859 16.5538 11.2686 16.0862C11.3095 15.8555 11.3671 15.6183 11.4562 15.4126C11.5304 15.241 11.7006 14.9138 12.0692 14.7687C12.4546 14.617 12.89 14.8064 13.0418 15.1918C13.1645 15.5035 13.0641 15.8478 12.8174 16.0485C12.7967 16.1082 12.7709 16.2051 12.7457 16.3476C12.683 16.7021 12.6469 17.2013 12.634 17.7821C12.6085 18.9352 12.6764 20.2927 12.7476 21.1907C12.7804 21.6036 12.4722 21.9649 12.0593 21.9976ZM12.8452 15.9839C12.8453 15.9843 12.8428 15.9897 12.8373 15.9983C12.8422 15.9877 12.845 15.9834 12.8452 15.9839Z" fill="color1"/>
</svg>