<svg width="25" height="24" viewBox="0 0 25 24" fill="none" xmlns="http://www.w3.org/2000/svg">
<path fill-rule="evenodd" clip-rule="evenodd" d="M19.7501 8.83112C18.953 5.30941 15.971 3.50212 12.8358 3.5C9.70108 3.49788 6.71731 5.30067 5.9159 8.82192C4.9519 13.082 7.57896 16.8719 10.2629 19.4589C11.7039 20.842 13.9643 20.8381 15.3914 19.4607L15.3941 19.4581C18.088 16.8712 20.7144 13.0908 19.7501 8.83112ZM9.22308 20.54C6.46308 17.88 3.30308 13.57 4.45308 8.49C6.42308 -0.169998 19.2531 -0.159997 21.2131 8.5C22.3631 13.58 19.2031 17.88 16.4331 20.54C14.4231 22.48 11.2431 22.48 9.22308 20.54Z" fill="url(#paint0_linear_557_11852)"/>
<path fill-rule="evenodd" clip-rule="evenodd" d="M12.8334 7.5C12.143 7.5 11.5834 8.05964 11.5834 8.75C11.5834 9.44036 12.143 10 12.8334 10C13.5237 10 14.0834 9.44036 14.0834 8.75C14.0834 8.05964 13.5237 7.5 12.8334 7.5ZM10.0834 8.75C10.0834 7.23122 11.3146 6 12.8334 6C14.3522 6 15.5834 7.23122 15.5834 8.75C15.5834 10.2688 14.3522 11.5 12.8334 11.5C11.3146 11.5 10.0834 10.2688 10.0834 8.75Z" fill="url(#paint1_linear_557_11852)"/>
<defs>
<linearGradient id="paint0_linear_557_11852" x1="4.32893" y1="12.9972" x2="21.4558" y2="12.9972" gradientUnits="userSpaceOnUse">
<stop stop-color="color1"/>
<stop offset="1" stop-color="color2"/>
</linearGradient>
<linearGradient id="paint1_linear_557_11852" x1="10.1212" y1="9.02499" x2="15.5834" y2="9.02499" gradientUnits="userSpaceOnUse">
<stop stop-color="color1"/>
<stop offset="1" stop-color="color2"/>
</linearGradient>
</defs>
</svg>
