<svg width="24" height="24" viewBox="0 0 24 24" fill="none" xmlns="http://www.w3.org/2000/svg">
<path fill-rule="evenodd" clip-rule="evenodd" d="M16 5.75C16 4.50736 17.0074 3.5 18.25 3.5C19.4926 3.5 20.5 4.50736 20.5 5.75C20.5 6.99264 19.4926 8 18.25 8C17.0074 8 16 6.99264 16 5.75ZM18.25 2C16.1789 2 14.5 3.67893 14.5 5.75C14.5 6.05136 14.5355 6.34441 14.6027 6.6252L8.67371 8.60152C7.98638 7.74693 6.93206 7.20001 5.75 7.20001C3.67893 7.20001 2 8.87894 2 10.95C2 13.0211 3.67893 14.7 5.75 14.7C6.90167 14.7 7.93208 14.1809 8.61997 13.3638L14.8424 16.6824C14.6226 17.1594 14.5 17.6904 14.5 18.25C14.5 20.3211 16.1789 22 18.25 22C20.3211 22 22 20.3211 22 18.25C22 16.1789 20.3211 14.5 18.25 14.5C17.2856 14.5 16.4063 14.864 15.7419 15.4622L9.33721 12.0463C9.44306 11.6995 9.5 11.3314 9.5 10.95C9.5 10.6044 9.45325 10.2698 9.36574 9.95198L15.2441 7.99252C15.9279 8.90761 17.0198 9.5 18.25 9.5C20.3211 9.5 22 7.82107 22 5.75C22 3.67893 20.3211 2 18.25 2ZM5.75 8.70001C4.50736 8.70001 3.5 9.70737 3.5 10.95C3.5 12.1927 4.50736 13.2 5.75 13.2C6.99264 13.2 8 12.1927 8 10.95C8 9.70737 6.99264 8.70001 5.75 8.70001ZM16 18.25C16 17.0074 17.0074 16 18.25 16C19.4926 16 20.5 17.0074 20.5 18.25C20.5 19.4926 19.4926 20.5 18.25 20.5C17.0074 20.5 16 19.4926 16 18.25Z" fill="url(#paint0_linear_536_33954)"/>
<defs>
<linearGradient id="paint0_linear_536_33954" x1="2.13755" y1="13" x2="22" y2="13" gradientUnits="userSpaceOnUse">
<stop stop-color="color1"/>
<stop offset="1" stop-color="color2"/>
</linearGradient>
</defs>
</svg>
