<svg width="25" height="24" viewBox="0 0 25 24" fill="none" xmlns="http://www.w3.org/2000/svg">
    <path fill-rule="evenodd" clip-rule="evenodd"
        d="M2.52717 4.61C2.28681 5.21 2.16663 5.86 2.16663 6.54C2.16663 7.58 2.40699 8.67 2.88771 9.81C3.36843 10.94 4.02942 12.08 4.85065 13.22C5.6819 14.36 6.6133 15.45 7.64484 16.49C8.68641 17.52 9.77804 18.45 10.9298 19.29C12.0715 20.12 13.2232 20.78 14.3749 21.27C15.5267 21.76 16.6183 22 17.6398 22C18.3409 22 18.9919 21.87 19.5928 21.62C20.2037 21.37 20.7445 20.98 21.2352 20.44C21.5257 20.12 21.746 19.78 21.9163 19.42C22.0865 19.06 22.1666 18.69 22.1666 18.33C22.1666 18.05 22.1065 17.8 22.0064 17.55C21.8962 17.3 21.716 17.09 21.4556 16.91L18.1406 14.56C17.8902 14.39 17.6599 14.26 17.4395 14.17C17.2192 14.08 17.0189 14.04 16.8286 14.04C16.5782 14.04 16.3479 14.11 16.1176 14.25C15.8872 14.37 15.6468 14.56 15.3965 14.81L15.1159 15.0865L14.6353 15.56C14.5252 15.67 14.395 15.73 14.2247 15.73C14.1346 15.73 14.0545 15.72 13.9743 15.69C13.9422 15.6762 13.9122 15.6625 13.8842 15.6497L13.8842 15.6497C13.8512 15.6346 13.8212 15.6208 13.7941 15.61C13.4536 15.43 13.0229 15.13 12.5021 14.69C11.9713 14.24 11.4506 13.75 10.9097 13.22C10.389 12.69 9.90824 12.16 9.45756 11.64C9.0169 11.12 8.70644 10.69 8.52617 10.36C8.51532 10.3275 8.50154 10.295 8.48642 10.2594L8.48641 10.2594C8.4736 10.2292 8.45982 10.1967 8.44605 10.16C8.42602 10.08 8.416 10.01 8.416 9.93C8.416 9.77 8.46607 9.64 8.57624 9.53L8.63777 9.46614L9.33738 8.74C9.57774 8.5 9.76803 8.26 9.89822 8.03C10.0384 7.8 10.1085 7.56 10.1085 7.32C10.1085 7.13 10.0585 6.92 9.96833 6.71C9.87819 6.49 9.748 6.26 9.56773 6.01L7.24424 2.74C7.06397 2.48 6.83363 2.3 6.57324 2.18C6.32286 2.06 6.04244 2 5.76202 2C5.02091 2 4.31986 2.31 3.67889 2.94C3.1481 3.44 2.76753 4 2.52717 4.61ZM7.50321 8.48181L8.26725 7.6888L8.27752 7.67854C8.44475 7.51156 8.54076 7.3808 8.58859 7.2985L8.58502 7.29019L8.58031 7.27868C8.54353 7.18891 8.4769 7.06186 8.35105 6.88732L8.34494 6.87885L6.01648 3.60178L6.01155 3.59468C6.0007 3.57903 5.99265 3.5715 5.98698 3.56684C5.98074 3.56172 5.96861 3.55298 5.94543 3.5423L5.93514 3.53756L5.92493 3.53266C5.88977 3.51581 5.83274 3.5 5.76202 3.5C5.48388 3.5 5.14471 3.60251 4.73037 4.00977L4.719 4.02094L4.70741 4.03186C4.32718 4.39003 4.07715 4.76801 3.92273 5.1599L3.91962 5.16782C3.75501 5.57872 3.66663 6.03805 3.66663 6.54C3.66663 7.34504 3.85216 8.236 4.26894 9.22502C4.6982 10.2335 5.29861 11.2751 6.06523 12.3398C6.84821 13.4132 7.72753 14.4428 8.70469 15.4285C9.69244 16.4048 10.7252 17.2842 11.813 18.0776C12.8725 18.8477 13.9257 19.4488 14.9622 19.8897C15.9634 20.3157 16.8551 20.5 17.6398 20.5C18.1508 20.5 18.6052 20.4062 19.0166 20.2351L19.0247 20.2317C19.4054 20.0759 19.7662 19.826 20.1245 19.4319C20.3097 19.2277 20.4498 19.0123 20.5602 18.7787C20.6372 18.616 20.6666 18.4647 20.6666 18.33C20.6666 18.2901 20.6619 18.2442 20.6369 18.1697C20.6293 18.1634 20.6182 18.1547 20.6026 18.1439L20.5953 18.1388L17.2863 15.7931C17.0978 15.6659 16.9649 15.5964 16.8723 15.5586L16.8603 15.5539L16.8544 15.5575L16.8106 15.5803C16.7641 15.6045 16.646 15.6821 16.4563 15.8715L16.4493 15.8785L16.2524 16.0725L15.6906 16.626C15.3148 16.999 14.8109 17.23 14.2247 17.23C14.0186 17.23 13.7474 17.2067 13.4483 17.0948L13.416 17.0826L13.3842 17.069C13.3336 17.0474 13.2868 17.0259 13.2601 17.0137L13.2525 17.0102L13.2286 16.9994L13.1636 16.9734L13.0931 16.9361C12.6217 16.6869 12.0993 16.3133 11.5341 15.8358L11.5321 15.8342C10.9623 15.3511 10.4127 14.8331 9.85984 14.2913L9.84973 14.2814L9.83982 14.2713C9.29219 13.714 8.78999 13.16 8.32404 12.6224L8.31858 12.6161L8.3132 12.6098C7.84599 12.0584 7.46106 11.5391 7.20978 11.0791L7.14569 10.9618L7.11131 10.8588L7.10873 10.8527L7.10546 10.845L7.10545 10.845L7.10543 10.8449C7.09317 10.8161 7.06741 10.7555 7.04181 10.6874L7.01174 10.6073L6.99096 10.5243C6.94624 10.3457 6.916 10.1523 6.916 9.93C6.916 9.41113 7.09747 8.89403 7.50321 8.48181ZM12.4166 7.5C12.4166 7.08579 12.7524 6.75 13.1666 6.75C14.3083 6.75 15.3431 7.46194 16.0457 8.21911C16.44 8.64175 16.7731 9.11523 17.0111 9.57833C17.2416 10.0266 17.4166 10.5302 17.4166 11C17.4166 11.4142 17.0808 11.75 16.6666 11.75C16.2524 11.75 15.9166 11.4142 15.9166 11C15.9166 10.8698 15.8567 10.6134 15.6771 10.2642C15.5054 9.93008 15.2537 9.56889 14.9483 9.24174L14.9467 9.24004C14.3693 8.61753 13.7045 8.25 13.1666 8.25C12.7524 8.25 12.4166 7.91421 12.4166 7.5ZM13.1666 3.25C12.7524 3.25 12.4166 3.58579 12.4166 4C12.4166 4.41421 12.7524 4.75 13.1666 4.75C16.6224 4.75 19.4166 7.54421 19.4166 11C19.4166 11.4142 19.7524 11.75 20.1666 11.75C20.5808 11.75 20.9166 11.4142 20.9166 11C20.9166 6.71579 17.4508 3.25 13.1666 3.25Z"
        fill="url(#paint0_linear_557_3360)" />
    <defs>
        <linearGradient id="paint0_linear_557_3360" x1="2.30418" y1="13" x2="22.1666" y2="13"
            gradientUnits="userSpaceOnUse">
            <stop stop-color="color1" />
            <stop offset="1" stop-color="color2" />
        </linearGradient>
    </defs>
</svg>