<svg width="33" height="32" viewBox="0 0 33 32" fill="none" xmlns="http://www.w3.org/2000/svg">
<g clip-path="url(#clip0_2900_27171)">
<path d="M13.9451 5.68937L13.6198 5.30961L13.6062 5.32127L13.5935 5.33388L13.9451 5.68937ZM17.0802 4.53029V5.03029H17.1007L17.121 5.02862L17.0802 4.53029ZM21.776 4.14545L21.7352 3.64712L21.7352 3.64712L21.776 4.14545ZM26.8426 3.29929L26.9659 3.78385L26.9659 3.78385L26.8426 3.29929ZM26.007 15.1171L26.003 15.6171H26.003L26.007 15.1171ZM24.0974 15.4812L24.3306 15.9235L24.3338 15.9218L24.0974 15.4812ZM19.6576 17.8224L19.4244 17.3801L19.4212 17.3818L19.6576 17.8224ZM17.2599 17.2895L17.6607 16.9906L17.6607 16.9906L17.2599 17.2895ZM17.7183 14.6033L17.9972 15.0182L18.0045 15.0133L18.0116 15.0082L17.7183 14.6033ZM25.3639 9.68128C25.5876 9.51927 25.6375 9.20665 25.4755 8.98303C25.3135 8.75941 25.0009 8.70947 24.7772 8.87149L25.3639 9.68128ZM31.5816 13.0478L31.2538 12.6703L31.5816 13.0478ZM8.99565 11.2879L14.2967 6.04486L13.5935 5.33388L8.29244 10.5769L8.99565 11.2879ZM14.2703 6.06912C15.053 5.39872 16.0496 5.03029 17.0802 5.03029V4.03029C15.811 4.03029 14.5838 4.48402 13.6198 5.30961L14.2703 6.06912ZM17.121 5.02862L21.8168 4.64378L21.7352 3.64712L17.0394 4.03196L17.121 5.02862ZM21.8168 4.64378C23.5542 4.50141 25.2766 4.21375 26.9659 3.78385L26.7193 2.81474C25.0841 3.23087 23.4168 3.50931 21.7352 3.64712L21.8168 4.64378ZM26.9659 3.78385L30.773 2.81499L30.5264 1.84588L26.7193 2.81474L26.9659 3.78385ZM31.3963 3.29954V12.3342H32.3963V3.29954H31.3963ZM31.2538 12.6703C29.8012 13.9314 27.9389 14.6326 26.0111 14.6172L26.003 15.6171C28.1792 15.6346 30.2763 14.8432 31.9094 13.4254L31.2538 12.6703ZM26.0111 14.6172C25.2856 14.6113 24.5212 14.6864 23.861 15.0407L24.3338 15.9218C24.7705 15.6875 25.3306 15.6117 26.003 15.6171L26.0111 14.6172ZM23.8642 15.039L19.4244 17.3801L19.8908 18.2647L24.3306 15.9235L23.8642 15.039ZM19.4212 17.3818C18.8184 17.7053 18.0697 17.5389 17.6607 16.9906L16.8591 17.5885C17.5642 18.5338 18.8549 18.8206 19.894 18.263L19.4212 17.3818ZM17.6607 16.9906C17.1886 16.3577 17.3421 15.4587 17.9972 15.0182L17.4393 14.1883C16.3098 14.9477 16.0454 16.4975 16.8591 17.5885L17.6607 16.9906ZM18.0116 15.0082L25.3639 9.68128L24.7772 8.87149L17.4249 14.1984L18.0116 15.0082ZM31.3963 12.3342C31.3963 12.4753 31.3401 12.5953 31.2538 12.6703L31.9094 13.4254C32.2343 13.1433 32.3963 12.7377 32.3963 12.3342H31.3963ZM30.773 2.81499C31.0891 2.73455 31.3963 2.97339 31.3963 3.29954H32.3963C32.3963 2.32107 31.4746 1.60456 30.5264 1.84588L30.773 2.81499Z" fill="currentColor"/>
<path d="M22.785 10.9326H2.927C2.37472 10.9326 1.927 11.3803 1.927 11.9326V22.6329C1.927 23.1852 2.37472 23.6329 2.927 23.6329H23.7961C24.3484 23.6329 24.7961 23.1852 24.7961 22.6329V15.1975" stroke="currentColor" stroke-miterlimit="10"/>
<path d="M13.3616 20.1567C14.949 20.1567 16.2358 18.8699 16.2358 17.2825C16.2358 15.6951 14.949 14.4082 13.3616 14.4082C11.7742 14.4082 10.4873 15.6951 10.4873 17.2825C10.4873 18.8699 11.7742 20.1567 13.3616 20.1567Z" stroke="currentColor" stroke-miterlimit="10"/>
<path d="M5.73853 10.9326C5.73853 13.0376 4.03203 14.7441 1.927 14.7441" stroke="currentColor" stroke-miterlimit="10"/>
<path d="M1.927 19.8213C4.03203 19.8213 5.73853 21.5278 5.73853 23.6328" stroke="currentColor" stroke-miterlimit="10"/>
<path d="M20.9846 23.6328C20.9846 21.5278 22.6911 19.8213 24.7961 19.8213" stroke="currentColor" stroke-miterlimit="10"/>
<path d="M22.6717 23.6328L5.56478 27.3826C5.0112 27.504 4.46752 27.1415 4.36663 26.5839L3.83276 23.6328" stroke="currentColor" stroke-miterlimit="10" stroke-linecap="round"/>
</g>
<defs>
<clipPath id="clip0_2900_27171">
<rect width="32" height="32" fill="white" transform="translate(0.833496 0.000488281)"/>
</clipPath>
</defs>
</svg>
