<svg width="33" height="33" viewBox="0 0 33 33" fill="none" xmlns="http://www.w3.org/2000/svg">
<g clip-path="url(#clip0_2900_27279)">
<path d="M16.9177 17.4941C16.8585 17.4813 16.7978 17.479 16.7378 17.488C16.1368 17.418 15.6834 16.9095 15.6824 16.3046C15.6824 16.0148 15.4474 15.7798 15.1575 15.7798C14.8676 15.7798 14.6326 16.0148 14.6326 16.3046C14.6342 17.3147 15.3098 18.1994 16.2837 18.4668V18.9916C16.2837 19.2815 16.5187 19.5165 16.8086 19.5165C17.0984 19.5165 17.3335 19.2815 17.3335 18.9916V18.4985C18.4576 18.2633 19.2216 17.2163 19.1034 16.074C18.985 14.9317 18.0226 14.0636 16.8742 14.0633C16.216 14.0633 15.6824 13.5297 15.6824 12.8716C15.6824 12.2134 16.216 11.6798 16.8742 11.6798C17.5323 11.6798 18.066 12.2134 18.066 12.8716C18.066 13.1614 18.301 13.3965 18.5908 13.3965C18.8807 13.3965 19.1157 13.1614 19.1157 12.8716C19.1142 11.811 18.3712 10.8963 17.3335 10.6774V10.1997C17.3335 9.90983 17.0984 9.6748 16.8086 9.6748C16.5187 9.6748 16.2837 9.90983 16.2837 10.1997V10.7095C15.2006 11.0052 14.5034 12.0568 14.6526 13.1696C14.8018 14.2825 15.7514 15.1131 16.8742 15.1129C17.5236 15.1129 18.0534 15.6329 18.0652 16.2821C18.0772 16.9313 17.5667 17.4705 16.9177 17.4941Z" fill="currentColor"/>
<path d="M9.2627 14.6285C9.2627 18.8323 12.6704 22.24 16.8741 22.24C21.0779 22.24 24.4856 18.8323 24.4856 14.6285C24.4856 10.4248 21.0779 7.01709 16.8741 7.01709C12.6724 7.0217 9.26756 10.4268 9.2627 14.6285ZM16.8741 8.06687C20.4982 8.06687 23.4358 11.0045 23.4358 14.6285C23.4358 18.2526 20.4982 21.1902 16.8741 21.1902C13.2501 21.1902 10.3125 18.2526 10.3125 14.6285C10.3166 11.0063 13.2519 8.07098 16.8741 8.06687Z" fill="currentColor"/>
<path d="M27.0732 23.5337L22.9614 25.4764C22.3938 24.4205 21.3048 23.7485 20.1063 23.7146L16.3106 23.6103C15.7096 23.5932 15.1198 23.4409 14.5855 23.1649L14.1992 22.9647C12.2217 21.9339 9.86451 21.9365 7.88899 22.9714L7.91308 22.0964C7.92103 21.8065 7.69267 21.5651 7.4028 21.5571L3.24057 21.4426C2.9507 21.4346 2.70952 21.663 2.70158 21.9529L2.45015 31.0867C2.44221 31.3766 2.67057 31.618 2.96044 31.626L7.12267 31.7405H7.13702C7.42151 31.7405 7.65422 31.5142 7.66191 31.23L7.67396 30.793L8.75527 30.214C9.17969 29.9857 9.67588 29.9313 10.1395 30.0626L16.5966 31.8748C16.6079 31.8782 16.6192 31.8807 16.6307 31.8833C17.0974 31.9809 17.5731 32.0299 18.0498 32.0296C19.0596 32.0301 20.0576 31.8125 20.9754 31.3912C20.998 31.3809 21.0198 31.3689 21.0405 31.3553L30.4027 25.2996C30.636 25.1486 30.7113 24.8423 30.5747 24.6004C29.8796 23.3671 28.338 22.8973 27.0732 23.5337ZM3.51403 30.591L3.7365 22.5065L6.8492 22.5921L6.62674 30.6769L3.51403 30.591ZM20.5026 30.4537C19.3623 30.9683 18.0888 31.1103 16.8632 30.8599L10.4235 29.0522C9.69869 28.8475 8.92289 28.9323 8.25985 29.2888L7.70728 29.5848L7.85516 24.2095C9.60617 23.0449 11.8518 22.9253 13.7166 23.8969L14.1029 24.097C14.7779 24.4456 15.5225 24.6378 16.2819 24.6599L20.0779 24.7642C21.1441 24.7949 22.0496 25.5541 22.2659 26.5987L16.6117 26.4426C16.3219 26.4347 16.0807 26.6633 16.0725 26.9529C16.0645 27.2428 16.2932 27.4842 16.5828 27.4922L22.8225 27.6639H22.8371C23.1214 27.6636 23.3538 27.4373 23.3615 27.1534C23.3679 26.9252 23.351 26.6969 23.3108 26.4724L27.5281 24.4797C27.5322 24.4779 27.5363 24.4758 27.5404 24.4738C28.1386 24.1711 28.8619 24.2723 29.354 24.7278L20.5026 30.4537Z" fill="currentColor"/>
<path d="M17.3992 5.54115V0.554677C17.3992 0.264808 17.1641 0.0297852 16.8743 0.0297852C16.5844 0.0297852 16.3494 0.264808 16.3494 0.554677V5.54115C16.3494 5.83102 16.5844 6.06605 16.8743 6.06605C17.1641 6.06605 17.3992 5.83102 17.3992 5.54115Z" fill="currentColor"/>
<path d="M21.3357 5.5412V3.17919C21.3357 2.88932 21.1007 2.6543 20.8108 2.6543C20.5209 2.6543 20.2859 2.88932 20.2859 3.17919V5.5412C20.2859 5.83107 20.5209 6.0661 20.8108 6.0661C21.1007 6.0661 21.3357 5.83107 21.3357 5.5412Z" fill="currentColor"/>
<path d="M13.4624 5.5412V3.17919C13.4624 2.88932 13.2274 2.6543 12.9375 2.6543C12.6476 2.6543 12.4126 2.88932 12.4126 3.17919V5.5412C12.4126 5.83107 12.6476 6.0661 12.9375 6.0661C13.2274 6.0661 13.4624 5.83107 13.4624 5.5412Z" fill="currentColor"/>
</g>
<defs>
<clipPath id="clip0_2900_27279">
<rect width="32" height="32" fill="white" transform="translate(0.5 0.0297852)"/>
</clipPath>
</defs>
</svg>
