
<svg width="24" height="24" viewBox="0 0 24 24" fill="none" xmlns="http://www.w3.org/2000/svg">
<path fill-rule="evenodd" clip-rule="evenodd" d="M8.38946 3.55783C8.31235 3.48072 8.17722 3.48072 8.10012 3.55783L6.68012 4.97783C6.6738 4.98415 6.668 4.99072 6.66273 4.9975H9.82913L8.38946 3.55783ZM7.03946 2.49717C7.70235 1.83428 8.78722 1.83428 9.45012 2.49717L11.9947 5.04176L14.5393 2.49717C15.2022 1.83428 16.2871 1.83428 16.95 2.49717L18.37 3.91717C19.0139 4.56109 19.0341 5.58876 18.4219 6.25497C18.2798 6.40953 18.0795 6.4975 17.8696 6.4975H12.3496C12.223 6.4975 12.1016 6.46567 11.9947 6.40821C11.8878 6.46567 11.7664 6.4975 11.6398 6.4975H6.11979C5.90988 6.4975 5.70957 6.40953 5.56754 6.25497C4.95535 5.58876 4.97554 4.56109 5.61946 3.91717L7.03946 2.49717ZM15.8893 3.55783C15.8122 3.48072 15.6771 3.48072 15.6 3.55783L14.1603 4.9975H17.3267C17.3214 4.99072 17.3156 4.98415 17.3093 4.97783L15.8893 3.55783ZM11.25 10L11.25 21H12.75L12.75 10H11.25Z" fill="color2"/>
<path fill-rule="evenodd" clip-rule="evenodd" d="M20 7.24V8.36C20 8.74541 19.9226 8.93242 19.8816 9H4.10017C4.06354 8.92632 4 8.73936 4 8.36V7.24C4 6.77241 4.09654 6.59712 4.12022 6.56598L4.12076 6.56514C4.12204 6.56299 4.12419 6.55936 4.14478 6.55032C4.17704 6.53617 4.28044 6.5 4.5 6.5H19.5C19.6963 6.5 19.7917 6.53338 19.8244 6.54788C19.8509 6.55963 19.8587 6.568 19.8679 6.57977C19.9016 6.623 20 6.8053 20 7.24ZM4 10.5589C2.86526 10.3581 2.5 9.44609 2.5 8.36V7.24C2.5 6.008 2.97 5 4.5 5H19.5C20.97 5 21.5 6.008 21.5 7.24V8.36C21.5 9.44064 21.0922 10.3489 20 10.5558V17.6667C20 20.9167 19 22 16 22H8C5 22 4 20.9167 4 17.6667V10.5589ZM5.5 10.6V17.6667C5.5 19.2282 5.76157 19.8011 5.9772 20.0347C6.15958 20.2322 6.6064 20.5 8 20.5H16C17.3936 20.5 17.8404 20.2322 18.0228 20.0347C18.2384 19.8011 18.5 19.2282 18.5 17.6667V10.6H5.5Z" fill="color1"/>
</svg>
