<svg width="24" height="24" viewBox="0 0 24 24" fill="none" xmlns="http://www.w3.org/2000/svg">
<path d="M10.5495 2.52993C11.3874 1.82335 12.6126 1.82335 13.4505 2.52994L20.2005 8.22204C20.7074 8.64956 21 9.27894 21 9.9421V19.7448C21 20.7113 20.2165 21.4948 19.25 21.4948H15.75C14.7835 21.4948 14 20.7113 14 19.7448V14.2448C14 14.1068 13.8881 13.9948 13.75 13.9948H10.25C10.1119 13.9948 9.99999 14.1068 9.99999 14.2448V19.7448C9.99999 20.7113 9.2165 21.4948 8.25 21.4948H4.75C3.7835 21.4948 3 20.7113 3 19.7448V9.9421C3 9.27894 3.29255 8.64956 3.79952 8.22204L10.5495 2.52993ZM12.4835 3.67664C12.2042 3.44111 11.7958 3.44111 11.5165 3.67664L4.76651 9.36875C4.59752 9.51125 4.5 9.72105 4.5 9.9421V19.7448C4.5 19.8829 4.61193 19.9948 4.75 19.9948H8.25C8.38807 19.9948 8.49999 19.8829 8.49999 19.7448V14.2448C8.49999 13.2783 9.2835 12.4948 10.25 12.4948H13.75C14.7165 12.4948 15.5 13.2783 15.5 14.2448V19.7448C15.5 19.8829 15.6119 19.9948 15.75 19.9948H19.25C19.3881 19.9948 19.5 19.8829 19.5 19.7448V9.9421C19.5 9.72105 19.4025 9.51125 19.2335 9.36875L12.4835 3.67664Z" fill="currentColor"/>
</svg>
