<svg width="25" height="24" viewBox="0 0 25 24" fill="none" xmlns="http://www.w3.org/2000/svg">
<path fill-rule="evenodd" clip-rule="evenodd" d="M4.58725 9.46959L11.5205 3.81041C12.025 3.39809 12.9608 3.39293 13.4808 3.81894L20.4088 9.46359L20.4103 9.46482C20.5396 9.57169 20.7247 9.81582 20.8592 10.1751C20.9931 10.5329 21.018 10.848 20.9894 11.0301L20.9891 11.0322L19.6609 19.134L19.6605 19.1359C19.5365 19.8717 18.774 20.5 18.1008 20.5H6.90253C6.2177 20.5 5.46689 19.8803 5.34296 19.1367L5.34278 19.1357L4.01346 11.0268L4.01192 11.0178C3.98189 10.8413 4.00365 10.5305 4.13671 10.1751C4.27009 9.81876 4.45587 9.57602 4.58725 9.46959ZM22.4702 11.2695C22.6302 10.2708 22.1302 8.93587 21.3603 8.30406L14.4314 2.65856C13.3616 1.78219 11.6318 1.78219 10.572 2.64837L3.64302 8.30406C2.86314 8.93587 2.36322 10.2708 2.53319 11.2695L3.86299 19.3811C4.10295 20.8281 5.46275 22 6.90253 22H18.1008C19.5306 22 20.9004 20.8179 21.1404 19.3811L22.4702 11.2695ZM13.25 15C13.25 14.5858 12.9142 14.25 12.5 14.25C12.0858 14.25 11.75 14.5858 11.75 15V18C11.75 18.4142 12.0858 18.75 12.5 18.75C12.9142 18.75 13.25 18.4142 13.25 18V15Z" fill="#1B1D29"/>
<path fill-rule="evenodd" clip-rule="evenodd" d="M4.58725 9.46959L11.5205 3.81041C12.025 3.39809 12.9608 3.39293 13.4808 3.81894L20.4088 9.46359L20.4103 9.46482C20.5396 9.57169 20.7247 9.81582 20.8592 10.1751C20.9931 10.5329 21.018 10.848 20.9894 11.0301L20.9891 11.0322L19.6609 19.134L19.6605 19.1359C19.5365 19.8717 18.774 20.5 18.1008 20.5H6.90253C6.2177 20.5 5.46689 19.8803 5.34296 19.1367L5.34278 19.1357L4.01346 11.0268L4.01192 11.0178C3.98189 10.8413 4.00365 10.5305 4.13671 10.1751C4.27009 9.81876 4.45587 9.57602 4.58725 9.46959ZM22.4702 11.2695C22.6302 10.2708 22.1302 8.93587 21.3603 8.30406L14.4314 2.65856C13.3616 1.78219 11.6318 1.78219 10.572 2.64837L3.64302 8.30406C2.86314 8.93587 2.36322 10.2708 2.53319 11.2695L3.86299 19.3811C4.10295 20.8281 5.46275 22 6.90253 22H18.1008C19.5306 22 20.9004 20.8179 21.1404 19.3811L22.4702 11.2695ZM13.25 15C13.25 14.5858 12.9142 14.25 12.5 14.25C12.0858 14.25 11.75 14.5858 11.75 15V18C11.75 18.4142 12.0858 18.75 12.5 18.75C12.9142 18.75 13.25 18.4142 13.25 18V15Z" fill="url(#paint0_linear_416_32477)"/>
<defs>
<linearGradient id="paint0_linear_416_32477" x1="2.63755" y1="13" x2="22.5" y2="13" gradientUnits="userSpaceOnUse">
<stop stop-color="color1"/>
<stop offset="1" stop-color="color2"/>
</linearGradient>
</defs>
</svg>
