<svg xmlns="http://www.w3.org/2000/svg" width="24" height="24" viewBox="0 0 24 24" fill="none">
<path fill-rule="evenodd" clip-rule="evenodd" d="M6.75577 13.4426C7.57294 13.0592 8.48272 12.915 9.38144 13.0357C10.3052 13.1597 11.6387 13.3432 12.8174 13.523C13.4062 13.6128 13.9611 13.7023 14.4088 13.7835C14.8297 13.8599 15.2246 13.9403 15.4438 14.0194C15.9845 14.2144 16.385 14.5358 16.5096 15.0526C16.5589 15.2566 16.5493 15.443 16.5446 15.535L16.5445 15.5369C16.54 15.6262 16.5396 15.6488 16.5391 15.6499C16.5721 15.8696 16.5817 16.1147 16.5198 16.371C16.4553 16.6379 16.3254 16.8668 16.15 17.0681C15.8723 17.3868 15.4841 17.4911 15.2532 17.5328C14.9954 17.5793 14.748 17.5789 14.5962 17.5727C14.4364 17.5662 14.2913 17.5408 14.1793 17.5188L11.5017 16.9915C11.0953 16.9114 10.8307 16.5171 10.9108 16.1107C10.9908 15.7043 11.3852 15.4397 11.7916 15.5197L14.4692 16.0471C14.5573 16.0644 14.6132 16.0722 14.657 16.0739C14.7563 16.078 14.8815 16.0756 14.9868 16.0566C15.0144 16.0516 15.0353 16.0464 15.0504 16.042C15.0531 16.0378 15.0549 16.0346 15.0562 16.0322C15.0599 16.0254 15.061 16.0218 15.0617 16.0187C15.0633 16.0121 15.0713 15.9746 15.0552 15.8695C15.0402 15.7711 15.0387 15.6828 15.0398 15.6175C15.0406 15.5683 15.0435 15.5146 15.0454 15.4801C15.0455 15.4788 15.0456 15.4775 15.0457 15.4762C15.0189 15.4633 14.9828 15.4477 14.9349 15.4304C14.8569 15.4023 14.5953 15.3419 14.141 15.2595C13.7135 15.1819 13.1745 15.0948 12.5913 15.0059C11.4259 14.8281 10.1027 14.6459 9.18188 14.5223C8.57271 14.4406 7.95309 14.5377 7.39293 14.8005L5.19341 15.8326L6.6713 18.3423C7.43291 18.1111 8.25794 18.1406 9.01101 18.4393L11.0693 19.2556C11.9888 19.6203 13.0244 19.5463 13.8827 19.0547L20.1593 15.4598C20.3514 15.3498 20.4729 15.1483 20.4805 14.927C20.4881 14.7071 20.3751 14.4888 20.1828 14.3642C19.9822 14.2342 19.7261 14.2197 19.5197 14.3212L17.8314 15.1513C17.4597 15.3341 17.0102 15.1809 16.8275 14.8092C16.6447 14.4375 16.7979 13.988 17.1696 13.8052L18.8579 12.9751C19.546 12.6368 20.3627 12.6934 20.9985 13.1054C21.6254 13.5116 22.0058 14.2233 21.9796 14.9788C21.9541 15.719 21.5475 16.3933 20.9048 16.7614L14.6282 20.3563C13.3737 21.0749 11.8602 21.1829 10.5163 20.6499L8.45802 19.8336C7.89037 19.6085 7.2519 19.6482 6.71655 19.942L6.37507 20.1294C4.92687 20.9241 3.10836 20.3694 2.35039 18.9016C1.63479 17.5159 2.12638 15.8125 3.47028 15.0211L3.74866 14.8572C3.7688 14.8453 3.78948 14.8344 3.81064 14.8245L6.75577 13.4426ZM5.29074 18.954L3.89623 16.5859C3.50226 17.0195 3.40097 17.6669 3.68317 18.2133C3.99299 18.8133 4.66476 19.1016 5.29074 18.954Z" fill="color1"/>
<path fill-rule="evenodd" clip-rule="evenodd" d="M15.0215 3.70001C15.0215 3.2858 14.6857 2.95001 14.2715 2.95001C13.8573 2.95001 13.5215 3.2858 13.5215 3.70001V3.86441H13.3241C12.148 3.86441 11.25 4.85362 11.25 5.99992C11.25 6.52358 11.3647 6.9877 11.658 7.36184C11.9443 7.72711 12.3266 7.90937 12.6504 8.02411L13.5215 8.32673V10.2255H13.5152C13.1239 10.2255 12.75 9.88624 12.75 9.38521C12.75 8.971 12.4142 8.63521 12 8.63521C11.5858 8.63521 11.25 8.971 11.25 9.38521C11.25 10.6451 12.2275 11.7255 13.5152 11.7255H13.5215V11.8902C13.5215 12.3044 13.8573 12.6402 14.2715 12.6402C14.6857 12.6402 15.0215 12.3044 15.0215 11.8902V11.7255H15.2283C16.4044 11.7255 17.3024 10.7363 17.3024 9.58997C17.3024 9.06631 17.1877 8.60219 16.8944 8.22805C16.6081 7.86278 16.2258 7.68052 15.902 7.56578L15.0215 7.25989V5.36441H15.0372C15.4285 5.36441 15.8024 5.70365 15.8024 6.20468C15.8024 6.61889 16.1382 6.95468 16.5524 6.95468C16.9666 6.95468 17.3024 6.61889 17.3024 6.20468C17.3024 4.94481 16.3249 3.86441 15.0372 3.86441H15.0215V3.70001ZM13.5215 5.36441H13.3241C13.0396 5.36441 12.75 5.61739 12.75 5.99992C12.75 6.30894 12.8162 6.40789 12.8385 6.43644C12.8678 6.47373 12.9356 6.53352 13.1494 6.60954L13.5215 6.73879V5.36441ZM15.0215 8.84782V10.2255H15.2283C15.5128 10.2255 15.8024 9.9725 15.8024 9.58997C15.8024 9.28095 15.7362 9.182 15.7139 9.15345C15.6846 9.11616 15.6168 9.05636 15.4029 8.98034L15.0215 8.84782Z" fill="color2"/>
</svg>