<svg width="24" height="24" viewBox="0 0 24 24" fill="none" xmlns="http://www.w3.org/2000/svg">
<path d="M10.5492 2.53025C11.3872 1.82325 12.6128 1.82325 13.4508 2.53025L20.2008 8.22479C20.7076 8.6523 21 9.28154 21 9.94454V19.7475C21 20.714 20.2165 21.4975 19.25 21.4975H16.25C15.2835 21.4975 14.5 20.714 14.5 19.7475V14.7475C14.5 14.3333 14.1642 13.9975 13.75 13.9975H10.25C9.83579 13.9975 9.5 14.3333 9.5 14.7475V19.7475C9.5 20.714 8.7165 21.4975 7.75 21.4975H4.75C3.7835 21.4975 3 20.714 3 19.7475V9.94454C3 9.28154 3.29241 8.6523 3.79916 8.22479L10.5492 2.53025Z" fill="white"/>
</svg>
