<svg width="28" height="29" viewBox="0 0 28 29" fill="none" xmlns="http://www.w3.org/2000/svg">
<path fill-rule="evenodd" clip-rule="evenodd" d="M23.9944 10.1786C23.9944 15.5908 19.5944 19.9783 14.1668 19.9783C8.73918 19.9783 4.33923 15.5908 4.33923 10.1786C4.33923 4.76637 8.73918 0.378906 14.1668 0.378906C19.5944 0.378906 23.9944 4.76637 23.9944 10.1786ZM14.1041 3.54C14.5237 3.54 14.8639 3.87923 14.8639 4.29769V4.93131H16.5928C17.0113 4.93131 17.3507 5.26968 17.3507 5.68708C17.3507 6.10448 17.0113 6.44285 16.5928 6.44285H12.6793C12.3519 6.44285 12.0378 6.57224 11.8062 6.80256C11.5747 7.03288 11.4446 7.34526 11.4446 7.67098C11.4446 7.9967 11.5747 8.30908 11.8062 8.5394C12.0378 8.76971 12.3519 8.89911 12.6793 8.89911H15.5288C16.2593 8.89911 16.9599 9.18775 17.4765 9.70154C17.993 10.2153 18.2832 10.9122 18.2832 11.6388C18.2832 12.3654 17.993 13.0622 17.4765 13.576C16.9599 14.0898 16.2593 14.3785 15.5288 14.3785H14.8639V15.1151C14.8639 15.5336 14.5237 15.8728 14.1041 15.8728C13.6844 15.8728 13.3442 15.5336 13.3442 15.1151V14.3785H11.267C10.8484 14.3785 10.5091 14.0401 10.5091 13.6227C10.5091 13.2053 10.8484 12.8669 11.267 12.8669H15.5288C15.8563 12.8669 16.1703 12.7375 16.4019 12.5072C16.6334 12.2769 16.7635 11.9645 16.7635 11.6388C16.7635 11.3131 16.6334 11.0007 16.4019 10.7704C16.1703 10.54 15.8563 10.4106 15.5288 10.4106H12.6793C11.9488 10.4106 11.2482 10.122 10.7317 9.60822C10.2151 9.09443 9.9249 8.39758 9.9249 7.67098C9.9249 6.94437 10.2151 6.24753 10.7317 5.73374C11.2482 5.21995 11.9488 4.93131 12.6793 4.93131H13.3442V4.29769C13.3442 3.87923 13.6844 3.54 14.1041 3.54Z" fill="white"/>
<path d="M0.833496 16.2566L1.58056 16.2799C7.79487 16.4737 12.7993 21.449 12.9943 27.634L13.0178 28.3789L12.2707 28.3556C6.0564 28.1618 1.05201 23.1864 0.856985 17.0015L0.833496 16.2566Z" fill="white"/>
<path d="M27.5002 16.2566L27.4767 17.0015C27.2817 23.1864 22.2773 28.1618 16.063 28.3556L15.3159 28.3789L15.3394 27.634C15.5344 21.449 20.5388 16.4737 26.7531 16.2799L27.5002 16.2566Z" fill="white"/>
</svg>
