<svg width="25" height="24" viewBox="0 0 25 24" fill="none" xmlns="http://www.w3.org/2000/svg">
<path fill-rule="evenodd" clip-rule="evenodd" d="M14.1636 19.6785C14.6711 19.9113 15.1363 20.0015 15.5577 20C16.1457 19.9979 16.6995 19.817 17.2127 19.5146C17.9743 19.0657 18.6099 18.3691 19.0584 17.7071C17.7346 17.299 16.6787 17.5428 15.8626 18.0149C15.1169 18.4462 14.5421 19.0877 14.1636 19.6785ZM15.1115 16.7165C16.4993 15.9138 18.3245 15.6459 20.4686 16.6502C20.652 16.7361 20.7928 16.8924 20.8591 17.0838C20.9254 17.2751 20.9116 17.4851 20.8206 17.6661C20.3253 18.652 19.3452 19.9988 17.9744 20.8068C17.2787 21.2168 16.4666 21.4968 15.563 21.5C14.6552 21.5032 13.7057 21.2265 12.7423 20.6015C12.4316 20.4 12.3145 20.0018 12.4667 19.6642C12.8824 18.7419 13.7666 17.4944 15.1115 16.7165Z" fill="color2"/>
<path fill-rule="evenodd" clip-rule="evenodd" d="M5.82734 17.7916C6.56862 19.0812 7.47764 19.6313 8.29709 19.8342C8.9839 20.0043 9.66339 19.9439 10.2116 19.7931C9.55623 18.5477 8.66791 18.001 7.82317 17.7888C7.12582 17.6136 6.41517 17.657 5.82734 17.7916ZM8.18861 16.334C9.6717 16.7065 11.0881 17.7691 11.9191 19.9386C12.0563 20.2965 11.9014 20.7002 11.5601 20.8747C10.7239 21.3021 9.36307 21.6435 7.93652 21.2903C6.46591 20.9261 5.03719 19.8511 4.0826 17.6502C3.91866 17.2722 4.09031 16.8327 4.46704 16.6659C5.34457 16.2774 6.75564 15.974 8.18861 16.334Z" fill="color2"/>
<path fill-rule="evenodd" clip-rule="evenodd" d="M11.6657 7.25C11.4002 7.25 11.258 7.44619 11.258 7.5913C11.258 7.6958 11.2708 7.75295 11.2793 7.77912C11.2833 7.7918 11.2866 7.79806 11.2878 7.80008C11.2888 7.80197 11.2894 7.8026 11.2899 7.80316C11.293 7.80672 11.3326 7.84921 11.5238 7.91019L13.9289 8.65972C14.2117 8.74964 14.5652 8.89857 14.8381 9.21076C15.1274 9.54174 15.242 9.95626 15.242 10.4087C15.242 11.4721 14.343 12.25 13.3343 12.25H11.8333C10.7337 12.25 9.75 11.4053 9.75 10.2518C9.75 9.83757 10.0858 9.50178 10.5 9.50178C10.9142 9.50178 11.25 9.83757 11.25 10.2518C11.25 10.482 11.4639 10.75 11.8333 10.75H13.3343C13.6031 10.75 13.742 10.5578 13.742 10.4087C13.742 10.3068 13.7294 10.2506 13.7209 10.2245C13.7168 10.2118 13.7134 10.2052 13.712 10.2027C13.7107 10.2002 13.7097 10.199 13.7088 10.1979C13.7042 10.1927 13.6629 10.1494 13.4762 10.0898L11.0711 9.34028C10.7929 9.2518 10.4375 9.10554 10.1632 8.79349C9.87158 8.46169 9.75799 8.04532 9.75799 7.5913C9.75799 6.53812 10.6537 5.75 11.6657 5.75H13.1667C14.2663 5.75 15.25 6.5947 15.25 7.74822C15.25 8.16243 14.9142 8.49822 14.5 8.49822C14.0858 8.49822 13.75 8.16243 13.75 7.74822C13.75 7.518 13.5361 7.25 13.1667 7.25H11.6657Z" fill="color1"/>
<path fill-rule="evenodd" clip-rule="evenodd" d="M12.5 4.75C12.9142 4.75 13.25 5.08579 13.25 5.5V12.5C13.25 12.9142 12.9142 13.25 12.5 13.25C12.0858 13.25 11.75 12.9142 11.75 12.5V5.5C11.75 5.08579 12.0858 4.75 12.5 4.75Z" fill="color1"/>
<path fill-rule="evenodd" clip-rule="evenodd" d="M12.5 14.5C15.5376 14.5 18 12.0376 18 9C18 5.96243 15.5376 3.5 12.5 3.5C9.46243 3.5 7 5.96243 7 9C7 12.0376 9.46243 14.5 12.5 14.5ZM19.5 9C19.5 12.866 16.366 16 12.5 16C8.63401 16 5.5 12.866 5.5 9C5.5 5.13401 8.63401 2 12.5 2C16.366 2 19.5 5.13401 19.5 9Z" fill="color2"/>
<path fill-rule="evenodd" clip-rule="evenodd" d="M12.5593 21.9977C12.1463 22.0304 11.7851 21.7222 11.7523 21.3093C11.6788 20.3817 11.6074 18.97 11.6344 17.749C11.6478 17.1428 11.6859 16.5538 11.7686 16.0862C11.8095 15.8555 11.8671 15.6183 11.9562 15.4127C12.0304 15.241 12.2006 14.9138 12.5692 14.7687C12.9546 14.617 13.39 14.8064 13.5418 15.1918C13.6645 15.5035 13.5641 15.8478 13.3174 16.0485C13.2967 16.1082 13.2709 16.2051 13.2457 16.3476C13.183 16.7021 13.1469 17.2013 13.134 17.7822C13.1085 18.9352 13.1764 20.2927 13.2476 21.1907C13.2804 21.6036 12.9722 21.9649 12.5593 21.9977ZM13.3452 15.9839C13.3453 15.9844 13.3428 15.9897 13.3373 15.9984C13.3422 15.9878 13.345 15.9834 13.3452 15.9839Z" fill="color2"/>
</svg>
