<svg width="24" height="24" viewBox="0 0 24 24" fill="none" xmlns="http://www.w3.org/2000/svg">
<path fill-rule="evenodd" clip-rule="evenodd" d="M9 20.5H15C17.3521 20.5 18.6083 20.0204 19.3143 19.3143C20.0204 18.6083 20.5 17.3521 20.5 15V9C20.5 6.64794 20.0204 5.39172 19.3143 4.68566C18.6083 3.9796 17.3521 3.5 15 3.5H9C6.64794 3.5 5.39172 3.9796 4.68566 4.68566C3.9796 5.39172 3.5 6.64794 3.5 9V15C3.5 17.3521 3.9796 18.6083 4.68566 19.3143C5.39172 20.0204 6.64794 20.5 9 20.5ZM15 22H9C4 22 2 20 2 15V9C2 4 4 2 9 2H15C20 2 22 4 22 9V15C22 20 20 22 15 22Z" fill="color2"/>
<path fill-rule="evenodd" clip-rule="evenodd" d="M6.25 8C6.25 6.48122 7.48122 5.25 9 5.25C10.5188 5.25 11.75 6.48122 11.75 8C11.75 9.51878 10.5188 10.75 9 10.75C7.48122 10.75 6.25 9.51878 6.25 8ZM9 6.75C8.30964 6.75 7.75 7.30964 7.75 8C7.75 8.69036 8.30964 9.25 9 9.25C9.69036 9.25 10.25 8.69036 10.25 8C10.25 7.30964 9.69036 6.75 9 6.75Z" fill="color1"/>
<path d="M20.5 13.6003L19.8813 13.0689C19.3824 12.6404 18.5377 12.6404 18.0387 13.0689L13.8787 16.6389C12.8177 17.5501 11.1423 17.5503 10.0813 16.6389L10.0749 16.6334L9.74849 16.3465C9.30005 15.9638 8.53372 15.9168 8.01788 16.2628L4.26676 18.7813C4.03735 18.4106 3.84927 17.9418 3.7168 17.3439L7.18198 15.0173C8.24506 14.3041 9.75683 14.3761 10.7288 15.2111L10.7352 15.2166L11.0615 15.5035C11.5608 15.9296 12.4033 15.9288 12.9013 15.5011L17.0613 11.9311C18.0093 11.117 19.4476 11.0301 20.5 11.6707V13.6003Z" fill="color1"/>
</svg>
