<svg width="24" height="24" viewBox="0 0 24 24" fill="none" xmlns="http://www.w3.org/2000/svg">
    <path fill-rule="evenodd" clip-rule="evenodd" d="M21.09 15.42V8.58002C21.09 7.45003 20.4897 6.41999 19.5191 5.84999L13.5759 2.42C12.5953 1.86 11.3947 1.86 10.4241 2.42L4.48087 5.84999C3.51034 6.41999 2.91 7.46002 2.91 8.58002V15.42C2.91 16.55 3.51034 17.59 4.48087 18.15L10.4241 21.58C11.4047 22.14 12.6053 22.14 13.5759 21.58L19.5191 18.15C20.4897 17.58 21.09 16.54 21.09 15.42ZM12 6.77273C12.3765 6.77273 12.6818 7.07799 12.6818 7.45455V13.8182C12.6818 14.1947 12.3765 14.5 12 14.5C11.6235 14.5 11.3183 14.1947 11.3183 13.8182V7.45455C11.3183 7.07799 11.6235 6.77273 12 6.77273ZM12 15.6364C12.502 15.6364 12.909 16.0434 12.909 16.5455V16.6364C12.909 17.1384 12.502 17.5455 12 17.5455C11.498 17.5455 11.091 17.1384 11.091 16.6364V16.5455C11.091 16.0434 11.498 15.6364 12 15.6364Z" fill="currentColor"/>
</svg>
