<svg width="33" height="32" viewBox="0 0 33 32" fill="none" xmlns="http://www.w3.org/2000/svg">
<path d="M7.45837 4.6875V13.1875" stroke="currentColor" stroke-miterlimit="10" stroke-linecap="round"/>
<path d="M10.2709 7.5L7.45837 4.6875L4.64587 7.5" stroke="currentColor" stroke-miterlimit="10" stroke-linecap="round"/>
<path d="M26.2084 4.6875V13.1875" stroke="currentColor" stroke-miterlimit="10" stroke-linecap="round"/>
<path d="M29.0209 7.5L26.2084 4.6875L23.3959 7.5" stroke="currentColor" stroke-miterlimit="10" stroke-linecap="round"/>
<path d="M16.8334 1.325V9.4375" stroke="currentColor" stroke-miterlimit="10" stroke-linecap="round"/>
<path d="M19.6459 4.1377L16.8334 1.3252L14.0209 4.1377" stroke="currentColor" stroke-miterlimit="10" stroke-linecap="round"/>
<path d="M16.8334 31.0625C11.6643 31.0625 7.45837 26.7941 7.45837 21.625C7.45837 16.4559 11.6643 12.25 16.8334 12.25C22.0024 12.25 26.2084 16.4559 26.2084 21.625C26.2084 26.7941 22.0024 31.0625 16.8334 31.0625Z" stroke="currentColor" stroke-miterlimit="10"/>
<path d="M14.8525 23.1484C14.8525 24.0338 15.5702 24.7515 16.4556 24.7515H17.3154C18.2002 24.7515 18.9175 24.0343 18.9175 23.1494C18.9175 22.2646 18.2002 21.5474 17.3154 21.5474H16.4354C15.5506 21.5474 14.8334 20.8301 14.8334 19.9453C14.8334 19.0605 15.5506 18.3433 16.4354 18.3433H17.3311C18.2002 18.3433 18.9048 19.0478 18.9048 19.9169" stroke="currentColor" stroke-miterlimit="10" stroke-linecap="round"/>
<path d="M16.8754 26.5947V24.7515" stroke="currentColor" stroke-miterlimit="10" stroke-linecap="round"/>
<path d="M16.8754 18.3433V16.5" stroke="currentColor" stroke-miterlimit="10" stroke-linecap="round"/>
</svg>
