<svg width="24" height="24" viewBox="0 0 24 24" fill="none" xmlns="http://www.w3.org/2000/svg">
<path fill-rule="evenodd" clip-rule="evenodd" d="M12 20.5C16.6716 20.5 20.5 16.6716 20.5 12C20.5 7.32843 16.6716 3.5 12 3.5C7.32843 3.5 3.5 7.32843 3.5 12C3.5 16.6716 7.32843 20.5 12 20.5ZM22 12C22 17.5 17.5 22 12 22C6.5 22 2 17.5 2 12C2 6.5 6.5 2 12 2C17.5 2 22 6.5 22 12Z" fill="color2"/>
<path fill-rule="evenodd" clip-rule="evenodd" d="M12.0031 9C12.5554 9 13.0031 8.55228 13.0031 8C13.0031 7.44772 12.5554 7 12.0031 7H11.9941C11.4419 7 10.9941 7.44772 10.9941 8C10.9941 8.55228 11.4419 9 11.9941 9H12.0031ZM11.2478 16C11.2478 16.4142 11.5835 16.75 11.9978 16.75C12.412 16.75 12.7478 16.4142 12.7478 16L12.7478 11C12.7478 10.5858 12.412 10.25 11.9978 10.25C11.5835 10.25 11.2478 10.5858 11.2478 11L11.2478 16Z" fill="color1"/>
</svg>
