<svg width="20" height="20" viewBox="0 0 20 20" fill="none" xmlns="http://www.w3.org/2000/svg">
<path fill-rule="evenodd" clip-rule="evenodd" d="M20 10C20 15.5 15.5 20 10 20C4.5 20 0 15.5 0 10C0 4.5 4.5 0 10 0C15.5 0 20 4.5 20 10ZM11.0036 6C11.0036 6.55228 10.5559 7 10.0036 7H9.99463C9.44234 7 8.99463 6.55228 8.99463 6C8.99463 5.44771 9.44234 5 9.99463 5H10.0036C10.5559 5 11.0036 5.44772 11.0036 6ZM9.99824 14.75C9.58403 14.75 9.24824 14.4142 9.24824 14L9.24824 9C9.24824 8.58579 9.58403 8.25 9.99824 8.25C10.4125 8.25 10.7482 8.58579 10.7482 9V14C10.7482 14.4142 10.4125 14.75 9.99824 14.75Z" fill="currentColor"/>
</svg>
