<svg width="25" height="24" viewBox="0 0 25 24" fill="none" xmlns="http://www.w3.org/2000/svg">
<path fill-rule="evenodd" clip-rule="evenodd" d="M1.375 12C1.375 6.06579 6.19079 1.25 12.125 1.25C18.0592 1.25 22.875 6.06579 22.875 12C22.875 12.4142 22.5392 12.75 22.125 12.75C21.7108 12.75 21.375 12.4142 21.375 12C21.375 11.224 21.2793 10.4702 21.099 9.74983C21.0288 9.74735 20.9577 9.73488 20.8877 9.71149C19.6614 9.30203 18.4134 8.98088 17.153 8.74804C17.2743 9.82847 17.3352 10.9142 17.3352 12C17.3352 12.4142 16.9994 12.75 16.5852 12.75C16.171 12.75 15.8352 12.4142 15.8352 12C15.8352 10.8338 15.7611 9.66751 15.6136 8.50826C13.2963 8.21389 10.9504 8.21404 8.63314 8.50873C8.33856 10.8257 8.33843 13.1713 8.63277 15.4883C9.79219 15.6359 10.9587 15.71 12.125 15.71C12.5392 15.71 12.875 16.0458 12.875 16.46C12.875 16.8742 12.5392 17.21 12.125 17.21C11.039 17.21 9.95315 17.1491 8.87254 17.0277C9.10538 18.2881 9.42654 19.5362 9.836 20.7625C9.85907 20.8316 9.87168 20.9027 9.87416 20.9738C10.5948 21.1542 11.3488 21.25 12.125 21.25C12.5392 21.25 12.875 21.5858 12.875 22C12.875 22.4142 12.5392 22.75 12.125 22.75C6.19079 22.75 1.375 17.9342 1.375 12ZM8.87308 6.96937C11.033 6.72715 13.2136 6.72701 15.3736 6.96895C15.1409 5.70942 14.8206 4.46211 14.4134 3.2364C14.3903 3.16668 14.3779 3.09596 14.3755 3.02608C13.655 2.84575 12.9011 2.75 12.125 2.75C11.3488 2.75 10.5948 2.84579 9.87416 3.02617C9.87168 3.09726 9.85907 3.16844 9.836 3.23754C9.42685 4.46289 9.10588 5.70995 8.87308 6.96937ZM16.9349 7.18669C18.125 7.38559 19.3056 7.65882 20.4698 8.0064C19.5583 6.10679 18.0172 4.56585 16.1174 3.65465C16.4633 4.81778 16.736 5.99747 16.9349 7.18669ZM7.3117 7.18733C6.12275 7.3862 4.94322 7.65927 3.78015 8.00655C4.66559 6.16109 6.14531 4.65413 7.97079 3.73421C8.01361 3.74314 8.05778 3.74841 8.10294 3.74969C7.76893 4.88233 7.50518 6.03037 7.3117 7.18733ZM3.151 9.74985C3.22136 9.7474 3.29256 9.73492 3.36274 9.71149C4.58784 9.30242 5.83463 8.9815 7.09378 8.74871C6.85166 10.9083 6.85155 13.0887 7.09345 15.2483C5.8341 15.0156 4.58698 14.6954 3.36144 14.2882C3.29265 14.2654 3.22182 14.2529 3.15108 14.2505C2.97075 13.53 2.875 12.7761 2.875 12C2.875 11.224 2.97072 10.4702 3.151 9.74985ZM7.9708 20.2658C6.19857 19.3727 4.75222 17.9263 3.85915 16.1541C3.8682 16.1108 3.87352 16.066 3.87473 16.0203C5.00689 16.3529 6.15453 16.6162 7.31119 16.8096C7.50472 17.9676 7.76864 19.1167 8.10294 20.2503C8.05778 20.2516 8.01362 20.2569 7.9708 20.2658Z" fill="color2"/>
<path fill-rule="evenodd" clip-rule="evenodd" d="M15.625 17.75V19.9376C15.625 20.1839 15.6372 20.351 15.6524 20.4622C15.7937 20.4844 16.0108 20.5008 16.341 20.5L16.345 20.5L21.905 20.5C22.2377 20.5 22.4557 20.4828 22.5973 20.4599C22.6127 20.3487 22.625 20.1809 22.625 19.9329V17.75H15.625ZM22.625 16.25H15.625V16.0671C15.625 15.8191 15.6373 15.6513 15.6527 15.5401C15.7943 15.5172 16.0123 15.5 16.345 15.5H21.9C22.2354 15.5 22.4549 15.5174 22.5973 15.5405C22.6127 15.6516 22.625 15.8192 22.625 16.0671V16.25ZM16.1023 19C16.1023 18.5858 16.4381 18.25 16.8523 18.25H17.7614C18.1756 18.25 18.5114 18.5858 18.5114 19C18.5114 19.4142 18.1756 19.75 17.7614 19.75H16.8523C16.4381 19.75 16.1023 19.4142 16.1023 19ZM21.9 14H16.345C14.57 14 14.125 14.4144 14.125 16.0671V19.9376C14.125 21.5903 14.57 22.0047 16.345 22H21.905C23.68 22 24.125 21.5856 24.125 19.9329V16.0671C24.125 14.4144 23.68 14 21.9 14Z" fill="color1"/>
</svg>
