<svg width="21" height="20" viewBox="0 0 21 20" fill="none" xmlns="http://www.w3.org/2000/svg">
<path fill-rule="evenodd" clip-rule="evenodd" d="M10.1667 17.0834C14.0596 17.0834 17.25 13.893 17.25 10C17.25 6.10704 14.0596 2.91669 10.1667 2.91669C6.27368 2.91669 3.08332 6.10704 3.08332 10C3.08332 13.893 6.27368 17.0834 10.1667 17.0834ZM18.5 10C18.5 14.5834 14.75 18.3334 10.1667 18.3334C5.58332 18.3334 1.83332 14.5834 1.83332 10C1.83332 5.41669 5.58332 1.66669 10.1667 1.66669C14.75 1.66669 18.5 5.41669 18.5 10ZM10.165 13.9584C9.81985 13.9584 9.54003 13.6785 9.54003 13.3334L9.54003 9.16669C9.54003 8.82151 9.81985 8.54169 10.165 8.54169C10.5102 8.54169 10.79 8.82151 10.79 9.16669L10.79 13.3334C10.79 13.6785 10.5102 13.9584 10.165 13.9584ZM10.1695 7.50002C10.6297 7.50002 11.0028 7.12692 11.0028 6.66669C11.0028 6.20645 10.6297 5.83335 10.1695 5.83335H10.162C9.70178 5.83335 9.32868 6.20645 9.32868 6.66669C9.32868 7.12692 9.70178 7.50002 10.162 7.50002H10.1695Z" fill="currentColor"/>
</svg>
