<svg width="16" height="16" viewBox="0 0 16 16" fill="none" xmlns="http://www.w3.org/2000/svg">
<path d="M11 13.8333H4.99999C4.49999 13.8333 4.13332 13.8133 3.81999 13.7666C1.60666 13.5266 1.16666 12.2 1.16666 9.99996V5.99996C1.16666 3.79996 1.60666 2.47329 3.83999 2.22663C4.13332 2.18663 4.49999 2.16663 4.99999 2.16663H11C11.5 2.16663 11.8667 2.18663 12.18 2.23329C14.3933 2.47329 14.8333 3.79996 14.8333 5.99996V9.99996C14.8333 12.2 14.3933 13.5266 12.16 13.7733C11.8667 13.8133 11.5 13.8333 11 13.8333ZM4.99999 3.16663C4.54666 3.16663 4.22666 3.18663 3.96666 3.21996C2.61332 3.37329 2.16666 3.79329 2.16666 5.99996V9.99996C2.16666 12.2066 2.61332 12.6266 3.94666 12.78C4.22666 12.82 4.54666 12.8333 4.99999 12.8333H11C11.4533 12.8333 11.7733 12.8133 12.0333 12.78C13.3867 12.6333 13.8333 12.2066 13.8333 9.99996V5.99996C13.8333 3.79329 13.3867 3.37329 12.0533 3.21996C11.7733 3.17996 11.4533 3.16663 11 3.16663H4.99999Z" fill="currentColor"/>
<path d="M11.3333 7.16663H9C8.72667 7.16663 8.5 6.93996 8.5 6.66663C8.5 6.39329 8.72667 6.16663 9 6.16663H11.3333C11.6067 6.16663 11.8333 6.39329 11.8333 6.66663C11.8333 6.93996 11.6067 7.16663 11.3333 7.16663Z" fill="currentColor"/>
<path d="M6.73335 7.33333C6.36668 7.33333 6.06668 7.03333 6.06668 6.66667C6.06668 6.3 6.36001 6 6.73335 6H6.74001C7.10668 6 7.40668 6.3 7.40668 6.66667C7.40668 7.03333 7.10668 7.33333 6.73335 7.33333Z" fill="currentColor"/>
<path d="M4.73335 7.33333C4.36668 7.33333 4.06668 7.03333 4.06668 6.66667C4.06668 6.3 4.36001 6 4.73335 6C5.10001 6 5.40001 6.3 5.40001 6.66667C5.40001 7.03333 5.10668 7.33333 4.73335 7.33333Z" fill="currentColor"/>
<path d="M11.3333 10.8334H4.68001C4.40667 10.8334 4.17334 10.6067 4.17334 10.3334C4.17334 10.06 4.39334 9.83337 4.66667 9.83337H11.3333C11.6067 9.83337 11.8333 10.06 11.8333 10.3334C11.8333 10.6067 11.6067 10.8334 11.3333 10.8334Z" fill="currentColor"/>
</svg>
