<svg width="24" height="24" viewBox="0 0 24 24" fill="none" xmlns="http://www.w3.org/2000/svg">
    <path d="M22 4.83333C22 4.37292 21.6271 4 21.1667 4H10.3333V12.3333H2V18.1667C2 18.6271 2.37292 19 2.83333 19H21.1667C21.6271 19 22 18.6271 22 18.1667V4.83333Z" fill="#F83142"/>
    <path d="M21.9997 5.66675H10.333V7.33341H21.9997V5.66675Z" fill="white"/>
    <path d="M21.9997 9H10.333V10.6667H21.9997V9Z" fill="white"/>
    <path d="M2 12.3334V14H22V12.3334H10.3333H2Z" fill="white"/>
    <path d="M22 15.6666H2V17.3333H22V15.6666Z" fill="white"/>
    <path d="M10.3333 12.3333H2V4.83333C2 4.37292 2.37292 4 2.83333 4H10.3333V12.3333Z" fill="#1435C3"/>
    <path d="M6.16678 7.30078L5.90303 7.87078H5.27637L5.7347 8.34578L5.56553 9.03245L6.16678 8.69161L6.76803 9.03245L6.59887 8.34578L7.0572 7.87078H6.4297L6.16678 7.30078Z" fill="white"/>
    <path d="M4.12828 5.26208L3.86495 5.83209H3.23828L3.6962 6.30708L3.52703 6.99375L4.12828 6.65292L4.72995 6.99375L4.56036 6.30708L5.0187 5.83209H4.3912L4.12828 5.26208Z" fill="white"/>
    <path d="M8.20487 5.26208L8.4682 5.83209H9.09487L8.63695 6.30708L8.80612 6.99375L8.20487 6.65292L7.6032 6.99375L7.77279 6.30708L7.31445 5.83209H7.94195L8.20487 5.26208Z" fill="white"/>
    <path d="M4.12828 11.0713L3.86495 10.5013H3.23828L3.6962 10.0263L3.52703 9.3396L4.12828 9.68043L4.72995 9.3396L4.56036 10.0263L5.0187 10.5013H4.3912L4.12828 11.0713Z" fill="white"/>
    <path d="M8.20487 11.0713L8.4682 10.5013H9.09487L8.63695 10.0263L8.80612 9.3396L8.20487 9.68043L7.6032 9.3396L7.77279 10.0263L7.31445 10.5013H7.94195L8.20487 11.0713Z" fill="white"/>
</svg>
