<svg width="25" height="24" viewBox="0 0 25 24" fill="none" xmlns="http://www.w3.org/2000/svg">
<path fill-rule="evenodd" clip-rule="evenodd" d="M19.0836 8.83119L19.0836 8.83112C18.2865 5.30941 15.3045 3.50212 12.1693 3.5C9.03457 3.49788 6.05081 5.30067 5.24939 8.82192C4.2854 13.082 6.91245 16.8719 9.59642 19.4589C11.0374 20.842 13.2978 20.8381 14.7249 19.4607L14.7276 19.4581C17.4215 16.8712 20.0479 13.0909 19.0836 8.83119ZM8.55658 20.54C5.79658 17.88 2.63658 13.57 3.78658 8.49C5.75658 -0.169998 18.5866 -0.159997 20.5466 8.5C21.6966 13.58 18.5366 17.88 15.7666 20.54C13.7566 22.48 10.5766 22.48 8.55658 20.54Z" fill="color2"/>
<path fill-rule="evenodd" clip-rule="evenodd" d="M12.1666 7.5C11.4763 7.5 10.9166 8.05964 10.9166 8.75C10.9166 9.44036 11.4763 10 12.1666 10C12.857 10 13.4166 9.44036 13.4166 8.75C13.4166 8.05964 12.857 7.5 12.1666 7.5ZM9.41663 8.75C9.41663 7.23122 10.6478 6 12.1666 6C13.6854 6 14.9166 7.23122 14.9166 8.75C14.9166 10.2688 13.6854 11.5 12.1666 11.5C10.6478 11.5 9.41663 10.2688 9.41663 8.75Z" fill="color1"/>
</svg>
