<svg width="21" height="20" viewBox="0 0 21 20" fill="none" xmlns="http://www.w3.org/2000/svg">
<path fill-rule="evenodd" clip-rule="evenodd" d="M6.91671 7.29166V8.33332H14.4167V7.29166C14.4167 5.79696 14.2035 4.72847 13.7129 4.0432C13.289 3.45118 12.4856 2.91666 10.6667 2.91666C8.84782 2.91666 8.04444 3.45118 7.62054 4.0432C7.12987 4.72847 6.91671 5.79696 6.91671 7.29166ZM5.66671 7.29166V8.35439C3.0247 8.50184 2.33337 9.46392 2.33337 12.5V14.1667C2.33337 17.5 3.16671 18.3333 6.50004 18.3333H14.8334C18.1667 18.3333 19 17.5 19 14.1667V12.5C19 9.46392 18.3087 8.50184 15.6667 8.35439V7.29166C15.6667 4.18853 14.8334 1.66666 10.6667 1.66666C6.50004 1.66666 5.66671 4.18853 5.66671 7.29166ZM14.8334 17.0833C16.509 17.0833 17.0553 16.8436 17.2828 16.6161C17.5103 16.3886 17.75 15.8423 17.75 14.1667V12.5C17.75 10.8244 17.5103 10.278 17.2828 10.0505C17.0553 9.82305 16.509 9.58332 14.8334 9.58332H6.50004C4.82444 9.58332 4.27808 9.82305 4.05059 10.0505C3.8231 10.278 3.58337 10.8244 3.58337 12.5V14.1667C3.58337 15.8423 3.8231 16.3886 4.05059 16.6161C4.27808 16.8436 4.82444 17.0833 6.50004 17.0833H14.8334ZM9.82971 13.3333C9.82971 12.8731 10.2028 12.5 10.663 12.5H10.6705C11.1308 12.5 11.5039 12.8731 11.5039 13.3333C11.5039 13.7936 11.1308 14.1667 10.6705 14.1667H10.663C10.2028 14.1667 9.82971 13.7936 9.82971 13.3333Z" fill="currentColor"/>
</svg>
