<svg width="25" height="24" viewBox="0 0 25 24" fill="none" xmlns="http://www.w3.org/2000/svg">
<path fill-rule="evenodd" clip-rule="evenodd" d="M16.1667 4.5H8.16669C6.78597 4.5 5.66669 5.61929 5.66669 7V17C5.66669 18.3807 6.78598 19.5 8.16669 19.5H16.1667C17.5474 19.5 18.6667 18.3807 18.6667 17V7C18.6667 5.61929 17.5474 4.5 16.1667 4.5ZM8.16669 3C5.95755 3 4.16669 4.79086 4.16669 7V17C4.16669 19.2091 5.95755 21 8.16669 21H16.1667C18.3758 21 20.1667 19.2091 20.1667 17V7C20.1667 4.79086 18.3758 3 16.1667 3H8.16669Z" fill="color1"/>
<path fill-rule="evenodd" clip-rule="evenodd" d="M9.45908 8.42785C9.24139 8.02931 8.74281 7.88376 8.34553 8.10016C7.94735 8.31705 7.7993 8.81665 8.01749 9.21611L11.5093 15.609C11.7941 16.1303 12.5395 16.1303 12.8242 15.609L16.316 9.21611C16.5342 8.81665 16.3862 8.31705 15.988 8.10016C15.5907 7.88376 15.0921 8.02931 14.8744 8.42785L12.1668 13.3851L9.45908 8.42785Z" fill="color1"/>
</svg>
