<svg width="53" height="26" viewBox="0 0 53 26" fill="none" xmlns="http://www.w3.org/2000/svg">
<path d="M18.8986 17.2013C17.4597 17.2013 15.541 16.251 15.541 13.463C15.541 10.5928 17.6498 9.72574 18.9089 9.72574C19.5602 9.70145 20.2068 9.8478 20.7875 10.151L20.2448 11.1733C19.9277 11.0376 19.5889 10.9632 19.2454 10.9538C18.1692 10.9538 17.2818 11.9842 17.2818 13.4538C17.2818 14.6742 18.0911 15.9005 19.232 15.9005C19.5695 15.9144 19.9047 15.8386 20.205 15.6803L20.7817 16.7711C20.1708 17.0887 19.4895 17.237 18.8054 17.2013" fill="currentColor"/>
<path d="M35.2781 17.0459V12.0145C35.2905 11.8869 35.2758 11.758 35.235 11.6368C35.1941 11.5155 35.1281 11.4048 35.0415 11.3122C34.9548 11.2196 34.8496 11.1474 34.7332 11.1006C34.6167 11.0537 34.4916 11.0333 34.3667 11.0407C34.2133 11.0317 34.0598 11.0583 33.9178 11.1184C33.7758 11.1786 33.6489 11.2709 33.5465 11.3884V17.0459H31.7961V11.9868C31.8013 11.8601 31.7808 11.7338 31.7358 11.6157C31.6908 11.4976 31.6223 11.3904 31.5347 11.3009C31.4317 11.2086 31.3119 11.138 31.1821 11.0934C31.0524 11.0487 30.9154 11.0308 30.7788 11.0407C30.5285 11.0384 30.2799 11.0837 30.0456 11.1742V17.0459H28.3086V10.0799C28.9817 9.90222 29.669 9.78672 30.3622 9.7347C30.9238 9.69256 31.4881 9.76269 32.0236 9.94119C32.3038 10.0547 32.5563 10.2299 32.7633 10.4542C32.9975 10.2378 33.2676 10.066 33.5609 9.94715C33.9688 9.79282 34.4022 9.72127 34.8368 9.73645C35.4439 9.73056 36.0288 9.97029 36.4645 10.4037C36.6566 10.6217 36.8048 10.8765 36.9008 11.1533C36.9967 11.4301 37.0385 11.7236 37.0237 12.017V17.0483L35.2781 17.0459Z" fill="currentColor"/>
<path d="M27.7107 25.6224C27.7107 25.6224 26.6081 25.7629 25.8585 25.7629C23.2889 25.7629 22.2192 24.8266 22.2192 23.2758C22.2192 22.0467 23.4184 20.8998 25.9568 20.8998V20.5739C25.9568 20.2065 25.6663 19.5934 24.6635 19.5934C24.1761 19.5969 23.6958 19.7134 23.2587 19.9344C23.2515 19.9059 22.6862 18.8411 22.6862 18.8411C23.4252 18.4647 24.2428 18.2793 25.0677 18.301C26.3296 18.301 27.7114 19.0076 27.7114 20.5739L27.7107 25.6224ZM25.9582 21.8244C24.5898 21.8244 23.9433 22.3119 23.9433 23.2773C23.9394 23.4652 23.9739 23.6519 24.0444 23.8254C24.1149 23.9989 24.2199 24.1555 24.3528 24.2851C24.4857 24.4146 24.6434 24.5144 24.816 24.578C24.9886 24.6415 25.1723 24.6675 25.3552 24.6542C25.5594 24.6537 25.7624 24.6233 25.9582 24.564V21.8244Z" fill="currentColor"/>
<path d="M21.2838 24.7516C20.7239 25.3728 19.7238 25.7637 18.2287 25.7637C17.0833 25.7637 15.8184 25.6232 15.8184 25.6232V17.7954C15.8184 17.7954 16.9648 17.6613 17.7901 17.6613C19.7595 17.6613 20.2264 18.0146 20.5821 18.2386C20.8493 18.3795 21.0754 18.5904 21.2373 18.8499C21.3992 19.1094 21.4911 19.4083 21.5037 19.716C21.5037 20.9666 20.3635 21.2931 20.039 21.4315V21.4537C20.3515 21.5242 20.6465 21.6598 20.9058 21.8519C21.1651 22.0441 21.3832 22.2887 21.5465 22.5707C21.6792 22.9287 21.7245 23.3144 21.6785 23.6944C21.6324 24.0744 21.4965 24.4371 21.2824 24.7509L21.2838 24.7516ZM19.7591 19.7462C19.7591 19.086 19.2904 18.7552 18.412 18.7552C18.1272 18.7534 17.8432 18.7846 17.5654 18.8482V21.048H17.8052C19.4251 21.048 19.7608 20.392 19.7608 19.7462H19.7591ZM19.9839 23.4059C19.9839 22.7888 19.7389 21.9534 17.8052 21.9534H17.5654V24.5721C18.1611 24.7244 18.7893 24.6705 19.3521 24.4187C19.5396 24.328 19.6983 24.1847 19.8098 24.0055C19.9213 23.8263 19.981 23.6184 19.9822 23.4059" fill="currentColor"/>
<path d="M32.4886 25.6221V21.1937C32.4886 20.2652 32.3515 19.8062 31.6118 19.6362C31.2339 19.584 30.8494 19.62 30.487 19.7416V25.6221H28.7544V18.6505C29.4243 18.4866 30.1061 18.3782 30.793 18.3263C32.0898 18.2582 32.7356 18.418 33.3783 18.8531C33.6424 19.0448 33.8573 19.2991 34.0045 19.5945C34.1518 19.8898 34.2271 20.2173 34.2239 20.5489V25.6221H32.4886Z" fill="currentColor"/>
<path d="M27.4303 13.4655C27.4303 11.1232 26.225 9.72726 24.1384 9.72726C22.0519 9.72726 20.8027 11.1232 20.8027 13.4655C20.8027 15.8079 22.0536 17.2042 24.1384 17.2042C26.2232 17.2042 27.4303 15.8096 27.4303 13.4655ZM25.6775 13.4655C25.6775 15.3675 24.8552 15.9094 24.1384 15.9094C23.4217 15.9094 22.5556 15.3675 22.5556 13.4655C22.5556 11.5635 23.4241 11.0224 24.1384 11.0224C24.8528 11.0224 25.6775 11.5656 25.6775 13.4655Z" fill="currentColor"/>
<path d="M39.3387 25.6228L37.0151 22.8134H36.9993L37.0219 25.6228H35.2773V17.8021H37.0219L36.9993 20.8092H37.0237L39.0591 18.4676H41.4379L38.1923 21.8059L41.6685 25.6228H39.3387Z" fill="currentColor"/>
<path d="M37.0377 8.27447C36.5385 8.85111 37.714 9.52116 38.4746 9.80527C39.72 10.2508 41.0157 10.5321 42.3304 10.6425L42.3263 6.58459C39.8221 6.84657 37.849 7.47835 37.0377 8.27447Z" fill="currentColor"/>
<path d="M7.11801 10.5611C7.12929 11.5626 6.77069 12.5314 6.11414 13.2732C5.40082 13.957 4.71833 14.1944 2.9405 14.1628H2.61776V17.046H0.169434V7.0693C0.169434 7.0693 1.49912 6.90849 2.89733 6.90006C4.87114 6.88882 5.64168 7.26283 6.22413 7.83069C6.66439 8.26088 7.11801 9.31649 7.11801 10.5611ZM4.71251 10.5133C4.71251 8.70194 3.83165 8.26966 3.22762 8.237C3.0032 8.22541 2.61776 8.24823 2.61776 8.24823V12.7647H2.95078C3.77306 12.7647 4.71251 12.0817 4.71251 10.5133Z" fill="currentColor"/>
<path d="M12.8747 17.045H10.8084L7.33838 7.04446H10.2849C10.2849 7.04446 11.9006 12.9794 11.9195 13.1149H11.9349C11.9537 12.979 13.638 7.04446 13.638 7.04446H16.3282L12.8747 17.045Z" fill="currentColor"/>
<path d="M47.4223 11.5699C49.9262 11.3094 51.8993 10.6776 52.7116 9.88076C53.2094 9.30447 52.0339 8.63481 51.2726 8.35035C50.0271 7.90478 48.7313 7.62333 47.4165 7.51279L47.4223 11.5699Z" fill="currentColor"/>
<path d="M44.8774 11.7001C41.4372 11.7036 38.49 11.0328 37.2566 10.0846C37.246 10.0773 37.2402 10.0846 37.2378 10.0871C37.2379 10.0924 37.2395 10.0975 37.2426 10.1018L44.886 17.9212L52.724 9.86691C51.6663 10.9247 48.5557 11.6969 44.8781 11.7008" fill="currentColor"/>
<path d="M37.2378 10.1032C37.2378 10.1088 37.2395 10.1142 37.2426 10.1187V10.1011L37.2405 10.0994L37.2388 10.1018L37.2378 10.1032ZM44.8791 11.7001C41.4389 11.7036 38.4918 11.0328 37.2583 10.0846C37.2477 10.0773 37.2419 10.0846 37.2395 10.0871C37.2394 10.0916 37.2403 10.096 37.2422 10.1001C37.2457 10.0969 37.2505 10.0959 37.2583 10.1018C38.4918 11.1336 41.4383 11.8578 44.8791 11.8549C48.5574 11.8507 51.668 11.0121 52.725 9.86691C51.6674 10.9247 48.5568 11.6969 44.8791 11.7008" fill="currentColor"/>
<path d="M47.418 7.6522C48.7241 7.75698 50.0135 8.02094 51.2587 8.43849C51.899 8.66289 52.8313 9.14083 52.8303 9.61C52.858 9.10781 51.9165 8.59161 51.2741 8.35035C50.0286 7.90478 48.7328 7.62333 47.418 7.51279V7.6522Z" fill="currentColor"/>
<path d="M37.0249 8.29028C38.0812 7.23323 41.1928 6.45994 44.8708 6.45572C48.3093 6.45256 51.2568 7.12085 52.4898 8.07114C52.5005 8.07957 52.5063 8.0736 52.508 8.07114C52.509 8.06593 52.508 8.06055 52.5053 8.05605L44.8615 0.236359L37.0249 8.29028Z" fill="currentColor"/>
<path d="M52.5067 8.05621V8.05797L52.5091 8.05338C52.51 8.04806 52.509 8.04262 52.5064 8.03795L52.5067 8.05621ZM44.8722 6.3031C41.1929 6.30661 38.0813 7.14594 37.0264 8.29079C38.0826 7.23374 41.1943 6.46044 44.8722 6.45623C48.3107 6.45307 51.2582 7.12135 52.4913 8.07164C52.5019 8.08007 52.5078 8.0741 52.5095 8.07164C52.5101 8.06937 52.5102 8.06701 52.5097 8.0647C52.5093 8.06239 52.5084 8.06021 52.5071 8.05831C52.5043 8.06077 52.4989 8.06253 52.4913 8.05621C51.2603 7.02725 48.3241 6.30384 44.8956 6.30349H44.8722" fill="currentColor"/>
<path d="M44.8861 17.8151L37.2581 10.084C37.2475 10.0766 37.2417 10.084 37.2393 10.0864C37.2393 10.0917 37.241 10.0969 37.2441 10.1012L44.8874 17.9205L52.7254 9.86624L44.8861 17.8151Z" fill="currentColor"/>
<path d="M38.4742 9.80615C39.7196 10.2517 41.0153 10.533 42.33 10.6434V10.5029C41.0241 10.3978 39.7352 10.1336 38.4903 9.71591C37.8496 9.49151 36.918 9.01355 36.9191 8.54367C36.891 9.04656 37.8321 9.56208 38.4752 9.80439" fill="currentColor"/>
</svg>
