<svg width="24" height="24" viewBox="0 0 24 24" fill="none" xmlns="http://www.w3.org/2000/svg">
<path fill-rule="evenodd" clip-rule="evenodd" d="M18.4307 8.17865C18.1378 7.88576 17.663 7.88576 17.3701 8.17865C17.0772 8.47155 17.0772 8.94642 17.3701 9.23931L19.4393 11.3086L8 11.3086C7.58579 11.3086 7.25 11.6444 7.25 12.0586C7.25 12.4728 7.58579 12.8086 8 12.8086L19.4401 12.8086L17.3701 14.8787C17.0772 15.1715 17.0772 15.6464 17.3701 15.9393C17.663 16.2322 18.1378 16.2322 18.4307 15.9393L21.7807 12.5893C22.0736 12.2964 22.0736 11.8215 21.7807 11.5287L18.4307 8.17865Z" fill="currentColor"/>
<path fill-rule="evenodd" clip-rule="evenodd" d="M13.1038 19.5096C13.8852 18.8891 14.37 17.8887 14.5135 16.2576C14.5498 15.845 14.9113 15.5402 15.321 15.5767C15.7307 15.6133 16.0334 15.9774 15.997 16.39C15.8328 18.2568 15.2452 19.7194 14.0259 20.6876C12.8316 21.6359 11.1647 22 9.08934 22H8.96026C6.67189 22 4.87642 21.5568 3.66917 20.3754C2.45659 19.1888 2 17.418 2 15.1675L2 8.83246C2 6.58197 2.45659 4.81123 3.66918 3.62462C4.87643 2.44322 6.6719 2 8.96026 2L9.08934 2C11.1497 2 12.8065 2.35922 13.9983 3.29224C15.2159 4.24546 15.8113 5.68668 15.9866 7.52685C16.0259 7.93917 15.7259 8.30549 15.3165 8.34505C14.9071 8.38461 14.5434 8.08242 14.5041 7.6701C14.3517 6.07067 13.8649 5.08765 13.0843 4.47654C12.2778 3.84521 11.0205 3.5 9.08934 3.5H8.96026C6.81035 3.5 5.49802 3.92639 4.70705 4.70042C3.92142 5.46923 3.48936 6.73972 3.48936 8.83246L3.48936 15.1675C3.48936 17.2603 3.92142 18.5308 4.70705 19.2996C5.49802 20.0736 6.81034 20.5 8.96026 20.5H9.08934C11.0352 20.5 12.2974 20.1499 13.1038 19.5096Z" fill="currentColor"/>
</svg>
