<svg width="26" height="26" viewBox="0 0 26 26" fill="none" xmlns="http://www.w3.org/2000/svg">
<path fill-rule="evenodd" clip-rule="evenodd" d="M11.75 4.5C15.1964 4.5 18 7.3169 18 10.8038C18 12.5509 17.1363 14.1346 15.8579 15.6529C14.9505 16.7305 13.9013 17.7035 12.8782 18.6523C12.4997 19.0033 12.1247 19.351 11.7618 19.6995C11.3797 19.3333 10.9852 18.9696 10.5876 18.6032C9.57482 17.6696 8.54244 16.718 7.6459 15.6607C6.36549 14.1506 5.5 12.5704 5.5 10.8038C5.5 7.3169 8.30363 4.5 11.75 4.5ZM19.5 10.8038C19.5 6.49933 16.0356 3 11.75 3C7.46439 3 4 6.49933 4 10.8038C4 13.0874 5.12395 15.0058 6.50183 16.6308C7.45991 17.7606 8.60863 18.8201 9.65103 19.7815C10.0872 20.1838 10.5048 20.5689 10.8821 20.9349C11.3721 21.4103 12.1521 21.4108 12.6424 20.9344C13.0053 20.5818 13.4055 20.2106 13.8235 19.8228C14.8729 18.8494 16.0352 17.7712 17.0053 16.6191C18.3775 14.9894 19.5 13.0679 19.5 10.8038Z" fill="white"/>
<path fill-rule="evenodd" clip-rule="evenodd" d="M11.75 8.5C12.9926 8.5 14 9.50736 14 10.75C14 11.9926 12.9926 13 11.75 13C10.5074 13 9.5 11.9926 9.5 10.75C9.5 9.50736 10.5074 8.5 11.75 8.5ZM15.5 10.75C15.5 8.67893 13.8211 7 11.75 7C9.67893 7 8 8.67893 8 10.75C8 12.8211 9.67893 14.5 11.75 14.5C13.8211 14.5 15.5 12.8211 15.5 10.75Z" fill="white"/>
</svg>
