<svg width="24" height="24" viewBox="0 0 24 24" fill="none" xmlns="http://www.w3.org/2000/svg">
<path fill-rule="evenodd" clip-rule="evenodd" d="M7.5 8.75V10H16.5V8.75C16.5 6.95636 16.2442 5.67418 15.6554 4.85185C15.1467 4.14143 14.1827 3.5 12 3.5C9.81734 3.5 8.85328 4.14143 8.3446 4.85185C7.7558 5.67418 7.5 6.95636 7.5 8.75ZM6 8.75V10.0253C2.82959 10.2022 2 11.3567 2 15V17C2 21 3 22 7 22H17C21 22 22 21 22 17V15C22 11.3567 21.1704 10.2022 18 10.0253V8.75C18 5.02625 17 2 12 2C7 2 6 5.02625 6 8.75ZM17 20.5C19.0107 20.5 19.6664 20.2123 19.9393 19.9393C20.2123 19.6664 20.5 19.0107 20.5 17V15C20.5 12.9893 20.2123 12.3336 19.9393 12.0607C19.6664 11.7877 19.0107 11.5 17 11.5H7C4.98928 11.5 4.33365 11.7877 4.06066 12.0607C3.78767 12.3336 3.5 12.9893 3.5 15V17C3.5 19.0107 3.78767 19.6664 4.06066 19.9393C4.33365 20.2123 4.98928 20.5 7 20.5H17Z" fill="color2"/>
<path fill-rule="evenodd" clip-rule="evenodd" d="M5 16C5 15.4477 5.44571 15 5.99553 15H6.00447C6.55429 15 7 15.4477 7 16C7 16.5523 6.55429 17 6.00447 17H5.99553C5.44571 17 5 16.5523 5 16ZM9 16C9 15.4477 9.44571 15 9.99553 15H10.0045C10.5543 15 11 15.4477 11 16C11 16.5523 10.5543 17 10.0045 17H9.99553C9.44571 17 9 16.5523 9 16ZM13.9955 15C13.4457 15 13 15.4477 13 16C13 16.5523 13.4457 17 13.9955 17H14.0045C14.5543 17 15 16.5523 15 16C15 15.4477 14.5543 15 14.0045 15H13.9955ZM17 16C17 15.4477 17.4457 15 17.9955 15H18.0045C18.5543 15 19 15.4477 19 16C19 16.5523 18.5543 17 18.0045 17H17.9955C17.4457 17 17 16.5523 17 16Z" fill="color1"/>
</svg>
