<svg width="24" height="24" viewBox="0 0 24 24" fill="none" xmlns="http://www.w3.org/2000/svg">
<path d="M10.1769 13.1804H11.6769V11.8487C11.6769 11.7917 11.6808 11.7355 11.6882 11.6804H10.9351H10.182C10.1786 11.7361 10.1769 11.7922 10.1769 11.8487V13.1804Z" fill="color2"/>
<path d="M12.3258 9.16464V10.7525C12.5042 10.6545 12.709 10.5987 12.9269 10.5987H13.8258V9.09874H12.9269C12.7204 9.09874 12.5193 9.1215 12.3258 9.16464Z" fill="color2"/>
<path fill-rule="evenodd" clip-rule="evenodd" d="M4.75 2C3.23122 2 2 3.23122 2 4.75V11.1397C2 12.2317 2.85765 13.1233 3.93608 13.1778V14.1516C3.93608 14.4282 4.08833 14.6824 4.33221 14.8129C4.57609 14.9434 4.87201 14.9291 5.10215 14.7756L7.49464 13.1804H10.1769V17.5292C10.1769 19.0479 11.4081 20.2792 12.9269 20.2792H16.5081L18.9006 21.8744C19.1307 22.0278 19.4266 22.0421 19.6705 21.9116C19.9144 21.7811 20.0666 21.5269 20.0666 21.2503V20.2765C21.1451 20.2221 22.0027 19.3304 22.0027 18.2384V11.8487C22.0027 10.33 20.7715 9.09874 19.2527 9.09874H13.8258V4.75C13.8258 3.23122 12.5946 2 11.0758 2H4.75ZM11.6769 13.1804V17.5292C11.6769 18.2195 12.2366 18.7792 12.9269 18.7792H16.7352C16.8833 18.7792 17.028 18.823 17.1512 18.9051L18.5998 19.8709C18.7383 19.2463 19.2956 18.7792 19.962 18.7792C20.2606 18.7792 20.5027 18.5371 20.5027 18.2384V11.8487C20.5027 11.1584 19.9431 10.5987 19.2527 10.5987H13.8258V9.09874H12.9269C12.7204 9.09874 12.5193 9.1215 12.3258 9.16464V4.75C12.3258 4.05964 11.7661 3.5 11.0758 3.5H4.75C4.05965 3.5 3.5 4.05965 3.5 4.75V11.1397C3.5 11.4383 3.74209 11.6804 4.04072 11.6804C4.7071 11.6804 5.26437 12.1475 5.40297 12.7722L6.85147 11.8064C6.97468 11.7243 7.11945 11.6804 7.26753 11.6804H10.182C10.1786 11.7361 10.1769 11.7922 10.1769 11.8487V13.1804H11.6769ZM11.6882 11.6804H10.9351H10.182C10.2567 10.4434 11.1491 9.42703 12.3258 9.16464V10.7525C11.9858 10.9394 11.7421 11.2798 11.6882 11.6804Z" fill="color2"/>
<path fill-rule="evenodd" clip-rule="evenodd" d="M6.69656 5.41782C6.54272 5.03324 6.10624 4.84617 5.72166 5.00001C5.33707 5.15384 5.15001 5.59032 5.30384 5.97491L7.30384 10.2786L7.30479 10.2809C7.34405 10.3781 7.40141 10.4627 7.47142 10.5322C7.53718 10.5976 7.61619 10.6517 7.70649 10.6901C7.72218 10.6968 7.7381 10.7029 7.75421 10.7085C7.8331 10.736 7.91375 10.7495 7.99334 10.7502C8.08833 10.7511 8.18507 10.7338 8.27874 10.6964C8.37692 10.6571 8.46223 10.5994 8.53228 10.5289C8.59875 10.462 8.65361 10.3816 8.69211 10.2894L8.69661 10.2784L10.5 5.99999C10.6538 5.61541 10.4668 5.17893 10.0822 5.02509C9.6976 4.87126 9.26112 5.05832 9.10729 5.44291L7.96624 8.14996L6.69656 5.41782ZM15.3701 16V15.5H17.6201C18.0343 15.5 18.3701 15.1642 18.3701 14.75C18.3701 14.3358 18.0343 14 17.6201 14H15.3701V13.5H17.6201C18.0343 13.5 18.3701 13.1642 18.3701 12.75C18.3701 12.3358 18.0343 12 17.6201 12H14.6201C14.2059 12 13.8701 12.3358 13.8701 12.75V14.75V16.75C13.8701 17.1642 14.2059 17.5 14.6201 17.5H17.6201C18.0343 17.5 18.3701 17.1642 18.3701 16.75C18.3701 16.3358 18.0343 16 17.6201 16H15.3701Z" fill="color1"/>
</svg>
