<svg width="24" height="24" viewBox="0 0 24 24" fill="none" xmlns="http://www.w3.org/2000/svg">
<path fill-rule="evenodd" clip-rule="evenodd" d="M7.5 10V8.75C7.5 6.95636 7.7558 5.67418 8.3446 4.85185C8.85328 4.14143 9.81734 3.5 12 3.5C14.1827 3.5 15.1467 4.14143 15.6554 4.85185C16.2442 5.67418 16.5 6.95636 16.5 8.75V10H7.5ZM6 10.0253V8.75C6 5.02625 7 2 12 2C17 2 18 5.02625 18 8.75V10.0253C21.1704 10.2022 22 11.3567 22 15V17C22 21 21 22 17 22H7C3 22 2 21 2 17V15C2 11.3567 2.82959 10.2022 6 10.0253ZM5.99553 15C5.44571 15 5 15.4477 5 16C5 16.5523 5.44571 17 5.99553 17H6.00447C6.55429 17 7 16.5523 7 16C7 15.4477 6.55429 15 6.00447 15H5.99553ZM9.99553 15C9.44571 15 9 15.4477 9 16C9 16.5523 9.44571 17 9.99553 17H10.0045C10.5543 17 11 16.5523 11 16C11 15.4477 10.5543 15 10.0045 15H9.99553ZM13 16C13 15.4477 13.4457 15 13.9955 15H14.0045C14.5543 15 15 15.4477 15 16C15 16.5523 14.5543 17 14.0045 17H13.9955C13.4457 17 13 16.5523 13 16ZM17.9955 15C17.4457 15 17 15.4477 17 16C17 16.5523 17.4457 17 17.9955 17H18.0045C18.5543 17 19 16.5523 19 16C19 15.4477 18.5543 15 18.0045 15H17.9955Z" fill="#3A9EFC"/>
</svg>
