<svg width="14" height="4" viewBox="0 0 14 4" fill="none" xmlns="http://www.w3.org/2000/svg">
<path d="M0.5 2C0.5 1.17157 1.16857 0.5 1.99329 0.5H2.00671C2.83143 0.5 3.5 1.17157 3.5 2C3.5 2.82843 2.83143 3.5 2.00671 3.5H1.99329C1.16857 3.5 0.5 2.82843 0.5 2Z" fill="currentColor"/>
<path d="M5.5 2C5.5 1.17157 6.16857 0.5 6.99329 0.5H7.00671C7.83143 0.5 8.5 1.17157 8.5 2C8.5 2.82843 7.83143 3.5 7.00671 3.5H6.99329C6.16857 3.5 5.5 2.82843 5.5 2Z" fill="currentColor"/>
<path d="M10.5 2C10.5 1.17157 11.1686 0.5 11.9933 0.5H12.0067C12.8314 0.5 13.5 1.17157 13.5 2C13.5 2.82843 12.8314 3.5 12.0067 3.5H11.9933C11.1686 3.5 10.5 2.82843 10.5 2Z" fill="currentColor"/>
</svg>
