<svg width="25" height="24" viewBox="0 0 25 24" fill="none" xmlns="http://www.w3.org/2000/svg">
<path fill-rule="evenodd" clip-rule="evenodd" d="M18.3946 2.21967C18.1017 1.92678 17.6268 1.92678 17.3339 2.21967C17.041 2.51256 17.041 2.98744 17.3339 3.28033L19.7736 5.71997H3.08398C2.66977 5.71997 2.33398 6.05576 2.33398 6.46997C2.33398 6.88418 2.66977 7.21997 3.08398 7.21997H19.7736L17.3339 9.65968C17.041 9.95257 17.041 10.4274 17.3339 10.7203C17.6268 11.0132 18.1017 11.0132 18.3946 10.7203L22.1146 7.0003C22.4075 6.7074 22.4074 6.23253 22.1146 5.93964L18.3946 2.21967ZM7.33428 13.2797C7.62718 13.5726 7.62718 14.0475 7.33429 14.3404L4.89469 16.78H21.584C21.9982 16.78 22.334 17.1158 22.334 17.53C22.334 17.9442 21.9982 18.28 21.584 18.28H4.89458L7.33429 20.7197C7.62718 21.0126 7.62718 21.4875 7.33429 21.7804C7.04139 22.0733 6.56652 22.0733 6.27362 21.7804L2.55365 18.0604C2.47486 17.9816 2.41727 17.8897 2.38087 17.7916C2.35055 17.7102 2.33398 17.622 2.33398 17.53C2.33398 17.4162 2.35935 17.3083 2.40474 17.2116C2.42937 17.1591 2.46045 17.1088 2.49796 17.0619C2.51706 17.0381 2.53759 17.0154 2.55942 16.994L6.27362 13.2797C6.56651 12.9868 7.04139 12.9868 7.33428 13.2797Z" fill="color1"/>
</svg>
