<svg width="24" height="24" viewBox="0 0 24 24" fill="none" xmlns="http://www.w3.org/2000/svg">
<path fill-rule="evenodd" clip-rule="evenodd" d="M21.7583 6.49997C21.3441 6.5015 21.0071 6.16695 21.0055 5.75274L20.9974 3.56364L17.2918 7.29682C17 7.59079 16.5251 7.59255 16.2311 7.30074C15.9371 7.00893 15.9354 6.53406 16.2272 6.24008L19.9331 2.50669L17.7436 2.51478C17.3293 2.51631 16.9923 2.18177 16.9908 1.76755C16.9893 1.35334 17.3238 1.01632 17.738 1.01479L21.738 1.00001C21.8126 0.999729 21.8848 1.01037 21.9529 1.03042C22.0686 1.06439 22.1777 1.12681 22.2693 1.21772C22.4209 1.36815 22.4948 1.56723 22.4908 1.76509L22.5055 5.7472C22.5071 6.16141 22.1725 6.49844 21.7583 6.49997ZM12 3.54786C7.32945 3.54786 3.53846 7.33885 3.53846 12.0094C3.53846 16.68 7.32945 20.4709 12 20.4709C16.6706 20.4709 20.4615 16.68 20.4615 12.0094C20.4615 11.5846 20.8059 11.2402 21.2308 11.2402C21.6556 11.2402 22 11.5846 22 12.0094C22 17.5296 17.5202 22.0094 12 22.0094C6.47978 22.0094 2 17.5296 2 12.0094C2 6.48918 6.47978 2.0094 12 2.0094C12.4248 2.0094 12.7692 2.3538 12.7692 2.77863C12.7692 3.20347 12.4248 3.54786 12 3.54786ZM10.96 9.24964C10.6129 9.24964 10.26 9.56402 10.26 10.0296C10.26 10.3822 10.3357 10.5094 10.3736 10.5577C10.4186 10.615 10.5086 10.6864 10.7494 10.7723L11.25 10.9469V9.24964H10.96ZM11.25 7.74964H10.96C9.70704 7.74964 8.76001 8.81525 8.76001 10.0296C8.76001 10.5971 8.88434 11.0899 9.1939 11.4841C9.49626 11.8691 9.90083 12.0625 10.2485 12.1862L11.25 12.5356V14.7596H11.17C10.6953 14.7596 10.25 14.3472 10.25 13.7596C10.25 13.3454 9.91421 13.0096 9.5 13.0096C9.08579 13.0096 8.75 13.3454 8.75 13.7596C8.75 15.1121 9.80474 16.2596 11.17 16.2596H11.25V16.5094C11.25 16.9236 11.5858 17.2594 12 17.2594C12.4142 17.2594 12.75 16.9236 12.75 16.5094V16.2596H13.05C14.2998 16.2596 15.25 15.2073 15.25 13.9796C15.25 13.4153 15.1248 12.9242 14.8174 12.5305C14.5166 12.1454 14.1139 11.9485 13.7615 11.823L12.75 11.4702V9.24964H12.84C13.3147 9.24964 13.76 9.66209 13.76 10.2496C13.76 10.6639 14.0958 10.9996 14.51 10.9996C14.9242 10.9996 15.26 10.6639 15.26 10.2496C15.26 8.89718 14.2053 7.74964 12.84 7.74964H12.75V7.5094C12.75 7.09519 12.4142 6.7594 12 6.7594C11.5858 6.7594 11.25 7.09519 11.25 7.5094V7.74964ZM12.75 13.0588V14.7596H13.05C13.4002 14.7596 13.75 14.452 13.75 13.9796C13.75 13.634 13.6752 13.505 13.6351 13.4537C13.5886 13.3941 13.4967 13.3212 13.2606 13.237L12.75 13.0588Z" fill="color1"/>
</svg>
