<svg width="24" height="24" viewBox="0 0 24 24" fill="none" xmlns="http://www.w3.org/2000/svg">
<path fill-rule="evenodd" clip-rule="evenodd" d="M8.75 2.75C8.75 2.33579 8.41421 2 8 2C7.58579 2 7.25 2.33579 7.25 2.75V3.53297C4.28458 3.80391 3 5.72376 3 8.5V9.09V17C3 20 4.5 22 8 22H16C19.5 22 21 20 21 17V8.5C21 5.72376 19.7154 3.80391 16.75 3.53297V2.75C16.75 2.33579 16.4142 2 16 2C15.5858 2 15.25 2.33579 15.25 2.75V3.5H8.75V2.75ZM7.25 5.04047V5.75C7.25 6.16421 7.58579 6.5 8 6.5C8.41421 6.5 8.75 6.16421 8.75 5.75V5H15.25V5.75C15.25 6.16421 15.5858 6.5 16 6.5C16.4142 6.5 16.75 6.16421 16.75 5.75V5.04047C17.7493 5.15538 18.3468 5.50097 18.7133 5.89568C19.1623 6.37918 19.4726 7.15984 19.4983 8.34H4.50172C4.52736 7.15984 4.83772 6.37918 5.28669 5.89568C5.65321 5.50097 6.25074 5.15538 7.25 5.04047ZM4.5 9.84V17C4.5 18.2701 4.81773 19.0993 5.28669 19.6043C5.73696 20.0892 6.5359 20.5 8 20.5H16C17.4641 20.5 18.263 20.0892 18.7133 19.6043C19.1823 19.0993 19.5 18.2701 19.5 17V9.84H4.5Z" fill="currentColor"/>
<path d="M11.8864 15.4983C11.8864 15.9259 11.8372 16.2964 11.7388 16.6098C11.6405 16.9232 11.5037 17.1829 11.3286 17.3889C11.1559 17.5948 10.9496 17.7482 10.7097 17.8489C10.4722 17.9496 10.2143 18 9.93599 18C9.6577 18 9.39981 17.9496 9.16231 17.8489C8.92721 17.7482 8.7233 17.5948 8.55057 17.3889C8.37784 17.1829 8.2423 16.9232 8.14394 16.6098C8.04798 16.2964 8 15.9259 8 15.4983C8 15.0707 8.04798 14.7002 8.14394 14.3868C8.2423 14.0734 8.37784 13.8137 8.55057 13.6078C8.7233 13.4018 8.92721 13.2496 9.16231 13.1511C9.39981 13.0504 9.6577 13 9.93599 13C10.2143 13 10.4722 13.0504 10.7097 13.1511C10.9496 13.2496 11.1559 13.4018 11.3286 13.6078C11.5037 13.8137 11.6405 14.0734 11.7388 14.3868C11.8372 14.7002 11.8864 15.0707 11.8864 15.4983ZM10.7349 15.4983C10.7349 15.1603 10.7121 14.8838 10.6665 14.6689C10.6209 14.4518 10.5597 14.2816 10.483 14.1585C10.4086 14.0354 10.3234 13.9514 10.2275 13.9066C10.1315 13.8596 10.0343 13.8361 9.93599 13.8361C9.83763 13.8361 9.74047 13.8596 9.64451 13.9066C9.55095 13.9514 9.46698 14.0354 9.39261 14.1585C9.32064 14.2816 9.26187 14.4518 9.21629 14.6689C9.17311 14.8838 9.15152 15.1603 9.15152 15.4983C9.15152 15.8386 9.17311 16.1162 9.21629 16.3311C9.26187 16.546 9.32064 16.7161 9.39261 16.8415C9.46698 16.9646 9.55095 17.0497 9.64451 17.0967C9.74047 17.1415 9.83763 17.1639 9.93599 17.1639C10.0343 17.1639 10.1315 17.1415 10.2275 17.0967C10.3234 17.0497 10.4086 16.9646 10.483 16.8415C10.5597 16.7161 10.6209 16.546 10.6665 16.3311C10.7121 16.1162 10.7349 15.8386 10.7349 15.4983Z" fill="currentColor"/>
<path d="M16 13.0537V13.4903C16 13.6201 15.9844 13.7253 15.9532 13.8059C15.922 13.8843 15.892 13.9503 15.8633 14.004L14.0424 17.6038C13.992 17.6978 13.9201 17.7784 13.8265 17.8455C13.7354 17.9127 13.613 17.9463 13.4595 17.9463H12.6462L14.5174 14.4439C14.5726 14.3499 14.6278 14.2648 14.683 14.1887C14.7405 14.1104 14.8041 14.0365 14.8737 13.9671H12.567C12.5335 13.9671 12.5011 13.9615 12.4699 13.9503C12.4411 13.9369 12.4147 13.9201 12.3907 13.8999C12.3691 13.8775 12.3511 13.8529 12.3367 13.8261C12.3223 13.797 12.3151 13.7679 12.3151 13.7388V13.0537H16Z" fill="currentColor"/>
</svg>
