<svg width="24" height="24" viewBox="0 0 24 24" fill="none" xmlns="http://www.w3.org/2000/svg">
<path fill-rule="evenodd" clip-rule="evenodd" d="M8.75 2.75C8.75 2.33579 8.41421 2 8 2C7.58579 2 7.25 2.33579 7.25 2.75V3.53297C4.28458 3.80391 3 5.72376 3 8.5V9.09V17C3 20 4.5 22 8 22H16C19.5 22 21 20 21 17V8.5C21 5.72376 19.7154 3.80391 16.75 3.53297V2.75C16.75 2.33579 16.4142 2 16 2C15.5858 2 15.25 2.33579 15.25 2.75V3.5H8.75V2.75ZM7.25 5.04047V5.75C7.25 6.16421 7.58579 6.5 8 6.5C8.41421 6.5 8.75 6.16421 8.75 5.75V5H15.25V5.75C15.25 6.16421 15.5858 6.5 16 6.5C16.4142 6.5 16.75 6.16421 16.75 5.75V5.04047C17.7493 5.15538 18.3468 5.50097 18.7133 5.89568C19.1623 6.37918 19.4726 7.15984 19.4983 8.34H4.50172C4.52736 7.15984 4.83772 6.37918 5.28669 5.89568C5.65321 5.50097 6.25074 5.15538 7.25 5.04047ZM4.5 9.84V17C4.5 18.2701 4.81773 19.0993 5.28669 19.6043C5.73696 20.0892 6.5359 20.5 8 20.5H16C17.4641 20.5 18.263 20.0892 18.7133 19.6043C19.1823 19.0993 19.5 18.2701 19.5 17V9.84H4.5Z" fill="currentColor"/>
<mask id="path-2-inside-1_1987_15305" fill="white">
<path d="M16 14.5C16 15.1922 15.7947 15.8689 15.4101 16.4445C15.0256 17.0201 14.4789 17.4687 13.8394 17.7336C13.1999 17.9985 12.4961 18.0678 11.8172 17.9327C11.1383 17.7977 10.5146 17.4644 10.0251 16.9749C9.53564 16.4854 9.2023 15.8617 9.06725 15.1828C8.9322 14.5039 9.00151 13.8001 9.26642 13.1606C9.53133 12.5211 9.97993 11.9744 10.5555 11.5899C11.1311 11.2053 11.8078 11 12.5 11V14.5H16Z"/>
</mask>
<path d="M16 14.5C16 15.1922 15.7947 15.8689 15.4101 16.4445C15.0256 17.0201 14.4789 17.4687 13.8394 17.7336C13.1999 17.9985 12.4961 18.0678 11.8172 17.9327C11.1383 17.7977 10.5146 17.4644 10.0251 16.9749C9.53564 16.4854 9.2023 15.8617 9.06725 15.1828C8.9322 14.5039 9.00151 13.8001 9.26642 13.1606C9.53133 12.5211 9.97993 11.9744 10.5555 11.5899C11.1311 11.2053 11.8078 11 12.5 11V14.5H16Z" stroke="currentColor" stroke-width="2" stroke-linejoin="round" mask="url(#path-2-inside-1_1987_15305)"/>
</svg>
