<svg width="24" height="24" viewBox="0 0 24 24" fill="none" xmlns="http://www.w3.org/2000/svg">
<path fill-rule="evenodd" clip-rule="evenodd" d="M7.78546 3.54386C7.23975 4.3047 6.96875 5.26313 6.8291 6.25655C6.68774 6.26238 6.54555 6.2726 6.40368 6.28924C5.03953 6.404 3.90574 6.86156 3.12119 7.75019C2.33865 8.63654 2 9.84293 2 11.2575V14.8127C2 16.6618 2.37862 18.0119 3.3738 18.8487C4.3347 19.6567 5.68991 19.8202 7.17131 19.8202H7.51511L7.51996 19.8219C7.52573 19.8241 7.53215 19.8268 7.53883 19.8301C7.54551 19.8333 7.55165 19.8367 7.55696 19.8399L7.56013 19.8419L8.64661 21.2368C9.01496 21.7116 9.54432 22 10.125 22C10.7057 22 11.2355 21.711 11.6039 21.2362L12.7062 19.8209L12.7079 19.8204L12.7089 19.8202C12.7093 19.8202 12.7095 19.8202 12.7095 19.8202H13.0787C14.5301 19.8202 15.7668 19.5016 16.68 18.7555C17.6041 18.0003 18.0877 16.8974 18.2088 15.5604C18.2151 15.5106 18.2205 15.4609 18.2251 15.4111C19.2856 15.2199 20.1884 14.7829 20.8543 14.0503C21.6539 13.1708 22.0196 11.9671 22.0196 10.5403V6.9952C22.0196 5.46105 21.6249 4.17331 20.7072 3.27612C19.7926 2.38198 18.4852 2 16.9273 2H11.1256C9.593 2 8.49502 2.55459 7.78546 3.54386ZM19.7444 13.0413C19.3988 13.4215 18.9112 13.7096 18.25 13.8733V11.2575C18.25 9.71621 17.847 8.42393 16.9137 7.52523C15.9857 6.63159 14.6602 6.25 13.0787 6.25H8.34758C8.47457 5.48138 8.68345 4.86551 9.00435 4.41811C9.39147 3.87839 10.0021 3.5 11.1256 3.5H16.9273C18.2613 3.5 19.125 3.82703 19.6586 4.3487C20.1891 4.86732 20.5196 5.70218 20.5196 6.9952V10.5403C20.5196 11.719 20.2199 12.5183 19.7444 13.0413ZM7.17131 7.75C6.94834 7.75 6.7499 7.75837 6.56867 7.78019C6.55933 7.78131 6.54996 7.78226 6.54058 7.78303C5.42795 7.87464 4.70222 8.22582 4.24565 8.74296C3.7844 9.2654 3.5 10.0677 3.5 11.2575V14.8127C3.5 16.5189 3.85981 17.2976 4.33917 17.7006C4.85281 18.1325 5.70826 18.3202 7.17131 18.3202H7.54052C7.78899 18.3202 8.02047 18.3963 8.19524 18.4813C8.36935 18.5661 8.56861 18.6993 8.71857 18.8882L8.72297 18.8937L9.83164 20.3172C9.95247 20.4731 10.0644 20.5 10.125 20.5C10.1856 20.5 10.2975 20.4731 10.4184 20.3172L10.4194 20.3159L11.527 18.8937C11.8115 18.5284 12.254 18.3202 12.7095 18.3202H13.0787C14.3317 18.3202 15.1811 18.0432 15.7309 17.5939C16.2663 17.1564 16.6226 16.4693 16.716 15.4133L16.7175 15.3978L16.7193 15.3828C16.7414 15.2128 16.75 15.0255 16.75 14.8127V11.2575C16.75 9.96336 16.4145 9.12692 15.8733 8.60572C15.3268 8.07947 14.4417 7.75 13.0787 7.75H7.17131ZM13.2451 12.5C12.6928 12.5 12.2451 12.9477 12.2451 13.5C12.2451 14.0523 12.6928 14.5 13.2451 14.5H13.2541C13.8064 14.5 14.2541 14.0523 14.2541 13.5C14.2541 12.9477 13.8064 12.5 13.2541 12.5H13.2451ZM9.24512 13.5C9.24512 12.9477 9.69283 12.5 10.2451 12.5H10.2541C10.8064 12.5 11.2541 12.9477 11.2541 13.5C11.2541 14.0523 10.8064 14.5 10.2541 14.5H10.2451C9.69283 14.5 9.24512 14.0523 9.24512 13.5ZM7.24512 12.5C6.69283 12.5 6.24512 12.9477 6.24512 13.5C6.24512 14.0523 6.69283 14.5 7.24512 14.5H7.25412C7.8064 14.5 8.25412 14.0523 8.25412 13.5C8.25412 12.9477 7.8064 12.5 7.25412 12.5H7.24512Z" fill="currentColor"/>
</svg>
