<svg width="24" height="24" viewBox="0 0 24 24" fill="none" xmlns="http://www.w3.org/2000/svg">
<path fill-rule="evenodd" clip-rule="evenodd" d="M8.75 2.75C8.75 2.33579 8.41421 2 8 2C7.58579 2 7.25 2.33579 7.25 2.75V3.53297C4.28458 3.80391 3 5.72376 3 8.5V9.09V17C3 20 4.5 22 8 22H16C19.5 22 21 20 21 17V8.5C21 5.72376 19.7154 3.80391 16.75 3.53297V2.75C16.75 2.33579 16.4142 2 16 2C15.5858 2 15.25 2.33579 15.25 2.75V3.5H8.75V2.75ZM7.25 5.04047V5.75C7.25 6.16421 7.58579 6.5 8 6.5C8.41421 6.5 8.75 6.16421 8.75 5.75V5H15.25V5.75C15.25 6.16421 15.5858 6.5 16 6.5C16.4142 6.5 16.75 6.16421 16.75 5.75V5.04047C17.7493 5.15538 18.3468 5.50097 18.7133 5.89568C19.1623 6.37918 19.4726 7.15984 19.4983 8.34H4.50172C4.52736 7.15984 4.83772 6.37918 5.28669 5.89568C5.65321 5.50097 6.25074 5.15538 7.25 5.04047ZM4.5 9.84V17C4.5 18.2701 4.81773 19.0993 5.28669 19.6043C5.73696 20.0892 6.5359 20.5 8 20.5H16C17.4641 20.5 18.263 20.0892 18.7133 19.6043C19.1823 19.0993 19.5 18.2701 19.5 17V9.84H4.5Z" fill="currentColor"/>
<path d="M8.14336 14.4506C8.18159 14.2066 8.25446 13.994 8.36198 13.8126C8.47189 13.6313 8.60689 13.4802 8.76697 13.3593C8.92945 13.2384 9.11462 13.1489 9.32249 13.0907C9.53036 13.0302 9.75376 13 9.99269 13C10.2507 13 10.4801 13.0347 10.6808 13.1041C10.8815 13.1713 11.0512 13.263 11.1897 13.3794C11.3283 13.4959 11.4335 13.6313 11.5051 13.7858C11.5768 13.938 11.6127 14.0992 11.6127 14.2693C11.6127 14.4238 11.5959 14.5603 11.5625 14.679C11.529 14.7954 11.4788 14.8972 11.4119 14.9846C11.3474 15.0696 11.2662 15.1424 11.1682 15.2028C11.0727 15.261 10.9628 15.3103 10.8385 15.3506C11.4167 15.5409 11.7058 15.9102 11.7058 16.4587C11.7058 16.7184 11.6557 16.9445 11.5553 17.137C11.455 17.3295 11.32 17.4896 11.1503 17.6172C10.9831 17.7448 10.7883 17.8411 10.5661 17.906C10.3439 17.9687 10.1122 18 9.87084 18C9.62235 18 9.40134 17.9754 9.2078 17.9261C9.01427 17.8746 8.84224 17.7963 8.69171 17.6911C8.54118 17.5836 8.40857 17.4471 8.29389 17.2814C8.18159 17.1157 8.08363 16.9187 8 16.6904L8.49459 16.5024C8.62361 16.4553 8.74308 16.443 8.85299 16.4654C8.9629 16.4878 9.04174 16.5393 9.08953 16.6199C9.19705 16.8057 9.31054 16.9411 9.43001 17.0262C9.55186 17.109 9.69403 17.1504 9.8565 17.1504C9.98075 17.1504 10.0883 17.1314 10.1791 17.0934C10.2722 17.0531 10.3487 17.0027 10.4084 16.9422C10.4706 16.8796 10.5171 16.809 10.5482 16.7307C10.5793 16.6523 10.5948 16.5729 10.5948 16.4923C10.5948 16.3871 10.5864 16.293 10.5697 16.2102C10.5554 16.1251 10.5124 16.0524 10.4407 15.9919C10.369 15.9315 10.2603 15.8856 10.1145 15.8543C9.97119 15.8207 9.77049 15.8039 9.51244 15.8039V15.0853C9.72987 15.0853 9.90548 15.0696 10.0393 15.0383C10.1731 15.0069 10.2758 14.9644 10.3475 14.9107C10.4216 14.8547 10.4706 14.7876 10.4944 14.7092C10.5183 14.6308 10.5303 14.5447 10.5303 14.4506C10.5303 14.2581 10.4801 14.1104 10.3798 14.0074C10.2818 13.9022 10.1313 13.8496 9.92818 13.8496C9.76332 13.8496 9.62354 13.891 9.50886 13.9738C9.39656 14.0544 9.3189 14.1551 9.2759 14.276C9.22572 14.3991 9.16001 14.4809 9.07878 14.5212C8.99754 14.5615 8.88166 14.5704 8.73113 14.548L8.14336 14.4506Z" fill="currentColor"/>
<path d="M16 15.4983C16 15.9259 15.951 16.2964 15.8531 16.6098C15.7551 16.9232 15.6189 17.1829 15.4445 17.3889C15.2725 17.5948 15.067 17.7482 14.828 17.8489C14.5915 17.9496 14.3346 18 14.0575 18C13.7803 18 13.5235 17.9496 13.2869 17.8489C13.0528 17.7482 12.8497 17.5948 12.6777 17.3889C12.5056 17.1829 12.3706 16.9232 12.2727 16.6098C12.1771 16.2964 12.1293 15.9259 12.1293 15.4983C12.1293 15.0707 12.1771 14.7002 12.2727 14.3868C12.3706 14.0734 12.5056 13.8137 12.6777 13.6078C12.8497 13.4018 13.0528 13.2496 13.2869 13.1511C13.5235 13.0504 13.7803 13 14.0575 13C14.3346 13 14.5915 13.0504 14.828 13.1511C15.067 13.2496 15.2725 13.4018 15.4445 13.6078C15.6189 13.8137 15.7551 14.0734 15.8531 14.3868C15.951 14.7002 16 15.0707 16 15.4983ZM14.8531 15.4983C14.8531 15.1603 14.8304 14.8838 14.785 14.6689C14.7396 14.4518 14.6787 14.2816 14.6022 14.1585C14.5282 14.0354 14.4434 13.9514 14.3478 13.9066C14.2522 13.8596 14.1554 13.8361 14.0575 13.8361C13.9595 13.8361 13.8628 13.8596 13.7672 13.9066C13.674 13.9514 13.5904 14.0354 13.5163 14.1585C13.4446 14.2816 13.3861 14.4518 13.3407 14.6689C13.2977 14.8838 13.2762 15.1603 13.2762 15.4983C13.2762 15.8386 13.2977 16.1162 13.3407 16.3311C13.3861 16.546 13.4446 16.7161 13.5163 16.8415C13.5904 16.9646 13.674 17.0497 13.7672 17.0967C13.8628 17.1415 13.9595 17.1639 14.0575 17.1639C14.1554 17.1639 14.2522 17.1415 14.3478 17.0967C14.4434 17.0497 14.5282 16.9646 14.6022 16.8415C14.6787 16.7161 14.7396 16.546 14.785 16.3311C14.8304 16.1162 14.8531 15.8386 14.8531 15.4983Z" fill="currentColor"/>
</svg>
