<svg width="16" height="16" viewBox="0 0 16 16" fill="none" xmlns="http://www.w3.org/2000/svg">
<path d="M10.4333 14.2733C10.1466 14.2733 9.85994 14.2133 9.62661 14.1L6.12661 12.3466C5.92661 12.2466 5.53328 12.2533 5.33994 12.3666L3.76661 13.2666C3.08661 13.6533 2.38661 13.7066 1.85994 13.3933C1.32661 13.0866 1.02661 12.46 1.02661 11.6733V5.19331C1.02661 4.58665 1.42661 3.89998 1.95328 3.59998L4.83994 1.94665C5.32661 1.66665 6.06661 1.64665 6.56661 1.89998L10.0666 3.65332C10.2666 3.75332 10.6533 3.73998 10.8533 3.63331L12.4199 2.73998C13.0999 2.35332 13.7999 2.29998 14.3266 2.61332C14.8599 2.91998 15.1599 3.54665 15.1599 4.33332V10.82C15.1599 11.4266 14.7599 12.1133 14.2333 12.4133L11.3466 14.0666C11.0933 14.2 10.7599 14.2733 10.4333 14.2733ZM5.75995 11.28C6.04661 11.28 6.33328 11.34 6.56661 11.4533L10.0666 13.2066C10.2666 13.3066 10.6533 13.2933 10.8533 13.1866L13.7399 11.5333C13.9533 11.4133 14.1599 11.0533 14.1599 10.8133V4.32665C14.1599 3.90665 14.0399 3.59332 13.8199 3.47332C13.6066 3.35332 13.2733 3.39998 12.9133 3.60665L11.3466 4.49998C10.8599 4.77998 10.1199 4.79998 9.61995 4.54665L6.11995 2.79332C5.91995 2.69332 5.53328 2.70665 5.33328 2.81331L2.44661 4.46665C2.23328 4.58665 2.02661 4.94665 2.02661 5.19331V11.68C2.02661 12.1 2.14661 12.4133 2.35994 12.5333C2.57328 12.66 2.90661 12.6066 3.27328 12.4L4.83994 11.5066C5.09994 11.3533 5.43328 11.28 5.75995 11.28Z" fill="currentColor"/>
<path d="M5.70667 11.8333C5.43333 11.8333 5.20667 11.6066 5.20667 11.3333V2.66663C5.20667 2.39329 5.43333 2.16663 5.70667 2.16663C5.98 2.16663 6.20667 2.39329 6.20667 2.66663V11.3333C6.20667 11.6066 5.98 11.8333 5.70667 11.8333Z" fill="currentColor"/>
<path d="M10.4867 13.8333C10.2134 13.8333 9.98669 13.6067 9.98669 13.3333V4.41333C9.98669 4.14 10.2134 3.91333 10.4867 3.91333C10.76 3.91333 10.9867 4.14 10.9867 4.41333V13.3333C10.9867 13.6067 10.76 13.8333 10.4867 13.8333Z" fill="currentColor"/>
</svg>
