<svg width="25" height="24" viewBox="0 0 25 24" fill="none" xmlns="http://www.w3.org/2000/svg">
<path fill-rule="evenodd" clip-rule="evenodd" d="M22.2583 6.49997C21.8441 6.5015 21.5071 6.16695 21.5055 5.75274L21.4974 3.56364L17.7918 7.29682C17.5 7.59079 17.0251 7.59255 16.7311 7.30074C16.4371 7.00893 16.4354 6.53406 16.7272 6.24008L20.4331 2.50669L18.2436 2.51478C17.8293 2.51631 17.4923 2.18177 17.4908 1.76755C17.4893 1.35334 17.8238 1.01632 18.238 1.01479L22.238 1.00001C22.3126 0.999729 22.3848 1.01037 22.4529 1.03042C22.5686 1.06439 22.6777 1.12681 22.7693 1.21772C22.9209 1.36815 22.9948 1.56723 22.9908 1.76509L23.0055 5.7472C23.0071 6.16141 22.6725 6.49844 22.2583 6.49997ZM12.5 3.54786C7.82945 3.54786 4.03846 7.33885 4.03846 12.0094C4.03846 16.68 7.82945 20.4709 12.5 20.4709C17.1706 20.4709 20.9615 16.68 20.9615 12.0094C20.9615 11.5846 21.3059 11.2402 21.7308 11.2402C22.1556 11.2402 22.5 11.5846 22.5 12.0094C22.5 17.5296 18.0202 22.0094 12.5 22.0094C6.97978 22.0094 2.5 17.5296 2.5 12.0094C2.5 6.48918 6.97978 2.0094 12.5 2.0094C12.9248 2.0094 13.2692 2.3538 13.2692 2.77863C13.2692 3.20347 12.9248 3.54786 12.5 3.54786ZM11.46 9.24964C11.1129 9.24964 10.76 9.56402 10.76 10.0296C10.76 10.3822 10.8357 10.5094 10.8736 10.5577C10.9186 10.615 11.0086 10.6864 11.2494 10.7723L11.75 10.9469V9.24964H11.46ZM11.75 7.74964H11.46C10.207 7.74964 9.26001 8.81525 9.26001 10.0296C9.26001 10.5971 9.38434 11.0899 9.6939 11.4841C9.99626 11.8691 10.4008 12.0625 10.7485 12.1862L11.75 12.5356V14.7596H11.67C11.1953 14.7596 10.75 14.3472 10.75 13.7596C10.75 13.3454 10.4142 13.0096 10 13.0096C9.58579 13.0096 9.25 13.3454 9.25 13.7596C9.25 15.1121 10.3047 16.2596 11.67 16.2596H11.75V16.5094C11.75 16.9236 12.0858 17.2594 12.5 17.2594C12.9142 17.2594 13.25 16.9236 13.25 16.5094V16.2596H13.55C14.7998 16.2596 15.75 15.2073 15.75 13.9796C15.75 13.4153 15.6248 12.9242 15.3174 12.5305C15.0166 12.1454 14.6139 11.9485 14.2615 11.823L13.25 11.4702V9.24964H13.34C13.8147 9.24964 14.26 9.66209 14.26 10.2496C14.26 10.6639 14.5958 10.9996 15.01 10.9996C15.4242 10.9996 15.76 10.6639 15.76 10.2496C15.76 8.89718 14.7053 7.74964 13.34 7.74964H13.25V7.5094C13.25 7.09519 12.9142 6.7594 12.5 6.7594C12.0858 6.7594 11.75 7.09519 11.75 7.5094V7.74964ZM13.25 13.0588V14.7596H13.55C13.9002 14.7596 14.25 14.452 14.25 13.9796C14.25 13.634 14.1752 13.505 14.1351 13.4537C14.0886 13.3941 13.9967 13.3212 13.7606 13.237L13.25 13.0588Z" fill="url(#paint0_linear_557_5657)"/>
<defs>
<linearGradient id="paint0_linear_557_5657" x1="2.64103" y1="12.5552" x2="23.0055" y2="12.5552" gradientUnits="userSpaceOnUse">
<stop stop-color="color1"/>
<stop offset="1" stop-color="color2"/>
</linearGradient>
</defs>
</svg>
