<svg width="24" height="24" viewBox="0 0 24 24" fill="none" xmlns="http://www.w3.org/2000/svg">
<path fill-rule="evenodd" clip-rule="evenodd" d="M11.7895 3.55005C11.4175 3.55005 11.087 3.61509 10.876 3.70956L10.8739 3.71051L4.97226 6.33124C4.19761 6.673 4.14453 6.9822 4.14453 7.01505C4.14453 7.0479 4.19761 7.3571 4.97226 7.69886L4.97392 7.69959L10.876 10.3205C11.087 10.415 11.4175 10.48 11.7895 10.48C12.1615 10.48 12.492 10.415 12.703 10.3205L12.7051 10.3196L18.6051 7.69959L18.6068 7.69886C19.3815 7.3571 19.4345 7.0479 19.4345 7.01505C19.4345 6.9822 19.3815 6.673 18.6068 6.33124L12.7051 3.7105L12.703 3.70956C12.492 3.61509 12.1615 3.55005 11.7895 3.55005ZM13.3149 2.34003C12.8561 2.13487 12.3021 2.05005 11.7895 2.05005C11.2769 2.05005 10.7229 2.13487 10.2642 2.34003C10.2638 2.3402 10.2634 2.34037 10.263 2.34054L4.3668 4.95886C4.36654 4.95898 4.36707 4.95874 4.3668 4.95886C3.4418 5.36714 2.64453 6.05317 2.64453 7.01505C2.64453 7.97689 3.44095 8.66256 4.36591 9.07084C4.36561 9.07071 4.36621 9.07097 4.36591 9.07084L10.263 11.6896C10.2635 11.6898 10.2639 11.6899 10.2643 11.6901C10.7231 11.8952 11.277 11.98 11.7895 11.98C12.3021 11.98 12.856 11.8952 13.3148 11.6901C13.3152 11.6899 13.3156 11.6897 13.316 11.6896L19.2123 9.07124C19.212 9.07135 19.2125 9.07112 19.2123 9.07124C20.1373 8.66296 20.9345 7.97693 20.9345 7.01505C20.9345 6.05314 20.138 5.36744 19.213 4.95917C19.2127 4.95906 19.2132 4.95927 19.213 4.95917L13.316 2.34054C13.3157 2.34037 13.3153 2.3402 13.3149 2.34003Z" fill="#1B1D29"/>
<path fill-rule="evenodd" clip-rule="evenodd" d="M3 10.25C3.41421 10.25 3.75 10.5858 3.75 11C3.75 11.2434 3.84628 11.5559 4.0399 11.8535C4.23351 12.151 4.48007 12.3655 4.70295 12.4639L4.70479 12.4647L11.4934 15.4841C11.4931 15.484 11.4936 15.4842 11.4934 15.4841C11.8219 15.6291 12.1898 15.6269 12.5017 15.4863L12.5052 15.4847L19.2952 12.4647L19.2971 12.4639C19.5199 12.3655 19.7665 12.151 19.9601 11.8535C20.1537 11.5559 20.25 11.2434 20.25 11C20.25 10.5858 20.5858 10.25 21 10.25C21.4142 10.25 21.75 10.5858 21.75 11C21.75 11.5966 21.5313 12.1891 21.2174 12.6715C20.9037 13.1537 20.4505 13.5941 19.9038 13.8357C19.9035 13.8358 19.9041 13.8356 19.9038 13.8357L13.1183 16.8537C13.1177 16.854 13.117 16.8543 13.1163 16.8546C12.4089 17.1729 11.5973 17.1702 10.8866 16.8559L4.09705 13.8361C4.09671 13.8359 4.09637 13.8358 4.09603 13.8356C3.54937 13.594 3.0963 13.1537 2.7826 12.6715C2.46872 12.1891 2.25 11.5966 2.25 11C2.25 10.5858 2.58579 10.25 3 10.25Z" fill="#1B1D29"/>
<path fill-rule="evenodd" clip-rule="evenodd" d="M3 15.1499C3.41421 15.1499 3.75 15.4857 3.75 15.8999C3.75 16.5307 4.12295 17.1042 4.70554 17.365C4.70535 17.3649 4.70572 17.365 4.70554 17.365L11.4934 20.384C11.4931 20.3839 11.4936 20.3841 11.4934 20.384C11.8219 20.529 12.1898 20.5268 12.5017 20.3862L12.5052 20.3846L19.2939 17.3652C19.2937 17.3653 19.2941 17.3651 19.2939 17.3652C19.8765 17.1045 20.25 16.5307 20.25 15.8999C20.25 15.4857 20.5858 15.1499 21 15.1499C21.4142 15.1499 21.75 15.4857 21.75 15.8999C21.75 17.1289 21.0232 18.2352 19.9061 18.7346L19.9048 18.7352L13.1183 21.7536C13.1177 21.7539 13.117 21.7542 13.1163 21.7545C12.4089 22.0728 11.5973 22.0701 10.8866 21.7558L4.0939 18.7346C2.97681 18.2352 2.25 17.1289 2.25 15.8999C2.25 15.4857 2.58579 15.1499 3 15.1499Z" fill="#1B1D29"/>
</svg>
