<svg width="24" height="24" viewBox="0 0 24 24" fill="none" xmlns="http://www.w3.org/2000/svg">
<path fill-rule="evenodd" clip-rule="evenodd" d="M8.75 2.75C8.75 2.33579 8.41421 2 8 2C7.58579 2 7.25 2.33579 7.25 2.75V3.53297C4.28458 3.80391 3 5.72376 3 8.5V9.09V17C3 20 4.5 22 8 22H16C19.5 22 21 20 21 17V8.5C21 5.72376 19.7154 3.80391 16.75 3.53297V2.75C16.75 2.33579 16.4142 2 16 2C15.5858 2 15.25 2.33579 15.25 2.75V3.5H8.75V2.75ZM7.25 5.04047V5.75C7.25 6.16421 7.58579 6.5 8 6.5C8.41421 6.5 8.75 6.16421 8.75 5.75V5H15.25V5.75C15.25 6.16421 15.5858 6.5 16 6.5C16.4142 6.5 16.75 6.16421 16.75 5.75V5.04047C17.7493 5.15538 18.3468 5.50097 18.7133 5.89568C19.1623 6.37918 19.4726 7.15984 19.4983 8.34H4.50172C4.52736 7.15984 4.83772 6.37918 5.28669 5.89568C5.65321 5.50097 6.25074 5.15538 7.25 5.04047ZM4.5 9.84V17C4.5 18.2701 4.81773 19.0993 5.28669 19.6043C5.73696 20.0892 6.5359 20.5 8 20.5H16C17.4641 20.5 18.263 20.0892 18.7133 19.6043C19.1823 19.0993 19.5 18.2701 19.5 17V9.84H4.5Z" fill="currentColor"/>
<path d="M10.2344 18H9V13H10.2344V18Z" fill="currentColor"/>
<path d="M16 13L13.8798 18H12.7688L10.6486 13H11.6361C11.7426 13 11.8285 13.024 11.8939 13.0721C11.9592 13.1178 12.0088 13.1773 12.0427 13.2505L13.0665 15.9272C13.1149 16.0439 13.1621 16.172 13.2081 16.3116C13.2541 16.4489 13.2977 16.593 13.3388 16.744C13.3727 16.593 13.4102 16.4489 13.4514 16.3116C13.4949 16.172 13.5409 16.0439 13.5893 15.9272L14.6059 13.2505C14.6325 13.1865 14.6797 13.1293 14.7475 13.0789C14.8177 13.0263 14.9036 13 15.0052 13H16Z" fill="currentColor"/>
</svg>
