<svg xmlns="http://www.w3.org/2000/svg" width="20" height="20" viewBox="0 0 20 20" fill="none">
<path d="M16.1667 6.45831H3.83337C3.56004 6.45831 3.33337 6.17498 3.33337 5.83331C3.33337 5.49165 3.56004 5.20831 3.83337 5.20831H16.1667C16.44 5.20831 16.6667 5.49165 16.6667 5.83331C16.6667 6.17498 16.44 6.45831 16.1667 6.45831Z" fill="currentColor"/>
<path d="M14.5625 10.625H3.77087C3.53171 10.625 3.33337 10.3417 3.33337 10C3.33337 9.65833 3.53171 9.375 3.77087 9.375H14.5625C14.8017 9.375 15 9.65833 15 10C15 10.3417 14.8017 10.625 14.5625 10.625Z" fill="currentColor"/>
<path d="M12.9584 14.7917H3.70837C3.50337 14.7917 3.33337 14.5084 3.33337 14.1667C3.33337 13.825 3.50337 13.5417 3.70837 13.5417H12.9584C13.1634 13.5417 13.3334 13.825 13.3334 14.1667C13.3334 14.5084 13.1634 14.7917 12.9584 14.7917Z" fill="currentColor"/>
</svg>