<svg width="70" height="15" viewBox="0 0 70 15" fill="none" xmlns="http://www.w3.org/2000/svg">
<g clip-path="url(#clip0_1506_34432)">
<path fill-rule="evenodd" clip-rule="evenodd" d="M1.36174 3.80295C2.684 3.32608 4.07607 3.0732 5.48098 3.05466C7.69721 3.05466 8.70489 3.85762 8.63681 5.55238C8.58234 6.98404 7.68019 11.5968 7.68019 11.5968H5.33119C5.33119 11.5968 6.20951 6.87812 6.20951 6.06149C6.20951 5.24486 5.03161 5.17311 4.82054 5.17311C4.34711 5.1602 3.87658 5.25115 3.44179 5.43962C3.31583 6.21525 2.34559 11.549 2.34559 11.549H0L1.36174 3.80295Z" fill="#1E417E"/>
<path fill-rule="evenodd" clip-rule="evenodd" d="M13.8285 7.83145C13.8285 7.83145 12.562 7.75286 12.2216 7.88954C11.9747 7.96447 11.7578 8.11589 11.6018 8.32211C11.4459 8.52833 11.359 8.77878 11.3535 9.0376C11.3535 9.73805 12.0854 10.1549 12.7493 10.1549C12.9817 10.168 13.2142 10.1295 13.4301 10.0422C13.5901 9.22553 13.8285 7.83145 13.8285 7.83145ZM9.87261 5.46698L10.1654 3.57746C11.1095 3.25922 12.0944 3.07968 13.0897 3.04443C14.5127 3.04443 16.5349 3.35195 16.5349 5.32689C16.5451 5.80867 15.66 10.8246 15.6123 11.2756C14.6634 11.5896 13.6701 11.7477 12.671 11.7437C11.9901 11.7437 9.03174 11.5319 9.03174 9.16061C9.03174 6.60821 11.9288 6.28361 14.0634 6.52279C14.2165 6.07177 14.54 5.01254 12.5995 5.01254C11.675 5.0472 10.7587 5.19991 9.87261 5.46698Z" fill="#1E417E"/>
<path fill-rule="evenodd" clip-rule="evenodd" d="M30.5575 7.83142C30.5575 7.83142 29.2774 7.75283 28.937 7.88951C28.6902 7.96411 28.4734 8.11554 28.318 8.32191C28.1625 8.52828 28.0765 8.77891 28.0723 9.03757C28.0723 9.73803 28.8008 10.1549 29.4681 10.1549C29.7005 10.1682 29.9331 10.1297 30.1489 10.0421C30.3191 9.2255 30.5575 7.83142 30.5575 7.83142ZM26.6084 5.46696L26.8944 3.58769C27.8383 3.26888 28.8234 3.08933 29.8187 3.05466C31.2383 3.05466 33.2605 3.36217 33.2605 5.33712C33.2707 5.80864 32.3924 10.8246 32.3413 11.2756C31.3935 11.5893 30.4014 11.7474 29.4034 11.7437C28.7225 11.7437 25.7607 11.5319 25.7607 9.16058C25.7607 6.60819 28.6578 6.28359 30.7924 6.52277C30.949 6.07174 31.2724 5.01252 29.3319 5.01252C28.408 5.0545 27.493 5.21292 26.6084 5.48404V5.46696Z" fill="#1E417E"/>
<path fill-rule="evenodd" clip-rule="evenodd" d="M20.1741 5.51482C20.5581 5.28672 21.002 5.1807 21.4473 5.21072C21.6565 5.19459 21.8667 5.22379 22.0636 5.29631C22.2606 5.36884 22.4397 5.48302 22.5888 5.6311C22.738 5.77918 22.8537 5.95771 22.9281 6.1546C23.0025 6.35148 23.0339 6.56211 23.0201 6.77222C23.0201 7.81436 22.5537 9.78589 20.7119 9.78589C20.2866 9.76756 19.869 9.6654 19.483 9.48521C19.6498 8.29614 20.1741 5.51482 20.1741 5.51482ZM18.0906 3.75856C19.1814 3.31969 20.3407 3.07681 21.5154 3.04102C22.0635 3.04102 25.3384 3.06493 25.3384 6.7278C25.3384 7.8827 25.2125 11.6686 20.889 11.6686C20.3038 11.6309 19.7253 11.5219 19.1664 11.344L18.5161 15H16.0854L18.0906 3.75856Z" fill="#1E417E"/>
<path fill-rule="evenodd" clip-rule="evenodd" d="M40.0112 5.90431C40.0112 5.90431 40.3005 4.19589 40.372 3.88154C39.6055 3.338 38.6892 3.04777 37.7507 3.05124C36.7294 3.05124 34.2204 3.26308 34.2204 5.80864C34.2204 6.31092 34.2919 7.4419 35.8749 8.06377C37.4579 8.68564 37.7371 8.55579 37.7371 9.18791C37.7371 9.82003 36.9949 9.88837 36.5728 9.88837C36.1507 9.88837 35.0953 9.74828 33.8493 8.73005C33.7676 9.58085 33.5702 10.5547 33.5361 10.7528C34.0706 11.2449 35.0136 11.7232 36.6239 11.7232C38.2341 11.7232 40.1303 11.0091 40.1303 8.90431C40.1303 8.22094 40.035 7.05579 37.2741 6.31092C37.0949 6.28573 36.9297 6.19982 36.8059 6.06745C36.682 5.93507 36.607 5.76419 36.5932 5.58313C36.5932 5.31661 36.8043 4.94759 37.7235 4.94759C38.5773 4.97353 39.3916 5.31411 40.0112 5.90431Z" fill="#1E417E"/>
<path d="M44.7873 4.32917C44.7873 4.32917 44.5524 0.0444288 49.4649 9.66675e-06C54.3774 -0.0444095 53.7374 4.6196 48.1644 8.71299H51.4939L50.9969 11.0809H43.1396C43.1396 11.0809 43.3507 9.08543 44.1337 8.39523C45.9755 7.13099 50.6598 4.40775 49.5296 3.00684C48.8487 2.16288 47.487 3.08885 47.487 4.32917H44.7873Z" fill="#0A9BD4"/>
<path d="M62.6294 2.69248L63.2899 0H69.9896L69.9998 2.19362L64.2805 11.0809H60.9272L66.6193 2.69248H62.6294Z" fill="#A2CC38"/>
<path d="M59.9164 7.04214L61.3122 0H58.6534C58.6534 0 57.741 0.980638 56.6108 2.20387C55.0482 3.9123 53.312 6.05125 52.6958 6.6697C52.0149 7.35308 51.7222 9.38269 51.7222 9.38269H56.5223L56.2159 11.0911H59.0721L59.2389 9.38269H60.5973L60.9173 7.04898L59.9164 7.04214ZM57.0908 7.04214H55.1503L57.7342 4.24032L57.8908 4.03872L57.8023 4.38041L57.0908 7.04214Z" fill="#0A9BD4"/>
<path d="M59.9165 7.04229H60.8731L60.5974 9.376L57.8194 4.36006L57.908 4.01837L57.7514 4.21997L56.6279 2.19035C57.7514 0.967118 58.6705 -0.0135193 58.6705 -0.0135193H61.3293L59.9165 7.04229Z" fill="#A2CC38"/>
</g>
<defs>
<clipPath id="clip0_1506_34432">
<rect width="70" height="15" fill="white"/>
</clipPath>
</defs>
</svg>
