<svg width="185" height="190" viewBox="0 0 185 190" fill="none" xmlns="http://www.w3.org/2000/svg">
<path d="M9.49543 41.1378C11.6648 40.4075 12.9292 38.0592 12.2061 35.8969C11.483 33.7204 9.13315 32.4603 6.78333 33.1762C4.61394 33.9065 3.34954 36.2549 4.07267 38.4315C4.7958 40.5937 7.14561 41.8538 9.49543 41.1378Z" fill="#F8F8FC"/>
<path d="M18.7148 27.4055C20.161 26.8613 21.0646 25.2289 20.5219 23.7826C19.9792 22.3364 18.3525 21.4343 16.9062 21.9784C15.46 22.5225 14.5564 24.1406 15.0991 25.5869C15.46 27.0332 17.0881 27.9353 18.7148 27.4055Z" fill="#F8F8FC"/>
<path d="M171.739 60.2541C174.46 57.9057 174.631 53.7388 172.111 51.2043C169.749 48.684 165.596 48.4979 163.061 50.8463C160.355 53.1947 160.169 57.3616 162.703 59.8818C165.052 62.4164 169.219 62.6025 171.739 60.2541Z" fill="#F8F8FC"/>
<path d="M181.505 72.9125C182.593 71.8243 182.765 70.2062 181.691 69.1179C180.603 68.0296 178.97 67.8578 177.882 68.9317C176.808 70.02 176.622 71.6524 177.71 72.7407C178.612 74.0008 180.417 74.0008 181.505 72.9125Z" fill="#F8F8FC"/>
<path d="M16.906 180.136C17.9914 179.062 18.1719 177.43 17.0879 176.342C16.0025 175.268 14.3758 175.082 13.2918 176.17C12.2064 177.258 12.026 178.876 13.11 179.964C14.1954 181.053 15.822 181.225 16.906 180.136Z" fill="#F8F8FC"/>
<path d="M85.2354 189C131.688 189 169.476 151.397 169.476 105.131C169.29 58.6647 131.688 21.0763 85.2354 21.0763C38.5985 21.0763 1 58.6647 1 104.945C1 151.397 38.5985 189 85.2354 189Z" fill="#F8F8FC"/>
<path fill-rule="evenodd" clip-rule="evenodd" d="M0 104.945C0 58.1095 38.0491 20.0763 85.2354 20.0763C132.24 20.0763 170.288 58.1122 170.476 105.127L170.476 105.131C170.476 151.954 132.235 190 85.2354 190C38.0476 190 0 151.951 0 104.945ZM85.2354 22.0763C39.1478 22.0763 2 59.22 2 104.945C2 150.844 39.1494 188 85.2354 188C131.138 188 168.474 150.843 168.476 105.135C168.293 59.2173 131.135 22.0763 85.2354 22.0763Z" fill="#DCDEE9"/>
<path d="M141.139 61.7147V68.2157H140.637H134.308L37.2011 67.8721C35.3697 67.8721 33.5368 67.5427 31.7054 67.0415C31.5393 67.0415 31.3717 66.884 31.2056 66.884C28.873 66.0392 26.8754 65.0511 25.2086 63.3758C23.8769 62.0441 22.8774 60.0537 22.8774 58.2208C22.8774 54.7125 25.7084 52.0491 29.7064 50.3881C31.0395 49.7151 32.7049 49.3857 34.3702 49.2282C35.0361 49.2282 35.7033 49.0564 36.3692 49.0564H128.48C129.483 49.0564 130.313 49.2282 131.144 49.3857C131.802 49.5575 132.475 49.7151 133.148 50.0587C137.974 52.0491 141.139 56.3879 141.139 61.7147Z" fill="#F8F8FC"/>
<path fill-rule="evenodd" clip-rule="evenodd" d="M34.4206 50.2279C32.8197 50.3824 31.3159 50.6957 30.157 51.2808L30.1241 51.2974L30.09 51.3115C26.2093 52.9239 23.8774 55.3358 23.8774 58.2208C23.8774 59.729 24.7249 61.4778 25.9157 62.6687L25.9176 62.6705C27.4105 64.1711 29.2161 65.0918 31.4423 65.906C31.5322 65.9226 31.6076 65.9459 31.6645 65.9661C31.742 65.9936 31.8135 66.0261 31.8559 66.046L31.9693 66.077C33.7478 66.5637 35.4876 66.8721 37.2011 66.8721H37.2047L134.308 67.2157H140.139V61.7147C140.139 56.8232 137.247 52.831 132.767 50.9832L132.73 50.9677L132.694 50.9493C132.182 50.6883 131.673 50.5561 131.054 50.3955C131.011 50.3845 130.968 50.3733 130.924 50.3619C130.886 50.3546 130.847 50.3473 130.809 50.34C130.021 50.1899 129.32 50.0564 128.48 50.0564H36.3692C36.1113 50.0564 35.842 50.0897 35.4975 50.1341L35.4731 50.1372C35.1689 50.1765 34.8006 50.224 34.4206 50.2279ZM35.2663 48.1473C35.5839 48.1064 35.9715 48.0564 36.3692 48.0564H128.48C129.515 48.0564 130.387 48.2231 131.157 48.3702C131.215 48.3813 131.273 48.3924 131.33 48.4032L131.363 48.4095L131.396 48.4181C131.454 48.4333 131.514 48.4486 131.575 48.4643C132.157 48.6143 132.861 48.7955 133.566 49.1493C138.717 51.2892 142.139 55.9661 142.139 61.7147V69.2157H134.308L134.305 69.2157L37.2011 68.8721C37.2007 68.8721 37.2002 68.8721 37.1997 68.8721C35.2795 68.8719 33.3819 68.5318 31.5244 68.0287C31.4097 68.0124 31.3147 67.9837 31.2465 67.9595C31.1744 67.9339 31.1077 67.9041 31.0646 67.884H31.0301L30.8651 67.8243C28.4741 66.9583 26.3179 65.9082 24.5005 64.0819C23.0285 62.6093 21.8774 60.3778 21.8774 58.2208C21.8774 54.1004 25.1895 51.1901 29.2893 49.4785C30.7796 48.7346 32.5754 48.3935 34.276 48.2326L34.323 48.2282H34.3702C34.6281 48.2282 34.8974 48.1949 35.2419 48.1505L35.2663 48.1473Z" fill="#DCDEE9"/>
<path d="M152.966 78.3683V160.146C152.966 165.817 148.47 170.313 142.799 170.313H44.6972C36.5351 170.313 30.206 166.476 26.208 163.311C24.3765 161.822 23.2109 159.488 23.2109 157.154C23.2109 155.994 23.2109 154.82 23.2109 153.66C23.2109 151.984 23.2109 149.994 23.2109 147.989C23.2109 138.667 23.2109 126.181 23.0434 113.508C23.0434 111.69 23.0434 109.857 23.0434 107.852C23.0434 101.193 23.0434 94.5205 22.8773 88.1914C22.8773 86.3585 22.8773 84.5399 22.8773 82.5352C22.8773 70.0487 22.7112 60.7124 22.7112 58.5502C22.7112 62.216 26.208 65.5381 30.8718 66.8841C31.0394 66.8841 31.2055 67.0416 31.3716 67.0416C33.0369 67.5428 35.0359 67.8721 36.8688 67.8721L133.979 68.3733H140.967H142.642C148.47 68.2158 152.966 72.7121 152.966 78.3683Z" fill="white"/>
<path fill-rule="evenodd" clip-rule="evenodd" d="M23.7942 66.6611C23.8357 70.8284 23.8773 76.2876 23.8773 82.5352V88.1783C24.0434 94.5167 24.0434 101.196 24.0434 107.845V113.501C24.2109 126.178 24.2109 138.668 24.2109 147.987V157.154C24.2109 159.168 25.2253 161.221 26.834 162.531C30.7501 165.63 36.8606 169.313 44.6972 169.313H142.799C147.918 169.313 151.966 165.265 151.966 160.146V78.3683C151.966 73.2706 147.93 69.2307 142.669 69.3729L142.655 69.3733H133.979L133.974 69.3733L36.8688 68.8721C36.8679 68.8721 36.867 68.8721 36.8662 68.8721C34.9603 68.8718 32.9042 68.5372 31.1745 68.0263C31.0668 68.0097 30.9773 67.9824 30.9121 67.9592C30.8406 67.9338 30.7742 67.9041 30.7312 67.8841L30.5945 67.8449C27.8704 67.0587 25.402 65.5855 23.7625 63.6782C23.7725 64.578 23.7834 65.5751 23.7942 66.6611ZM21.7112 58.5502C21.7112 59.1907 21.7256 60.456 21.746 62.2368C21.7602 63.4795 21.7773 64.9734 21.7943 66.6811C21.8358 70.8441 21.8773 76.2963 21.8773 82.5352V88.2045L21.8776 88.2176C22.0433 94.5313 22.0434 101.191 22.0434 107.852V113.508L22.0435 113.521C22.2109 126.186 22.2109 138.667 22.2109 147.989V157.154C22.2109 159.806 23.5257 162.419 25.5771 164.087L25.5873 164.095C29.6674 167.325 36.2133 171.313 44.6972 171.313H142.799C149.022 171.313 153.966 166.369 153.966 160.146V78.3683C153.966 72.158 149.017 67.208 142.629 67.3733H133.979L36.8739 66.8721L36.8688 66.8721C35.1432 66.8721 33.2413 66.56 31.6597 66.084L31.5188 66.0416H31.5132C31.4699 66.0214 31.4031 65.9915 31.3308 65.966C31.2644 65.9425 31.1736 65.915 31.0646 65.8986C26.6306 64.5912 23.7112 61.5397 23.7112 58.5502H21.7112Z" fill="#DCDEE9"/>
<path d="M152.966 101.523V104.515C152.794 104.515 152.623 104.515 152.293 104.515H132.303C128.809 104.515 125.817 105.847 123.654 108.024C121.648 110.014 120.15 113.021 119.983 116.186C119.983 116.343 119.983 116.673 119.983 116.844C119.983 123.675 125.473 129.174 132.303 129.174H152.293C153.296 129.174 154.126 128.844 154.455 128.343C154.627 128.171 154.799 127.842 154.799 127.67V103.026C154.799 102.181 153.969 101.695 152.966 101.523Z" fill="#F8F8FC"/>
<path fill-rule="evenodd" clip-rule="evenodd" d="M151.966 100.337L153.135 100.537C153.729 100.639 154.354 100.845 154.857 101.221C155.386 101.616 155.799 102.224 155.799 103.026V127.67C155.799 128.004 155.662 128.306 155.581 128.464C155.497 128.628 155.379 128.812 155.235 128.974C154.918 129.409 154.454 129.698 153.988 129.879C153.482 130.075 152.899 130.173 152.293 130.173H132.303C124.92 130.173 118.983 124.226 118.983 116.844V116.159L118.984 116.133C119.166 112.704 120.779 109.469 122.948 107.316C125.298 104.952 128.545 103.515 132.303 103.515H151.966V100.337ZM153.799 105.515H132.303C129.075 105.515 126.338 106.741 124.364 108.728L124.359 108.734C122.522 110.556 121.143 113.323 120.983 116.213V116.844C120.983 123.123 126.026 128.173 132.303 128.173H152.293C152.69 128.173 153.023 128.108 153.265 128.014C153.519 127.915 153.606 127.814 153.62 127.794L153.676 127.708L153.745 127.639C153.745 127.639 153.746 127.638 153.746 127.638C153.75 127.634 153.755 127.627 153.762 127.617C153.774 127.599 153.788 127.577 153.799 127.555V105.515Z" fill="#DCDEE9"/>
<path d="M132.747 123.26C136.241 123.26 139.162 120.338 139.162 116.844C139.162 113.351 136.241 110.429 132.747 110.429C129.239 110.429 126.332 113.351 126.332 116.844C126.332 120.338 129.239 123.26 132.747 123.26Z" fill="#F8F8FC"/>
<path fill-rule="evenodd" clip-rule="evenodd" d="M125.332 116.844C125.332 112.8 128.685 109.429 132.747 109.429C136.793 109.429 140.162 112.798 140.162 116.844C140.162 120.891 136.793 124.26 132.747 124.26C128.685 124.26 125.332 120.889 125.332 116.844ZM132.747 111.429C129.793 111.429 127.332 113.901 127.332 116.844C127.332 119.788 129.793 122.26 132.747 122.26C135.689 122.26 138.162 119.786 138.162 116.844C138.162 113.903 135.689 111.429 132.747 111.429Z" fill="#DCDEE9"/>
<path d="M67.3805 123.489C70.1326 123.489 72.461 121.169 72.461 118.405C72.461 115.656 70.1326 113.336 67.3805 113.336C64.6283 113.336 62.2999 115.656 62.2999 118.405C62.2999 121.169 64.6283 123.489 67.3805 123.489Z" fill="#DCDEE9"/>
<path d="M106.333 123.489C109.086 123.489 111.414 121.169 111.414 118.405C111.414 115.656 109.086 113.336 106.333 113.336C103.581 113.336 101.253 115.656 101.253 118.405C101.253 121.369 103.581 123.489 106.333 123.489Z" fill="#DCDEE9"/>
<path d="M67.1831 101.609L56.0054 107.637L57.5146 110.429L68.6909 104.401L67.1831 101.609Z" fill="#DCDEE9"/>
<path d="M105.642 101.523L104.134 104.315L115.312 110.343L116.82 107.551L105.642 101.523Z" fill="#DCDEE9"/>
<path d="M86.8579 135.345C90.1313 135.345 92.7847 133.355 92.7847 130.906C92.7847 128.443 90.1313 126.453 86.8579 126.453C83.5831 126.453 80.9297 128.443 80.9297 130.906C80.9297 133.355 83.5831 135.345 86.8579 135.345Z" fill="#DCDEE9"/>
<path fill-rule="evenodd" clip-rule="evenodd" d="M156.567 6.39756C155.273 6.34337 153.978 6.31377 152.682 6.30875L152.69 4.30876C154.011 4.31388 155.332 4.34406 156.651 4.39931L156.567 6.39756ZM148.796 6.36736C147.501 6.41144 146.207 6.48008 144.915 6.57325L144.771 4.57843C146.089 4.48344 147.408 4.41346 148.728 4.36851L148.796 6.36736ZM164.313 7.01906C163.028 6.86606 161.738 6.73776 160.446 6.63415L160.606 4.64054C161.924 4.7462 163.239 4.87704 164.549 5.03308L164.313 7.01906ZM141.045 6.92649C139.757 7.06888 138.472 7.23584 137.191 7.42736L136.896 5.44936C138.201 5.25405 139.512 5.08379 140.825 4.93859L141.045 6.92649ZM171.986 8.23706C170.717 7.98419 169.442 7.75619 168.162 7.55306L168.475 5.57777C169.781 5.78499 171.082 6.01761 172.377 6.27564L171.986 8.23706ZM133.36 8.0763C132.087 8.31754 130.819 8.58344 129.558 8.87396L129.109 6.92502C130.396 6.62859 131.689 6.35733 132.988 6.11125L133.36 8.0763ZM125.791 9.82107C125.166 9.99149 124.543 10.1681 123.923 10.3509L123.358 8.43238C123.991 8.24577 124.627 8.06549 125.265 7.89155L125.791 9.82107ZM122.255 10.8813C121.156 11.2482 120.062 11.6546 119.014 12.1255L118.194 10.3012C119.322 9.79458 120.482 9.36464 121.621 8.98423L122.255 10.8813ZM116.044 13.7605C115.581 14.0776 115.143 14.4161 114.735 14.7786L114.72 14.7915L114.705 14.8038C114.237 15.1882 113.802 15.6116 113.4 16.068L111.899 14.7466C112.365 14.2171 112.872 13.7226 113.421 13.2708C113.894 12.8517 114.394 12.4661 114.915 12.11L116.044 13.7605ZM111.418 19.1411C110.905 20.255 110.542 21.4462 110.338 22.664L108.366 22.3344C108.598 20.9451 109.013 19.5835 109.6 18.3056L111.418 19.1411ZM121.28 22.9015C120.725 22.8527 120.17 22.8405 119.622 22.863L119.539 20.8647C120.172 20.8387 120.814 20.8527 121.455 20.9092L121.28 22.9015ZM117.977 23.0192C116.887 23.1787 115.798 23.4455 114.722 23.7926L114.108 21.8892C115.273 21.5133 116.472 21.2183 117.687 21.0403L117.977 23.0192ZM127.261 25.2634C126.442 24.5622 125.499 24.021 124.484 23.6301L125.203 21.7638C126.407 22.2277 127.552 22.8799 128.562 23.7438L127.261 25.2634ZM111.57 25.0399C111.05 25.2814 110.54 25.5356 110.04 25.7987L109.108 24.0291C109.635 23.7518 110.175 23.4827 110.727 23.2262L111.57 25.0399ZM108.262 26.823C107.267 27.4292 106.295 28.0787 105.347 28.7685L104.17 27.1518C105.22 26.3869 106.301 25.669 107.409 25.0016L108.335 26.5395L110.22 26.3412C110.284 26.9524 110.392 27.5558 110.543 28.1449C110.695 28.7371 110.893 29.3176 111.133 29.882L109.292 30.6637C109.014 30.0094 108.784 29.3342 108.606 28.643L108.606 28.6421C108.452 28.0439 108.338 27.4359 108.262 26.823ZM129.278 27.7037C129.032 27.2482 128.74 26.8272 128.406 26.4522L129.9 25.1225C130.343 25.6203 130.722 26.1701 131.037 26.7533L129.278 27.7037ZM102.44 31.0819C101.505 31.8923 100.603 32.7437 99.7366 33.6326L98.3044 32.2367C99.2098 31.3078 100.153 30.4181 101.129 29.571L102.44 31.0819ZM129.836 33.7374C130.156 32.7845 130.265 31.728 130.165 30.6738L132.156 30.4853C132.28 31.7936 132.149 33.133 131.733 34.3732L129.836 33.7374ZM113.037 33.0303C113.813 33.983 114.722 34.834 115.733 35.5483L114.58 37.1821C113.419 36.3621 112.376 35.3861 111.486 34.2928L113.037 33.0303ZM128.189 36.1375C128.58 35.8112 128.927 35.4465 129.221 35.0465L130.832 36.2317C130.436 36.7694 129.977 37.2501 129.471 37.6727L128.189 36.1375ZM97.2555 36.4004C96.4682 37.3562 95.7202 38.3457 95.0152 39.3655L93.3701 38.2282C94.1072 37.1619 94.8891 36.1276 95.7118 35.1288L97.2555 36.4004ZM119.005 37.2327C119.582 37.4324 120.175 37.5916 120.782 37.7066L120.41 39.6717C119.705 39.5382 119.017 39.3535 118.351 39.1225L119.005 37.2327ZM122.377 37.9606C123.408 38.0209 124.472 37.8905 125.473 37.5819L126.062 39.4931C124.836 39.8709 123.534 40.0317 122.26 39.9572L122.377 37.9606ZM93.0351 42.5086C92.421 43.5832 91.8534 44.6846 91.3358 45.8093L89.519 44.9733C90.0614 43.7945 90.6559 42.641 91.2987 41.5162L93.0351 42.5086ZM89.9386 49.2457C89.7322 49.8281 89.5392 50.4154 89.3599 51.0073L89.3565 51.0186L89.3565 51.0186C89.1512 51.6684 88.9625 52.3225 88.7902 52.98L86.8555 52.473C87.0357 51.7856 87.233 51.1017 87.4475 50.4219C87.6354 49.802 87.8375 49.1871 88.0535 48.5777L89.9386 49.2457ZM87.9497 56.976C87.7343 58.3225 87.5842 59.6778 87.4987 61.0363L85.5027 60.9107C85.5922 59.489 85.7492 58.0702 85.9748 56.66L87.9497 56.976ZM87.4349 65.1227C87.4563 65.8039 87.4937 66.4846 87.5469 67.164L85.553 67.3201C85.4974 66.6097 85.4583 65.898 85.4359 65.1855L87.4349 65.1227Z" fill="#DCDEE9"/>
<path d="M182.808 3.87864C182.665 6.05519 182.521 8.08855 180.918 8.51813C179.328 8.96203 178.598 7.51577 177.581 5.48242C176.565 3.59226 177.152 1.5589 178.884 1.12932C180.488 0.699735 183.094 1.27251 182.808 3.87864Z" fill="#F8F8FC"/>
<path fill-rule="evenodd" clip-rule="evenodd" d="M181.101 2.25687C180.544 1.97312 179.752 1.93223 179.143 2.09527L179.134 2.09768L179.125 2.09993C178.63 2.22267 178.304 2.55623 178.161 3.04195C178.01 3.55021 178.059 4.25947 178.462 5.00872L178.469 5.02186L178.476 5.0352C179.008 6.09884 179.38 6.82197 179.775 7.25728C179.955 7.45502 180.091 7.5363 180.191 7.57048C180.28 7.60071 180.415 7.62029 180.649 7.55499L180.659 7.55213L180.659 7.55219C180.993 7.4626 181.252 7.22498 181.454 6.56201C181.667 5.86118 181.736 4.93574 181.81 3.813L181.811 3.79116L181.814 3.76941C181.866 3.29133 181.781 2.98014 181.666 2.77387C181.55 2.56407 181.364 2.39042 181.101 2.25687ZM183.804 3.96485C183.89 3.14916 183.757 2.4194 183.416 1.80451C183.074 1.18736 182.562 0.756016 182.008 0.474309C180.937 -0.0708434 179.629 -0.102991 178.634 0.160997C177.402 0.469995 176.571 1.36621 176.243 2.47435C175.922 3.55832 176.086 4.8051 176.693 5.94231C176.704 5.96321 176.714 5.98414 176.725 6.00508C177.198 6.9518 177.689 7.93378 178.294 8.60121C178.623 8.96372 179.031 9.28786 179.546 9.46354C180.072 9.64264 180.622 9.63796 181.182 9.48271C182.447 9.14143 183.061 8.14889 183.367 7.14499C183.658 6.19014 183.734 5.02861 183.803 3.9853L183.804 3.96485Z" fill="#DCDEE9"/>
<path d="M181.061 14.3175C181.505 11.7113 181.934 10.2651 180.488 9.53479C178.884 8.81882 177.882 10.1219 176.135 11.8545C174.689 13.4583 175.562 15.778 177.008 16.494C178.741 17.3675 180.631 16.494 181.061 14.3175Z" fill="#F8F8FC"/>
<path fill-rule="evenodd" clip-rule="evenodd" d="M179.238 8.36121C179.795 8.28323 180.347 8.37692 180.896 8.62165L180.917 8.63138L180.939 8.64214C181.445 8.89775 181.853 9.25278 182.123 9.73526C182.385 10.2047 182.472 10.7128 182.483 11.1997C182.5 11.9347 182.338 12.8428 182.166 13.807C182.126 14.0306 182.085 14.2572 182.047 14.4854L182.044 14.4983L182.042 14.5111C181.777 15.854 181.033 16.8985 179.98 17.4392C178.928 17.9792 177.685 17.954 176.561 17.3885C175.545 16.884 174.797 15.8665 174.517 14.7507C174.229 13.602 174.417 12.2665 175.392 11.1848L175.411 11.1641L175.431 11.1445C175.596 10.9802 175.762 10.8124 175.927 10.645C176.562 10.001 177.192 9.36272 177.805 8.94815C178.22 8.66754 178.693 8.43749 179.238 8.36121ZM176.861 12.5429C176.404 13.0613 176.31 13.6796 176.457 14.2637C176.613 14.8865 177.024 15.3859 177.452 15.5978L177.459 15.6011L177.459 15.6011C178.066 15.9076 178.634 15.8819 179.067 15.6599C179.497 15.4391 179.911 14.9621 180.077 14.1358C180.126 13.8504 180.172 13.5876 180.215 13.3444C180.381 12.4066 180.495 11.7616 180.483 11.2457C180.477 10.9539 180.427 10.8007 180.377 10.7121C180.337 10.6391 180.259 10.5435 180.058 10.4382C179.816 10.334 179.648 10.3233 179.516 10.3419C179.367 10.3627 179.18 10.4325 178.925 10.6047C178.492 10.8979 178.053 11.3413 177.449 11.9523C177.269 12.1342 177.074 12.3309 176.861 12.5429Z" fill="#DCDEE9"/>
<path d="M183.094 9.53486C182.951 10.5515 182.22 11.2818 181.218 11.425C180.774 11.425 180.344 11.425 179.757 11.425C177.724 11.1386 176.135 9.83557 176.278 8.51819C176.421 7.21512 178.311 6.49915 180.631 6.78554C181.06 6.78554 181.504 6.92873 181.791 7.07193C182.664 7.35831 183.237 8.37499 183.094 9.53486C183.094 9.53486 183.094 9.39167 183.094 9.53486Z" fill="#F8F8FC"/>
<path fill-rule="evenodd" clip-rule="evenodd" d="M177.272 8.62686C177.25 8.82711 177.351 9.18225 177.84 9.58894C178.302 9.97237 179.003 10.297 179.831 10.425H181.137C181.661 10.3274 182.022 9.95649 182.102 9.40361C182.199 8.59635 181.786 8.12269 181.479 8.02215L181.409 7.99924L181.344 7.96635C181.261 7.92523 181.142 7.87745 181.006 7.84098C180.869 7.80431 180.739 7.78553 180.631 7.78553H180.569L180.508 7.778C179.467 7.64939 178.59 7.75666 178.003 7.98677C177.402 8.22259 177.287 8.49474 177.272 8.62686ZM180.697 5.78627C179.439 5.63851 178.233 5.74843 177.273 6.12485C176.314 6.50085 175.412 7.23779 175.284 8.40895L175.284 8.41012C175.162 9.52736 175.785 10.4821 176.562 11.1275C177.356 11.7864 178.441 12.2494 179.618 12.4152L179.687 12.425H181.289L181.359 12.415C182.805 12.2084 183.879 11.1289 184.084 9.67433L184.085 9.66587L184.086 9.65739C184.269 8.17517 183.565 6.6451 182.173 6.14602C181.801 5.97018 181.262 5.79886 180.697 5.78627Z" fill="#DCDEE9"/>
<path d="M23.4572 31.3576C23.4572 28.8947 23.4572 26.4318 25.197 25.7015C27.0828 24.9855 28.0981 26.7181 29.5472 29.1811C30.8531 31.3576 30.2732 33.6774 28.3873 34.4077C26.7921 35.138 23.4572 34.6941 23.4572 31.3576Z" fill="#F8F8FC"/>
<path fill-rule="evenodd" clip-rule="evenodd" d="M25.5689 26.63C25.1452 26.8143 24.8376 27.225 24.6524 28.0893C24.4617 28.9793 24.4572 30.0947 24.4572 31.3576C24.4572 32.0192 24.6201 32.4715 24.8316 32.7844C25.0453 33.1004 25.3475 33.3319 25.7134 33.4866C26.4856 33.813 27.4259 33.748 27.9711 33.4984L27.9983 33.4859L28.0262 33.4751C28.6425 33.2365 29.0424 32.751 29.1898 32.1121C29.3405 31.4583 29.2306 30.597 28.6897 29.6956L28.6853 29.6882L28.6853 29.6882C27.9327 28.4091 27.3904 27.502 26.8391 26.9664C26.5828 26.7175 26.3799 26.6072 26.2153 26.5642C26.0673 26.5254 25.8687 26.5191 25.5689 26.63ZM30.407 28.6704C30.3869 28.6362 30.3668 28.6021 30.3467 28.5679C29.6712 27.4194 28.9991 26.2765 28.2327 25.5319C27.8183 25.1293 27.3231 24.7867 26.7217 24.6293C26.1065 24.4683 25.4756 24.526 24.842 24.7666L24.8259 24.7727L24.8099 24.7794C23.5016 25.3286 22.9444 26.515 22.6968 27.6703C22.457 28.7896 22.4571 30.1093 22.4572 31.2928C22.4572 31.3145 22.4572 31.3361 22.4572 31.3576C22.4572 32.3642 22.7111 33.2186 23.1747 33.9045C23.6362 34.5872 24.2674 35.0467 24.9347 35.3287C26.2175 35.871 27.727 35.7989 28.776 35.3294C30.03 34.8335 30.8531 33.7999 31.1386 32.5614C31.4226 31.3298 31.1703 29.9445 30.407 28.6704Z" fill="#DCDEE9"/>
<path d="M24.4727 19.1862C24.182 22.2219 23.7481 23.9688 25.6325 24.6848C27.5184 25.4151 28.5322 23.8256 30.4181 21.5059C31.8686 19.4725 30.8534 16.8664 28.9675 16.1361C27.0831 15.4058 24.7619 16.7089 24.4727 19.1862Z" fill="#F8F8FC"/>
<path fill-rule="evenodd" clip-rule="evenodd" d="M29.3286 15.2036C26.7822 14.2169 23.8378 16 23.4794 19.0702L29.3286 15.2036ZM25.467 19.2925C25.432 19.6571 25.3974 19.9821 25.3652 20.2852C25.3265 20.6483 25.2912 20.9802 25.2625 21.3116C25.2115 21.9005 25.1962 22.3495 25.2319 22.7057C25.2668 23.054 25.3449 23.2497 25.4328 23.3745C25.5142 23.49 25.6608 23.6258 25.9877 23.75L25.9936 23.7523L25.9936 23.7523C26.3146 23.8766 26.5332 23.8802 26.7034 23.8441C26.8861 23.8054 27.1052 23.701 27.3902 23.4667C27.8894 23.0562 28.3918 22.4301 29.087 21.5637C29.253 21.3568 29.4301 21.1361 29.6207 20.9014C30.656 19.4192 29.895 17.5676 28.6064 17.0686L28.6061 17.0686C27.3858 16.5956 25.6917 17.4151 25.467 19.2925ZM29.3288 15.2037C31.8049 16.1627 33.073 19.5061 31.2321 22.0866L31.2138 22.1123L31.194 22.1367C31.0323 22.3356 30.8727 22.5352 30.7147 22.7326C30.0086 23.6153 29.3361 24.4559 28.6604 25.0115C28.2205 25.3733 27.7146 25.6743 27.1179 25.8007C26.5097 25.9295 25.8954 25.8584 25.2745 25.6185C24.6605 25.3848 24.1556 25.034 23.798 24.5265C23.4463 24.0275 23.2977 23.4624 23.2419 22.9051C23.1868 22.3556 23.2167 21.7539 23.2699 21.1391C23.2986 20.8082 23.3386 20.4303 23.3802 20.0373C23.4131 19.7259 23.4471 19.4051 23.4772 19.0908L23.4782 19.0805L23.4794 19.0702" fill="#DCDEE9"/>
<path d="M22.8774 24.9855C22.8774 23.8256 23.7481 22.9522 24.7619 22.809C25.1972 22.6658 25.7771 22.6658 26.3571 22.809C28.6782 22.9522 30.7087 24.2552 30.5627 25.7015C30.418 27.1621 28.5336 28.1787 26.0678 27.878C25.6325 27.878 25.1972 27.7348 24.7619 27.5916C23.602 27.4485 22.8774 26.2886 22.8774 24.9855Z" fill="#F8F8FC"/>
<path fill-rule="evenodd" clip-rule="evenodd" d="M26.1173 23.7798C25.6654 23.6682 25.2846 23.6897 25.0744 23.7589L24.9898 23.7867L24.9017 23.7991C24.347 23.8775 23.8774 24.3578 23.8774 24.9855C23.8774 26.0074 24.4199 26.5418 24.8844 26.5992L24.9815 26.6112L25.0744 26.6417C25.5427 26.7958 25.8216 26.878 26.0678 26.878H26.1286L26.1889 26.8854C27.2673 27.0169 28.1497 26.8505 28.7381 26.556C29.3289 26.2603 29.5388 25.8931 29.5675 25.6029L29.5677 25.601C29.5866 25.4141 29.4739 25.0316 28.8269 24.5963C28.2136 24.1837 27.3023 23.8692 26.2955 23.8071L26.2052 23.8015L26.1173 23.7798ZM26.5066 21.8168C25.8539 21.6689 25.1484 21.6523 24.5354 21.8323C23.0996 22.0768 21.8774 23.3268 21.8774 24.9855C21.8774 26.5391 22.7495 28.2862 24.533 28.5691C24.9164 28.6955 25.4441 28.8648 26.0026 28.8773C27.3688 29.0347 28.6403 28.8415 29.6333 28.3445C30.6368 27.8422 31.441 26.9714 31.5576 25.802" fill="#DCDEE9"/>
<path fill-rule="evenodd" clip-rule="evenodd" d="M34.6629 26.4613C34.0001 26.4301 33.3574 26.415 32.7375 26.415V24.415C33.3896 24.415 34.0638 24.4308 34.757 24.4635L34.6629 26.4613ZM42.3595 27.4594C41.0512 27.1856 39.7691 26.9702 38.528 26.808L38.7872 24.8248C40.0782 24.9936 41.4105 25.2175 42.7693 25.5019L42.3595 27.4594ZM49.814 29.6197C48.5832 29.1574 47.351 28.7513 46.1283 28.3974L46.6842 26.4763C47.9547 26.8439 49.2362 27.2662 50.5173 27.7474L49.814 29.6197ZM56.8144 32.9334C55.6894 32.2761 54.5439 31.6759 53.3871 31.1295L54.2411 29.3211C55.4484 29.8912 56.6457 30.5185 57.8234 31.2066L56.8144 32.9334ZM63.0774 37.4418C62.1041 36.5823 61.095 35.7817 60.0583 35.037L61.2251 33.4126C62.314 34.1948 63.3757 35.037 64.4012 35.9426L63.0774 37.4418ZM68.2693 43.1181C67.5002 42.0675 66.6843 41.0764 65.8287 40.1419L67.3038 38.7913C68.2075 39.7783 69.0699 40.8259 69.8831 41.9367L68.2693 43.1181ZM72.1015 49.7795C71.5736 48.5775 70.9933 47.4324 70.3665 46.342L72.1004 45.3453C72.763 46.4979 73.3758 47.7072 73.9327 48.9754L72.1015 49.7795ZM74.4688 57.1149C74.1861 55.8235 73.8512 54.5833 73.4686 53.3923L75.3728 52.7806C75.7751 54.033 76.1265 55.3347 76.4226 56.6872L74.4688 57.1149ZM75.4706 64.7963C75.4045 63.4681 75.2897 62.1835 75.1298 60.9413L77.1134 60.6859C77.2802 61.9812 77.3995 63.3178 77.4681 64.6969L75.4706 64.7963Z" fill="#DCDEE9"/>
</svg>
