<svg xmlns="http://www.w3.org/2000/svg" width="25" height="24" viewBox="0 0 25 24" fill="none">
  <path fill-rule="evenodd" clip-rule="evenodd" d="M10.8334 2.25C10.5572 2.25 10.3334 2.47386 10.3334 2.75C10.3334 3.02614 10.5572 3.25 10.8334 3.25H9.93337C7.8466 3.25 6.19122 3.69727 5.0835 4.89153C3.98906 6.07146 3.58337 7.81843 3.58337 10.0375V15.2125C3.58337 17.4316 3.98906 19.1785 5.0835 20.3585C6.19122 21.5527 7.8466 22 9.93337 22H14.7334C16.8201 22 18.4755 21.5527 19.5833 20.3585C20.6777 19.1785 21.0834 17.4316 21.0834 15.2125V10.0375C21.0834 7.81843 20.6777 6.07146 19.5833 4.89153C18.4755 3.69727 16.8201 3.25 14.7334 3.25H13.8334C14.1095 3.25 14.3334 3.02614 14.3334 2.75C14.3334 2.47386 14.1095 2.25 13.8334 2.25H10.8334ZM5.08337 10.0375C5.08337 7.94407 5.47768 6.67229 6.18325 5.91159C6.48476 5.58653 6.87207 5.32428 7.37131 5.13178C7.34654 5.2496 7.33337 5.37295 7.33337 5.5C7.33337 6.32843 7.89302 7 8.58337 7H16.0834C16.7737 7 17.3334 6.32843 17.3334 5.5C17.3334 5.37295 17.3202 5.24959 17.2954 5.13178C17.7947 5.32428 18.182 5.58653 18.4835 5.91159C19.1891 6.67229 19.5834 7.94407 19.5834 10.0375V15.2125C19.5834 17.3059 19.1891 18.5777 18.4835 19.3384C17.7912 20.0848 16.6466 20.5 14.7334 20.5H9.93337C8.02014 20.5 6.87553 20.0848 6.18325 19.3384C5.47768 18.5777 5.08337 17.3059 5.08337 15.2125V10.0375ZM7.58337 13C7.58337 12.5858 7.91916 12.25 8.33337 12.25H12.3334C12.7476 12.25 13.0834 12.5858 13.0834 13C13.0834 13.4142 12.7476 13.75 12.3334 13.75H8.33337C7.91916 13.75 7.58337 13.4142 7.58337 13ZM7.58337 17C7.58337 16.5858 7.91916 16.25 8.33337 16.25H16.3334C16.7476 16.25 17.0834 16.5858 17.0834 17C17.0834 17.4142 16.7476 17.75 16.3334 17.75H8.33337C7.91916 17.75 7.58337 17.4142 7.58337 17Z" fill="currentColor"/>
</svg>