<svg xmlns="http://www.w3.org/2000/svg" width="123" height="92" viewBox="0 0 123 92" fill="none">
  <g filter="url(#filter0_d_3091_7870)">
    <path d="M90.8511 35.6597V69.3193C90.8511 76.3123 85.1508 82 78.0487 82H18.8024C11.7938 82 6.09345 76.4056 6 69.4125C6 69.3193 6 69.3193 6 69.2261V35.6597C6 35.5664 6 35.5664 6 35.4732C6 35.2867 6 35.1002 6.09345 34.9137C6.1869 34.634 6.28034 34.4475 6.37379 34.1678L22.26 3.8648C22.8207 2.65268 24.0355 2 25.3438 2H71.4139C72.7222 2 73.8435 2.65268 74.4977 3.8648L90.3839 34.1678C90.4774 34.3543 90.5708 34.634 90.6642 34.9137C90.8511 35.1002 90.8511 35.3799 90.8511 35.6597Z" fill="#D5DDEA"/>
    <path d="M90.8511 35.6597V72.7693C90.8511 77.8975 86.7394 82 81.5063 82H15.3448C10.2052 82 6 77.8975 6 72.7693V35.4733C6 35.2868 6 35.1003 6.09345 34.9138H27.3997C30.5769 34.9138 33.1935 37.4313 33.1935 40.6947C33.1935 42.2798 33.8476 43.7716 34.8756 44.7973C35.9969 45.9161 37.3052 46.4756 38.9873 46.4756H57.9573C61.1346 46.4756 63.7511 43.9581 63.7511 40.6947C63.7511 39.1096 64.4052 37.6178 65.4332 36.5921C66.5546 35.4733 67.8628 34.9138 69.4515 34.9138H90.6642C90.8511 35.1003 90.8511 35.38 90.8511 35.6597Z" fill="url(#paint0_linear_3091_7870)"/>
    <path d="M37.7636 59.8645C38.9477 59.8645 39.9076 58.9067 39.9076 57.7253C39.9076 56.5438 38.9477 55.5861 37.7636 55.5861C36.5795 55.5861 35.6196 56.5438 35.6196 57.7253C35.6196 58.9067 36.5795 59.8645 37.7636 59.8645Z" fill="#989FB0"/>
    <path d="M59.0876 59.8645C60.2717 59.8645 61.2316 58.9067 61.2316 57.7253C61.2316 56.5438 60.2717 55.5861 59.0876 55.5861C57.9035 55.5861 56.9436 56.5438 56.9436 57.7253C56.9436 58.9067 57.9035 59.8645 59.0876 59.8645Z" fill="#989FB0"/>
    <path d="M51.9023 73.9139H45.1806C44.1376 73.9139 43.2684 73.0467 43.2684 72.006C43.2684 70.9653 44.1376 70.098 45.1806 70.098H51.8444C52.8874 70.098 53.7566 70.9653 53.7566 72.006C53.8145 73.0467 52.9453 73.9139 51.9023 73.9139Z" fill="#989FB0"/>
    <path d="M101.283 46.9849C100.753 46.4544 100.753 45.5944 101.283 45.0639V45.0639C101.813 44.5334 102.674 44.5334 103.204 45.0639L116.331 58.1909C116.861 58.7213 116.861 59.5814 116.331 60.1119V60.1119C115.801 60.6424 114.94 60.6424 114.41 60.1119L101.283 46.9849Z" fill="#848B9B"/>
    <circle cx="89.4367" cy="33.2174" r="17.3529" transform="rotate(-45 89.4367 33.2174)" stroke="#A1AABB" stroke-width="2.42278"/>
  </g>
  <defs>
    <filter id="filter0_d_3091_7870" x="0" y="0" width="122.729" height="92" filterUnits="userSpaceOnUse" color-interpolation-filters="sRGB">
      <feFlood flood-opacity="0" result="BackgroundImageFix"/>
      <feColorMatrix in="SourceAlpha" type="matrix" values="0 0 0 0 0 0 0 0 0 0 0 0 0 0 0 0 0 0 127 0" result="hardAlpha"/>
      <feOffset dy="4"/>
      <feGaussianBlur stdDeviation="3"/>
      <feComposite in2="hardAlpha" operator="out"/>
      <feColorMatrix type="matrix" values="0 0 0 0 0.396078 0 0 0 0 0.478431 0 0 0 0 0.576471 0 0 0 0.1 0"/>
      <feBlend mode="normal" in2="BackgroundImageFix" result="effect1_dropShadow_3091_7870"/>
      <feBlend mode="normal" in="SourceGraphic" in2="effect1_dropShadow_3091_7870" result="shape"/>
    </filter>
    <linearGradient id="paint0_linear_3091_7870" x1="48.3979" y1="33.8247" x2="48.3979" y2="82.5077" gradientUnits="userSpaceOnUse">
      <stop stop-color="#FDFEFF"/>
      <stop offset="0.9964" stop-color="#ECF0F5"/>
    </linearGradient>
  </defs>
</svg>