<svg width="24" height="24" viewBox="0 0 24 24" fill="none" xmlns="http://www.w3.org/2000/svg">
<path d="M3 9.05711V16.5C3 18.1569 4.34314 19.5 6 19.5H18C19.6569 19.5 21 18.1569 21 16.5V7.5C21 5.84314 19.6569 4.5 18 4.5H6C4.34314 4.5 3 5.84314 3 7.5V9.05711C3 9.05706 3 9.05714 3 9.05711ZM6 6H18C18.8284 6 19.5 6.67158 19.5 7.5V8.60981L12.0002 12.6482L4.5 8.60964V7.5C4.5 6.67158 5.17158 6 6 6ZM4.5 10.3133L11.6446 14.1604C11.8666 14.2799 12.1337 14.2799 12.3557 14.1604L19.5 10.3134V16.5C19.5 17.3284 18.8284 18 18 18H6C5.17158 18 4.5 17.3284 4.5 16.5V10.3133Z" fill="currentColor"/>
</svg>
