<svg width="79" height="79" viewBox="0 0 79 79" fill="none" xmlns="http://www.w3.org/2000/svg">
<path fill-rule="evenodd" clip-rule="evenodd" d="M41.5402 6.58334H29.625C13.1666 6.58334 6.58331 13.1667 6.58331 29.625V49.375C6.58331 61.7188 10.2864 68.5078 19.0814 71.1309C22.013 72.0052 25.5104 72.4167 29.6249 72.4167M41.5402 6.58334H49.375C65.8333 6.58334 72.4166 13.1667 72.4166 29.625V34.3948L72.4168 49.375C72.4168 58.5119 70.3878 64.6054 65.7667 68.2186C64.5025 69.207 63.0443 70.0099 61.3807 70.6386C59.5405 71.3341 57.449 71.8165 55.0904 72.1016C53.3353 72.3138 51.4323 72.4167 49.3751 72.4167H29.6249M67.4791 32.9167V29.625C67.4791 21.8828 65.9005 17.7478 63.5763 15.4236C61.2522 13.0995 57.1172 11.5208 49.375 11.5208H42.7916H29.625C21.8828 11.5208 17.7477 13.0995 15.4236 15.4236C13.0995 17.7478 11.5208 21.8828 11.5208 29.625V49.375C11.5208 52.4925 11.7768 55.0252 12.2343 57.0903L23.6407 49.4321C27.14 47.0844 32.1162 47.3212 35.3156 50.07L35.3365 50.088L36.4109 51.0323C38.0543 52.4351 40.8277 52.4325 42.4669 51.0244L56.1602 39.2731C59.2807 36.5935 64.0149 36.3074 67.4791 38.4161V32.9167ZM20.5729 26.3333C20.5729 21.334 24.6257 17.2813 29.625 17.2813C34.6243 17.2813 38.6771 21.334 38.6771 26.3333C38.6771 31.3327 34.6243 35.3854 29.625 35.3854C24.6257 35.3854 20.5729 31.3327 20.5729 26.3333Z" fill="#BCBFD6"/>
</svg>
