<svg width="24" height="24" viewBox="0 0 24 24" fill="none" xmlns="http://www.w3.org/2000/svg">
<path d="M22 8.61004V16.75C22.0013 17.5817 21.6837 18.3822 21.1126 18.9868C20.5415 19.5913 19.7604 19.954 18.93 20H5.25C4.41835 20.0013 3.61784 19.6837 3.01327 19.1126C2.4087 18.5415 2.04606 17.7604 2 16.93V8.61004L11.65 13.66C11.7573 13.7187 11.8777 13.7494 12 13.7494C12.1223 13.7494 12.2427 13.7187 12.35 13.66L22 8.61004ZM5.25 4.00004H18.75C19.5577 3.99587 20.338 4.29262 20.9389 4.83245C21.5397 5.37227 21.918 6.11649 22 6.92004L12 12.15L2 6.92004C2.07366 6.1467 2.42356 5.42582 2.98557 4.88952C3.54759 4.35321 4.28406 4.03743 5.06 4.00004H5.25Z" fill="white"/>
</svg>
