<svg width="27" height="24" viewBox="0 0 27 24" fill="none" xmlns="http://www.w3.org/2000/svg">
<path fill-rule="evenodd" clip-rule="evenodd" d="M10.5003 0.711914C9.94804 0.711914 9.50033 1.15963 9.50033 1.71191V23.3786H18.8337V1.71191C18.8337 1.15963 18.3859 0.711914 17.8337 0.711914H10.5003ZM13.5003 4.71191H10.8337V7.37858H13.5003V4.71191ZM13.5003 8.71191H16.167V11.3786H13.5003V8.71191ZM16.167 14.0452H13.5003V16.7119H16.167V14.0452Z" fill="currentColor"/>
<path fill-rule="evenodd" clip-rule="evenodd" d="M0.166992 9.71191C0.166992 9.15963 0.614707 8.71191 1.16699 8.71191H8.16699V23.3786H0.166992V9.71191ZM2.83366 11.3786H5.50033V14.0452H2.83366V11.3786ZM5.50033 16.7119H2.83366V19.3786H5.50033V16.7119Z" fill="currentColor"/>
<path fill-rule="evenodd" clip-rule="evenodd" d="M25.8337 10.0452H20.167V23.3786H26.8337V11.0452C26.8337 10.493 26.3859 10.0452 25.8337 10.0452ZM24.167 14.0452H21.5003V16.7119H24.167V14.0452Z" fill="currentColor"/>
</svg>
