<svg width="25" height="24" viewBox="0 0 25 24" fill="none" xmlns="http://www.w3.org/2000/svg">
<path fill-rule="evenodd" clip-rule="evenodd" d="M12.5 1.25C6.56579 1.25 1.75 6.06579 1.75 12C1.75 17.9342 6.56579 22.75 12.5 22.75C12.9142 22.75 13.25 22.4142 13.25 22C13.25 21.5858 12.9142 21.25 12.5 21.25C11.7238 21.25 10.9698 21.1542 10.2492 20.9738C10.2467 20.9027 10.2341 20.8316 10.211 20.7625C9.80154 19.5362 9.48038 18.2881 9.24754 17.0277C10.3281 17.1491 11.414 17.21 12.5 17.21C12.9142 17.21 13.25 16.8742 13.25 16.46C13.25 16.0458 12.9142 15.71 12.5 15.71C11.3337 15.71 10.1672 15.6359 9.00777 15.4883C8.71343 13.1713 8.71356 10.8257 9.00814 8.50873C11.3254 8.21404 13.6713 8.21389 15.9886 8.50826C16.1361 9.66751 16.2102 10.8338 16.2102 12C16.2102 12.4142 16.546 12.75 16.9602 12.75C17.3744 12.75 17.7102 12.4142 17.7102 12C17.7102 10.9142 17.6493 9.82847 17.528 8.74804C18.7884 8.98088 20.0364 9.30203 21.2627 9.71149C21.3327 9.73488 21.4038 9.74735 21.474 9.74983C21.6543 10.4702 21.75 11.224 21.75 12C21.75 12.4142 22.0858 12.75 22.5 12.75C22.9142 12.75 23.25 12.4142 23.25 12C23.25 6.06579 18.4342 1.25 12.5 1.25ZM15.7486 6.96895C13.5886 6.72701 11.408 6.72715 9.24808 6.96937C9.48088 5.70995 9.80185 4.46289 10.211 3.23754C10.2341 3.16844 10.2467 3.09726 10.2492 3.02617C10.9698 2.84579 11.7238 2.75 12.5 2.75C13.2761 2.75 14.03 2.84575 14.7505 3.02608C14.7529 3.09596 14.7653 3.16668 14.7884 3.2364C15.1956 4.46211 15.5159 5.70942 15.7486 6.96895ZM20.8448 8.0064C19.6806 7.65882 18.5 7.38559 17.3099 7.18669C17.111 5.99747 16.8383 4.81778 16.4924 3.65465C18.3922 4.56585 19.9333 6.10679 20.8448 8.0064ZM4.15515 8.00655C5.31822 7.65927 6.49775 7.3862 7.6867 7.18733C7.88018 6.03037 8.14393 4.88233 8.47794 3.74969C8.43278 3.74841 8.38861 3.74314 8.34579 3.73421C6.52031 4.65413 5.04059 6.16109 4.15515 8.00655ZM3.73774 9.71149C3.66756 9.73492 3.59636 9.7474 3.526 9.74985C3.34572 10.4702 3.25 11.224 3.25 12C3.25 12.7761 3.34575 13.53 3.52608 14.2505C3.59682 14.2529 3.66765 14.2654 3.73644 14.2882C4.96198 14.6954 6.2091 15.0156 7.46845 15.2483C7.22655 13.0887 7.22666 10.9083 7.46878 8.74871C6.20963 8.9815 4.96284 9.30242 3.73774 9.71149ZM4.23415 16.1541C5.12722 17.9263 6.57357 19.3727 8.3458 20.2658C8.38862 20.2569 8.43278 20.2516 8.47794 20.2503C8.14364 19.1167 7.87972 17.9676 7.68619 16.8096C6.52953 16.6162 5.38189 16.3529 4.24973 16.0203C4.24852 16.066 4.2432 16.1108 4.23415 16.1541ZM16 19.9376V17.75H23V19.9329C23 20.1809 22.9877 20.3487 22.9723 20.4599C22.8307 20.4828 22.6127 20.5 22.28 20.5L16.72 20.5L16.716 20.5C16.3858 20.5008 16.1687 20.4844 16.0274 20.4622C16.0122 20.351 16 20.1839 16 19.9376ZM16 16.25H23V16.0671C23 15.8192 22.9877 15.6516 22.9723 15.5405C22.8299 15.5174 22.6104 15.5 22.275 15.5H16.72C16.3873 15.5 16.1693 15.5172 16.0277 15.5401C16.0123 15.6513 16 15.8191 16 16.0671V16.25ZM17.2273 18.25C16.8131 18.25 16.4773 18.5858 16.4773 19C16.4773 19.4142 16.8131 19.75 17.2273 19.75H18.1364C18.5506 19.75 18.8864 19.4142 18.8864 19C18.8864 18.5858 18.5506 18.25 18.1364 18.25H17.2273ZM16.72 14H22.275C24.055 14 24.5 14.4144 24.5 16.0671V19.9329C24.5 21.5856 24.055 22 22.28 22H16.72C14.945 22.0047 14.5 21.5903 14.5 19.9376V16.0671C14.5 14.4144 14.945 14 16.72 14Z" fill="currentColor"/>
</svg>
