<svg width="25" height="24" viewBox="0 0 25 24" fill="none" xmlns="http://www.w3.org/2000/svg">
<path fill-rule="evenodd" clip-rule="evenodd" d="M12.6216 3.55005C12.2496 3.55005 11.9191 3.61509 11.7081 3.70956L11.706 3.71051L5.80429 6.33124C5.02964 6.673 4.97656 6.9822 4.97656 7.01505C4.97656 7.0479 5.02964 7.3571 5.80429 7.69886L5.80595 7.69959L11.7081 10.3205C11.9191 10.415 12.2496 10.48 12.6216 10.48C12.9936 10.48 13.3241 10.415 13.5351 10.3205L13.5372 10.3196L19.4372 7.69959L19.4388 7.69886C20.2135 7.3571 20.2666 7.0479 20.2666 7.01505C20.2666 6.9822 20.2135 6.673 19.4388 6.33124L13.5372 3.7105L13.5351 3.70956C13.3241 3.61509 12.9936 3.55005 12.6216 3.55005ZM14.1469 2.34003C13.6881 2.13487 13.1342 2.05005 12.6216 2.05005C12.109 2.05005 11.555 2.13487 11.0962 2.34003C11.0958 2.3402 11.0954 2.34037 11.0951 2.34054L5.19883 4.95886C5.19857 4.95898 5.1991 4.95874 5.19883 4.95886C4.27383 5.36714 3.47656 6.05317 3.47656 7.01505C3.47656 7.97689 4.27298 8.66256 5.19794 9.07084C5.19764 9.07071 5.19824 9.07097 5.19794 9.07084L11.0951 11.6896C11.0955 11.6898 11.0959 11.6899 11.0963 11.6901C11.5551 11.8952 12.109 11.98 12.6216 11.98C13.1341 11.98 13.6881 11.8952 14.1469 11.6901C14.1473 11.6899 14.1477 11.6897 14.1481 11.6896L20.0443 9.07124C20.044 9.07135 20.0446 9.07112 20.0443 9.07124C20.9693 8.66296 21.7666 7.97693 21.7666 7.01505C21.7666 6.05314 20.97 5.36744 20.045 4.95917C20.0448 4.95906 20.0452 4.95927 20.045 4.95917L14.1481 2.34054C14.1477 2.34037 14.1473 2.3402 14.1469 2.34003Z" fill="currentColor"/>
<path fill-rule="evenodd" clip-rule="evenodd" d="M3.83203 10.25C4.24624 10.25 4.58203 10.5858 4.58203 11C4.58203 11.2434 4.67831 11.5559 4.87193 11.8535C5.06554 12.151 5.3121 12.3655 5.53498 12.4639L5.53682 12.4647L12.3254 15.4841C12.3252 15.484 12.3257 15.4842 12.3254 15.4841C12.6539 15.6291 13.0219 15.6269 13.3337 15.4863L13.3372 15.4847L20.1272 12.4647L20.1291 12.4639C20.352 12.3655 20.5985 12.151 20.7921 11.8535C20.9857 11.5559 21.082 11.2434 21.082 11C21.082 10.5858 21.4178 10.25 21.832 10.25C22.2462 10.25 22.582 10.5858 22.582 11C22.582 11.5966 22.3633 12.1891 22.0494 12.6715C21.7357 13.1537 21.2826 13.5941 20.7358 13.8357C20.7355 13.8358 20.7361 13.8356 20.7358 13.8357L13.9504 16.8537C13.9497 16.854 13.949 16.8543 13.9484 16.8546C13.2409 17.1729 12.4293 17.1702 11.7187 16.8559L4.92908 13.8361C4.92874 13.8359 4.9284 13.8358 4.92806 13.8356C4.3814 13.594 3.92833 13.1537 3.61463 12.6715C3.30075 12.1891 3.08203 11.5966 3.08203 11C3.08203 10.5858 3.41782 10.25 3.83203 10.25Z" fill="currentColor"/>
<path fill-rule="evenodd" clip-rule="evenodd" d="M3.83203 15.1499C4.24624 15.1499 4.58203 15.4857 4.58203 15.8999C4.58203 16.5307 4.95498 17.1042 5.53757 17.365C5.53738 17.3649 5.53775 17.365 5.53757 17.365L12.3254 20.384C12.3252 20.3839 12.3257 20.3841 12.3254 20.384C12.6539 20.529 13.0219 20.5268 13.3337 20.3862L13.3372 20.3846L20.1259 17.3652C20.1257 17.3653 20.1261 17.3651 20.1259 17.3652C20.7085 17.1045 21.082 16.5307 21.082 15.8999C21.082 15.4857 21.4178 15.1499 21.832 15.1499C22.2462 15.1499 22.582 15.4857 22.582 15.8999C22.582 17.1289 21.8552 18.2352 20.7381 18.7346L20.7368 18.7352L13.9504 21.7536C13.9497 21.7539 13.949 21.7542 13.9484 21.7545C13.2409 22.0728 12.4293 22.0701 11.7187 21.7558L4.92593 18.7346C3.80884 18.2352 3.08203 17.1289 3.08203 15.8999C3.08203 15.4857 3.41782 15.1499 3.83203 15.1499Z" fill="currentColor"/>
</svg>
