<svg width="20" height="20" viewBox="0 0 20 20" fill="none" xmlns="http://www.w3.org/2000/svg">
<path fill-rule="evenodd" clip-rule="evenodd" d="M4.16663 9.79199C4.16663 9.44681 4.44645 9.16699 4.79163 9.16699L15.2083 9.16699C15.5535 9.16699 15.8333 9.44682 15.8333 9.79199C15.8333 10.1372 15.5535 10.417 15.2083 10.417L4.79163 10.417C4.44645 10.417 4.16663 10.1372 4.16663 9.79199Z" fill="currentColor"/>
<path fill-rule="evenodd" clip-rule="evenodd" d="M10 4.16699C10.3452 4.16699 10.625 4.44681 10.625 4.79199V15.2087C10.625 15.5538 10.3452 15.8337 10 15.8337C9.65482 15.8337 9.375 15.5538 9.375 15.2087V4.79199C9.375 4.44681 9.65482 4.16699 10 4.16699Z" fill="currentColor"/>
</svg>
