
<svg width="50" height="16" viewBox="0 0 50 16" fill="none" xmlns="http://www.w3.org/2000/svg">
<g clip-path="url(#clip0_10367_100337)">
<g filter="url(#filter0_d_10367_100337)">
<path d="M39.5175 8.57052V12.6933H37.4298V8.89069C37.4298 7.72841 36.8947 7.19333 35.9736 7.19333C34.9692 7.19333 34.2456 7.81175 34.2456 9.13192V12.6933H32.1622V5.49596H34.1535V6.33806C34.462 6.02223 34.8334 5.7747 35.2437 5.61151C35.6539 5.44831 36.0939 5.37308 36.535 5.39069C38.2324 5.39069 39.5175 6.37754 39.5175 8.57052Z" stroke="white" stroke-width="1.64474" stroke-miterlimit="10"/>
<path d="M47.8071 9.68059H42.3773C42.579 10.5797 43.3422 11.128 44.4387 11.128C44.7708 11.141 45.1022 11.0858 45.4122 10.9659C45.7222 10.8459 46.0044 10.6638 46.2413 10.4306L47.3685 11.6367C46.9883 12.0353 46.5255 12.3459 46.0125 12.5466C45.4996 12.7474 44.949 12.8336 44.3992 12.799C41.9124 12.799 40.2939 11.2332 40.2939 9.09287C40.2939 6.95252 41.9387 5.39111 44.1317 5.39111C46.2457 5.39111 47.8773 6.80778 47.8773 9.11918C47.8597 9.28146 47.8334 9.50953 47.8071 9.68059ZM42.351 8.46567H45.8948C45.8226 8.0481 45.6052 7.66945 45.281 7.39653C44.9568 7.12361 44.5467 6.97394 44.1229 6.97394C43.6991 6.97394 43.289 7.12361 42.9648 7.39653C42.6406 7.66945 42.4232 8.0481 42.351 8.46567Z" stroke="white" stroke-width="1.64474" stroke-miterlimit="10"/>
<path d="M39.5175 8.57052V12.6933H37.4298V8.89069C37.4298 7.72841 36.8947 7.19333 35.9736 7.19333C34.9692 7.19333 34.2456 7.81175 34.2456 9.13192V12.6933H32.1622V5.49596H34.1535V6.33806C34.462 6.02223 34.8334 5.7747 35.2437 5.61151C35.6539 5.44831 36.0939 5.37308 36.535 5.39069C38.2324 5.39069 39.5175 6.37754 39.5175 8.57052Z" fill="#FDC60B"/>
<path d="M47.8071 9.68059H42.3773C42.579 10.5797 43.3422 11.128 44.4387 11.128C44.7708 11.141 45.1022 11.0858 45.4122 10.9659C45.7222 10.8459 46.0044 10.6638 46.2413 10.4306L47.3685 11.6367C46.9883 12.0353 46.5255 12.3459 46.0125 12.5466C45.4996 12.7474 44.949 12.8336 44.3992 12.799C41.9124 12.799 40.2939 11.2332 40.2939 9.09287C40.2939 6.95252 41.9387 5.39111 44.1317 5.39111C46.2457 5.39111 47.8773 6.80778 47.8773 9.11918C47.8597 9.28146 47.8334 9.50953 47.8071 9.68059ZM42.351 8.46567H45.8948C45.8226 8.0481 45.6052 7.66945 45.281 7.39653C44.9568 7.12361 44.5467 6.97394 44.1229 6.97394C43.6991 6.97394 43.289 7.12361 42.9648 7.39653C42.6406 7.66945 42.4232 8.0481 42.351 8.46567Z" fill="#FDC60B"/>
<path d="M1.31568 13.1708C1.23309 13.1708 1.15388 13.138 1.09548 13.0796C1.03708 13.0212 1.00427 12.942 1.00427 12.8594V2.19275C1.00427 2.11016 1.03708 2.03096 1.09548 1.97256C1.15388 1.91416 1.23309 1.88135 1.31568 1.88135H5.70164C8.48234 1.88135 10.2806 3.5524 10.2806 6.14012C10.2806 8.72784 8.49989 10.3857 5.70164 10.3857H4.35954V12.8594C4.35954 12.942 4.32673 13.0212 4.26833 13.0796C4.20993 13.138 4.13072 13.1708 4.04813 13.1708H1.31568ZM5.5569 7.38573C6.48234 7.38573 6.92971 6.98222 6.92971 6.14451C6.92971 5.30679 6.49111 4.88573 5.5569 4.88573H4.35954V7.38573H5.5569Z" fill="#1B75BA"/>
<path d="M5.70182 2.19312C8.3334 2.19312 9.96936 3.70189 9.96936 6.14049C9.96936 8.57908 8.32462 10.0879 5.70182 10.0879H4.04831V12.8773H1.31585V2.19312H5.70182ZM4.04831 7.69312H5.55708C6.67989 7.69312 7.24568 7.11417 7.24568 6.14049C7.24568 5.1668 6.67989 4.57031 5.55708 4.57031H4.04831V7.69312ZM5.70182 1.57031H1.31585C1.15373 1.57488 0.99979 1.64251 0.886759 1.75882C0.773727 1.87512 0.710524 2.03094 0.710589 2.19312V12.8598C0.709377 13.0227 0.77207 13.1797 0.885222 13.2969C0.998374 13.4142 1.15297 13.4824 1.31585 13.487H4.04831C4.13047 13.487 4.21181 13.4707 4.28766 13.4392C4.36351 13.4076 4.43237 13.3613 4.49026 13.303C4.54815 13.2447 4.59393 13.1755 4.62497 13.0995C4.65601 13.0234 4.67169 12.9419 4.67111 12.8598V10.6975H5.70182C8.6755 10.6975 10.5922 8.90803 10.5922 6.14049C10.5922 3.37294 8.69304 1.57031 5.70182 1.57031ZM4.67111 5.19312H5.54831C6.48252 5.19312 6.60971 5.63172 6.60971 6.14049C6.60971 6.64926 6.4869 7.07031 5.54831 7.07031H4.67111V5.19312Z" fill="white"/>
<path d="M13.4431 13.1708C13.3805 13.1714 13.3192 13.1528 13.2675 13.1175C13.2157 13.0822 13.176 13.032 13.1536 12.9735L9.05276 2.3068C9.03352 2.25977 9.02626 2.20871 9.03162 2.15819C9.03698 2.10767 9.05479 2.05926 9.08346 2.01732C9.11295 1.976 9.15173 1.94217 9.19667 1.91856C9.24161 1.89494 9.29147 1.8822 9.34223 1.88136H12.2808C12.3446 1.88087 12.4069 1.89995 12.4595 1.93603C12.512 1.97211 12.5522 2.02345 12.5747 2.08311L14.8861 8.26294L17.2501 2.08311C17.2726 2.02345 17.3128 1.97211 17.3653 1.93603C17.4179 1.89995 17.4802 1.88087 17.544 1.88136H20.2326C20.2828 1.88183 20.3322 1.89443 20.3765 1.91811C20.4208 1.94179 20.4587 1.97582 20.487 2.01732C20.5171 2.05853 20.5362 2.10679 20.5423 2.15748C20.5484 2.20816 20.5415 2.25958 20.5221 2.3068L16.408 12.9735C16.3846 13.0313 16.3447 13.0808 16.2932 13.116C16.2417 13.1511 16.1809 13.1702 16.1185 13.1708H13.4431Z" fill="#1B75BA"/>
<path d="M20.2325 2.19312L16.1185 12.8598H13.443L9.34215 2.19312H12.2807L14.8816 9.14049L17.5439 2.19312H20.2325ZM20.2325 1.57032H17.5439C17.4177 1.56989 17.2943 1.60784 17.1901 1.67911C17.086 1.75039 17.0059 1.85164 16.9606 1.96944L14.9123 7.38611L12.8597 1.97382C12.8153 1.8559 12.7363 1.7542 12.6329 1.68216C12.5295 1.61012 12.4067 1.57112 12.2807 1.57032H9.34215C9.24238 1.57308 9.1447 1.59961 9.05724 1.64771C8.96978 1.69581 8.89506 1.7641 8.8393 1.84688C8.78354 1.92967 8.74834 2.02457 8.73663 2.12369C8.72492 2.22282 8.73704 2.32331 8.77198 2.41681L12.8597 13.0879C12.9048 13.2061 12.9847 13.308 13.0888 13.38C13.193 13.452 13.3164 13.4908 13.443 13.4914H16.1185C16.2445 13.4906 16.3672 13.4516 16.4706 13.3795C16.574 13.3075 16.6531 13.2058 16.6974 13.0879L20.8115 2.41681C20.8489 2.32308 20.8625 2.22151 20.851 2.12123C20.8395 2.02095 20.8033 1.92508 20.7457 1.84225C20.6887 1.75864 20.6121 1.69019 20.5227 1.64281C20.4333 1.59543 20.3337 1.57054 20.2325 1.57032Z" fill="white"/>
<path d="M25.3992 14.3471C29.0617 14.3471 32.0307 11.3781 32.0307 7.71556C32.0307 4.05304 29.0617 1.08398 25.3992 1.08398C21.7366 1.08398 18.7676 4.05304 18.7676 7.71556C18.7676 11.3781 21.7366 14.3471 25.3992 14.3471Z" fill="white"/>
<path d="M26.1053 3.71448C26.4323 3.71448 26.6974 3.44939 26.6974 3.12238C26.6974 2.79537 26.4323 2.53027 26.1053 2.53027C25.7783 2.53027 25.5132 2.79537 25.5132 3.12238C25.5132 3.44939 25.7783 3.71448 26.1053 3.71448Z" fill="#FDAC00"/>
<path d="M27.2017 4.34694C27.4415 4.34694 27.6359 4.15253 27.6359 3.91273C27.6359 3.67292 27.4415 3.47852 27.2017 3.47852C26.9619 3.47852 26.7675 3.67292 26.7675 3.91273C26.7675 4.15253 26.9619 4.34694 27.2017 4.34694Z" fill="#FDAC00"/>
<path d="M24.6975 3.07936C24.9373 3.07936 25.1317 2.88496 25.1317 2.64515C25.1317 2.40534 24.9373 2.21094 24.6975 2.21094C24.4577 2.21094 24.2633 2.40534 24.2633 2.64515C24.2633 2.88496 24.4577 3.07936 24.6975 3.07936Z" fill="#FDAC00"/>
<path d="M27.8377 5.1274C28.0509 5.1274 28.2237 4.9546 28.2237 4.74143C28.2237 4.52827 28.0509 4.35547 27.8377 4.35547C27.6246 4.35547 27.4518 4.52827 27.4518 4.74143C27.4518 4.9546 27.6246 5.1274 27.8377 5.1274Z" fill="#FDAC00"/>
<path d="M23.6185 3.00045C23.8317 3.00045 24.0045 2.82764 24.0045 2.61448C24.0045 2.40132 23.8317 2.22852 23.6185 2.22852C23.4053 2.22852 23.2325 2.40132 23.2325 2.61448C23.2325 2.82764 23.4053 3.00045 23.6185 3.00045Z" fill="#FDAC00"/>
<path d="M28.2236 5.84265C28.3786 5.84265 28.5043 5.71698 28.5043 5.56195C28.5043 5.40692 28.3786 5.28125 28.2236 5.28125C28.0685 5.28125 27.9429 5.40692 27.9429 5.56195C27.9429 5.71698 28.0685 5.84265 28.2236 5.84265Z" fill="#FDAC00"/>
<path d="M22.7632 3.07068C22.9183 3.07068 23.0439 2.94501 23.0439 2.78998C23.0439 2.63495 22.9183 2.50928 22.7632 2.50928C22.6082 2.50928 22.4825 2.63495 22.4825 2.78998C22.4825 2.94501 22.6082 3.07068 22.7632 3.07068Z" fill="#FDAC00"/>
<path d="M28.4255 6.47473C28.5466 6.47473 28.6448 6.37655 28.6448 6.25543C28.6448 6.13432 28.5466 6.03613 28.4255 6.03613C28.3044 6.03613 28.2062 6.13432 28.2062 6.25543C28.2062 6.37655 28.3044 6.47473 28.4255 6.47473Z" fill="#FDAC00"/>
<path d="M22.0615 3.30676C22.1826 3.30676 22.2808 3.20858 22.2808 3.08746C22.2808 2.96635 22.1826 2.86816 22.0615 2.86816C21.9403 2.86816 21.8422 2.96635 21.8422 3.08746C21.8422 3.20858 21.9403 3.30676 22.0615 3.30676Z" fill="#FDAC00"/>
<path d="M28.5045 6.9652C28.5917 6.9652 28.6623 6.89451 28.6623 6.80731C28.6623 6.72011 28.5917 6.64941 28.5045 6.64941C28.4172 6.64941 28.3466 6.72011 28.3466 6.80731C28.3466 6.89451 28.4172 6.9652 28.5045 6.9652Z" fill="#FDAC00"/>
<path d="M21.5263 3.55749C21.6135 3.55749 21.6842 3.4868 21.6842 3.39959C21.6842 3.31239 21.6135 3.2417 21.5263 3.2417C21.4391 3.2417 21.3684 3.31239 21.3684 3.39959C21.3684 3.4868 21.4391 3.55749 21.5263 3.55749Z" fill="#FDAC00"/>
<path d="M28.4955 7.3868C28.5537 7.3868 28.6008 7.33967 28.6008 7.28153C28.6008 7.2234 28.5537 7.17627 28.4955 7.17627C28.4374 7.17627 28.3903 7.2234 28.3903 7.28153C28.3903 7.33967 28.4374 7.3868 28.4955 7.3868Z" fill="#FDAC00"/>
<path d="M21.1141 3.84676C21.1722 3.84676 21.2193 3.79963 21.2193 3.74149C21.2193 3.68336 21.1722 3.63623 21.1141 3.63623C21.0559 3.63623 21.0088 3.68336 21.0088 3.74149C21.0088 3.79963 21.0559 3.84676 21.1141 3.84676Z" fill="#FDAC00"/>
<path d="M28.465 7.70627C28.5037 7.70627 28.5351 7.67485 28.5351 7.63609C28.5351 7.59734 28.5037 7.56592 28.465 7.56592C28.4262 7.56592 28.3948 7.59734 28.3948 7.63609C28.3948 7.67485 28.4262 7.70627 28.465 7.70627Z" fill="#FDAC00"/>
<path d="M20.8114 4.0881C20.8501 4.0881 20.8816 4.05669 20.8816 4.01793C20.8816 3.97917 20.8501 3.94775 20.8114 3.94775C20.7726 3.94775 20.7412 3.97917 20.7412 4.01793C20.7412 4.05669 20.7726 4.0881 20.8114 4.0881Z" fill="#FDAC00"/>
<path d="M29.2237 5.59681C29.5507 5.59681 29.8158 5.33171 29.8158 5.0047C29.8158 4.67769 29.5507 4.4126 29.2237 4.4126C28.8967 4.4126 28.6316 4.67769 28.6316 5.0047C28.6316 5.33171 28.8967 5.59681 29.2237 5.59681Z" fill="#E59C00"/>
<path d="M29.4473 6.76784C29.6871 6.76784 29.8815 6.57343 29.8815 6.33362C29.8815 6.09382 29.6871 5.89941 29.4473 5.89941C29.2075 5.89941 29.0131 6.09382 29.0131 6.33362C29.0131 6.57343 29.2075 6.76784 29.4473 6.76784Z" fill="#E59C00"/>
<path d="M28.5615 4.10573C28.8013 4.10573 28.9957 3.91132 28.9957 3.67152C28.9957 3.43171 28.8013 3.2373 28.5615 3.2373C28.3217 3.2373 28.1273 3.43171 28.1273 3.67152C28.1273 3.91132 28.3217 4.10573 28.5615 4.10573Z" fill="#E59C00"/>
<path d="M29.3159 7.75923C29.5291 7.75923 29.7019 7.58643 29.7019 7.37327C29.7019 7.16011 29.5291 6.9873 29.3159 6.9873C29.1027 6.9873 28.9299 7.16011 28.9299 7.37327C28.9299 7.58643 29.1027 7.75923 29.3159 7.75923Z" fill="#E59C00"/>
<path d="M27.8157 3.27681C28.0288 3.27681 28.2016 3.10401 28.2016 2.89085C28.2016 2.67769 28.0288 2.50488 27.8157 2.50488C27.6025 2.50488 27.4297 2.67769 27.4297 2.89085C27.4297 3.10401 27.6025 3.27681 27.8157 3.27681Z" fill="#E59C00"/>
<path d="M29.0132 8.50476C29.1683 8.50476 29.2939 8.37909 29.2939 8.22406C29.2939 8.06903 29.1683 7.94336 29.0132 7.94336C28.8582 7.94336 28.7325 8.06903 28.7325 8.22406C28.7325 8.37909 28.8582 8.50476 29.0132 8.50476Z" fill="#E59C00"/>
<path d="M27.0876 2.69324C27.2426 2.69324 27.3683 2.56756 27.3683 2.41254C27.3683 2.25751 27.2426 2.13184 27.0876 2.13184C26.9326 2.13184 26.8069 2.25751 26.8069 2.41254C26.8069 2.56756 26.9326 2.69324 27.0876 2.69324Z" fill="#E59C00"/>
<path d="M28.6711 9.07483C28.7922 9.07483 28.8904 8.97664 28.8904 8.85553C28.8904 8.73441 28.7922 8.63623 28.6711 8.63623C28.55 8.63623 28.4518 8.73441 28.4518 8.85553C28.4518 8.97664 28.55 9.07483 28.6711 9.07483Z" fill="#E59C00"/>
<path d="M26.3771 2.35168C26.4983 2.35168 26.5964 2.2535 26.5964 2.13238C26.5964 2.01127 26.4983 1.91309 26.3771 1.91309C26.256 1.91309 26.1578 2.01127 26.1578 2.13238C26.1578 2.2535 26.256 2.35168 26.3771 2.35168Z" fill="#E59C00"/>
<path d="M28.3378 9.46032C28.425 9.46032 28.4957 9.38963 28.4957 9.30243C28.4957 9.21522 28.425 9.14453 28.3378 9.14453C28.2506 9.14453 28.1799 9.21522 28.1799 9.30243C28.1799 9.38963 28.2506 9.46032 28.3378 9.46032Z" fill="#E59C00"/>
<path d="M25.7764 2.1322C25.8636 2.1322 25.9343 2.0615 25.9343 1.9743C25.9343 1.8871 25.8636 1.81641 25.7764 1.81641C25.6892 1.81641 25.6185 1.8871 25.6185 1.9743C25.6185 2.0615 25.6892 2.1322 25.7764 2.1322Z" fill="#E59C00"/>
<path d="M27.9955 9.74178C28.0537 9.74178 28.1008 9.69465 28.1008 9.63651C28.1008 9.57838 28.0537 9.53125 27.9955 9.53125C27.9374 9.53125 27.8903 9.57838 27.8903 9.63651C27.8903 9.69465 27.9374 9.74178 27.9955 9.74178Z" fill="#E59C00"/>
<path d="M25.2456 2.03084C25.3038 2.03084 25.3509 1.98371 25.3509 1.92558C25.3509 1.86744 25.3038 1.82031 25.2456 1.82031C25.1875 1.82031 25.1404 1.86744 25.1404 1.92558C25.1404 1.98371 25.1875 2.03084 25.2456 2.03084Z" fill="#E59C00"/>
<path d="M27.7237 9.93381C27.7625 9.93381 27.7939 9.90239 27.7939 9.86363C27.7939 9.82488 27.7625 9.79346 27.7237 9.79346C27.685 9.79346 27.6536 9.82488 27.6536 9.86363C27.6536 9.90239 27.685 9.93381 27.7237 9.93381Z" fill="#E59C00"/>
<path d="M24.8378 1.97824C24.8765 1.97824 24.9079 1.94682 24.9079 1.90807C24.9079 1.86931 24.8765 1.83789 24.8378 1.83789C24.799 1.83789 24.7676 1.86931 24.7676 1.90807C24.7676 1.94682 24.799 1.97824 24.8378 1.97824Z" fill="#E59C00"/>
<path d="M30.0306 9.17542C30.3576 9.17542 30.6227 8.91033 30.6227 8.58332C30.6227 8.25631 30.3576 7.99121 30.0306 7.99121C29.7036 7.99121 29.4385 8.25631 29.4385 8.58332C29.4385 8.91033 29.7036 9.17542 30.0306 9.17542Z" fill="#E58000"/>
<path d="M29.2369 10.1057C29.4768 10.1057 29.6712 9.91132 29.6712 9.67152C29.6712 9.43171 29.4768 9.2373 29.2369 9.2373C28.9971 9.2373 28.8027 9.43171 28.8027 9.67152C28.8027 9.91132 28.9971 10.1057 29.2369 10.1057Z" fill="#E58000"/>
<path d="M30.5264 7.61452C30.7662 7.61452 30.9606 7.42011 30.9606 7.1803C30.9606 6.9405 30.7662 6.74609 30.5264 6.74609C30.2866 6.74609 30.0922 6.9405 30.0922 7.1803C30.0922 7.42011 30.2866 7.61452 30.5264 7.61452Z" fill="#E58000"/>
<path d="M28.399 10.6845C28.6122 10.6845 28.785 10.5117 28.785 10.2986C28.785 10.0854 28.6122 9.9126 28.399 9.9126C28.1859 9.9126 28.0131 10.0854 28.0131 10.2986C28.0131 10.5117 28.1859 10.6845 28.399 10.6845Z" fill="#E58000"/>
<path d="M30.5658 6.48238C30.7789 6.48238 30.9517 6.30958 30.9517 6.09641C30.9517 5.88325 30.7789 5.71045 30.5658 5.71045C30.3526 5.71045 30.1798 5.88325 30.1798 6.09641C30.1798 6.30958 30.3526 6.48238 30.5658 6.48238Z" fill="#E58000"/>
<path d="M27.5746 10.9564C27.7297 10.9564 27.8553 10.8307 27.8553 10.6757C27.8553 10.5207 27.7297 10.395 27.5746 10.395C27.4196 10.395 27.2939 10.5207 27.2939 10.6757C27.2939 10.8307 27.4196 10.9564 27.5746 10.9564Z" fill="#E58000"/>
<path d="M30.399 5.52234C30.554 5.52234 30.6797 5.39667 30.6797 5.24164C30.6797 5.08661 30.554 4.96094 30.399 4.96094C30.244 4.96094 30.1183 5.08661 30.1183 5.24164C30.1183 5.39667 30.244 5.52234 30.399 5.52234Z" fill="#E58000"/>
<path d="M26.8815 11.0929C27.0026 11.0929 27.1008 10.9947 27.1008 10.8736C27.1008 10.7525 27.0026 10.6543 26.8815 10.6543C26.7604 10.6543 26.6622 10.7525 26.6622 10.8736C26.6622 10.9947 26.7604 11.0929 26.8815 11.0929Z" fill="#E58000"/>
<path d="M30.1052 4.7594C30.2263 4.7594 30.3245 4.66121 30.3245 4.5401C30.3245 4.41898 30.2263 4.3208 30.1052 4.3208C29.984 4.3208 29.8859 4.41898 29.8859 4.5401C29.8859 4.66121 29.984 4.7594 30.1052 4.7594Z" fill="#E58000"/>
<path d="M26.329 11.1053C26.4162 11.1053 26.4869 11.0346 26.4869 10.9474C26.4869 10.8602 26.4162 10.7896 26.329 10.7896C26.2418 10.7896 26.1711 10.8602 26.1711 10.9474C26.1711 11.0346 26.2418 11.1053 26.329 11.1053Z" fill="#E58000"/>
<path d="M29.7984 4.15856C29.8856 4.15856 29.9563 4.08787 29.9563 4.00067C29.9563 3.91347 29.8856 3.84277 29.7984 3.84277C29.7112 3.84277 29.6405 3.91347 29.6405 4.00067C29.6405 4.08787 29.7112 4.15856 29.7984 4.15856Z" fill="#E58000"/>
<path d="M25.8553 11.0396C25.9134 11.0396 25.9605 10.9925 25.9605 10.9344C25.9605 10.8762 25.9134 10.8291 25.8553 10.8291C25.7971 10.8291 25.75 10.8762 25.75 10.9344C25.75 10.9925 25.7971 11.0396 25.8553 11.0396Z" fill="#E58000"/>
<path d="M29.465 3.68904C29.5231 3.68904 29.5703 3.64191 29.5703 3.58378C29.5703 3.52564 29.5231 3.47852 29.465 3.47852C29.4069 3.47852 29.3597 3.52564 29.3597 3.58378C29.3597 3.64191 29.4069 3.68904 29.465 3.68904Z" fill="#E58000"/>
<path d="M25.5 10.9655C25.5387 10.9655 25.5702 10.9341 25.5702 10.8954C25.5702 10.8566 25.5387 10.8252 25.5 10.8252C25.4612 10.8252 25.4298 10.8566 25.4298 10.8954C25.4298 10.9341 25.4612 10.9655 25.5 10.9655Z" fill="#E58000"/>
<path d="M29.1929 3.34641C29.2316 3.34641 29.263 3.31499 29.263 3.27623C29.263 3.23747 29.2316 3.20605 29.1929 3.20605C29.1541 3.20605 29.1227 3.23747 29.1227 3.27623C29.1227 3.31499 29.1541 3.34641 29.1929 3.34641Z" fill="#E58000"/>
<path d="M28.1492 12.233C28.4762 12.233 28.7413 11.9679 28.7413 11.6409C28.7413 11.3139 28.4762 11.0488 28.1492 11.0488C27.8222 11.0488 27.5571 11.3139 27.5571 11.6409C27.5571 11.9679 27.8222 12.233 28.1492 12.233Z" fill="#D86C00"/>
<path d="M26.8202 12.2991C27.06 12.2991 27.2544 12.1047 27.2544 11.8649C27.2544 11.6251 27.06 11.4307 26.8202 11.4307C26.5804 11.4307 26.386 11.6251 26.386 11.8649C26.386 12.1047 26.5804 12.2991 26.8202 12.2991Z" fill="#D86C00"/>
<path d="M29.4823 11.4089C29.7221 11.4089 29.9165 11.2145 29.9165 10.9747C29.9165 10.7349 29.7221 10.5405 29.4823 10.5405C29.2425 10.5405 29.0481 10.7349 29.0481 10.9747C29.0481 11.2145 29.2425 11.4089 29.4823 11.4089Z" fill="#D86C00"/>
<path d="M25.7806 12.123C25.9938 12.123 26.1666 11.9502 26.1666 11.737C26.1666 11.5239 25.9938 11.3511 25.7806 11.3511C25.5675 11.3511 25.3947 11.5239 25.3947 11.737C25.3947 11.9502 25.5675 12.123 25.7806 12.123Z" fill="#D86C00"/>
<path d="M30.2632 10.6142C30.4763 10.6142 30.6491 10.4414 30.6491 10.2282C30.6491 10.0151 30.4763 9.84229 30.2632 9.84229C30.05 9.84229 29.8772 10.0151 29.8772 10.2282C29.8772 10.4414 30.05 10.6142 30.2632 10.6142Z" fill="#D86C00"/>
<path d="M24.9297 11.7113C25.0848 11.7113 25.2105 11.5856 25.2105 11.4306C25.2105 11.2756 25.0848 11.1499 24.9297 11.1499C24.7747 11.1499 24.649 11.2756 24.649 11.4306C24.649 11.5856 24.7747 11.7113 24.9297 11.7113Z" fill="#D86C00"/>
<path d="M30.7413 9.78113C30.8963 9.78113 31.022 9.65546 31.022 9.50043C31.022 9.3454 30.8963 9.21973 30.7413 9.21973C30.5862 9.21973 30.4606 9.3454 30.4606 9.50043C30.4606 9.65546 30.5862 9.78113 30.7413 9.78113Z" fill="#D86C00"/>
<path d="M24.2939 11.3116C24.415 11.3116 24.5132 11.2135 24.5132 11.0923C24.5132 10.9712 24.415 10.873 24.2939 10.873C24.1728 10.873 24.0746 10.9712 24.0746 11.0923C24.0746 11.2135 24.1728 11.3116 24.2939 11.3116Z" fill="#D86C00"/>
<path d="M31.0176 9.0094C31.1388 9.0094 31.2369 8.91121 31.2369 8.7901C31.2369 8.66898 31.1388 8.5708 31.0176 8.5708C30.8965 8.5708 30.7983 8.66898 30.7983 8.7901C30.7983 8.91121 30.8965 9.0094 31.0176 9.0094Z" fill="#D86C00"/>
<path d="M23.8464 10.9174C23.9336 10.9174 24.0043 10.8467 24.0043 10.7595C24.0043 10.6723 23.9336 10.6016 23.8464 10.6016C23.7592 10.6016 23.6885 10.6723 23.6885 10.7595C23.6885 10.8467 23.7592 10.9174 23.8464 10.9174Z" fill="#D86C00"/>
<path d="M31.1755 8.34655C31.2627 8.34655 31.3334 8.27586 31.3334 8.18866C31.3334 8.10145 31.2627 8.03076 31.1755 8.03076C31.0883 8.03076 31.0176 8.10145 31.0176 8.18866C31.0176 8.27586 31.0883 8.34655 31.1755 8.34655Z" fill="#D86C00"/>
<path d="M23.5132 10.522C23.5714 10.522 23.6185 10.4749 23.6185 10.4168C23.6185 10.3587 23.5714 10.3115 23.5132 10.3115C23.4551 10.3115 23.408 10.3587 23.408 10.4168C23.408 10.4749 23.4551 10.522 23.5132 10.522Z" fill="#D86C00"/>
<path d="M31.2238 7.76326C31.2819 7.76326 31.3291 7.71613 31.3291 7.658C31.3291 7.59986 31.2819 7.55273 31.2238 7.55273C31.1657 7.55273 31.1185 7.59986 31.1185 7.658C31.1185 7.71613 31.1657 7.76326 31.2238 7.76326Z" fill="#D86C00"/>
<path d="M23.2851 10.2146C23.3239 10.2146 23.3553 10.1832 23.3553 10.1444C23.3553 10.1056 23.3239 10.0742 23.2851 10.0742C23.2464 10.0742 23.215 10.1056 23.215 10.1444C23.215 10.1832 23.2464 10.2146 23.2851 10.2146Z" fill="#D86C00"/>
<path d="M31.2411 7.31662C31.2798 7.31662 31.3112 7.2852 31.3112 7.24644C31.3112 7.20769 31.2798 7.17627 31.2411 7.17627C31.2023 7.17627 31.1709 7.20769 31.1709 7.24644C31.1709 7.2852 31.2023 7.31662 31.2411 7.31662Z" fill="#D86C00"/>
<path d="M24.6359 13.0968C24.9629 13.0968 25.228 12.8317 25.228 12.5047C25.228 12.1777 24.9629 11.9126 24.6359 11.9126C24.3089 11.9126 24.0438 12.1777 24.0438 12.5047C24.0438 12.8317 24.3089 13.0968 24.6359 13.0968Z" fill="#C35800"/>
<path d="M23.544 12.1453C23.7838 12.1453 23.9782 11.9509 23.9782 11.7111C23.9782 11.4713 23.7838 11.2769 23.544 11.2769C23.3041 11.2769 23.1097 11.4713 23.1097 11.7111C23.1097 11.9509 23.3041 12.1453 23.544 12.1453Z" fill="#C35800"/>
<path d="M26.0394 13.4207C26.2792 13.4207 26.4736 13.2263 26.4736 12.9865C26.4736 12.7466 26.2792 12.5522 26.0394 12.5522C25.7996 12.5522 25.6052 12.7466 25.6052 12.9865C25.6052 13.2263 25.7996 13.4207 26.0394 13.4207Z" fill="#C35800"/>
<path d="M22.9079 11.2636C23.1211 11.2636 23.2939 11.0908 23.2939 10.8777C23.2939 10.6645 23.1211 10.4917 22.9079 10.4917C22.6948 10.4917 22.522 10.6645 22.522 10.8777C22.522 11.0908 22.6948 11.2636 22.9079 11.2636Z" fill="#C35800"/>
<path d="M27.1227 13.4077C27.3358 13.4077 27.5086 13.2349 27.5086 13.0217C27.5086 12.8085 27.3358 12.6357 27.1227 12.6357C26.9095 12.6357 26.7367 12.8085 26.7367 13.0217C26.7367 13.2349 26.9095 13.4077 27.1227 13.4077Z" fill="#C35800"/>
<path d="M22.5262 10.3378C22.6812 10.3378 22.8069 10.2121 22.8069 10.0571C22.8069 9.90204 22.6812 9.77637 22.5262 9.77637C22.3712 9.77637 22.2455 9.90204 22.2455 10.0571C22.2455 10.2121 22.3712 10.3378 22.5262 10.3378Z" fill="#C35800"/>
<path d="M27.978 13.1322C28.133 13.1322 28.2587 13.0065 28.2587 12.8515C28.2587 12.6965 28.133 12.5708 27.978 12.5708C27.8229 12.5708 27.6973 12.6965 27.6973 12.8515C27.6973 13.0065 27.8229 13.1322 27.978 13.1322Z" fill="#C35800"/>
<path d="M22.329 9.58313C22.4502 9.58313 22.5483 9.48494 22.5483 9.36383C22.5483 9.24271 22.4502 9.14453 22.329 9.14453C22.2079 9.14453 22.1097 9.24271 22.1097 9.36383C22.1097 9.48494 22.2079 9.58313 22.329 9.58313Z" fill="#C35800"/>
<path d="M28.6797 12.7726C28.8009 12.7726 28.899 12.6744 28.899 12.5533C28.899 12.4322 28.8009 12.334 28.6797 12.334C28.5586 12.334 28.4604 12.4322 28.4604 12.5533C28.4604 12.6744 28.5586 12.7726 28.6797 12.7726Z" fill="#C35800"/>
<path d="M22.2501 8.96911C22.3373 8.96911 22.408 8.89842 22.408 8.81122C22.408 8.72401 22.3373 8.65332 22.2501 8.65332C22.1629 8.65332 22.0922 8.72401 22.0922 8.81122C22.0922 8.89842 22.1629 8.96911 22.2501 8.96911Z" fill="#C35800"/>
<path d="M29.2193 12.4032C29.3065 12.4032 29.3772 12.3325 29.3772 12.2453C29.3772 12.1581 29.3065 12.0874 29.2193 12.0874C29.1321 12.0874 29.0614 12.1581 29.0614 12.2453C29.0614 12.3325 29.1321 12.4032 29.2193 12.4032Z" fill="#C35800"/>
<path d="M22.2631 8.44392C22.3212 8.44392 22.3684 8.3968 22.3684 8.33866C22.3684 8.28053 22.3212 8.2334 22.2631 8.2334C22.205 8.2334 22.1578 8.28053 22.1578 8.33866C22.1578 8.3968 22.205 8.44392 22.2631 8.44392Z" fill="#C35800"/>
<path d="M29.6315 12.0133C29.6896 12.0133 29.7368 11.9661 29.7368 11.908C29.7368 11.8499 29.6896 11.8027 29.6315 11.8027C29.5734 11.8027 29.5262 11.8499 29.5262 11.908C29.5262 11.9661 29.5734 12.0133 29.6315 12.0133Z" fill="#C35800"/>
<path d="M22.2938 8.05295C22.3326 8.05295 22.364 8.02153 22.364 7.98277C22.364 7.94402 22.3326 7.9126 22.2938 7.9126C22.2551 7.9126 22.2236 7.94402 22.2236 7.98277C22.2236 8.02153 22.2551 8.05295 22.2938 8.05295Z" fill="#C35800"/>
<path d="M29.9342 11.7019C29.9729 11.7019 30.0044 11.6705 30.0044 11.6317C30.0044 11.5929 29.9729 11.5615 29.9342 11.5615C29.8954 11.5615 29.864 11.5929 29.864 11.6317C29.864 11.6705 29.8954 11.7019 29.9342 11.7019Z" fill="#C35800"/>
<path d="M21.5264 11.2067C21.8534 11.2067 22.1185 10.9416 22.1185 10.6146C22.1185 10.2876 21.8534 10.0225 21.5264 10.0225C21.1994 10.0225 20.9343 10.2876 20.9343 10.6146C20.9343 10.9416 21.1994 11.2067 21.5264 11.2067Z" fill="#C34F00"/>
<path d="M21.307 9.71998C21.5468 9.71998 21.7412 9.52558 21.7412 9.28577C21.7412 9.04597 21.5468 8.85156 21.307 8.85156C21.0672 8.85156 20.8728 9.04597 20.8728 9.28577C20.8728 9.52558 21.0672 9.71998 21.307 9.71998Z" fill="#C34F00"/>
<path d="M22.1841 12.3821C22.4239 12.3821 22.6183 12.1877 22.6183 11.9479C22.6183 11.7081 22.4239 11.5137 22.1841 11.5137C21.9443 11.5137 21.7499 11.7081 21.7499 11.9479C21.7499 12.1877 21.9443 12.3821 22.1841 12.3821Z" fill="#C34F00"/>
<path d="M21.4385 8.63179C21.6516 8.63179 21.8244 8.45899 21.8244 8.24583C21.8244 8.03267 21.6516 7.85986 21.4385 7.85986C21.2253 7.85986 21.0525 8.03267 21.0525 8.24583C21.0525 8.45899 21.2253 8.63179 21.4385 8.63179Z" fill="#C34F00"/>
<path d="M22.9255 13.1191C23.1387 13.1191 23.3115 12.9463 23.3115 12.7331C23.3115 12.52 23.1387 12.3472 22.9255 12.3472C22.7124 12.3472 22.5396 12.52 22.5396 12.7331C22.5396 12.9463 22.7124 13.1191 22.9255 13.1191Z" fill="#C34F00"/>
<path d="M21.7501 7.67566C21.9051 7.67566 22.0308 7.54999 22.0308 7.39496C22.0308 7.23993 21.9051 7.11426 21.7501 7.11426C21.595 7.11426 21.4694 7.23993 21.4694 7.39496C21.4694 7.54999 21.595 7.67566 21.7501 7.67566Z" fill="#C34F00"/>
<path d="M23.6536 13.4965C23.8087 13.4965 23.9343 13.3708 23.9343 13.2158C23.9343 13.0607 23.8087 12.9351 23.6536 12.9351C23.4986 12.9351 23.3729 13.0607 23.3729 13.2158C23.3729 13.3708 23.4986 13.4965 23.6536 13.4965Z" fill="#C34F00"/>
<path d="M22.092 6.98303C22.2131 6.98303 22.3113 6.88485 22.3113 6.76373C22.3113 6.64262 22.2131 6.54443 22.092 6.54443C21.9709 6.54443 21.8727 6.64262 21.8727 6.76373C21.8727 6.88485 21.9709 6.98303 22.092 6.98303Z" fill="#C34F00"/>
<path d="M24.3597 13.7155C24.4808 13.7155 24.579 13.6173 24.579 13.4962C24.579 13.375 24.4808 13.2769 24.3597 13.2769C24.2386 13.2769 24.1404 13.375 24.1404 13.4962C24.1404 13.6173 24.2386 13.7155 24.3597 13.7155Z" fill="#C34F00"/>
<path d="M22.4254 6.47399C22.5126 6.47399 22.5832 6.4033 22.5832 6.3161C22.5832 6.2289 22.5126 6.1582 22.4254 6.1582C22.3381 6.1582 22.2675 6.2289 22.2675 6.3161C22.2675 6.4033 22.3381 6.47399 22.4254 6.47399Z" fill="#C34F00"/>
<path d="M24.9605 13.8114C25.0477 13.8114 25.1184 13.7407 25.1184 13.6535C25.1184 13.5663 25.0477 13.4956 24.9605 13.4956C24.8733 13.4956 24.8026 13.5663 24.8026 13.6535C24.8026 13.7407 24.8733 13.8114 24.9605 13.8114Z" fill="#C34F00"/>
<path d="M22.7719 6.08797C22.83 6.08797 22.8772 6.04084 22.8772 5.9827C22.8772 5.92457 22.83 5.87744 22.7719 5.87744C22.7138 5.87744 22.6666 5.92457 22.6666 5.9827C22.6666 6.04084 22.7138 6.08797 22.7719 6.08797Z" fill="#C34F00"/>
<path d="M25.4912 13.8116C25.5494 13.8116 25.5965 13.7645 25.5965 13.7063C25.5965 13.6482 25.5494 13.6011 25.4912 13.6011C25.4331 13.6011 25.386 13.6482 25.386 13.7063C25.386 13.7645 25.4331 13.8116 25.4912 13.8116Z" fill="#C34F00"/>
<path d="M23.0438 5.82932C23.0826 5.82932 23.114 5.7979 23.114 5.75914C23.114 5.72038 23.0826 5.68896 23.0438 5.68896C23.0051 5.68896 22.9736 5.72038 22.9736 5.75914C22.9736 5.7979 23.0051 5.82932 23.0438 5.82932Z" fill="#C34F00"/>
<path d="M25.899 13.7946C25.9378 13.7946 25.9692 13.7632 25.9692 13.7245C25.9692 13.6857 25.9378 13.6543 25.899 13.6543C25.8603 13.6543 25.8289 13.6857 25.8289 13.7245C25.8289 13.7632 25.8603 13.7946 25.899 13.7946Z" fill="#C34F00"/>
<path d="M20.7281 7.62318C21.0551 7.62318 21.3202 7.35808 21.3202 7.03107C21.3202 6.70406 21.0551 6.43896 20.7281 6.43896C20.4011 6.43896 20.136 6.70406 20.136 7.03107C20.136 7.35808 20.4011 7.62318 20.7281 7.62318Z" fill="#C13800"/>
<path d="M21.5308 6.3816C21.7706 6.3816 21.965 6.1872 21.965 5.94739C21.965 5.70759 21.7706 5.51318 21.5308 5.51318C21.291 5.51318 21.0966 5.70759 21.0966 5.94739C21.0966 6.1872 21.291 6.3816 21.5308 6.3816Z" fill="#C13800"/>
<path d="M20.2326 8.86891C20.4724 8.86891 20.6668 8.67451 20.6668 8.4347C20.6668 8.19489 20.4724 8.00049 20.2326 8.00049C19.9927 8.00049 19.7983 8.19489 19.7983 8.4347C19.7983 8.67451 19.9927 8.86891 20.2326 8.86891Z" fill="#C13800"/>
<path d="M22.3685 5.70601C22.5817 5.70601 22.7545 5.53321 22.7545 5.32005C22.7545 5.10688 22.5817 4.93408 22.3685 4.93408C22.1553 4.93408 21.9825 5.10688 21.9825 5.32005C21.9825 5.53321 22.1553 5.70601 22.3685 5.70601Z" fill="#C13800"/>
<path d="M20.1886 9.89937C20.4017 9.89937 20.5745 9.72657 20.5745 9.51341C20.5745 9.30024 20.4017 9.12744 20.1886 9.12744C19.9754 9.12744 19.8026 9.30024 19.8026 9.51341C19.8026 9.72657 19.9754 9.89937 20.1886 9.89937Z" fill="#C13800"/>
<path d="M23.1931 5.22791C23.3481 5.22791 23.4738 5.10223 23.4738 4.94721C23.4738 4.79218 23.3481 4.6665 23.1931 4.6665C23.038 4.6665 22.9124 4.79218 22.9124 4.94721C22.9124 5.10223 23.038 5.22791 23.1931 5.22791Z" fill="#C13800"/>
<path d="M20.3465 10.6493C20.5015 10.6493 20.6272 10.5236 20.6272 10.3686C20.6272 10.2136 20.5015 10.0879 20.3465 10.0879C20.1915 10.0879 20.0658 10.2136 20.0658 10.3686C20.0658 10.5236 20.1915 10.6493 20.3465 10.6493Z" fill="#C13800"/>
<path d="M23.8859 4.97424C24.007 4.97424 24.1052 4.87606 24.1052 4.75494C24.1052 4.63383 24.007 4.53564 23.8859 4.53564C23.7648 4.53564 23.6666 4.63383 23.6666 4.75494C23.6666 4.87606 23.7648 4.97424 23.8859 4.97424Z" fill="#C13800"/>
<path d="M20.6404 11.2941C20.7616 11.2941 20.8597 11.1959 20.8597 11.0748C20.8597 10.9537 20.7616 10.8555 20.6404 10.8555C20.5193 10.8555 20.4211 10.9537 20.4211 11.0748C20.4211 11.1959 20.5193 11.2941 20.6404 11.2941Z" fill="#C13800"/>
<path d="M24.4387 4.83825C24.5259 4.83825 24.5966 4.76756 24.5966 4.68036C24.5966 4.59315 24.5259 4.52246 24.4387 4.52246C24.3515 4.52246 24.2808 4.59315 24.2808 4.68036C24.2808 4.76756 24.3515 4.83825 24.4387 4.83825Z" fill="#C13800"/>
<path d="M20.9472 11.7728C21.0344 11.7728 21.1051 11.7021 21.1051 11.6149C21.1051 11.5277 21.0344 11.457 20.9472 11.457C20.86 11.457 20.7893 11.5277 20.7893 11.6149C20.7893 11.7021 20.86 11.7728 20.9472 11.7728Z" fill="#C13800"/>
<path d="M24.9165 4.80281C24.9747 4.80281 25.0218 4.75568 25.0218 4.69755C25.0218 4.63941 24.9747 4.59229 24.9165 4.59229C24.8584 4.59229 24.8113 4.63941 24.8113 4.69755C24.8113 4.75568 24.8584 4.80281 24.9165 4.80281Z" fill="#C13800"/>
<path d="M21.2807 12.1363C21.3388 12.1363 21.3859 12.0892 21.3859 12.031C21.3859 11.9729 21.3388 11.9258 21.2807 11.9258C21.2225 11.9258 21.1754 11.9729 21.1754 12.031C21.1754 12.0892 21.2225 12.1363 21.2807 12.1363Z" fill="#C13800"/>
<path d="M25.2676 4.80295C25.3063 4.80295 25.3377 4.77153 25.3377 4.73277C25.3377 4.69402 25.3063 4.6626 25.2676 4.6626C25.2288 4.6626 25.1974 4.69402 25.1974 4.73277C25.1974 4.77153 25.2288 4.80295 25.2676 4.80295Z" fill="#C13800"/>
<path d="M21.5525 12.4079C21.5912 12.4079 21.6227 12.3765 21.6227 12.3378C21.6227 12.299 21.5912 12.2676 21.5525 12.2676C21.5137 12.2676 21.4823 12.299 21.4823 12.3378C21.4823 12.3765 21.5137 12.4079 21.5525 12.4079Z" fill="#C13800"/>
<path d="M22.6227 4.57532C22.9498 4.57532 23.2149 4.31023 23.2149 3.98322C23.2149 3.65621 22.9498 3.39111 22.6227 3.39111C22.2957 3.39111 22.0306 3.65621 22.0306 3.98322C22.0306 4.31023 22.2957 4.57532 22.6227 4.57532Z" fill="#FFC200"/>
<path d="M23.9518 4.19362C24.1916 4.19362 24.386 3.99921 24.386 3.75941C24.386 3.5196 24.1916 3.3252 23.9518 3.3252C23.712 3.3252 23.5176 3.5196 23.5176 3.75941C23.5176 3.99921 23.712 4.19362 23.9518 4.19362Z" fill="#FFC200"/>
<path d="M21.2894 5.07545C21.5292 5.07545 21.7236 4.88105 21.7236 4.64124C21.7236 4.40143 21.5292 4.20703 21.2894 4.20703C21.0496 4.20703 20.8552 4.40143 20.8552 4.64124C20.8552 4.88105 21.0496 5.07545 21.2894 5.07545Z" fill="#FFC200"/>
<path d="M24.9913 4.28121C25.2045 4.28121 25.3773 4.1084 25.3773 3.89524C25.3773 3.68208 25.2045 3.50928 24.9913 3.50928C24.7781 3.50928 24.6053 3.68208 24.6053 3.89524C24.6053 4.1084 24.7781 4.28121 24.9913 4.28121Z" fill="#FFC200"/>
<path d="M20.5044 5.77242C20.7175 5.77242 20.8903 5.59962 20.8903 5.38645C20.8903 5.17329 20.7175 5.00049 20.5044 5.00049C20.2912 5.00049 20.1184 5.17329 20.1184 5.38645C20.1184 5.59962 20.2912 5.77242 20.5044 5.77242Z" fill="#FFC200"/>
<path d="M25.842 4.4823C25.997 4.4823 26.1227 4.35663 26.1227 4.2016C26.1227 4.04657 25.997 3.9209 25.842 3.9209C25.687 3.9209 25.5613 4.04657 25.5613 4.2016C25.5613 4.35663 25.687 4.4823 25.842 4.4823Z" fill="#FFC200"/>
<path d="M20.0263 6.3949C20.1813 6.3949 20.307 6.26923 20.307 6.1142C20.307 5.95917 20.1813 5.8335 20.0263 5.8335C19.8713 5.8335 19.7456 5.95917 19.7456 6.1142C19.7456 6.26923 19.8713 6.3949 20.0263 6.3949Z" fill="#FFC200"/>
<path d="M26.4736 4.7633C26.5947 4.7633 26.6929 4.66512 26.6929 4.54401C26.6929 4.42289 26.5947 4.32471 26.4736 4.32471C26.3525 4.32471 26.2543 4.42289 26.2543 4.54401C26.2543 4.66512 26.3525 4.7633 26.4736 4.7633Z" fill="#FFC200"/>
<path d="M19.7411 7.04016C19.8623 7.04016 19.9604 6.94198 19.9604 6.82086C19.9604 6.69975 19.8623 6.60156 19.7411 6.60156C19.62 6.60156 19.5219 6.69975 19.5219 6.82086C19.5219 6.94198 19.62 7.04016 19.7411 7.04016Z" fill="#FFC200"/>
<path d="M26.9211 5.03552C27.0083 5.03552 27.079 4.96482 27.079 4.87762C27.079 4.79042 27.0083 4.71973 26.9211 4.71973C26.8339 4.71973 26.7632 4.79042 26.7632 4.87762C26.7632 4.96482 26.8339 5.03552 26.9211 5.03552Z" fill="#FFC200"/>
<path d="M19.5877 7.57946C19.6749 7.57946 19.7456 7.50877 19.7456 7.42157C19.7456 7.33436 19.6749 7.26367 19.5877 7.26367C19.5005 7.26367 19.4298 7.33436 19.4298 7.42157C19.4298 7.50877 19.5005 7.57946 19.5877 7.57946Z" fill="#FFC200"/>
<path d="M27.2544 5.32478C27.3126 5.32478 27.3597 5.27766 27.3597 5.21952C27.3597 5.16139 27.3126 5.11426 27.2544 5.11426C27.1963 5.11426 27.1492 5.16139 27.1492 5.21952C27.1492 5.27766 27.1963 5.32478 27.2544 5.32478Z" fill="#FFC200"/>
<path d="M19.5351 8.05721C19.5932 8.05721 19.6403 8.01008 19.6403 7.95194C19.6403 7.89381 19.5932 7.84668 19.5351 7.84668C19.4769 7.84668 19.4298 7.89381 19.4298 7.95194C19.4298 8.01008 19.4769 8.05721 19.5351 8.05721Z" fill="#FFC200"/>
<path d="M27.4823 5.56174C27.521 5.56174 27.5525 5.53032 27.5525 5.49156C27.5525 5.45281 27.521 5.42139 27.4823 5.42139C27.4435 5.42139 27.4121 5.45281 27.4121 5.49156C27.4121 5.53032 27.4435 5.56174 27.4823 5.56174Z" fill="#FFC200"/>
<path d="M19.5174 8.43478C19.5562 8.43478 19.5876 8.40337 19.5876 8.36461C19.5876 8.32585 19.5562 8.29443 19.5174 8.29443C19.4787 8.29443 19.4473 8.32585 19.4473 8.36461C19.4473 8.40337 19.4787 8.43478 19.5174 8.43478Z" fill="#FFC200"/>
</g>
</g>
<defs>
<filter id="filter0_d_10367_100337" x="0.399168" y="0.772581" width="49.2347" height="14.5088" filterUnits="userSpaceOnUse" color-interpolation-filters="sRGB">
<feFlood flood-opacity="0" result="BackgroundImageFix"/>
<feColorMatrix in="SourceAlpha" type="matrix" values="0 0 0 0 0 0 0 0 0 0 0 0 0 0 0 0 0 0 127 0" result="hardAlpha"/>
<feOffset dx="0.311403" dy="0.311403"/>
<feGaussianBlur stdDeviation="0.311403"/>
<feColorMatrix type="matrix" values="0 0 0 0 0 0 0 0 0 0 0 0 0 0 0 0 0 0 0.25 0"/>
<feBlend mode="normal" in2="BackgroundImageFix" result="effect1_dropShadow_10367_100337"/>
<feBlend mode="normal" in="SourceGraphic" in2="effect1_dropShadow_10367_100337" result="shape"/>
</filter>
<clipPath id="clip0_10367_100337">
<rect width="50" height="15.2632" fill="white" transform="translate(0 0.368652)"/>
</clipPath>
</defs>
</svg>
