<svg width="225" height="166" viewBox="0 0 225 166" fill="none" xmlns="http://www.w3.org/2000/svg">
<path d="M184.446 63.4742C184.443 63.4562 184.44 63.4383 184.435 63.4206C182.401 55.5545 179.317 48.8673 175.269 43.5488C171.817 39.0088 167.692 35.4855 163.007 33.0696C154.782 28.8273 146.27 28.8772 141.847 30.7207C141.728 30.7706 141.668 30.9589 141.714 31.1397C141.761 31.3206 141.896 31.4285 142.013 31.3786C149.8 28.1351 175.251 29.7747 184.001 63.6052C184.048 63.7868 184.183 63.8932 184.3 63.8426C184.411 63.795 184.47 63.638 184.446 63.4742Z" fill="#FFF1BE"/>
<path d="M171.706 67.4765C171.704 67.4637 171.701 67.451 171.698 67.4386C169.956 61.8953 166.975 57.1982 162.837 53.4792C159.309 50.3079 154.969 47.8607 149.937 46.2047C141.1 43.2969 131.67 43.4316 126.648 44.7906C126.617 44.7981 126.587 44.8119 126.561 44.8311C126.535 44.8503 126.513 44.8745 126.497 44.9023C126.481 44.9301 126.47 44.961 126.466 44.9929C126.462 45.0249 126.464 45.0573 126.473 45.0883C126.495 45.1512 126.54 45.2034 126.599 45.2342C126.659 45.2649 126.728 45.2719 126.792 45.2536C135.629 42.8719 163.715 43.7338 171.204 67.5762C171.226 67.6392 171.271 67.6913 171.331 67.7219C171.39 67.7526 171.459 67.7593 171.523 67.7407C171.581 67.7269 171.632 67.6922 171.666 67.6435C171.699 67.5947 171.714 67.5352 171.706 67.4765Z" fill="url(#paint0_linear_2900_27046)"/>
<path d="M48.7318 62.6683C48.7182 62.6706 48.7047 62.6736 48.6914 62.6773C42.7339 64.4263 37.7244 67.2984 33.8028 71.2132C30.4599 74.5505 27.9208 78.6187 26.2572 83.3053C23.3345 91.5353 23.7218 100.235 25.3181 104.836C25.3431 104.898 25.3908 104.948 25.4515 104.977C25.5123 105.005 25.5817 105.01 25.6456 104.989C25.677 104.982 25.7066 104.968 25.7324 104.949C25.7583 104.93 25.7799 104.905 25.796 104.877C25.812 104.85 25.8221 104.819 25.8257 104.787C25.8293 104.755 25.8263 104.722 25.8168 104.692C23.0078 96.5963 23.2261 70.6491 48.8499 63.132C48.8812 63.1244 48.9106 63.1105 48.9363 63.0912C48.962 63.0719 48.9834 63.0475 48.9993 63.0196C49.0152 62.9918 49.0252 62.9609 49.0287 62.9291C49.0322 62.8972 49.0291 62.865 49.0196 62.8343C48.9982 62.7779 48.9578 62.7306 48.9054 62.7003C48.853 62.6701 48.7916 62.6588 48.7318 62.6683Z" fill="url(#paint1_linear_2900_27046)"/>
<g filter="url(#filter0_d_2900_27046)">
<path d="M33.2883 139.197C33.2883 130.37 71.5378 130.418 118.966 130.418C166.395 130.418 205.042 130.37 205.042 139.197C205.042 148.025 166.594 155.181 119.165 155.181C71.7368 155.181 33.2883 148.023 33.2883 139.197Z" fill="url(#paint2_linear_2900_27046)" shape-rendering="crispEdges"/>
</g>
<path d="M79.46 138.472C79.0965 134.234 93.6305 132.796 118.828 130.655C144.025 128.514 166.483 133.632 163.615 136.912C159.741 141.337 143.78 145.221 118.528 146.633C92.5712 148.084 79.8235 142.71 79.46 138.472Z" fill="url(#paint3_radial_2900_27046)"/>
<path d="M83.2416 68.7422C83.3924 68.5632 83.4646 68.333 83.5405 68.1116C83.8909 67.0945 84.3982 66.138 85.0442 65.2763C85.1863 65.0864 85.3372 64.8954 85.4197 64.6778C85.6198 64.1386 85.3738 63.5412 85.0814 63.0455C83.5438 60.4339 80.7245 58.8331 77.8696 57.795C75.9347 57.0915 73.8915 56.5882 71.833 56.6747C71.0175 56.7095 70.173 56.8494 69.5078 57.32C68.8426 57.7907 68.4332 58.5399 68.2332 59.3212C68.0331 60.1025 68.0266 60.9192 68.0452 61.725C68.0998 64.0249 68.3534 66.3574 69.24 68.4816C69.4805 69.0572 69.7729 69.6242 70.2129 70.0692C70.653 70.5143 71.2591 70.8255 71.885 70.7972C72.5212 70.7684 73.0875 70.406 73.6417 70.0986C75.1879 69.2524 76.9058 68.764 78.6677 68.6698C79.5018 68.6241 80.379 68.6344 81.1946 68.8271C81.8472 68.9789 82.7059 69.3788 83.2416 68.7422Z" fill="#FFEFBB"/>
<path d="M76.4078 70.8507C74.2378 72.1174 73.5409 73.9853 72.2247 76.5877C70.8451 75.346 70.0323 73.5114 69.3584 71.786C67.9957 68.2968 66.6445 64.555 67.4098 60.8895C67.7273 59.366 68.5538 57.7881 70.0279 57.2718C71.1173 56.8909 72.3367 57.1777 73.3786 57.6728C75.5146 58.6875 77.1419 60.5021 78.7084 62.266C79.5376 63.2002 80.3678 64.1388 81.1085 65.1448C81.6469 65.8755 83.3162 67.6477 83.2462 68.6053C83.1735 69.6069 80.9669 69.1075 80.106 69.2418C78.7576 69.4535 77.5884 70.1619 76.4078 70.8507Z" fill="url(#paint4_linear_2900_27046)"/>
<path d="M113.34 146.023C106.562 145.697 104.261 143.6 104.005 141.918L102.748 128.669C102.748 127.848 104.673 127.798 105.498 127.798H122.223C123.048 127.798 124.456 128.436 124.456 129.257L123.72 141.918C123.603 144.124 118.664 146.281 113.34 146.023Z" fill="url(#paint5_linear_2900_27046)"/>
<path d="M150.2 140.37C156.553 139.391 158.513 137.185 158.586 135.574L160.076 112.374C159.993 111.601 156.737 109.871 155.961 109.953L140 124.077C139.223 124.159 137.96 124.9 138.042 125.673L140.009 137.534C140.337 139.601 145.207 141.143 150.2 140.37Z" fill="url(#paint6_linear_2900_27046)"/>
<path d="M91.5907 138.768C85.447 138.471 83.359 136.571 83.1273 135.046L81.9871 123.033C81.9871 122.289 83.7362 122.246 84.4806 122.246H99.6475C100.395 122.246 101.67 122.823 101.67 123.567L100.999 135.048C100.896 137.046 96.4182 139.001 91.5907 138.768Z" fill="url(#paint7_linear_2900_27046)"/>
<path d="M129.723 137.577C123.99 137.28 122.041 135.38 121.825 133.855L120.761 121.842C120.761 121.098 122.39 121.055 123.088 121.055H137.241C137.938 121.055 139.13 121.633 139.13 122.376L138.503 133.857C138.406 135.854 134.227 137.812 129.723 137.577Z" fill="url(#paint8_linear_2900_27046)"/>
<path d="M169.616 94.4617C169.616 117.769 158.215 136.071 117.425 136.898C83.8826 137.579 66.3025 118.005 66.3025 94.6984C66.3025 71.3922 91.2687 51.1072 119.503 51.1976C156.494 51.3156 169.616 71.1555 169.616 94.4617Z" fill="url(#paint9_linear_2900_27046)"/>
<path d="M94.9518 102.326C96.7866 102.326 98.274 100.743 98.274 98.7895C98.274 96.8363 96.7866 95.2529 94.9518 95.2529C93.117 95.2529 91.6296 96.8363 91.6296 98.7895C91.6296 100.743 93.117 102.326 94.9518 102.326Z" fill="#FFD895"/>
<path d="M74.9447 93.0924C74.2544 93.0586 72.3697 93.0107 70.5173 93.0243V117.22C72.0893 117.192 73.6526 117.077 74.6714 117.127C80.8479 117.426 85.2469 111.731 85.5623 105.293C85.8777 98.8549 81.1229 93.3922 74.9447 93.0924Z" fill="#FFD38B"/>
<path d="M110.228 75.0151C109.766 72.515 108.905 70.1063 107.751 67.838C107.04 66.4353 106.27 65.0267 105.227 63.8346C103.947 62.3699 102.221 61.2572 100.331 60.817C99.7457 60.5461 99.109 60.4016 98.4631 60.3932C97.9045 60.3894 97.3366 60.4938 96.8474 60.7626C96.3287 61.0483 95.9247 61.5004 95.5542 61.9596C93.3782 64.6692 92.0095 67.93 90.7764 71.1668C90.6049 71.599 90.5753 72.0742 90.6917 72.5243C90.9606 73.5037 91.6209 73.2474 92.3008 73.286C93.0917 73.3301 93.8521 73.5804 94.5686 73.9237C96.0991 74.6588 97.5634 75.6196 98.5282 77.0071C101.123 80.739 100.47 84.4242 100.464 84.3523C100.464 84.3523 100.496 84.8464 100.706 84.9732C101.836 85.6593 103.639 85.0559 104.816 84.5052C107.132 83.4209 109.446 81.8114 110.201 79.3771C110.636 77.975 110.495 76.4554 110.228 75.0151Z" fill="#FFEDAF"/>
<path d="M136.938 58.3362C136.808 58.337 136.68 58.3187 136.555 58.2818C120.863 53.5038 109.738 57.7322 109.627 57.7757C109.305 57.9019 108.945 57.8955 108.628 57.7577C108.31 57.6199 108.06 57.3621 107.934 57.0411C107.807 56.72 107.813 56.362 107.952 56.0457C108.09 55.7294 108.349 55.4808 108.671 55.3546C109.157 55.1647 120.764 50.7546 137.32 55.7943C137.619 55.8853 137.876 56.0804 138.043 56.3441C138.21 56.6078 138.277 56.9225 138.23 57.2309C138.184 57.5393 138.028 57.8208 137.79 58.0242C137.553 58.2276 137.25 58.3393 136.937 58.339L136.938 58.3362Z" fill="#EFAB33"/>
<path d="M175.116 82.2396C174.29 82.5143 173.435 82.4904 172.727 82.1552C169.994 80.8614 168.721 78.1708 168.936 74.1571C168.941 74.0515 168.947 73.9693 168.947 73.9138L168.943 73.8627C168.596 74.0107 168.233 74.1701 167.829 74.3469C167.552 74.4683 167.258 74.5972 166.942 74.7343C165.922 75.1761 164.775 75.7202 164.059 76.5805C163.512 77.2366 163.19 78.2829 163.631 79.0126C163.703 79.1323 163.751 79.265 163.772 79.4031C163.792 79.5413 163.786 79.6822 163.752 79.8177C163.718 79.9533 163.657 80.0809 163.574 80.1932C163.491 80.3055 163.386 80.4004 163.265 80.4724C163.145 80.5443 163.012 80.592 162.873 80.6127C162.734 80.6334 162.593 80.6267 162.457 80.593C162.32 80.5592 162.192 80.4991 162.079 80.416C161.967 80.333 161.871 80.2286 161.799 80.1089C160.944 78.6943 161.198 76.6844 162.413 75.2229C163.429 74.002 164.843 73.3235 166.088 72.7838C166.402 72.6477 166.693 72.5199 166.968 72.3996C167.92 71.9818 168.693 71.6433 169.551 71.3294C169.822 70.8243 170.145 70.3484 170.514 69.9093C171.83 68.3181 173.512 67.0652 175.417 66.2563C175.546 66.2016 175.685 66.1727 175.825 66.1714C175.965 66.1701 176.105 66.1963 176.235 66.2486C176.365 66.3009 176.484 66.3782 176.584 66.4761C176.684 66.5739 176.764 66.6905 176.819 66.8191C176.874 66.9477 176.903 67.0859 176.904 67.2256C176.906 67.3654 176.879 67.504 176.827 67.6336C176.774 67.7633 176.697 67.8813 176.598 67.9811C176.5 68.0808 176.383 68.1603 176.254 68.215C175.017 68.7402 173.89 69.4911 172.931 70.4289C173.963 70.356 174.923 70.6063 175.751 71.1705C177.479 72.3485 178.3 74.6527 178.478 76.2709C178.736 78.6181 177.666 80.8957 175.815 81.9322C175.592 82.0564 175.358 82.1593 175.116 82.2396ZM171.157 73.0319C171.09 73.2738 171.064 73.5252 171.079 73.7757C171.087 73.9413 171.084 74.1072 171.07 74.2724C170.964 76.2573 171.116 79.0349 173.646 80.234C173.919 80.3641 174.361 80.3031 174.765 80.0757C175.863 79.4587 176.517 77.988 176.353 76.4994C176.244 75.4814 175.667 73.6886 174.543 72.9225C173.96 72.5248 173.276 72.4377 172.452 72.6564C171.972 72.7838 171.547 72.9073 171.157 73.0319Z" fill="#FFD177"/>
<path d="M74.0082 85.2567C74.3651 83.3997 73.9478 81.7597 73.0761 81.5937C72.2044 81.4277 71.2084 82.7986 70.8515 84.6556C70.4946 86.5126 70.912 88.1526 71.7837 88.3186C72.6554 88.4846 73.6514 87.1138 74.0082 85.2567Z" fill="#FFB94A"/>
<path d="M72.0207 88.3119C71.1489 88.1487 70.7318 86.5061 71.0882 84.6491C71.4107 82.9733 72.253 81.6968 73.0559 81.5858C72.189 81.4438 71.2057 82.8063 70.8515 84.6491C70.4946 86.5061 70.9122 88.146 71.7807 88.3119C71.8659 88.3261 71.9529 88.3261 72.0382 88.3119C72.0338 88.3125 72.0272 88.3136 72.0207 88.3119Z" fill="#7A321B"/>
<path d="M87.2919 88.3776C87.6665 86.4282 87.2285 84.7066 86.3135 84.5324C85.3985 84.3582 84.353 85.7972 83.9784 87.7466C83.6038 89.6961 84.0418 91.4176 84.9568 91.5919C85.8718 91.7661 86.9172 90.327 87.2919 88.3776Z" fill="#FFB94A"/>
<path d="M85.2041 91.5865C84.2891 91.4124 83.8507 89.6909 84.2252 87.7414C84.5635 85.9818 85.4479 84.6401 86.2902 84.5258C85.3801 84.3767 84.3476 85.8066 83.9759 87.7414C83.6015 89.6909 84.0393 91.4124 84.9543 91.5865C85.0448 91.6015 85.1371 91.6015 85.2276 91.5865C85.2178 91.5871 85.2107 91.5882 85.2041 91.5865Z" fill="#7A321B"/>
<path d="M80.7868 105.608C81.1125 98.9568 76.6228 93.3345 70.7589 93.05C64.895 92.7655 59.8774 97.9267 59.5517 104.578C59.2261 111.229 63.7158 116.851 69.5797 117.136C75.4436 117.42 80.4612 112.259 80.7868 105.608Z" fill="#FFF1C4"/>
<path d="M65.1268 107.74C65.9793 107.74 66.6704 106.221 66.6704 104.346C66.6704 102.471 65.9793 100.951 65.1268 100.951C64.2743 100.951 63.5833 102.471 63.5833 104.346C63.5833 106.221 64.2743 107.74 65.1268 107.74Z" fill="#FFB94A"/>
<path d="M63.9396 104.444C63.9396 102.569 64.6311 101.049 65.4832 101.049H65.4887C65.3783 100.987 65.2541 100.953 65.1274 100.951C64.2747 100.951 63.5833 102.471 63.5833 104.345C63.5833 106.22 64.2714 107.733 65.1219 107.739C64.4441 107.382 63.9396 106.044 63.9396 104.444Z" fill="#A64424"/>
<path d="M71.5394 109.463C72.3919 109.463 73.083 107.943 73.083 106.068C73.083 104.194 72.3919 102.674 71.5394 102.674C70.6869 102.674 69.9958 104.194 69.9958 106.068C69.9958 107.943 70.6869 109.463 71.5394 109.463Z" fill="#FFB94A"/>
<path d="M70.3522 106.166C70.3522 104.291 71.0431 102.772 71.8958 102.772H71.9013C71.7907 102.71 71.6663 102.676 71.5394 102.674C70.6873 102.674 69.9958 104.194 69.9958 106.068C69.9958 107.943 70.684 109.456 71.534 109.463C70.8562 109.105 70.3522 107.767 70.3522 106.166Z" fill="#A64424"/>
<path d="M98.3089 77.2949C99.6956 79.4468 100.286 82.022 100.484 84.5705C102.777 80.8331 103.502 76.3699 104.015 72.0205C104.301 69.6003 104.526 67.0877 103.747 64.778C102.968 62.4683 100.911 60.4095 98.4636 60.3932C97.905 60.3894 97.3371 60.4938 96.8479 60.7626C96.3292 61.0483 95.9252 61.5004 95.5546 61.9596C93.5044 64.512 92.1718 67.5534 90.9928 70.6042C90.7534 71.2223 90.5167 71.8953 90.6949 72.5341C90.9649 73.5026 91.6241 73.2474 92.3013 73.2849C93.0922 73.3285 93.8526 73.5793 94.5691 73.9226C96.1023 74.6599 97.3939 75.8754 98.3089 77.2949Z" fill="url(#paint10_linear_2900_27046)"/>
<path d="M144.853 57.8584C145.656 58.1234 146.433 58.4602 147.203 58.8133C147.973 59.1664 148.722 59.5603 149.458 59.9771C149.642 60.0821 149.828 60.1839 150.01 60.2921C150.192 60.4004 150.374 60.5098 150.554 60.6186L151.093 60.9543L151.626 61.2992C152.333 61.7655 153.022 62.2596 153.697 62.7721C154.371 63.2846 155.02 63.8298 155.655 64.3902C155.967 64.6775 156.285 64.9566 156.584 65.2548C156.736 65.4033 156.89 65.5475 157.039 65.6982L157.481 66.1542C157.63 66.3044 157.77 66.4622 157.914 66.6172C158.058 66.7723 158.204 66.9252 158.34 67.0873C158.613 67.4094 158.894 67.7255 159.155 68.058C159.687 68.7142 160.18 69.4008 160.643 70.1038C160.086 69.4699 159.543 68.8306 158.96 68.2261C158.39 67.6113 157.793 67.0226 157.19 66.4431C156.587 65.8637 155.959 65.3098 155.326 64.764C155.003 64.498 154.688 64.2199 154.359 63.9648C154.036 63.6987 153.703 63.4435 153.375 63.1873C152.045 62.172 150.671 61.2133 149.248 60.3259C148.894 60.1017 148.534 59.8873 148.174 59.673C147.995 59.5641 147.813 59.4597 147.632 59.353L147.086 59.0418C146.353 58.6267 145.611 58.23 144.853 57.8584Z" fill="white"/>
<path d="M65.2313 45.2837C65.2434 41.7079 62.8165 39.9885 61.6096 39.9885C63.8807 39.9815 65.2434 37.2681 65.2313 34.6929C65.2434 36.8992 66.482 39.9815 68.8531 39.9885C66.606 39.9815 65.3669 43.3108 65.2313 45.2837Z" fill="white"/>
<path d="M193.235 94.378C193.22 89.5503 196.427 87.2288 198.023 87.2288C195.02 87.2196 193.22 83.5576 193.235 80.0796C193.22 83.0582 191.582 87.2196 188.447 87.2288C191.418 87.2172 193.055 91.7125 193.235 94.378Z" fill="white"/>
<path d="M74.7229 141.509C74.7229 143.317 68.3764 146.787 59.1062 146.563C46.5668 146.257 43.261 142.015 43.261 140.208C43.261 138.4 46.9893 137.527 56.2623 137.527C65.5352 137.527 74.7229 139.701 74.7229 141.509Z" fill="#D9D9D9"/>
<path d="M47.121 137.07C47.1553 136.906 47.2174 136.748 47.3046 136.604C48.7995 134.291 54.8383 133.779 60.7443 133.811C66.578 133.842 72.337 134.747 74.0992 136.982C74.6217 137.645 74.3446 138.926 74.3408 139.641C74.3238 142.822 68.2085 145.367 60.6825 145.328C53.4128 145.289 47.4894 142.853 47.1062 139.823L47.121 137.07Z" fill="#F5BE51"/>
<path d="M74.3524 137.737C74.3697 134.557 68.2825 131.946 60.7562 131.905C53.23 131.865 47.1147 134.41 47.0975 137.591C47.0802 140.771 53.1674 143.382 60.6936 143.423C68.2199 143.463 74.3351 140.918 74.3524 137.737Z" fill="#FFDB6C"/>
<g opacity="0.54">
<path d="M63.9648 132.07C64.9413 132.173 65.9115 132.329 66.8711 132.536L48.3782 140.038C47.9436 139.644 47.6102 139.226 47.3943 138.792L63.9648 132.07Z" fill="white"/>
</g>
<g opacity="0.54">
<path d="M60.7527 131.892C61.2326 131.895 61.7063 131.908 62.1738 131.931L47.1349 138.032C47.0865 137.766 47.0826 137.495 47.1234 137.228L60.2739 131.896C60.4335 131.893 60.5931 131.891 60.7527 131.892Z" fill="white"/>
</g>
<path d="M70.2882 138.476C70.3103 136.274 66.1042 134.447 60.8935 134.395C55.6828 134.343 51.4408 136.086 51.4187 138.288C51.3966 140.49 55.6027 142.316 60.8134 142.368C66.0241 142.42 70.2661 140.677 70.2882 138.476Z" fill="#FFBF00"/>
<path d="M60.7658 141.172C65.6097 141.197 69.6086 139.676 70.1568 137.692C70.1568 137.692 70.1568 137.698 70.1568 137.7C70.1448 139.902 65.9114 141.665 60.7008 141.637C55.4901 141.609 51.2758 139.802 51.2879 137.6C51.2888 137.445 51.3105 137.291 51.3524 137.142C51.3507 139.341 55.5595 141.144 60.7658 141.172Z" fill="#D9891A"/>
<path d="M60.7445 133.592C66.0153 133.62 70.2935 135.463 70.2815 137.701C70.2695 139.939 65.9716 141.736 60.7008 141.708C55.43 141.681 51.1524 139.837 51.1638 137.599C51.1753 135.362 55.4737 133.564 60.7445 133.592ZM60.7445 133.735C55.6109 133.708 51.4251 135.442 51.4136 137.598C51.4022 139.755 55.5677 141.535 60.7057 141.563C65.8437 141.59 70.0251 139.856 70.0366 137.697C70.0481 135.538 65.8776 133.762 60.7434 133.735H60.7445Z" fill="#F2AE00"/>
<path d="M47.2903 136.616C47.1838 136.839 47.108 137.075 47.0651 137.318C47.0438 137.436 47.0339 137.556 47.0356 137.676V137.856C47.0356 137.916 47.0487 137.976 47.0547 138.036C47.0858 138.282 47.15 138.522 47.2455 138.75C47.2722 138.808 47.3001 138.867 47.3296 138.925C47.3565 138.985 47.387 139.043 47.4209 139.099C47.4878 139.217 47.5619 139.33 47.6428 139.439C47.6849 139.493 47.727 139.548 47.7718 139.602L47.9221 139.762C48.0183 139.871 48.1331 139.972 48.2414 140.076C48.296 140.13 48.3561 140.177 48.4157 140.227L48.5945 140.376L48.7869 140.52L48.8836 140.591L48.9317 140.627L48.9831 140.662C49.5555 141.049 50.1624 141.383 50.7961 141.661C52.1216 142.25 53.6384 142.686 55.2164 142.985C56.8322 143.284 58.4697 143.452 60.1128 143.486C60.9426 143.507 61.7739 143.493 62.6004 143.448C63.4268 143.404 64.2473 143.328 65.0551 143.218C66.6692 143.001 68.2341 142.646 69.6465 142.142C70.3281 141.903 70.9902 141.612 71.6268 141.271C72.233 140.945 72.7796 140.574 73.2229 140.166L73.3808 140.01C73.4306 139.955 73.4759 139.901 73.5235 139.847L73.5973 139.772L73.6323 139.732L73.6634 139.69L73.7875 139.527C73.8285 139.473 73.8661 139.417 73.9001 139.359L74.0056 139.19L74.0892 139.01C74.1193 138.954 74.1458 138.896 74.1685 138.837C74.2162 138.722 74.2555 138.604 74.286 138.484C74.3007 138.424 74.3166 138.365 74.3297 138.306L74.3538 138.127C74.3675 138.009 74.3723 137.889 74.368 137.77V137.725C74.368 137.71 74.368 137.695 74.3636 137.68L74.3527 137.591L74.3319 137.413V137.591V137.68C74.3319 137.695 74.3319 137.71 74.3319 137.725L74.3264 137.769C74.3158 137.888 74.2964 138.006 74.2685 138.122L74.2264 138.297C74.2073 138.355 74.1854 138.413 74.1652 138.47C74.1226 138.588 74.072 138.701 74.0138 138.812C73.9858 138.869 73.954 138.925 73.9187 138.979L73.8165 139.142L73.6968 139.305C73.6579 139.361 73.6158 139.414 73.5705 139.465L73.4339 139.621L73.3994 139.66L73.3617 139.698L73.2852 139.773C73.2333 139.824 73.1841 139.874 73.131 139.924L72.9627 140.069C72.8534 140.168 72.7342 140.261 72.6211 140.357C72.5664 140.406 72.5003 140.45 72.438 140.497L72.2499 140.633L72.0488 140.764C71.981 140.807 71.9176 140.853 71.8455 140.894L71.6295 141.023L71.523 141.086C71.4869 141.106 71.4492 141.126 71.4136 141.145C70.793 141.477 70.1476 141.761 69.4831 141.994C68.1007 142.484 66.5659 142.834 64.9808 143.048C64.1877 143.157 63.3809 143.231 62.5687 143.275C61.7564 143.318 60.9382 143.333 60.1221 143.312C58.5081 143.279 56.8994 143.115 55.3121 142.822C53.7609 142.529 52.278 142.101 50.9853 141.526C50.3677 141.255 49.7765 140.929 49.2192 140.55C48.7302 140.223 48.2941 139.823 47.926 139.366C47.839 139.263 47.7572 139.156 47.6811 139.045C47.6432 138.993 47.6083 138.938 47.5767 138.882C47.5439 138.827 47.51 138.773 47.4783 138.715C47.3651 138.498 47.279 138.267 47.222 138.028C47.2094 137.97 47.1924 137.912 47.1837 137.853L47.1646 137.677C47.1497 137.559 47.1461 137.441 47.1536 137.323C47.1658 137.082 47.2118 136.844 47.2903 136.616Z" fill="white"/>
<path d="M45.035 134.641C45.0696 134.477 45.1319 134.319 45.2192 134.176C46.7136 131.862 52.7529 131.35 58.6583 131.382C64.4926 131.413 70.251 132.318 72.0137 134.553C72.5357 135.216 72.2591 136.497 72.2553 137.212C72.2384 140.392 66.1231 142.938 58.597 142.899C51.3273 142.86 45.4039 140.425 45.0208 137.393L45.035 134.641Z" fill="#F5BE51"/>
<path d="M72.2674 135.307C72.2847 132.126 66.1975 129.515 58.6713 129.475C51.145 129.434 45.0298 131.979 45.0125 135.16C44.9952 138.34 51.0824 140.951 58.6087 140.992C66.1349 141.032 72.2501 138.487 72.2674 135.307Z" fill="#FFDB6C"/>
<path d="M45.2043 134.186C45.0982 134.409 45.0226 134.645 44.9796 134.888C44.9584 135.006 44.9484 135.126 44.9496 135.246V135.426C44.9496 135.486 44.9621 135.546 44.9681 135.606C44.9997 135.851 45.064 136.092 45.1594 136.32C45.1857 136.379 45.2141 136.436 45.2436 136.495C45.2703 136.554 45.3006 136.613 45.3344 136.669C45.4014 136.787 45.4757 136.9 45.5568 137.009C45.5984 137.063 45.6404 137.12 45.6858 137.175L45.8356 137.335C45.9318 137.444 46.0471 137.544 46.1553 137.648C46.21 137.703 46.2701 137.749 46.3292 137.799L46.5084 137.949L46.7008 138.093L46.7976 138.164L46.8457 138.2L46.8971 138.234C47.4694 138.622 48.0763 138.956 48.7101 139.233C50.0356 139.822 51.5497 140.259 53.1304 140.558C54.746 140.857 56.3834 141.024 58.0263 141.059C58.856 141.079 59.6879 141.066 60.5138 141.021C61.3397 140.976 62.1612 140.901 62.9686 140.791C64.5826 140.573 66.1481 140.218 67.5599 139.715C68.2415 139.475 68.9036 139.184 69.5403 138.844C70.1459 138.518 70.693 138.147 71.1363 137.738L71.2943 137.582C71.3435 137.528 71.3894 137.473 71.4369 137.419L71.5074 137.339L71.5424 137.298L71.5736 137.257L71.6977 137.094C71.7388 137.04 71.7764 136.984 71.8103 136.926L71.9152 136.756L72.0021 136.583C72.0325 136.527 72.0592 136.469 72.0819 136.409C72.1295 136.294 72.1688 136.176 72.1994 136.056C72.2136 135.997 72.23 135.938 72.2432 135.879L72.2672 135.7C72.2807 135.581 72.2854 135.462 72.2814 135.342V135.298C72.2814 135.282 72.2781 135.268 72.2765 135.253L72.2661 135.164L72.2453 134.986V135.164V135.253C72.2453 135.268 72.2453 135.282 72.2453 135.297L72.2399 135.342C72.2292 135.461 72.2098 135.579 72.1819 135.695L72.1399 135.87C72.1207 135.928 72.0989 135.985 72.0781 136.043C72.0359 136.16 71.9855 136.274 71.9272 136.384C71.8991 136.442 71.8674 136.498 71.8321 136.551L71.7299 136.717L71.6102 136.88C71.5714 136.936 71.5292 136.989 71.4839 137.04L71.3473 137.196L71.3129 137.235L71.2746 137.273L71.1981 137.349C71.1467 137.399 71.0975 137.45 71.0445 137.499L70.8761 137.644C70.7668 137.743 70.6476 137.836 70.5345 137.933C70.4798 137.982 70.4137 138.026 70.3514 138.072L70.1628 138.209L69.9622 138.34C69.8939 138.383 69.831 138.428 69.7589 138.47L69.5463 138.594L69.4397 138.657C69.4036 138.677 69.3653 138.697 69.3304 138.716C68.7096 139.048 68.0639 139.332 67.3992 139.565C66.0175 140.058 64.4826 140.404 62.8975 140.62C62.1044 140.729 61.2976 140.802 60.4854 140.846C59.6731 140.89 58.8549 140.901 58.0388 140.883C56.4248 140.85 54.8162 140.686 53.2288 140.394C51.6776 140.1 50.1947 139.672 48.902 139.097C48.2854 138.828 47.695 138.503 47.1381 138.126C46.6494 137.798 46.2135 137.399 45.8454 136.941C45.7583 136.838 45.6765 136.731 45.6005 136.62C45.5625 136.568 45.5277 136.513 45.4961 136.457C45.4634 136.403 45.4289 136.348 45.3978 136.291C45.2841 136.073 45.198 135.842 45.1414 135.603C45.1288 135.545 45.1119 135.487 45.1031 135.428L45.0835 135.252C45.0688 135.135 45.0653 135.016 45.0731 134.898C45.083 134.656 45.1271 134.416 45.2043 134.186Z" fill="white"/>
<path d="M49.3983 131.463C49.4326 131.298 49.4947 131.141 49.582 130.997C51.0763 128.684 57.1157 128.172 63.0211 128.203C68.8554 128.235 74.6138 129.14 76.3765 131.375C76.8985 132.038 76.6219 133.319 76.6181 134.034C76.6034 137.215 70.4859 139.76 62.9598 139.718C55.6901 139.68 49.7667 137.244 49.3835 134.213L49.3983 131.463Z" fill="#F5BD51"/>
<path d="M76.6307 132.128C76.648 128.948 70.5608 126.337 63.0345 126.296C55.5083 126.256 49.3931 128.801 49.3758 131.982C49.3585 135.162 55.4457 137.773 62.9719 137.814C70.4982 137.854 76.6134 135.309 76.6307 132.128Z" fill="#FFDB6C"/>
<g opacity="0.54">
<path d="M66.2436 126.461C67.2201 126.564 68.1902 126.72 69.1499 126.927L50.657 134.429C50.2197 134.035 49.889 133.617 49.6731 133.183L66.2436 126.461Z" fill="white"/>
</g>
<g opacity="0.54">
<path d="M63.0316 126.284C63.5115 126.286 63.9853 126.299 64.4528 126.323L49.4127 132.423C49.3643 132.157 49.3605 131.886 49.4012 131.619L62.5517 126.287C62.7113 126.284 62.8709 126.283 63.0316 126.284Z" fill="white"/>
</g>
<path d="M72.5778 132.84C72.5999 130.639 68.3937 128.812 63.1831 128.76C57.9724 128.708 53.7304 130.451 53.7083 132.653C53.6861 134.854 57.8923 136.681 63.103 136.733C68.3136 136.785 72.5556 135.042 72.5778 132.84Z" fill="url(#paint11_linear_2900_27046)"/>
<path d="M49.5675 131.008C49.4615 131.231 49.3859 131.467 49.3429 131.71C49.3217 131.828 49.3117 131.948 49.3128 132.068V132.248C49.3128 132.308 49.3254 132.368 49.3314 132.428C49.363 132.673 49.4273 132.913 49.5227 133.142C49.549 133.201 49.5774 133.258 49.6069 133.316C49.6336 133.376 49.6639 133.434 49.6976 133.491C49.7647 133.608 49.839 133.722 49.9201 133.831C49.9616 133.885 50.0037 133.939 50.0491 133.994L50.1989 134.154C50.2951 134.263 50.4104 134.363 50.5186 134.467C50.5733 134.522 50.6334 134.568 50.6924 134.618L50.8717 134.768L51.0641 134.912L51.1609 134.983L51.209 135.019L51.2603 135.053C51.8327 135.441 52.4396 135.775 53.0734 136.052C54.3989 136.641 55.9157 137.078 57.4937 137.377C59.1095 137.676 60.747 137.844 62.3901 137.878C63.2193 137.898 64.0512 137.885 64.8771 137.84C65.703 137.795 66.5245 137.72 67.3324 137.61C68.9459 137.392 70.5114 137.037 71.9238 136.534C72.6054 136.295 73.2674 136.003 73.9041 135.663C74.5097 135.337 75.0568 134.966 75.5001 134.557L75.6581 134.401C75.7073 134.347 75.7532 134.293 75.8008 134.238L75.8713 134.158L75.9062 134.117L75.9374 134.076L76.0615 133.913C76.1026 133.859 76.1402 133.803 76.1741 133.745L76.279 133.575L76.3659 133.402C76.3963 133.346 76.423 133.288 76.4457 133.228C76.4933 133.113 76.5326 132.995 76.5633 132.875C76.5775 132.816 76.5939 132.757 76.607 132.698L76.631 132.519C76.6445 132.4 76.6493 132.281 76.6452 132.161V132.117C76.6452 132.101 76.642 132.087 76.6403 132.072L76.6299 131.983L76.6092 131.805V131.983V132.072C76.6092 132.087 76.6092 132.101 76.6092 132.116L76.6037 132.161C76.593 132.28 76.5737 132.398 76.5458 132.514L76.5037 132.689C76.4845 132.747 76.4627 132.804 76.4419 132.862C76.3997 132.979 76.3493 133.093 76.291 133.203C76.2628 133.261 76.2311 133.317 76.1959 133.37L76.0937 133.534L75.974 133.697C75.9352 133.752 75.893 133.806 75.8478 133.856L75.7111 134.012L75.6767 134.051L75.6384 134.09L75.5619 134.165C75.5105 134.215 75.4613 134.266 75.4083 134.315L75.2399 134.461C75.1334 134.56 75.0115 134.653 74.8983 134.749C74.8437 134.798 74.7775 134.842 74.7152 134.888L74.5266 135.025L74.326 135.156C74.2577 135.199 74.1949 135.245 74.1227 135.286L73.9101 135.411L73.8008 135.473C73.7647 135.493 73.7264 135.513 73.6914 135.533C73.0707 135.864 72.425 136.148 71.7603 136.381C70.3785 136.874 68.8437 137.221 67.2586 137.436C66.4655 137.545 65.6587 137.619 64.8465 137.663C64.0342 137.707 63.216 137.72 62.3999 137.7C60.7859 137.666 59.1773 137.503 57.5899 137.21C56.0387 136.916 54.5558 136.488 53.2631 135.913C52.6464 135.644 52.056 135.319 51.4992 134.942C51.0103 134.614 50.5744 134.215 50.2065 133.757C50.1194 133.655 50.0376 133.548 49.9616 133.437C49.9236 133.384 49.8888 133.33 49.8572 133.273C49.8244 133.219 49.79 133.165 49.7589 133.107C49.6454 132.889 49.5593 132.658 49.5025 132.42C49.4899 132.362 49.473 132.303 49.4642 132.245L49.4446 132.069C49.4299 131.951 49.4264 131.833 49.4342 131.715C49.4453 131.474 49.4902 131.236 49.5675 131.008Z" fill="white"/>
<path d="M44.5936 127.87C44.6281 127.706 44.6903 127.548 44.7778 127.405C46.2722 125.091 52.3115 124.58 58.2169 124.611C64.0512 124.642 69.8096 125.548 71.5718 127.783C72.0944 128.445 71.8178 129.727 71.814 130.442C71.7965 133.622 65.6817 136.168 58.1551 136.127C50.8855 136.089 44.9626 133.654 44.5789 130.623L44.5936 127.87Z" fill="#F5BE51"/>
<path d="M71.8255 128.536C71.8428 125.356 65.7556 122.745 58.2294 122.704C50.7031 122.664 44.5879 125.209 44.5706 128.389C44.5533 131.57 50.6405 134.181 58.1668 134.221C65.693 134.262 71.8082 131.717 71.8255 128.536Z" fill="#FFDB6C"/>
<path d="M67.6328 128.512C67.6448 126.31 63.4305 124.503 58.2199 124.475C53.0093 124.447 48.7756 126.209 48.7636 128.41C48.7516 130.612 52.966 132.42 58.1765 132.448C63.3871 132.476 67.6209 130.714 67.6328 128.512Z" fill="url(#paint12_linear_2900_27046)"/>
<path d="M58.2383 131.971C63.0822 131.997 67.0811 130.475 67.6293 128.492V128.499C67.6178 130.701 63.3839 132.464 58.1732 132.436C52.9626 132.409 48.7505 130.601 48.762 128.4C48.7634 128.245 48.7853 128.091 48.827 127.942C48.8248 130.141 53.0353 131.943 58.2383 131.971Z" fill="#D9891A"/>
<path d="M44.7638 127.417C44.6575 127.639 44.5819 127.875 44.5392 128.118C44.518 128.236 44.508 128.356 44.5091 128.476V128.656C44.5091 128.716 44.5217 128.776 44.5277 128.836C44.5587 129.082 44.6231 129.322 44.719 129.55C44.7453 129.609 44.7737 129.667 44.8032 129.725C44.8298 129.785 44.8601 129.843 44.8939 129.899C44.9608 130.017 45.0351 130.131 45.1164 130.239C45.1579 130.294 45.2 130.348 45.2454 130.405L45.3951 130.565C45.4913 130.674 45.6067 130.775 45.7149 130.879C45.7696 130.933 45.8297 130.98 45.8887 131.03L46.068 131.179L46.2604 131.323L46.3566 131.394L46.4053 131.43L46.4566 131.465C47.029 131.852 47.6359 132.186 48.2697 132.464C49.5952 133.053 51.1087 133.489 52.69 133.788C54.3055 134.087 55.9429 134.255 57.5858 134.289C58.4156 134.31 59.2475 134.296 60.0734 134.251C60.8993 134.207 61.7208 134.131 62.5281 134.021C64.1422 133.804 65.7077 133.449 67.1195 132.945C67.801 132.706 68.4629 132.414 69.0993 132.074C69.7054 131.747 70.2526 131.377 70.6959 130.968L70.8533 130.812C70.903 130.758 70.9484 130.703 70.9965 130.649L71.067 130.568L71.102 130.528L71.1331 130.487L71.2572 130.321C71.2981 130.267 71.3357 130.211 71.3698 130.153L71.4748 129.983L71.5617 129.81C71.5921 129.754 71.6186 129.696 71.6409 129.636C71.6889 129.522 71.7282 129.404 71.7584 129.283C71.7732 129.224 71.7896 129.165 71.8027 129.106L71.8262 128.927C71.8401 128.808 71.8451 128.689 71.841 128.569V128.524C71.841 128.51 71.8377 128.495 71.8361 128.48L71.8257 128.391L71.8044 128.213V128.48C71.8044 128.495 71.8044 128.51 71.8044 128.524L71.7983 128.569C71.7882 128.688 71.769 128.806 71.741 128.921L71.6989 129.097C71.6797 129.155 71.6573 129.213 71.6371 129.27C71.595 129.387 71.5446 129.501 71.4862 129.611C71.458 129.669 71.4263 129.725 71.3911 129.778L71.2889 129.942L71.1692 130.105C71.1302 130.16 71.0881 130.214 71.043 130.264L70.9058 130.42L70.8719 130.46L70.8336 130.497L70.7554 130.577C70.7041 130.627 70.6549 130.678 70.6013 130.728L70.4335 130.873C70.3269 130.972 70.205 131.065 70.0919 131.162C70.0372 131.21 69.9711 131.255 69.9088 131.3L69.7202 131.437L69.5196 131.568C69.4513 131.611 69.3884 131.657 69.3163 131.698L69.1031 131.823L68.9971 131.885C68.961 131.906 68.9227 131.925 68.8877 131.945C68.2671 132.277 67.6217 132.561 66.9572 132.794C65.5754 133.286 64.0405 133.633 62.4554 133.848C61.6623 133.957 60.8555 134.031 60.0428 134.075C59.23 134.118 58.4123 134.132 57.5962 134.112C55.9822 134.079 54.3735 133.915 52.7862 133.622C51.2344 133.329 49.752 132.9 48.4594 132.325C47.8428 132.056 47.2523 131.731 46.6955 131.354C46.2066 131.027 45.7705 130.627 45.4023 130.17C45.3153 130.067 45.2337 129.96 45.1579 129.849C45.1197 129.796 45.0847 129.742 45.053 129.685C45.0207 129.631 44.9863 129.577 44.9551 129.519C44.8415 129.301 44.7554 129.07 44.6988 128.832C44.6862 128.773 44.6693 128.715 44.6605 128.656L44.6409 128.48C44.6262 128.363 44.6227 128.244 44.6305 128.127C44.6412 127.885 44.6861 127.646 44.7638 127.417Z" fill="white"/>
<path d="M180.735 135.887C175.404 136.077 170.283 137.843 168.895 140.043C168.484 140.695 167.886 141.417 167.958 142.068C168.279 144.958 175.993 147.196 182.835 146.444C189.44 145.717 194.124 143.958 193.949 139.722C193.949 139.722 193.034 135.45 180.735 135.887Z" fill="#D9D9D9"/>
<path d="M192.552 138.148C192.516 137.998 192.456 137.856 192.372 137.726C190.947 135.65 185.415 135.332 180.019 135.511C174.687 135.686 169.447 136.658 167.893 138.745C167.432 139.365 167.718 140.528 167.739 141.182C167.836 144.088 173.49 146.262 180.366 146.036C187.008 145.818 192.362 143.443 192.635 140.663L192.552 138.148Z" fill="#F5C751"/>
<path d="M180.312 144.276C187.19 144.05 192.688 141.511 192.592 138.605C192.495 135.699 186.842 133.526 179.963 133.752C173.085 133.977 167.588 136.517 167.684 139.423C167.78 142.329 173.434 144.502 180.312 144.276Z" fill="#FFDC6C"/>
<path d="M180.259 142.657C185.021 142.501 188.827 140.743 188.76 138.73C188.694 136.718 184.779 135.214 180.017 135.37C175.256 135.527 171.449 137.285 171.516 139.297C171.583 141.309 175.497 142.813 180.259 142.657Z" fill="url(#paint13_linear_2900_27046)"/>
<path d="M180.183 142.24C175.756 142.385 172.063 141.097 171.511 139.296V139.303C171.578 141.316 175.492 142.82 180.254 142.664C185.016 142.508 188.819 140.752 188.755 138.739C188.75 138.597 188.726 138.457 188.684 138.322C188.742 140.33 184.939 142.084 180.183 142.24Z" fill="#D9891A"/>
<path d="M188.869 138.733C188.937 140.778 185.073 142.57 180.256 142.729C175.44 142.887 171.465 141.351 171.398 139.306C171.331 137.261 175.194 135.469 180.011 135.311C184.828 135.153 188.801 136.688 188.869 138.733ZM171.625 139.299C171.69 141.272 175.56 142.751 180.252 142.597C184.943 142.443 188.707 140.713 188.642 138.74C188.577 136.768 184.707 135.288 180.015 135.442C175.323 135.596 171.559 137.326 171.625 139.299Z" fill="#F2AE00"/>
<path d="M192.385 137.737C192.488 137.938 192.563 138.152 192.608 138.373C192.631 138.48 192.643 138.59 192.645 138.699L192.649 138.863C192.649 138.917 192.641 138.971 192.637 139.026C192.614 139.251 192.562 139.472 192.48 139.683C192.457 139.737 192.432 139.792 192.408 139.846C192.385 139.902 192.359 139.957 192.329 140.009C192.271 140.119 192.206 140.225 192.135 140.326C192.098 140.381 192.061 140.43 192.021 140.481L191.888 140.631C191.802 140.732 191.7 140.828 191.604 140.925C191.557 140.975 191.501 141.021 191.448 141.068L191.289 141.209L191.116 141.345L191.03 141.413L190.987 141.447L190.94 141.48C190.428 141.848 189.883 142.169 189.312 142.438C188.115 143.01 186.743 143.447 185.305 143.76C183.835 144.075 182.341 144.27 180.839 144.343C180.081 144.382 179.321 144.391 178.564 144.371C177.808 144.351 177.056 144.302 176.315 144.222C174.834 144.062 173.395 143.779 172.089 143.352C171.46 143.15 170.848 142.901 170.257 142.605C169.724 142.344 169.224 142.018 168.77 141.635L168.622 141.496C168.575 141.449 168.532 141.401 168.487 141.353L168.421 141.281L168.388 141.245L168.358 141.208L168.241 141.06C168.202 141.012 168.165 140.961 168.132 140.909L168.031 140.757L167.947 140.6C167.918 140.55 167.892 140.497 167.87 140.443C167.824 140.34 167.785 140.233 167.754 140.124C167.739 140.069 167.723 140.015 167.709 139.961L167.683 139.797C167.667 139.689 167.66 139.58 167.66 139.471V139.43C167.66 139.416 167.66 139.403 167.664 139.389L167.671 139.308L167.686 139.144L167.691 139.308L167.694 139.389C167.694 139.402 167.694 139.416 167.694 139.429L167.7 139.47C167.713 139.578 167.734 139.686 167.762 139.791L167.805 139.95C167.824 140.005 167.845 140.055 167.865 140.107C167.907 140.213 167.956 140.316 168.012 140.415C168.039 140.467 168.07 140.517 168.104 140.566L168.201 140.714L168.315 140.859C168.352 140.908 168.391 140.956 168.434 141.001L168.563 141.141L168.595 141.175L168.631 141.209L168.703 141.276C168.751 141.321 168.798 141.366 168.848 141.41L169.005 141.538C169.105 141.626 169.219 141.708 169.325 141.793C169.376 141.837 169.437 141.875 169.495 141.916L169.671 142.036L169.858 142.151C169.921 142.189 169.98 142.229 170.047 142.264L170.245 142.373L170.344 142.427C170.377 142.445 170.413 142.462 170.446 142.479C171.022 142.767 171.62 143.01 172.233 143.207C173.508 143.622 174.92 143.9 176.374 144.057C177.102 144.136 177.842 144.184 178.585 144.203C179.329 144.223 180.077 144.215 180.822 144.176C182.297 144.104 183.764 143.914 185.208 143.605C186.618 143.298 187.963 142.869 189.13 142.312C189.686 142.05 190.216 141.738 190.715 141.379C191.153 141.068 191.541 140.692 191.866 140.264C191.943 140.168 192.015 140.068 192.082 139.965C192.116 139.915 192.146 139.864 192.174 139.811C192.202 139.757 192.231 139.709 192.259 139.657C192.358 139.455 192.431 139.242 192.477 139.023C192.487 138.968 192.501 138.914 192.508 138.859L192.521 138.696C192.532 138.588 192.532 138.48 192.521 138.372C192.506 138.155 192.46 137.941 192.385 137.737Z" fill="white"/>
<path d="M152.77 37.5024C152.97 37.5906 153.178 37.6569 153.392 37.7003C156.718 38.2929 159.763 34.5816 162.115 30.5851C164.438 26.6382 165.703 22.1352 163.788 19.4054C163.22 18.5957 161.6 17.8969 160.758 17.4055C157.011 15.2201 151.543 17.5773 148.545 22.6704C145.65 27.5883 146.117 33.259 149.527 35.6106L152.77 37.5024Z" fill="#F5C751"/>
<path d="M152.163 37.1687C155.911 39.3543 161.379 36.9973 164.377 31.9041C167.375 26.8109 166.767 20.9102 163.02 18.7245C159.272 16.5389 153.804 18.896 150.806 23.9892C147.808 29.0824 148.416 34.983 152.163 37.1687Z" fill="#FFDB6C"/>
<path d="M153.834 34.3317C156.428 35.8448 160.214 34.2129 162.289 30.6868C164.365 27.1607 163.944 23.0756 161.35 21.5625C158.756 20.0494 154.97 21.6812 152.895 25.2073C150.819 28.7334 151.24 32.8185 153.834 34.3317Z" fill="url(#paint14_linear_2900_27046)"/>
<path d="M153.467 25.4854C155.397 22.2074 158.804 20.5673 161.358 21.5685L161.349 21.563C158.755 20.0499 154.969 21.682 152.894 25.2078C150.818 28.7337 151.239 32.819 153.833 34.3322C154.014 34.4374 154.203 34.5284 154.398 34.6045C151.81 33.0857 151.394 29.007 153.467 25.4854Z" fill="#EDBA36"/>
<path d="M153.373 37.7025C153.059 37.6169 152.753 37.5054 152.457 37.3692C152.308 37.3015 152.164 37.2255 152.024 37.1417L151.811 37.0174C151.74 36.9761 151.675 36.9261 151.605 36.8799C151.334 36.6936 151.079 36.4855 150.842 36.2578C150.785 36.1995 150.728 36.1393 150.671 36.0802C150.614 36.0211 150.555 35.9634 150.503 35.8991C150.399 35.7725 150.287 35.6502 150.193 35.5146C150.145 35.4477 150.096 35.3812 150.05 35.3127L149.922 35.1014C149.833 34.9615 149.762 34.8143 149.683 34.6701C149.643 34.5982 149.611 34.5228 149.576 34.4485L149.472 34.2244L149.381 33.9958L149.335 33.8802L149.311 33.8227L149.292 33.7645C149.075 33.1456 148.927 32.5049 148.851 31.854C148.694 30.555 148.793 29.2344 149.079 27.963C149.372 26.6912 149.841 25.4659 150.471 24.3218C151.097 23.1756 151.875 22.1189 152.786 21.1806C153.697 20.2457 154.745 19.4361 155.91 18.8326C156.492 18.5289 157.104 18.284 157.735 18.1015C158.368 17.9156 159.022 17.8112 159.682 17.7908L159.929 17.7927C160.011 17.7957 160.095 17.8032 160.176 17.8079L160.299 17.8158L160.361 17.8199L160.422 17.8277L160.668 17.8572C160.75 17.8655 160.831 17.8818 160.911 17.8975L161.154 17.9438L161.392 18.0048C161.472 18.0259 161.552 18.0435 161.629 18.0716C161.784 18.1239 161.942 18.1701 162.092 18.2364C162.167 18.2674 162.243 18.2974 162.318 18.3292L162.54 18.4383C162.689 18.5061 162.826 18.5956 162.967 18.6757L163.022 18.708C163.04 18.7182 163.056 18.7306 163.073 18.742L163.174 18.8111L163.374 18.948L163.007 18.7339L162.953 18.7074C162.807 18.6376 162.666 18.5588 162.514 18.5022L162.291 18.4092C162.215 18.3822 162.139 18.3575 162.062 18.3326C161.911 18.2765 161.754 18.2408 161.599 18.1983C161.523 18.1754 161.442 18.1639 161.364 18.1473L161.128 18.1015L160.89 18.0705C160.811 18.06 160.731 18.0486 160.651 18.0453L160.412 18.029L160.353 18.0251L160.293 18.0248L160.173 18.024C160.093 18.024 160.013 18.022 159.934 18.0236L159.697 18.0374C159.537 18.0415 159.379 18.059 159.22 18.069C159.14 18.0725 159.061 18.0858 158.982 18.0962L158.745 18.1285L158.51 18.1727C158.431 18.1892 158.352 18.2 158.275 18.2205L158.042 18.2774L157.925 18.3058C157.887 18.3163 157.849 18.3283 157.81 18.3397C157.195 18.5179 156.599 18.7566 156.031 19.0524C154.892 19.6427 153.864 20.436 152.969 21.3539C151.173 23.2081 149.914 25.5118 149.326 28.0207C149.043 29.2675 148.947 30.5611 149.1 31.8286C149.175 32.4615 149.319 33.0845 149.529 33.6863C149.74 34.2864 150.033 34.8547 150.399 35.3751C150.484 35.5098 150.583 35.6337 150.678 35.7614C150.723 35.8268 150.777 35.8844 150.829 35.9458C150.88 36.0072 150.93 36.0658 150.985 36.1265C151.203 36.3607 151.439 36.5776 151.691 36.7751C151.755 36.8236 151.817 36.8756 151.882 36.9218L152.081 37.0566C152.214 37.148 152.351 37.232 152.493 37.3083C152.775 37.4638 153.07 37.5956 153.373 37.7025Z" fill="white"/>
<path d="M126.933 47.5577C127.102 47.5866 127.273 47.5973 127.443 47.5895C130.081 47.4058 131.678 44.0098 132.695 40.5293C133.699 37.092 133.793 33.4343 131.815 31.7276C131.229 31.2214 129.866 30.9996 129.132 30.7872C125.869 29.8424 122.173 32.6724 120.877 37.1079C119.625 41.3909 121.07 45.6048 124.109 46.7399L126.933 47.5577Z" fill="#F5C751"/>
<path d="M126.41 47.4195C129.673 48.3643 133.369 45.5345 134.665 41.0988C135.961 36.6632 134.366 32.3015 131.103 31.3567C127.839 30.4119 124.143 33.2418 122.847 37.6774C121.551 42.113 123.146 46.4747 126.41 47.4195Z" fill="#FFDB6C"/>
<path d="M127.13 44.9499C129.39 45.604 131.949 43.6448 132.846 40.574C133.743 37.5031 132.639 34.4835 130.379 33.8294C128.12 33.1753 125.561 35.1344 124.664 38.2053C123.767 41.2761 124.871 44.2958 127.13 44.9499Z" fill="url(#paint15_linear_2900_27046)"/>
<path d="M125.152 38.3067C125.987 35.4519 128.257 33.5585 130.387 33.8317L130.379 33.8294C128.12 33.1753 125.561 35.1346 124.664 38.2053C123.767 41.2759 124.871 44.2958 127.13 44.9499C127.288 44.9952 127.448 45.0284 127.611 45.049C125.356 44.3893 124.256 41.3736 125.152 38.3067Z" fill="#EDBA36"/>
<path d="M127.43 47.5944C127.175 47.5893 126.921 47.5631 126.671 47.516C126.545 47.4929 126.421 47.4628 126.298 47.4259L126.113 47.3721C126.051 47.3543 125.992 47.3288 125.93 47.3069C125.689 47.2171 125.455 47.1078 125.232 46.9801C125.177 46.9469 125.123 46.912 125.068 46.878C125.013 46.8441 124.957 46.8115 124.906 46.7726C124.802 46.6964 124.693 46.625 124.596 46.5399C124.547 46.4983 124.497 46.4571 124.449 46.4139L124.312 46.2779C124.217 46.1887 124.134 46.0907 124.047 45.9961C124.003 45.9492 123.964 45.8982 123.923 45.8484L123.802 45.6981L123.689 45.542L123.631 45.4632L123.602 45.424L123.576 45.3836C123.293 44.9551 123.058 44.4972 122.874 44.0178C122.506 43.0621 122.327 42.0411 122.3 41.0219C122.278 40.001 122.398 38.9821 122.656 37.9939C122.911 37.005 123.298 36.055 123.809 35.1696C124.32 34.2867 124.961 33.4727 125.728 32.793C126.112 32.4516 126.529 32.1493 126.973 31.8906C127.417 31.629 127.893 31.4253 128.39 31.2842L128.578 31.2385C128.641 31.2251 128.706 31.2149 128.768 31.203L128.863 31.1856L128.911 31.1769L128.959 31.1712L129.151 31.1467C129.215 31.1374 129.279 31.1344 129.344 31.131L129.536 31.1199L129.729 31.1208C129.793 31.1217 129.857 31.1198 129.922 31.1264C130.049 31.1365 130.178 31.1416 130.304 31.1634C130.368 31.1725 130.431 31.1808 130.494 31.1907L130.683 31.2311C130.809 31.2543 130.93 31.2961 131.053 31.33L131.101 31.344C131.116 31.3484 131.131 31.3546 131.146 31.3602L131.236 31.3934L131.414 31.4591L131.095 31.3665L131.048 31.3567C130.924 31.3316 130.802 31.2986 130.676 31.2846L130.489 31.2565C130.426 31.2504 130.363 31.2462 130.3 31.242C130.175 31.2282 130.049 31.231 129.923 31.2283C129.861 31.2254 129.798 31.232 129.735 31.2343L129.547 31.2445L129.361 31.2663C129.298 31.2734 129.236 31.2799 129.175 31.2926L128.99 31.3258L128.944 31.3341L128.899 31.3454L128.808 31.3675C128.747 31.3828 128.686 31.3964 128.626 31.4128L128.449 31.4684C128.329 31.5018 128.212 31.5453 128.093 31.5831C128.033 31.6011 127.976 31.6262 127.918 31.6491L127.744 31.7189L127.574 31.7972C127.518 31.8246 127.46 31.8479 127.405 31.8782L127.239 31.9657L127.156 32.0094C127.129 32.0247 127.102 32.0411 127.076 32.057C126.643 32.3095 126.236 32.6042 125.862 32.9368C125.112 33.6014 124.484 34.3993 123.982 35.2661C122.974 37.0152 122.462 39.003 122.498 41.0187C122.523 42.0186 122.699 43.0186 123.059 43.951C123.237 44.4171 123.466 44.8624 123.741 45.279C124.016 45.6943 124.348 46.0697 124.726 46.3947C124.816 46.4809 124.915 46.556 125.012 46.6349C125.059 46.6758 125.111 46.7093 125.161 46.746C125.212 46.7828 125.261 46.8178 125.315 46.8534C125.525 46.9896 125.746 47.1091 125.976 47.211C126.033 47.2357 126.09 47.2634 126.149 47.286L126.326 47.3504C126.444 47.3945 126.564 47.432 126.686 47.4629C126.93 47.5272 127.179 47.5712 127.43 47.5944Z" fill="white"/>
<path d="M190.702 81.2914L181.572 65.7771L202.289 53.7078L202.29 53.7075L211.019 48.6223L220.149 64.1361L203.85 73.6316L190.702 81.2914Z" fill="url(#paint16_linear_2900_27046)"/>
<path d="M191.365 78.5765L184.277 66.5323L210.745 51.1128L217.833 63.1575L191.365 78.5765ZM185.514 67.7957L190.861 76.8799C190.948 77.0266 191.062 77.1549 191.198 77.2576C191.334 77.3603 191.489 77.4354 191.654 77.4785C191.819 77.5216 191.99 77.532 192.159 77.5089C192.328 77.4859 192.49 77.43 192.637 77.3443L216.114 63.6687C216.415 63.4926 216.634 63.204 216.722 62.8665C216.81 62.529 216.759 62.1702 216.582 61.8689L211.257 52.822C211.17 52.6739 211.055 52.5442 210.917 52.4405C210.78 52.3367 210.624 52.2608 210.457 52.2172C210.291 52.1735 210.118 52.163 209.947 52.1861C209.777 52.2093 209.613 52.2656 209.464 52.352L185.974 66.0373C185.679 66.2091 185.465 66.4908 185.378 66.8205C185.292 67.1503 185.341 67.501 185.514 67.7957Z" fill="#C0D8FB"/>
<path d="M199.147 61.6052C199.789 61.2312 200.528 61.0556 201.271 61.1007C202.015 61.1458 202.729 61.4096 203.323 61.8586C203.917 62.3077 204.365 62.9219 204.61 63.6235C204.854 64.3251 204.885 65.0826 204.698 65.8003C204.51 66.518 204.114 67.1636 203.557 67.6555C203.001 68.1474 202.311 68.4634 201.573 68.5637C200.836 68.6639 200.084 68.5439 199.414 68.2187C198.744 67.8935 198.185 67.3779 197.807 66.7369C197.302 65.8774 197.159 64.8539 197.41 63.8915C197.661 62.9291 198.286 62.1067 199.147 61.6052Z" fill="#C0D8FB"/>
<path d="M94.0709 25.9115L81.5282 34.131L70.4877 17.4456L70.4876 17.4453L65.8355 10.4153L78.3781 2.19658L87.0642 15.323L94.0709 25.9115Z" fill="url(#paint17_linear_2900_27046)"/>
<path d="M91.7717 25.4746L82.0338 31.8556L67.9291 10.5395L77.6671 4.1586L91.7717 25.4746ZM83.0331 30.7766L90.3769 25.965C90.4955 25.8874 90.5975 25.7872 90.677 25.6702C90.7566 25.5532 90.8122 25.4216 90.8407 25.2831C90.8692 25.1445 90.87 25.0016 90.8431 24.8626C90.8161 24.7236 90.762 24.5912 90.6837 24.473L78.1728 5.56593C78.0119 5.32282 77.7607 5.15309 77.4747 5.09407C77.1886 5.03505 76.891 5.09157 76.6473 5.25119L69.3332 10.0442C69.2135 10.1226 69.1106 10.2237 69.0302 10.3418C68.9499 10.4599 68.8938 10.5927 68.865 10.7326C68.8363 10.8725 68.8355 11.0167 68.8627 11.157C68.8899 11.2973 68.9445 11.4309 69.0236 11.5503L81.5422 30.4689C81.6994 30.7065 81.9449 30.8724 82.2244 30.9301C82.504 30.9878 82.7949 30.9326 83.0331 30.7766Z" fill="#F1F7FF"/>
<path d="M82.7112 19.3018C83.4248 17.7293 82.7223 15.8752 81.1421 15.1604C79.5618 14.4456 77.7023 15.1409 76.9887 16.7134C76.275 18.2858 76.9776 20.14 78.5578 20.8547C80.1381 21.5695 81.9976 20.8742 82.7112 19.3018Z" fill="#F1F7FF"/>
<path d="M44.1097 72.2595L38.3722 89.0894L15.8321 81.4749L15.8316 81.4747L6.33446 78.2667L12.072 61.4368L29.805 67.4274L44.1097 72.2595Z" fill="url(#paint18_linear_2900_27046)"/>
<path d="M41.636 73.5226L37.1815 86.5886L8.38555 76.8607L12.8397 63.7949L41.636 73.5226ZM37.3279 84.8505L40.6888 74.9979C40.743 74.8389 40.7652 74.6708 40.7542 74.5032C40.7431 74.3356 40.699 74.1718 40.6244 74.0212C40.5497 73.8706 40.446 73.7361 40.3191 73.6254C40.1923 73.5147 40.0447 73.4299 39.8849 73.376L14.3418 64.7451C14.1792 64.6901 14.0072 64.6676 13.8358 64.6787C13.6644 64.6899 13.4969 64.7346 13.3429 64.8102C13.1888 64.8859 13.0513 64.991 12.938 65.1196C12.8248 65.2482 12.7382 65.3977 12.6831 65.5597L9.33737 75.3735C9.28257 75.534 9.26009 75.7037 9.27121 75.8729C9.28232 76.0421 9.32683 76.2075 9.40217 76.3596C9.47751 76.5117 9.58222 76.6475 9.71031 76.7592C9.8384 76.871 9.98737 76.9566 10.1487 77.011L35.7063 85.6449C36.0272 85.7535 36.3782 85.7308 36.6823 85.5818C36.9864 85.4329 37.2186 85.1698 37.3279 84.8505Z" fill="#F8FBFF"/>
<path d="M23.8128 78.7081C23.1142 78.4724 22.5014 78.0358 22.0521 77.4535C21.6027 76.8712 21.3369 76.1693 21.2883 75.4367C21.2397 74.704 21.4104 73.9734 21.7789 73.3373C22.1475 72.7012 22.6972 72.1882 23.3586 71.8632C24.0201 71.5381 24.7635 71.4156 25.4949 71.5111C26.2263 71.6067 26.9128 71.9159 27.4675 72.3999C28.0223 72.8838 28.4205 73.5206 28.6117 74.2298C28.8029 74.939 28.7785 75.6887 28.5416 76.3841C28.3844 76.8458 28.1374 77.2721 27.8147 77.6387C27.4919 78.0054 27.0998 78.3052 26.6607 78.521C26.2216 78.7368 25.7441 78.8644 25.2555 78.8965C24.7668 78.9286 24.2766 78.8645 23.8128 78.7081Z" fill="#F8FBFF"/>
<path d="M52.4831 82.3812C52.4913 79.9328 50.8296 78.7548 50.0032 78.7548C51.5582 78.7505 52.4913 76.8929 52.4831 75.1284C52.4913 76.6394 53.3396 78.7505 54.9635 78.7548C53.4243 78.7488 52.5765 81.0286 52.4831 82.3812Z" fill="white"/>
<defs>
<filter id="filter0_d_2900_27046" x="25.5069" y="124.884" width="187.317" height="40.3255" filterUnits="userSpaceOnUse" color-interpolation-filters="sRGB">
<feFlood flood-opacity="0" result="BackgroundImageFix"/>
<feColorMatrix in="SourceAlpha" type="matrix" values="0 0 0 0 0 0 0 0 0 0 0 0 0 0 0 0 0 0 127 0" result="hardAlpha"/>
<feOffset dy="2.24713"/>
<feGaussianBlur stdDeviation="3.89071"/>
<feComposite in2="hardAlpha" operator="out"/>
<feColorMatrix type="matrix" values="0 0 0 0 0.9625 0 0 0 0 0.821012 0 0 0 0 0.457188 0 0 0 0.2 0"/>
<feBlend mode="normal" in2="BackgroundImageFix" result="effect1_dropShadow_2900_27046"/>
<feBlend mode="normal" in="SourceGraphic" in2="effect1_dropShadow_2900_27046" result="shape"/>
</filter>
<linearGradient id="paint0_linear_2900_27046" x1="147.413" y1="43.343" x2="147.136" y2="69.1503" gradientUnits="userSpaceOnUse">
<stop stop-color="#FFEEB2"/>
<stop offset="1" stop-color="white" stop-opacity="0.06"/>
</linearGradient>
<linearGradient id="paint1_linear_2900_27046" x1="36.5584" y1="62.665" x2="24.2131" y2="94.11" gradientUnits="userSpaceOnUse">
<stop stop-color="#FFDA97"/>
<stop offset="1" stop-color="#FFDA97" stop-opacity="0"/>
</linearGradient>
<linearGradient id="paint2_linear_2900_27046" x1="111.698" y1="114.739" x2="111.698" y2="160.951" gradientUnits="userSpaceOnUse">
<stop stop-color="#FFCF25"/>
<stop offset="1" stop-color="white" stop-opacity="0"/>
</linearGradient>
<radialGradient id="paint3_radial_2900_27046" cx="0" cy="0" r="1" gradientUnits="userSpaceOnUse" gradientTransform="translate(15.913 119.387) rotate(12.5634) scale(164.334 822.052)">
<stop stop-color="#D1CDC2"/>
<stop offset="1" stop-color="#EFEFEF" stop-opacity="0"/>
</radialGradient>
<linearGradient id="paint4_linear_2900_27046" x1="75.218" y1="57.0962" x2="75.218" y2="76.5877" gradientUnits="userSpaceOnUse">
<stop stop-color="#FFD085"/>
<stop offset="1" stop-color="#FFE4AB"/>
</linearGradient>
<linearGradient id="paint5_linear_2900_27046" x1="102.748" y1="129.376" x2="120.612" y2="149.958" gradientUnits="userSpaceOnUse">
<stop stop-color="#FFF8B7"/>
<stop offset="1" stop-color="#FEC659"/>
</linearGradient>
<linearGradient id="paint6_linear_2900_27046" x1="138.038" y1="112.597" x2="166.449" y2="132.397" gradientUnits="userSpaceOnUse">
<stop stop-color="#FFEFB7"/>
<stop offset="1" stop-color="#FED059"/>
</linearGradient>
<linearGradient id="paint7_linear_2900_27046" x1="81.9871" y1="123.675" x2="98.1816" y2="142.337" gradientUnits="userSpaceOnUse">
<stop stop-color="#FFEFB7"/>
<stop offset="1" stop-color="#FEC659"/>
</linearGradient>
<linearGradient id="paint8_linear_2900_27046" x1="120.761" y1="122.485" x2="137.076" y2="140.029" gradientUnits="userSpaceOnUse">
<stop stop-color="#FFEFB7"/>
<stop offset="1" stop-color="#FEC659"/>
</linearGradient>
<linearGradient id="paint9_linear_2900_27046" x1="91.8888" y1="53.2603" x2="165.762" y2="143.132" gradientUnits="userSpaceOnUse">
<stop offset="0.0230301" stop-color="#FFFDEB"/>
<stop offset="1" stop-color="#FDDF40"/>
</linearGradient>
<linearGradient id="paint10_linear_2900_27046" x1="97.4566" y1="60.3931" x2="97.4566" y2="84.5705" gradientUnits="userSpaceOnUse">
<stop stop-color="#FFCB7C"/>
<stop offset="1" stop-color="#FFECBB"/>
</linearGradient>
<linearGradient id="paint11_linear_2900_27046" x1="53.7083" y1="132.653" x2="72.5777" y2="132.842" gradientUnits="userSpaceOnUse">
<stop stop-color="#FFD874"/>
<stop offset="1" stop-color="#FFF6D5"/>
</linearGradient>
<linearGradient id="paint12_linear_2900_27046" x1="48.7636" y1="128.41" x2="67.6328" y2="128.513" gradientUnits="userSpaceOnUse">
<stop stop-color="#FFD874"/>
<stop offset="1" stop-color="#FFF6D5"/>
</linearGradient>
<linearGradient id="paint13_linear_2900_27046" x1="180.017" y1="135.37" x2="180.257" y2="142.657" gradientUnits="userSpaceOnUse">
<stop stop-color="#FFD874"/>
<stop offset="1" stop-color="#FFF6D5"/>
</linearGradient>
<linearGradient id="paint14_linear_2900_27046" x1="161.35" y1="21.5625" x2="153.885" y2="34.3615" gradientUnits="userSpaceOnUse">
<stop stop-color="#FFD874"/>
<stop offset="1" stop-color="#FFF6D5"/>
</linearGradient>
<linearGradient id="paint15_linear_2900_27046" x1="130.379" y1="33.8294" x2="127.158" y2="44.9578" gradientUnits="userSpaceOnUse">
<stop stop-color="#FFD874"/>
<stop offset="1" stop-color="#FFF6D5"/>
</linearGradient>
<linearGradient id="paint16_linear_2900_27046" x1="212.817" y1="45.4025" x2="166.651" y2="77.5625" gradientUnits="userSpaceOnUse">
<stop stop-color="#D8E7FF"/>
<stop offset="1" stop-color="white" stop-opacity="0.33"/>
</linearGradient>
<linearGradient id="paint17_linear_2900_27046" x1="71.6866" y1="-0.909852" x2="87.2593" y2="36.8089" gradientUnits="userSpaceOnUse">
<stop stop-color="#B6D3FF"/>
<stop offset="1" stop-color="white" stop-opacity="0.96"/>
</linearGradient>
<linearGradient id="paint18_linear_2900_27046" x1="3.89932" y1="63.7514" x2="44.8657" y2="83.2894" gradientUnits="userSpaceOnUse">
<stop stop-color="#CFE7FF"/>
<stop offset="1" stop-color="#EEF7FF" stop-opacity="0.76"/>
</linearGradient>
</defs>
</svg>
