<svg width="24" height="24" viewBox="0 0 24 24" fill="none" xmlns="http://www.w3.org/2000/svg">
<path d="M17.7541 13.9992C18.9961 13.9992 20.003 15.006 20.003 16.2481V16.8235C20.003 17.7178 19.6834 18.5826 19.1019 19.262C17.5325 21.0955 15.1453 22.0003 11.9999 22.0003C8.85402 22.0003 6.46801 21.0952 4.9017 19.2609C4.32194 18.582 4.00342 17.7185 4.00342 16.8257V16.2481C4.00342 15.006 5.01028 13.9992 6.2523 13.9992H17.7541ZM17.7541 15.4992H6.2523C5.83871 15.4992 5.50342 15.8345 5.50342 16.2481V16.8257C5.50342 17.3614 5.69453 17.8795 6.04239 18.2869C7.2957 19.7545 9.26158 20.5003 11.9999 20.5003C14.7382 20.5003 16.7058 19.7545 17.9623 18.2866C18.3112 17.879 18.503 17.36 18.503 16.8235V16.2481C18.503 15.8345 18.1677 15.4992 17.7541 15.4992ZM11.9999 2.00391C14.7613 2.00391 16.9999 4.24249 16.9999 7.00391C16.9999 9.76534 14.7613 12.0039 11.9999 12.0039C9.23846 12.0039 6.99988 9.76534 6.99988 7.00391C6.99988 4.24249 9.23846 2.00391 11.9999 2.00391ZM11.9999 3.50391C10.0669 3.50391 8.49988 5.07092 8.49988 7.00391C8.49988 8.93691 10.0669 10.5039 11.9999 10.5039C13.9329 10.5039 15.4999 8.93691 15.4999 7.00391C15.4999 5.07092 13.9329 3.50391 11.9999 3.50391Z" fill="currentColor"/>
</svg>
