<svg width="32" height="40" viewBox="0 0 32 40" fill="none" xmlns="http://www.w3.org/2000/svg">
<path d="M0.503906 1.40815C0.503906 0.630536 1.13429 0.000152588 1.91191 0.000152588H23.5102C23.5346 0.000152588 23.5588 0.00573413 23.5808 0.0164725V0.0164725C26.5881 1.48516 29.0189 3.91596 30.4875 6.92326V6.92326C30.4983 6.94525 30.5039 6.96939 30.5039 6.99386V38.5921C30.5039 39.3698 29.8735 40.0002 29.0959 40.0002H1.91191C1.13429 40.0002 0.503906 39.3698 0.503906 38.5922V1.40815Z" fill="#292663"/>
<g filter="url(#filter0_d_11_6912)">
<path d="M23.4824 0V0C26.5947 1.41844 29.0915 3.92489 30.5037 7.04V7.04H24.1864C23.7976 7.04 23.4824 6.72481 23.4824 6.336V0Z" fill="white" fill-opacity="0.8"/>
</g>
<path d="M8.52148 23.0402H9.35925V21.1914H10.6234C11.6818 21.1914 12.4148 20.4677 12.4148 19.4102V19.4027C12.4148 18.3414 11.6818 17.6289 10.6234 17.6289H8.52148V23.0402ZM10.4139 18.3377C11.1395 18.3377 11.5621 18.7314 11.5621 19.4064V19.4139C11.5621 20.0927 11.1395 20.4864 10.4139 20.4864H9.35925V18.3377H10.4139Z" fill="white"/>
<path d="M13.4957 23.0402H15.4443C17.0525 23.0402 17.9837 22.0427 17.9837 20.3252V20.3177C17.9837 18.6189 17.045 17.6289 15.4443 17.6289H13.4957V23.0402ZM14.3335 22.3164V18.3527H15.3508C16.469 18.3527 17.131 19.0839 17.131 20.3289V20.3364C17.131 21.5927 16.4802 22.3164 15.3508 22.3164H14.3335Z" fill="white"/>
<path d="M19.1207 23.0402H19.9585V20.7752H22.2773V20.0664H19.9585V18.3527H22.4905V17.6289H19.1207V23.0402Z" fill="white"/>
<defs>
<filter id="filter0_d_11_6912" x="22.7784" y="0" width="8.42948" height="8.44801" filterUnits="userSpaceOnUse" color-interpolation-filters="sRGB">
<feFlood flood-opacity="0" result="BackgroundImageFix"/>
<feColorMatrix in="SourceAlpha" type="matrix" values="0 0 0 0 0 0 0 0 0 0 0 0 0 0 0 0 0 0 127 0" result="hardAlpha"/>
<feOffset dy="0.704"/>
<feGaussianBlur stdDeviation="0.352"/>
<feColorMatrix type="matrix" values="0 0 0 0 0 0 0 0 0 0 0 0 0 0 0 0 0 0 0.25 0"/>
<feBlend mode="normal" in2="BackgroundImageFix" result="effect1_dropShadow_11_6912"/>
<feBlend mode="normal" in="SourceGraphic" in2="effect1_dropShadow_11_6912" result="shape"/>
</filter>
</defs>
</svg>
