<svg width="24" height="24" viewBox="0 0 24 24" fill="none" xmlns="http://www.w3.org/2000/svg">
<path fill-rule="evenodd" clip-rule="evenodd" d="M18.0606 2.21967C17.7677 1.92678 17.2928 1.92678 16.9999 2.21967C16.7071 2.51256 16.7071 2.98744 16.9999 3.28033L19.4396 5.71997H2.75C2.33579 5.71997 2 6.05576 2 6.46997C2 6.88418 2.33579 7.21997 2.75 7.21997H19.4396L16.9999 9.65968C16.707 9.95257 16.7071 10.4274 16.9999 10.7203C17.2928 11.0132 17.7677 11.0132 18.0606 10.7203L21.7806 7.0003C22.0735 6.7074 22.0735 6.23253 21.7806 5.93964L18.0606 2.21967ZM7.0003 13.2797C7.29319 13.5726 7.2932 14.0475 7.00031 14.3404L4.5607 16.78H21.25C21.6642 16.78 22 17.1158 22 17.53C22 17.9442 21.6642 18.28 21.25 18.28H4.5606L7.0003 20.7197C7.29319 21.0126 7.29319 21.4875 7.0003 21.7804C6.70741 22.0733 6.23253 22.0733 5.93964 21.7804L2.21967 18.0604C2.14088 17.9816 2.08329 17.8897 2.04689 17.7916C2.01657 17.7102 2 17.622 2 17.53C2 17.4162 2.02536 17.3083 2.07075 17.2116C2.09539 17.1591 2.12646 17.1088 2.16397 17.0619C2.18307 17.0381 2.2036 17.0154 2.22543 16.994L5.93964 13.2797C6.23253 12.9868 6.7074 12.9868 7.0003 13.2797Z" fill="currentColor"/>
</svg>
