<svg width="21" height="20" viewBox="0 0 21 20" fill="none" xmlns="http://www.w3.org/2000/svg">
<path fill-rule="evenodd" clip-rule="evenodd" d="M18.8334 9.99996C18.8334 14.5833 15.0834 18.3333 10.5001 18.3333C5.91675 18.3333 2.16675 14.5833 2.16675 9.99996C2.16675 5.41663 5.91675 1.66663 10.5001 1.66663C15.0834 1.66663 18.8334 5.41663 18.8334 9.99996ZM13.3003 7.19962C13.5444 7.4437 13.5444 7.83943 13.3003 8.0835L11.3839 9.99989L13.3003 11.9163C13.5444 12.1604 13.5444 12.5561 13.3003 12.8002C13.0562 13.0442 12.6605 13.0442 12.4164 12.8002L10.5 10.8838L8.58363 12.8002C8.33955 13.0442 7.94382 13.0442 7.69974 12.8002C7.45566 12.5561 7.45566 12.1604 7.69974 11.9163L9.61613 9.99989L7.69974 8.0835C7.45566 7.83943 7.45566 7.4437 7.69974 7.19962C7.94382 6.95554 8.33955 6.95554 8.58363 7.19962L10.5 9.11601L12.4164 7.19962C12.6605 6.95554 13.0562 6.95554 13.3003 7.19962Z" fill="color1"/>
</svg>
