<svg width="18" height="18" viewBox="0 0 18 18" fill="none" xmlns="http://www.w3.org/2000/svg">
<path fill-rule="evenodd" clip-rule="evenodd" d="M17.3333 8.99996C17.3333 13.5833 13.5833 17.3333 8.99999 17.3333C4.41666 17.3333 0.666656 13.5833 0.666656 8.99996C0.666656 4.41663 4.41666 0.666626 8.99999 0.666626C13.5833 0.666626 17.3333 4.41663 17.3333 8.99996ZM11.8002 6.19962C12.0443 6.4437 12.0443 6.83943 11.8002 7.0835L9.88381 8.99989L11.8002 10.9163C12.0443 11.1604 12.0443 11.5561 11.8002 11.8002C11.5561 12.0442 11.1604 12.0442 10.9163 11.8002L8.99992 9.88378L7.08353 11.8002C6.83946 12.0442 6.44373 12.0442 6.19965 11.8002C5.95557 11.5561 5.95557 11.1604 6.19965 10.9163L8.11604 8.99989L6.19965 7.0835C5.95557 6.83943 5.95557 6.4437 6.19965 6.19962C6.44373 5.95554 6.83946 5.95554 7.08353 6.19962L8.99992 8.11601L10.9163 6.19962C11.1604 5.95554 11.5561 5.95554 11.8002 6.19962Z" fill="currentColor"/>
</svg>
