<svg width="15" height="18" viewBox="0 0 15 18" fill="none" xmlns="http://www.w3.org/2000/svg">
<path d="M8.01492 0.820282C8.27528 0.593648 8.67006 0.620984 8.8967 0.881339L11.305 3.64801C11.5317 3.90836 11.5043 4.30314 11.244 4.52978C11.2256 4.54574 11.2066 4.56044 11.1871 4.57388L8.39342 6.61317C8.11462 6.81669 7.72363 6.75566 7.52011 6.47686C7.3166 6.19806 7.37763 5.80706 7.65643 5.60355L9.46693 4.28193C8.86889 4.10992 8.2162 4.00002 7.49998 4.00002C4.16162 4.00002 1.45831 6.70229 1.45831 10.0378C1.45831 13.3816 4.16209 16.0834 7.49998 16.0834C10.8383 16.0834 13.5416 13.3811 13.5416 10.0455C13.5416 8.80572 13.1656 7.64999 12.5241 6.68823C12.3325 6.40107 12.41 6.01301 12.6972 5.82146C12.9843 5.62991 13.3724 5.70742 13.5639 5.99457C14.3372 7.15385 14.7916 8.54951 14.7916 10.0455C14.7916 14.0721 11.528 17.3334 7.49998 17.3334C3.47147 17.3334 0.208313 14.0717 0.208313 10.0378C0.208313 6.01125 3.47194 2.75002 7.49998 2.75002C8.02409 2.75002 8.51838 2.79994 8.98396 2.88541L7.95387 1.70205C7.72723 1.4417 7.75457 1.04692 8.01492 0.820282Z" fill="currentColor"/>
</svg>
