<svg width="49" height="48" viewBox="0 0 49 48" fill="none" xmlns="http://www.w3.org/2000/svg">
<rect x="0.25" width="48" height="48" rx="24" fill="#F8F8FC"/>
<path fill-rule="evenodd" clip-rule="evenodd" d="M29.4079 23.3399C29.5579 23.4899 29.7479 23.5599 29.9379 23.5599C30.1279 23.5599 30.3179 23.4899 30.4679 23.3399L33.0279 20.7799C33.3179 20.4899 33.3179 20.0099 33.0279 19.7199L30.4679 17.1599C30.1779 16.8699 29.6979 16.8699 29.4079 17.1599C29.1179 17.4499 29.1179 17.9299 29.4079 18.2199L30.748 19.5599H21C17.83 19.5599 15.25 22.1399 15.25 25.3099C15.25 28.4799 17.83 31.0599 21 31.0599H29C29.42 31.0599 29.75 30.7199 29.75 30.3099C29.75 29.8999 29.41 29.5599 29 29.5599H21C18.66 29.5599 16.75 27.6499 16.75 25.3099C16.75 22.9699 18.66 21.0599 21 21.0599H30.6279L29.4079 22.2799C29.1179 22.5699 29.1179 23.0499 29.4079 23.3399Z" fill="#1B1D29"/>
</svg>
