<svg xmlns="http://www.w3.org/2000/svg" width="121" height="104" viewBox="0 0 121 104" fill="none">
  <path d="M22.352 89.4301L24.6492 89.4544L30.0255 93.0243C36.6563 92.6665 44.3706 92.4551 52.6061 92.4551C77.3495 92.4551 97.4049 94.3131 97.4049 96.6063C97.4049 98.8994 77.3495 100.762 52.6061 100.762C44.9978 100.762 37.8293 100.587 31.5529 100.278L28.4567 100.022H27.1418C15.4605 99.2735 7.80328 98.0212 7.80328 96.6063C7.80328 95.9029 9.69722 95.2402 13.0249 94.6628L13.2529 93.8903L17.3952 94.0407C18.0957 93.9594 18.8207 93.874 19.5824 93.7968L16.8209 91.0849L22.3479 89.4301H22.352Z" fill="#D5DDEA"/>
  <path d="M83.8488 92.1382L84.6064 93.6222L87.5471 92.1992L87.3109 90.5769L83.8488 92.1382Z" fill="url(#paint0_linear_1716_132)"/>
  <path d="M83.1945 92.2559L83.3738 93.374L84.6119 93.622L84.4572 92.4063L84.5549 91.6826L83.1945 92.2559Z" fill="#A2ABBC"/>
  <path d="M58.1126 100.518L58.3407 101.628L56.7196 103.348L55.1719 102.66L55.2126 101.054L58.1126 100.518Z" fill="#B3BCCD"/>
  <path d="M55.9586 101.156L56.4351 102.156L56.7202 103.347L54.1787 102.863L53.8284 101.266L55.9586 101.156Z" fill="url(#paint1_linear_1716_132)"/>
  <path d="M89.6965 97.5131L89.9613 98.4116L91.562 97.9074L91.4561 96.9154L89.6965 97.5131Z" fill="#939CAD"/>
  <path d="M89.3773 96.4031L89.3895 97.5578L89.9597 98.4116L90.0453 97.6391L90.4159 96.6999L89.3773 96.4031Z" fill="url(#paint2_linear_1716_132)"/>
  <path d="M82.7387 47.5968C82.3518 47.8082 81.9893 48.0521 81.6513 48.3286C80.4253 49.337 79.4966 50.6828 78.7554 51.7236C78.6006 51.9432 78.6576 52.2847 78.8735 52.4392C79.0934 52.5937 79.4356 52.5368 79.5903 52.3213C80.3398 51.2723 81.2277 49.9997 82.3029 49.1174C82.4455 48.9995 82.5921 48.91 82.7428 48.8043C82.7469 48.8409 82.7428 48.8775 82.751 48.9141C82.9546 50.0241 83.6511 51.0731 84.873 51.7805C85.7202 52.2725 86.5714 52.3335 87.2475 52.0652C87.9237 51.7968 88.4043 51.2276 88.6201 50.573C88.8401 49.9184 88.7993 49.1621 88.4287 48.5035C88.054 47.8448 87.3494 47.3203 86.3474 47.0885C85.4514 46.8812 84.6245 46.934 83.871 47.1455C84.3516 44.8157 87.0602 43.5472 89.5651 44.092C90.0579 44.1977 90.0701 43.7586 89.6058 43.6041C86.4859 42.5632 83.1827 44.3238 82.7387 47.6008V47.5968ZM85.0237 47.9668C85.3699 47.9546 85.7405 47.9912 86.1275 48.0806C86.9095 48.2595 87.3249 48.6173 87.5489 49.0076C87.7689 49.3979 87.7933 49.8493 87.6589 50.2518C87.5245 50.6502 87.2394 50.9714 86.8769 51.1178C86.5103 51.2642 86.0338 51.2642 85.3943 50.8983C84.3965 50.3209 83.9118 49.5606 83.7611 48.7311C83.7326 48.5807 83.7285 48.4262 83.7244 48.2717C84.1317 48.1091 84.5594 47.9871 85.0278 47.9708L85.0237 47.9668Z" fill="#989FB0"/>
  <path d="M17.1936 37.9072C22.9528 39.5254 23.6371 47.5311 26.7936 52.4223L16.3749 58.5577C14.5054 53.5242 13.1247 48.1369 9.78078 44.1605L17.1936 37.9072Z" fill="#989FB0"/>
  <path d="M26.8845 50.4464C23.9234 45.8194 23.174 37.5617 17.203 37.2161C13.3703 36.9924 10.8614 41.2128 7.65184 43.3799C2.56468 46.8156 2.43841 56.3175 6.30775 55.736C12.9019 54.744 11.1302 41.7739 16.6368 39.4035C21.5937 37.2649 22.0784 48.698 24.5384 52.7802L26.8885 50.4504L26.8845 50.4464Z" fill="#D5DDEA"/>
  <path d="M83.3937 90.6215C64.21 101.481 31.8256 101.209 18.0712 96.1633C17.6191 95.9966 16.8941 95.5859 16.1284 94.3093C-5.69877 57.9524 19.399 37.745 48.0728 36.631C79.1497 35.4234 98.0239 58.5988 84.8356 88.5967C84.5708 89.1944 84.1839 90.1743 83.3937 90.6175V90.6215Z" fill="#F6F8FB"/>
  <path d="M44.6771 46.4901C47.4549 51.7838 44.95 53.829 42.5388 56.3091C41.3332 53.4671 37.7449 50.4136 35.5862 50.2469C36.747 48.3035 35.3703 45.4045 34.902 44.5588C38.1318 44.571 41.8505 45.8477 44.6771 46.4901Z" fill="#989FB0"/>
  <path d="M45.1852 46.0186C41.9676 44.5915 38.6766 43.4449 35.3693 41.3673C30.0541 38.0333 21.1464 48.4093 24.2256 50.8204C29.4757 54.9269 38.3182 45.1363 43.8208 47.5067C46.5741 48.6899 44.3258 52.9753 42.5337 56.3093C41.6132 58.0292 44.5498 59.6352 45.2952 57.4193C46.8226 54.2886 48.3377 47.4213 45.1811 46.0186H45.1852Z" fill="#D5DDEA"/>
  <path d="M85.1848 87.808C68.1638 99.0378 39.5552 100.782 16.3514 94.2076C15.8137 94.0531 15.9563 94.6305 16.2048 94.7036C39.4574 101.685 69.0517 99.2167 85.2582 88.3934C85.7306 88.0763 85.4211 87.6494 85.1848 87.8039V87.808Z" fill="#D5DDEA"/>
  <path d="M91.4544 96.9155L90.8475 95.8055L89.5931 95.7242L89.3772 96.4031L90.0452 97.6392L91.4544 96.9155Z" fill="#A3ACBD"/>
  <path d="M87.313 90.5768L85.0363 90.2597L83.1953 92.2519L84.4579 92.4064L87.313 90.5768Z" fill="#A3ACBD"/>
  <path d="M53.8271 101.266L55.8432 100.168L58.1119 100.518L56.4338 102.156L53.8271 101.266Z" fill="#A3ACBD"/>
  <path d="M66.9863 95.0651L69.0146 98.4683L76.1505 100.298L79.7266 98.3991L79.9139 97.0493L67.5972 93.4916L66.9863 95.0651Z" fill="url(#paint3_linear_1716_132)"/>
  <path d="M69.6223 96.3866L69.0154 98.4683L76.1513 100.298L76.8396 98.7448L76.139 95.9596L71.2189 94.5366L69.6223 96.3866Z" fill="url(#paint4_linear_1716_132)"/>
  <path d="M79.9139 97.0495L78.5861 95.0735L74.1384 93.2926L67.5972 93.4919L69.6215 96.3868L76.8388 98.745L79.9139 97.0495Z" fill="#A3ACBD"/>
  <path d="M44.8553 90.6895C39.6661 80.4771 31.3285 83.3698 27.8084 86.0926C27.9573 86.0751 28.2384 86.1715 28.1708 86.6972C38.3318 80.9058 43.0487 90.1919 43.7683 91.0762C44.4728 91.9421 45.0608 91.1918 44.8553 90.6895Z" fill="#A3ACBD"/>
  <path d="M46.6694 89.4176C46.649 92.8183 44.4021 92.8885 43.139 92.4222C43.474 93.1595 44.4489 94.4754 45.6688 93.8399C47.1936 93.0456 46.7821 90.3753 46.6694 89.4176Z" fill="#D5DDEA"/>
  <path d="M31.304 83.0831C31.3895 88.0963 26.3146 92.2434 17.5495 92.3898C8.78038 92.5362 3.57103 88.5598 3.48957 83.5466C3.40404 78.5334 8.47898 74.3862 17.244 74.2398C26.0132 74.0934 31.2185 78.0699 31.304 83.0831Z" fill="#D5DDEA"/>
  <path d="M13.0113 83.3108C13.0398 85.0063 11.6876 86.409 9.98504 86.4375C8.28661 86.4659 6.88551 85.112 6.85699 83.4125C6.82848 81.7129 8.18478 80.3143 9.88322 80.2858C11.5817 80.2573 12.9828 81.6113 13.0113 83.3108Z" fill="#A4ADBF"/>
  <path d="M27.662 83.0952C27.6905 84.7907 26.3342 86.1893 24.6357 86.2218C22.9373 86.2503 21.5362 84.8964 21.5077 83.1968C21.4792 81.4973 22.8355 80.0987 24.5339 80.0702C26.2324 80.0417 27.6335 81.3957 27.662 83.0952Z" fill="#A3ACBD"/>
  <path d="M2.40172 73.904C1.58912 71.7015 7.26743 69.8849 9.53441 69.7395C8.83121 70.266 7.15657 71.532 6.52303 72.656C5.75768 74.0137 3.26428 76.2418 2.40172 73.904Z" fill="#989FB0"/>
  <path d="M2.73938 72.995C2.62685 73.6615 2.76996 74.9192 4.24272 74.6174C3.70671 74.3809 3.02592 74.461 2.73938 72.995Z" fill="#FFFFFD"/>
  <path d="M4.62159 66.7709C5.48298 65.4304 8.13221 66.6128 9.03338 68.7417C8.52462 68.4874 7.57177 68.0859 6.67316 68.3374C5.00946 68.8031 3.94688 67.8209 4.62159 66.7709Z" fill="#989FB0"/>
  <path d="M5.89564 66.4015C4.98989 66.4995 4.20298 67.2341 5.16266 68.072C4.96547 67.3675 4.84547 67.2125 5.89564 66.4015Z" fill="#FFFFFD"/>
  <path d="M41.6169 73.7062C42.1931 71.4304 36.3551 70.2217 34.0854 70.3158C34.8401 70.7653 36.6387 71.848 37.3871 72.899C38.2911 74.1687 41.0052 76.1219 41.6169 73.7062Z" fill="#989FB0"/>
  <path d="M41.1888 72.8377C41.3708 73.4887 41.3609 74.7544 39.8646 74.6093C40.3727 74.3177 41.0582 74.3257 41.1888 72.8377Z" fill="#FFFFFD"/>
  <path d="M38.6606 66.846C37.6629 65.6037 35.1528 67.0584 34.4808 69.2704C34.9599 68.9639 35.8652 68.4643 36.7853 68.6198C38.4888 68.9078 39.4421 67.8192 38.6606 66.846Z" fill="#989FB0"/>
  <path d="M37.3534 66.6126C38.2645 66.6148 39.1243 67.2624 38.2582 68.1966C38.3801 67.4754 38.4832 67.3085 37.3534 66.6126Z" fill="#FFFFFD"/>
  <ellipse cx="14.8047" cy="66.5336" rx="3.73973" ry="5.36414" fill="#D5DDEA"/>
  <path d="M9.31586 63.2812L9.90858 61.9377C13.6798 64.1783 17.2176 61.8087 18.5152 60.3438C18.6062 60.4956 18.8294 60.7993 18.9933 60.7993C16.4613 64.6064 11.4867 64.0402 9.31586 63.2812Z" fill="#A3ACBD"/>
  <ellipse cx="17.1691" cy="66.7551" rx="1.57166" ry="2.02382" fill="#989FB0"/>
  <circle cx="17.7671" cy="66.0612" r="0.674607" fill="#FEFFFD"/>
  <ellipse cx="16.7503" cy="67.0723" rx="0.33681" ry="0.33681" fill="#FEFFFD"/>
  <ellipse cx="4.40495" cy="6.31832" rx="4.40495" ry="6.31832" transform="matrix(-1 0 0 1 32.4167 60.2034)" fill="#D5DDEA"/>
  <path d="M34.4769 62.6907L33.7787 61.1083C29.3367 63.7474 25.1695 60.9562 23.6412 59.2308C23.5339 59.4096 23.2711 59.7673 23.078 59.7673C26.0604 64.2517 31.9199 63.5847 34.4769 62.6907Z" fill="#A3ACBD"/>
  <ellipse cx="2.23316" cy="2.87563" rx="2.23316" ry="2.87563" transform="matrix(-1 0 0 1 32.48 63.9069)" fill="#989FB0"/>
  <circle cx="0.87589" cy="0.87589" r="0.87589" transform="matrix(-1 0 0 1 32.2795 64.8378)" fill="#FEFFFD"/>
  <ellipse cx="0.479272" cy="0.479272" rx="0.479272" ry="0.479272" transform="matrix(-1 0 0 1 31.3201 66.7546)" fill="#FEFFFD"/>
  <path d="M76.4708 30.6593C76.1346 30.661 75.796 30.5671 75.4938 30.3676L62.0129 21.4717C61.7066 21.2695 61.4838 20.9894 61.3541 20.6745C61.9103 22.5187 60.4487 22.43 60.4487 22.43L75.2121 32.1723C75.1487 32.0234 74.746 30.9354 76.4706 30.6593L76.4708 30.6593Z" fill="#A3ACBD"/>
  <path d="M85.6094 16.8825L70.6282 6.99634C70.6282 6.99634 71.3281 8.41929 69.5226 8.57124C69.8135 8.5945 70.1018 8.68934 70.3623 8.86131L84.0424 17.8887C84.3549 18.095 84.5816 18.3819 84.7137 18.7043C84.2526 16.9469 85.4396 16.8824 85.6096 16.8825L85.6094 16.8825Z" fill="#A3ACBD"/>
  <path d="M85.0567 19.1947L85.0561 19.1918C85.0338 19.0826 85.0015 18.9755 84.9585 18.872L84.9577 18.8678C84.825 18.5442 84.5977 18.2563 84.2841 18.0493L70.5549 8.98953C70.2935 8.81715 70.0042 8.72178 69.7121 8.69842C69.5762 8.68616 69.44 8.6907 69.3056 8.71096C68.814 8.78102 68.3538 9.0548 68.059 9.5015L61.5495 19.3657C61.2586 19.8067 61.1868 20.3282 61.3072 20.802L61.3074 20.8034C61.328 20.886 61.3556 20.967 61.3885 21.0457L61.3899 21.049C61.522 21.3698 61.7489 21.655 62.0608 21.8609L75.79 30.9207C76.0978 31.1238 76.4426 31.2194 76.785 31.2177L76.7859 31.2182C77.3689 31.217 77.9398 30.9328 78.2854 30.4094L84.7949 20.5452C85.0687 20.1304 85.1482 19.6448 85.0567 19.1947Z" fill="#D5DDEA"/>
  <path d="M89.316 12.762L73.2225 2.14195C72.5858 1.72192 71.7298 1.89731 71.3096 2.5338L69.8077 4.80963C69.3882 5.44545 69.5631 6.30233 70.1996 6.72252L86.2932 17.3426C86.9299 17.7627 87.7866 17.5864 88.2061 16.9508L89.708 14.675C90.128 14.0383 89.9524 13.1822 89.316 12.762Z" fill="#D5DDEA"/>
  <path d="M88.7783 11.3452L74.9952 2.24977C74.5864 1.97998 74.036 2.09266 73.7662 2.50152L89.0301 12.574C89.2999 12.1652 89.1872 11.6148 88.7784 11.345L88.7783 11.3452Z" fill="#A3ACBD"/>
  <path opacity="0.2" d="M83.9293 18.4162C83.9291 18.4153 83.929 18.4144 83.9287 18.4133C83.9068 18.3061 83.8751 18.2009 83.8329 18.0993C83.8326 18.098 83.8323 18.0965 83.8321 18.0952C83.7018 17.7775 83.4785 17.4947 83.1706 17.2914L79.6108 14.9424C79.9188 15.1457 80.1422 15.4285 80.2723 15.7462C80.2725 15.7475 80.2729 15.749 80.2731 15.7503C80.3154 15.8519 80.3471 15.9571 80.369 16.0643C80.3691 16.0652 80.3693 16.0661 80.3696 16.0671C80.4594 16.5091 80.3811 16.9862 80.1122 17.3935L73.7205 27.0794C73.3813 27.5936 72.8205 27.8724 72.248 27.8736L72.2471 27.8732C71.9109 27.8748 71.5724 27.7809 71.2702 27.5815L74.8299 29.9305C75.1321 30.13 75.4707 30.2238 75.8069 30.2222L75.8077 30.2227C76.3802 30.2214 76.9408 29.9424 77.2802 29.4285L83.672 19.7426C83.9408 19.3353 84.0191 18.8581 83.9293 18.4162Z" fill="#D5DDEA"/>
  <path opacity="0.6" d="M61.8547 20.6845C61.8547 20.6853 61.8548 20.6861 61.8549 20.6869C61.8615 20.784 61.8764 20.8781 61.9004 20.9677C61.9004 20.969 61.9007 20.9701 61.9007 20.9714C61.9745 21.252 62.1299 21.49 62.3645 21.6447L65.0766 23.4344C64.8419 23.2795 64.6866 23.0416 64.6128 22.7612C64.6128 22.7599 64.6125 22.7588 64.6125 22.7575C64.5883 22.6678 64.5734 22.5737 64.567 22.4766C64.567 22.4758 64.5669 22.475 64.5667 22.4742C64.5402 22.0739 64.6578 21.6227 64.9265 21.2154L71.3182 11.5295C71.6575 11.0153 72.1558 10.6953 72.6333 10.6314L72.634 10.6319C72.9146 10.5937 73.1866 10.6437 73.4168 10.7955L70.7048 9.00577C70.4746 8.85377 70.2025 8.80378 69.9218 8.84211L69.9211 8.84167C69.4433 8.90555 68.9452 9.22557 68.606 9.73975L62.2142 19.4256C61.9454 19.833 61.8278 20.2842 61.8545 20.6844L61.8547 20.6845Z" fill="#F6F8FB"/>
  <path opacity="0.6" d="M83.8749 18.4103C83.8748 18.4094 83.8747 18.4086 83.8746 18.4078C83.8677 18.3089 83.8524 18.2131 83.8278 18.1219C83.8278 18.1206 83.8275 18.1194 83.8275 18.1181C83.7519 17.8326 83.5933 17.5905 83.3541 17.4334L80.5895 15.6156C80.8287 15.7729 80.9873 16.015 81.0629 16.3004C81.0629 16.3017 81.0632 16.3028 81.0632 16.3041C81.088 16.3954 81.1033 16.4912 81.11 16.59C81.11 16.5909 81.1101 16.5917 81.1103 16.5925C81.1379 17 81.019 17.4596 80.7461 17.8748L74.2543 27.7483C73.9097 28.2724 73.4029 28.5991 72.9167 28.665L72.916 28.6645C72.6304 28.7039 72.3533 28.6534 72.1186 28.4992L74.8832 30.317C75.1179 30.4714 75.395 30.5218 75.6808 30.4823L75.6815 30.4828C76.1678 30.4169 76.6745 30.0902 77.019 29.5661L83.5109 19.6926C83.7839 19.2774 83.9029 18.8178 83.875 18.4103L83.8749 18.4103Z" fill="#F6F8FB"/>
  <path d="M69.524 8.54694C69.4031 8.55747 69.2702 8.56107 69.1254 8.55924Z" fill="#989FB0"/>
  <path d="M84.5929 18.8526C84.5928 18.8517 84.5926 18.8508 84.5923 18.8498C84.5547 18.7395 84.5226 18.6353 84.4966 18.5362C84.4964 18.5349 84.4961 18.5334 84.4958 18.5321" fill="#989FB0"/>
  <path d="M85.4004 16.7372C85.4004 16.7372 85.3928 16.7373 85.3791 16.737Z" fill="#989FB0"/>
  <path d="M85.3756 16.8854L85.3791 16.5882L85.3974 16.5884L85.3976 16.8854L85.3756 16.8854Z" fill="black"/>
  <path d="M76.1297 32.7776L60.036 22.1575C59.4002 21.7379 58.5442 21.9133 58.1246 22.5491L56.6228 24.825C56.2028 25.4617 56.3782 26.3177 57.014 26.7372L73.1076 37.3573C73.7443 37.7774 74.6004 37.602 75.0205 36.9655L76.5224 34.6897C76.942 34.0538 76.7666 33.1978 76.1299 32.7776L76.1297 32.7776Z" fill="#D5DDEA"/>
  <path opacity="0.6" d="M75.4682 32.3403L72.488 30.3737C73.1247 30.7937 73.3001 31.6499 72.8805 32.2857L71.3787 34.5615C70.9586 35.1982 70.1025 35.3736 69.4658 34.9534L72.446 36.92C73.0827 37.3401 73.9387 37.1647 74.3589 36.5282L75.8607 34.2523C76.2803 33.6165 76.1049 32.7605 75.4682 32.3403Z" fill="#E9EDF4"/>
  <path opacity="0.6" d="M88.141 12.0078L85.1608 10.0412C85.7975 10.4612 85.9729 11.3174 85.5533 11.9533L84.0515 14.2291C83.6314 14.8658 82.7752 15.0412 82.1386 14.6209L85.1188 16.5876C85.7555 17.0076 86.6115 16.8322 87.0317 16.1957L88.5335 13.9199C88.9531 13.2841 88.7777 12.4281 88.141 12.0078Z" fill="#E9EDF4"/>
  <path opacity="0.6" d="M60.677 22.5806L63.6572 24.5473C63.0205 24.1272 62.1645 24.3026 61.7449 24.9384L60.2431 27.2143C59.8231 27.851 59.9985 28.707 60.6349 29.1272L57.6547 27.1605C57.018 26.7405 56.8427 25.8843 57.2629 25.2476L58.7647 22.9718C59.1843 22.336 60.0403 22.1606 60.677 22.5806Z" fill="white"/>
  <path opacity="0.6" d="M73.8832 2.56391L76.8634 4.53054C76.2267 4.1105 75.3707 4.28589 74.9512 4.92172L73.4493 7.19755C73.0293 7.83424 73.2047 8.69025 73.8412 9.11044L70.861 7.14382C70.2243 6.72378 70.0489 5.86758 70.4691 5.23092L71.9709 2.95509C72.3905 2.31926 73.2465 2.14387 73.8832 2.56391Z" fill="white"/>
  <path d="M57.5581 27.0959C57.2883 27.5048 57.4009 28.0551 57.8098 28.3249L71.5927 37.4203C72.0016 37.6901 72.5519 37.5774 72.8217 37.1686L57.5579 27.0961L57.5581 27.0959Z" fill="#A3ACBD"/>
  <path opacity="0.2" d="M60.371 28.9533L58.1358 27.4784C57.866 27.8872 57.9787 28.4376 58.3876 28.7074L60.6227 30.1823C60.2139 29.9125 60.101 29.3622 60.371 28.9533Z" fill="white"/>
  <path opacity="0.2" d="M68.4328 34.2734C68.163 34.6823 67.6126 34.7951 67.2038 34.5252L70.598 36.7649C71.0068 37.0347 71.5572 36.922 71.827 36.5132L68.4328 34.2734Z" fill="#989FB0"/>
  <path opacity="0.2" d="M76.8618 4.54248L74.6266 3.06751C74.8964 2.65866 75.4467 2.5458 75.8556 2.81576L78.0907 4.29074C77.6819 4.02095 77.1315 4.13363 76.8618 4.54248Z" fill="white"/>
  <path opacity="0.2" d="M85.1703 10.0259C85.4401 9.61701 85.3274 9.06666 84.9186 8.79688L88.3128 11.0367C88.7216 11.3064 88.8345 11.8568 88.5645 12.2656L85.1703 10.0259Z" fill="#989FB0"/>
  <path d="M61.2704 20.4318L61.2707 20.4331C61.3004 20.5156 61.3274 20.5953 61.3501 20.6707C61.3503 20.672 61.3507 20.6735 61.3516 20.674" fill="#989FB0"/>
  <g opacity="0.2">
    <path d="M61.917 21.0491C62.0477 21.3588 62.2672 21.6332 62.5694 21.8325L64.4192 23.0532C64.5783 24.3157 63.6776 24.4131 63.4727 24.419L61.0211 22.8012C61.1828 22.801 62.3415 22.7433 61.9171 21.0489L61.917 21.0491Z" fill="white"/>
  </g>
  <g opacity="0.2">
    <path d="M73.6111 31.3894C73.5035 31.134 73.3226 30.9077 73.0736 30.7433L71.5489 29.7362C71.4182 28.6952 72.1608 28.6152 72.3298 28.6104L74.3505 29.9452C74.2171 29.9453 73.2618 29.9924 73.6111 31.3896L73.6111 31.3894Z" fill="white"/>
  </g>
  <g opacity="0.2">
    <path d="M85.2275 16.3435C84.8913 16.3452 84.5527 16.2513 84.2505 16.0518L82.4007 14.8312C81.1772 15.1816 81.442 16.0479 81.5171 16.2387L83.9687 17.8565C83.9053 17.7076 83.5027 16.6196 85.2273 16.3435L85.2275 16.3435Z" fill="#989FB0"/>
  </g>
  <g opacity="0.2">
    <path d="M71.3295 7.17094C71.4602 7.48066 71.6797 7.75506 71.9819 7.95435L73.8317 9.17499C73.9908 10.4376 73.0901 10.535 72.8852 10.5408L70.4336 8.92304C70.5953 8.92284 71.754 8.86513 71.3295 7.17076L71.3295 7.17094Z" fill="white"/>
  </g>
  <g opacity="0.2">
    <path d="M83.8052 18.0404C83.6641 17.7353 83.4355 17.4684 83.1268 17.2794L81.2369 16.1218C81.0353 14.8653 81.9322 14.7376 82.1368 14.7248L84.6415 16.2591C84.4799 16.2647 83.3238 16.3615 83.8051 18.0406L83.8052 18.0404Z" fill="white"/>
  </g>
  <path d="M76.8458 30.616C76.7108 30.6265 76.5851 30.6408 76.4694 30.6595L76.4686 30.659" fill="#989FB0"/>
  <path d="M75.2214 32.1914C75.2214 32.1914 75.2176 32.1849 75.2126 32.1721Z" fill="#989FB0"/>
  <path d="M84.9531 20.1882L78.0925 30.585C78.8724 31.0996 79.9217 30.8846 80.4364 30.1047L85.4336 22.5322C85.9483 21.7523 85.7332 20.7029 84.9533 20.1882L84.9531 20.1882Z" fill="#A3ACBD"/>
  <path d="M85.25 22.8022L80.6451 29.7813L84.1578 32.099L88.7627 25.1199L85.25 22.8022Z" fill="#D5DDEA"/>
  <path opacity="0.3" d="M84.9002 23.332L84.2014 24.3911L87.714 26.7088L88.4128 25.6498L84.9002 23.332Z" fill="white"/>
  <path opacity="0.2" d="M82.1831 27.4505L80.9952 29.2509L84.5079 31.5687L85.6958 29.7683L82.1831 27.4505Z" fill="#DFE5EF"/>
  <path d="M90.3429 24.7274C89.836 24.3929 89.1538 24.5326 88.8193 25.0395L84.0721 32.2333C83.7376 32.7403 83.8773 33.4225 84.3842 33.757C84.8912 34.0915 85.5734 33.9518 85.9079 33.4449L90.655 26.2511C90.9896 25.7441 90.8498 25.0619 90.3429 24.7274Z" fill="#A1A9BA"/>
  <path d="M117.832 47.0212C117.661 45.8095 116.868 44.5716 115.612 43.7429C115.514 43.6779 115.412 43.6153 115.308 43.556L114.983 43.369L114.529 43.1085L91.2076 29.724L89.1443 28.5403L87.3502 31.2589L111.446 49.4095C113.519 50.972 116.259 50.8437 117.39 49.1314C117.802 48.5065 117.936 47.7693 117.832 47.0212Z" fill="#D5DDEA"/>
  <path opacity="0.5" d="M117.325 48.1253C116.195 49.8378 113.454 49.9661 111.381 48.4033L87.692 30.5587L88.6111 29.166L108.645 44.2565C108.742 44.3292 108.839 44.3981 108.939 44.4637C110.97 45.8041 113.511 45.6113 114.589 43.9782C114.735 43.7568 114.846 43.5216 114.924 43.2775L115.249 43.4646C115.352 43.5239 115.454 43.5865 115.552 43.6515C116.809 44.4804 117.602 45.7183 117.772 46.9297C117.713 47.3531 117.567 47.7585 117.326 48.1248L117.325 48.1253Z" fill="#989FB0"/>
  <path d="M52.0781 21.8317L36.0117 10.3471L45.2785 19.688L41.2421 18.7224L56.1569 29.9922L47.531 21.3834L52.0781 21.8317Z" fill="#E43434"/>
  <path d="M50.3597 34.186L39.3748 28.3476L47.2428 30.9528L45.5657 28.9473L56.1063 34.1965L48.831 31.7474L50.3597 34.186Z" fill="#E43434"/>
  <defs>
    <linearGradient id="paint0_linear_1716_132" x1="85.698" y1="90.5769" x2="85.698" y2="93.6222" gradientUnits="userSpaceOnUse">
      <stop stop-color="#C8D3E8"/>
      <stop offset="1" stop-color="#7C8391"/>
    </linearGradient>
    <linearGradient id="paint1_linear_1716_132" x1="55.2743" y1="101.156" x2="55.2743" y2="103.347" gradientUnits="userSpaceOnUse">
      <stop stop-color="#B5BED0"/>
      <stop offset="1" stop-color="#A3ACBD"/>
    </linearGradient>
    <linearGradient id="paint2_linear_1716_132" x1="89.8966" y1="96.4031" x2="89.8966" y2="98.4116" gradientUnits="userSpaceOnUse">
      <stop stop-color="#A2ABBC"/>
      <stop offset="1" stop-color="#838C9C"/>
    </linearGradient>
    <linearGradient id="paint3_linear_1716_132" x1="73.4501" y1="93.4916" x2="73.4501" y2="100.298" gradientUnits="userSpaceOnUse">
      <stop stop-color="#B9C3D4"/>
      <stop offset="1" stop-color="#A3ACBD"/>
    </linearGradient>
    <linearGradient id="paint4_linear_1716_132" x1="72.9275" y1="97.5697" x2="72.9275" y2="100.298" gradientUnits="userSpaceOnUse">
      <stop stop-color="#B9C3D5"/>
      <stop offset="1" stop-color="#A3ACBD"/>
    </linearGradient>
  </defs>
</svg>