<svg width="24" height="24" viewBox="0 0 24 24" fill="none" xmlns="http://www.w3.org/2000/svg">
    <path fill-rule="evenodd" clip-rule="evenodd" d="M11 17.5C14.5899 17.5 17.5 14.5899 17.5 11C17.5 7.41015 14.5899 4.5 11 4.5C7.41015 4.5 4.5 7.41015 4.5 11C4.5 14.5899 7.41015 17.5 11 17.5ZM11 19C15.4183 19 19 15.4183 19 11C19 6.58172 15.4183 3 11 3C6.58172 3 3 6.58172 3 11C3 15.4183 6.58172 19 11 19Z" fill="currentColor"/>
    <path fill-rule="evenodd" clip-rule="evenodd" d="M21.0655 21.0654C20.7726 21.3583 20.2977 21.3583 20.0048 21.0654L17.53 18.5905C17.2371 18.2976 17.2371 17.8227 17.53 17.5298C17.8228 17.2369 18.2977 17.2369 18.5906 17.5298L21.0655 20.0047C21.3584 20.2976 21.3584 20.7725 21.0655 21.0654Z" fill="currentColor"/>
    </svg>
    