<svg width="25" height="24" viewBox="0 0 25 24" fill="none" xmlns="http://www.w3.org/2000/svg">
<path fill-rule="evenodd" clip-rule="evenodd" d="M13 7.5C13 7.08579 12.6642 6.75 12.25 6.75C11.8358 6.75 11.5 7.08579 11.5 7.5V7.74023H11.21C9.95704 7.74023 9.01001 8.80585 9.01001 10.0202C9.01001 10.5877 9.13434 11.0805 9.4439 11.4747C9.74626 11.8597 10.1508 12.0531 10.4985 12.1768L11.5 12.5262V14.7502H11.42C10.9453 14.7502 10.5 14.3378 10.5 13.7502C10.5 13.336 10.1642 13.0002 9.75 13.0002C9.33579 13.0002 9 13.336 9 13.7502C9 15.1027 10.0547 16.2502 11.42 16.2502H11.5V16.5C11.5 16.9142 11.8358 17.25 12.25 17.25C12.6642 17.25 13 16.9142 13 16.5V16.2502H13.3C14.5498 16.2502 15.5 15.1979 15.5 13.9702C15.5 13.4059 15.3748 12.9148 15.0674 12.5211C14.7666 12.1359 14.3639 11.9391 14.0115 11.8136L13 11.4608V9.24023H13.09C13.5647 9.24023 14.01 9.65269 14.01 10.2402C14.01 10.6544 14.3458 10.9902 14.76 10.9902C15.1742 10.9902 15.51 10.6544 15.51 10.2402C15.51 8.88778 14.4553 7.74023 13.09 7.74023H13V7.5ZM11.5 9.24023H11.21C10.8629 9.24023 10.51 9.55462 10.51 10.0202C10.51 10.3728 10.5857 10.5 10.6236 10.5483C10.6686 10.6056 10.7586 10.677 10.9994 10.7629L11.5 10.9375V9.24023ZM13 13.0494V14.7502H13.3C13.6502 14.7502 14 14.4425 14 13.9702C14 13.6246 13.9252 13.4956 13.8851 13.4443C13.8386 13.3847 13.7467 13.3118 13.5106 13.2276L13 13.0494Z" fill="color1"/>
<path fill-rule="evenodd" clip-rule="evenodd" d="M12.25 3.53846C7.57945 3.53846 3.78846 7.32945 3.78846 12C3.78846 16.6705 7.57945 20.4615 12.25 20.4615C16.9206 20.4615 20.7115 16.6705 20.7115 12C20.7115 11.5752 21.0559 11.2308 21.4808 11.2308C21.9056 11.2308 22.25 11.5752 22.25 12C22.25 17.5202 17.7702 22 12.25 22C6.72978 22 2.25 17.5202 2.25 12C2.25 6.47978 6.72978 2 12.25 2C12.6748 2 13.0192 2.34439 13.0192 2.76923C13.0192 3.19406 12.6748 3.53846 12.25 3.53846ZM16.4792 7.27032C16.1863 6.97743 16.1863 6.50255 16.4792 6.20966L20.1989 2.48999L18.0098 2.48999C17.5956 2.48999 17.2598 2.1542 17.2598 1.73999C17.2598 1.32577 17.5956 0.989988 18.0098 0.989988L22.0098 0.989988C22.424 0.989988 22.7598 1.32578 22.7598 1.73999L22.7598 5.73999C22.7598 6.1542 22.424 6.48999 22.0098 6.48999C21.5956 6.48999 21.2598 6.1542 21.2598 5.73999L21.2598 3.55041L17.5399 7.27032C17.247 7.56321 16.7721 7.56321 16.4792 7.27032Z" fill="color2"/>
</svg>
