<svg width="25" height="24" viewBox="0 0 25 24" fill="none" xmlns="http://www.w3.org/2000/svg">
<path fill-rule="evenodd" clip-rule="evenodd" d="M15.1895 21.2049L19.6895 17.9945C20.6837 17.2844 21.5 15.7342 21.5 14.5541V7.12314C21.5 5.89299 20.5163 4.53282 19.3128 4.10276L14.0907 2.23253C13.2012 1.92249 11.7779 1.92249 10.9093 2.23253L5.68721 4.11276C4.48372 4.54282 3.5 5.90299 3.5 7.12314V14.5541C3.5 15.7342 4.31628 17.2844 5.31046 17.9945L9.81046 21.2049C11.286 22.265 13.714 22.265 15.1895 21.2049ZM11.4151 3.64467C11.4146 3.64486 11.4141 3.64505 11.4136 3.64523L6.19196 5.52529C5.92505 5.62067 5.60941 5.85381 5.35641 6.20253C5.1011 6.55442 5 6.89803 5 7.12314V14.5541C5 14.8321 5.10787 15.2733 5.35978 15.7519C5.61 16.2273 5.92321 16.5888 6.18229 16.7739L10.6857 19.9867C11.1197 20.2985 11.7723 20.5 12.5 20.5C13.2277 20.5 13.8803 20.2985 14.3143 19.9867L14.3184 19.9838L18.8177 16.7739C19.0768 16.5888 19.39 16.2273 19.6402 15.7519C19.8921 15.2733 20 14.8321 20 14.5541V7.12314C20 6.89071 19.8972 6.54416 19.6426 6.19246C19.39 5.84342 19.0747 5.61059 18.808 5.51529L13.592 3.64724C13.3518 3.5645 12.9537 3.5 12.4922 3.5C12.0267 3.5 11.6377 3.56556 11.4151 3.64467Z" fill="color2"/>
<path fill-rule="evenodd" clip-rule="evenodd" d="M15.9904 8.64966C16.2833 8.94256 16.2833 9.41743 15.9904 9.71032L11.6904 14.0103C11.3975 14.3032 10.9226 14.3032 10.6297 14.0103L9.01972 12.4003C8.72683 12.1074 8.72683 11.6326 9.01972 11.3397C9.31261 11.0468 9.78749 11.0468 10.0804 11.3397L11.16 12.4193L14.9297 8.64966C15.2226 8.35677 15.6975 8.35677 15.9904 8.64966Z" fill="color1"/>
</svg>
