<svg width="25" height="24" viewBox="0 0 25 24" fill="none" xmlns="http://www.w3.org/2000/svg">
    <path fill-rule="evenodd" clip-rule="evenodd" d="M20.1704 6.25194C20.3814 6.46296 20.4999 6.74917 20.4999 7.0476V11.7656C20.4999 18.8385 14.496 21.1935 13.2904 21.5873C13.066 21.6621 12.8235 21.6621 12.5992 21.5873C11.3935 21.1935 5.38959 18.8385 5.38959 11.7656V7.0476C5.38959 6.74917 5.50814 6.46296 5.71916 6.25194C5.93019 6.04091 6.21639 5.92236 6.51483 5.92236H19.3747C19.6731 5.92236 19.9593 6.04091 20.1704 6.25194Z" fill="#FFC709"/>
    <path d="M19.4999 5.21678C19.4999 4.89407 19.3744 4.58458 19.151 4.35639C18.9275 4.1282 18.6245 4 18.3084 4H4.69143C4.37543 4 4.07237 4.1282 3.84892 4.35639C3.62547 4.58458 3.49994 4.89407 3.49994 5.21678V10.3186C3.49994 17.9669 9.85739 20.5135 11.134 20.9394C11.3715 21.0202 11.6283 21.0202 11.8659 20.9394C13.1425 20.5135 19.4999 17.9669 19.4999 10.3186V5.21678ZM11.551 19.9486C11.5352 19.9569 11.5177 19.9613 11.4999 19.9613C11.4822 19.9613 11.4646 19.9569 11.4489 19.9486C10.2914 19.5574 4.52122 17.2542 4.52122 10.3186V5.21678C4.52122 5.17068 4.53915 5.12647 4.57107 5.09387C4.60299 5.06127 4.64629 5.04296 4.69143 5.04296H18.3084C18.3536 5.04296 18.3969 5.06127 18.4288 5.09387C18.4607 5.12647 18.4787 5.17068 18.4787 5.21678V10.3186C18.4787 17.2542 12.7085 19.5574 11.551 19.9486ZM15.6106 9.03227C15.6568 9.08111 15.6931 9.13886 15.7173 9.20215C15.7415 9.26544 15.7532 9.33301 15.7516 9.40094C15.75 9.46887 15.7352 9.5358 15.7081 9.59784C15.681 9.65988 15.642 9.7158 15.5936 9.76234L10.6063 14.6295C10.5092 14.7223 10.3818 14.7749 10.2489 14.7772C10.118 14.7772 9.99247 14.724 9.89994 14.6295L7.40632 12.1959C7.30926 12.1014 7.25294 11.9714 7.24975 11.8345C7.24656 11.6976 7.29676 11.565 7.3893 11.4658C7.48184 11.3667 7.60915 11.3092 7.74322 11.3059C7.87729 11.3027 8.00714 11.3539 8.10419 11.4485L10.2489 13.5344L14.8957 9.01489C14.9435 8.96765 15.0001 8.9306 15.062 8.90587C15.124 8.88115 15.1902 8.86925 15.2567 8.87087C15.3232 8.87248 15.3887 8.88759 15.4495 8.91529C15.5102 8.943 15.565 8.98276 15.6106 9.03227Z" fill="black"/>
</svg>
