<svg width="24" height="24" viewBox="0 0 24 24" fill="none" xmlns="http://www.w3.org/2000/svg">
<path fill-rule="evenodd" clip-rule="evenodd" d="M5.75 7.82278C5.75 5.44586 7.65279 3.51899 10 3.51899H14C16.3472 3.51899 18.25 5.44586 18.25 7.82278V9.8481H18C17.4477 9.8481 17 10.3015 17 10.8608V16.9367C17 17.496 17.4477 17.9494 18 17.9494H18.1775C17.9624 18.6814 17.2928 19.2152 16.5 19.2152H13.8546C13.5579 18.473 12.8393 17.9494 12 17.9494C10.8954 17.9494 10 18.8561 10 19.9747C10 21.0932 10.8954 22 12 22C12.8393 22 13.5579 21.4764 13.8546 20.7342H16.5C18.128 20.7342 19.4764 19.522 19.7131 17.9403C20.9941 17.8308 22 16.7432 22 15.4177V12.3797C22 11.067 21.0133 9.98762 19.75 9.8606V7.82278C19.75 4.60695 17.1756 2 14 2H10C6.82436 2 4.25 4.60695 4.25 7.82278V9.8606C2.98667 9.98762 2 11.067 2 12.3797V15.4177C2 16.8159 3.11929 17.9494 4.5 17.9494H6C6.55228 17.9494 7 17.496 7 16.9367V10.8608C7 10.3015 6.55228 9.8481 6 9.8481H5.75V7.82278ZM5.5 11.3671H4.5C3.94772 11.3671 3.5 11.8205 3.5 12.3797V15.4177C3.5 15.977 3.94772 16.4304 4.5 16.4304H5.5V11.3671ZM18.5 16.4304H19.5C20.0523 16.4304 20.5 15.977 20.5 15.4177V12.3797C20.5 11.8205 20.0523 11.3671 19.5 11.3671H18.5V16.4304Z" fill="white"/>
</svg>
