<svg xmlns="http://www.w3.org/2000/svg" width="24" height="24" viewBox="0 0 24 24" fill="none">
  <path fill-rule="evenodd" clip-rule="evenodd" d="M7.25 7C7.25 6.58579 7.58579 6.25 8 6.25H16C16.4142 6.25 16.75 6.58579 16.75 7C16.75 7.41421 16.4142 7.75 16 7.75H8C7.58579 7.75 7.25 7.41421 7.25 7Z" fill="currentColor"/>
  <path fill-rule="evenodd" clip-rule="evenodd" d="M8.25 11C8.25 10.5858 8.58579 10.25 9 10.25H15C15.4142 10.25 15.75 10.5858 15.75 11C15.75 11.4142 15.4142 11.75 15 11.75H9C8.58579 11.75 8.25 11.4142 8.25 11Z" fill="currentColor"/>
  <path fill-rule="evenodd" clip-rule="evenodd" d="M13.5092 19.6808C13.8591 19.9151 13.9475 20.3916 13.7049 20.7359L13.3796 21.1976C12.6168 22.2675 11.3831 22.2675 10.6203 21.1976L9.66919 19.8478C8.99115 18.8879 7.81399 18.8179 7.04178 19.6978C5.37492 21.5876 4 20.9676 4 18.298V7.03937C4 3.00987 4.88522 2 8.44495 2H15.5644C19.1241 2 20.0093 3.00987 19.9999 7.03937V12.25C19.9999 12.6642 19.6641 13 19.2499 13C18.8357 13 18.4999 12.6642 18.4999 12.25V7.03586C18.5047 4.98956 18.2445 4.28382 17.9943 3.99929C17.8047 3.78378 17.3271 3.5 15.5644 3.5H8.44495C6.68287 3.5 6.20402 3.78351 6.01302 4.00028C5.76109 4.28619 5.5 4.99321 5.5 7.03937V18.298C5.5 18.6236 5.52534 18.8758 5.55997 19.0643C5.66113 18.9767 5.7783 18.8626 5.91438 18.7084C6.57162 17.9595 7.49182 17.5284 8.47738 17.5854C9.46057 17.6422 10.3232 18.1738 10.8944 18.9823L10.8954 18.9838L11.8417 20.3268L11.8435 20.3294C11.9146 20.4285 11.9722 20.4732 12 20.4909C12.0278 20.4732 12.0853 20.4285 12.1564 20.3294L12.1582 20.3268L12.4788 19.8719C12.7134 19.5389 13.1708 19.4541 13.5092 19.6808Z" fill="currentColor"/>
  <path d="M18.8462 15.0602C18.8462 14.646 18.5104 14.3102 18.0962 14.3102C17.682 14.3102 17.3462 14.646 17.3462 15.0602L17.3462 19.3206L15.7981 17.7725C15.5052 17.4796 15.0303 17.4796 14.7374 17.7725C14.4445 18.0654 14.4445 18.5402 14.7374 18.8331L17.5659 21.6616C17.6378 21.7335 17.7206 21.7877 17.8091 21.8243C17.8975 21.861 17.9945 21.8812 18.0962 21.8812C18.1979 21.8812 18.2949 21.861 18.3833 21.8243C18.4717 21.7877 18.5546 21.7335 18.6265 21.6616L21.455 18.8331C21.7478 18.5402 21.7478 18.0654 21.455 17.7725C21.1621 17.4796 20.6872 17.4796 20.3943 17.7725L18.8462 19.3206L18.8462 15.0602Z" fill="currentColor"/>
</svg>