<svg width="18" height="20" viewBox="0 0 18 20" fill="none" xmlns="http://www.w3.org/2000/svg">
<path fill-rule="evenodd" clip-rule="evenodd" d="M16.1895 15.9945L11.6895 19.2049C10.214 20.265 7.78605 20.265 6.31046 19.2049L1.81046 15.9945C0.816279 15.2844 0 13.7342 0 12.5541V5.12314C0 3.90299 0.983721 2.54282 2.18721 2.11276L7.4093 0.232529C8.27791 -0.0775097 9.70116 -0.0775097 10.5907 0.232529L15.8128 2.10276C17.0163 2.53282 18 3.89299 18 5.12314V12.5541C18 13.7342 17.1837 15.2844 16.1895 15.9945ZM12.4901 7.71032C12.783 7.41743 12.783 6.94256 12.4901 6.64966C12.1972 6.35677 11.7224 6.35677 11.4295 6.64966L7.6598 10.4193L6.58013 9.33966C6.28724 9.04677 5.81237 9.04677 5.51947 9.33966C5.22658 9.63256 5.22658 10.1074 5.51947 10.4003L7.12947 12.0103C7.42237 12.3032 7.89724 12.3032 8.19013 12.0103L12.4901 7.71032Z" fill="currentColor"/>
</svg>
