<svg width="64" height="64" viewBox="0 0 64 64" fill="none" xmlns="http://www.w3.org/2000/svg">
<rect width="64" height="64" rx="32" fill="url(#paint0_linear_1971_10276)"/>
<path fill-rule="evenodd" clip-rule="evenodd" d="M17.8334 24.0833C17.8334 20.6237 20.6237 17.8333 24.0834 17.8333H28.25C28.9404 17.8333 29.5 17.2737 29.5 16.5833C29.5 15.893 28.9404 15.3333 28.25 15.3333H24.0834C19.243 15.3333 15.3334 19.243 15.3334 24.0833V28.25C15.3334 28.9403 15.893 29.5 16.5834 29.5C17.2737 29.5 17.8334 28.9403 17.8334 28.25V24.0833ZM46.1667 39.9166C46.1667 43.3763 43.3764 46.1666 39.9167 46.1666H35.75C35.0597 46.1666 34.5 46.7263 34.5 47.4166C34.5 48.107 35.0597 48.6666 35.75 48.6666H39.9167C44.7571 48.6666 48.6667 44.757 48.6667 39.9166V35.75C48.6667 35.0596 48.1071 34.5 47.4167 34.5C46.7264 34.5 46.1667 35.0596 46.1667 35.75V39.9166ZM34.5 16.5833C34.5 15.893 35.0597 15.3333 35.75 15.3333H39.9167C44.7571 15.3333 48.6667 19.243 48.6667 24.0833V28.25C48.6667 28.9403 48.1071 29.5 47.4167 29.5C46.7264 29.5 46.1667 28.9403 46.1667 28.25V24.0833C46.1667 20.6237 43.3764 17.8333 39.9167 17.8333H35.75C35.0597 17.8333 34.5 17.2737 34.5 16.5833ZM17.8334 35.75C17.8334 35.0596 17.2737 34.5 16.5834 34.5C15.893 34.5 15.3334 35.0596 15.3334 35.75V39.9166C15.3334 44.757 19.243 48.6666 24.0834 48.6666H28.25C28.9404 48.6666 29.5 48.107 29.5 47.4166C29.5 46.7263 28.9404 46.1666 28.25 46.1666H24.0834C20.6237 46.1666 17.8334 43.3763 17.8334 39.9166V35.75ZM27.8334 27.8333V24.5H24.5V27.8333H27.8334ZM30.3334 27.8333V24.5C30.3334 22.8333 29.5 22 27.8334 22H24.5C22.8334 22 22 22.8333 22 24.5V27.8333C22 29.5 22.8334 30.3333 24.5 30.3333H27.8334C29.5 30.3333 30.3334 29.5 30.3334 27.8333ZM39.5 24.5V27.8333H36.1667V24.5H39.5ZM42 24.5V27.8333C42 29.5 41.1667 30.3333 39.5 30.3333H36.1667C34.5 30.3333 33.6667 29.5 33.6667 27.8333V24.5C33.6667 22.8333 34.5 22 36.1667 22H39.5C41.1667 22 42 22.8333 42 24.5ZM27.8334 39.5V36.1666H24.5V39.5H27.8334ZM30.3334 39.5V36.1666C30.3334 34.5 29.5 33.6666 27.8334 33.6666H24.5C22.8334 33.6666 22 34.5 22 36.1666V39.5C22 41.1666 22.8334 42 24.5 42H27.8334C29.5 42 30.3334 41.1666 30.3334 39.5ZM39.5 36.1666V39.5H36.1667V36.1666H39.5ZM42 36.1666V39.5C42 41.1666 41.1667 42 39.5 42H36.1667C34.5 42 33.6667 41.1666 33.6667 39.5V36.1666C33.6667 34.5 34.5 33.6666 36.1667 33.6666H39.5C41.1667 33.6666 42 34.5 42 36.1666Z" fill="#1B1D29"/>
<defs>
<linearGradient id="paint0_linear_1971_10276" x1="32" y1="0" x2="32" y2="64" gradientUnits="userSpaceOnUse">
<stop stop-color="#FFE99E"/>
<stop offset="1" stop-color="#FFD548"/>
</linearGradient>
</defs>
</svg>
