<svg width="24" height="24" viewBox="0 0 24 24" fill="none" xmlns="http://www.w3.org/2000/svg">
<path fill-rule="evenodd" clip-rule="evenodd" d="M19.1895 17.9945L14.6895 21.2049C13.214 22.265 10.786 22.265 9.31046 21.2049L4.81046 17.9945C3.81628 17.2844 3 15.7342 3 14.5541V7.12314C3 5.90299 3.98372 4.54282 5.18721 4.11276L10.4093 2.23253C11.2779 1.92249 12.7012 1.92249 13.5907 2.23253L18.8128 4.10276C20.0163 4.53282 21 5.89299 21 7.12314V14.5541C21 15.7342 20.1837 17.2844 19.1895 17.9945ZM10.9136 3.64523L10.9151 3.64467C11.1377 3.56556 11.5267 3.5 11.9922 3.5C12.4537 3.5 12.8518 3.5645 13.092 3.64724L18.308 5.51529C18.5747 5.61059 18.89 5.84342 19.1426 6.19246C19.3972 6.54416 19.5 6.89071 19.5 7.12314V14.5541C19.5 14.8321 19.3921 15.2733 19.1402 15.7519C18.89 16.2273 18.5768 16.5888 18.3177 16.7739L13.8184 19.9838L13.8143 19.9867C13.3803 20.2985 12.7277 20.5 12 20.5C11.2723 20.5 10.6197 20.2985 10.1857 19.9867L5.68229 16.7739C5.42321 16.5888 5.11 16.2273 4.85978 15.7519C4.60787 15.2733 4.5 14.8321 4.5 14.5541V7.12314C4.5 6.89803 4.6011 6.55442 4.85641 6.20253C5.10941 5.85381 5.42505 5.62067 5.69196 5.52529L10.9136 3.64523ZM15.4901 9.71032C15.783 9.41743 15.783 8.94256 15.4901 8.64966C15.1972 8.35677 14.7224 8.35677 14.4295 8.64966L10.6598 12.4193L9.58013 11.3397C9.28724 11.0468 8.81237 11.0468 8.51947 11.3397C8.22658 11.6326 8.22658 12.1074 8.51947 12.4003L10.1295 14.0103C10.4224 14.3032 10.8972 14.3032 11.1901 14.0103L15.4901 9.71032Z" fill="currentColor"/>
</svg>
