<svg width="49" height="48" viewBox="0 0 49 48" fill="none" xmlns="http://www.w3.org/2000/svg">
<rect x="0.75" width="48" height="48" rx="24" fill="#F8F8FC"/>
<path fill-rule="evenodd" clip-rule="evenodd" d="M31.9395 29.9945L27.4395 33.2049C25.964 34.265 23.536 34.265 22.0605 33.2049L17.5605 29.9945C16.5663 29.2844 15.75 27.7342 15.75 26.5541V19.1231C15.75 17.903 16.7337 16.5428 17.9372 16.1128L23.1593 14.2325C24.0279 13.9225 25.4512 13.9225 26.3407 14.2325L31.5628 16.1028C32.7663 16.5328 33.75 17.893 33.75 19.1231V26.5541C33.75 27.7342 32.9337 29.2844 31.9395 29.9945ZM23.6636 15.6452L23.6651 15.6447C23.8877 15.5656 24.2767 15.5 24.7422 15.5C25.2037 15.5 25.6018 15.5645 25.842 15.6472L31.058 17.5153C31.3247 17.6106 31.64 17.8434 31.8926 18.1925C32.1472 18.5442 32.25 18.8907 32.25 19.1231V26.5541C32.25 26.8321 32.1421 27.2733 31.8902 27.7519C31.64 28.2273 31.3268 28.5888 31.0677 28.7739L26.5684 31.9838L26.5643 31.9867C26.1303 32.2985 25.4777 32.5 24.75 32.5C24.0223 32.5 23.3697 32.2985 22.9357 31.9867L18.4323 28.7739C18.1732 28.5888 17.86 28.2273 17.6098 27.7519C17.3579 27.2733 17.25 26.8321 17.25 26.5541V19.1231C17.25 18.898 17.3511 18.5544 17.6064 18.2025C17.8594 17.8538 18.175 17.6207 18.442 17.5253L23.6636 15.6452ZM28.2401 21.7103C28.533 21.4174 28.533 20.9426 28.2401 20.6497C27.9472 20.3568 27.4724 20.3568 27.1795 20.6497L23.4098 24.4193L22.3301 23.3397C22.0372 23.0468 21.5624 23.0468 21.2695 23.3397C20.9766 23.6326 20.9766 24.1074 21.2695 24.4003L22.8795 26.0103C23.1724 26.3032 23.6472 26.3032 23.9401 26.0103L28.2401 21.7103Z" fill="#1B1D29"/>
</svg>
