<svg width="17" height="16" viewBox="0 0 17 16" fill="none" xmlns="http://www.w3.org/2000/svg">
<path fill-rule="evenodd" clip-rule="evenodd" d="M3.86663 13.8291L3.86311 13.8291C2.37377 13.8333 1.942 13.6191 1.78527 13.4644C1.63312 13.3143 1.41663 12.8986 1.41663 11.4291V5.71239H15.5833V11.4208C15.5833 12.8897 15.367 13.3064 15.2138 13.4579C15.0556 13.6143 14.6225 13.8291 13.1333 13.8291L3.86663 13.8291ZM15.5828 4.46239H1.41709C1.42826 3.08792 1.63703 2.68935 1.78612 2.54194C1.94427 2.38557 2.37747 2.17078 3.86663 2.17078H13.125C14.6189 2.17078 15.0544 2.3857 15.2136 2.54276C15.3628 2.69003 15.5717 3.08785 15.5828 4.46239ZM0.166626 5.08739V11.4291C0.166626 14.3541 0.908293 15.0874 3.86663 15.0791H13.1333C16.0916 15.0791 16.8333 14.3458 16.8333 11.4208V4.57911C16.8333 1.65411 16.0916 0.920776 13.125 0.920776H3.86663C0.908293 0.920776 0.166626 1.65411 0.166626 4.57911V5.08739ZM2.87496 11.7541C2.87496 11.4089 3.15478 11.1291 3.49996 11.1291H5.99996C6.34514 11.1291 6.62496 11.4089 6.62496 11.7541C6.62496 12.0992 6.34514 12.3791 5.99996 12.3791H3.49996C3.15478 12.3791 2.87496 12.0992 2.87496 11.7541Z" fill="#1B1D29"/>
<path d="M8.08329 11.1291C7.73811 11.1291 7.45829 11.4089 7.45829 11.7541C7.45829 12.0993 7.73811 12.3791 8.08329 12.3791H8.91663C9.2618 12.3791 9.54163 12.0993 9.54163 11.7541C9.54163 11.4089 9.2618 11.1291 8.91663 11.1291H8.08329Z" fill="#1B1D29"/>
</svg>
