<svg width="24" height="24" viewBox="0 0 24 24" fill="none" xmlns="http://www.w3.org/2000/svg">
<path fill-rule="evenodd" clip-rule="evenodd" d="M8.59385 6.26132C8.43825 6.32849 8.36411 6.43023 8.34503 6.55482C8.19114 7.56004 7.51475 8.46652 6.89712 9.12479C6.25856 9.80537 5.57241 10.335 5.23117 10.5834C5.03205 10.7284 4.8226 10.8354 4.61575 10.9169L4.34087 10.2191L4.61574 10.9169L4.52246 10.9536C3.20535 11.4724 3.14427 13.3138 4.42411 13.9187L4.10359 14.5968L4.42411 13.9187C4.83779 14.1143 5.20333 14.3985 5.49477 14.7512L8.62353 18.5382C8.94485 18.9271 9.53083 18.9559 9.88877 18.6005C10.3304 18.1619 10.9276 17.9157 11.55 17.9157H12.0699C12.6524 17.9157 13.2254 18.0642 13.7346 18.347L14.875 18.9805C15.2212 19.1728 15.6579 19.0354 15.8317 18.6795C15.9984 18.3379 16.2512 18.0456 16.5652 17.8312L18.2682 16.6684C18.549 16.4767 18.81 16.2577 19.0475 16.0144L19.5841 16.5384L19.0475 16.0144C19.9851 15.0542 20.5098 13.7663 20.5098 12.4244V11.7261C20.5098 11.3119 20.8456 10.9761 21.2598 10.9761C21.674 10.9761 22.0098 11.3119 22.0098 11.7261V12.4244C22.0098 14.1581 21.3318 15.8221 20.1208 17.0623C19.8139 17.3766 19.4767 17.6596 19.114 17.9072L17.411 19.07C17.312 19.1376 17.2322 19.2298 17.1796 19.3376C16.6287 20.4659 15.2443 20.9015 14.1466 20.2918L13.0063 19.6583C12.7198 19.4992 12.3975 19.4157 12.0699 19.4157H11.55C11.3236 19.4157 11.1064 19.5052 10.9458 19.6648C9.96164 20.6421 8.35057 20.5628 7.46715 19.4936L4.33839 15.7066L4.89465 15.2471L4.33839 15.7066C4.18723 15.5237 3.99764 15.3763 3.78308 15.2748C1.31549 14.1084 1.43325 10.5583 3.97272 9.558L4.066 9.52125C4.17782 9.4772 4.27044 9.42748 4.3482 9.37085L4.78968 9.97715L4.3482 9.37085C4.65251 9.14926 5.25524 8.68248 5.80323 8.09843C6.37215 7.49207 6.77997 6.86567 6.86231 6.32782C6.97114 5.61694 7.44396 5.12391 7.99934 4.88416C8.5419 4.64994 9.18742 4.64056 9.76187 4.87203L11.0048 5.37285C11.2643 5.47743 11.5415 5.53118 11.8213 5.53118H14.6402C15.0544 5.53118 15.3902 5.86696 15.3902 6.28118C15.3902 6.69539 15.0544 7.03118 14.6402 7.03118H11.8213C11.3494 7.03118 10.8819 6.94052 10.4441 6.76414L9.20125 6.26333C8.99175 6.17891 8.76227 6.18861 8.59385 6.26132Z" fill="color1"/>
<path fill-rule="evenodd" clip-rule="evenodd" d="M19.2715 1.25C19.6857 1.25 20.0215 1.58579 20.0215 2V2.16406H20.0372C21.3249 2.16406 22.3024 3.24446 22.3024 4.50433C22.3024 4.91854 21.9666 5.25433 21.5524 5.25433C21.1382 5.25433 20.8024 4.91854 20.8024 4.50433C20.8024 4.0033 20.4285 3.66406 20.0372 3.66406H20.0215V5.55954L20.902 5.86543C21.2258 5.98018 21.6081 6.16243 21.8944 6.5277C22.1877 6.90184 22.3024 7.36596 22.3024 7.88962C22.3024 9.03593 21.4044 10.0251 20.2283 10.0251H20.0215V10.1902C20.0215 10.6044 19.6857 10.9402 19.2715 10.9402C18.8573 10.9402 18.5215 10.6044 18.5215 10.1902V10.0251H18.5152C17.2275 10.0251 16.25 8.94473 16.25 7.68486C16.25 7.27065 16.5858 6.93486 17 6.93486C17.4142 6.93486 17.75 7.27065 17.75 7.68486C17.75 8.18589 18.1239 8.52513 18.5152 8.52513H18.5215V6.62638L17.6504 6.32376C17.3266 6.20902 16.9443 6.02677 16.658 5.6615C16.3647 5.28735 16.25 4.82323 16.25 4.29957C16.25 3.15327 17.148 2.16406 18.3241 2.16406H18.5215V2C18.5215 1.58579 18.8573 1.25 19.2715 1.25ZM18.5215 3.66406H18.3241C18.0396 3.66406 17.75 3.91704 17.75 4.29957C17.75 4.60859 17.8161 4.70755 17.8385 4.73609C17.8678 4.77339 17.9356 4.83318 18.1494 4.9092C18.1501 4.90944 18.1508 4.90968 18.1515 4.90992L18.5215 5.03845V3.66406ZM20.0215 7.14747V8.52513H20.2283C20.5128 8.52513 20.8024 8.27215 20.8024 7.88962C20.8024 7.58061 20.7362 7.48165 20.7139 7.4531C20.6846 7.41581 20.6168 7.35602 20.403 7.28001L20.0215 7.14747ZM8.6808 10.6657C8.68114 10.6653 8.68147 10.665 8.68179 10.6646C8.72054 10.622 8.74395 10.5679 8.74873 10.5109C8.74904 10.5073 8.74927 10.5036 8.74942 10.5C8.74927 10.4963 8.74904 10.4927 8.74873 10.4891C8.74395 10.4321 8.72054 10.378 8.68179 10.3354C8.68147 10.335 8.68114 10.3347 8.6808 10.3343C8.63636 10.286 8.57551 10.2564 8.51057 10.2509C8.50694 10.2506 8.5033 10.2504 8.49965 10.2502C8.496 10.2504 8.49236 10.2506 8.48873 10.2509C8.42379 10.2564 8.36294 10.286 8.31849 10.3343C8.31816 10.3347 8.31783 10.335 8.3175 10.3354C8.27876 10.378 8.25535 10.4321 8.25056 10.4891C8.25026 10.4927 8.25003 10.4964 8.24988 10.5C8.25003 10.5036 8.25026 10.5073 8.25056 10.5109C8.25535 10.5679 8.27876 10.622 8.3175 10.6646C8.31783 10.665 8.31816 10.6653 8.31849 10.6657C8.36294 10.714 8.42379 10.7436 8.48873 10.7491C8.49236 10.7494 8.496 10.7496 8.49965 10.7498C8.5033 10.7496 8.50694 10.7494 8.51057 10.7491C8.57551 10.7436 8.63636 10.714 8.6808 10.6657ZM7.57188 9.65559C7.80672 9.39727 8.13963 9.25 8.48873 9.25H8.51057C8.85967 9.25 9.19258 9.39727 9.42741 9.65559C9.63476 9.88367 9.74965 10.1808 9.74965 10.4891V10.5109C9.74965 10.8192 9.63476 11.1163 9.42741 11.3444C9.19258 11.6027 8.85967 11.75 8.51057 11.75H8.48873C8.13963 11.75 7.80672 11.6027 7.57188 11.3444C7.36454 11.1163 7.24965 10.8192 7.24965 10.5109V10.4891C7.24965 10.1808 7.36454 9.88367 7.57188 9.65559ZM10.2496 16C10.2496 15.5858 10.5854 15.25 10.9996 15.25H13.9996C14.4139 15.25 14.7496 15.5858 14.7496 16C14.7496 16.4142 14.4139 16.75 13.9996 16.75H10.9996C10.5854 16.75 10.2496 16.4142 10.2496 16Z" fill="color2"/>
</svg>