<svg width="24" height="24" viewBox="0 0 24 24" fill="none" xmlns="http://www.w3.org/2000/svg">
<path fill-rule="evenodd" clip-rule="evenodd" d="M14.6895 21.2049L19.1895 17.9945C20.1837 17.2844 21 15.7342 21 14.5541V7.12314C21 5.89299 20.0163 4.53282 18.8128 4.10276L13.5907 2.23253C12.7012 1.92249 11.2779 1.92249 10.4093 2.23253L5.18721 4.11276C3.98372 4.54282 3 5.90299 3 7.12314V14.5541C3 15.7342 3.81628 17.2844 4.81046 17.9945L9.31046 21.2049C10.786 22.265 13.214 22.265 14.6895 21.2049ZM10.9151 3.64467C10.9146 3.64486 10.9141 3.64505 10.9136 3.64523L5.69196 5.52529C5.42505 5.62067 5.10941 5.85381 4.85641 6.20253C4.6011 6.55442 4.5 6.89803 4.5 7.12314V14.5541C4.5 14.8321 4.60787 15.2733 4.85978 15.7519C5.11 16.2273 5.42321 16.5888 5.68229 16.7739L10.1857 19.9867C10.6197 20.2985 11.2723 20.5 12 20.5C12.7277 20.5 13.3803 20.2985 13.8143 19.9867L13.8184 19.9838L18.3177 16.7739C18.5768 16.5888 18.89 16.2273 19.1402 15.7519C19.3921 15.2733 19.5 14.8321 19.5 14.5541V7.12314C19.5 6.89071 19.3972 6.54416 19.1426 6.19246C18.89 5.84342 18.5747 5.61059 18.308 5.51529L13.092 3.64724C12.8518 3.5645 12.4537 3.5 11.9922 3.5C11.5267 3.5 11.1377 3.56556 10.9151 3.64467Z" fill="color2"/>
<path fill-rule="evenodd" clip-rule="evenodd" d="M15.4903 8.64966C15.7832 8.94256 15.7832 9.41743 15.4903 9.71032L11.1903 14.0103C10.8974 14.3032 10.4226 14.3032 10.1297 14.0103L8.51966 12.4003C8.22676 12.1074 8.22676 11.6326 8.51966 11.3397C8.81255 11.0468 9.28742 11.0468 9.58032 11.3397L10.66 12.4193L14.4297 8.64966C14.7226 8.35677 15.1974 8.35677 15.4903 8.64966Z" fill="color1"/>
</svg>
 