<svg width="25" height="24" viewBox="0 0 25 24" fill="none" xmlns="http://www.w3.org/2000/svg">
<path d="M3.125 22H21.125" stroke="color1" stroke-width="1.5" stroke-linecap="round" stroke-linejoin="round"/>
<path d="M5.72498 8.38086H4.125C3.575 8.38086 3.125 8.83086 3.125 9.38086V18.0009C3.125 18.5509 3.575 19.0009 4.125 19.0009H5.72498C6.27498 19.0009 6.72498 18.5509 6.72498 18.0009V9.38086C6.72498 8.83086 6.27498 8.38086 5.72498 8.38086Z" stroke="color2" stroke-width="1.5" stroke-linecap="round" stroke-linejoin="round"/>
<path d="M12.9249 5.18945H11.325C10.775 5.18945 10.325 5.63945 10.325 6.18945V17.9995C10.325 18.5495 10.775 18.9995 11.325 18.9995H12.9249C13.4749 18.9995 13.9249 18.5495 13.9249 17.9995V6.18945C13.9249 5.63945 13.4749 5.18945 12.9249 5.18945Z" stroke="color2" stroke-width="1.5" stroke-linecap="round" stroke-linejoin="round"/>
<path d="M20.125 2H18.525C17.975 2 17.525 2.45 17.525 3V18C17.525 18.55 17.975 19 18.525 19H20.125C20.675 19 21.125 18.55 21.125 18V3C21.125 2.45 20.675 2 20.125 2Z" stroke="color2" stroke-width="1.5" stroke-linecap="round" stroke-linejoin="round"/>
</svg>
