<svg width="20" height="18" viewBox="0 0 20 18" fill="none" xmlns="http://www.w3.org/2000/svg">
<path fill-rule="evenodd" clip-rule="evenodd" d="M15.5994 0.509398C15.8704 0.196102 16.344 0.161781 16.6573 0.43274L19.7406 3.09941C19.9053 3.24187 20 3.4489 20 3.66668C20 3.88446 19.9053 4.09149 19.7406 4.23395L16.6573 6.90062C16.344 7.17158 15.8704 7.13726 15.5994 6.82396C15.3284 6.51066 15.3628 6.03703 15.6761 5.76607L17.2363 4.41668H16.7514C15.745 4.41668 15.378 4.42252 15.0558 4.50714C14.7516 4.58704 14.4742 4.71665 14.238 4.88452C13.9964 5.05629 13.8027 5.29523 13.2406 6.0245L7.94744 12.8913C7.92622 12.9188 7.9053 12.946 7.88464 12.9728C7.40996 13.5891 7.07744 14.0208 6.63106 14.3381C6.24093 14.6154 5.79676 14.8198 5.32523 14.9437C4.79207 15.0837 4.2179 15.0836 3.35173 15.0834C3.31782 15.0834 3.28347 15.0833 3.24865 15.0833H0.75C0.335786 15.0833 0 14.7476 0 14.3333C0 13.9191 0.335786 13.5833 0.75 13.5833H3.24865C4.25501 13.5833 4.62201 13.5775 4.94418 13.4929C5.24836 13.413 5.52584 13.2834 5.762 13.1155C6.00364 12.9437 6.19727 12.7048 6.75942 11.9755L12.0526 5.10874C12.0738 5.08122 12.0947 5.05406 12.1154 5.02725C12.59 4.41096 12.9226 3.97923 13.3689 3.66193C13.7591 3.38461 14.2032 3.1802 14.6748 3.05635C15.2079 2.91631 15.7821 2.91645 16.6483 2.91666C16.6822 2.91667 16.7165 2.91668 16.7514 2.91668H17.2363L15.6761 1.56728C15.3628 1.29633 15.3284 0.822694 15.5994 0.509398ZM4.94418 4.50714C4.62201 4.42252 4.25501 4.41668 3.24865 4.41668H0.75C0.335786 4.41668 0 4.08089 0 3.66668C0 3.25247 0.335786 2.91668 0.75 2.91668H3.24865C3.28346 2.91668 3.31781 2.91667 3.35172 2.91666C4.2179 2.91645 4.79207 2.91631 5.32523 3.05635C5.79676 3.1802 6.24093 3.38461 6.63106 3.66193C7.07744 3.97923 7.40996 4.41095 7.88464 5.02724C7.9053 5.05406 7.92622 5.08122 7.94744 5.10874L8.19586 5.43102C8.44874 5.75908 8.38779 6.23003 8.05973 6.48291C7.73167 6.73579 7.26073 6.67484 7.00784 6.34678L6.75942 6.02451C6.19727 5.29523 6.00364 5.05629 5.762 4.88452C5.52584 4.71665 5.24836 4.58704 4.94418 4.50714ZM15.5994 11.1761C15.8704 10.8628 16.344 10.8284 16.6573 11.0994L19.7406 13.7661C19.9053 13.9085 20 14.1156 20 14.3333C20 14.5511 19.9053 14.7582 19.7406 14.9006L16.6573 17.5673C16.344 17.8382 15.8704 17.8039 15.5994 17.4906C15.3284 17.1773 15.3628 16.7037 15.6761 16.4327L17.2363 15.0833H16.7514C16.7165 15.0833 16.6822 15.0834 16.6483 15.0834C15.7821 15.0836 15.2079 15.0837 14.6748 14.9437C14.2032 14.8198 13.7591 14.6154 13.3689 14.3381C12.9226 14.0208 12.59 13.5891 12.1154 12.9728C12.0947 12.946 12.0738 12.9188 12.0526 12.8913L11.8041 12.569C11.5513 12.2409 11.6122 11.77 11.9403 11.5171C12.2683 11.2642 12.7393 11.3252 12.9922 11.6532L13.2406 11.9755C13.8027 12.7048 13.9964 12.9437 14.238 13.1155C14.4742 13.2834 14.7516 13.413 15.0558 13.4929C15.378 13.5775 15.745 13.5833 16.7514 13.5833H17.2363L15.6761 12.234C15.3628 11.963 15.3284 11.4894 15.5994 11.1761Z" fill="currentColor"/>
</svg>
