<svg width="20" height="20" viewBox="0 0 20 20" fill="none" xmlns="http://www.w3.org/2000/svg">
<path fill-rule="evenodd" clip-rule="evenodd" d="M14 3.75C14 2.50736 15.0074 1.5 16.25 1.5C17.4926 1.5 18.5 2.50736 18.5 3.75C18.5 4.99264 17.4926 6 16.25 6C15.0074 6 14 4.99264 14 3.75ZM16.25 0C14.1789 0 12.5 1.67893 12.5 3.75C12.5 4.05136 12.5355 4.34441 12.6027 4.6252L6.67371 6.60152C5.98638 5.74693 4.93206 5.20001 3.75 5.20001C1.67893 5.20001 0 6.87894 0 8.95001C0 11.0211 1.67893 12.7 3.75 12.7C4.90167 12.7 5.93208 12.1809 6.61997 11.3638L12.8424 14.6824C12.6226 15.1594 12.5 15.6904 12.5 16.25C12.5 18.3211 14.1789 20 16.25 20C18.3211 20 20 18.3211 20 16.25C20 14.1789 18.3211 12.5 16.25 12.5C15.2856 12.5 14.4063 12.864 13.7419 13.4622L7.33721 10.0463C7.44306 9.69955 7.5 9.33143 7.5 8.95001C7.5 8.60442 7.45325 8.26976 7.36574 7.95198L13.2441 5.99252C13.9279 6.90761 15.0198 7.5 16.25 7.5C18.3211 7.5 20 5.82107 20 3.75C20 1.67893 18.3211 0 16.25 0ZM3.75 6.70001C2.50736 6.70001 1.5 7.70737 1.5 8.95001C1.5 10.1927 2.50736 11.2 3.75 11.2C4.99264 11.2 6 10.1927 6 8.95001C6 7.70737 4.99264 6.70001 3.75 6.70001ZM14 16.25C14 15.0074 15.0074 14 16.25 14C17.4926 14 18.5 15.0074 18.5 16.25C18.5 17.4926 17.4926 18.5 16.25 18.5C15.0074 18.5 14 17.4926 14 16.25Z" fill="currentColor"/>
</svg>
