<svg width="24" height="24" viewBox="0 0 24 24" fill="none" xmlns="http://www.w3.org/2000/svg">
<path fill-rule="evenodd" clip-rule="evenodd" d="M3 3.81818C3 3.36631 3.36631 3 3.81818 3H8.49203C8.9439 3 9.31021 3.36631 9.31021 3.81818C9.31021 4.27005 8.9439 4.63636 8.49203 4.63636H4.63636V8.49205C4.63636 8.94392 4.27005 9.31023 3.81818 9.31023C3.36631 9.31023 3 8.94392 3 8.49205V3.81818ZM14.6898 3.81818C14.6898 3.36631 15.0561 3 15.508 3H20.1818C20.6337 3 21 3.36631 21 3.81818V8.49205C21 8.94392 20.6337 9.31023 20.1818 9.31023C19.7299 9.31023 19.3636 8.94391 19.3636 8.49204V4.63636H15.508C15.0561 4.63636 14.6898 4.27005 14.6898 3.81818ZM3 12C3 11.5481 3.36631 11.1818 3.81818 11.1818H20.1818C20.6337 11.1818 21 11.5481 21 12C21 12.4519 20.6337 12.8182 20.1818 12.8182H3.81818C3.36631 12.8182 3 12.4519 3 12ZM3.81818 14.6898C4.27005 14.6898 4.63636 15.0561 4.63636 15.508V19.3636H8.49203C8.9439 19.3636 9.31021 19.7299 9.31021 20.1818C9.31021 20.6337 8.9439 21 8.49203 21H3.81818C3.36631 21 3 20.6337 3 20.1818V15.508C3 15.0561 3.36631 14.6898 3.81818 14.6898ZM20.1818 14.6898C20.6337 14.6898 21 15.0561 21 15.508V20.1818C21 20.6337 20.6337 21 20.1818 21H15.508C15.0561 21 14.6898 20.6337 14.6898 20.1818C14.6898 19.7299 15.0561 19.3636 15.508 19.3636H19.3636V15.508C19.3636 15.0561 19.7299 14.6898 20.1818 14.6898Z" fill="white"/>
</svg>
