<svg width="20" height="20" viewBox="0 0 20 20" fill="none" xmlns="http://www.w3.org/2000/svg">
<path fill-rule="evenodd" clip-rule="evenodd" d="M15.9913 14.9954L12.2413 17.6708C11.0116 18.5542 8.98837 18.5542 7.75872 17.6708L4.00872 14.9954C3.18023 14.4037 2.5 13.1119 2.5 12.1284V5.93596C2.5 4.91916 3.31977 3.78569 4.32267 3.42731L8.67442 1.86045C9.39826 1.60208 10.5843 1.60208 11.3256 1.86045L15.6773 3.41897C16.6802 3.77735 17.5 4.91083 17.5 5.93596V12.1284C17.5 13.1119 16.8198 14.4037 15.9913 14.9954ZM12.9084 8.09194C13.1525 7.84786 13.1525 7.45214 12.9084 7.20806C12.6644 6.96398 12.2686 6.96398 12.0246 7.20806L8.88317 10.3494L7.98345 9.44972C7.73937 9.20565 7.34364 9.20565 7.09956 9.44972C6.85548 9.6938 6.85548 10.0895 7.09956 10.3336L8.44123 11.6753C8.68531 11.9194 9.08103 11.9194 9.32511 11.6753L12.9084 8.09194Z" fill="#1EBB4D"/>
</svg>
