<svg width="24" height="24" viewBox="0 0 24 24" fill="none" xmlns="http://www.w3.org/2000/svg">
<path fill-rule="evenodd" clip-rule="evenodd" d="M20.5 12C20.5 16.6716 16.6716 20.5 12 20.5C7.32843 20.5 3.5 16.6716 3.5 12C3.5 7.32843 7.32843 3.5 12 3.5C16.6716 3.5 20.5 7.32843 20.5 12ZM12 22C17.5 22 22 17.5 22 12C22 6.5 17.5 2 12 2C6.5 2 2 6.5 2 12C2 17.5 6.5 22 12 22ZM16.7799 9.70072C17.073 9.40809 17.0734 8.93321 16.7808 8.64006C16.4882 8.34691 16.0133 8.34649 15.7201 8.63912L10.5805 13.7697L8.28033 11.4696C7.98744 11.1767 7.51256 11.1767 7.21967 11.4696C6.92678 11.7625 6.92678 12.2374 7.21967 12.5303L10.0497 15.3603C10.3424 15.653 10.8169 15.6532 11.1099 15.3607L16.7799 9.70072Z" fill="currentColor"/>
</svg>
