<svg width="24" height="24" viewBox="0 0 24 24" fill="none" xmlns="http://www.w3.org/2000/svg">
<path fill-rule="evenodd" clip-rule="evenodd" d="M1.25 12C1.25 6.06579 6.06579 1.25 12 1.25C17.9342 1.25 22.75 6.06579 22.75 12C22.75 12.4142 22.4142 12.75 22 12.75C21.5858 12.75 21.25 12.4142 21.25 12C21.25 11.224 21.1543 10.4702 20.974 9.74983C20.9038 9.74735 20.8327 9.73488 20.7627 9.71149C19.5364 9.30203 18.2884 8.98088 17.028 8.74804C17.1493 9.82847 17.2102 10.9142 17.2102 12C17.2102 12.4142 16.8744 12.75 16.4602 12.75C16.046 12.75 15.7102 12.4142 15.7102 12C15.7102 10.8338 15.6361 9.66751 15.4886 8.50826C13.1713 8.21389 10.8254 8.21404 8.50814 8.50873C8.21356 10.8257 8.21343 13.1713 8.50777 15.4883C9.66719 15.6359 10.8337 15.71 12 15.71C12.4142 15.71 12.75 16.0458 12.75 16.46C12.75 16.8742 12.4142 17.21 12 17.21C10.914 17.21 9.82815 17.1491 8.74754 17.0277C8.98038 18.2881 9.30154 19.5362 9.711 20.7625C9.73407 20.8316 9.74668 20.9027 9.74916 20.9738C10.4698 21.1542 11.2238 21.25 12 21.25C12.4142 21.25 12.75 21.5858 12.75 22C12.75 22.4142 12.4142 22.75 12 22.75C6.06579 22.75 1.25 17.9342 1.25 12ZM8.74808 6.96937C10.908 6.72715 13.0886 6.72701 15.2486 6.96895C15.0159 5.70942 14.6956 4.46211 14.2884 3.2364C14.2653 3.16668 14.2529 3.09596 14.2505 3.02608C13.53 2.84575 12.7761 2.75 12 2.75C11.2238 2.75 10.4698 2.84579 9.74916 3.02617C9.74668 3.09726 9.73407 3.16844 9.711 3.23754C9.30185 4.46289 8.98088 5.70995 8.74808 6.96937ZM16.8099 7.18669C18 7.38559 19.1806 7.65882 20.3448 8.0064C19.4333 6.10679 17.8922 4.56585 15.9924 3.65465C16.3383 4.81778 16.611 5.99747 16.8099 7.18669ZM7.1867 7.18733C5.99775 7.3862 4.81822 7.65927 3.65515 8.00655C4.54059 6.16109 6.02031 4.65413 7.84579 3.73421C7.88861 3.74314 7.93278 3.74841 7.97794 3.74969C7.64393 4.88233 7.38018 6.03037 7.1867 7.18733ZM3.026 9.74985C3.09636 9.7474 3.16756 9.73492 3.23774 9.71149C4.46284 9.30242 5.70963 8.9815 6.96878 8.74871C6.72666 10.9083 6.72655 13.0887 6.96845 15.2483C5.7091 15.0156 4.46198 14.6954 3.23644 14.2882C3.16765 14.2654 3.09682 14.2529 3.02608 14.2505C2.84575 13.53 2.75 12.7761 2.75 12C2.75 11.224 2.84572 10.4702 3.026 9.74985ZM7.8458 20.2658C6.07357 19.3727 4.62722 17.9263 3.73415 16.1541C3.7432 16.1108 3.74852 16.066 3.74973 16.0203C4.88189 16.3529 6.02953 16.6162 7.18619 16.8096C7.37972 17.9676 7.64364 19.1167 7.97794 20.2503C7.93278 20.2516 7.88862 20.2569 7.8458 20.2658Z" fill="color2"/>
<path fill-rule="evenodd" clip-rule="evenodd" d="M15.5 17.75V19.9376C15.5 20.1839 15.5122 20.351 15.5274 20.4622C15.6687 20.4844 15.8858 20.5008 16.216 20.5L16.22 20.5L21.78 20.5C22.1127 20.5 22.3307 20.4828 22.4723 20.4599C22.4877 20.3487 22.5 20.1809 22.5 19.9329V17.75H15.5ZM22.5 16.25H15.5V16.0671C15.5 15.8191 15.5123 15.6513 15.5277 15.5401C15.6693 15.5172 15.8873 15.5 16.22 15.5H21.775C22.1104 15.5 22.3299 15.5174 22.4723 15.5405C22.4877 15.6516 22.5 15.8192 22.5 16.0671V16.25ZM15.9773 19C15.9773 18.5858 16.3131 18.25 16.7273 18.25H17.6364C18.0506 18.25 18.3864 18.5858 18.3864 19C18.3864 19.4142 18.0506 19.75 17.6364 19.75H16.7273C16.3131 19.75 15.9773 19.4142 15.9773 19ZM21.775 14H16.22C14.445 14 14 14.4144 14 16.0671V19.9376C14 21.5903 14.445 22.0047 16.22 22H21.78C23.555 22 24 21.5856 24 19.9329V16.0671C24 14.4144 23.555 14 21.775 14Z" fill="color1"/>
</svg>
