<svg width="20" height="20" viewBox="0 0 20 20" fill="none" xmlns="http://www.w3.org/2000/svg">
<path fill-rule="evenodd" clip-rule="evenodd" d="M5.36372 14.5831L5.36663 14.5831L13.3333 14.5831V14.3401C13.3333 13.9949 13.6131 13.7151 13.9583 13.7151C14.3035 13.7151 14.5833 13.9949 14.5833 14.3401V14.5831H14.6333C15.3424 14.5831 15.8511 14.5458 16.2211 14.474C16.5878 14.4027 16.7401 14.312 16.8031 14.2606C16.8785 14.1992 17.0833 13.9888 17.0833 12.8186V7.18101C17.0833 6.01082 16.8785 5.80117 16.803 5.73973C16.7395 5.68812 16.5864 5.5971 16.2182 5.52576C15.8468 5.45379 15.3363 5.4165 14.625 5.4165H14.5833V5.65956C14.5833 6.00474 14.3035 6.28456 13.9583 6.28456C13.6131 6.28456 13.3333 6.00474 13.3333 5.65956V5.4165H5.36663C4.6575 5.4165 4.14878 5.45378 3.77879 5.52565C3.4121 5.59687 3.25981 5.68766 3.1968 5.739C3.12138 5.80045 2.91663 6.01081 2.91663 7.18101V12.8255C2.91663 13.9962 3.12161 14.2055 3.19589 14.2659C3.2583 14.3166 3.41 14.407 3.77644 14.4775C4.14616 14.5486 4.6547 14.5848 5.36372 14.5831ZM5.36663 15.8331H13.9497L13.9583 15.8332L13.9669 15.8331H14.6333C17.5916 15.8331 18.3333 15.2288 18.3333 12.8186V7.18101C18.3333 4.77078 17.5916 4.1665 14.625 4.1665L13.9583 4.1665L5.36663 4.1665C2.40829 4.1665 1.66663 4.77078 1.66663 7.18101V12.8255C1.66663 15.2357 2.40829 15.84 5.36663 15.8331ZM13.9583 6.77067C14.3035 6.77067 14.5833 7.05049 14.5833 7.39567V9.13178C14.5833 9.47696 14.3035 9.75678 13.9583 9.75678C13.6131 9.75678 13.3333 9.47696 13.3333 9.13178V7.39567C13.3333 7.05049 13.6131 6.77067 13.9583 6.77067ZM13.9583 10.2429C14.3035 10.2429 14.5833 10.5227 14.5833 10.8679V12.604C14.5833 12.9492 14.3035 13.229 13.9583 13.229C13.6131 13.229 13.3333 12.9492 13.3333 12.604V10.8679C13.3333 10.5227 13.6131 10.2429 13.9583 10.2429ZM7.25918 12.4995C7.10026 12.4995 6.94135 12.4447 6.80892 12.3489C6.57054 12.1708 6.45136 11.8694 6.50433 11.5681L6.57138 11.1751C6.61657 10.9102 6.53127 10.6398 6.34226 10.4488L6.06731 10.1709C5.85542 9.95859 5.78259 9.64355 5.86867 9.35589C5.96137 9.06824 6.19974 8.85592 6.49109 8.81483L6.8516 8.75889C7.12326 8.71674 7.35665 8.54333 7.47541 8.29539L7.64322 7.94502C7.77565 7.67106 8.04051 7.49984 8.33185 7.49984C8.62982 7.49984 8.89468 7.67106 9.02049 7.94502L9.1883 8.29539C9.30705 8.54333 9.54045 8.71674 9.81211 8.75889L10.1726 8.81483C10.464 8.85592 10.7023 9.06824 10.795 9.35589C10.8877 9.64355 10.8083 9.95859 10.5964 10.1709L10.3214 10.4488C10.1324 10.6398 10.0471 10.9102 10.0923 11.1751L10.1594 11.5681C10.2124 11.8694 10.0932 12.1708 9.85479 12.3489C9.61642 12.5269 9.30521 12.5475 9.04697 12.4105L8.73336 12.2407C8.48686 12.1073 8.18979 12.1067 7.94277 12.2392L7.62336 12.4105C7.51079 12.4721 7.38498 12.4995 7.25918 12.4995ZM7.41809 10.1024C7.27821 9.96057 7.35995 9.71982 7.55714 9.69149C7.80876 9.65039 8.02727 9.48602 8.13983 9.25316C8.22134 9.07911 8.46886 9.07911 8.55036 9.25316C8.66293 9.48602 8.88144 9.65039 9.13305 9.69149C9.32557 9.71993 9.40422 9.95502 9.26757 10.0936L9.25886 10.1024C9.07346 10.2805 8.994 10.5408 9.03373 10.8079L9.03561 10.8192C9.06719 11.0098 8.86585 11.1533 8.69604 11.0613C8.47091 10.938 8.20605 10.938 7.98092 11.0613C7.81111 11.1533 7.60976 11.0098 7.64134 10.8192L7.64322 10.8079C7.68295 10.5476 7.60349 10.2873 7.41809 10.1024Z" fill="currentColor"/>
</svg>
