<svg width="24" height="24" viewBox="0 0 24 24" fill="none" xmlns="http://www.w3.org/2000/svg">
<path fill-rule="evenodd" clip-rule="evenodd" d="M9.4597 3.78456L9.29694 4.75376C9.85796 4.73791 10.419 4.72998 10.9801 4.72998C12.2228 4.72998 13.4668 4.75334 14.7106 4.79954L14.5399 3.79069C14.4562 3.27767 14.4033 3.09352 14.3062 2.98155C14.2524 2.9196 14.065 2.75 13.3101 2.75H10.6901C9.92402 2.75 9.74232 2.91488 9.69388 2.96981C9.60177 3.07427 9.54978 3.24976 9.4597 3.78456ZM7.98048 3.53579L7.76535 4.81674C6.83212 4.86712 5.89893 4.93943 4.96578 5.03367L2.92688 5.23356C2.51464 5.27397 2.21322 5.64092 2.25363 6.05316C2.29405 6.4654 2.661 6.76682 3.07323 6.7264L5.11323 6.5264L5.11543 6.52618C7.07051 6.3287 9.02535 6.22998 10.9801 6.22998C14.2947 6.22998 17.62 6.39869 20.9261 6.72632C21.3383 6.76717 21.7055 6.46614 21.7464 6.05394C21.7872 5.64175 21.4862 5.27448 21.074 5.23364C19.4674 5.07442 17.856 4.95217 16.2432 4.868L16.2412 4.85492L16.2396 4.84486L16.02 3.54711L16.0106 3.48891C15.9448 3.08006 15.8463 2.46776 15.4391 1.99845C14.9678 1.4554 14.2453 1.25 13.3101 1.25H10.6901C9.76621 1.25 9.04291 1.44012 8.56885 1.97769C8.16216 2.43887 8.06114 3.04899 7.99228 3.46487L7.98048 3.53579ZM19.5989 9.18835C19.6255 8.775 19.3121 8.41828 18.8987 8.3916C18.4854 8.36492 18.1287 8.67838 18.102 9.09173L17.4523 19.1576L17.4521 19.1597C17.4239 19.5624 17.4 19.8818 17.3439 20.1602C17.2893 20.4314 17.2135 20.6095 17.1156 20.7369C16.9468 20.9567 16.5299 21.25 15.2104 21.25H8.79042C7.47098 21.25 7.05404 20.9567 6.88522 20.7369C6.78732 20.6095 6.71151 20.4314 6.6569 20.1602C6.60084 19.8818 6.57695 19.5624 6.54873 19.1597L6.54858 19.1576L5.89886 9.09173C5.87218 8.67838 5.51546 8.36492 5.10211 8.3916C4.68875 8.41828 4.37529 8.775 4.40198 9.18835L5.05196 19.2584L5.05358 19.2815C5.07993 19.6577 5.1089 20.0714 5.18643 20.4564C5.26682 20.8556 5.40851 21.2768 5.69562 21.6506C6.29679 22.4333 7.31985 22.75 8.79042 22.75H15.2104C16.681 22.75 17.704 22.4333 18.3052 21.6506C18.5923 21.2768 18.734 20.8556 18.8144 20.4564C18.8919 20.0715 18.9209 19.6577 18.9473 19.2815V19.2815L18.9486 19.2625L19.5989 9.18835ZM9.58008 16.5C9.58008 16.0858 9.91586 15.75 10.3301 15.75H13.6601C14.0743 15.75 14.4101 16.0858 14.4101 16.5C14.4101 16.9142 14.0743 17.25 13.6601 17.25H10.3301C9.91586 17.25 9.58008 16.9142 9.58008 16.5ZM9.5 11.75C9.08579 11.75 8.75 12.0858 8.75 12.5C8.75 12.9142 9.08579 13.25 9.5 13.25H14.5C14.9142 13.25 15.25 12.9142 15.25 12.5C15.25 12.0858 14.9142 11.75 14.5 11.75H9.5Z" fill="currentColor"/>
</svg>
