<svg width="5" height="22" viewBox="0 0 5 22" fill="none" xmlns="http://www.w3.org/2000/svg">
<path opacity="0.3" d="M1.25 2C1.25 1.30964 1.80964 0.75 2.5 0.75C3.19036 0.75 3.75 1.30964 3.75 2C3.75 2.69036 3.19036 3.25 2.5 3.25C1.80964 3.25 1.25 2.69036 1.25 2Z" fill="#FFC709"/>
<path opacity="0.5" d="M1 6.75C1 5.92157 1.67157 5.25 2.5 5.25C3.32843 5.25 4 5.92157 4 6.75C4 7.57843 3.32843 8.25 2.5 8.25C1.67157 8.25 1 7.57843 1 6.75Z" fill="#FFC709"/>
<path opacity="0.7" d="M0.5 12.25C0.5 11.1454 1.39543 10.25 2.5 10.25C3.60457 10.25 4.5 11.1454 4.5 12.25C4.5 13.3546 3.60457 14.25 2.5 14.25C1.39543 14.25 0.5 13.3546 0.5 12.25Z" fill="#FFC709"/>
<path d="M0 18.75C0 17.3693 1.11929 16.25 2.5 16.25C3.88071 16.25 5 17.3693 5 18.75C5 20.1307 3.88071 21.25 2.5 21.25C1.11929 21.25 0 20.1307 0 18.75Z" fill="#FFC709"/>
</svg>
