<svg width="56" height="56" viewBox="0 0 56 56" fill="none" xmlns="http://www.w3.org/2000/svg">
<path fill-rule="evenodd" clip-rule="evenodd" d="M23.4092 27.6746C22.459 28.872 21.9384 30.3033 21.8291 31.1848L21.827 31.2015C21.2494 35.2779 23.2763 38.5041 24.7244 39.9638C25.0953 40.3377 25.0953 40.944 24.7244 41.3179C24.3534 41.6918 23.752 41.6918 23.3811 41.3179C21.6641 39.587 19.2603 35.7949 19.9452 30.9387C20.1017 29.6929 20.768 27.9373 21.9258 26.4784C23.0992 24.9999 24.8646 23.7253 27.2187 23.7253C28.8913 23.7253 30.5001 24.1775 31.9078 25.3379C33.3 26.4856 34.4159 28.2605 35.2435 30.7632C35.4093 31.2649 35.1404 31.8072 34.6427 31.9744C34.1451 32.1416 33.6072 31.8705 33.4413 31.3688C32.6858 29.0841 31.7327 27.6674 30.7052 26.8203C29.6932 25.986 28.5316 25.6403 27.2187 25.6403C25.6153 25.6403 24.3466 26.4934 23.4092 27.6746Z" fill="currentColor"/>
<path fill-rule="evenodd" clip-rule="evenodd" d="M35.4647 17.541C28.7331 13.7711 22.7873 16.0459 20.6224 17.5006C20.1859 17.7939 19.5962 17.675 19.3052 17.235C19.0143 16.795 19.1323 16.2005 19.5687 15.9072C22.153 14.1706 28.8714 11.6579 36.3872 15.8671C36.8458 16.1239 37.011 16.7068 36.7562 17.1691C36.5015 17.6313 35.9232 17.7979 35.4647 17.541Z" fill="currentColor"/>
<path fill-rule="evenodd" clip-rule="evenodd" d="M28.011 31.7043C28.5355 31.7043 28.9608 32.133 28.9608 32.6618C28.9608 35.2539 31.6286 38.0876 35.1346 38.0876C35.6592 38.0876 36.0844 38.5162 36.0844 39.0451C36.0844 39.5739 35.6592 40.0025 35.1346 40.0025C30.7255 40.0025 27.0611 36.453 27.0611 32.6618C27.0611 32.133 27.4864 31.7043 28.011 31.7043Z" fill="currentColor"/>
<path fill-rule="evenodd" clip-rule="evenodd" d="M21.9608 20.367C20.2915 21.2555 19.2529 22.497 18.5113 23.6183C18.2204 24.0583 17.6306 24.1772 17.1942 23.8839C16.7577 23.5905 16.6398 22.9961 16.9307 22.5561C17.7722 21.2837 19.0251 19.7641 21.0739 18.6736C23.1263 17.5812 25.8922 16.9645 29.6883 17.3472C32.4155 17.6221 38.1347 19.0104 40.7352 24.3192C40.9675 24.7933 40.7745 25.3675 40.3041 25.6016C39.8338 25.8358 39.2642 25.6412 39.0319 25.1671C36.8834 20.781 32.049 19.5097 29.4993 19.2526C26.0055 18.9004 23.6266 19.4805 21.9608 20.367Z" fill="currentColor"/>
<path fill-rule="evenodd" clip-rule="evenodd" d="M36.5299 28.2618C34.2105 23.0567 29.3361 22.2484 27.232 22.4841C27.1971 22.488 27.1621 22.4899 27.1271 22.4899C24.8802 22.4899 23.1208 23.4277 21.8114 24.6332C20.4955 25.8445 19.6674 27.2991 19.3157 28.2356C18.1407 31.8065 18.8427 35.179 19.3022 36.337C19.497 36.828 19.2601 37.3852 18.773 37.5816C18.286 37.778 17.7332 37.5392 17.5384 37.0482C16.9433 35.5484 16.1692 31.6955 17.5192 27.6129C17.5229 27.6017 17.5268 27.5905 17.5309 27.5795C17.9743 26.3876 18.9647 24.6604 20.5303 23.2191C22.1003 21.7738 24.2812 20.5896 27.0752 20.5751C29.7392 20.2987 35.5491 21.3219 38.2848 27.5268C38.2972 27.5549 38.3082 27.5837 38.3179 27.6129C38.6066 28.4861 38.9102 29.8742 38.8809 31.2475C38.8525 32.5808 38.4981 34.1909 37.1522 35.0954C36.7288 35.38 35.9689 35.8451 35.0569 35.9983C34.0861 36.1613 32.974 35.9617 31.9961 34.9758C31.6508 34.6278 30.9078 33.6894 30.2351 32.3333C30.1238 32.1088 29.9952 31.8267 29.8717 31.5556C29.7836 31.3623 29.6981 31.1746 29.6231 31.0173C29.4165 30.5838 29.2072 30.1926 28.9672 29.8615C28.5116 29.233 27.984 28.8589 27.1427 28.8729C26.6676 28.8808 26.3444 29.0726 26.0829 29.4124C25.7942 29.7874 25.5773 30.3574 25.4533 31.0669C25.2018 32.5062 25.3977 34.1104 25.6408 34.7576C26.0742 35.9115 26.6174 37.1666 27.5697 38.2296C28.5018 39.2701 29.868 40.1718 32.0323 40.5354C32.5498 40.6224 32.8993 41.1157 32.8131 41.6373C32.7268 42.1589 32.2375 42.5113 31.72 42.4243C29.1353 41.9901 27.3814 40.8766 26.1599 39.5131C24.9586 38.1722 24.3145 36.6346 23.8642 35.4357C23.4813 34.4163 23.2817 32.4562 23.5825 30.7347C23.7347 29.8638 24.031 28.9543 24.5821 28.2384C25.1604 27.4871 26.0037 26.9766 27.1114 26.9582C28.7368 26.9312 29.7923 27.754 30.5009 28.7316C30.843 29.2035 31.1112 29.7176 31.3354 30.1881C31.4497 30.428 31.5417 30.6312 31.6273 30.8204C31.7295 31.0461 31.8227 31.252 31.9342 31.4769C32.528 32.674 33.1569 33.4378 33.3393 33.6217C33.8311 34.1174 34.302 34.1837 34.7447 34.1094C35.2462 34.0251 35.7303 33.7495 36.0984 33.5021C36.6521 33.13 36.9574 32.3464 36.9817 31.2063C37.0047 30.1279 36.7644 28.987 36.5299 28.2618Z" fill="currentColor"/>
<path fill-rule="evenodd" clip-rule="evenodd" d="M35.2446 9.78495C35.2446 9.21336 35.708 8.75 36.2795 8.75H41.2473C44.5625 8.75 47.25 11.4375 47.25 14.7527V19.7204C47.25 20.292 46.7866 20.7554 46.215 20.7554C45.6434 20.7554 45.1801 20.292 45.1801 19.7204V14.7527C45.1801 12.5807 43.4193 10.8199 41.2473 10.8199H36.2795C35.708 10.8199 35.2446 10.3565 35.2446 9.78495Z" fill="currentColor"/>
<path fill-rule="evenodd" clip-rule="evenodd" d="M20.7554 46.2151C20.7554 46.7866 20.292 47.25 19.7205 47.25H14.7527C11.4375 47.25 8.75003 44.5625 8.75003 41.2473L8.75003 36.2796C8.75003 35.708 9.21339 35.2446 9.78497 35.2446C10.3566 35.2446 10.8199 35.708 10.8199 36.2796L10.8199 41.2473C10.8199 43.4193 12.5807 45.1801 14.7527 45.1801L19.7205 45.1801C20.292 45.1801 20.7554 45.6435 20.7554 46.2151Z" fill="currentColor"/>
<path fill-rule="evenodd" clip-rule="evenodd" d="M9.78495 20.7554C9.21336 20.7554 8.75 20.292 8.75 19.7205L8.75 14.7527C8.75 11.4375 11.4375 8.75003 14.7527 8.75003L19.7204 8.75003C20.292 8.75003 20.7554 9.21339 20.7554 9.78497C20.7554 10.3566 20.292 10.8199 19.7204 10.8199L14.7527 10.8199C12.5807 10.8199 10.8199 12.5807 10.8199 14.7527L10.8199 19.7205C10.8199 20.292 10.3565 20.7554 9.78495 20.7554Z" fill="currentColor"/>
<path fill-rule="evenodd" clip-rule="evenodd" d="M46.2151 35.2446C46.7866 35.2446 47.25 35.708 47.25 36.2795V41.2473C47.25 44.5625 44.5625 47.25 41.2473 47.25H36.2796C35.708 47.25 35.2446 46.7866 35.2446 46.215C35.2446 45.6434 35.708 45.1801 36.2796 45.1801H41.2473C43.4193 45.1801 45.1801 43.4193 45.1801 41.2473V36.2795C45.1801 35.708 45.6435 35.2446 46.2151 35.2446Z" fill="currentColor"/>
</svg>
