<svg width="25" height="24" viewBox="0 0 25 24" fill="none" xmlns="http://www.w3.org/2000/svg">
<path d="M12.5 2C9.88 2 7.75 4.13 7.75 6.75C7.75 9.32 9.76 11.4 12.38 11.49C12.46 11.48 12.54 11.48 12.6 11.49C12.62 11.49 12.63 11.49 12.65 11.49C12.66 11.49 12.66 11.49 12.67 11.49C15.23 11.4 17.24 9.32 17.25 6.75C17.25 4.13 15.12 2 12.5 2Z" fill="currentColor"/>
<path d="M17.58 14.1596C14.79 12.2996 10.24 12.2996 7.43 14.1596C6.16 14.9996 5.46 16.1496 5.46 17.3796C5.46 18.6096 6.16 19.7496 7.42 20.5896C8.82 21.5296 10.66 21.9996 12.5 21.9996C14.34 21.9996 16.18 21.5296 17.58 20.5896C18.84 19.7396 19.54 18.5996 19.54 17.3596C19.53 16.1396 18.84 14.9896 17.58 14.1596ZM14.83 16.5596L12.31 19.0796C12.19 19.1996 12.03 19.2596 11.87 19.2596C11.71 19.2596 11.55 19.1896 11.43 19.0796L10.17 17.8196C9.93 17.5796 9.93 17.1796 10.17 16.9396C10.41 16.6996 10.81 16.6996 11.05 16.9396L11.87 17.7596L13.95 15.6796C14.19 15.4396 14.59 15.4396 14.83 15.6796C15.08 15.9196 15.08 16.3196 14.83 16.5596Z" fill="currentColor"/>
</svg>
