<svg width="18" height="18" viewBox="0 0 18 18" fill="none" xmlns="http://www.w3.org/2000/svg">
<path fill-rule="evenodd" clip-rule="evenodd" d="M0.666748 11.3255C0.666748 15.5348 2.4652 17.3333 6.6745 17.3333H11.3257C15.535 17.3333 17.3334 15.5348 17.3334 11.3255V6.67438C17.3334 2.46508 15.535 0.666626 11.3257 0.666626H6.6745C2.4652 0.666626 0.666748 2.46508 0.666748 6.67438V11.3255ZM8.96163 11.7154C8.97436 11.7162 8.98718 11.7166 9.00008 11.7166C9.02724 11.7166 9.05403 11.7149 9.08034 11.7115C9.14844 11.7029 9.21548 11.683 9.27876 11.6513C9.34927 11.6162 9.41236 11.5682 9.46476 11.5102L11.9417 9.03325C12.1834 8.79158 12.1834 8.39159 11.9417 8.14992C11.7 7.90825 11.3 7.90825 11.0584 8.14992L9.62508 9.5832V4.42497C9.62508 4.0833 9.34175 3.79997 9.00008 3.79997C8.65842 3.79997 8.37508 4.0833 8.37508 4.42497V9.5833L6.9417 8.14992C6.70003 7.90825 6.30003 7.90825 6.05837 8.14992C5.8167 8.39159 5.8167 8.79158 6.05837 9.03325L8.55837 11.5333C8.67326 11.6481 8.8163 11.7067 8.96163 11.7154ZM9.00004 14.1917C7.2417 14.1917 5.47504 13.9083 3.80004 13.35C3.47504 13.2417 3.30004 12.8833 3.40837 12.5583C3.5167 12.2333 3.8667 12.05 4.20003 12.1667C7.30003 13.2 10.7084 13.2 13.8084 12.1667C14.1334 12.0583 14.4917 12.2333 14.6 12.5583C14.7084 12.8833 14.5334 13.2417 14.2084 13.35C12.525 13.9167 10.7584 14.1917 9.00004 14.1917Z" fill="color1"/>
</svg>
