<svg width="33" height="32" viewBox="0 0 33 32" fill="none" xmlns="http://www.w3.org/2000/svg">
<path fill-rule="evenodd" clip-rule="evenodd" d="M15.9383 4C11.1291 4 7.17699 7.58775 6.6171 12.2104C4.60293 13.0045 3.16699 14.9464 3.16699 17.2397C3.16699 20.2368 5.61409 22.6667 8.63239 22.6667H12.0044C12.5398 22.6667 12.9738 22.2357 12.9738 21.704C12.9738 21.1724 12.5398 20.7414 12.0044 20.7414H8.63239C6.68491 20.7414 5.10588 19.1735 5.10588 17.2397C5.10588 15.6114 6.23545 14.2458 7.76695 13.8602C8.18012 13.7561 8.47637 13.3963 8.49695 12.9736C8.68801 9.04873 11.9429 5.92526 15.9383 5.92526C19.8892 5.92526 23.1171 8.9788 23.3728 12.8418C23.4065 13.3505 23.8337 13.7449 24.3471 13.7412C26.3226 13.7272 27.8948 15.3145 27.8948 17.2397C27.8948 19.1735 26.3157 20.7414 24.3683 20.7414H20.9963C20.4609 20.7414 20.0268 21.1724 20.0268 21.704C20.0268 22.2357 20.4609 22.6667 20.9963 22.6667H24.3683C27.3866 22.6667 29.8337 20.2368 29.8337 17.2397C29.8337 14.5524 27.8532 12.2822 25.2142 11.8794C24.5107 7.41668 20.6318 4 15.9383 4Z" fill="currentColor"/>
<path d="M16.4988 11.5222C16.7568 11.5222 16.992 11.62 17.1694 11.7804C17.1818 11.7917 17.194 11.8032 17.2059 11.8151L20.6841 15.2934C21.0747 15.6839 21.0747 16.3171 20.6841 16.7076C20.2936 17.0981 19.6604 17.0981 19.2699 16.7076L17.4988 14.9364V27.5947C17.4988 28.147 17.051 28.5947 16.4988 28.5947C15.9465 28.5947 15.4988 28.147 15.4988 27.5947V14.9364L13.7276 16.7076C13.3371 17.0981 12.7039 17.0981 12.3134 16.7076C11.9229 16.3171 11.9229 15.6839 12.3134 15.2934L15.7891 11.8177C15.9703 11.6352 16.2213 11.5222 16.4988 11.5222Z" fill="currentColor"/>
</svg>
