<svg width="33" height="32" viewBox="0 0 33 32" fill="none" xmlns="http://www.w3.org/2000/svg">
<path fill-rule="evenodd" clip-rule="evenodd" d="M22.0833 13.3415C22.067 16.2239 19.8069 18.569 16.9451 18.6667C16.8313 18.6504 16.6849 18.6504 16.5548 18.6667C13.693 18.569 11.4166 16.2239 11.4166 13.3415C11.4166 10.3939 13.7906 8 16.75 8C19.693 8 22.0833 10.3939 22.0833 13.3415ZM13.4166 13.3415C13.4166 15.1088 14.781 16.5473 16.5146 16.6624C16.6676 16.6523 16.8285 16.6514 16.9896 16.6621C18.7096 16.5453 20.0704 15.1173 20.0833 13.3359C20.0803 11.4925 18.5837 10 16.75 10C14.902 10 13.4166 11.4916 13.4166 13.3415Z" fill="color1"/>
<path fill-rule="evenodd" clip-rule="evenodd" d="M23.3764 22.4001C24.8031 23.3601 25.6031 24.5867 25.7364 25.8401C23.3631 28.0134 20.2164 29.3334 16.7497 29.3334C13.2831 29.3334 10.1364 28.0134 7.76306 25.8401C7.89639 24.5867 8.69639 23.3601 10.1231 22.4001C13.7764 19.9734 19.7497 19.9734 23.3764 22.4001ZM16.7496 27.3334C14.2563 27.3334 11.9616 26.5323 10.0912 25.1658C10.3204 24.8143 10.6829 24.4347 11.2346 24.0627C12.6647 23.1146 14.6617 22.5801 16.7596 22.5801C18.8595 22.5801 20.8478 23.1155 22.2618 24.0608C22.8151 24.4334 23.1784 24.8137 23.408 25.1658C21.5376 26.5323 19.2428 27.3334 16.7496 27.3334Z" fill="color2"/>
<path fill-rule="evenodd" clip-rule="evenodd" d="M16.75 27.3333C23.0092 27.3333 28.0833 22.2592 28.0833 16C28.0833 9.74076 23.0092 4.66666 16.75 4.66666C10.4907 4.66666 5.41663 9.74076 5.41663 16C5.41663 22.2592 10.4907 27.3333 16.75 27.3333ZM30.0833 16C30.0833 23.3638 24.1138 29.3333 16.75 29.3333C9.38616 29.3333 3.41663 23.3638 3.41663 16C3.41663 8.63619 9.38616 2.66666 16.75 2.66666C24.1138 2.66666 30.0833 8.63619 30.0833 16Z" fill="color2"/>
</svg>
