<svg width="343" height="218" viewBox="0 0 343 218" fill="none" xmlns="http://www.w3.org/2000/svg">
<rect width="343" height="218" fill="#F8F8FC"/>
<g clip-path="url(#clip0_2305_2070)">
<path d="M97.1231 170.875C97.1177 171.207 97.0143 171.53 96.8259 171.804C96.6376 172.077 96.3727 172.289 96.0644 172.413C95.7561 172.536 95.4182 172.566 95.093 172.499C94.7678 172.431 94.4698 172.269 94.2364 172.033C94.0029 171.796 93.8444 171.496 93.7808 171.17C93.7171 170.844 93.7511 170.507 93.8785 170.2C94.0059 169.893 94.221 169.631 94.4969 169.446C94.7728 169.261 95.0971 169.162 95.4293 169.16C95.654 169.158 95.8768 169.202 96.0845 169.287C96.2923 169.373 96.4807 169.5 96.6386 169.659C96.7965 169.819 96.9208 170.009 97.004 170.218C97.0872 170.427 97.1277 170.65 97.1231 170.875Z" fill="url(#paint0_radial_2305_2070)"/>
<path d="M101.569 137.731C102.5 137.731 103.256 136.976 103.256 136.044C103.256 135.113 102.5 134.357 101.569 134.357C100.637 134.357 99.8818 135.113 99.8818 136.044C99.8818 136.976 100.637 137.731 101.569 137.731Z" fill="url(#paint1_radial_2305_2070)"/>
<path d="M166.107 20.0692C165.647 20.0215 165.186 19.9984 164.724 20.0001H103.988C96.3074 20.0001 88.9791 26.2223 87.624 33.9102L62.2443 177.719C61.9612 179.368 61.9239 181.051 62.1337 182.711C62.1337 182.711 64.1594 197.492 78.429 197.361H139.192C146.873 197.361 154.202 191.138 155.557 183.444L180.916 39.6415C181.004 39.1196 181.067 38.5935 181.102 38.0652C184.027 20.968 166.107 20.0692 166.107 20.0692Z" fill="url(#paint2_linear_2305_2070)"/>
<path d="M134.664 190.419H74.6268C67.0218 190.419 61.9611 184.259 63.2954 176.661L88.364 34.5256C89.6983 26.9206 96.9437 20.7676 104.542 20.7676H164.565C172.17 20.7676 177.231 26.9276 175.897 34.5256L150.842 176.661C149.508 184.259 142.262 190.419 134.664 190.419Z" fill="white"/>
<path d="M173.166 34.7949L148.228 176.239C147.101 182.641 140.997 187.833 134.595 187.833H75.6083C69.2063 187.833 64.9338 182.641 66.0607 176.239L91.0048 34.7949C92.1594 28.2339 98.423 22.9243 104.991 22.9243H109.713C110.319 22.9003 110.914 23.0974 111.385 23.479C111.857 23.8605 112.174 24.4005 112.278 24.9984L113.17 29.6927C113.277 30.2193 113.569 30.6905 113.992 31.0223C114.415 31.354 114.942 31.5248 115.479 31.504H149.839C150.454 31.4824 151.053 31.2991 151.575 30.9726C152.097 30.6462 152.523 30.188 152.812 29.6443L155.349 24.9569C155.666 24.3516 156.137 23.8408 156.715 23.4765C157.293 23.1123 157.957 22.9074 158.64 22.8828H163.362C169.944 22.9243 174.327 28.2339 173.166 34.7949Z" fill="url(#paint3_linear_2305_2070)"/>
<path d="M141.75 28.1233H122.426C122.26 28.1286 122.095 28.0957 121.944 28.0272C121.793 27.9586 121.659 27.8563 121.554 27.7281C121.448 27.5999 121.374 27.4492 121.336 27.2876C121.298 27.126 121.297 26.9578 121.334 26.7959C121.41 26.4329 121.604 26.1056 121.888 25.8662C122.171 25.6269 122.526 25.4893 122.897 25.4754H142.192C142.358 25.469 142.523 25.5009 142.674 25.5686C142.825 25.6363 142.959 25.7379 143.065 25.8657C143.17 25.9934 143.245 26.1438 143.283 26.3051C143.322 26.4664 143.322 26.6344 143.285 26.7959C143.213 27.1563 143.023 27.4825 142.745 27.723C142.467 27.9634 142.117 28.1042 141.75 28.1233Z" fill="url(#paint4_linear_2305_2070)"/>
<path d="M148.007 26.7959C147.935 27.1602 147.743 27.4896 147.46 27.7306C147.178 27.9716 146.822 28.11 146.451 28.1233C146.285 28.13 146.119 28.098 145.967 28.0299C145.815 27.9619 145.681 27.8595 145.575 27.731C145.47 27.6024 145.395 27.4511 145.357 27.2888C145.32 27.1266 145.32 26.9579 145.359 26.7959C145.433 26.4334 145.626 26.1063 145.908 25.8669C146.191 25.6274 146.545 25.4896 146.914 25.4754C147.08 25.469 147.245 25.5009 147.396 25.5686C147.548 25.6363 147.681 25.7379 147.787 25.8657C147.893 25.9934 147.967 26.1438 148.006 26.3051C148.044 26.4664 148.044 26.6344 148.007 26.7959Z" fill="url(#paint5_linear_2305_2070)"/>
<path d="M175.744 54.2771L175.779 54.0835H175.032C174.591 54.0985 174.167 54.2625 173.831 54.5487C173.494 54.8349 173.265 55.2265 173.179 55.6598L169.681 75.5017C169.55 76.2553 169.57 77.6864 171.064 77.88H171.893L171.727 77.078L171.762 76.8844C172.037 76.7546 172.279 76.5619 172.466 76.3217C172.653 76.0815 172.782 75.8006 172.84 75.5017L176.318 55.6598C176.38 55.3982 176.357 55.1239 176.254 54.8757C176.151 54.6275 175.973 54.4181 175.744 54.2771Z" fill="url(#paint6_linear_2305_2070)"/>
<path d="M171.769 77.8592C170.428 77.6656 170.269 76.3728 170.421 75.5017L173.919 55.6598C174.007 55.2265 174.239 54.8354 174.576 54.5495C174.913 54.2636 175.337 54.0994 175.779 54.0835C176.65 54.0835 177.279 55.5699 177.127 56.441L173.622 76.2829C173.47 77.154 172.682 78.0252 171.769 77.8592Z" fill="#FDFBF9"/>
<path fill-rule="evenodd" clip-rule="evenodd" d="M112.272 111.336L112.488 110.044C112.797 108.19 113.286 106.865 114.045 106.015C114.7 105.28 115.821 104.617 118.108 104.617C120.395 104.617 121.295 105.28 121.705 106.015C122.18 106.865 122.227 108.19 121.918 110.044L121.703 111.336H112.272ZM110.696 111.362L110.916 110.044C111.558 106.195 113.127 103.067 118.367 103.067C123.606 103.067 124.132 106.195 123.49 110.044L123.27 111.362C126.561 111.545 126.184 112.738 125.555 116.503L125.211 118.57C124.521 122.705 124.349 123.738 120.158 123.738H109.679C105.488 123.738 105.661 122.705 106.351 118.57L106.695 116.503C107.323 112.738 107.343 111.545 110.696 111.362ZM116.121 116.503C115.542 116.503 114.996 116.966 114.9 117.537C114.805 118.108 115.197 118.57 115.776 118.57H115.785C116.364 118.57 116.91 118.108 117.006 117.537C117.101 116.966 116.709 116.503 116.13 116.503H116.121Z" fill="url(#paint7_linear_2305_2070)"/>
<circle cx="12.6671" cy="12.6671" r="12.8078" transform="matrix(1 0 -0.180862 0.983508 114.55 55.3054)" fill="url(#paint8_linear_2305_2070)" stroke="url(#paint9_linear_2305_2070)" stroke-width="0.281491"/>
<g filter="url(#filter0_d_2305_2070)">
<path fill-rule="evenodd" clip-rule="evenodd" d="M131.732 63.6004C132.052 63.9821 131.939 64.6009 131.478 64.9825L122.826 72.1492C122.366 72.5308 121.732 72.5308 121.412 72.1492L118.678 68.8916C118.357 68.5099 118.471 67.8912 118.932 67.5095C119.393 67.1279 120.026 67.1279 120.346 67.5095L122.5 70.0761L130.318 63.6004C130.778 63.2188 131.412 63.2188 131.732 63.6004Z" fill="white"/>
</g>
<circle cx="3.37789" cy="3.37789" r="3.37789" transform="matrix(1 0 -0.180862 0.983508 100.709 58.6277)" fill="url(#paint10_linear_2305_2070)"/>
<circle cx="1.12596" cy="1.12596" r="1.12596" transform="matrix(1 0 -0.180862 0.983508 137.914 55.3054)" fill="#FFD855"/>
<circle cx="3.94087" cy="3.94087" r="3.94087" transform="matrix(1 0 -0.180862 0.983508 145.425 67)" fill="url(#paint11_linear_2305_2070)"/>
<circle cx="1.82969" cy="1.82969" r="1.82969" transform="matrix(1 0 -0.180862 0.983508 105.495 76)" fill="url(#paint12_linear_2305_2070)"/>
<circle cx="0.844473" cy="0.844473" r="0.844473" transform="matrix(1 0 -0.180862 0.983508 100.306 81.26)" fill="url(#paint13_linear_2305_2070)"/>
<circle cx="1.97044" cy="1.97044" r="1.97044" transform="matrix(1 0 -0.180862 0.983508 111.576 50.0454)" fill="url(#paint14_linear_2305_2070)"/>
<circle cx="1.97044" cy="1.97044" r="1.97044" transform="matrix(1 0 -0.180862 0.983508 145.867 50.3223)" fill="url(#paint15_linear_2305_2070)"/>
<circle cx="2.25193" cy="2.25193" r="2.25193" transform="matrix(1 0 -0.180862 0.983508 134.092 47)" fill="url(#paint16_linear_2305_2070)"/>
<circle cx="2.39267" cy="2.39267" r="2.39267" transform="matrix(1 0 -0.180862 0.983508 122.866 84)" fill="url(#paint17_linear_2305_2070)"/>
<circle cx="1.12596" cy="1.12596" r="1.12596" transform="matrix(1 0 -0.180862 0.983508 112.453 57.5203)" fill="url(#paint18_linear_2305_2070)"/>
<path fill-rule="evenodd" clip-rule="evenodd" d="M183.425 188.812L182.564 220.774L209.22 221.964L210.037 203.644L211.087 203.691L214.378 222.198L239.814 223.333L236.071 184.335L183.425 188.812Z" fill="url(#paint19_linear_2305_2070)"/>
<path d="M212.567 98.1874L217.291 119.101L218.777 123.998C218.777 123.998 215.787 127.194 209.232 128.009C204.747 128.57 201.77 128.415 199.832 128.092C198.234 127.796 196.309 127.306 197.561 124.473C199.352 120.258 199.063 117.469 199.063 117.469L197.453 105.571L212.567 98.1874Z" fill="#F2C6B4"/>
<path d="M211.687 110.242C209.303 113.336 206.742 114.7 204.537 115.561C201.45 116.782 199.3 116.955 199.3 116.955L197.428 106.106L212.546 97.875L213.207 100.386L214.086 104.461C214.08 104.547 213.887 107.306 211.687 110.242Z" fill="url(#paint20_linear_2305_2070)"/>
<path d="M208.209 93.2996C208.209 93.2996 203.93 87.4241 201.014 85.9983C195.432 83.0818 189.796 82.8843 189.796 82.8843L190.929 79.9967L205.396 80.3931L210.36 89.9831L208.209 93.2996Z" fill="url(#paint21_linear_2305_2070)"/>
<path fill-rule="evenodd" clip-rule="evenodd" d="M193.766 76.325C193.766 76.325 190.968 80.0529 190.392 81.8568C189.836 83.4101 189.623 84.9908 189.549 85.91C189.268 89.4195 189.128 94.3702 189.335 97.162C189.808 101.994 191.891 105.02 194.563 106.076C197.236 107.132 202.342 105.776 205.815 104.373C208.754 103.18 210.501 101.806 211.07 100.086C211.222 99.611 211.406 99.104 211.595 98.6145C212.076 98.902 212.617 99.083 213.196 99.1295C215.515 99.3158 218.384 95.9296 218.602 93.2235C218.819 90.5175 216.303 89.5165 213.983 89.3301C213.487 89.2902 213.002 89.3525 212.545 89.5017L207.465 76.3323L193.766 76.325Z" fill="url(#paint22_linear_2305_2070)"/>
<path d="M213.708 96.644C212.935 96.5819 212.359 95.9048 212.421 95.1316C212.483 94.3585 213.972 92.4384 214.746 92.5005C215.519 92.5626 215.283 94.5834 215.221 95.3566C215.159 96.1297 214.481 96.7061 213.708 96.644Z" fill="url(#paint23_linear_2305_2070)"/>
<path d="M199.451 91.9556C198.796 91.903 198.307 91.3418 198.359 90.7022C198.41 90.0626 198.982 89.5868 199.637 89.6394C200.292 89.692 200.781 90.2531 200.73 90.8927C200.678 91.5323 200.106 92.0082 199.451 91.9556Z" fill="#4F2B23"/>
<path d="M190.696 90.5877C190.042 90.5351 189.553 89.9739 189.604 89.3343C189.655 88.6947 190.228 88.2188 190.883 88.2714C191.537 88.3241 192.026 88.8852 191.975 89.5248C191.924 90.1644 191.351 90.6403 190.696 90.5877Z" fill="#4F2B23"/>
<path d="M193.614 97.6776C193.874 97.6985 194.149 97.5503 194.263 97.2191C194.377 96.8879 194.143 96.5287 193.796 96.5008C193.796 96.5008 192.855 96.255 192.829 95.4871C192.803 94.7191 193.754 92.6681 194.277 91.6038C194.478 91.2796 194.331 90.9274 193.991 90.815C193.657 90.6179 193.296 90.7591 193.182 91.0904C192.981 91.4146 191.622 94.1987 191.6 95.5585C191.586 96.7446 192.575 97.5941 193.614 97.6776Z" fill="#B4603F"/>
<path d="M205.495 81.4333C205.495 81.4333 205.425 84.4205 206.906 87.1997C208.388 89.979 208.557 89.9926 208.399 90.8944L208.237 95.038C208.229 96.2012 209.421 96.2138 209.844 96.2478C209.929 96.2546 210.84 92.3375 210.84 92.3375C210.84 92.3375 211.411 89.4737 215.117 90.0209C217.814 90.4038 218.618 93.1286 218.618 93.1286C218.618 93.1286 221.058 86.0922 221.784 84.4878C222.941 81.7543 221.549 79.9798 220.281 78.7972C219.005 77.6971 217.644 77.6708 217.644 77.6708C217.644 77.6708 218.568 73.5885 214.083 71.0667C211.883 69.8092 210 69.9073 208.144 69.6751C206.287 69.4428 204.529 69.0521 203.005 68.9296C199.265 68.7955 197.999 70.772 197.999 70.772C197.999 70.772 190.961 67.1307 187.692 70.6921C184.43 74.171 187.374 78.8967 191.43 80.3865C194.399 81.6226 198.776 82.3068 205.495 81.4333Z" fill="url(#paint24_linear_2305_2070)"/>
<path d="M196.007 100.773C199.281 100.877 200.825 98.858 201.263 97.7027C201.374 97.3941 201.228 97.0649 200.891 96.9585C200.554 96.852 200.198 96.9822 200.087 97.2907C200.081 97.3696 199.204 99.6803 196.102 99.5898C195.759 99.5622 195.476 99.857 195.457 100.094C195.426 100.488 195.664 100.745 196.007 100.773Z" fill="#CF7653"/>
<path d="M202.958 88.4758C203.492 88.1486 203.635 87.4198 203.412 87.0318C203.336 86.9331 202.159 84.7102 199.106 84.7426C198.77 84.7156 198.166 84.8521 198.092 85.7715C198.048 86.3232 198.362 86.626 198.699 86.6531C200.986 86.6518 201.787 88.2892 201.863 88.3879C202.101 88.5921 202.599 88.7246 202.958 88.4758ZM190.234 85.5103C190.318 85.5171 190.487 85.5306 190.578 85.4454C191.296 84.9479 192.276 85.3968 192.361 85.4036C192.69 85.5226 193.041 85.3657 193.148 85.0967C193.459 84.3814 193.075 83.8879 192.83 83.7757C192.746 83.7689 191.275 83.0956 190.023 83.9203C189.756 84.0839 189.459 84.6152 189.828 85.2926C189.821 85.3846 190.066 85.4968 190.234 85.5103Z" fill="#4F2B23"/>
<path d="M168.144 136.833C171.681 119.903 186.337 111.318 193.223 109.142C194.989 110.379 199.909 112.917 205.461 113.165C211.013 113.412 217.551 109.399 220.125 107.362C220.786 107.391 223.172 108.094 227.428 110.668C235.205 114.492 234.798 112.487 241.748 123.725C248.697 134.963 250.787 154.925 248.538 160.785C246.74 165.474 240.899 168.723 238.203 169.762C238.702 173.427 239.84 182.055 240.404 187.246C228.262 192.168 184.571 191.709 177.741 188.92C177.054 186.505 178.104 173.372 178.715 167.108C176.717 167.35 172.235 167.613 170.287 166.732C166.906 164.594 163.723 157.994 168.144 136.833Z" fill="url(#paint25_linear_2305_2070)"/>
<path d="M224.957 145.825C223.048 126.268 231.659 117.148 236.202 115.53C243.329 122.802 246.719 135.868 247.556 139.382C248.393 142.897 254.382 164.523 240.798 168.388C227.214 172.252 206.27 163.867 199.441 161.078C199.097 159.871 202.157 148.45 203.729 142.891C204.713 143.1 210.336 143.98 224.957 145.825Z" fill="url(#paint26_linear_2305_2070)"/>
<path fill-rule="evenodd" clip-rule="evenodd" d="M225.236 126.32C225.16 125.991 224.958 125.704 224.673 125.522C224.388 125.339 224.042 125.276 223.71 125.344C221.194 125.866 215.492 127.038 212.87 127.585C212.695 127.62 212.53 127.691 212.383 127.793C212.237 127.895 212.114 128.026 212.021 128.178C211.928 128.329 211.867 128.499 211.843 128.675C211.818 128.851 211.829 129.03 211.876 129.201C212.969 133.127 216.147 144.549 217.177 148.242C217.264 148.56 217.469 148.832 217.751 149.004C218.033 149.175 218.37 149.232 218.693 149.163C221.057 148.675 226.324 147.57 228.781 147.056C228.951 147.021 229.113 146.952 229.256 146.853C229.399 146.755 229.521 146.628 229.615 146.482C229.708 146.335 229.771 146.171 229.8 146C229.829 145.829 229.823 145.654 229.783 145.485C228.862 141.604 226.134 130.107 225.236 126.32Z" fill="url(#paint27_linear_2305_2070)"/>
<path d="M214.094 130.342C214.527 130.348 214.884 130.003 214.891 129.57C214.898 129.138 214.553 128.782 214.12 128.776C213.687 128.77 213.33 129.115 213.323 129.548C213.316 129.98 213.661 130.336 214.094 130.342Z" fill="white"/>
<path d="M220.489 133.741C218.92 133.274 213.768 135.925 211.388 137.309C212.7 141.304 215.52 144.907 215.431 146.89C217.866 147.992 218.944 146.091 221.511 144.218C222 144.5 224 144 223.5 142.5C225.5 142.5 225.146 140.36 224.5 140C225.469 140.54 227.054 142.442 228.068 141.99C229.937 141.158 225.809 136.959 224.862 135.923C223.914 134.888 222.449 134.326 220.489 133.741Z" fill="url(#paint28_linear_2305_2070)"/>
<path d="M185.669 142.582C186.146 131.874 180.928 122.336 177.935 118.891C166.047 129.288 166.047 148.164 166.278 154.135C166.796 167.569 170.678 170.226 181.695 168.234C200.258 164.095 211.441 154.991 217.153 149.451C216.859 148.61 214.495 143.371 210.487 135.245C202.444 137.37 195.371 140.034 185.669 142.582Z" fill="url(#paint29_linear_2305_2070)"/>
</g>
<defs>
<filter id="filter0_d_2305_2070" x="117.933" y="63.3142" width="14.5442" height="10.2471" filterUnits="userSpaceOnUse" color-interpolation-filters="sRGB">
<feFlood flood-opacity="0" result="BackgroundImageFix"/>
<feColorMatrix in="SourceAlpha" type="matrix" values="0 0 0 0 0 0 0 0 0 0 0 0 0 0 0 0 0 0 127 0" result="hardAlpha"/>
<feOffset dy="0.562982"/>
<feGaussianBlur stdDeviation="0.281491"/>
<feComposite in2="hardAlpha" operator="out"/>
<feColorMatrix type="matrix" values="0 0 0 0 0 0 0 0 0 0 0 0 0 0 0 0 0 0 0.1 0"/>
<feBlend mode="normal" in2="BackgroundImageFix" result="effect1_dropShadow_2305_2070"/>
<feBlend mode="normal" in="SourceGraphic" in2="effect1_dropShadow_2305_2070" result="shape"/>
</filter>
<radialGradient id="paint0_radial_2305_2070" cx="0" cy="0" r="1" gradientUnits="userSpaceOnUse" gradientTransform="translate(95.1458 170.46) scale(1.68691 1.68691)">
<stop stop-color="white"/>
<stop offset="1" stop-color="#FED5AB"/>
</radialGradient>
<radialGradient id="paint1_radial_2305_2070" cx="0" cy="0" r="1" gradientUnits="userSpaceOnUse" gradientTransform="translate(101.285 135.664) scale(1.68691 1.68691)">
<stop stop-color="white"/>
<stop offset="1" stop-color="#FED5AB"/>
</radialGradient>
<linearGradient id="paint2_linear_2305_2070" x1="171.487" y1="220.554" x2="33.4868" y2="-0.945811" gradientUnits="userSpaceOnUse">
<stop stop-color="#3079E4"/>
<stop offset="1" stop-color="#D3E7FF"/>
</linearGradient>
<linearGradient id="paint3_linear_2305_2070" x1="108.662" y1="7.38261" x2="129.403" y2="193.122" gradientUnits="userSpaceOnUse">
<stop stop-color="#F2F2F2"/>
<stop offset="1" stop-color="white"/>
</linearGradient>
<linearGradient id="paint4_linear_2305_2070" x1="148.041" y1="27.9366" x2="119.35" y2="25.8626" gradientUnits="userSpaceOnUse">
<stop stop-color="#E0F2FF"/>
<stop offset="1" stop-color="#7FAAFE"/>
</linearGradient>
<linearGradient id="paint5_linear_2305_2070" x1="148.117" y1="26.8996" x2="119.426" y2="24.8255" gradientUnits="userSpaceOnUse">
<stop stop-color="#4C93FE"/>
<stop offset="1" stop-color="#3155D2"/>
</linearGradient>
<linearGradient id="paint6_linear_2305_2070" x1="169.633" y1="65.9817" x2="176.359" y2="65.9817" gradientUnits="userSpaceOnUse">
<stop stop-color="#8AB8FE"/>
<stop offset="1" stop-color="#3B75CB"/>
</linearGradient>
<linearGradient id="paint7_linear_2305_2070" x1="109.539" y1="99.4497" x2="127.605" y2="127.479" gradientUnits="userSpaceOnUse">
<stop stop-color="#72A5EF"/>
<stop offset="1" stop-color="#ABCDFE" stop-opacity="0"/>
</linearGradient>
<linearGradient id="paint8_linear_2305_2070" x1="14.9291" y1="25.8997" x2="8.36456" y2="-0.0274259" gradientUnits="userSpaceOnUse">
<stop stop-color="#4FB650"/>
<stop offset="1" stop-color="#8FEC90"/>
</linearGradient>
<linearGradient id="paint9_linear_2305_2070" x1="12.6671" y1="0" x2="12.6671" y2="25.3342" gradientUnits="userSpaceOnUse">
<stop stop-color="#53BC42"/>
<stop offset="1" stop-color="#9CF18E"/>
</linearGradient>
<linearGradient id="paint10_linear_2305_2070" x1="3.37789" y1="-6.1044e-08" x2="5.82195" y2="8.19367" gradientUnits="userSpaceOnUse">
<stop stop-color="#52DC53"/>
<stop offset="1" stop-color="#64C764" stop-opacity="0"/>
</linearGradient>
<linearGradient id="paint11_linear_2305_2070" x1="3.94087" y1="9.27215e-08" x2="7.05209" y2="13.8968" gradientUnits="userSpaceOnUse">
<stop stop-color="#FFD855"/>
<stop offset="1" stop-color="#FFD855" stop-opacity="0"/>
</linearGradient>
<linearGradient id="paint12_linear_2305_2070" x1="1.82969" y1="4.30492e-08" x2="3.27418" y2="6.45207" gradientUnits="userSpaceOnUse">
<stop stop-color="#FFD855"/>
<stop offset="1" stop-color="#FFD855" stop-opacity="0"/>
</linearGradient>
<linearGradient id="paint13_linear_2305_2070" x1="0.844473" y1="1.98689e-08" x2="1.51116" y2="2.97788" gradientUnits="userSpaceOnUse">
<stop stop-color="#FFD855"/>
<stop offset="1" stop-color="#FFD855" stop-opacity="0"/>
</linearGradient>
<linearGradient id="paint14_linear_2305_2070" x1="1.97044" y1="4.63607e-08" x2="3.52604" y2="6.94838" gradientUnits="userSpaceOnUse">
<stop stop-color="#FFD855"/>
<stop offset="1" stop-color="#FFD855" stop-opacity="0"/>
</linearGradient>
<linearGradient id="paint15_linear_2305_2070" x1="1.97044" y1="4.63607e-08" x2="3.52604" y2="6.94838" gradientUnits="userSpaceOnUse">
<stop stop-color="#FFD855"/>
<stop offset="1" stop-color="#FFD855" stop-opacity="0"/>
</linearGradient>
<linearGradient id="paint16_linear_2305_2070" x1="2.25193" y1="-4.0696e-08" x2="3.8813" y2="5.46244" gradientUnits="userSpaceOnUse">
<stop stop-color="#52DC53"/>
<stop offset="1" stop-color="#64C764" stop-opacity="0"/>
</linearGradient>
<linearGradient id="paint17_linear_2305_2070" x1="2.39267" y1="-4.32395e-08" x2="4.12388" y2="5.80385" gradientUnits="userSpaceOnUse">
<stop stop-color="#52DC53"/>
<stop offset="1" stop-color="#64C764" stop-opacity="0"/>
</linearGradient>
<linearGradient id="paint18_linear_2305_2070" x1="1.12596" y1="-2.0348e-08" x2="1.94065" y2="2.73122" gradientUnits="userSpaceOnUse">
<stop stop-color="#52DC53"/>
<stop offset="1" stop-color="#64C764" stop-opacity="0"/>
</linearGradient>
<linearGradient id="paint19_linear_2305_2070" x1="205.201" y1="179.481" x2="205.18" y2="235.61" gradientUnits="userSpaceOnUse">
<stop stop-color="#98AAD7"/>
<stop offset="1" stop-color="#FBFBFB" stop-opacity="0"/>
</linearGradient>
<linearGradient id="paint20_linear_2305_2070" x1="208.68" y1="112.187" x2="203.365" y2="104.181" gradientUnits="userSpaceOnUse">
<stop stop-color="#FFBCA0" stop-opacity="0"/>
<stop offset="0.99" stop-color="#BC5A32"/>
</linearGradient>
<linearGradient id="paint21_linear_2305_2070" x1="199.89" y1="86.4611" x2="202.954" y2="80.8789" gradientUnits="userSpaceOnUse">
<stop stop-color="#BC5A32" stop-opacity="0"/>
<stop offset="0.99" stop-color="#FB9D76"/>
</linearGradient>
<linearGradient id="paint22_linear_2305_2070" x1="209.121" y1="74.4295" x2="194.079" y2="106.411" gradientUnits="userSpaceOnUse">
<stop stop-color="#F3885B"/>
<stop offset="1" stop-color="#FECCB7"/>
</linearGradient>
<linearGradient id="paint23_linear_2305_2070" x1="213.793" y1="97.1378" x2="213.852" y2="94.1393" gradientUnits="userSpaceOnUse">
<stop stop-color="#CC7A5E" stop-opacity="0"/>
<stop offset="0.924" stop-color="#AA5F4B"/>
</linearGradient>
<linearGradient id="paint24_linear_2305_2070" x1="204.993" y1="69.0894" x2="211.95" y2="104.365" gradientUnits="userSpaceOnUse">
<stop stop-color="#321011"/>
<stop offset="1" stop-color="#A76D6F"/>
</linearGradient>
<linearGradient id="paint25_linear_2305_2070" x1="185.119" y1="113.747" x2="229.313" y2="203.143" gradientUnits="userSpaceOnUse">
<stop stop-color="#F9C764"/>
<stop offset="1" stop-color="#FFF8E9"/>
</linearGradient>
<linearGradient id="paint26_linear_2305_2070" x1="226.387" y1="115.092" x2="223.98" y2="169.037" gradientUnits="userSpaceOnUse">
<stop stop-color="#FAD17E"/>
<stop offset="1" stop-color="#FBD993"/>
</linearGradient>
<linearGradient id="paint27_linear_2305_2070" x1="221.024" y1="125.275" x2="220.682" y2="149.224" gradientUnits="userSpaceOnUse">
<stop stop-color="#629BEC"/>
<stop offset="1" stop-color="#CFE3FF"/>
</linearGradient>
<linearGradient id="paint28_linear_2305_2070" x1="220.218" y1="133.692" x2="219.353" y2="148.059" gradientUnits="userSpaceOnUse">
<stop stop-color="#FFD8C9"/>
<stop offset="1" stop-color="#FFE7DE"/>
</linearGradient>
<linearGradient id="paint29_linear_2305_2070" x1="220.07" y1="143.123" x2="178.061" y2="160.621" gradientUnits="userSpaceOnUse">
<stop stop-color="#FECC69"/>
<stop offset="1" stop-color="#FEEECE" stop-opacity="0.4"/>
</linearGradient>
<clipPath id="clip0_2305_2070">
<rect width="199" height="179" fill="white" transform="translate(56 19)"/>
</clipPath>
</defs>
</svg>
