<svg width="343" height="260" viewBox="0 0 343 260" fill="none" xmlns="http://www.w3.org/2000/svg">
<g clip-path="url(#clip0_314_11234)">
<rect width="343" height="260" fill="#F8F8FC"/>
<path fill-rule="evenodd" clip-rule="evenodd" d="M44.1052 129.932C56.776 104.226 94.4828 87.6846 126.027 77.4555C154.219 68.3134 207.14 39.1799 235.765 50.6206C270.047 64.3223 292.267 95.4128 296.976 129.933C301.685 164.452 277.473 196.757 251.757 221.767C228.372 244.512 197.697 247.069 163.531 245.16C128.691 243.213 77.1104 244.19 54.3393 217.251C30.3621 188.885 34.7307 148.951 44.1052 129.932Z" fill="#FFC709"/>
<g clip-path="url(#clip1_314_11234)">
<rect x="82.717" y="17.8899" width="115.804" height="242.11" rx="12" fill="#1B1D29"/>
<rect x="88.2316" y="23.8531" width="104.775" height="228.991" rx="11" fill="white"/>
<rect x="123.524" y="19.1338" width="35.862" height="9.94573" rx="4.97286" fill="#1B1D29"/>
<ellipse cx="146.133" cy="110.321" rx="22.6093" ry="23.2569" fill="#FFC709"/>
<path fill-rule="evenodd" clip-rule="evenodd" d="M143.928 131.193C156.414 131.193 166.537 120.246 166.537 106.743C166.537 93.24 156.414 82.2935 143.928 82.2935C131.441 82.2935 121.318 93.24 121.318 106.743C121.318 120.246 131.441 131.193 143.928 131.193ZM143.928 133.578C157.633 133.578 168.743 121.564 168.743 106.743C168.743 91.9226 157.633 79.9082 143.928 79.9082C130.223 79.9082 119.113 91.9226 119.113 106.743C119.113 121.564 130.223 133.578 143.928 133.578Z" fill="#1B1D29"/>
<path fill-rule="evenodd" clip-rule="evenodd" d="M154.348 96.0627C154.828 96.4678 154.914 97.2173 154.539 97.7367L143.069 113.639C142.88 113.901 142.598 114.066 142.292 114.094C141.985 114.122 141.682 114.01 141.455 113.785L133.808 106.212C133.359 105.768 133.328 105.013 133.74 104.527C134.151 104.042 134.849 104.008 135.298 104.453L142.064 111.154L152.8 96.2696C153.175 95.7502 153.868 95.6576 154.348 96.0627Z" fill="#1B1D29"/>
<path fill-rule="evenodd" clip-rule="evenodd" d="M155.844 98.8368L144.374 114.739C143.901 115.395 143.196 115.807 142.43 115.876C141.663 115.946 140.905 115.666 140.338 115.104L132.691 107.532C131.568 106.42 131.491 104.533 132.52 103.319C133.548 102.105 135.292 102.022 136.415 103.134L141.861 108.527L151.496 95.1692C152.432 93.8708 154.165 93.6392 155.366 94.652C156.566 95.6648 156.78 97.5384 155.844 98.8368ZM142.064 111.154L135.298 104.453C134.849 104.008 134.151 104.041 133.74 104.527C133.328 105.013 133.359 105.767 133.808 106.212L141.455 113.785C141.682 114.009 141.985 114.121 142.292 114.094C142.598 114.066 142.88 113.901 143.069 113.639L154.539 97.7366C154.914 97.2172 154.828 96.4677 154.348 96.0626C153.868 95.6575 153.175 95.7501 152.8 96.2695L142.064 111.154Z" fill="#1B1D29"/>
<path fill-rule="evenodd" clip-rule="evenodd" d="M143.376 57.844C143.985 57.844 144.479 58.378 144.479 59.0367V72.7523C144.479 73.4109 143.985 73.9449 143.376 73.9449C142.767 73.9449 142.273 73.4109 142.273 72.7523V59.0367C142.273 58.378 142.767 57.844 143.376 57.844Z" fill="black"/>
<path fill-rule="evenodd" clip-rule="evenodd" d="M159.597 65.3493C160.027 65.8151 160.027 66.5702 159.597 67.036L151.876 75.3846C151.446 75.8504 150.747 75.8504 150.317 75.3846C149.886 74.9189 149.886 74.1637 150.317 73.6979L158.037 65.3493C158.468 64.8836 159.166 64.8836 159.597 65.3493Z" fill="black"/>
<path fill-rule="evenodd" clip-rule="evenodd" d="M127.156 65.9456C127.587 65.4798 128.285 65.4798 128.716 65.9456L136.436 74.2942C136.866 74.76 136.866 75.5151 136.436 75.9809C136.005 76.4466 135.307 76.4466 134.876 75.9809L127.156 67.6323C126.725 67.1665 126.725 66.4113 127.156 65.9456Z" fill="black"/>
<path fill-rule="evenodd" clip-rule="evenodd" d="M129.933 159.904C129.933 159.472 130.283 159.122 130.716 159.122C131.148 159.122 131.498 159.472 131.498 159.904V161.783L133.058 160.832C133.443 160.597 133.93 160.728 134.146 161.123C134.362 161.518 134.226 162.029 133.841 162.263L132.322 163.189L133.841 164.115C134.226 164.349 134.362 164.86 134.146 165.255C133.93 165.65 133.443 165.781 133.058 165.546L131.498 164.595V166.603C131.498 167.036 131.148 167.386 130.716 167.386C130.283 167.386 129.933 167.036 129.933 166.603V164.645L128.455 165.546C128.07 165.781 127.583 165.65 127.367 165.255C127.151 164.86 127.288 164.349 127.672 164.115L129.191 163.189L127.672 162.263C127.288 162.029 127.151 161.518 127.367 161.123C127.583 160.727 128.07 160.597 128.455 160.832L129.933 161.732V159.904Z" fill="#1B1D29"/>
<path fill-rule="evenodd" clip-rule="evenodd" d="M142.805 159.904C142.805 159.472 143.155 159.122 143.588 159.122C144.02 159.122 144.37 159.472 144.37 159.904V161.783L145.931 160.832C146.315 160.597 146.802 160.728 147.018 161.123C147.235 161.518 147.098 162.029 146.713 162.263L145.194 163.189L146.713 164.115C147.097 164.349 147.234 164.86 147.018 165.255C146.802 165.65 146.315 165.781 145.93 165.546L144.37 164.595V166.603C144.37 167.036 144.02 167.386 143.588 167.386C143.155 167.386 142.805 167.036 142.805 166.603V164.646L141.327 165.546C140.943 165.781 140.456 165.65 140.24 165.255C140.023 164.86 140.16 164.349 140.545 164.115L142.063 163.189L140.544 162.263C140.159 162.029 140.023 161.518 140.239 161.123C140.455 160.727 140.942 160.597 141.327 160.832L142.805 161.732V159.904Z" fill="#1B1D29"/>
<path fill-rule="evenodd" clip-rule="evenodd" d="M155.677 159.904C155.677 159.472 156.028 159.122 156.46 159.122C156.892 159.122 157.243 159.472 157.243 159.904V161.783L158.803 160.832C159.187 160.597 159.674 160.728 159.89 161.123C160.107 161.518 159.97 162.029 159.585 162.263L158.067 163.189L159.585 164.115C159.97 164.349 160.106 164.86 159.89 165.255C159.674 165.65 159.187 165.781 158.802 165.546L157.243 164.595V166.603C157.243 167.036 156.892 167.386 156.46 167.386C156.028 167.386 155.677 167.036 155.677 166.603V164.645L154.199 165.546C153.815 165.781 153.328 165.65 153.112 165.255C152.895 164.86 153.032 164.349 153.417 164.115L154.936 163.189L153.417 162.263C153.032 162.029 152.895 161.518 153.111 161.123C153.328 160.727 153.815 160.597 154.199 160.832L155.677 161.732V159.904Z" fill="#1B1D29"/>
<path fill-rule="evenodd" clip-rule="evenodd" d="M138.917 156.735C138.917 156.329 138.605 156 138.221 156H126.566C123.492 156 121 158.631 121 161.877V164.632C121 167.877 123.492 170.509 126.566 170.509H160.486C163.56 170.509 166.052 167.877 166.052 164.632V161.877C166.052 158.631 163.56 156 160.486 156H148.831C148.447 156 148.136 156.329 148.136 156.735C148.136 157.14 148.447 157.469 148.831 157.469H160.486C162.792 157.469 164.661 159.443 164.661 161.877V164.632C164.661 167.066 162.792 169.039 160.486 169.039H126.566C124.261 169.039 122.392 167.066 122.392 164.632V161.877C122.392 159.443 124.261 157.469 126.566 157.469H138.221C138.605 157.469 138.917 157.14 138.917 156.735Z" fill="#1B1D29"/>
</g>
<g clip-path="url(#clip2_314_11234)">
<path fill-rule="evenodd" clip-rule="evenodd" d="M269.921 211.101L276.826 260H274.151L266.9 211.101H269.921Z" fill="#1B1D29"/>
<path fill-rule="evenodd" clip-rule="evenodd" d="M242.55 239.889L242.637 260H240.431V236.147L242.637 237.001L242.55 239.889Z" fill="#1B1D29"/>
<path fill-rule="evenodd" clip-rule="evenodd" d="M213.831 232.85L213.961 260H210.653V227.798L213.961 228.952L213.831 232.85Z" fill="#1B1D29"/>
<path fill-rule="evenodd" clip-rule="evenodd" d="M211.412 221.577L212.04 259.994H241.691V237.958H242.859L247.429 260H275.723L269.636 213.382L211.412 221.577Z" fill="white"/>
<path fill-rule="evenodd" clip-rule="evenodd" d="M217.27 132.982C210.101 135.963 201.585 144.437 200.727 147.519C200.797 147.544 200.869 147.569 200.942 147.594C200.805 147.676 200.727 147.724 200.727 147.724L204.97 195.979C204.97 195.979 205.121 218.675 205.172 226.226C205.175 226.919 205.4 227.59 205.809 228.125C206.219 228.66 206.788 229.025 207.419 229.159C212.906 230.251 218.893 230.305 224.68 229.692C234.485 229.399 264.086 228.149 272.041 223.596C272.576 223.285 273.01 222.804 273.284 222.218C273.558 221.633 273.658 220.971 273.571 220.322C272.228 209.889 266.165 163.272 266.165 163.272L267.452 139.541L261.905 136.042C261.916 136.016 261.927 135.99 261.937 135.963C255.326 132.178 250.991 130.789 248.758 130.073C247.825 129.774 247.259 129.593 247.048 129.404C240.431 136.56 229.289 139.659 217.27 132.982ZM225.281 148.296C224.912 148.33 224.544 148.362 224.178 148.393L225.301 148.522L225.281 148.296Z" fill="#FFEAAF"/>
<path fill-rule="evenodd" clip-rule="evenodd" d="M267.656 139.229C267.656 139.229 257.261 141.841 257.989 164.164C258.159 169.427 258.642 175.674 258.642 175.674L250.649 174.786H236.205L226.744 194.52C226.744 194.52 265.246 209.312 277.378 197.385C282.892 186.651 282.493 182.998 281.238 171.743C279.032 161.009 273.518 147.89 267.656 139.229Z" fill="white"/>
<path fill-rule="evenodd" clip-rule="evenodd" d="M223.12 130.492L224.678 136.001C232.38 137.689 239.392 136.239 244.159 132.362L241.867 121.301L229.564 127.589L223.12 130.492Z" fill="white"/>
<path fill-rule="evenodd" clip-rule="evenodd" d="M222.936 130.028C222.831 130.08 222.745 130.17 222.696 130.284C222.647 130.397 222.638 130.526 222.669 130.646L224.229 136.157C224.253 136.245 224.299 136.325 224.362 136.387C224.425 136.449 224.502 136.491 224.586 136.509C232.44 138.228 239.574 136.729 244.443 132.776C244.513 132.716 244.566 132.635 244.596 132.544C244.626 132.453 244.632 132.354 244.613 132.259L242.321 121.198C242.305 121.123 242.274 121.053 242.229 120.993C242.185 120.933 242.129 120.885 242.065 120.851C242.001 120.818 241.931 120.8 241.86 120.799C241.789 120.799 241.718 120.815 241.654 120.848L229.367 127.13L222.936 130.028ZM223.695 130.791L229.748 128.067L229.771 128.056L241.533 122.041L243.628 132.157C239.018 135.766 232.367 137.106 225.047 135.568L223.697 130.791H223.695Z" fill="#1B1D29"/>
<path fill-rule="evenodd" clip-rule="evenodd" d="M246.746 129.026C246.746 129.026 244.683 131.493 243.936 131.922C243.825 131.984 243.741 132.09 243.703 132.219C243.665 132.347 243.675 132.486 243.732 132.606C243.792 132.726 243.893 132.817 244.013 132.858C244.134 132.899 244.265 132.887 244.378 132.826C245.193 132.362 247.439 129.709 247.439 129.709C247.524 129.61 247.568 129.48 247.562 129.345C247.557 129.211 247.502 129.085 247.411 128.994C247.319 128.904 247.197 128.856 247.073 128.862C246.949 128.868 246.831 128.927 246.747 129.026H246.746Z" fill="#1B1D29"/>
<path fill-rule="evenodd" clip-rule="evenodd" d="M219.895 134.391C219.895 134.391 221.642 135.601 224.543 136.505C224.665 136.538 224.794 136.521 224.903 136.455C225.013 136.389 225.095 136.28 225.132 136.151C225.165 136.021 225.149 135.883 225.087 135.766C225.026 135.649 224.924 135.563 224.804 135.527C222.06 134.671 220.395 133.524 220.395 133.524C220.289 133.452 220.16 133.429 220.038 133.46C219.915 133.491 219.81 133.573 219.743 133.688C219.677 133.803 219.656 133.942 219.684 134.073C219.713 134.205 219.789 134.319 219.895 134.391Z" fill="#1B1D29"/>
<path fill-rule="evenodd" clip-rule="evenodd" d="M212.494 113.222C212.494 113.222 214.462 121.03 215.304 123.488C216.145 125.946 220.372 132.018 228.991 132.214C237.609 132.41 242.812 123.169 243.096 118.856C243.096 118.856 249.106 120.02 250.579 113.958C251.546 110.016 246.853 105.003 242.135 108.7L234.591 97.7506L219.378 93.7653L209.918 103.276L212.494 113.222Z" fill="white"/>
<path fill-rule="evenodd" clip-rule="evenodd" d="M212.037 113.355C212.069 113.491 214.02 121.216 214.861 123.658C215.729 126.193 220.081 132.514 228.977 132.717C234.32 132.838 238.405 129.461 240.873 125.768C242.365 123.526 243.266 121.168 243.507 119.412C245.05 119.546 249.717 119.485 251.035 114.081C251.359 112.774 251.126 111.359 250.484 110.131C249.075 107.412 245.7 105.601 242.24 107.997L234.963 97.4398C234.896 97.3477 234.802 97.283 234.696 97.2565L219.484 93.2712C219.408 93.2514 219.328 93.2523 219.253 93.2737C219.177 93.2951 219.107 93.3365 219.05 93.394L209.588 102.904C209.523 102.967 209.477 103.048 209.453 103.138C209.43 103.228 209.43 103.323 209.455 103.412L212.037 113.355ZM212.945 113.088L210.445 103.434L219.513 94.3216L234.308 98.1988C235.21 99.5021 241.752 109.002 241.752 109.002C241.827 109.109 241.939 109.18 242.062 109.2C242.185 109.221 242.311 109.188 242.412 109.11C245.429 106.747 248.438 108.265 249.664 110.631C250.174 111.625 250.388 112.767 250.13 113.826C248.756 119.445 243.179 118.353 243.179 118.353C243.115 118.339 243.049 118.341 242.985 118.358C242.922 118.375 242.863 118.407 242.812 118.452C242.758 118.495 242.714 118.55 242.683 118.613C242.651 118.676 242.632 118.746 242.628 118.818C242.519 120.477 241.637 122.888 240.111 125.179C237.802 128.633 234.001 131.817 228.999 131.703C220.666 131.52 216.554 125.682 215.746 123.311C214.912 120.862 212.945 113.088 212.945 113.088Z" fill="#1B1D29"/>
<path fill-rule="evenodd" clip-rule="evenodd" d="M211.87 110.71L212.603 113.674C212.603 113.674 206.001 110.134 207.351 98.4241C208.702 86.7139 224.299 75.1301 237.506 82.9925C237.506 82.9925 252.859 83.9916 247.667 107.911C247.667 107.911 245.266 106.153 242.082 108.701C242.082 108.701 242.023 111.383 241.715 113.135C241.696 113.217 241.657 113.291 241.603 113.352C241.549 113.412 241.481 113.457 241.406 113.48C241.331 113.504 241.252 113.506 241.176 113.487C241.1 113.468 241.031 113.427 240.974 113.37C240.423 112.688 239.523 111.353 238.593 108.994C238.593 108.994 232.29 110.094 226.839 102.395C221.389 94.6954 218.379 98.0171 217.419 101.28C217.419 101.28 212.185 99.4287 212.176 104.836C212.178 107.066 212.945 107.649 211.87 110.71Z" fill="#1B1D29"/>
<path fill-rule="evenodd" clip-rule="evenodd" d="M212.37 110.736C212.994 108.879 212.971 107.898 212.845 106.917C212.732 106.23 212.668 105.534 212.653 104.837C212.653 103.427 213.037 102.571 213.612 102.087C214.146 101.634 214.821 101.5 215.437 101.487C216.058 101.482 216.676 101.575 217.272 101.766C217.392 101.809 217.524 101.798 217.637 101.737C217.693 101.706 217.742 101.664 217.782 101.613C217.823 101.561 217.853 101.502 217.872 101.438C218.297 99.9843 219.139 98.4774 220.522 98.2318C221.202 98.109 222.015 98.3106 222.948 98.9467C223.982 99.6433 225.149 100.846 226.465 102.707C231.317 109.561 236.839 109.652 238.302 109.542C239.203 111.755 240.069 113.038 240.612 113.709C240.624 113.725 240.638 113.738 240.654 113.75C240.771 113.866 240.913 113.948 241.068 113.986C241.223 114.025 241.384 114.02 241.537 113.971C241.689 113.922 241.828 113.831 241.939 113.708C242.05 113.585 242.13 113.433 242.171 113.267C242.167 113.257 242.167 113.245 242.171 113.234C242.421 111.768 242.511 109.691 242.537 108.97C245.321 106.875 247.389 108.334 247.389 108.334C247.451 108.381 247.524 108.41 247.599 108.42C247.675 108.429 247.752 108.418 247.822 108.388C247.895 108.359 247.959 108.312 248.01 108.249C248.061 108.187 248.097 108.111 248.113 108.03C250.23 98.263 248.963 92.2429 246.722 88.5325C243.562 83.319 238.452 82.5839 237.635 82.4996C229.559 77.7334 220.613 80.0615 214.445 85.2714C210.302 88.7672 207.426 93.5609 206.875 98.3656C205.476 110.496 212.377 114.131 212.377 114.131C212.459 114.175 212.55 114.192 212.64 114.182C212.731 114.171 212.817 114.132 212.887 114.07C212.959 114.01 213.013 113.928 213.041 113.834C213.069 113.741 213.071 113.64 213.045 113.546L212.37 110.736ZM241.261 112.956C240.72 112.272 239.887 110.985 239.037 108.796C238.995 108.692 238.922 108.606 238.83 108.55C238.737 108.495 238.631 108.474 238.526 108.49C238.526 108.49 232.474 109.508 227.222 102.085C225.814 100.096 224.556 98.8258 223.464 98.0815C222.273 97.2767 221.253 97.0677 220.379 97.2236C218.795 97.504 217.712 99.0237 217.129 100.666C216.571 100.528 216 100.461 215.428 100.466C214.61 100.483 213.727 100.688 213.035 101.284C212.285 101.918 211.719 103.002 211.719 104.835C211.736 105.578 211.802 106.32 211.918 107.053C212.027 107.935 212.035 108.815 211.435 110.536C211.4 110.635 211.394 110.743 211.418 110.846L211.826 112.483C210.11 110.963 206.858 106.91 207.826 98.4921C208.35 93.9294 211.11 89.3941 215.044 86.0743C220.954 81.0789 229.54 78.8315 237.283 83.4437C237.345 83.4816 237.413 83.503 237.484 83.506C237.484 83.506 242.776 83.8598 245.945 89.0898C248.045 92.5728 249.196 98.1713 247.344 107.17C246.378 106.751 244.31 106.292 241.802 108.298C241.745 108.345 241.698 108.405 241.665 108.473C241.631 108.542 241.613 108.618 241.61 108.695C241.61 108.695 241.554 111.244 241.261 112.956Z" fill="#1B1D29"/>
<path fill-rule="evenodd" clip-rule="evenodd" d="M243.705 114.69C245.116 113.379 246.649 112.229 248.28 111.259C248.338 111.228 248.389 111.185 248.431 111.132C248.473 111.079 248.505 111.017 248.524 110.951C248.543 110.884 248.549 110.814 248.542 110.745C248.536 110.675 248.516 110.608 248.484 110.548C248.452 110.487 248.409 110.434 248.358 110.392C248.306 110.35 248.247 110.319 248.184 110.303C248.122 110.286 248.056 110.283 247.993 110.295C247.929 110.306 247.868 110.332 247.814 110.369C246.122 111.379 244.533 112.574 243.07 113.937C243.02 113.98 242.979 114.034 242.949 114.096C242.919 114.157 242.901 114.225 242.895 114.294C242.89 114.363 242.899 114.433 242.919 114.499C242.94 114.564 242.973 114.625 243.017 114.676C243.06 114.728 243.113 114.769 243.171 114.798C243.23 114.827 243.294 114.842 243.358 114.843C243.422 114.845 243.486 114.832 243.546 114.805C243.606 114.779 243.66 114.74 243.705 114.69Z" fill="#1B1D29"/>
<path fill-rule="evenodd" clip-rule="evenodd" d="M244.955 113.181L246.739 114.73C246.786 114.772 246.841 114.803 246.9 114.822C246.959 114.841 247.021 114.847 247.082 114.84C247.144 114.833 247.203 114.813 247.257 114.782C247.311 114.75 247.358 114.707 247.397 114.655C247.476 114.55 247.513 114.416 247.501 114.282C247.488 114.148 247.427 114.024 247.331 113.938L245.547 112.389C245.449 112.305 245.325 112.265 245.2 112.28C245.076 112.294 244.962 112.361 244.883 112.466C244.805 112.571 244.768 112.705 244.782 112.84C244.795 112.974 244.857 113.096 244.955 113.181Z" fill="#1B1D29"/>
<path fill-rule="evenodd" clip-rule="evenodd" d="M214.144 111.869C214.144 111.869 216.355 107.977 219.656 110.509C219.707 110.547 219.764 110.575 219.824 110.59C219.885 110.605 219.947 110.607 220.009 110.596C220.07 110.585 220.129 110.561 220.181 110.526C220.234 110.49 220.28 110.444 220.316 110.389C220.352 110.335 220.378 110.273 220.392 110.208C220.406 110.143 220.407 110.075 220.397 110.009C220.387 109.943 220.365 109.88 220.332 109.823C220.299 109.766 220.256 109.717 220.205 109.678C216.103 106.529 213.331 111.328 213.331 111.328C213.299 111.386 213.278 111.45 213.269 111.517C213.261 111.583 213.264 111.651 213.28 111.717C213.296 111.782 213.324 111.843 213.362 111.896C213.4 111.95 213.447 111.995 213.501 112.028C213.607 112.096 213.733 112.118 213.852 112.088C213.972 112.058 214.077 111.98 214.144 111.869Z" fill="#1B1D29"/>
<path fill-rule="evenodd" clip-rule="evenodd" d="M227.275 107.592C227.275 107.592 228.485 106.492 229.996 106.454C230.06 106.455 230.124 106.443 230.183 106.417C230.243 106.391 230.297 106.353 230.342 106.304C230.387 106.255 230.423 106.196 230.446 106.132C230.47 106.067 230.481 105.999 230.479 105.93C230.478 105.86 230.463 105.792 230.436 105.73C230.409 105.667 230.37 105.611 230.322 105.565C230.274 105.518 230.218 105.483 230.158 105.461C230.097 105.439 230.032 105.431 229.968 105.436C228.154 105.491 226.669 106.806 226.669 106.806C226.621 106.849 226.582 106.901 226.553 106.961C226.524 107.02 226.507 107.085 226.501 107.152C226.496 107.219 226.503 107.286 226.523 107.35C226.542 107.414 226.572 107.473 226.613 107.524C226.693 107.627 226.807 107.691 226.931 107.704C227.055 107.717 227.178 107.676 227.275 107.592Z" fill="#1B1D29"/>
<path d="M229.196 113.914C229.871 113.914 230.417 113.325 230.417 112.598C230.417 111.871 229.871 111.282 229.196 111.282C228.522 111.282 227.975 111.871 227.975 112.598C227.975 113.325 228.522 113.914 229.196 113.914Z" fill="#1B1D29"/>
<path d="M217.873 115.997C218.548 115.997 219.094 115.408 219.094 114.681C219.094 113.954 218.548 113.364 217.873 113.364C217.199 113.364 216.652 113.954 216.652 114.681C216.652 115.408 217.199 115.997 217.873 115.997Z" fill="#1B1D29"/>
<path fill-rule="evenodd" clip-rule="evenodd" d="M223.157 115.759L222.553 119.896C222.535 120.029 222.565 120.164 222.638 120.273C222.711 120.381 222.82 120.455 222.943 120.477C223.067 120.496 223.193 120.463 223.295 120.384C223.397 120.306 223.468 120.188 223.492 120.056L224.096 115.92C224.114 115.785 224.081 115.647 224.005 115.538C223.93 115.428 223.817 115.355 223.691 115.335C223.568 115.317 223.444 115.351 223.344 115.43C223.244 115.509 223.177 115.627 223.157 115.759Z" fill="#1B1D29"/>
<path fill-rule="evenodd" clip-rule="evenodd" d="M224.791 122.684C225.219 122.971 225.695 123.165 226.192 123.254C226.689 123.343 227.197 123.325 227.688 123.202C228.178 123.079 228.641 122.853 229.051 122.536C229.46 122.219 229.807 121.819 230.072 121.358C230.11 121.301 230.136 121.237 230.149 121.169C230.163 121.101 230.163 121.03 230.15 120.962C230.137 120.894 230.112 120.829 230.075 120.772C230.038 120.715 229.991 120.667 229.936 120.63C229.882 120.593 229.821 120.569 229.757 120.559C229.693 120.548 229.628 120.552 229.566 120.57C229.503 120.588 229.445 120.619 229.394 120.662C229.344 120.705 229.302 120.759 229.271 120.82C228.866 121.519 228.221 122.017 227.476 122.204C226.731 122.391 225.948 122.253 225.297 121.819C225.245 121.783 225.187 121.759 225.127 121.747C225.066 121.736 225.004 121.738 224.943 121.752C224.883 121.766 224.826 121.794 224.776 121.832C224.725 121.87 224.682 121.919 224.649 121.975C224.583 122.09 224.56 122.228 224.587 122.36C224.613 122.493 224.687 122.609 224.791 122.684Z" fill="#1B1D29"/>
<path fill-rule="evenodd" clip-rule="evenodd" d="M262.472 144.917C262.471 144.514 262.319 144.121 262.051 143.823C261.782 143.525 261.418 143.346 261.035 143.322C258.136 143.148 251.57 142.742 248.547 142.564C248.346 142.55 248.146 142.581 247.96 142.653C247.774 142.726 247.605 142.839 247.465 142.985C247.325 143.131 247.216 143.307 247.145 143.503C247.074 143.698 247.042 143.908 247.051 144.12C247.277 148.977 247.932 163.111 248.147 167.681C248.164 168.074 248.322 168.451 248.59 168.735C248.857 169.019 249.214 169.189 249.587 169.209C252.309 169.375 258.382 169.725 261.214 169.89C261.41 169.902 261.605 169.872 261.787 169.803C261.969 169.733 262.135 169.625 262.274 169.485C262.414 169.345 262.524 169.176 262.598 168.988C262.673 168.799 262.71 168.596 262.708 168.389C262.66 163.636 262.518 149.555 262.472 144.917Z" fill="#1B1D29"/>
<path d="M249.485 146.136C249.959 146.276 250.436 145.988 250.551 145.494C250.666 145 250.376 144.485 249.902 144.345C249.429 144.205 248.952 144.492 248.837 144.987C248.721 145.481 249.012 145.995 249.485 146.136Z" fill="white"/>
<path fill-rule="evenodd" clip-rule="evenodd" d="M243.699 166.304C243.699 166.304 251.319 161.61 252.989 161.393C254.659 161.177 258.249 163.058 258.901 163.437C259.552 163.817 260.107 165.384 261.739 167.375C262.215 167.956 261.55 169.784 259.68 168.929C259.68 168.929 260.207 170.579 259.51 171.529C259.648 171.87 259.686 172.249 259.619 172.614C259.551 172.979 259.381 173.313 259.132 173.571H255.52C255.52 173.571 253.023 176.387 248.377 176.414L245.552 171.529L243.699 166.304Z" fill="white"/>
<path fill-rule="evenodd" clip-rule="evenodd" d="M243.472 165.86C243.376 165.921 243.303 166.017 243.264 166.13C243.225 166.243 243.224 166.367 243.259 166.481L245.105 171.718L245.142 171.799L247.967 176.672C248.009 176.745 248.069 176.806 248.139 176.849C248.209 176.891 248.288 176.914 248.368 176.915C252.562 176.901 255.072 174.695 255.7 174.074H259.127C259.247 174.072 259.362 174.024 259.453 173.938C259.741 173.646 259.947 173.274 260.049 172.863C260.151 172.452 260.145 172.018 260.031 171.61C260.245 171.177 260.353 170.693 260.344 170.202C260.345 170.018 260.332 169.834 260.307 169.652C260.684 169.703 261.067 169.64 261.412 169.469C261.636 169.35 261.834 169.18 261.991 168.97C262.148 168.761 262.261 168.517 262.322 168.255C262.378 168.049 262.389 167.831 262.352 167.619C262.315 167.408 262.232 167.209 262.11 167.038C261.142 165.874 260.565 164.838 260.113 164.142C259.761 163.574 259.448 163.181 259.147 162.992C258.669 162.721 256.724 161.693 255.004 161.192C254.225 160.948 253.485 160.826 252.933 160.895C252.406 160.963 251.314 161.436 250.042 162.1C247.213 163.559 243.472 165.86 243.472 165.86ZM244.288 166.536C245.28 165.927 248.167 164.195 250.453 163.018C251.594 162.422 252.562 161.962 253.038 161.907C253.654 161.827 254.559 162.07 255.448 162.395C256.555 162.812 257.634 163.31 258.679 163.883C258.892 164.019 259.081 164.316 259.332 164.708C259.952 165.757 260.639 166.759 261.387 167.706C261.409 167.747 261.418 167.794 261.412 167.841C261.417 167.959 261.391 168.076 261.337 168.178C261.149 168.585 260.647 168.815 259.868 168.45C259.782 168.417 259.689 168.41 259.599 168.429C259.509 168.448 259.426 168.492 259.358 168.558C259.293 168.624 259.247 168.709 259.225 168.802C259.202 168.896 259.205 168.994 259.232 169.086C259.337 169.442 259.394 169.812 259.402 170.186C259.428 170.545 259.34 170.903 259.152 171.201C259.095 171.277 259.058 171.369 259.047 171.467C259.036 171.564 259.051 171.663 259.089 171.751C259.173 171.963 259.204 172.195 259.177 172.423C259.15 172.652 259.068 172.868 258.938 173.051H255.519C255.454 173.049 255.388 173.062 255.328 173.09C255.267 173.118 255.213 173.16 255.169 173.212C255.169 173.212 252.883 175.779 248.64 175.892L245.979 171.31L244.295 166.536H244.288Z" fill="#1B1D29"/>
<path fill-rule="evenodd" clip-rule="evenodd" d="M259.261 166.291L255.972 164.707C255.917 164.679 255.856 164.663 255.794 164.661C255.733 164.659 255.671 164.67 255.614 164.694C255.556 164.718 255.504 164.755 255.46 164.802C255.416 164.848 255.382 164.904 255.358 164.966C255.333 165.027 255.318 165.093 255.316 165.16C255.314 165.228 255.325 165.295 255.347 165.357C255.369 165.42 255.402 165.478 255.445 165.527C255.488 165.576 255.54 165.615 255.597 165.642L258.886 167.211C258.942 167.244 259.004 167.263 259.068 167.268C259.132 167.273 259.196 167.264 259.256 167.242C259.317 167.219 259.372 167.183 259.419 167.137C259.466 167.09 259.504 167.033 259.529 166.97C259.555 166.907 259.569 166.839 259.569 166.77C259.57 166.701 259.557 166.633 259.532 166.57C259.507 166.506 259.47 166.449 259.423 166.402C259.377 166.355 259.322 166.318 259.261 166.295V166.291Z" fill="#1B1D29"/>
<path fill-rule="evenodd" clip-rule="evenodd" d="M259.632 168.392L255.65 167.69C255.527 167.672 255.402 167.706 255.302 167.785C255.201 167.865 255.134 167.983 255.113 168.116C255.101 168.182 255.101 168.249 255.114 168.315C255.127 168.381 255.152 168.443 255.188 168.498C255.223 168.553 255.269 168.6 255.322 168.635C255.375 168.671 255.434 168.694 255.496 168.704L259.479 169.393C259.54 169.405 259.603 169.404 259.664 169.389C259.725 169.373 259.782 169.345 259.832 169.305C259.883 169.266 259.925 169.215 259.956 169.157C259.988 169.099 260.008 169.035 260.016 168.968C260.028 168.903 260.027 168.836 260.014 168.771C260.001 168.706 259.976 168.644 259.94 168.59C259.904 168.537 259.858 168.491 259.805 168.457C259.752 168.423 259.693 168.401 259.632 168.392Z" fill="#1B1D29"/>
<path fill-rule="evenodd" clip-rule="evenodd" d="M259.346 171.113L255.931 170.409C255.871 170.395 255.809 170.395 255.749 170.408C255.689 170.421 255.631 170.446 255.58 170.483C255.529 170.52 255.486 170.567 255.452 170.622C255.418 170.678 255.395 170.74 255.384 170.805C255.36 170.938 255.386 171.077 255.457 171.19C255.527 171.303 255.636 171.382 255.759 171.41L259.161 172.115C259.285 172.139 259.414 172.109 259.518 172.032C259.622 171.955 259.694 171.837 259.719 171.703C259.74 171.572 259.713 171.436 259.644 171.326C259.574 171.216 259.467 171.139 259.346 171.113Z" fill="#1B1D29"/>
<path fill-rule="evenodd" clip-rule="evenodd" d="M201.278 146.101C201.278 146.101 206.616 150.987 208.085 156.332C209.554 161.678 211.67 174.165 211.67 174.165C211.67 174.165 225.785 169.566 231.289 167.903C236.792 166.24 239.071 167.509 239.071 167.509C239.071 167.509 242.336 165.02 243.981 165.859C245.449 166.616 247.797 171.298 248.45 176.008C248.511 176.518 248.459 177.036 248.299 177.521C248.138 178.006 247.874 178.442 247.527 178.796C246.636 179.712 245.355 180.996 244.324 181.718C244.324 181.718 243.835 184.303 240.608 186.44C237.382 188.578 214.569 206.057 196.947 201.105C191.097 199.549 188.831 185.159 192.455 166.972C196.079 148.786 199.624 148.486 201.278 146.101Z" fill="white"/>
<path fill-rule="evenodd" clip-rule="evenodd" d="M218.002 133.545C218.29 133.437 218.442 133.097 218.342 132.786C218.243 132.475 217.928 132.31 217.641 132.418C208.463 135.861 189.358 150.927 190.249 181.302C190.388 186.688 190.803 190.685 191.471 193.659C192.139 196.633 193.068 198.628 194.265 199.962C195.471 201.307 196.898 201.925 198.451 202.248C199.576 202.481 200.807 202.565 202.078 202.651C202.529 202.682 202.984 202.712 203.441 202.751C207.152 203.059 214.415 201.529 221.965 198.084C229.491 194.649 237.41 189.262 242.459 181.743C245.411 179.996 247.126 178.773 248.018 177.647C248.487 177.056 248.747 176.471 248.834 175.837C248.919 175.219 248.83 174.607 248.686 173.984C248.407 172.778 247.844 170.641 246.99 168.793C246.563 167.87 246.049 166.987 245.439 166.327C244.827 165.666 244.075 165.183 243.188 165.183C241.058 165.183 239.668 166.21 239.058 166.972H238.225C237.92 166.972 237.673 167.239 237.673 167.569C237.673 167.898 237.92 168.165 238.225 168.165H239.328H239.623L239.787 167.9C240.052 167.469 241.167 166.376 243.188 166.376C243.679 166.376 244.168 166.639 244.659 167.17C245.152 167.703 245.603 168.46 246.003 169.326C246.803 171.057 247.343 173.094 247.616 174.273C247.748 174.843 247.796 175.274 247.743 175.662C247.692 176.035 247.539 176.419 247.181 176.871C246.43 177.819 244.867 178.964 241.821 180.761L241.711 180.826L241.637 180.936C236.756 188.267 229 193.579 221.536 196.985C214.059 200.397 206.985 201.849 203.526 201.561C203.027 201.52 202.547 201.487 202.083 201.456C200.838 201.371 199.709 201.294 198.659 201.076C197.248 200.784 196.056 200.247 195.057 199.132C194.047 198.006 193.185 196.237 192.543 193.378C191.901 190.519 191.489 186.615 191.352 181.268L191.352 181.265C190.479 151.531 209.166 136.86 218.002 133.545Z" fill="#1B1D29"/>
<path fill-rule="evenodd" clip-rule="evenodd" d="M202.24 146.3C202.037 146.054 201.689 146.033 201.462 146.253C201.235 146.472 201.215 146.849 201.419 147.095C204.481 150.796 210.769 161.561 211.204 174.746L211.233 175.616L211.973 175.273C213.894 174.382 218.561 172.304 223.704 170.599C228.878 168.883 234.422 167.584 238.147 168.159C238.449 168.206 238.728 167.979 238.771 167.653C238.814 167.327 238.605 167.025 238.303 166.978C234.308 166.361 228.547 167.745 223.381 169.458C218.752 170.993 214.512 172.824 212.27 173.841C211.587 160.706 205.36 150.07 202.24 146.3Z" fill="#1B1D29"/>
<path fill-rule="evenodd" clip-rule="evenodd" d="M232.491 165.694C232.282 165.696 232.069 165.697 231.852 165.697C231.548 165.697 231.301 165.43 231.301 165.1C231.301 164.771 231.548 164.504 231.852 164.504C232.062 164.504 232.271 164.503 232.481 164.501C234.037 164.491 235.586 164.48 237.19 165.058C237.479 165.162 237.635 165.5 237.539 165.813C237.443 166.125 237.13 166.294 236.842 166.19C235.422 165.678 234.064 165.686 232.491 165.694Z" fill="#1B1D29"/>
<path fill-rule="evenodd" clip-rule="evenodd" d="M247.395 129.957C250.146 131.148 254.44 133.082 258.373 135.015C260.34 135.982 262.212 136.946 263.754 137.815C264.881 138.45 265.809 139.022 266.468 139.499C266.322 139.591 266.172 139.684 266.019 139.779C264.617 140.65 262.934 141.694 261.478 144.056C259.605 147.095 258.08 152.292 257.527 162.166L258.628 162.238C259.177 152.433 260.685 147.492 262.396 144.717C263.695 142.611 265.094 141.739 266.465 140.885C266.9 140.613 267.332 140.344 267.758 140.037L268.372 139.594L267.805 139.083C267.092 138.441 265.816 137.632 264.264 136.758C262.697 135.875 260.805 134.901 258.829 133.93C254.877 131.987 250.567 130.045 247.805 128.85L247.395 129.957Z" fill="#1B1D29"/>
<path d="M268.432 139.763C268.241 139.507 267.894 139.467 267.657 139.673C267.42 139.88 267.383 140.256 267.574 140.512C272.128 146.618 281.238 163.226 281.238 180.688C281.238 186.145 280.419 190.255 278.972 193.312C277.531 196.357 275.453 198.389 272.873 199.676C267.666 202.275 260.377 201.867 252.102 200.375C239.718 198.143 232.849 195.724 228.85 193.807L226.645 194.404L228.299 195C231.84 196.814 238.638 199.158 251.921 201.552C260.189 203.042 267.789 203.527 273.335 200.759C276.132 199.364 278.396 197.146 279.954 193.855C281.505 190.577 282.341 186.263 282.341 180.688C282.341 162.847 273.069 145.981 268.432 139.763Z" fill="#1B1D29"/>
<path fill-rule="evenodd" clip-rule="evenodd" d="M271.305 201.465C271.256 201.139 270.973 200.918 270.673 200.971C270.372 201.023 270.168 201.329 270.216 201.655C270.4 202.891 270.621 204.343 270.857 205.89L270.857 205.892C271.209 208.209 271.595 210.742 271.939 213.088C272.226 215.042 272.484 216.86 272.67 218.307C272.858 219.774 272.966 220.812 272.966 221.238C272.966 221.592 272.784 222.002 272.293 222.467C271.804 222.93 271.071 223.385 270.13 223.821C268.252 224.691 265.677 225.427 262.932 226.021C260.219 226.608 250.613 227.5 240.668 228.247C230.739 228.992 220.556 229.587 216.719 229.587C212.872 229.587 210.039 229.288 208.185 228.716C207.257 228.429 206.618 228.086 206.221 227.718C205.84 227.365 205.69 227 205.69 226.605V226.594V226.582V226.571V226.558V226.546V226.533V226.52V226.506V226.493V226.479V226.464V226.45V226.435V226.42V226.404V226.388V226.372V226.356V226.339V226.322V226.305V226.288V226.27V226.252V226.233V226.215V226.196V226.177V226.157V226.137V226.117V226.097V226.077V226.056V226.035V226.013V225.992V225.97V225.948V225.925V225.902V225.879V225.856V225.833V225.809V225.785V225.761V225.736V225.711V225.686V225.661V225.635V225.609V225.583V225.557V225.53V225.504V225.476V225.449V225.421V225.394V225.366V225.337V225.309V225.28V225.251V225.221V225.192V225.162V225.132V225.102V225.071V225.041V225.01V224.978V224.947V224.915V224.883V224.851V224.819V224.786V224.754V224.72V224.687V224.654V224.62V224.586V224.552V224.518V224.483V224.448V224.413V224.378V224.342V224.307V224.271V224.235V224.198V224.162V224.125V224.088V224.051V224.014V223.976V223.938V223.9V223.862V223.824V223.785V223.746V223.707V223.668V223.629V223.589V223.549V223.509V223.469V223.429V223.388V223.347V223.306V223.265V223.224V223.182V223.141V223.099V223.057V223.014V222.972V222.929V222.887V222.844V222.8V222.757V222.714V222.67V222.626V222.582V222.538V222.493V222.449V222.404V222.359V222.314V222.269V222.223V222.178V222.132V222.086V222.04V221.994V221.947V221.901V221.854V221.807V221.76V221.713V221.666V221.618V221.571V221.523V221.475V221.427V221.378V221.33V221.281V221.233V221.184V221.135V221.086V221.036V220.987V220.937V220.888V220.838V220.788V220.738V220.688V220.637V220.587V220.536V220.485V220.434V220.383V220.332V220.281V220.229V220.178V220.126V220.074V220.022V219.97V219.918V219.866V219.813V219.761V219.708V219.655V219.602V219.549V219.496V219.443V219.389V219.336V219.282V219.229V219.175V219.121V219.067V219.013V218.958V218.904V218.85V218.795V218.74V218.686V218.631V218.576V218.521V218.466V218.41V218.355V218.299V218.244V218.188V218.133V218.077V218.021V217.965V217.909V217.853V217.796V217.74V217.684V217.627V217.571V217.514V217.457V217.4V217.343V217.286V217.229V217.172V217.115V217.058V217V216.943V216.885V216.828V216.77V216.713V216.655V216.597V216.539V216.481V216.423V216.365V216.307V216.249V216.19V216.132V216.074V216.015V215.957V215.898V215.84V215.781V215.722V215.663V215.605V215.546V215.487V215.428V215.369V215.31V215.251V215.192V215.132V215.073V215.014V214.955V214.895V214.836V214.776V214.717V214.657V214.598V214.538V214.479V214.419V214.36V214.3V214.24V214.18V214.121V214.061V214.001V213.941V213.881V213.821V213.762V213.702V213.642V213.582V213.522V213.462V213.402V213.342V213.282V213.222V213.162V213.102V213.041V212.981V212.921V212.861V212.801V212.741V212.681V212.621V212.561V212.501V212.44V212.38V212.32V212.26V212.2V212.14V212.08V212.02V211.96V211.9V211.839V211.779V211.719V211.659V211.599V211.539V211.479V211.419V211.359V211.299V211.239V211.18V211.12V211.06V211V210.94V210.88V210.821V210.761V210.701V210.642V210.582V210.522V210.463V210.403V210.344V210.284V210.225V210.165V210.106V210.046V209.987V209.928V209.869V209.809V209.75V209.691V209.632V209.573V209.514V209.455V209.396V209.338V209.279V209.22V209.161V209.103V209.044V208.986V208.927V208.869V208.811V208.752V208.694V208.636V208.578V208.52V208.462V208.404V208.346V208.288V208.231V208.173V208.115V208.058V208V207.943V207.886V207.829V207.771V207.714V207.657V207.6V207.544V207.487V207.43V207.374V207.317V207.261V207.204V207.148V207.092V207.036V206.98V206.924V206.868V206.812V206.757V206.701V206.646V206.59V206.535V206.48V206.425V206.37V206.315V206.26V206.206V206.151V206.097V206.042V205.988V205.934V205.88V205.826V205.772V205.718V205.665V205.611V205.558V205.504V205.451V205.398V205.345V205.292V205.24V205.187V205.135V205.082V205.03V204.978V204.926V204.874V204.823V204.771V204.72V204.668V204.617V204.566V204.515V204.464V204.414V204.363V204.313V204.262V204.212V204.162V204.112V204.063V204.013V203.964V203.914V203.865V203.816V203.767V203.719V203.67V203.622V203.573V203.525V203.477V203.429V203.382V203.334V203.287V203.24V203.193V203.146V203.099V203.052V203.006V202.96V202.914V202.868V202.822V202.776V202.731V202.686V202.641V202.596V202.551V202.506V202.462V202.418V202.374V202.33V202.286V202.242V202.199V202.156C205.69 201.827 205.443 201.56 205.138 201.56C204.834 201.56 204.587 201.827 204.587 202.156V202.199V202.242V202.286V202.33V202.374V202.418V202.462V202.506V202.551V202.596V202.641V202.686V202.731V202.776V202.822V202.868V202.914V202.96V203.006V203.052V203.099V203.146V203.193V203.24V203.287V203.334V203.382V203.429V203.477V203.525V203.573V203.622V203.67V203.719V203.767V203.816V203.865V203.914V203.964V204.013V204.063V204.112V204.162V204.212V204.262V204.313V204.363V204.414V204.464V204.515V204.566V204.617V204.668V204.72V204.771V204.823V204.874V204.926V204.978V205.03V205.082V205.135V205.187V205.24V205.292V205.345V205.398V205.451V205.504V205.558V205.611V205.665V205.718V205.772V205.826V205.88V205.934V205.988V206.042V206.097V206.151V206.206V206.26V206.315V206.37V206.425V206.48V206.535V206.59V206.646V206.701V206.757V206.812V206.868V206.924V206.98V207.036V207.092V207.148V207.204V207.261V207.317V207.374V207.43V207.487V207.544V207.6V207.657V207.714V207.771V207.829V207.886V207.943V208V208.058V208.115V208.173V208.231V208.288V208.346V208.404V208.462V208.52V208.578V208.636V208.694V208.752V208.811V208.869V208.927V208.986V209.044V209.103V209.161V209.22V209.279V209.338V209.396V209.455V209.514V209.573V209.632V209.691V209.75V209.809V209.869V209.928V209.987V210.046V210.106V210.165V210.225V210.284V210.344V210.403V210.463V210.522V210.582V210.642V210.701V210.761V210.821V210.88V210.94V211V211.06V211.12V211.18V211.239V211.299V211.359V211.419V211.479V211.539V211.599V211.659V211.719V211.779V211.839V211.9V211.96V212.02V212.08V212.14V212.2V212.26V212.32V212.38V212.44V212.501V212.561V212.621V212.681V212.741V212.801V212.861V212.921V212.981V213.041V213.102V213.162V213.222V213.282V213.342V213.402V213.462V213.522V213.582V213.642V213.702V213.762V213.821V213.881V213.941V214.001V214.061V214.121V214.18V214.24V214.3V214.36V214.419V214.479V214.538V214.598V214.657V214.717V214.776V214.836V214.895V214.955V215.014V215.073V215.132V215.192V215.251V215.31V215.369V215.428V215.487V215.546V215.605V215.663V215.722V215.781V215.84V215.898V215.957V216.015V216.074V216.132V216.19V216.249V216.307V216.365V216.423V216.481V216.539V216.597V216.655V216.713V216.77V216.828V216.885V216.943V217V217.058V217.115V217.172V217.229V217.286V217.343V217.4V217.457V217.514V217.571V217.627V217.684V217.74V217.796V217.853V217.909V217.965V218.021V218.077V218.133V218.188V218.244V218.299V218.355V218.41V218.466V218.521V218.576V218.631V218.686V218.74V218.795V218.85V218.904V218.958V219.013V219.067V219.121V219.175V219.229V219.282V219.336V219.389V219.443V219.496V219.549V219.602V219.655V219.708V219.761V219.813V219.866V219.918V219.97V220.022V220.074V220.126V220.178V220.229V220.281V220.332V220.383V220.434V220.485V220.536V220.587V220.637V220.688V220.738V220.788V220.838V220.888V220.937V220.987V221.036V221.086V221.135V221.184V221.233V221.281V221.33V221.378V221.427V221.475V221.523V221.571V221.618V221.666V221.713V221.76V221.807V221.854V221.901V221.947V221.994V222.04V222.086V222.132V222.178V222.223V222.269V222.314V222.359V222.404V222.449V222.493V222.538V222.582V222.626V222.67V222.714V222.757V222.8V222.844V222.887V222.929V222.972V223.014V223.057V223.099V223.141V223.182V223.224V223.265V223.306V223.347V223.388V223.429V223.469V223.509V223.549V223.589V223.629V223.668V223.707V223.746V223.785V223.824V223.862V223.9V223.938V223.976V224.014V224.051V224.088V224.125V224.162V224.198V224.235V224.271V224.307V224.342V224.378V224.413V224.448V224.483V224.518V224.552V224.586V224.62V224.654V224.687V224.72V224.754V224.786V224.819V224.851V224.883V224.915V224.947V224.978V225.01V225.041V225.071V225.102V225.132V225.162V225.192V225.221V225.251V225.28V225.309V225.337V225.366V225.394V225.421V225.449V225.476V225.504V225.53V225.557V225.583V225.609V225.635V225.661V225.686V225.711V225.736V225.761V225.785V225.809V225.833V225.856V225.879V225.902V225.925V225.948V225.97V225.992V226.013V226.035V226.056V226.077V226.097V226.117V226.137V226.157V226.177V226.196V226.215V226.233V226.252V226.27V226.288V226.305V226.322V226.339V226.356V226.372V226.388V226.404V226.42V226.435V226.45V226.464V226.479V226.493V226.506V226.52V226.533V226.546V226.558V226.571V226.582V226.594V226.605C204.587 227.403 204.919 228.082 205.503 228.624C206.071 229.15 206.88 229.553 207.882 229.862C209.888 230.482 212.845 230.78 216.719 230.78C220.601 230.78 230.822 230.182 240.745 229.437C250.652 228.693 260.347 227.796 263.148 227.19C265.918 226.591 268.581 225.836 270.564 224.917C271.553 224.459 272.405 223.945 273.019 223.364C273.631 222.786 274.069 222.077 274.069 221.238C274.069 220.711 273.947 219.582 273.762 218.143C273.575 216.684 273.316 214.857 273.028 212.901C272.684 210.555 272.297 208.013 271.944 205.692L271.944 205.688C271.708 204.141 271.488 202.693 271.305 201.465Z" fill="#1B1D29"/>
<path fill-rule="evenodd" clip-rule="evenodd" d="M284.82 191.751C284.863 191.425 284.653 191.122 284.352 191.076C284.05 191.029 283.771 191.256 283.728 191.582C283.406 194.017 281.563 196.436 279.829 198.155C278.891 199.085 277.937 199.846 276.86 200.585C276.799 200.627 276.743 200.667 276.689 200.706L276.689 200.706C276.582 200.782 276.484 200.852 276.37 200.92C276.197 201.024 276.104 201.047 276.073 201.047C275.769 201.047 275.522 201.314 275.522 201.643C275.522 201.972 275.769 202.239 276.073 202.239C276.399 202.239 276.699 202.086 276.905 201.963C277.057 201.872 277.219 201.757 277.339 201.671C277.383 201.64 277.421 201.613 277.451 201.592C278.571 200.823 279.579 200.021 280.575 199.034C282.337 197.287 284.44 194.624 284.82 191.751Z" fill="#1B1D29"/>
<path fill-rule="evenodd" clip-rule="evenodd" d="M214.183 166.249C214.183 165.92 213.936 165.653 213.631 165.653C213.327 165.653 213.08 165.92 213.08 166.249C213.08 168.307 212.57 170.144 211.875 172.125C211.799 172.342 211.73 172.584 211.668 172.8C211.637 172.909 211.607 173.012 211.58 173.101C211.489 173.397 211.396 173.643 211.263 173.858C211.094 174.132 211.163 174.502 211.416 174.685C211.67 174.868 212.012 174.794 212.181 174.52C212.395 174.173 212.525 173.808 212.627 173.476C212.67 173.337 212.705 173.212 212.739 173.095L212.739 173.095C212.792 172.907 212.841 172.735 212.907 172.548C213.616 170.526 214.183 168.526 214.183 166.249Z" fill="#1B1D29"/>
</g>
<path d="M82.3705 213.899C93.7521 213.899 102.979 203.928 102.979 191.628C102.979 179.329 93.7521 169.358 82.3705 169.358C70.9888 169.358 61.7621 179.329 61.7621 191.628C61.7621 203.928 70.9888 213.899 82.3705 213.899Z" fill="#0061A0"/>
<path fill-rule="evenodd" clip-rule="evenodd" d="M93.4681 197.501C93.5484 197.2 93.5484 196.881 93.4681 196.58L92.7981 194.175C92.6899 193.8 92.4678 193.476 92.1678 193.255C92.2694 192.837 92.2476 192.395 92.1054 191.991C91.901 191.408 91.5745 190.478 91.3473 189.843C91.187 189.389 90.886 189.01 90.4956 188.769C90.614 188.248 90.5711 187.7 90.3736 187.208C90.2089 186.781 89.9846 186.235 89.8058 185.741C89.5917 185.201 89.2079 184.76 88.7221 184.496C88.2364 184.233 87.6801 184.163 87.1513 184.299L84.8801 184.891C84.7175 183.079 84.4453 181.281 84.0653 179.507C83.4833 176.776 82.0297 176.068 80.9168 175.917C80.6477 175.882 80.3746 175.912 80.1173 176.004C79.8599 176.096 79.6247 176.249 79.4283 176.451C79.2319 176.653 79.0792 176.899 78.9812 177.173C78.8832 177.446 78.8423 177.739 78.8614 178.031C79.6222 189.653 75.0798 194.178 73.101 195.556C72.6994 195.832 72.3996 196.252 72.2535 196.742C72.1073 197.232 72.1239 197.762 72.3004 198.24C73.0073 200.161 74.4467 204.051 75.1394 205.953C75.3235 206.449 75.6669 206.856 76.1066 207.1C76.5463 207.344 77.0526 207.409 77.5327 207.281C80.4081 206.566 83.3204 206.036 86.2542 205.695C91.1117 205.146 93.4113 202.87 94.1154 202.051C94.1154 202.051 94.1154 202.051 94.1324 202.029C94.2818 201.839 94.3875 201.614 94.4408 201.371C94.4941 201.128 94.4935 200.875 94.439 200.633C94.3028 200.044 94.0387 198.875 93.8911 198.252C93.8228 197.962 93.6754 197.7 93.4681 197.501ZM91.2792 194.684L91.9521 197.059L91.7477 197.485C91.6921 197.6 91.6615 197.728 91.6582 197.857C91.6548 197.987 91.6788 198.116 91.7283 198.234C91.7778 198.352 91.8515 198.457 91.9439 198.54C92.0363 198.623 92.1449 198.682 92.2615 198.713L92.3836 198.746L92.8918 200.971C92.2161 201.738 90.189 203.545 86.0781 204.011C83.0797 204.359 80.1029 204.899 77.1637 205.628C77.1637 205.628 77.1637 205.628 77.1495 205.628C77.0389 205.656 76.9227 205.64 76.8217 205.584C76.7207 205.528 76.6417 205.435 76.5987 205.321C75.8918 203.419 74.4581 199.529 73.7597 197.617C73.722 197.508 73.7194 197.388 73.7524 197.277C73.7853 197.165 73.8519 197.069 73.9414 197.004C76.1019 195.51 81.2575 190.628 80.4314 177.927C80.4276 177.885 80.4325 177.843 80.4458 177.804C80.459 177.765 80.4803 177.729 80.508 177.7C80.5358 177.674 80.5683 177.654 80.6035 177.643C80.6388 177.631 80.6759 177.627 80.7124 177.632C81.3853 177.721 82.1688 178.246 82.5237 179.906C82.9652 181.91 83.2501 183.952 83.3754 186.008C83.3813 186.133 83.4124 186.256 83.4667 186.367C83.5209 186.478 83.5969 186.575 83.6893 186.651C83.7818 186.727 83.8885 186.78 84.002 186.807C84.1155 186.833 84.233 186.833 84.3463 186.806L87.526 185.977C87.6921 185.933 87.8674 185.954 88.0204 186.036C88.1734 186.119 88.2941 186.258 88.3607 186.428L88.9427 187.895C88.9878 188.003 89.0089 188.12 89.0045 188.239C89 188.357 88.9701 188.472 88.9172 188.576C88.8206 188.769 88.7355 188.932 88.7355 188.932C88.6767 189.054 88.6461 189.19 88.6461 189.328C88.6461 189.465 88.6767 189.601 88.7355 189.723C88.7928 189.847 88.8779 189.954 88.9831 190.033C89.0882 190.112 89.2099 190.162 89.3373 190.177L89.59 190.211C89.6565 190.221 89.7193 190.25 89.7722 190.295C89.8251 190.339 89.866 190.398 89.8909 190.466L90.6433 192.613C90.6634 192.668 90.6718 192.727 90.6679 192.785C90.664 192.843 90.6478 192.9 90.6206 192.951C90.5155 193.153 90.4218 193.347 90.4218 193.347C90.3607 193.46 90.325 193.587 90.3176 193.719C90.3102 193.85 90.3313 193.981 90.3793 194.101C90.4285 194.222 90.5028 194.328 90.5964 194.412C90.6899 194.496 90.8002 194.556 90.9187 194.586L91.2792 194.684Z" fill="white"/>
</g>
<defs>
<clipPath id="clip0_314_11234">
<rect width="343" height="260" fill="white"/>
</clipPath>
<clipPath id="clip1_314_11234">
<rect width="115.804" height="242.11" fill="white" transform="translate(82.717 17.8899)"/>
</clipPath>
<clipPath id="clip2_314_11234">
<rect width="101.466" height="180.092" fill="white" transform="translate(186.389 79.9082)"/>
</clipPath>
</defs>
</svg>
