<svg width="15" height="15" viewBox="0 0 15 15" fill="none" xmlns="http://www.w3.org/2000/svg">
<path fill-rule="evenodd" clip-rule="evenodd" d="M9.96613 1.3335C9.96613 1.05735 10.19 0.833496 10.4661 0.833496H13.6661C13.9423 0.833496 14.1661 1.05735 14.1661 1.3335V4.5335C14.1661 4.80964 13.9423 5.0335 13.6661 5.0335C13.39 5.0335 13.1661 4.80964 13.1661 4.5335V2.54099L8.0202 7.68692C7.82494 7.88218 7.50836 7.88218 7.31309 7.68692C7.11783 7.49166 7.11783 7.17507 7.31309 6.97981L12.4594 1.8335H10.4661C10.19 1.8335 9.96613 1.60964 9.96613 1.3335ZM6.45188 2.32654C6.81753 2.28335 6.82936 1.82955 6.56902 1.5692L6.52858 1.52876C6.40355 1.40373 6.23398 1.3335 6.05717 1.3335H4.99998C1.66665 1.3335 0.333313 2.66683 0.333313 6.00016V10.0002C0.333313 13.3335 1.66665 14.6668 4.99998 14.6668H8.99998C12.3333 14.6668 13.6666 13.3335 13.6666 10.0002V8.94297C13.6666 8.76616 13.5964 8.59659 13.4714 8.47157L13.4309 8.43113C13.1706 8.17078 12.7168 8.18262 12.6736 8.54826C12.669 8.58715 12.6666 8.62671 12.6666 8.66683V10.0002C12.6666 11.5682 12.3469 12.4057 11.8762 12.8764C11.4055 13.3471 10.568 13.6668 8.99998 13.6668H4.99998C3.43194 13.6668 2.59446 13.3471 2.12375 12.8764C1.65304 12.4057 1.33331 11.5682 1.33331 10.0002V6.00016C1.33331 4.43213 1.65304 3.59464 2.12375 3.12394C2.59446 2.65323 3.43194 2.3335 4.99998 2.3335H6.33331C6.37343 2.3335 6.413 2.33113 6.45188 2.32654Z" fill="#1EBB4D"/>
</svg>
