<svg width="20" height="20" viewBox="0 0 20 20" fill="none" xmlns="http://www.w3.org/2000/svg">
<path d="M10.0001 1.66663C5.40841 1.66663 1.66675 5.40829 1.66675 9.99996C1.66675 14.5916 5.40841 18.3333 10.0001 18.3333C14.5917 18.3333 18.3334 14.5916 18.3334 9.99996C18.3334 5.40829 14.5917 1.66663 10.0001 1.66663ZM13.9834 8.08329L9.25841 12.8083C9.14175 12.925 8.98341 12.9916 8.81675 12.9916C8.65008 12.9916 8.49175 12.925 8.37508 12.8083L6.01675 10.45C5.77508 10.2083 5.77508 9.80829 6.01675 9.56663C6.25841 9.32496 6.65841 9.32496 6.90008 9.56663L8.81675 11.4833L13.1001 7.19996C13.3417 6.95829 13.7417 6.95829 13.9834 7.19996C14.2251 7.44163 14.2251 7.83329 13.9834 8.08329Z" fill="color1"/>
</svg>
