<svg width="24" height="24" viewBox="0 0 24 24" fill="none" xmlns="http://www.w3.org/2000/svg">
<path fill-rule="evenodd" clip-rule="evenodd" d="M5.86729 17.8856C6.15636 17.4938 6.54479 17.1264 7.02977 16.8001C9.76977 14.9801 14.2498 14.9801 16.9698 16.8001C17.4549 17.1265 17.8433 17.494 18.1324 17.8859C19.5988 16.3585 20.5 14.2845 20.5 12C20.5 7.30558 16.6944 3.5 12 3.5C7.30558 3.5 3.5 7.30558 3.5 12C3.5 14.2844 4.40112 16.3582 5.86729 17.8856ZM9.39279 21.6567C5.13422 20.5098 2 16.6209 2 12C2 6.47715 6.47715 2 12 2C17.5228 2 22 6.47715 22 12C22 16.7542 18.6823 20.7335 14.2359 21.7491C13.5174 21.9134 12.7691 22.0001 11.9998 22.0001C11.0971 22.0001 10.2234 21.8807 9.39279 21.6567ZM12.1463 14C12.061 13.9878 11.9512 13.9878 11.8537 14C9.70732 13.9267 8 12.1679 8 10.0061C8 7.79542 9.78049 6 12 6C14.2073 6 16 7.79542 16 10.0061C15.9878 12.1679 14.2927 13.9267 12.1463 14Z" fill="currentColor"/>
</svg>
