<svg width="24" height="24" viewBox="0 0 24 24" fill="none" xmlns="http://www.w3.org/2000/svg">
<path fill-rule="evenodd" clip-rule="evenodd" d="M13 4.5H11C6.85786 4.5 3.5 7.85786 3.5 12V17C3.5 18.3807 4.61929 19.5 6 19.5H13C17.1421 19.5 20.5 16.1421 20.5 12C20.5 7.85786 17.1421 4.5 13 4.5ZM11 3H13C17.9706 3 22 7.02944 22 12C22 16.9706 17.9706 21 13 21H6C3.79086 21 2 19.2091 2 17V12C2 7.02944 6.02944 3 11 3Z" fill="color2"/>
<path d="M14.5303 12.4697C14.8232 12.7626 14.8232 13.2374 14.5303 13.5303L13.2374 14.8232C12.554 15.5066 11.446 15.5066 10.7626 14.8232L9.46967 13.5303C9.17678 13.2374 9.17678 12.7626 9.46967 12.4697C9.76256 12.1768 10.2374 12.1768 10.5303 12.4697L11.25 13.1893V9C11.25 8.58579 11.5858 8.25 12 8.25C12.4142 8.25 12.75 8.58579 12.75 9V13.1893L13.4697 12.4697C13.7626 12.1768 14.2374 12.1768 14.5303 12.4697Z" fill="color1"/>
</svg>
