<svg width="20" height="20" viewBox="0 0 20 20" fill="none" xmlns="http://www.w3.org/2000/svg">
<path fill-rule="evenodd" clip-rule="evenodd" d="M12.1822 16.7408C11.4948 16.9632 10.7614 17.0834 9.99996 17.0834C9.172 17.0834 8.37722 16.9413 7.63867 16.6802C6.99012 16.4504 6.38516 16.1282 5.83826 15.7287C5.98153 15.509 6.20808 15.2717 6.55287 15.0392C7.44672 14.4466 8.69481 14.1126 10.006 14.1126C11.3185 14.1126 12.5612 14.4472 13.4449 15.038C13.7907 15.2709 14.0178 15.5086 14.1613 15.7287C13.5644 16.1647 12.8985 16.5086 12.1822 16.7408ZM15.1103 14.9049C14.8694 14.5784 14.5457 14.2721 14.1414 14.0001C11.8748 12.4834 8.14143 12.4834 5.8581 14.0001C5.45395 14.272 5.13026 14.5782 4.88937 14.9047C3.66756 13.6319 2.91663 11.9037 2.91663 10C2.91663 6.088 6.08794 2.91669 9.99996 2.91669C13.912 2.91669 17.0833 6.088 17.0833 10C17.0833 11.9038 16.3323 13.6321 15.1103 14.9049ZM11.8632 18.1243C15.5686 17.278 18.3333 13.9619 18.3333 10C18.3333 5.39765 14.6023 1.66669 9.99996 1.66669C5.39759 1.66669 1.66663 5.39765 1.66663 10C1.66663 13.8508 4.27848 17.0915 7.82728 18.0473C8.51943 18.234 9.24755 18.3334 9.99976 18.3334C10.6409 18.3334 11.2645 18.2612 11.8632 18.1243ZM10.1219 11.6667C11.9105 11.6056 13.3231 10.14 13.3333 8.33844C13.3333 6.4962 11.8394 5.00002 9.99996 5.00002C8.15037 5.00002 6.66663 6.4962 6.66663 8.33844C6.66663 10.14 8.08939 11.6056 9.87801 11.6667C9.95931 11.6565 10.0508 11.6565 10.1219 11.6667ZM9.85288 10.414C8.76934 10.3421 7.91663 9.443 7.91663 8.33844C7.91663 7.18227 8.845 6.25002 9.99996 6.25002C11.1461 6.25002 12.0814 7.18286 12.0833 8.33493C12.0752 9.44836 11.2248 10.3409 10.1497 10.4138C10.0491 10.4071 9.94851 10.4077 9.85288 10.414Z" fill="currentColor"/>
</svg>
