<svg width="70" height="77" viewBox="0 0 70 77" fill="none" xmlns="http://www.w3.org/2000/svg">
<g opacity="0.3">
<g clip-path="url(#clip0_3278_391)">
<path d="M20.9487 36.1557C20.9487 45.2616 28.3305 52.6434 37.4364 52.6434C46.5424 52.6434 53.9242 45.2616 53.9242 36.1557C53.9242 27.0498 46.5424 19.668 37.4364 19.668C28.335 19.6782 20.9589 27.0542 20.9487 36.1557ZM37.4364 37.1976C34.7004 37.2129 32.382 35.1865 32.0319 32.4728C31.6819 29.7597 33.4098 27.2104 36.0605 26.5314V25.1375C36.0605 24.5063 36.5718 23.9949 37.2031 23.9949C37.8343 23.9949 38.3457 24.5063 38.3457 25.1375V26.4619C40.9383 26.9006 42.8308 29.1546 42.8142 31.7848C42.8142 32.4084 42.3085 32.914 41.6849 32.914C41.0613 32.914 40.5557 32.4084 40.5557 31.7848C40.5538 30.0587 39.1536 28.661 37.4275 28.663C35.7015 28.6649 34.3038 30.0657 34.3063 31.7918C34.3083 33.5172 35.7091 34.9149 37.4352 34.9123C40.2337 34.9283 42.5579 37.0758 42.7944 39.8648C43.031 42.6531 41.1015 45.1615 38.3457 45.6487V47.0106C38.3457 47.6419 37.8343 48.1532 37.2031 48.1532C36.5718 48.1532 36.0605 47.6419 36.0605 47.0106V45.5785C33.6725 44.9479 32.0039 42.7953 31.9879 40.3258C31.9879 39.6875 32.5057 39.1697 33.144 39.1697C33.7822 39.1697 34.3 39.6875 34.3 40.3258C34.3038 41.9217 35.5064 43.2601 37.0928 43.4342C37.1514 43.4246 37.2114 43.4202 37.2713 43.4195C37.3574 43.4195 37.4428 43.4297 37.527 43.4488C39.2409 43.4068 40.601 41.9925 40.5761 40.2786C40.5513 38.564 39.1504 37.1899 37.4364 37.1976Z" fill="currentColor"/>
<path d="M10.9758 60.5047C10.9841 60.5092 10.993 60.5136 11.0026 60.5181L21.6095 65.5292C21.4953 66.1164 21.4456 66.7139 21.4615 67.312C21.4781 67.9305 21.9844 68.4234 22.6029 68.4234C22.6137 68.4234 22.6246 68.4234 22.6354 68.4234L38.159 67.9962C38.7903 67.9789 39.2876 67.4535 39.2704 66.8223C39.2532 66.191 38.7271 65.6937 38.0965 65.7109L23.8271 66.1037C24.3002 63.3383 26.6582 61.2903 29.4624 61.2086L38.9057 60.9491C40.7707 60.8956 42.5994 60.4231 44.2566 59.5667L45.2175 59.0694C49.9366 56.6107 55.6229 56.9308 60.036 59.9041L60.4141 73.6417L58.7913 72.7726C57.1788 71.9054 55.292 71.6988 53.5296 72.1968L37.5035 76.6953C34.4149 77.3278 31.2051 76.9695 28.3319 75.67L6.12918 61.3081C7.39614 60.0112 9.35812 59.6853 10.9758 60.5047Z" fill="currentColor"/>
<path d="M70.8428 76.028L70.2798 55.5889L62.2087 55.8114L62.7717 76.2505L70.8428 76.028Z" fill="currentColor"/>
<path d="M36.3642 13.5483V1.14262C36.3642 0.511375 36.8755 0 37.5068 0C38.138 0 38.6494 0.511375 38.6494 1.14262V13.5483C38.6494 14.1795 38.138 14.6909 37.5068 14.6909C36.8755 14.6909 36.3642 14.1795 36.3642 13.5483Z" fill="currentColor"/>
<path d="M26.5702 13.5483V7.67192C26.5702 7.04067 27.0816 6.5293 27.7128 6.5293C28.3441 6.5293 28.8555 7.04067 28.8555 7.67192V13.5483C28.8555 14.1795 28.3441 14.6909 27.7128 14.6909C27.0816 14.6909 26.5702 14.1795 26.5702 13.5483Z" fill="currentColor"/>
<path d="M46.1581 13.5483V7.67192C46.1581 7.04067 46.6695 6.5293 47.3007 6.5293C47.932 6.5293 48.4434 7.04067 48.4434 7.67192V13.5483C48.4434 14.1795 47.932 14.6909 47.3007 14.6909C46.6695 14.6909 46.1581 14.1795 46.1581 13.5483Z" fill="currentColor"/>
</g>
</g>
<defs>
<clipPath id="clip0_3278_391">
<rect width="70" height="77" rx="2" transform="matrix(-1 0 0 1 70 0)" fill="white"/>
</clipPath>
</defs>
</svg>
