<svg width="32" height="32" viewBox="0 0 32 32" fill="none" xmlns="http://www.w3.org/2000/svg">
<path d="M28.7792 10.6267L29.3333 10.0726L21.9271 2.6665L21.3731 3.22057C20.5696 4.02406 19.2623 4.024 18.4587 3.22057L17.9046 2.6665L2.66663 17.9045L3.22064 18.4586C4.02413 19.2621 4.02413 20.5695 3.22064 21.373L2.66663 21.927L10.0728 29.3332L10.6268 28.7791C11.4303 27.9756 12.7377 27.9757 13.5412 28.7791L14.0953 29.3332L29.3333 14.0951L28.7793 13.5411C27.9757 12.7376 27.9757 11.4302 28.7792 10.6267ZM25.3893 15.823L24.3523 14.8379L23.273 15.9741L24.2808 16.9314L14.035 27.1772C13.4425 26.7992 12.7632 26.6101 12.084 26.6101C11.4049 26.6101 10.7256 26.7992 10.133 27.1772L4.82262 21.8668C5.57861 20.6817 5.57861 19.1499 4.82262 17.9648L15.0694 7.71801L16.1312 8.83239L17.2656 7.75135L16.1778 6.60963L17.9649 4.82249C19.1499 5.57854 20.6818 5.57854 21.8669 4.82249L27.1773 10.1329C26.4213 11.318 26.4213 12.8498 27.1773 14.0349L25.3893 15.823Z" fill="currentColor"/>
<path d="M17.3606 10.0654L18.4685 8.9575L20.1974 10.6864L19.0895 11.7943L17.3606 10.0654Z" fill="currentColor"/>
<path d="M20.3077 13.0132L21.4157 11.9053L23.1445 13.6341L22.0366 14.7421L20.3077 13.0132Z" fill="currentColor"/>
<path d="M12.0131 14.2075L13.1641 13.7377L16.2652 21.3346L15.1142 21.8044L12.0131 14.2075Z" fill="currentColor"/>
<path d="M12.1435 16.7532C11.3619 15.9715 10.1513 15.9104 9.44492 16.6168C8.73852 17.3232 8.79966 18.5338 9.58128 19.3154C10.3629 20.097 11.5735 20.1582 12.2799 19.4518C12.9863 18.7453 12.9251 17.5348 12.1435 16.7532ZM11.4009 18.5728C11.1829 18.7908 10.7521 18.7283 10.4602 18.4364C10.1683 18.1445 10.1059 17.7137 10.3239 17.4957C10.5419 17.2777 10.9726 17.3401 11.2646 17.6321C11.5565 17.924 11.6189 18.3548 11.4009 18.5728Z" fill="currentColor"/>
<path d="M16.0377 16.2301C15.3313 16.9365 15.3925 18.147 16.1741 18.9286C16.9557 19.7103 18.1663 19.7715 18.8727 19.0651C19.5791 18.3587 19.5179 17.1481 18.7363 16.3665C17.9547 15.5848 16.7441 15.5237 16.0377 16.2301ZM17.9937 18.1861C17.7757 18.4041 17.345 18.3416 17.053 18.0497C16.7611 17.7578 16.6987 17.327 16.9166 17.109C17.1346 16.891 17.5654 16.9535 17.8573 17.2454C18.1492 17.5373 18.2117 17.9681 17.9937 18.1861Z" fill="currentColor"/>
</svg>
