<svg width="35" height="46" viewBox="0 0 35 46" fill="none" xmlns="http://www.w3.org/2000/svg">
<path d="M13.5 42.2713L21.5514 45.4612L20.2882 36.8935L13.5 42.2713ZM1.08763 2.01616C2.15033 1.89114 3.19031 1.81148 4.20685 1.77442L4.1522 0.275419C3.09466 0.313974 2.01445 0.396777 0.912369 0.526433L1.08763 2.01616ZM8.37992 1.86509C10.5462 2.04298 12.5863 2.42245 14.4922 2.97107L14.9071 1.5296C12.9042 0.953041 10.7661 0.555994 8.50268 0.370125L8.37992 1.86509ZM18.3788 4.39885C20.3314 5.28345 22.1029 6.35924 23.6808 7.57911L24.5983 6.39238C22.928 5.10117 21.0564 3.96514 18.9978 3.03252L18.3788 4.39885ZM26.7254 10.3575C28.1718 11.916 29.3674 13.6118 30.2953 15.3799L31.6235 14.6828C30.6328 12.7951 29.3598 10.9909 27.8248 9.33708L26.7254 10.3575ZM31.8441 19.1742C32.4424 21.1895 32.7042 23.2345 32.611 25.2256L34.1094 25.2957C34.2109 23.1258 33.925 20.9129 33.2821 18.7473L31.8441 19.1742ZM31.9152 29.2125C31.3243 31.103 30.3599 32.8894 28.996 34.4895L30.1375 35.4626C31.6349 33.706 32.6968 31.7401 33.3469 29.66L31.9152 29.2125ZM26.001 37.225C24.4707 38.3215 22.6546 39.2638 20.5343 40.0008L21.0267 41.4176C23.2711 40.6375 25.2176 39.6316 26.8746 38.4444L26.001 37.225Z" fill="white"/>
</svg>
