<svg width="24" height="24" viewBox="0 0 24 24" fill="none" xmlns="http://www.w3.org/2000/svg">
<g clip-path="url(#clip0_139_65976)">
<rect width="24" height="24" rx="12" fill="white"/>
<g clip-path="url(#clip1_139_65976)">
<path d="M-13.8646 -8H37.3542C39.0833 -7.98958 40.4896 -6.57292 40.4896 -4.84375V28.8333C40.4896 30.5625 39.0833 31.9792 37.3542 31.9896H-13.8646C-15.5938 31.9896 -17 30.5729 -17 28.8437V-4.84375C-17 -6.57292 -15.5938 -7.98958 -13.8646 -8Z" fill="#DA251D"/>
<path d="M11.75 4L9.28125 11.6042L14.3542 13.25L11.75 4Z" fill="#FFFF00"/>
<path d="M11.7502 4L14.2189 11.6042L9.146 13.25L11.7502 4Z" fill="#FFFF00"/>
<path d="M19.354 9.53125H11.354V14.8646L19.354 9.53125Z" fill="#FFFF00"/>
<path d="M19.3542 9.53125L12.8854 14.2292L9.75 9.91667L19.3542 9.53125Z" fill="#FFFF00"/>
<path d="M16.4479 18.4688L13.9792 10.8646L8.90625 12.5104L16.4479 18.4688Z" fill="#FFFF00"/>
<path d="M16.4478 18.4688L9.979 13.7708L13.1144 9.45834L16.4478 18.4688Z" fill="#FFFF00"/>
<path d="M4.146 9.53125H12.146V14.8646L4.146 9.53125Z" fill="#FFFF00"/>
<path d="M4.146 9.53125L10.6147 14.2292L13.7502 9.91667L4.146 9.53125Z" fill="#FFFF00"/>
<path d="M7.05225 18.4688L9.52099 10.8646L14.5939 12.5104L7.05225 18.4688Z" fill="#FFFF00"/>
<path d="M7.05225 18.4688L13.521 13.7708L10.3856 9.45834L7.05225 18.4688Z" fill="#FFFF00"/>
</g>
</g>
<defs>
<clipPath id="clip0_139_65976">
<rect width="24" height="24" rx="12" fill="white"/>
</clipPath>
<clipPath id="clip1_139_65976">
<rect width="57.5" height="40" fill="white" transform="translate(-17 -8)"/>
</clipPath>
</defs>
</svg>
