<svg width="16" height="16" viewBox="0 0 16 16" fill="none" xmlns="http://www.w3.org/2000/svg">
<path fill-rule="evenodd" clip-rule="evenodd" d="M4.17376 1.51136C2.72995 1.5764 1.58213 2.72545 1.50994 4.16357L1.33669 7.77694C1.29337 8.75255 1.66154 9.69925 2.34735 10.3858L5.61756 13.6595C6.96029 15.0037 9.14043 15.0037 10.4904 13.6595L13.6595 10.487C15.0023 9.14279 15.0023 6.96032 13.6595 5.60892L10.3821 2.34243C9.6963 1.65589 8.75061 1.28733 7.78326 1.33791L4.17376 1.51136ZM12.9517 6.31529L12.9502 6.31375L9.67462 3.04916C9.18638 2.5604 8.51568 2.30098 7.83548 2.33655L7.83126 2.33677L4.21876 2.51035C3.29241 2.55208 2.55566 3.28772 2.50873 4.21272L2.50868 4.2137L2.3357 7.82129L2.33563 7.82291C2.30521 8.51823 2.56791 9.19162 3.05483 9.67906L6.32504 12.9528C7.27583 13.9046 8.82301 13.9076 9.78391 12.9518L9.7848 12.9509L12.952 9.78024C13.9032 8.82805 13.9064 7.27785 12.9517 6.31529ZM6.48983 7.1509C6.85802 7.1509 7.15649 6.85242 7.15649 6.48423C7.15649 6.11604 6.85802 5.81757 6.48983 5.81757C6.12164 5.81757 5.82316 6.11604 5.82316 6.48423C5.82316 6.85242 6.12164 7.1509 6.48983 7.1509ZM8.15649 6.48423C8.15649 7.40471 7.4103 8.1509 6.48983 8.1509C5.56935 8.1509 4.82316 7.40471 4.82316 6.48423C4.82316 5.56376 5.56935 4.81757 6.48983 4.81757C7.4103 4.81757 8.15649 5.56376 8.15649 6.48423ZM11.8434 9.17112C12.0386 8.97586 12.0386 8.65927 11.8434 8.46401C11.6481 8.26875 11.3315 8.26875 11.1363 8.46401L8.46961 11.1307C8.27435 11.3259 8.27435 11.6425 8.46961 11.8378C8.66487 12.033 8.98145 12.033 9.17671 11.8378L11.8434 9.17112Z" fill="currentColor"/>
</svg>
