<svg width="24" height="24" viewBox="0 0 24 24" fill="none" xmlns="http://www.w3.org/2000/svg">
<path fill-rule="evenodd" clip-rule="evenodd" d="M21.0899 15.42V8.58002C21.0899 7.45003 20.4896 6.41999 19.519 5.84999L13.5758 2.42C12.5953 1.86 11.3946 1.86 10.424 2.42L4.48078 5.84999C3.51025 6.41999 2.90991 7.46002 2.90991 8.58002V15.42C2.90991 16.55 3.51025 17.59 4.48078 18.15L10.424 21.58C11.4046 22.14 12.6053 22.14 13.5758 21.58L19.519 18.15C20.4896 17.58 21.0899 16.54 21.0899 15.42ZM11.9999 6.77273C12.3764 6.77273 12.6817 7.07799 12.6817 7.45455V13.8182C12.6817 14.1947 12.3764 14.5 11.9999 14.5C11.6234 14.5 11.3182 14.1947 11.3182 13.8182V7.45455C11.3182 7.07799 11.6234 6.77273 11.9999 6.77273ZM11.9999 15.6364C12.5019 15.6364 12.9089 16.0434 12.9089 16.5455V16.6364C12.9089 17.1384 12.5019 17.5455 11.9999 17.5455C11.4979 17.5455 11.0909 17.1384 11.0909 16.6364V16.5455C11.0909 16.0434 11.4979 15.6364 11.9999 15.6364Z" fill="#3186D6"/>
</svg>
