<svg width="24" height="24" viewBox="0 0 24 24" fill="none" xmlns="http://www.w3.org/2000/svg">
<path fill-rule="evenodd" clip-rule="evenodd" d="M4.4802 18.15L10.4241 21.58C11.4047 22.14 12.6055 22.14 13.5761 21.58L19.52 18.15C20.4906 17.58 21.091 16.54 21.091 15.42V8.58002C21.091 7.45003 20.4906 6.41999 19.52 5.84999L13.5761 2.42C12.5955 1.86 11.3947 1.86 10.4241 2.42L4.4802 5.84999C3.50958 6.41999 2.90918 7.46002 2.90918 8.58002V15.42C2.90918 16.55 3.50958 17.59 4.4802 18.15ZM5.16688 7.02813C4.61073 7.35654 4.27282 7.9506 4.27282 8.58002V15.42C4.27282 16.0652 4.61532 16.6537 5.16166 16.9689L11.1003 20.3958L11.1026 20.3972C11.6658 20.7177 12.3486 20.7139 12.8946 20.3989L18.8333 16.9719C19.3894 16.6435 19.7274 16.0494 19.7274 15.42V8.58002C19.7274 7.94301 19.3915 7.35772 18.8333 7.02813L12.8999 3.60416L12.8976 3.60285C12.3343 3.28226 11.6516 3.28613 11.1056 3.60109L5.16688 7.02813ZM12.0001 6.77283C12.3767 6.77283 12.6819 7.07809 12.6819 7.45465V13.8183C12.6819 14.1948 12.3767 14.5001 12.0001 14.5001C11.6236 14.5001 11.3183 14.1948 11.3183 13.8183V7.45465C11.3183 7.07809 11.6236 6.77283 12.0001 6.77283ZM12.9091 16.5454C12.9091 16.0433 12.5021 15.6363 12 15.6363C11.4979 15.6363 11.0909 16.0433 11.0909 16.5454V16.6363C11.0909 17.1384 11.4979 17.5454 12 17.5454C12.5021 17.5454 12.9091 17.1384 12.9091 16.6363V16.5454Z" fill="currentColor"/>
</svg>
