<svg width="25" height="24" viewBox="0 0 25 24" fill="none" xmlns="http://www.w3.org/2000/svg">
<path fill-rule="evenodd" clip-rule="evenodd" d="M12.75 3.53846C8.07945 3.53846 4.28846 7.32945 4.28846 12C4.28846 16.6706 8.07945 20.4615 12.75 20.4615C17.4206 20.4615 21.2115 16.6706 21.2115 12C21.2115 11.5752 21.5559 11.2308 21.9808 11.2308C22.4056 11.2308 22.75 11.5752 22.75 12C22.75 17.5202 18.2702 22 12.75 22C7.22978 22 2.75 17.5202 2.75 12C2.75 6.47978 7.22978 2 12.75 2C13.1748 2 13.5192 2.3444 13.5192 2.76923C13.5192 3.19407 13.1748 3.53846 12.75 3.53846Z" fill="color2"/>
<path d="M23.2803 2.53033C23.5732 2.23744 23.5732 1.76256 23.2803 1.46967C22.9874 1.17678 22.5126 1.17678 22.2197 1.46967L18.5 5.18934V3C18.5 2.58579 18.1642 2.25 17.75 2.25C17.3358 2.25 17 2.58579 17 3V7C17 7.10169 17.0202 7.19866 17.0569 7.28709C17.0935 7.37555 17.1478 7.45842 17.2197 7.53033C17.2916 7.60224 17.3745 7.65649 17.4629 7.69309C17.5513 7.72976 17.6483 7.75 17.75 7.75H21.75C22.1642 7.75 22.5 7.41421 22.5 7C22.5 6.58579 22.1642 6.25 21.75 6.25H19.5607L23.2803 2.53033Z" fill="color2"/>
<path fill-rule="evenodd" clip-rule="evenodd" d="M11.71 7.74023H12V7.5C12 7.08579 12.3358 6.75 12.75 6.75C13.1642 6.75 13.5 7.08579 13.5 7.5V7.74023H13.59C14.9553 7.74023 16.01 8.88778 16.01 10.2402C16.01 10.6544 15.6742 10.9902 15.26 10.9902C14.8458 10.9902 14.51 10.6544 14.51 10.2402C14.51 9.65269 14.0647 9.24023 13.59 9.24023H13.5V11.4608L14.5115 11.8136C14.8639 11.9391 15.2666 12.1359 15.5674 12.5211C15.8748 12.9148 16 13.4059 16 13.9702C16 15.1979 15.0498 16.2502 13.8 16.2502H13.5V16.5C13.5 16.9142 13.1642 17.25 12.75 17.25C12.3358 17.25 12 16.9142 12 16.5V16.2502H11.92C10.5547 16.2502 9.5 15.1027 9.5 13.7502C9.5 13.336 9.83579 13.0002 10.25 13.0002C10.6642 13.0002 11 13.336 11 13.7502C11 14.3378 11.4453 14.7502 11.92 14.7502H12V12.5262L10.9985 12.1768C10.6508 12.0531 10.2463 11.8597 9.9439 11.4747C9.63434 11.0805 9.51001 10.5877 9.51001 10.0202C9.51001 8.80584 10.457 7.74023 11.71 7.74023ZM11.71 9.24023C11.3629 9.24023 11.01 9.55462 11.01 10.0202C11.01 10.3728 11.0857 10.5 11.1236 10.5483C11.1686 10.6056 11.2586 10.677 11.4994 10.7629L12 10.9375V9.24023H11.71ZM13.5 14.7502V13.0494L14.0106 13.2276C14.2467 13.3118 14.3386 13.3847 14.3851 13.4443C14.4252 13.4956 14.5 13.6246 14.5 13.9702C14.5 14.4425 14.1502 14.7502 13.8 14.7502H13.5Z" fill="color1"/>
</svg>
