<svg width="151" height="85" viewBox="0 0 151 85" fill="none" xmlns="http://www.w3.org/2000/svg">
<path d="M57.2799 52.4197C53.831 52.4197 49.2323 50.1759 49.2323 43.5931C49.2323 36.8163 54.2867 34.7691 57.3046 34.7691C58.8656 34.7117 60.4153 35.0573 61.8072 35.7732L60.5064 38.1869C59.7464 37.8665 58.9343 37.6908 58.111 37.6686C55.5316 37.6686 53.4047 40.1015 53.4047 43.5715C53.4047 46.4529 55.3444 49.3484 58.079 49.3484C58.8878 49.3813 59.6912 49.2021 60.4111 48.8285L61.7932 51.4039C60.3291 52.1538 58.6962 52.5039 57.0566 52.4197" fill="white"/>
<path d="M96.5393 52.0528V40.1732C96.5692 39.8718 96.5339 39.5676 96.436 39.2813C96.3381 38.995 96.1799 38.7335 95.9722 38.515C95.7646 38.2964 95.5125 38.1259 95.2333 38.0153C94.954 37.9046 94.6544 37.8564 94.355 37.874C93.9872 37.8526 93.6195 37.9153 93.2791 38.0575C92.9387 38.1996 92.6344 38.4175 92.389 38.6948V52.0528H88.1936V40.1077C88.2062 39.8087 88.157 39.5103 88.0491 39.2315C87.9413 38.9527 87.7771 38.6996 87.567 38.4883C87.3202 38.2702 87.033 38.1037 86.7221 37.9983C86.4112 37.8928 86.0827 37.8505 85.7555 37.874C85.1555 37.8685 84.5596 37.9753 83.9981 38.189V52.0528H79.8347V35.6053C81.4481 35.1858 83.0954 34.9131 84.7569 34.7903C86.103 34.6908 87.4554 34.8564 88.7389 35.2778C89.4104 35.5459 90.0156 35.9594 90.5118 36.4892C91.0731 35.9781 91.7206 35.5726 92.4235 35.2919C93.4013 34.9275 94.44 34.7586 95.4816 34.7944C96.9368 34.7805 98.3387 35.3465 99.3831 36.3698C99.8434 36.8846 100.199 37.4861 100.429 38.1398C100.659 38.7934 100.759 39.4864 100.723 40.1791V52.0586L96.5393 52.0528Z" fill="white"/>
<path d="M78.401 72.3029C78.401 72.3029 75.7584 72.6346 73.9617 72.6346C67.8028 72.6346 65.239 70.424 65.239 66.7624C65.239 63.8603 68.1132 61.1522 74.1973 61.1522V60.3828C74.1973 59.5155 73.501 58.0677 71.0974 58.0677C69.9293 58.076 68.7782 58.3512 67.7305 58.8728C67.7132 58.8056 66.3583 56.2916 66.3583 56.2916C68.1295 55.4027 70.0891 54.9649 72.0664 55.0163C75.0908 55.0163 78.4026 56.6847 78.4026 60.3828L78.401 72.3029ZM74.2006 63.3355C70.9208 63.3355 69.3712 64.4863 69.3712 66.7657C69.362 67.2095 69.4446 67.6503 69.6136 68.06C69.7826 68.4697 70.0344 68.8393 70.3528 69.1453C70.6713 69.4512 71.0494 69.6868 71.4631 69.8369C71.8767 69.987 72.3169 70.0483 72.7553 70.0169C73.2447 70.0158 73.7314 69.9439 74.2006 69.8038V63.3355Z" fill="white"/>
<path d="M62.997 70.2468C61.6552 71.7136 59.2582 72.6364 55.6745 72.6364C52.9293 72.6364 49.8975 72.3047 49.8975 72.3047V53.8225C49.8975 53.8225 52.6452 53.5057 54.6234 53.5057C59.3436 53.5057 60.4629 54.3399 61.3153 54.8689C61.9558 55.2015 62.4977 55.6995 62.8857 56.3123C63.2737 56.925 63.494 57.6306 63.5243 58.3573C63.5243 61.3099 60.7913 62.081 60.0137 62.4077V62.46C60.7626 62.6266 61.4698 62.9466 62.0913 63.4003C62.7128 63.854 63.2354 64.4316 63.6269 65.0975C63.9449 65.9426 64.0535 66.8535 63.9431 67.7506C63.8328 68.6478 63.5069 69.5041 62.9938 70.245L62.997 70.2468ZM59.3428 58.4285C59.3428 56.8697 58.2194 56.0886 56.1139 56.0886C55.4314 56.0844 54.7507 56.1582 54.0847 56.3083V61.5023H54.6595C58.5421 61.5023 59.3469 59.9534 59.3469 58.4285H59.3428ZM59.8815 67.0693C59.8815 65.6125 59.2943 63.6399 54.6595 63.6399H54.0847V69.8231C55.5127 70.1827 57.0184 70.0553 58.3672 69.4607C58.8167 69.2465 59.197 68.9083 59.4642 68.4852C59.7315 68.062 59.8747 67.5712 59.8774 67.0693" fill="white"/>
<path d="M89.8531 72.3021V61.8463C89.8531 59.6539 89.5246 58.5702 87.7517 58.1688C86.8459 58.0455 85.9243 58.1306 85.0557 58.4176V72.3021H80.903V55.8413C82.5087 55.4545 84.1427 55.1986 85.789 55.076C88.8972 54.9152 90.4452 55.2925 91.9857 56.3198C92.6187 56.7723 93.1337 57.3729 93.4866 58.0703C93.8396 58.7676 94.02 59.5408 94.0124 60.3239V72.3021H89.8531Z" fill="white"/>
<path d="M77.7292 43.5992C77.7292 38.0686 74.8402 34.7727 69.8392 34.7727C64.8382 34.7727 61.8441 38.0686 61.8441 43.5992C61.8441 49.1298 64.8423 52.4266 69.8392 52.4266C74.8361 52.4266 77.7292 49.1339 77.7292 43.5992ZM73.528 43.5992C73.528 48.09 71.5571 49.3694 69.8392 49.3694C68.1213 49.3694 66.0453 48.09 66.0453 43.5992C66.0453 39.1084 68.127 37.8307 69.8392 37.8307C71.5514 37.8307 73.528 39.1134 73.528 43.5992Z" fill="white"/>
<path d="M106.272 72.3039L100.703 65.6705H100.665L100.719 72.3039H96.5376V53.8382H100.719L100.665 60.9384H100.723L105.602 55.4095H111.303L103.524 63.2916L111.856 72.3039H106.272Z" fill="white"/>
<path d="M100.756 31.3425C99.5597 32.704 102.377 34.286 104.2 34.9568C107.185 36.0088 110.291 36.673 113.442 36.9336L113.432 27.3525C107.43 27.971 102.701 29.4627 100.756 31.3425Z" fill="url(#paint0_linear_4107_19862)"/>
<path d="M29.0443 36.7414C29.0713 39.1061 28.2118 41.3937 26.6382 43.1452C24.9285 44.7596 23.2927 45.3201 19.0315 45.2454H18.258V52.053H12.3898V28.497C12.3898 28.497 15.5768 28.1173 18.9281 28.0974C23.6589 28.0709 25.5058 28.9539 26.9018 30.2947C27.957 31.3104 29.0443 33.8029 29.0443 36.7414ZM23.2787 36.6287C23.2787 32.3518 21.1675 31.3312 19.7197 31.254C19.1818 31.2267 18.258 31.2806 18.258 31.2806V41.9445H19.0562C21.027 41.9445 23.2787 40.3318 23.2787 36.6287Z" fill="#0072BC"/>
<path d="M42.8417 52.0507H37.8891L29.5721 28.4383H36.6344C36.6344 28.4383 40.5071 42.4513 40.5522 42.7714H40.5892C40.6344 42.4505 44.6713 28.4383 44.6713 28.4383H51.1193L42.8417 52.0507Z" fill="#0072BC"/>
<path d="M125.647 39.1235C131.648 38.5082 136.378 37.0165 138.325 35.1351C139.518 33.7744 136.7 32.1933 134.876 31.5217C131.89 30.4696 128.785 29.8051 125.633 29.5441L125.647 39.1235Z" fill="url(#paint1_linear_4107_19862)"/>
<path d="M119.547 39.4307C111.302 39.439 104.238 37.8553 101.282 35.6165C101.256 35.5991 101.242 35.6165 101.236 35.6223C101.237 35.6348 101.241 35.647 101.248 35.6571L119.568 54.1195L138.354 35.1024C135.819 37.5999 128.364 39.4233 119.549 39.4324" fill="url(#paint2_linear_4107_19862)"/>
<path d="M101.236 35.6605C101.237 35.6735 101.241 35.6863 101.248 35.697V35.6555L101.243 35.6514L101.239 35.6571L101.236 35.6605ZM119.551 39.4307C111.306 39.439 104.242 37.8553 101.286 35.6165C101.26 35.5991 101.246 35.6165 101.241 35.6223C101.24 35.6329 101.243 35.6434 101.247 35.653C101.255 35.6455 101.267 35.643 101.286 35.6571C104.242 38.0932 111.304 39.803 119.551 39.7964C128.368 39.7865 135.823 37.8064 138.357 35.1024C135.822 37.5999 128.366 39.4233 119.551 39.4324" fill="url(#paint3_linear_4107_19862)"/>
<path d="M125.636 29.8732C128.767 30.1206 131.857 30.7439 134.842 31.7298C136.377 32.2596 138.611 33.388 138.609 34.4958C138.675 33.3101 136.419 32.0913 134.879 31.5217C131.894 30.4696 128.788 29.8051 125.636 29.5441V29.8732Z" fill="url(#paint4_linear_4107_19862)"/>
<path d="M100.726 31.3798C103.257 28.884 110.715 27.0582 119.531 27.0482C127.772 27.0408 134.837 28.6187 137.792 30.8624C137.818 30.8823 137.832 30.8682 137.836 30.8624C137.838 30.8501 137.836 30.8374 137.829 30.8268L119.509 12.3636L100.726 31.3798Z" fill="url(#paint5_linear_4107_19862)"/>
<path d="M137.833 30.8272V30.8313L137.839 30.8205C137.841 30.8079 137.838 30.7951 137.832 30.784L137.833 30.8272ZM119.534 26.6879C110.716 26.6962 103.258 28.6779 100.729 31.381C103.261 28.8852 110.719 27.0594 119.534 27.0494C127.776 27.042 134.84 28.6198 137.796 30.8636C137.821 30.8835 137.835 30.8694 137.839 30.8636C137.841 30.8582 137.841 30.8526 137.84 30.8472C137.839 30.8417 137.837 30.8366 137.834 30.8321C137.827 30.8379 137.814 30.8421 137.796 30.8272C134.845 28.3977 127.808 26.6896 119.59 26.6888H119.534" fill="url(#paint6_linear_4107_19862)"/>
<path d="M119.568 53.869L101.285 35.6149C101.259 35.5975 101.245 35.6148 101.24 35.6207C101.24 35.6332 101.244 35.6453 101.251 35.6555L119.571 54.1178L138.357 35.1008L119.568 53.869Z" fill="url(#paint7_linear_4107_19862)"/>
<path d="M104.2 34.9589C107.185 36.0109 110.291 36.6751 113.442 36.9357V36.604C110.312 36.3559 107.222 35.7322 104.239 34.7459C102.703 34.216 100.47 33.0875 100.473 31.9781C100.405 33.1655 102.661 34.3827 104.202 34.9548" fill="url(#paint8_linear_4107_19862)"/>
<defs>
<linearGradient id="paint0_linear_4107_19862" x1="111.613" y1="37.9971" x2="108.3" y2="27.3694" gradientUnits="userSpaceOnUse">
<stop stop-color="#0071BB"/>
<stop offset="0.218" stop-color="#0274BD"/>
<stop offset="0.414" stop-color="#0B7FC4"/>
<stop offset="0.603" stop-color="#1A91D0"/>
<stop offset="0.785" stop-color="#2EABE1"/>
<stop offset="0.936" stop-color="#44C7F4"/>
</linearGradient>
<linearGradient id="paint1_linear_4107_19862" x1="132.602" y1="37.4662" x2="129.845" y2="28.6191" gradientUnits="userSpaceOnUse">
<stop stop-color="#FFDD00"/>
<stop offset="0.097" stop-color="#FFDD00"/>
<stop offset="0.223" stop-color="#FDD403"/>
<stop offset="0.43" stop-color="#FBBB0B"/>
<stop offset="0.689" stop-color="#F69419"/>
<stop offset="0.801" stop-color="#F48120"/>
<stop offset="1" stop-color="#F48120"/>
</linearGradient>
<linearGradient id="paint2_linear_4107_19862" x1="101.236" y1="44.611" x2="138.354" y2="44.611" gradientUnits="userSpaceOnUse">
<stop offset="0.038" stop-color="#FFDD00"/>
<stop offset="0.283" stop-color="#FBC109"/>
<stop offset="0.769" stop-color="#F48120"/>
</linearGradient>
<linearGradient id="paint3_linear_4107_19862" x1="101.236" y1="37.4494" x2="138.357" y2="37.4494" gradientUnits="userSpaceOnUse">
<stop stop-color="#EAC900"/>
<stop offset="0.491" stop-color="#F48120"/>
</linearGradient>
<linearGradient id="paint4_linear_4107_19862" x1="125.636" y1="32.0199" x2="138.61" y2="32.0199" gradientUnits="userSpaceOnUse">
<stop stop-color="#F48120"/>
<stop offset="0.13" stop-color="#F48120"/>
<stop offset="0.509" stop-color="#F48120"/>
<stop offset="1" stop-color="#EAC900"/>
</linearGradient>
<linearGradient id="paint5_linear_4107_19862" x1="100.726" y1="21.8717" x2="137.837" y2="21.8717" gradientUnits="userSpaceOnUse">
<stop offset="0.16" stop-color="#0071BB"/>
<stop offset="0.366" stop-color="#1186C9"/>
<stop offset="1" stop-color="#44C7F4"/>
</linearGradient>
<linearGradient id="paint6_linear_4107_19862" x1="100.729" y1="29.0344" x2="137.841" y2="29.0344" gradientUnits="userSpaceOnUse">
<stop stop-color="#005CA6"/>
<stop offset="0.16" stop-color="#005CA6"/>
<stop offset="0.406" stop-color="#0077BC"/>
<stop offset="1" stop-color="#00B8F1"/>
</linearGradient>
<linearGradient id="paint7_linear_4107_19862" x1="101.24" y1="44.6093" x2="138.357" y2="44.6093" gradientUnits="userSpaceOnUse">
<stop stop-color="#E8C81C"/>
<stop offset="0.769" stop-color="#DC7727"/>
</linearGradient>
<linearGradient id="paint8_linear_4107_19862" x1="100.471" y1="34.4569" x2="113.442" y2="34.4569" gradientUnits="userSpaceOnUse">
<stop stop-color="#1B92D0"/>
<stop offset="0.84" stop-color="#015DA6"/>
<stop offset="1" stop-color="#015DA6"/>
</linearGradient>
</defs>
</svg>
