<svg width="24" height="24" viewBox="0 0 24 24" fill="none" xmlns="http://www.w3.org/2000/svg">
<path fill-rule="evenodd" clip-rule="evenodd" d="M5 11.75C5 11.3358 5.33579 11 5.75 11L18.25 11C18.6642 11 19 11.3358 19 11.75C19 12.1642 18.6642 12.5 18.25 12.5L5.75 12.5C5.33579 12.5 5 12.1642 5 11.75Z" fill="currentColor"/>
<path fill-rule="evenodd" clip-rule="evenodd" d="M12 5C12.4142 5 12.75 5.33579 12.75 5.75V18.25C12.75 18.6642 12.4142 19 12 19C11.5858 19 11.25 18.6642 11.25 18.25V5.75C11.25 5.33579 11.5858 5 12 5Z" fill="currentColor"/>
</svg>
