<svg width="20" height="20" viewBox="0 0 20 20" fill="none" xmlns="http://www.w3.org/2000/svg">
<path fill-rule="evenodd" clip-rule="evenodd" d="M15.9118 7.28144C17.1638 6.0013 17.728 4.54194 15.7796 2.75828C13.8399 0.991683 12.3676 1.61468 11.1156 2.89482L3.87729 10.3111C3.60398 10.5927 3.33949 11.1475 3.28659 11.5315L2.96038 14.2966C2.84576 15.2951 3.58635 15.9779 4.60906 15.8072L7.44798 15.3378C7.84472 15.2695 8.40016 14.9879 8.67347 14.6977L15.9118 7.28144ZM7.22668 14.1065C7.23577 14.1048 7.26842 14.0974 7.3227 14.0777C7.37828 14.0577 7.44162 14.0301 7.50592 13.9969C7.57038 13.9635 7.62673 13.929 7.67057 13.8981C7.71232 13.8686 7.7298 13.8516 7.7298 13.8516L7.7292 13.8522L7.74473 13.836L14.984 6.41883C15.5397 5.85059 15.7445 5.43211 15.767 5.12089C15.7846 4.87649 15.7082 4.40796 14.9032 3.67061C14.1051 2.94411 13.6148 2.89144 13.3512 2.92407C13.0218 2.96485 12.5977 3.19087 12.044 3.7569L4.80855 11.1702C4.80664 11.1724 4.78757 11.1938 4.75704 11.2403C4.72578 11.2879 4.69184 11.3476 4.6597 11.4143C4.62759 11.481 4.60155 11.5458 4.58298 11.6019C4.57385 11.6296 4.56739 11.6525 4.56306 11.6702C4.56092 11.6789 4.55947 11.6857 4.55851 11.6906L4.558 11.6933L4.23447 14.4356L4.23431 14.4371C4.22548 14.5155 4.23503 14.56 4.24034 14.5773C4.25874 14.5818 4.30747 14.5893 4.39276 14.5751L4.39471 14.5748L7.22668 14.1065Z" fill="currentColor"/>
<path fill-rule="evenodd" clip-rule="evenodd" d="M1.66663 17.7083C1.66663 17.3632 1.95362 17.0833 2.30765 17.0833H17.6923C18.0463 17.0833 18.3333 17.3632 18.3333 17.7083C18.3333 18.0535 18.0463 18.3333 17.6923 18.3333H2.30765C1.95362 18.3333 1.66663 18.0535 1.66663 17.7083Z" fill="currentColor"/>
<path fill-rule="evenodd" clip-rule="evenodd" d="M11.135 4.68812C11.7248 5.93984 12.7306 6.92541 13.9552 7.47273L13.0303 8.42041C11.8428 7.79627 10.8584 6.83118 10.1969 5.64925L11.135 4.68812Z" fill="currentColor"/>
</svg>
