<svg width="24" height="24" viewBox="0 0 24 24" fill="none" xmlns="http://www.w3.org/2000/svg">
<path d="M21.7114 9.29274L13.2878 2.29703C12.4889 1.90099 11.5111 1.90099 10.7122 2.29703L2.28799 9.29305C2.28611 9.29399 2.28423 9.29493 2.28234 9.29587C2.10735 9.38285 2 9.54587 2 9.72195V21.0708C2 21.584 2.47549 22 3.06209 22H20.9379C21.5245 22 22 21.584 22 21.0708V9.72195C22 9.54587 22 9.5 21.7177 9.29587C21.7156 9.29482 21.7135 9.2938 21.7114 9.29274Z" fill="url(#paint0_linear_1349_4630)"/>
<path d="M19.1086 21.6802H4.89137C4.08961 21.6802 3.43967 21.1115 3.43967 20.4101V5.72357C3.43967 5.02212 4.08961 4.45349 4.89137 4.45349H19.1086C19.9104 4.45349 20.5603 5.02212 20.5603 5.72357V20.4101C20.5603 21.1115 19.9104 21.6802 19.1086 21.6802Z" fill="url(#paint1_linear_1349_4630)"/>
<path d="M18.6886 15.6969H5.65234V6.9599C5.65234 6.42977 6.14357 6 6.74951 6H17.5914C18.1974 6 18.6886 6.42977 18.6886 6.9599V15.6969Z" fill="url(#paint2_linear_1349_4630)"/>
<path d="M18.6886 15.6969H5.65234V17.6141C5.65234 18.1442 6.14357 18.5739 6.74951 18.5739H17.5914C18.1974 18.5739 18.6886 18.1442 18.6886 17.6141V15.6969Z" fill="url(#paint3_linear_1349_4630)"/>
<path d="M5.65234 11.5506H18.6886V15.697H5.65234V11.5506Z" fill="url(#paint4_linear_1349_4630)"/>
<path d="M17.5914 6H12.5225V18.574H17.5914C18.1974 18.574 18.6886 18.1442 18.6886 17.6141V15.697V6.9599C18.6886 6.42977 18.1974 6 17.5914 6Z" fill="url(#paint5_linear_1349_4630)"/>
<path d="M10.5258 6H13.6382V18.574H10.5258V6Z" fill="url(#paint6_linear_1349_4630)"/>
<path d="M5.65228 9.48698H18.6885V12.21H5.65228V9.48698Z" fill="url(#paint7_linear_1349_4630)"/>
<path d="M10.5258 15.6969H13.6382V18.5739H10.5258V15.6969Z" fill="url(#paint8_linear_1349_4630)"/>
<path d="M18.6886 12.21V9.48697H13.6383V7.61719C13.5197 7.75517 13.4126 7.90235 13.3193 8.05832L12.6473 9.18092C12.529 9.14324 12.4046 9.11713 12.2757 9.10387L10.5259 7.57472V9.48702H5.46075C5.57917 9.61799 5.70731 9.74118 5.84623 9.85368L8.3963 12.0863C8.32515 12.1287 8.25262 12.1696 8.17932 12.2101H10.5259V16.8197L12.5312 18.5741H13.6384V12.21H18.6886Z" fill="url(#paint9_linear_1349_4630)"/>
<path d="M18.6886 9.48698V17.6139C18.6886 18.1441 18.1977 18.5741 17.5916 18.5741H12.5313L8.22908 14.8102C8.13162 14.8035 8.04704 14.7357 8.04289 14.6427L8.01708 14.1011L6.89017 13.1239C6.7099 13.0741 6.7005 12.8552 6.87547 12.7925C7.34939 12.6219 7.78042 12.4303 8.17977 12.2099H13.6382V9.48683H18.6886V9.48698Z" fill="url(#paint10_linear_1349_4630)"/>
<path d="M17.2887 12.7925C15.6535 12.2052 14.5201 11.3614 13.5136 10.0028L11.7949 11.9148C12.8574 13.349 14.0611 14.2096 15.8474 14.8001C15.9763 14.8427 16.1155 14.763 16.1213 14.6426L16.1645 13.7346C16.1733 13.5481 16.315 13.3866 16.5184 13.3308L17.2736 13.1238C17.4541 13.0743 17.4636 12.8552 17.2887 12.7925Z" fill="url(#paint11_linear_1349_4630)"/>
<path d="M6.87539 12.7925C8.51066 12.2052 9.64398 11.3614 10.6505 10.0028L12.3692 11.9148C11.3067 13.349 10.103 14.2096 8.31668 14.8001C8.18788 14.8427 8.04862 14.763 8.04287 14.6426L7.99964 13.7346C7.9908 13.5481 7.84917 13.3866 7.64568 13.3308L6.89048 13.1238C6.71004 13.0743 6.70054 12.8552 6.87539 12.7925Z" fill="url(#paint12_linear_1349_4630)"/>
<path d="M17.2887 12.7925C15.6535 12.2052 14.5201 11.3614 13.5136 10.0028L12.0821 11.5954L10.6505 10.0028C10.3616 10.3927 10.0621 10.7401 9.74341 11.0514L11.6776 12.7436C11.8155 12.5978 11.9502 12.445 12.082 12.2838C13.0761 13.4997 14.2199 14.262 15.8474 14.8001C15.9763 14.8427 16.1155 14.763 16.1213 14.6426L16.1645 13.7346C16.1733 13.5481 16.315 13.3866 16.5184 13.3308L17.2736 13.1238C17.4541 13.0743 17.4636 12.8552 17.2887 12.7925Z" fill="url(#paint13_linear_1349_4630)"/>
<path d="M12.2053 9.9192L13.3192 8.05826C13.9569 6.99288 15.2201 6.32719 16.5946 6.33212L19.1042 6.34107C19.9445 6.34407 20.4486 7.15901 19.9917 7.77605L18.9065 9.24175C18.378 9.95562 17.5481 10.4575 16.598 10.6379L13.3656 11.2517C12.4893 11.4182 11.7893 10.6142 12.2053 9.9192Z" fill="url(#paint14_linear_1349_4630)"/>
<path d="M17.7251 8.30362C15.5021 8.29568 13.4967 9.11508 12.0871 10.4299C12.141 10.9477 12.7022 11.3777 13.3654 11.2518L16.5979 10.638C17.548 10.4576 18.3778 9.95566 18.9063 9.2418L19.4663 8.48542C18.9069 8.36978 18.3246 8.30574 17.7251 8.30362Z" fill="url(#paint15_linear_1349_4630)"/>
<path d="M11.9589 9.9192L10.845 8.05826C10.2072 6.99288 8.94407 6.32719 7.56951 6.33212L5.05996 6.34107C4.21963 6.34407 3.71558 7.15901 4.17248 7.77605L5.25765 9.24175C5.78619 9.95562 6.61607 10.4575 7.56614 10.6379L10.7985 11.2517C11.6748 11.4182 12.3749 10.6142 11.9589 9.9192Z" fill="url(#paint16_linear_1349_4630)"/>
<path d="M6.43882 8.30362C8.66185 8.29568 10.6672 9.11508 12.0768 10.4299C12.0229 10.9477 11.4617 11.3777 10.7985 11.2518L7.56606 10.638C6.616 10.4576 5.78612 9.95566 5.25763 9.2418L4.69763 8.48542C5.25702 8.36978 5.83935 8.30574 6.43882 8.30362Z" fill="url(#paint17_linear_1349_4630)"/>
<path d="M13.7337 10.518C13.7467 11.3158 13.0178 11.9719 12.1056 11.9833C11.1935 11.9946 10.4435 11.3571 10.4305 10.5592C10.4175 9.76129 11.1464 9.10527 12.0585 9.09385C12.9707 9.08249 13.7207 9.72008 13.7337 10.518Z" fill="url(#paint18_linear_1349_4630)"/>
<path d="M13.4604 10.5214C13.4713 11.1873 12.863 11.7348 12.1017 11.7443C11.3404 11.7538 10.7145 11.2217 10.7036 10.5558C10.6928 9.88988 11.3011 9.34234 12.0624 9.33286C12.8237 9.32333 13.4496 9.85549 13.4604 10.5214Z" fill="url(#paint19_linear_1349_4630)"/>
<path d="M12.7998 9.23701C12.9143 9.43009 12.9807 9.64879 12.9845 9.88109C12.9975 10.679 12.2686 11.335 11.3564 11.3464C11.0909 11.3497 10.8391 11.2979 10.6152 11.2032C10.8941 11.6733 11.459 11.9913 12.1056 11.9832C13.0177 11.9719 13.7466 11.3158 13.7336 10.5179C13.7245 9.95243 13.3448 9.46747 12.7998 9.23701Z" fill="url(#paint20_linear_1349_4630)"/>
<path d="M3.06209 22C2.47553 22 2 21.584 2 21.0708V10.087C2 10.0687 2.00063 10.0505 2.00179 10.0324C2.04554 9.37203 2.99481 9.09451 3.50952 9.57905L11.2053 16.8235C11.6108 17.2052 11.5025 17.8181 10.9842 18.0748L3.06209 22Z" fill="url(#paint21_linear_1349_4630)"/>
<path d="M20.9379 22C21.5244 22 22 21.584 22 21.0708V10.087C22 10.0687 21.9993 10.0505 21.9982 10.0324C21.9544 9.37203 21.0052 9.09451 20.4905 9.57905L12.7947 16.8235C12.3892 17.2052 12.4974 17.8181 13.0157 18.0748L20.9379 22Z" fill="url(#paint22_linear_1349_4630)"/>
<path d="M20.9379 22H3.06207C2.62191 22 2.24427 21.7657 2.08317 21.4319C1.9929 21.2448 2.08604 21.0281 2.28797 20.928L10.7122 16.7516C11.511 16.3555 12.4889 16.3555 13.2877 16.7516L21.7113 20.9277C21.9219 21.0321 22.0059 21.2598 21.9063 21.4528C21.7398 21.7755 21.3688 22 20.9379 22Z" fill="url(#paint23_linear_1349_4630)"/>
<defs>
<linearGradient id="paint0_linear_1349_4630" x1="12" y1="4.93859" x2="12" y2="11.8856" gradientUnits="userSpaceOnUse">
<stop stop-color="#9B62CD"/>
<stop offset="0.3003" stop-color="#985DCB"/>
<stop offset="0.6716" stop-color="#8F4EC7"/>
<stop offset="1" stop-color="#833AC1"/>
</linearGradient>
<linearGradient id="paint1_linear_1349_4630" x1="12" y1="4.80502" x2="12" y2="10.7503" gradientUnits="userSpaceOnUse">
<stop stop-color="#F8F6FB"/>
<stop offset="1" stop-color="#EFDCFB"/>
</linearGradient>
<linearGradient id="paint2_linear_1349_4630" x1="10.0532" y1="7.94509" x2="14.533" y2="16.9459" gradientUnits="userSpaceOnUse">
<stop stop-color="#FF7044"/>
<stop offset="1" stop-color="#F82814"/>
</linearGradient>
<linearGradient id="paint3_linear_1349_4630" x1="11.3424" y1="15.0249" x2="12.9212" y2="19.328" gradientUnits="userSpaceOnUse">
<stop stop-color="#FF7044"/>
<stop offset="1" stop-color="#F82814"/>
</linearGradient>
<linearGradient id="paint4_linear_1349_4630" x1="12.1704" y1="13.6228" x2="12.1704" y2="11.9243" gradientUnits="userSpaceOnUse">
<stop stop-color="#F82814" stop-opacity="0"/>
<stop offset="1" stop-color="#C0272D"/>
</linearGradient>
<linearGradient id="paint5_linear_1349_4630" x1="15.6643" y1="12.287" x2="13.1389" y2="12.287" gradientUnits="userSpaceOnUse">
<stop stop-color="#F82814" stop-opacity="0"/>
<stop offset="1" stop-color="#C0272D"/>
</linearGradient>
<linearGradient id="paint6_linear_1349_4630" x1="10.0272" y1="12.0152" x2="15.0432" y2="12.8819" gradientUnits="userSpaceOnUse">
<stop stop-color="#FFD945"/>
<stop offset="0.3043" stop-color="#FFCD3E"/>
<stop offset="0.8558" stop-color="#FFAD2B"/>
<stop offset="1" stop-color="#FFA325"/>
</linearGradient>
<linearGradient id="paint7_linear_1349_4630" x1="11.7449" y1="9.20753" x2="12.6221" y2="13.6269" gradientUnits="userSpaceOnUse">
<stop stop-color="#FFD945"/>
<stop offset="0.3043" stop-color="#FFCD3E"/>
<stop offset="0.8558" stop-color="#FFAD2B"/>
<stop offset="1" stop-color="#FFA325"/>
</linearGradient>
<linearGradient id="paint8_linear_1349_4630" x1="11.6042" y1="16.64" x2="12.949" y2="18.4618" gradientUnits="userSpaceOnUse">
<stop stop-color="#FFD945"/>
<stop offset="0.3043" stop-color="#FFCD3E"/>
<stop offset="0.8558" stop-color="#FFAD2B"/>
<stop offset="1" stop-color="#FFA325"/>
</linearGradient>
<linearGradient id="paint9_linear_1349_4630" x1="12.338" y1="10.7327" x2="9.24426" y2="6.42125" gradientUnits="userSpaceOnUse">
<stop stop-color="#F35227" stop-opacity="0"/>
<stop offset="1" stop-color="#F35227"/>
</linearGradient>
<linearGradient id="paint10_linear_1349_4630" x1="15.5774" y1="14.1787" x2="12.0642" y2="9.85569" gradientUnits="userSpaceOnUse">
<stop stop-color="#F82814" stop-opacity="0"/>
<stop offset="1" stop-color="#C0272D"/>
</linearGradient>
<linearGradient id="paint11_linear_1349_4630" x1="14.8409" y1="11.7076" x2="14.2922" y2="13.955" gradientUnits="userSpaceOnUse">
<stop stop-color="#FFD945"/>
<stop offset="0.3043" stop-color="#FFCD3E"/>
<stop offset="0.8558" stop-color="#FFAD2B"/>
<stop offset="1" stop-color="#FFA325"/>
</linearGradient>
<linearGradient id="paint12_linear_1349_4630" x1="8.88569" y1="11.8399" x2="10.3186" y2="13.9106" gradientUnits="userSpaceOnUse">
<stop stop-color="#FFD945"/>
<stop offset="0.3043" stop-color="#FFCD3E"/>
<stop offset="0.8558" stop-color="#FFAD2B"/>
<stop offset="1" stop-color="#FFA325"/>
</linearGradient>
<linearGradient id="paint13_linear_1349_4630" x1="13.5881" y1="12.3011" x2="13.5432" y2="10.3741" gradientUnits="userSpaceOnUse">
<stop stop-color="#F35227" stop-opacity="0"/>
<stop offset="1" stop-color="#F35227"/>
</linearGradient>
<linearGradient id="paint14_linear_1349_4630" x1="15.2726" y1="7.05488" x2="16.5779" y2="10.5716" gradientUnits="userSpaceOnUse">
<stop stop-color="#FFD945"/>
<stop offset="0.3043" stop-color="#FFCD3E"/>
<stop offset="0.8558" stop-color="#FFAD2B"/>
<stop offset="1" stop-color="#FFA325"/>
</linearGradient>
<linearGradient id="paint15_linear_1349_4630" x1="16.3418" y1="9.95488" x2="13.0938" y2="8.1491" gradientUnits="userSpaceOnUse">
<stop stop-color="#F35227" stop-opacity="0"/>
<stop offset="1" stop-color="#F35227"/>
</linearGradient>
<linearGradient id="paint16_linear_1349_4630" x1="8.18678" y1="6.98727" x2="7.96179" y2="10.665" gradientUnits="userSpaceOnUse">
<stop stop-color="#FFD945"/>
<stop offset="0.3043" stop-color="#FFCD3E"/>
<stop offset="0.8558" stop-color="#FFAD2B"/>
<stop offset="1" stop-color="#FFA325"/>
</linearGradient>
<linearGradient id="paint17_linear_1349_4630" x1="7.82215" y1="9.95429" x2="11.0701" y2="8.14851" gradientUnits="userSpaceOnUse">
<stop stop-color="#F35227" stop-opacity="0"/>
<stop offset="1" stop-color="#F35227"/>
</linearGradient>
<linearGradient id="paint18_linear_1349_4630" x1="11.4958" y1="9.84727" x2="12.7811" y2="11.9076" gradientUnits="userSpaceOnUse">
<stop stop-color="#FFD945"/>
<stop offset="0.3043" stop-color="#FFCD3E"/>
<stop offset="0.8558" stop-color="#FFAD2B"/>
<stop offset="1" stop-color="#FFA325"/>
</linearGradient>
<linearGradient id="paint19_linear_1349_4630" x1="12.246" y1="10.7967" x2="10.9198" y2="8.41425" gradientUnits="userSpaceOnUse">
<stop stop-color="#FFD945" stop-opacity="0"/>
<stop offset="1" stop-color="#FBED21"/>
</linearGradient>
<linearGradient id="paint20_linear_1349_4630" x1="12.1269" y1="11.0634" x2="13.9082" y2="7.14637" gradientUnits="userSpaceOnUse">
<stop stop-color="#F35227" stop-opacity="0"/>
<stop offset="1" stop-color="#F35227"/>
</linearGradient>
<linearGradient id="paint21_linear_1349_4630" x1="6.7261" y1="14.3323" x2="6.7261" y2="21.5001" gradientUnits="userSpaceOnUse">
<stop stop-color="#9B62CD"/>
<stop offset="0.3003" stop-color="#985DCB"/>
<stop offset="0.6716" stop-color="#8F4EC7"/>
<stop offset="1" stop-color="#833AC1"/>
</linearGradient>
<linearGradient id="paint22_linear_1349_4630" x1="17.2739" y1="14.3323" x2="17.2739" y2="21.5001" gradientUnits="userSpaceOnUse">
<stop stop-color="#9B62CD"/>
<stop offset="0.3003" stop-color="#985DCB"/>
<stop offset="0.6716" stop-color="#8F4EC7"/>
<stop offset="1" stop-color="#833AC1"/>
</linearGradient>
<linearGradient id="paint23_linear_1349_4630" x1="11.2279" y1="16.7326" x2="12.1675" y2="23.9814" gradientUnits="userSpaceOnUse">
<stop stop-color="#9B62CD"/>
<stop offset="0.3003" stop-color="#985DCB"/>
<stop offset="0.6716" stop-color="#8F4EC7"/>
<stop offset="1" stop-color="#833AC1"/>
</linearGradient>
</defs>
</svg>
