<svg width="18" height="18" viewBox="0 0 18 18" fill="none" xmlns="http://www.w3.org/2000/svg">
<path fill-rule="evenodd" clip-rule="evenodd" d="M17.3333 8.99999C17.3333 13.5833 13.5833 17.3333 8.99996 17.3333C4.41663 17.3333 0.666626 13.5833 0.666626 8.99999C0.666626 4.41666 4.41663 0.666656 8.99996 0.666656C13.5833 0.666656 17.3333 4.41666 17.3333 8.99999ZM11.8002 6.19965C12.0442 6.44373 12.0442 6.83946 11.8002 7.08353L9.88378 8.99992L11.8002 10.9163C12.0442 11.1604 12.0442 11.5561 11.8002 11.8002C11.5561 12.0443 11.1604 12.0443 10.9163 11.8002L8.99989 9.88381L7.0835 11.8002C6.83943 12.0443 6.4437 12.0443 6.19962 11.8002C5.95554 11.5561 5.95554 11.1604 6.19962 10.9163L8.11601 8.99992L6.19962 7.08353C5.95554 6.83946 5.95554 6.44373 6.19962 6.19965C6.4437 5.95557 6.83943 5.95557 7.0835 6.19965L8.99989 8.11604L10.9163 6.19965C11.1604 5.95557 11.5561 5.95557 11.8002 6.19965Z" fill="currentColor"/>
</svg>
