<svg width="24" height="24" viewBox="0 0 24 24" fill="none" xmlns="http://www.w3.org/2000/svg">
<path fill-rule="evenodd" clip-rule="evenodd" d="M6.75573 13.4427C7.57291 13.0593 8.48268 12.9151 9.3814 13.0358C10.3052 13.1598 11.6387 13.3434 12.8174 13.5231C13.4062 13.6129 13.9611 13.7024 14.4087 13.7837C14.8296 13.86 15.2245 13.9405 15.4438 14.0195C15.9844 14.2145 16.3849 14.5359 16.5096 15.0527C16.5588 15.2567 16.5493 15.4431 16.5446 15.5351L16.5445 15.537C16.5399 15.6263 16.5395 15.6489 16.539 15.65C16.572 15.8697 16.5817 16.1148 16.5197 16.3711C16.4552 16.638 16.3254 16.8669 16.15 17.0682C15.8722 17.3869 15.4841 17.4912 15.2531 17.5329C14.9954 17.5794 14.7479 17.579 14.5962 17.5728C14.4363 17.5663 14.2912 17.5409 14.1793 17.5189L11.5017 16.9916C11.0953 16.9115 10.8307 16.5172 10.9107 16.1108C10.9908 15.7044 11.3851 15.4398 11.7915 15.5198L14.4692 16.0472C14.5573 16.0645 14.6131 16.0723 14.657 16.074C14.7563 16.0781 14.8815 16.0757 14.9868 16.0567C15.0143 16.0517 15.0353 16.0465 15.0504 16.0421C15.053 16.0379 15.0549 16.0347 15.0562 16.0323C15.0599 16.0255 15.0609 16.0219 15.0617 16.0188C15.0633 16.0122 15.0712 15.9747 15.0552 15.8696C15.0401 15.7712 15.0386 15.6829 15.0397 15.6176C15.0406 15.5684 15.0435 15.5147 15.0454 15.4802C15.0455 15.4789 15.0455 15.4776 15.0456 15.4763C15.0189 15.4634 14.9827 15.4478 14.9349 15.4306C14.8569 15.4024 14.5953 15.342 14.141 15.2596C13.7135 15.182 13.1744 15.0949 12.5912 15.006C11.4258 14.8282 10.1027 14.646 9.18184 14.5224C8.57267 14.4407 7.95305 14.5378 7.3929 14.8006L5.19337 15.8327L6.67126 18.3425C7.43287 18.1112 8.2579 18.1407 9.01097 18.4394L11.0693 19.2557C11.9888 19.6204 13.0243 19.5464 13.8827 19.0548L20.1593 15.4599C20.3513 15.3499 20.4729 15.1484 20.4805 14.9271C20.4881 14.7072 20.3751 14.4889 20.1828 14.3643C19.9822 14.2343 19.7261 14.2198 19.5197 14.3213L17.8314 15.1514C17.4597 15.3342 17.0102 15.181 16.8274 14.8093C16.6447 14.4376 16.7978 13.9881 17.1695 13.8053L18.8578 12.9752C19.5459 12.6369 20.3626 12.6935 20.9985 13.1055C21.6254 13.5117 22.0057 14.2234 21.9796 14.979C21.954 15.7191 21.5474 16.3934 20.9048 16.7615L14.6282 20.3564C13.3737 21.075 11.8602 21.183 10.5163 20.6501L8.45798 19.8337C7.89033 19.6086 7.25186 19.6484 6.71651 19.9421L6.37503 20.1295C4.92683 20.9243 3.10832 20.3695 2.35035 18.9017C1.63475 17.516 2.12634 15.8126 3.47024 15.0212L3.74862 14.8573C3.76876 14.8454 3.78944 14.8345 3.8106 14.8246L6.75573 13.4427ZM5.2907 18.9541L3.8962 16.586C3.50222 17.0196 3.40093 17.667 3.68313 18.2134C3.99295 18.8134 4.66472 19.1018 5.2907 18.9541Z" fill="color2"/>
<path fill-rule="evenodd" clip-rule="evenodd" d="M15.0215 3.69995C15.0215 3.28574 14.6857 2.94995 14.2715 2.94995C13.8573 2.94995 13.5215 3.28574 13.5215 3.69995V3.86435H13.3241C12.148 3.86435 11.25 4.85355 11.25 5.99986C11.25 6.52352 11.3647 6.98764 11.658 7.36178C11.9443 7.72705 12.3266 7.90931 12.6504 8.02405L13.5215 8.32667V10.2254H13.5152C13.1239 10.2254 12.75 9.88618 12.75 9.38515C12.75 8.97094 12.4142 8.63515 12 8.63515C11.5858 8.63515 11.25 8.97094 11.25 9.38515C11.25 10.645 12.2275 11.7254 13.5152 11.7254H13.5215V11.8902C13.5215 12.3044 13.8573 12.6402 14.2715 12.6402C14.6857 12.6402 15.0215 12.3044 15.0215 11.8902V11.7254H15.2283C16.4044 11.7254 17.3024 10.7362 17.3024 9.58991C17.3024 9.06625 17.1877 8.60213 16.8944 8.22799C16.6081 7.86272 16.2258 7.68046 15.902 7.56572L15.0215 7.25982V5.36435H15.0372C15.4285 5.36435 15.8024 5.70359 15.8024 6.20462C15.8024 6.61883 16.1382 6.95462 16.5524 6.95462C16.9666 6.95462 17.3024 6.61883 17.3024 6.20462C17.3024 4.94475 16.3249 3.86435 15.0372 3.86435H15.0215V3.69995ZM13.5215 5.36435H13.3241C13.0396 5.36435 12.75 5.61733 12.75 5.99986C12.75 6.30887 12.8162 6.40783 12.8385 6.43638C12.8678 6.47367 12.9356 6.53346 13.1494 6.60948L13.5215 6.73873V5.36435ZM15.0215 8.84776V10.2254H15.2283C15.5128 10.2254 15.8024 9.97244 15.8024 9.58991C15.8024 9.28089 15.7362 9.18193 15.7139 9.15339C15.6846 9.11609 15.6168 9.0563 15.4029 8.98028L15.0215 8.84776Z" fill="color1"/>
</svg>
