<svg width="16" height="16" viewBox="0 0 16 16" fill="none" xmlns="http://www.w3.org/2000/svg">
<path fill-rule="evenodd" clip-rule="evenodd" d="M4.35923 2.33333C3.6062 2.33333 3 2.94009 3 3.68333V11.7C3 12.7838 3.88367 13.6667 4.97897 13.6667C5.90397 13.6667 6.67968 13.0361 6.89706 12.1865C7.0194 11.7083 7.43936 11.2 8.07769 11.2H11.9159V3.68333C11.9159 2.94009 11.3097 2.33333 10.5567 2.33333H4.35923ZM12.9159 11.2V3.68333C12.9159 2.38312 11.8573 1.33333 10.5567 1.33333H4.35923C3.05861 1.33333 2 2.38312 2 3.68333V11.7C2 13.3408 3.33608 14.6667 4.97897 14.6667H12.4159C13.8056 14.6667 14.9741 13.7188 15.3028 12.4344C15.3912 12.0886 15.2807 11.7643 15.0729 11.5409C14.8713 11.3242 14.5801 11.2 14.2751 11.2H12.9159ZM7.20927 13.6667H12.4159C13.3315 13.6667 14.1008 13.0488 14.3272 12.2123C14.325 12.2111 14.3225 12.2099 14.3198 12.2087C14.3077 12.2036 14.2925 12.2 14.2751 12.2H8.07769C8.05003 12.2 8.01428 12.2099 7.97189 12.249C7.92676 12.2906 7.88575 12.3566 7.86585 12.4344C7.74703 12.8988 7.51843 13.3192 7.20927 13.6667Z" fill="currentColor"/>
<path fill-rule="evenodd" clip-rule="evenodd" d="M7.84757 3.83333C7.84757 3.55719 7.62372 3.33333 7.34757 3.33333C7.07143 3.33333 6.84757 3.55719 6.84757 3.83333V3.94295H6.71598C5.9319 3.94295 5.33325 4.60242 5.33325 5.36662C5.33325 5.71573 5.40973 6.02514 5.60526 6.27457C5.79615 6.51808 6.05101 6.63959 6.26683 6.71608L6.84757 6.91783V8.18366H6.84338C6.5825 8.18366 6.33325 7.9575 6.33325 7.62348C6.33325 7.34734 6.10939 7.12348 5.83325 7.12348C5.55711 7.12348 5.33325 7.34734 5.33325 7.62348C5.33325 8.46339 5.98493 9.18366 6.84338 9.18366H6.84757V9.29347C6.84757 9.56962 7.07143 9.79347 7.34757 9.79347C7.62372 9.79347 7.84757 9.56962 7.84757 9.29347V9.18366H7.98546C8.76953 9.18366 9.36818 8.52419 9.36818 7.75999C9.36818 7.41088 9.29171 7.10147 9.09618 6.85204C8.90529 6.60853 8.65043 6.48702 8.4346 6.41053L7.84757 6.2066V4.94295H7.85806C8.11894 4.94295 8.36818 5.16911 8.36818 5.50313C8.36818 5.77927 8.59204 6.00313 8.86818 6.00313C9.14433 6.00313 9.36818 5.77927 9.36818 5.50313C9.36818 4.66321 8.7165 3.94295 7.85806 3.94295H7.84757V3.83333ZM6.84757 4.94295H6.71598C6.52632 4.94295 6.33325 5.1116 6.33325 5.36662C6.33325 5.57263 6.37735 5.6386 6.39227 5.65763C6.41176 5.6825 6.45697 5.72235 6.59952 5.77303L6.84757 5.8592V4.94295ZM7.84757 7.26522V8.18366H7.98546C8.17511 8.18366 8.36818 8.01501 8.36818 7.75999C8.36818 7.55398 8.32408 7.488 8.30917 7.46898C8.28967 7.44411 8.24446 7.40425 8.10188 7.35357L7.84757 7.26522Z" fill="currentColor"/>
</svg>
