<svg width="20" height="20" viewBox="0 0 20 20" fill="none" xmlns="http://www.w3.org/2000/svg">
<path fill-rule="evenodd" clip-rule="evenodd" d="M18.3332 10C18.3332 14.5834 14.5832 18.3334 9.99984 18.3334C5.4165 18.3334 1.6665 14.5834 1.6665 10C1.6665 5.41669 5.4165 1.66669 9.99984 1.66669C14.5832 1.66669 18.3332 5.41669 18.3332 10ZM12.8 7.19968C13.0441 7.44376 13.0441 7.83949 12.8 8.08356L10.8837 9.99996L12.8 11.9163C13.0441 12.1604 13.0441 12.5562 12.8 12.8002C12.556 13.0443 12.1602 13.0443 11.9162 12.8002L9.99977 10.8838L8.08338 12.8002C7.8393 13.0443 7.44357 13.0443 7.1995 12.8002C6.95542 12.5562 6.95542 12.1604 7.1995 11.9163L9.11589 9.99996L7.1995 8.08356C6.95542 7.83949 6.95542 7.44376 7.1995 7.19968C7.44357 6.9556 7.8393 6.9556 8.08338 7.19968L9.99977 9.11607L11.9162 7.19968C12.1602 6.9556 12.556 6.9556 12.8 7.19968Z" fill="currentColor"/>
</svg>
