<svg width="311" height="218" viewBox="0 0 311 218" fill="none" xmlns="http://www.w3.org/2000/svg">
<path d="M154.907 168.294C154.901 168.629 154.797 168.955 154.607 169.231C154.416 169.508 154.149 169.721 153.838 169.846C153.527 169.971 153.186 170.001 152.857 169.933C152.529 169.865 152.228 169.701 151.993 169.463C151.757 169.224 151.597 168.921 151.533 168.592C151.469 168.263 151.503 167.922 151.631 167.613C151.76 167.303 151.977 167.038 152.256 166.852C152.534 166.665 152.862 166.565 153.197 166.563C153.424 166.561 153.649 166.605 153.858 166.691C154.068 166.778 154.258 166.906 154.417 167.067C154.577 167.228 154.702 167.42 154.786 167.631C154.87 167.842 154.911 168.067 154.907 168.294Z" fill="url(#paint0_radial_7694_92198)"/>
<path d="M159.393 134.838C160.334 134.838 161.096 134.076 161.096 133.136C161.096 132.195 160.334 131.433 159.393 131.433C158.453 131.433 157.691 132.195 157.691 133.136C157.691 134.076 158.453 134.838 159.393 134.838Z" fill="url(#paint1_radial_7694_92198)"/>
<path d="M224.538 16.0698C224.075 16.0216 223.609 15.9983 223.143 16H161.836C154.082 16 146.685 22.2808 145.317 30.041L119.699 175.203C119.413 176.868 119.375 178.566 119.587 180.241C119.587 180.241 121.632 195.162 136.036 195.029H197.371C205.124 195.029 212.521 188.748 213.889 180.981L239.486 35.8262C239.576 35.2994 239.639 34.7683 239.675 34.2351C242.627 16.977 224.538 16.0698 224.538 16.0698Z" fill="url(#paint2_linear_7694_92198)"/>
<path d="M192.799 188.023H132.197C124.521 188.023 119.413 181.805 120.759 174.135L146.064 30.6623C147.411 22.9859 154.724 16.7749 162.394 16.7749H222.982C230.658 16.7749 235.767 22.9929 234.42 30.6623L209.129 174.135C207.783 181.805 200.469 188.023 192.799 188.023Z" fill="white"/>
<path d="M231.664 30.9339L206.492 173.709C205.355 180.171 199.193 185.412 192.731 185.412H133.189C126.727 185.412 122.414 180.171 123.552 173.709L148.73 30.9339C149.896 24.3113 156.218 18.9517 162.848 18.9517H167.615C168.227 18.9275 168.827 19.1265 169.303 19.5116C169.779 19.8967 170.099 20.4417 170.204 21.0453L171.104 25.7837C171.213 26.3153 171.507 26.791 171.934 27.1258C172.361 27.4607 172.893 27.6331 173.435 27.6121H208.118C208.739 27.5903 209.344 27.4053 209.87 27.0757C210.397 26.7462 210.828 26.2837 211.119 25.7349L213.68 21.0034C214 20.3924 214.476 19.8768 215.059 19.5091C215.643 19.1414 216.313 18.9347 217.002 18.9098H221.768C228.412 18.9517 232.837 24.3113 231.664 30.9339Z" fill="url(#paint3_linear_7694_92198)"/>
<path d="M199.952 24.1997H180.447C180.28 24.205 180.113 24.1718 179.96 24.1026C179.808 24.0335 179.673 23.9302 179.567 23.8008C179.46 23.6714 179.385 23.5192 179.346 23.3561C179.308 23.193 179.307 23.0232 179.345 22.8598C179.421 22.4934 179.617 22.163 179.903 21.9214C180.189 21.6798 180.548 21.5409 180.922 21.5269H200.399C200.566 21.5205 200.733 21.5526 200.885 21.621C201.038 21.6893 201.173 21.7919 201.28 21.9208C201.386 22.0498 201.462 22.2016 201.5 22.3644C201.539 22.5272 201.539 22.6968 201.502 22.8598C201.429 23.2236 201.238 23.5529 200.957 23.7956C200.676 24.0383 200.323 24.1805 199.952 24.1997Z" fill="url(#paint4_linear_7694_92198)"/>
<path d="M206.269 22.8598C206.197 23.2275 206.002 23.56 205.717 23.8033C205.432 24.0465 205.073 24.1862 204.699 24.1997C204.531 24.2064 204.364 24.1742 204.21 24.1055C204.057 24.0367 203.921 23.9335 203.815 23.8037C203.708 23.6739 203.633 23.5211 203.595 23.3574C203.557 23.1936 203.557 23.0233 203.596 22.8598C203.671 22.4939 203.866 22.1637 204.151 21.922C204.436 21.6804 204.793 21.5412 205.166 21.5269C205.334 21.5205 205.5 21.5526 205.653 21.621C205.806 21.6893 205.94 21.7919 206.047 21.9208C206.154 22.0498 206.229 22.2016 206.268 22.3644C206.306 22.5272 206.307 22.6968 206.269 22.8598Z" fill="url(#paint5_linear_7694_92198)"/>
<path d="M234.267 50.5996L234.302 50.4042H233.548C233.102 50.4194 232.675 50.5849 232.336 50.8738C231.996 51.1627 231.764 51.5579 231.678 51.9953L228.147 72.0239C228.014 72.7846 228.035 74.2291 229.542 74.4245H230.38L230.212 73.615L230.247 73.4196C230.525 73.2886 230.769 73.094 230.958 72.8516C231.147 72.6091 231.276 72.3256 231.336 72.0239L234.846 51.9953C234.908 51.7313 234.886 51.4544 234.782 51.2039C234.678 50.9533 234.498 50.7419 234.267 50.5996Z" fill="url(#paint6_linear_7694_92198)"/>
<path d="M230.254 74.4036C228.9 74.2082 228.739 72.9032 228.893 72.0239L232.424 51.9953C232.513 51.5579 232.747 51.1632 233.087 50.8746C233.428 50.586 233.855 50.4203 234.301 50.4042C235.181 50.4042 235.816 51.9046 235.662 52.7839L232.124 72.8125C231.971 73.6918 231.175 74.5711 230.254 74.4036Z" fill="#FDFBF9"/>
<path fill-rule="evenodd" clip-rule="evenodd" d="M166.695 139.01L166.903 137.765C167.201 135.98 167.672 134.703 168.403 133.884C169.034 133.177 170.114 132.538 172.317 132.538C174.52 132.538 175.387 133.177 175.782 133.884C176.24 134.703 176.285 135.98 175.988 137.765L175.78 139.01H166.695ZM165.177 139.035L165.389 137.765C166.007 134.058 167.519 131.045 172.566 131.045C177.613 131.045 178.12 134.058 177.502 137.765L177.29 139.035C180.461 139.211 180.097 140.361 179.492 143.988L179.159 145.98C178.495 149.962 178.329 150.958 174.292 150.958H164.198C160.16 150.958 160.326 149.962 160.991 145.98L161.323 143.988C161.928 140.361 161.947 139.211 165.177 139.035ZM170.403 143.988C169.845 143.988 169.319 144.434 169.227 144.984C169.136 145.534 169.513 145.98 170.071 145.98H170.08C170.637 145.98 171.163 145.534 171.255 144.984C171.347 144.434 170.969 143.988 170.412 143.988H170.403Z" fill="url(#paint7_linear_7694_92198)"/>
<path d="M210.684 38.2444H168.958C165.874 38.2444 162.983 40.7097 162.501 43.7508L155.778 86.1992C155.296 89.2402 157.406 91.7055 160.49 91.7055H202.217C205.301 91.7055 208.192 89.2402 208.673 86.1992L215.397 43.7508C215.878 40.7097 213.768 38.2444 210.684 38.2444Z" fill="#669AE2"/>
<path d="M208.54 38.2069H166.814C163.73 38.2069 160.839 40.6722 160.357 43.7132L153.634 86.1616C153.152 89.2027 155.262 91.668 158.346 91.668H200.073C203.157 91.668 206.048 89.2027 206.529 86.1616L213.253 43.7132C213.734 40.6722 211.624 38.2069 208.54 38.2069Z" fill="url(#paint8_linear_7694_92198)"/>
<path d="M208.205 52.7417H206.679L207.273 48.9877C207.437 47.9434 207.178 46.9423 206.551 46.2039C205.924 45.4655 204.981 45.0501 203.93 45.0489H200.101L200.34 43.5399H204.175C205.629 43.5411 206.933 44.1154 207.8 45.1368C208.668 46.1582 209.027 47.5432 208.799 48.9877L208.205 52.7417Z" fill="white"/>
<path d="M165.735 53.5521H164.229L164.952 48.9838C165.187 47.5111 165.984 46.0993 167.167 45.058C168.351 44.0168 169.825 43.4314 171.266 43.4302H175.154L174.911 44.9685H171.022C169.981 44.9693 168.915 45.3926 168.059 46.1455C167.204 46.8983 166.628 47.9192 166.459 48.9838L165.735 53.5521Z" fill="white"/>
<path d="M168.638 86.5964H164.531C163.063 86.5952 161.755 85.9712 160.893 84.8616C160.031 83.752 159.685 82.2473 159.932 80.6778L160.653 76.1256H162.188L161.467 80.6778C161.288 81.8123 161.538 82.9 162.161 83.7022C162.784 84.5045 163.73 84.9557 164.79 84.957H168.898L168.638 86.5964Z" fill="white"/>
<path d="M196.828 86.4857H192.771L193.027 84.8708H197.084C198.155 84.8675 199.252 84.4221 200.134 83.6321C201.015 82.8422 201.61 81.7719 201.789 80.6556L202.524 76.0149H204.073L203.338 80.6556C203.092 82.2003 202.269 83.6816 201.048 84.7745C199.828 85.8674 198.31 86.4828 196.828 86.4857Z" fill="white"/>
<path d="M189.571 62.2876L188.676 74.08L188.671 76.8703C188.671 76.8703 186.529 78.3851 182.853 78.3224C180.336 78.2819 178.754 77.9666 177.76 77.6399C176.945 77.3543 175.986 76.9376 177.13 75.4868C178.792 73.3228 179.096 71.7767 179.096 71.7767L180.438 64.8866L189.571 62.2876Z" fill="#F2C6B4"/>
<path d="M187.412 68.2864C185.674 69.742 183.523 70.6633 182.235 70.9527C180.427 71.3669 179.277 71.2974 179.277 71.2974L180.13 65.6822L189.237 62.211L189.332 63.0632L189.15 64.3888C189.133 64.4337 189.029 66.9005 187.412 68.2864Z" fill="url(#paint9_linear_7694_92198)"/>
<path d="M187.13 60.1753C187.13 60.1753 184.968 57.1326 183.386 56.4772C180.366 55.1197 177.199 55.2601 177.199 55.2601L177.96 53.6217L186.093 53.2004L188.482 58.256L187.13 60.1753Z" fill="url(#paint10_linear_7694_92198)"/>
<path d="M190.285 61.7245C189.852 61.7245 189.556 61.3775 189.624 60.9495C189.692 60.5215 190.612 59.3995 191.045 59.3995C191.478 59.3995 191.259 60.5215 191.192 60.9495C191.124 61.3775 190.718 61.7245 190.285 61.7245Z" fill="url(#paint11_linear_7694_92198)"/>
<path fill-rule="evenodd" clip-rule="evenodd" d="M179.522 51.6014C179.522 51.6014 177.788 53.7755 177.387 54.7932C177.008 55.6721 176.821 56.551 176.741 57.0599C176.433 59.0027 176.144 61.732 176.142 63.2585C176.204 65.8953 177.249 67.4681 178.709 67.9306C180.17 68.3932 183.104 67.4218 185.12 66.4966C186.826 65.7102 187.869 64.8776 188.262 63.9061C188.379 63.6095 188.52 63.2893 188.661 62.9844C188.981 63.2474 189.386 63.3995 189.846 63.3995C191.144 63.3995 192.904 61.4101 193.141 59.9121C193.379 58.414 192.004 57.9746 190.705 57.9746C190.331 57.9746 189.961 58.0754 189.619 58.2547L187.239 51L179.522 51.6014Z" fill="url(#paint12_linear_7694_92198)"/>
<path d="M182.526 59.976C182.16 59.976 181.908 59.6889 181.964 59.3349C182.02 58.9808 182.363 58.6937 182.729 58.6937C183.096 58.6937 183.348 58.9808 183.292 59.3349C183.236 59.6889 182.893 59.976 182.526 59.976Z" fill="#4F2B23"/>
<path d="M177.653 59.6101C177.286 59.6101 177.035 59.3231 177.091 58.969C177.147 58.6149 177.489 58.3279 177.856 58.3279C178.223 58.3279 178.474 58.6149 178.418 58.969C178.362 59.3231 178.019 59.6101 177.653 59.6101Z" fill="#4F2B23"/>
<path d="M179.116 63.2633C179.262 63.2633 179.422 63.1697 179.501 62.9824C179.579 62.7952 179.463 62.608 179.268 62.608C179.268 62.608 178.748 62.5144 178.767 62.0931C178.785 61.6718 179.407 60.5017 179.747 59.8932C179.874 59.7059 179.806 59.5187 179.619 59.4719C179.44 59.3783 179.23 59.4719 179.152 59.6591C179.025 59.8463 178.141 61.4378 178.071 62.1867C178.009 62.8888 178.63 63.2633 179.011 63.3101C179.067 63.2633 179.116 63.2633 179.116 63.2633Z" fill="#B4603F"/>
<path d="M186.104 53.7679C186.104 53.7679 185.938 55.414 186.655 56.8773C187.371 58.3406 187.466 58.3406 187.339 58.8436L187.072 61.1299C187.018 61.7701 187.689 61.7244 187.926 61.7244C187.973 61.7244 188.653 59.5295 188.653 59.5295C188.653 59.5295 189.096 57.929 191.161 58.0662C192.663 58.1577 193.001 59.6209 193.001 59.6209C193.001 59.6209 194.674 55.6427 195.151 54.7281C195.918 53.1734 195.21 52.2589 194.545 51.6644C193.874 51.1157 193.108 51.1615 193.108 51.1615C193.108 51.1615 193.802 48.8751 191.382 47.6862C190.196 47.0918 189.131 47.2289 188.095 47.1832C187.06 47.1375 186.086 47.0003 185.232 47.0003C183.131 47.0918 182.334 48.2349 182.334 48.2349C182.334 48.2349 178.524 46.543 176.532 48.6465C174.546 50.7042 176.004 53.1734 178.226 53.8136C179.846 54.3623 182.283 54.5452 186.104 53.7679Z" fill="#321011"/>
<path d="M178.225 64.755C179.868 65.3278 181.147 64.5046 181.652 63.9631C181.784 63.8175 181.789 63.6203 181.644 63.5108C181.498 63.4012 181.285 63.4138 181.153 63.5593C181.13 63.6 180.121 64.683 178.562 64.1447C178.394 64.0758 178.178 64.1869 178.11 64.309C177.998 64.5125 178.057 64.6862 178.225 64.755Z" fill="#CF7653"/>
<path d="M184.483 57.4988C184.786 57.2762 184.869 56.8667 184.744 56.6734C184.701 56.6259 184.043 55.5103 182.318 55.78C182.128 55.7931 181.787 55.9174 181.742 56.4252C181.716 56.7298 181.892 56.8691 182.082 56.856C183.375 56.6664 183.822 57.4937 183.865 57.5412C183.999 57.633 184.28 57.6642 184.483 57.4988ZM177.304 56.9316C177.352 56.9283 177.447 56.9218 177.499 56.8678C177.906 56.537 178.458 56.701 178.506 56.6977C178.691 56.7354 178.89 56.6209 178.951 56.4653C179.129 56.0493 178.914 55.8117 178.776 55.7708C178.728 55.774 177.899 55.5281 177.189 56.0815C177.038 56.1928 176.869 56.5072 177.075 56.8463C177.071 56.8971 177.209 56.9381 177.304 56.9316Z" fill="#4F2B23"/>
<path d="M162.346 81.7708C166.523 84.2973 192.472 85.0927 200.275 81.8254C200.665 79.388 201.281 74.5961 198.338 72.3526C196.397 70.8643 192.709 68.7929 190.119 68.7929C189.884 71.2637 176.957 72.1691 177.525 68.1503C175.674 68.2883 174.678 68.2321 172.863 68.5219C165.179 69.6465 164.399 76.2626 162.346 81.7708Z" fill="url(#paint13_linear_7694_92198)"/>
<path d="M95.3035 102.638L93.1913 122.696L92.3425 127.434C92.3425 127.434 95.4869 130.091 101.701 130.131C105.953 130.162 108.716 129.689 110.491 129.174C111.952 128.721 113.696 128.052 112.215 125.543C110.078 121.803 110.041 119.165 110.041 119.165L109.895 107.413L95.3035 102.638Z" fill="#F2C6B4"/>
<path d="M97.0977 112.91C99.5798 115.451 102.92 117.1 105.003 117.643C107.921 118.418 109.881 118.346 109.881 118.346L110.167 108.778L95.8885 102.522L95.4666 103.965L95.3655 106.223C95.3809 106.3 94.7982 110.493 97.0977 112.91Z" fill="url(#paint14_linear_7694_92198)"/>
<path d="M112.272 112.209C105.991 118.941 96.3442 116.52 92.3061 114.467C73.1648 118.827 69.6566 129.66 67.4704 137.064C65.2842 144.469 59.505 169.286 65.2658 172.845C69.8745 175.691 73.5533 174.603 74.8167 173.704C74.9239 174.389 73.2535 176.603 72.3898 190.714C96.2975 200.973 128.141 196.235 132.846 194.632C132.991 193.023 128.99 153.577 127.193 137.875C135.192 140.959 152.497 146.13 157.72 142.141C164.25 137.154 167.566 117.182 167.013 112.065C165.319 108.366 160.976 105.948 154.396 105.863C150.889 108.791 146.883 118.025 145.318 122.276C143.81 122.14 139.441 121.139 134.028 118.22C123.467 111.696 119.033 110.284 112.272 112.209Z" fill="url(#paint15_linear_7694_92198)"/>
<path opacity="0.6" d="M119.5 84.8184L165.499 82.3182L166.866 90.0296C160.787 92.9694 140.275 107.531 124 112.318C116.237 109.767 118.315 89.7775 119.5 84.8184Z" fill="url(#paint16_linear_7694_92198)"/>
<path fill-rule="evenodd" clip-rule="evenodd" d="M110.63 80.4087C110.63 80.4087 113.654 83.5835 114.391 85.2054C115.081 86.5954 115.454 88.0488 115.624 88.8993C116.273 92.147 116.948 96.7568 117.062 99.3878C117.152 103.954 115.539 107.011 113.158 108.291C110.778 109.571 105.858 108.866 102.46 107.938C99.5824 107.146 97.7989 106.055 97.078 104.511C96.8634 104.038 96.6074 103.533 96.3522 103.054C95.8414 103.613 95.1836 104.009 94.424 104.161C92.2776 104.59 89.2247 101.742 88.7239 99.2384C88.223 96.7342 90.4638 95.5221 92.6102 95.0928C93.2284 94.9692 93.8466 95.0207 94.4254 95.2165L97.8331 81.9227L110.63 80.4087Z" fill="url(#paint17_linear_7694_92198)"/>
<path d="M107.04 95.637C107.646 95.5159 108.041 94.9378 107.923 94.3459C107.804 93.754 107.217 93.3724 106.611 93.4936C106.005 93.6148 105.61 94.1929 105.728 94.7848C105.847 95.3767 106.434 95.7582 107.04 95.637Z" fill="#4F2B23"/>
<path d="M115.068 93.3963C115.674 93.2751 116.069 92.697 115.951 92.1051C115.833 91.5132 115.245 91.1316 114.639 91.2528C114.034 91.374 113.638 91.9521 113.757 92.544C113.875 93.1359 114.462 93.5174 115.068 93.3963Z" fill="#4F2B23"/>
<path d="M113.124 100.341C112.883 100.389 112.611 100.281 112.468 99.9837C112.325 99.6868 112.503 99.3256 112.825 99.2613C112.825 99.2613 113.677 98.9281 113.617 98.2078C113.556 97.4876 112.442 95.6761 111.837 94.7393C111.613 94.4585 111.712 94.1133 112.017 93.9708C112.307 93.7501 112.66 93.8423 112.803 94.1392C113.026 94.42 114.603 96.8714 114.773 98.1393C114.927 99.3291 113.928 100.18 113.301 100.387C113.205 100.325 113.124 100.341 113.124 100.341Z" fill="#B4603F"/>
<path d="M100.236 86.4717C100.236 86.4717 100.629 89.2547 99.5513 92.0142C98.4732 94.7737 98.3165 94.805 98.563 95.6301L99.1707 99.4833C99.3063 100.569 98.1939 100.712 97.8021 100.79C97.7237 100.806 96.4413 97.2469 96.4413 97.2469C96.4413 97.2469 95.5928 94.6343 92.1906 95.5533C89.7135 96.2077 89.2623 98.8418 89.2623 98.8418C89.2623 98.8418 86.2082 92.5366 85.3539 91.1176C83.9721 88.6911 85.0769 86.8802 86.132 85.6358C87.2024 84.4678 88.4715 84.2934 88.4715 84.2934C88.4715 84.2934 87.1585 80.5813 91.0712 77.7319C92.9883 76.315 94.7582 76.1995 96.4669 75.7782C98.1757 75.3569 99.7755 74.7985 101.186 74.5164C104.665 73.9796 106.066 75.6867 106.066 75.6867C106.066 75.6867 112.239 71.5106 115.686 74.4781C119.116 77.3692 116.886 82.1081 113.26 83.9462C110.622 85.4277 106.608 86.5485 100.236 86.4717Z" fill="#321011"/>
<path d="M111.228 103.495C108.181 103.953 106.517 102.237 105.98 101.205C105.842 100.929 105.943 100.606 106.246 100.469C106.549 100.333 106.896 100.415 107.034 100.691C107.048 100.764 108.121 102.826 111.009 102.401C111.327 102.337 111.624 102.581 111.667 102.8C111.74 103.165 111.546 103.432 111.228 103.495Z" fill="#CF7653"/>
<path d="M103.382 92.7716C102.846 92.5248 102.632 91.8597 102.798 91.4726C102.859 91.372 103.713 89.1658 106.569 88.8602C106.88 88.7979 107.46 88.859 107.63 89.7098C107.732 90.2203 107.471 90.5379 107.16 90.6002C105.023 90.8507 104.455 92.4684 104.394 92.5691C104.195 92.786 103.744 92.9646 103.382 92.7716ZM114.942 88.6013C114.864 88.6168 114.708 88.648 114.613 88.5785C113.888 88.1926 113.021 88.7199 112.944 88.7355C112.649 88.8829 112.303 88.7751 112.174 88.5354C111.805 87.9015 112.109 87.3982 112.326 87.2664C112.404 87.2508 113.704 86.4599 114.964 87.0926C115.232 87.216 115.568 87.6797 115.297 88.3532C115.314 88.4383 115.098 88.5701 114.942 88.6013Z" fill="#4F2B23"/>
<path d="M169.784 97.8758L169.739 97.7565C171.061 95.8534 169.571 95.8425 168.544 95.2344C168.726 95.0066 168.857 94.7493 168.928 94.4803C168.999 94.2112 169.008 93.9368 168.954 93.6758C168.406 91.2859 164.829 94.4579 163.944 95.2022C162.825 96.1437 161.882 97.1195 160.631 97.9165C158.069 99.5499 158.555 94.3039 157.29 94.3584C156.29 94.4015 156.227 96.627 156.263 97.5371C156.297 98.2724 156.339 98.9991 156.296 99.7271C156.226 100.393 156.316 101.05 156.56 101.65C156.755 102.081 156.991 102.491 157.265 102.877C157.396 103.026 157.481 103.207 157.516 103.403C157.619 105.14 156.953 107.449 156.706 109.001L164.306 112.213C164.757 111.64 167.915 104.175 168.282 103.646C168.534 103.279 168.851 102.959 169.122 102.608C169.639 101.949 170.257 101.308 170.73 100.623C171.132 100.036 171.438 99.2933 171.208 98.641C171.17 98.5283 171.116 98.422 171.048 98.3244C170.782 97.9308 170.312 97.6592 169.784 97.8758Z" fill="#FEDCBE"/>
<path fill-rule="evenodd" clip-rule="evenodd" d="M165.837 83.4797C165.722 83.0964 165.461 82.7733 165.11 82.5793C164.759 82.3852 164.345 82.3356 163.958 82.4411C161.024 83.2438 154.376 85.0489 151.319 85.8888C151.115 85.943 150.925 86.0387 150.76 86.1699C150.595 86.301 150.459 86.4648 150.361 86.6509C150.263 86.837 150.204 87.0412 150.188 87.2508C150.172 87.4605 150.2 87.6711 150.269 87.8697C151.089 92.9711 152.567 105.852 154.068 110.132C154.195 110.501 154.459 110.807 154.805 110.989C155.151 111.17 155.554 111.212 155.931 111.107C158.686 110.355 164.827 108.661 167.691 107.873C167.89 107.819 168.075 107.725 168.237 107.598C168.398 107.471 168.533 107.313 168.632 107.133C168.731 106.953 168.793 106.756 168.814 106.551C168.835 106.347 168.815 106.141 168.755 105.945C168.349 101.29 166.77 88.8642 165.837 83.4797Z" fill="url(#paint18_linear_7694_92198)"/>
<path d="M96.9405 138.682C96.6111 140.443 94.8871 143.52 94.0663 144.838C94.2867 146.344 99.0496 147.353 102.26 147.072C103.285 146.195 104.396 144.474 106.054 142.902C107.625 142.174 108.891 140.783 109.523 140.088C110.155 139.393 111.055 138.029 110.542 137.414C110.019 136.788 109.082 137.077 107.903 137.623C108.689 137.259 110.477 136.042 109.616 135.055C108.755 134.068 107.221 135.125 106.828 135.307C107.853 134.43 112.844 130.793 111.816 129.562C110.963 128.54 103.697 134.144 104.185 133.718C104.893 133.098 109.045 128.744 108.069 126.95C107.173 125.303 101.624 132.16 100.071 133.627C98.1868 135.408 97.3524 136.481 96.9405 138.682Z" fill="url(#paint19_linear_7694_92198)"/>
<path d="M95.917 137.596C82.872 142.909 77.0916 146.545 72.4434 150.687C55.9164 165.417 63.7834 173.725 69.3128 174.222C86.1665 176.144 98.5254 157.425 102.598 147.825C102.841 147.002 101.845 143.805 95.917 137.596Z" fill="url(#paint20_linear_7694_92198)"/>
<rect x="163" y="85" width="2" height="2" rx="1" fill="#D9D9D9"/>
<defs>
<radialGradient id="paint0_radial_7694_92198" cx="0" cy="0" r="1" gradientUnits="userSpaceOnUse" gradientTransform="translate(152.911 167.875) scale(1.70278 1.70277)">
<stop stop-color="white"/>
<stop offset="1" stop-color="#FED5AB"/>
</radialGradient>
<radialGradient id="paint1_radial_7694_92198" cx="0" cy="0" r="1" gradientUnits="userSpaceOnUse" gradientTransform="translate(159.107 132.752) scale(1.70278 1.70278)">
<stop stop-color="white"/>
<stop offset="1" stop-color="#FED5AB"/>
</radialGradient>
<linearGradient id="paint2_linear_7694_92198" x1="229.969" y1="218.441" x2="90.6708" y2="-5.14292" gradientUnits="userSpaceOnUse">
<stop stop-color="#3079E4"/>
<stop offset="1" stop-color="#D3E7FF"/>
</linearGradient>
<linearGradient id="paint3_linear_7694_92198" x1="166.554" y1="3.2638" x2="187.49" y2="190.751" gradientUnits="userSpaceOnUse">
<stop stop-color="#F2F2F2"/>
<stop offset="1" stop-color="white"/>
</linearGradient>
<linearGradient id="paint4_linear_7694_92198" x1="206.303" y1="24.0113" x2="177.342" y2="21.9177" gradientUnits="userSpaceOnUse">
<stop stop-color="#E0F2FF"/>
<stop offset="1" stop-color="#7FAAFE"/>
</linearGradient>
<linearGradient id="paint5_linear_7694_92198" x1="206.381" y1="22.9645" x2="177.419" y2="20.8709" gradientUnits="userSpaceOnUse">
<stop stop-color="#4C93FE"/>
<stop offset="1" stop-color="#3155D2"/>
</linearGradient>
<linearGradient id="paint6_linear_7694_92198" x1="228.098" y1="62.4144" x2="234.888" y2="62.4144" gradientUnits="userSpaceOnUse">
<stop stop-color="#8AB8FE"/>
<stop offset="1" stop-color="#3B75CB"/>
</linearGradient>
<linearGradient id="paint7_linear_7694_92198" x1="164.063" y1="127.56" x2="181.466" y2="154.561" gradientUnits="userSpaceOnUse">
<stop stop-color="#72A5EF"/>
<stop offset="1" stop-color="#ABCDFE" stop-opacity="0"/>
</linearGradient>
<linearGradient id="paint8_linear_7694_92198" x1="187.677" y1="38.2069" x2="187.677" y2="91.668" gradientUnits="userSpaceOnUse">
<stop stop-color="#A2C8FF"/>
<stop offset="1" stop-color="#D7E7FF" stop-opacity="0"/>
</linearGradient>
<linearGradient id="paint9_linear_7694_92198" x1="184.937" y1="69.4811" x2="182.991" y2="65.0497" gradientUnits="userSpaceOnUse">
<stop stop-color="#FFBCA0" stop-opacity="0"/>
<stop offset="0.99" stop-color="#BC5A32"/>
</linearGradient>
<linearGradient id="paint10_linear_7694_92198" x1="182.733" y1="56.7815" x2="184.343" y2="53.4073" gradientUnits="userSpaceOnUse">
<stop stop-color="#BC5A32" stop-opacity="0"/>
<stop offset="0.99" stop-color="#FB9D76"/>
</linearGradient>
<linearGradient id="paint11_linear_7694_92198" x1="190.312" y1="61.9923" x2="190.215" y2="60.3558" gradientUnits="userSpaceOnUse">
<stop stop-color="#CC7A5E" stop-opacity="0"/>
<stop offset="0.924" stop-color="#AA5F4B"/>
</linearGradient>
<linearGradient id="paint12_linear_7694_92198" x1="188.252" y1="49.8802" x2="180.692" y2="69.0323" gradientUnits="userSpaceOnUse">
<stop stop-color="#F3885B"/>
<stop offset="1" stop-color="#FECCB7"/>
</linearGradient>
<linearGradient id="paint13_linear_7694_92198" x1="181.448" y1="68.1842" x2="196.931" y2="119.949" gradientUnits="userSpaceOnUse">
<stop stop-color="#FAC45C"/>
<stop offset="1" stop-color="white"/>
</linearGradient>
<linearGradient id="paint14_linear_7694_92198" x1="100.902" y1="115.037" x2="104.851" y2="107.24" gradientUnits="userSpaceOnUse">
<stop stop-color="#FFBCA0" stop-opacity="0"/>
<stop offset="0.99" stop-color="#BC5A32"/>
</linearGradient>
<linearGradient id="paint15_linear_7694_92198" x1="78.4677" y1="121.838" x2="114.088" y2="217.268" gradientUnits="userSpaceOnUse">
<stop stop-color="#FBCE75"/>
<stop offset="1" stop-color="#FFFAF0"/>
</linearGradient>
<linearGradient id="paint16_linear_7694_92198" x1="159.433" y1="90.6074" x2="108.724" y2="102.262" gradientUnits="userSpaceOnUse">
<stop stop-color="#F2D15C"/>
<stop offset="1" stop-color="white" stop-opacity="0.53"/>
</linearGradient>
<linearGradient id="paint17_linear_7694_92198" x1="96.0765" y1="80.3273" x2="113.648" y2="108.551" gradientUnits="userSpaceOnUse">
<stop stop-color="#F3885B"/>
<stop offset="1" stop-color="#FECCB7"/>
</linearGradient>
<linearGradient id="paint18_linear_7694_92198" x1="142" y1="86" x2="186.5" y2="106" gradientUnits="userSpaceOnUse">
<stop stop-color="#2066C6"/>
<stop offset="1" stop-color="#DEE3E9"/>
</linearGradient>
<linearGradient id="paint19_linear_7694_92198" x1="114.101" y1="104.163" x2="110.216" y2="151.869" gradientUnits="userSpaceOnUse">
<stop stop-color="#FDBFA6"/>
<stop offset="1" stop-color="#FFF4F0"/>
</linearGradient>
<linearGradient id="paint20_linear_7694_92198" x1="98.5002" y1="140.5" x2="67.5002" y2="166.5" gradientUnits="userSpaceOnUse">
<stop stop-color="#FDC064"/>
<stop offset="1" stop-color="#FDC064" stop-opacity="0"/>
</linearGradient>
</defs>
</svg>
