<svg width="311" height="218" viewBox="0 0 311 218" fill="none" xmlns="http://www.w3.org/2000/svg">
<path d="M149.835 172.223C149.829 172.571 149.721 172.91 149.523 173.197C149.326 173.484 149.048 173.706 148.725 173.836C148.401 173.966 148.047 173.997 147.706 173.926C147.365 173.855 147.052 173.685 146.808 173.437C146.563 173.19 146.397 172.875 146.33 172.533C146.263 172.191 146.299 171.837 146.432 171.516C146.566 171.194 146.792 170.919 147.081 170.725C147.37 170.531 147.71 170.427 148.059 170.425C148.294 170.423 148.528 170.468 148.746 170.558C148.964 170.648 149.161 170.781 149.327 170.949C149.493 171.116 149.623 171.315 149.71 171.534C149.797 171.753 149.84 171.987 149.835 172.223Z" fill="url(#paint0_radial_5423_48976)"/>
<path d="M154.497 137.466C155.474 137.466 156.266 136.674 156.266 135.697C156.266 134.72 155.474 133.927 154.497 133.927C153.52 133.927 152.728 134.72 152.728 135.697C152.728 136.674 153.52 137.466 154.497 137.466Z" fill="url(#paint1_radial_5423_48976)"/>
<path d="M222.178 14.0726C221.697 14.0225 221.213 13.9983 220.728 14.0001H157.034C148.979 14.0001 141.294 20.5254 139.873 28.5877L113.257 179.401C112.96 181.131 112.921 182.895 113.141 184.636C113.141 184.636 115.265 200.137 130.23 199.999H193.953C202.008 199.999 209.693 193.474 211.114 185.404L237.708 34.5982C237.801 34.0508 237.867 33.4991 237.904 32.9451C240.971 15.0151 222.178 14.0726 222.178 14.0726Z" fill="url(#paint2_linear_5423_48976)"/>
<path d="M189.204 192.72H126.243C118.268 192.72 112.96 186.26 114.36 178.292L140.649 29.2332C142.049 21.2579 149.647 14.8051 157.615 14.8051H220.562C228.537 14.8051 233.845 21.2651 232.445 29.2332L206.17 178.292C204.771 186.26 197.173 192.72 189.204 192.72Z" fill="white"/>
<path d="M229.581 29.5154L203.429 177.849C202.248 184.563 195.846 190.008 189.132 190.008H127.272C120.559 190.008 116.078 184.563 117.26 177.849L143.419 29.5154C144.63 22.6348 151.198 17.0666 158.086 17.0666H163.038C163.674 17.0415 164.297 17.2482 164.792 17.6483C165.287 18.0484 165.619 18.6147 165.728 19.2417L166.663 24.1646C166.776 24.7169 167.082 25.2111 167.525 25.559C167.969 25.9069 168.521 26.086 169.085 26.0642H205.119C205.764 26.0415 206.392 25.8493 206.939 25.5069C207.486 25.1646 207.934 24.6841 208.236 24.1139L210.897 19.1982C211.229 18.5634 211.724 18.0278 212.33 17.6458C212.936 17.2637 213.632 17.0489 214.348 17.0231H219.3C226.203 17.0666 230.799 22.6348 229.581 29.5154Z" fill="url(#paint3_linear_5423_48976)"/>
<path d="M196.636 22.519H176.371C176.197 22.5245 176.024 22.49 175.865 22.4182C175.707 22.3463 175.567 22.239 175.456 22.1046C175.345 21.9701 175.267 21.8121 175.227 21.6426C175.187 21.4731 175.187 21.2967 175.225 21.1269C175.305 20.7462 175.509 20.403 175.806 20.152C176.103 19.901 176.475 19.7567 176.864 19.7421H197.1C197.273 19.7355 197.446 19.7689 197.605 19.8399C197.764 19.9109 197.904 20.0175 198.015 20.1514C198.125 20.2854 198.204 20.4431 198.244 20.6123C198.284 20.7814 198.284 20.9576 198.245 21.1269C198.17 21.5049 197.971 21.847 197.679 22.0992C197.388 22.3513 197.02 22.499 196.636 22.519Z" fill="url(#paint4_linear_5423_48976)"/>
<path d="M203.196 21.1265C203.121 21.5084 202.919 21.8537 202.623 22.1064C202.327 22.359 201.955 22.5041 201.566 22.5181C201.391 22.5251 201.218 22.4916 201.058 22.4202C200.899 22.3489 200.758 22.2416 200.647 22.1068C200.536 21.972 200.458 21.8133 200.419 21.6433C200.379 21.4732 200.38 21.2963 200.42 21.1265C200.498 20.7465 200.701 20.4035 200.997 20.1525C201.292 19.9015 201.664 19.757 202.051 19.7421C202.225 19.7355 202.398 19.7689 202.556 19.8398C202.715 19.9108 202.855 20.0174 202.966 20.1513C203.077 20.2852 203.155 20.4428 203.195 20.612C203.235 20.7811 203.236 20.9572 203.196 21.1265Z" fill="url(#paint5_linear_5423_48976)"/>
<path d="M232.286 49.9464L232.322 49.7434H231.539C231.076 49.7592 230.632 49.9311 230.279 50.2313C229.927 50.5314 229.686 50.9421 229.596 51.3965L225.927 72.2048C225.79 72.9951 225.811 74.4959 227.377 74.6989H228.247L228.073 73.8579L228.11 73.6549C228.399 73.5188 228.652 73.3166 228.848 73.0647C229.045 72.8129 229.179 72.5183 229.241 72.2048L232.888 51.3965C232.952 51.1222 232.929 50.8345 232.821 50.5742C232.713 50.3139 232.526 50.0943 232.286 49.9464Z" fill="url(#paint6_linear_5423_48976)"/>
<path d="M228.117 74.6772C226.711 74.4742 226.544 73.1184 226.703 72.2048L230.372 51.3965C230.464 50.9421 230.707 50.532 231.061 50.2321C231.414 49.9323 231.859 49.7602 232.322 49.7434C233.236 49.7434 233.896 51.3023 233.736 52.2158L230.06 73.0241C229.901 73.9377 229.074 74.8512 228.117 74.6772Z" fill="#FDFBF9"/>
<path d="M173.96 88.933C187.355 88.933 200.267 78.2624 202.799 65.0996C205.332 51.9368 196.526 41.2662 183.13 41.2662C169.735 41.2662 156.823 51.9368 154.291 65.0996C151.758 78.2624 160.564 88.933 173.96 88.933Z" fill="url(#paint7_linear_5423_48976)"/>
<path d="M177.64 81.393C176.427 81.3952 175.26 81.2043 174.182 80.8278C171.264 79.7989 169.201 77.4668 168.216 74.0841C166.526 68.2828 166.682 66.0828 166.941 62.4383C166.977 61.9122 167.016 61.3678 167.051 60.776C167.298 57.7008 168.537 54.9431 170.635 52.7972C172.612 50.7758 175.231 49.4635 178.008 49.1019C180.743 48.7454 183.055 49.328 184.694 50.7883C186.367 52.2785 187.215 54.5874 187.147 57.4664L187.121 58.1214C186.959 62.3394 186.885 64.2643 188.19 68.4789C189.07 71.323 188.888 73.9802 187.668 76.1652C186.626 78.0244 184.899 79.4507 182.539 80.404C180.932 81.0585 179.262 81.3957 177.64 81.393ZM179.392 49.7178C178.924 49.7186 178.45 49.7505 177.974 49.8134C172.438 50.5348 168.252 55.008 167.797 60.6896C167.762 61.2797 167.723 61.8249 167.686 62.3518C167.433 65.9257 167.279 68.08 168.938 73.7757C170.345 78.6037 173.97 80.6741 177.821 80.6741C179.326 80.6749 180.875 80.3595 182.364 79.749C184.522 78.8788 186.091 77.5881 187.026 75.9217C188.145 73.927 188.3 71.4618 187.475 68.7981C186.139 64.4837 186.215 62.5239 186.379 58.2302L186.404 57.5811C186.518 52.6833 183.81 49.7178 179.392 49.7178Z" fill="#4B8AE4"/>
<path d="M177.583 80.1193C176.524 80.1206 175.504 79.9507 174.565 79.6165C172.815 78.9907 170.517 77.4847 169.504 73.8559C167.862 67.9632 168.026 65.4017 168.276 61.5245C168.303 61.1089 168.331 60.6776 168.357 60.2246C168.487 58.0204 169.547 55.7997 171.337 53.9695C173.124 52.1467 175.437 50.9147 177.824 50.5137C180.078 50.1305 182.101 50.5569 183.519 51.7138C184.981 52.9073 185.738 54.8098 185.648 57.0721C185.456 61.8927 185.42 64.411 186.786 68.8118C187.545 71.2612 187.362 73.5883 186.26 75.5382C185.336 77.1755 183.777 78.4654 181.754 79.2666C180.388 79.8315 178.965 80.1224 177.583 80.1193ZM179.297 51.0905C178.81 51.0913 178.316 51.1346 177.82 51.2201C173.258 51.9964 169.347 55.9933 169.104 60.1315C169.076 60.5853 169.049 61.0183 169.022 61.4355C168.776 65.2463 168.613 67.7629 170.227 73.5551C171.816 79.2533 177.261 80.4144 181.578 78.6142H181.585C183.434 77.8828 184.792 76.7657 185.622 75.2946C186.604 73.5567 186.764 71.3684 186.072 69.1326C184.684 64.6445 184.718 61.9484 184.908 57.1818C184.991 55.1131 184.307 53.3794 182.984 52.2998C182.01 51.4977 180.748 51.0905 179.297 51.0905Z" fill="#4B8AE4"/>
<path d="M183.767 63.074C183.685 63.0737 183.61 63.0462 183.556 62.9958C183.501 62.9455 183.469 62.8752 183.465 62.7964C183.391 61.1741 183.448 59.5716 183.543 57.311C183.646 54.8683 182.456 53.0888 180.359 52.5503C180.315 52.5389 180.275 52.5187 180.242 52.4907C180.209 52.4627 180.183 52.4276 180.166 52.3873C180.149 52.3469 180.141 52.3022 180.143 52.2557C180.145 52.2091 180.156 52.1617 180.177 52.116C180.197 52.0703 180.226 52.0273 180.262 51.9895C180.298 51.9516 180.339 51.9196 180.385 51.8954C180.431 51.8711 180.479 51.855 180.528 51.848C180.577 51.841 180.625 51.8433 180.669 51.8546C183.013 52.4563 184.399 54.5067 184.286 57.2054C184.192 59.4495 184.135 61.0361 184.208 62.6319C184.21 62.6777 184.202 62.7253 184.186 62.7718C184.169 62.8182 184.143 62.8628 184.11 62.9028C184.077 62.9428 184.038 62.9775 183.993 63.0049C183.949 63.0323 183.901 63.0518 183.852 63.0624C183.824 63.0695 183.795 63.0734 183.767 63.074Z" fill="#4B8AE4"/>
<path d="M177.665 78.7553C176.725 78.7553 175.822 78.5982 174.994 78.2907C173.541 77.748 171.638 76.4805 170.828 73.5192C170.809 73.4335 170.827 73.3376 170.879 73.2516C170.93 73.1656 171.01 73.0961 171.103 73.0576C171.197 73.0191 171.295 73.0146 171.378 73.045C171.461 73.0754 171.523 73.1384 171.549 73.2209C172.824 77.8827 177.29 78.8725 180.845 77.4388C182.366 76.8504 183.54 75.8888 184.244 74.6537C185.091 73.1702 185.243 71.3334 184.672 69.4816C184.137 67.7028 183.764 65.8569 183.556 63.9621C183.551 63.9169 183.556 63.8696 183.57 63.8228C183.584 63.776 183.607 63.7307 183.638 63.6894C183.669 63.648 183.707 63.6115 183.749 63.582C183.792 63.5524 183.839 63.5303 183.888 63.517C183.936 63.5037 183.985 63.4994 184.032 63.5044C184.079 63.5093 184.122 63.5235 184.16 63.546C184.198 63.5685 184.229 63.5989 184.252 63.6355C184.275 63.6721 184.289 63.7141 184.294 63.7593C184.499 65.6138 184.864 67.4205 185.388 69.1616C186.012 71.1921 185.834 73.2342 184.881 74.9006C184.068 76.3243 182.73 77.4289 181.011 78.0929C179.912 78.5323 178.772 78.7579 177.665 78.7553Z" fill="#4B8AE4"/>
<path d="M170.547 71.4365C170.474 71.4363 170.407 71.4149 170.355 71.3751C170.302 71.3354 170.266 71.2789 170.251 71.213C169.357 67.2019 169.506 64.9512 169.713 61.8362C169.747 61.3317 169.781 60.8097 169.814 60.2495C169.871 59.2534 170.137 58.2409 170.596 57.2725C171.055 56.304 171.697 55.3995 172.485 54.6128C173.676 53.4318 175.772 51.9673 179.001 51.6922C179.096 51.688 179.182 51.7197 179.242 51.7807C179.301 51.8418 179.329 51.9274 179.319 52.0197C179.309 52.112 179.263 52.2038 179.19 52.276C179.117 52.3482 179.023 52.3951 178.927 52.407C176.579 52.6065 174.518 53.5249 172.968 55.0616C172.256 55.7726 171.676 56.5901 171.262 57.4653C170.847 58.3406 170.607 59.2555 170.556 60.1556C170.523 60.7183 170.488 61.2419 170.455 61.7481C170.244 64.9221 170.105 67.0191 170.979 70.942C170.999 71.0301 170.979 71.1288 170.925 71.2166C170.871 71.3043 170.786 71.3738 170.69 71.4099C170.642 71.4271 170.594 71.4362 170.547 71.4365Z" fill="#4B8AE4"/>
<path d="M182.04 75.8155C181.969 75.8156 181.903 75.7952 181.851 75.7568C181.799 75.7184 181.763 75.6636 181.747 75.5993C181.731 75.535 181.736 75.464 181.762 75.395C181.787 75.3261 181.832 75.2622 181.891 75.2113C182.333 74.826 182.7 74.3669 182.967 73.8657C183.601 72.6863 183.706 71.2617 183.274 69.8488C181.844 65.1945 181.971 62.347 182.179 57.6354C182.238 56.3055 181.787 55.1927 180.908 54.502C180.053 53.8304 178.854 53.6085 177.53 53.877C174.652 54.4588 172.091 57.2156 171.938 59.891C171.933 59.9853 171.889 60.0806 171.815 60.1562C171.742 60.2317 171.646 60.2812 171.547 60.2937C171.449 60.3063 171.357 60.2809 171.291 60.2232C171.225 60.1654 171.192 60.08 171.197 59.9858C171.283 58.4898 172.001 56.9555 173.221 55.6548C174.407 54.3923 175.97 53.4889 177.512 53.1755C179.053 52.8622 180.438 53.1265 181.437 53.9127C182.462 54.7181 182.989 56.0038 182.922 57.5323C182.716 62.1742 182.589 64.9759 183.99 69.5322C184.476 71.1113 184.342 72.7328 183.615 74.0926C183.297 74.6918 182.858 75.2405 182.329 75.7008C182.288 75.7368 182.241 75.7655 182.192 75.7853C182.142 75.805 182.091 75.8153 182.04 75.8155Z" fill="#4B8AE4"/>
<path d="M177.819 77.3413C175.347 77.3413 172.968 76.0015 172.176 73.1083C170.799 68.08 170.872 64.5701 171.065 61.4069C171.075 61.3149 171.122 61.2235 171.194 61.1518C171.267 61.0801 171.361 61.0336 171.457 61.0218C171.552 61.0101 171.642 61.034 171.707 61.0887C171.772 61.1433 171.808 61.2245 171.807 61.3154C171.607 64.5527 171.544 67.8681 172.894 72.81C173.848 76.2941 177.339 77.2806 180.164 76.2176C180.26 76.1814 180.361 76.1818 180.443 76.2186C180.526 76.2554 180.583 76.3256 180.603 76.4137C180.623 76.5019 180.603 76.6008 180.549 76.6887C180.495 76.7767 180.41 76.8463 180.313 76.8825C179.49 77.1876 178.643 77.3434 177.819 77.3413Z" fill="#4B8AE4"/>
<path d="M177.958 75.9154C176.042 75.9154 174.164 74.8757 173.546 72.6624C172.213 68.3721 172.298 64.7525 172.579 59.7209C172.643 58.5789 173.189 57.4045 174.118 56.4138C175.001 55.4575 176.161 54.7846 177.379 54.5213C178.556 54.277 179.633 54.4789 180.412 55.089C181.206 55.7098 181.612 56.6931 181.558 57.8567L181.548 58.0611C181.337 62.6182 181.209 65.3692 182.595 69.9164C182.982 71.1863 182.839 72.4929 182.195 73.5883C181.642 74.53 180.771 75.2364 179.676 75.632H179.667C179.1 75.8209 178.521 75.9168 177.958 75.9154ZM178.19 55.1372C177.93 55.1372 177.666 55.1651 177.401 55.2203C175.299 55.6567 173.43 57.6738 173.321 59.6253C173.043 64.5888 172.959 68.1552 174.262 72.3491L174.261 72.3574C174.963 74.8632 177.489 75.6495 179.536 74.963C180.421 74.643 181.12 74.0778 181.56 73.329C182.096 72.4147 182.206 71.3193 181.874 70.2314C180.457 65.5828 180.587 62.7902 180.802 58.1625L180.812 57.9589C180.856 56.9948 180.525 56.1853 179.879 55.6791C179.421 55.3225 178.831 55.1334 178.19 55.1372Z" fill="#4B8AE4"/>
<path d="M178.057 74.4965C177.305 74.4886 176.612 74.2704 176.057 73.8673C175.503 73.4643 175.11 72.893 174.925 72.2201C173.559 68.0395 173.677 63.7292 173.885 60.851C173.892 60.7566 173.937 60.6616 174.012 60.587C174.086 60.5125 174.183 60.4644 174.281 60.4533C174.38 60.4423 174.471 60.4693 174.536 60.5283C174.6 60.5873 174.633 60.6735 174.626 60.7679C174.42 63.5938 174.306 67.8201 175.64 71.8993L175.643 71.9101C176.088 73.4668 177.714 74.0353 178.97 73.6729C179.233 73.5869 179.484 73.4504 179.707 73.2724C179.93 73.0944 180.119 72.8791 180.262 72.6406C180.61 72.0588 180.692 71.3249 180.483 70.6334C180.096 69.3535 179.678 67.0962 179.439 65.5511C179.43 65.4624 179.458 65.3674 179.518 65.2856C179.577 65.2039 179.663 65.1417 179.757 65.112C179.852 65.0823 179.948 65.0873 180.026 65.126C180.103 65.1648 180.157 65.2342 180.175 65.32C180.411 66.8443 180.821 69.0693 181.199 70.3201C181.467 71.2044 181.36 72.1228 180.889 72.9058C180.689 73.2377 180.425 73.5377 180.115 73.786C179.805 74.0344 179.455 74.2255 179.089 74.3469L179.069 74.3536C178.732 74.4502 178.391 74.4984 178.057 74.4965Z" fill="#4B8AE4"/>
<path d="M179.637 64.6454C179.555 64.6454 179.48 64.6184 179.426 64.5686C179.371 64.5189 179.339 64.4493 179.335 64.3711C179.24 62.6025 179.324 60.8804 179.432 58.6929L179.452 58.2856C179.472 58.0014 179.431 57.7273 179.33 57.481C179.229 57.2347 179.071 57.0215 178.866 56.8552C178.66 56.6977 178.413 56.5906 178.141 56.5408C177.869 56.491 177.579 56.4996 177.288 56.566C175.956 56.8478 174.772 58.1294 174.705 59.3644C174.702 59.4111 174.69 59.4585 174.669 59.5041C174.648 59.5496 174.619 59.5923 174.583 59.6298C174.546 59.6672 174.504 59.6987 174.458 59.7224C174.412 59.7461 174.363 59.7616 174.315 59.7679C174.266 59.7743 174.218 59.7713 174.174 59.7593C174.13 59.7473 174.091 59.7265 174.058 59.6979C174.025 59.6694 174 59.6338 173.984 59.5931C173.968 59.5524 173.961 59.5075 173.963 59.4608C174.052 57.8443 175.532 56.2319 177.264 55.8662C177.657 55.7776 178.05 55.7673 178.417 55.836C178.784 55.9047 179.117 56.0509 179.395 56.2651C179.673 56.4871 179.888 56.7726 180.026 57.1033C180.164 57.434 180.222 57.8025 180.196 58.185L180.176 58.5923C180.071 60.7582 179.987 62.4687 180.08 64.2024C180.084 64.2949 180.05 64.3924 179.984 64.4736C179.918 64.5548 179.826 64.613 179.727 64.6354C179.697 64.6426 179.666 64.646 179.637 64.6454Z" fill="#4B8AE4"/>
<path d="M178.063 73.0845C177.262 73.0845 176.54 72.5808 176.312 71.8021C176.286 71.7162 176.3 71.6176 176.35 71.528C176.399 71.4384 176.481 71.365 176.576 71.3242C176.671 71.2833 176.773 71.2782 176.858 71.31C176.943 71.3417 177.005 71.4078 177.03 71.4937C177.23 72.1786 177.928 72.462 178.466 72.3365C178.573 72.3018 178.674 72.2469 178.765 72.1753C178.855 72.1037 178.932 72.017 178.991 71.9209C179.07 71.7779 179.119 71.626 179.136 71.4749C179.153 71.3238 179.138 71.1768 179.091 71.0432C178.472 68.9804 178.124 67.2142 177.997 65.4838C177.848 63.4791 177.891 61.3589 177.953 59.9327C177.961 59.8408 178.006 59.7488 178.078 59.676C178.15 59.6032 178.243 59.5551 178.339 59.5417C178.435 59.5283 178.525 59.5507 178.591 59.6042C178.658 59.6576 178.695 59.7381 178.695 59.8288C178.634 61.2367 178.592 63.3295 178.742 65.3026C178.866 66.9865 179.206 68.7102 179.812 70.7307C179.958 71.2186 179.887 71.7514 179.615 72.1927C179.499 72.3845 179.345 72.5573 179.164 72.6997C178.983 72.842 178.78 72.9505 178.568 73.018L178.537 73.0263C178.379 73.0657 178.219 73.0852 178.063 73.0845Z" fill="#4B8AE4"/>
<path d="M175.87 69.0266C175.797 69.026 175.729 69.0036 175.677 68.9622C175.625 68.9208 175.59 68.8624 175.577 68.7947C174.98 65.6929 175.11 63.3882 175.285 60.1991C175.303 59.875 175.327 59.5426 175.34 59.2018C175.389 58.3058 176.204 57.4115 177.161 57.2071C177.386 57.1554 177.61 57.1491 177.82 57.1886C178.03 57.2281 178.22 57.3125 178.378 57.4362C178.535 57.5598 178.657 57.72 178.735 57.906C178.814 58.092 178.846 58.2997 178.831 58.5153C178.822 58.6075 178.777 58.6995 178.704 58.7723C178.632 58.845 178.538 58.8927 178.442 58.9055C178.346 58.9182 178.256 58.895 178.19 58.8408C178.124 58.7865 178.088 58.7053 178.088 58.6142C178.099 58.4971 178.083 58.384 178.042 58.2826C178 58.1812 177.935 58.0939 177.849 58.0267C177.764 57.9595 177.661 57.914 177.547 57.8933C177.433 57.8727 177.311 57.8773 177.189 57.9069C176.618 58.0291 176.113 58.5776 176.084 59.1046C176.066 59.4495 176.048 59.7828 176.029 60.1069C175.848 63.2494 175.725 65.52 176.306 68.5445C176.316 68.5986 176.312 68.6567 176.294 68.714C176.276 68.7713 176.244 68.8261 176.202 68.8738C176.159 68.9214 176.107 68.9605 176.05 68.9876C175.993 69.0148 175.933 69.0293 175.874 69.0299L175.87 69.0266Z" fill="#4B8AE4"/>
<path d="M177.772 70.991C177.702 70.9912 177.638 70.9717 177.586 70.9348C177.534 70.898 177.498 70.8454 177.48 70.7832C175.933 65.2346 176.674 59.4084 176.681 59.3502C176.686 59.3023 176.701 59.254 176.725 59.2082C176.748 59.1623 176.781 59.1199 176.819 59.0834C176.858 59.0469 176.903 59.0171 176.951 58.9957C176.999 58.9743 177.049 58.9618 177.099 58.9589C177.148 58.956 177.196 58.9628 177.239 58.9788C177.282 58.9949 177.319 59.0199 177.349 59.0524C177.379 59.0848 177.401 59.1241 177.413 59.1679C177.425 59.2116 177.427 59.2589 177.419 59.307C177.408 59.3644 176.689 65.0601 178.2 70.4824C178.224 70.5686 178.21 70.6671 178.159 70.7562C178.109 70.8454 178.027 70.9179 177.931 70.9578C177.879 70.9799 177.825 70.9913 177.772 70.991Z" fill="#4B8AE4"/>
<path fill-rule="evenodd" clip-rule="evenodd" d="M157.281 159.344L157.497 158.051C157.806 156.196 158.296 154.869 159.055 154.019C159.711 153.284 160.833 152.62 163.122 152.62C165.411 152.62 166.311 153.284 166.722 154.019C167.198 154.869 167.245 156.196 166.935 158.051L166.72 159.344H157.281ZM155.704 159.37L155.924 158.051C156.566 154.199 158.137 151.069 163.381 151.069C168.624 151.069 169.151 154.199 168.508 158.051L168.288 159.37C171.583 159.553 171.204 160.748 170.576 164.516L170.231 166.585C169.541 170.723 169.368 171.757 165.173 171.757H154.686C150.492 171.757 150.665 170.723 151.355 166.585L151.7 164.516C152.328 160.748 152.348 159.553 155.704 159.37ZM161.133 164.516C160.554 164.516 160.007 164.979 159.912 165.551C159.817 166.122 160.209 166.585 160.788 166.585H160.797C161.377 166.585 161.923 166.122 162.019 165.551C162.114 164.979 161.722 164.516 161.143 164.516H161.133Z" fill="url(#paint8_linear_5423_48976)"/>
<path d="M149.657 128.603C149.809 130.798 148.754 134.827 148.207 136.567C148.915 138.36 154.393 140.38 158 139.5C158.915 138.262 160.5 136 161.412 132.204C163.001 131.056 164.036 129.154 164.554 128.203C165.072 127.253 165.312 125.927 164.761 125.172C164.146 124.328 163.138 124.617 161.947 125.478C162.741 124.904 162.981 123.578 162.429 122.825C161.876 122.072 160.409 122.557 160.012 122.844C160.927 121.606 159.824 120.098 158.754 120.296C158.217 120.395 157.466 120.698 156.944 120.975C157.994 119.271 160.24 113.946 159.186 113.001C157.408 111.406 153.555 120.102 152.211 122.146C150.581 124.625 149.467 125.859 149.657 128.603Z" fill="url(#paint9_linear_5423_48976)"/>
<path d="M104.666 105.235L98.4972 125.014L96.6842 129.617C96.6842 129.617 99.3498 132.915 105.662 134.186C109.981 135.06 112.886 135.132 114.795 134.964C116.371 134.798 118.28 134.47 117.276 131.65C115.852 127.46 116.343 124.797 116.343 124.797L118.55 112.935L104.666 105.235Z" fill="#F2C6B4"/>
<path d="M104.327 115.394C106.342 118.444 109.409 120.766 111.418 121.725C114.231 123.084 116.239 123.399 116.239 123.399L118.449 113.822L105.179 104.694L104.461 106.063L103.905 108.317C103.905 108.398 102.472 112.504 104.327 115.394Z" fill="url(#paint10_linear_5423_48976)"/>
<path d="M103.458 103.883C104.214 103.881 104.826 103.272 104.823 102.523C104.821 101.774 103.518 99.8153 102.762 99.8177C102.005 99.82 102.082 101.783 102.084 102.531C102.086 103.28 102.701 103.885 103.458 103.883Z" fill="url(#paint11_linear_5423_48976)"/>
<path fill-rule="evenodd" clip-rule="evenodd" d="M120.438 84.4484C120.438 84.4484 123.688 87.5789 124.511 89.2121C125.278 90.6092 126.488 94.1225 126.696 94.9881C128.912 98.2038 128.501 99.8207 128.1 101.396C127.919 102.108 127.74 102.812 127.808 103.651C128.071 108.332 126.515 111.536 124.098 112.95C121.681 114.363 116.561 113.847 113.008 113.037C109.999 112.345 108.112 111.301 107.308 109.746C107.081 109.297 106.815 108.819 106.548 108.362C106.044 108.942 105.386 109.365 104.619 109.55C102.412 110.08 99.1449 107.287 98.5328 104.738C97.9206 102.19 100.195 100.852 102.402 100.322C103.01 100.176 103.624 100.194 104.207 100.351L107.245 86.5392L120.438 84.4484Z" fill="url(#paint12_linear_5423_48976)"/>
<path d="M122.111 98.492C122.734 98.3422 123.121 97.7328 122.976 97.1306C122.832 96.5285 122.21 96.1618 121.587 96.3115C120.964 96.4613 120.577 97.0708 120.722 97.6729C120.866 98.275 121.488 98.6417 122.111 98.492Z" fill="#4F2B23"/>
<path d="M127.808 101.448C127.56 101.508 127.274 101.408 127.115 101.11C126.956 100.811 127.127 100.433 127.458 100.354C127.458 100.354 128.328 99.9759 128.238 99.2394C128.149 98.503 126.927 96.6912 126.266 95.7554C126.024 95.4766 126.113 95.1184 126.424 94.9593C126.716 94.7207 127.085 94.8005 127.244 95.0991C127.485 95.3778 129.209 97.8268 129.433 99.1206C129.637 100.335 128.634 101.25 127.992 101.488C127.891 101.429 127.808 101.448 127.808 101.448Z" fill="#B4603F"/>
<path d="M109.532 91.6175C110.096 94.7455 108.863 97.4576 109.764 100.091L109.745 103.095C109.367 104.295 106.691 103.748 105.66 102.271C105.66 102.271 105.078 100.357 101.589 101.443C99.0491 102.219 98.9137 104.748 98.9137 104.748C98.9137 104.748 95.2348 98.4291 94.2972 97.0091C92.7758 94.5775 93.8521 92.6731 94.898 91.352C95.9626 90.1087 97.2702 89.8765 97.2702 89.8765C97.2702 89.8765 95.772 86.1229 99.7166 83.0351C101.649 81.5009 103.477 81.3081 105.23 80.8041C106.984 80.3001 108.619 79.66 110.069 79.3113C113.651 78.6145 115.165 80.3073 115.165 80.3073C115.165 80.3073 121.402 75.7633 125.08 78.6633C128.741 81.4856 126.608 86.4414 122.923 88.4795C120.247 90.1103 116.133 91.4288 109.532 91.6175Z" fill="#321011"/>
<path d="M126.686 106.822C123.714 107.991 121.644 106.661 120.868 105.753C120.666 105.509 120.694 105.162 120.969 104.954C121.244 104.747 121.613 104.749 121.815 104.993C121.846 105.062 123.398 106.877 126.217 105.777C126.523 105.64 126.878 105.815 126.972 106.024C127.128 106.373 126.993 106.685 126.686 106.822Z" fill="#CF7653"/>
<path d="M117.934 95.0042C117.462 94.6225 117.421 93.9064 117.688 93.5634C117.775 93.4788 119.209 91.5012 122.151 91.9229C122.48 91.9401 123.045 92.1482 122.993 93.0379C122.962 93.5717 122.618 93.8215 122.289 93.8043C120.081 93.5102 119.089 94.9755 119.002 95.0601C118.745 95.2252 118.247 95.2883 117.934 95.0042Z" fill="#4F2B23"/>
<path d="M128.775 145.593C128.775 130.585 121.75 122.233 117.907 119.533C110.299 124.399 103.778 118.992 100.517 115.208C97.9556 115.776 92.141 120.182 85.651 131.097C77.5944 144.646 71.6433 184.267 69.0525 201.516L68.9991 201.871H125.629C125.202 197.181 128.775 164.352 128.775 145.593Z" fill="url(#paint13_linear_5423_48976)"/>
<path d="M124.136 126.599C128.925 129.21 130.955 140.229 133.513 146.609C136.597 143.709 145.163 133.414 148.857 129.209L159.188 139.794C157.909 143.274 154.995 151.365 148.857 161.109C141.185 173.288 134.365 176.624 122.857 171.839C111.348 167.054 107.939 138.779 110.922 131.819C113.906 124.859 121.199 124.999 124.136 126.599Z" fill="#FBCC6F"/>
<defs>
<radialGradient id="paint0_radial_5423_48976" cx="0" cy="0" r="1" gradientUnits="userSpaceOnUse" gradientTransform="translate(147.761 171.788) scale(1.76907 1.76907)">
<stop stop-color="white"/>
<stop offset="1" stop-color="#FED5AB"/>
</radialGradient>
<radialGradient id="paint1_radial_5423_48976" cx="0" cy="0" r="1" gradientUnits="userSpaceOnUse" gradientTransform="translate(154.2 135.298) scale(1.76907 1.76907)">
<stop stop-color="white"/>
<stop offset="1" stop-color="#FED5AB"/>
</radialGradient>
<linearGradient id="paint2_linear_5423_48976" x1="227.82" y1="224.322" x2="83.099" y2="-7.966" gradientUnits="userSpaceOnUse">
<stop stop-color="#3079E4"/>
<stop offset="1" stop-color="#D3E7FF"/>
</linearGradient>
<linearGradient id="paint3_linear_5423_48976" x1="161.936" y1="0.767947" x2="183.687" y2="195.554" gradientUnits="userSpaceOnUse">
<stop stop-color="#F2F2F2"/>
<stop offset="1" stop-color="white"/>
</linearGradient>
<linearGradient id="paint4_linear_5423_48976" x1="203.233" y1="22.3232" x2="173.145" y2="20.1482" gradientUnits="userSpaceOnUse">
<stop stop-color="#E0F2FF"/>
<stop offset="1" stop-color="#7FAAFE"/>
</linearGradient>
<linearGradient id="paint5_linear_5423_48976" x1="203.312" y1="21.2352" x2="173.233" y2="19.0608" gradientUnits="userSpaceOnUse">
<stop stop-color="#4C93FE"/>
<stop offset="1" stop-color="#3155D2"/>
</linearGradient>
<linearGradient id="paint6_linear_5423_48976" x1="225.877" y1="62.2212" x2="232.931" y2="62.2212" gradientUnits="userSpaceOnUse">
<stop stop-color="#8AB8FE"/>
<stop offset="1" stop-color="#3B75CB"/>
</linearGradient>
<linearGradient id="paint7_linear_5423_48976" x1="172.955" y1="33.9695" x2="190.4" y2="91.7789" gradientUnits="userSpaceOnUse">
<stop stop-color="#5B97EC"/>
<stop offset="1" stop-color="#5B97EC" stop-opacity="0"/>
</linearGradient>
<linearGradient id="paint8_linear_5423_48976" x1="154.546" y1="147.448" x2="172.627" y2="175.501" gradientUnits="userSpaceOnUse">
<stop stop-color="#72A5EF"/>
<stop offset="1" stop-color="#ABCDFE" stop-opacity="0"/>
</linearGradient>
<linearGradient id="paint9_linear_5423_48976" x1="158.559" y1="104.301" x2="161.714" y2="142.785" gradientUnits="userSpaceOnUse">
<stop stop-color="#FDBFA6"/>
<stop offset="1" stop-color="#FFF4F0" stop-opacity="0.61"/>
</linearGradient>
<linearGradient id="paint10_linear_5423_48976" x1="107.769" y1="118.289" x2="113.279" y2="111.166" gradientUnits="userSpaceOnUse">
<stop stop-color="#FFBCA0" stop-opacity="0"/>
<stop offset="0.99" stop-color="#BC5A32"/>
</linearGradient>
<linearGradient id="paint11_linear_5423_48976" x1="103.338" y1="104.352" x2="103.502" y2="101.461" gradientUnits="userSpaceOnUse">
<stop stop-color="#CC7A5E" stop-opacity="0"/>
<stop offset="0.924" stop-color="#AA5F4B"/>
</linearGradient>
<linearGradient id="paint12_linear_5423_48976" x1="105.759" y1="84.8816" x2="124.58" y2="113.557" gradientUnits="userSpaceOnUse">
<stop stop-color="#F3885B"/>
<stop offset="1" stop-color="#FECCB7"/>
</linearGradient>
<linearGradient id="paint13_linear_5423_48976" x1="118.631" y1="117.88" x2="71.7702" y2="206.191" gradientUnits="userSpaceOnUse">
<stop stop-color="#FAC55C"/>
<stop offset="1" stop-color="white"/>
</linearGradient>
</defs>
</svg>
