<svg width="103" height="49" viewBox="0 0 103 49" fill="none" xmlns="http://www.w3.org/2000/svg">
<path d="M36.7792 32.5524C33.9926 32.5524 30.2771 30.731 30.2771 25.3873C30.2771 19.8862 34.3608 18.2243 36.7991 18.2243C38.0603 18.1777 39.3123 18.4583 40.4369 19.0394L39.386 20.9988C38.7719 20.7387 38.1158 20.5961 37.4506 20.5781C35.3666 20.5781 33.6482 22.5529 33.6482 25.3698C33.6482 27.7088 35.2153 30.0593 37.4247 30.0593C38.0782 30.086 38.7273 29.9405 39.309 29.6372L40.4256 31.7279C39.2427 32.3366 37.9234 32.6208 36.5987 32.5524" fill="#FFC709"/>
<path d="M68.4986 32.2546V22.6112C68.5227 22.3666 68.4942 22.1196 68.4151 21.8872C68.336 21.6548 68.2082 21.4425 68.0404 21.2651C67.8727 21.0877 67.669 20.9493 67.4434 20.8594C67.2178 20.7696 66.9757 20.7305 66.7338 20.7447C66.4366 20.7274 66.1395 20.7783 65.8645 20.8937C65.5895 21.0091 65.3437 21.186 65.1454 21.4111V32.2546H61.7557V22.558C61.7659 22.3153 61.7261 22.0731 61.639 21.8467C61.5518 21.6204 61.4192 21.4149 61.2495 21.2435C61.05 21.0664 60.818 20.9312 60.5668 20.8456C60.3156 20.76 60.0502 20.7257 59.7858 20.7447C59.301 20.7403 58.8196 20.827 58.366 21.0005V32.2546H55.0022V18.9031C56.3057 18.5626 57.6366 18.3412 58.979 18.2415C60.0666 18.1608 61.1592 18.2952 62.1962 18.6373C62.7388 18.8549 63.2278 19.1906 63.6287 19.6207C64.0822 19.2057 64.6053 18.8766 65.1733 18.6487C65.9633 18.3529 66.8024 18.2158 67.644 18.2449C68.8198 18.2336 69.9524 18.6931 70.7962 19.5237C71.1682 19.9416 71.4552 20.4299 71.641 20.9605C71.8268 21.4911 71.9077 22.0536 71.879 22.616V32.2593L68.4986 32.2546Z" fill="#FFC709"/>
<path d="M53.8438 48.6929C53.8438 48.6929 51.7087 48.9622 50.2571 48.9622C45.281 48.9622 43.2096 47.1677 43.2096 44.1953C43.2096 41.8395 45.5318 39.6412 50.4475 39.6412V39.0166C50.4475 38.3125 49.8848 37.1373 47.9429 37.1373C46.9991 37.144 46.0691 37.3674 45.2226 37.7909C45.2087 37.7363 44.1139 35.6955 44.1139 35.6955C45.5449 34.9739 47.1283 34.6185 48.7257 34.6603C51.1693 34.6603 53.8451 36.0146 53.8451 39.0166L53.8438 48.6929ZM50.4501 41.4135C47.8002 41.4135 46.5482 42.3477 46.5482 44.1981C46.5408 44.5583 46.6075 44.9161 46.744 45.2487C46.8806 45.5813 47.084 45.8813 47.3413 46.1297C47.5986 46.378 47.9041 46.5693 48.2383 46.6911C48.5725 46.8129 48.9281 46.8627 49.2824 46.8373C49.6778 46.8363 50.071 46.778 50.4501 46.6642V41.4135Z" fill="#FFC709"/>
<path d="M41.3982 47.0238C40.3141 48.2145 38.3774 48.9637 35.482 48.9637C33.264 48.9637 30.8144 48.6944 30.8144 48.6944V33.6912C30.8144 33.6912 33.0344 33.434 34.6327 33.434C38.4464 33.434 39.3507 34.1112 40.0394 34.5406C40.5569 34.8106 40.9947 35.2149 41.3082 35.7123C41.6217 36.2097 41.7997 36.7825 41.8242 37.3724C41.8242 39.7692 39.6161 40.3951 38.9878 40.6603V40.7028C39.5929 40.8381 40.1642 41.0978 40.6664 41.4661C41.1685 41.8344 41.5908 42.3033 41.9071 42.8439C42.164 43.5299 42.2517 44.2693 42.1626 44.9976C42.0734 45.7259 41.8101 46.421 41.3956 47.0224L41.3982 47.0238ZM38.4457 37.4302C38.4457 36.1648 37.5381 35.5307 35.837 35.5307C35.2856 35.5274 34.7356 35.5872 34.1975 35.7091V39.9254H34.6619C37.7989 39.9254 38.4491 38.668 38.4491 37.4302H38.4457ZM38.881 44.4445C38.881 43.2619 38.4066 41.6606 34.6619 41.6606H34.1975V46.6799C35.3512 46.9718 36.5678 46.8684 37.6575 46.3857C38.0207 46.2119 38.328 45.9373 38.5439 45.5938C38.7598 45.2503 38.8755 44.8519 38.8777 44.4445" fill="#FFC709"/>
<path d="M63.0966 48.6923V40.2046C63.0966 38.425 62.8312 37.5452 61.3987 37.2194C60.6669 37.1193 59.9223 37.1884 59.2205 37.4214V48.6923H55.8653V35.3301C57.1627 35.016 58.4828 34.8083 59.813 34.7088C62.3243 34.5782 63.5749 34.8845 64.8196 35.7184C65.331 36.0858 65.7471 36.5733 66.0323 37.1394C66.3174 37.7055 66.4632 38.3331 66.4571 38.9688V48.6923H63.0966Z" fill="#FFC709"/>
<path d="M53.301 25.3923C53.301 20.9027 50.9669 18.2273 46.9263 18.2273C42.8858 18.2273 40.4667 20.9027 40.4667 25.3923C40.4667 29.8818 42.8891 32.558 46.9263 32.558C50.9636 32.558 53.301 29.8852 53.301 25.3923ZM49.9067 25.3923C49.9067 29.0377 48.3143 30.0763 46.9263 30.0763C45.5383 30.0763 43.8611 29.0377 43.8611 25.3923C43.8611 21.7468 45.543 20.7096 46.9263 20.7096C48.3097 20.7096 49.9067 21.7508 49.9067 25.3923Z" fill="#FFC709"/>
<path d="M76.3621 48.6938L71.8625 43.309H71.8319L71.8757 48.6938H68.4973V33.704H71.8757L71.8319 39.4677H71.879L75.8208 34.9795H80.4273L74.1422 41.3779L80.8738 48.6938H76.3621Z" fill="#FFC709"/>
<path d="M71.9056 15.4427C70.9389 16.5479 73.2153 17.8322 74.6882 18.3767C77.1 19.2306 79.6091 19.7699 82.155 19.9814L82.147 12.2038C77.2977 12.7059 73.4767 13.9168 71.9056 15.4427" fill="url(#paint0_linear_5734_23407)"/>
<path d="M13.9662 19.8254C13.9881 21.745 13.2936 23.6019 12.0222 25.0237C10.6409 26.3342 9.31923 26.7892 5.87645 26.7286H5.25146V32.2548H0.510254V13.1328C0.510254 13.1328 3.08521 12.8246 5.79285 12.8085C9.61514 12.7869 11.1073 13.5038 12.2352 14.5922C13.0878 15.4167 13.9662 17.44 13.9662 19.8254ZM9.30795 19.7339C9.30795 16.2621 7.60216 15.4335 6.43245 15.3709C5.99787 15.3487 5.25146 15.3925 5.25146 15.3925V24.0491H5.89636C7.4887 24.0491 9.30795 22.7399 9.30795 19.7339Z" fill="#0072BC"/>
<path d="M25.1138 32.2529H21.1124L14.3927 13.0852H20.0986C20.0986 13.0852 23.2276 24.4605 23.2641 24.7203H23.2939C23.3304 24.4598 26.5921 13.0852 26.5921 13.0852H31.8017L25.1138 32.2529Z" fill="#0072BC"/>
<path d="M92.0162 21.759C96.8649 21.2596 100.686 20.0487 102.259 18.5214C103.223 17.4169 100.947 16.1334 99.4724 15.5882C97.0604 14.7341 94.5511 14.1947 92.005 13.9828L92.0162 21.759Z" fill="url(#paint1_linear_5734_23407)"/>
<path d="M87.0879 22.0085C80.4259 22.0152 74.7187 20.7296 72.3302 18.9122C72.3096 18.8981 72.2983 18.9122 72.2937 18.9169C72.2938 18.9271 72.2971 18.937 72.303 18.9452L87.1045 33.9323L102.283 18.4949C100.235 20.5223 94.211 22.0025 87.0892 22.0099" fill="url(#paint2_linear_5734_23407)"/>
<path d="M72.2937 18.9479C72.2938 18.9585 72.297 18.9689 72.303 18.9776V18.9439L72.299 18.9405L72.2957 18.9452L72.2937 18.9479ZM87.0912 22.0085C80.4293 22.0152 74.722 20.7296 72.3335 18.9122C72.3129 18.8981 72.3017 18.9122 72.297 18.9169C72.2968 18.9255 72.2986 18.9341 72.3023 18.9418C72.309 18.9358 72.3182 18.9338 72.3335 18.9452C74.722 20.9227 80.4279 22.3107 87.0912 22.3053C94.2143 22.2972 100.238 20.6899 102.285 18.4949C100.237 20.5223 94.213 22.0025 87.0912 22.0099" fill="url(#paint3_linear_5734_23407)"/>
<path d="M92.0076 14.25C94.537 14.4508 97.0338 14.9568 99.4452 15.7571C100.685 16.1872 102.491 17.1032 102.489 18.0025C102.542 17.04 100.719 16.0506 99.4751 15.5882C97.063 14.7341 94.5538 14.1947 92.0076 13.9828V14.25Z" fill="url(#paint4_linear_5734_23407)"/>
<path d="M71.881 15.473C73.9265 13.447 79.9522 11.9649 87.0746 11.9568C93.7333 11.9507 99.4412 13.2316 101.829 15.053C101.85 15.0692 101.861 15.0577 101.864 15.053C101.866 15.043 101.864 15.0327 101.859 15.0241L87.0567 0.0363464L71.881 15.473Z" fill="url(#paint5_linear_5734_23407)"/>
<path d="M101.862 15.0244V15.0278L101.866 15.019C101.868 15.0088 101.866 14.9983 101.861 14.9894L101.862 15.0244ZM87.0774 11.6643C79.9523 11.671 73.9266 13.2797 71.8838 15.474C73.9293 13.448 79.955 11.9658 87.0774 11.9578C93.736 11.9517 99.4439 13.2326 101.832 15.054C101.852 15.0701 101.864 15.0587 101.867 15.054C101.868 15.0496 101.868 15.0451 101.867 15.0407C101.867 15.0362 101.865 15.0321 101.862 15.0284C101.857 15.0331 101.846 15.0365 101.832 15.0244C99.4479 13.0522 93.7619 11.6657 87.1225 11.665H87.0774" fill="url(#paint6_linear_5734_23407)"/>
<path d="M87.1045 33.729L72.3329 18.9109C72.3123 18.8968 72.301 18.9109 72.2964 18.9156C72.2965 18.9258 72.2998 18.9356 72.3057 18.9439L87.1072 33.9309L102.286 18.4936L87.1045 33.729Z" fill="url(#paint7_linear_5734_23407)"/>
<path d="M74.6881 18.3784C77.0999 19.2323 79.609 19.7716 82.1549 19.9831V19.7139C79.6261 19.5125 77.13 19.0061 74.7193 18.2055C73.4786 17.7754 71.6746 16.8593 71.6766 15.9587C71.6222 16.9225 73.4448 17.9106 74.6901 18.3751" fill="url(#paint8_linear_5734_23407)"/>
<defs>
<linearGradient id="paint0_linear_5734_23407" x1="80.6772" y1="20.8447" x2="77.9774" y2="12.2247" gradientUnits="userSpaceOnUse">
<stop stop-color="#0071BB"/>
<stop offset="0.218" stop-color="#0274BD"/>
<stop offset="0.414" stop-color="#0B7FC4"/>
<stop offset="0.603" stop-color="#1A91D0"/>
<stop offset="0.785" stop-color="#2EABE1"/>
<stop offset="0.936" stop-color="#44C7F4"/>
</linearGradient>
<linearGradient id="paint1_linear_5734_23407" x1="97.6353" y1="20.4138" x2="95.3889" y2="13.238" gradientUnits="userSpaceOnUse">
<stop stop-color="#FFDD00"/>
<stop offset="0.097" stop-color="#FFDD00"/>
<stop offset="0.223" stop-color="#FDD403"/>
<stop offset="0.43" stop-color="#FBBB0B"/>
<stop offset="0.689" stop-color="#F69419"/>
<stop offset="0.801" stop-color="#F48120"/>
<stop offset="1" stop-color="#F48120"/>
</linearGradient>
<linearGradient id="paint2_linear_5734_23407" x1="72.2937" y1="26.2136" x2="102.283" y2="26.2136" gradientUnits="userSpaceOnUse">
<stop offset="0.038" stop-color="#FFDD00"/>
<stop offset="0.283" stop-color="#FBC109"/>
<stop offset="0.769" stop-color="#F48120"/>
</linearGradient>
<linearGradient id="paint3_linear_5734_23407" x1="72.2937" y1="20.4001" x2="102.285" y2="20.4001" gradientUnits="userSpaceOnUse">
<stop stop-color="#EAC900"/>
<stop offset="0.491" stop-color="#F48120"/>
</linearGradient>
<linearGradient id="paint4_linear_5734_23407" x1="92.0076" y1="15.9926" x2="102.49" y2="15.9926" gradientUnits="userSpaceOnUse">
<stop stop-color="#F48120"/>
<stop offset="0.13" stop-color="#F48120"/>
<stop offset="0.509" stop-color="#F48120"/>
<stop offset="1" stop-color="#EAC900"/>
</linearGradient>
<linearGradient id="paint5_linear_5734_23407" x1="71.881" y1="7.75469" x2="101.865" y2="7.75469" gradientUnits="userSpaceOnUse">
<stop offset="0.16" stop-color="#0071BB"/>
<stop offset="0.366" stop-color="#1186C9"/>
<stop offset="1" stop-color="#44C7F4"/>
</linearGradient>
<linearGradient id="paint6_linear_5734_23407" x1="71.8838" y1="13.5691" x2="101.868" y2="13.5691" gradientUnits="userSpaceOnUse">
<stop stop-color="#005CA6"/>
<stop offset="0.16" stop-color="#005CA6"/>
<stop offset="0.406" stop-color="#0077BC"/>
<stop offset="1" stop-color="#00B8F1"/>
</linearGradient>
<linearGradient id="paint7_linear_5734_23407" x1="72.2964" y1="26.2123" x2="102.286" y2="26.2123" gradientUnits="userSpaceOnUse">
<stop stop-color="#E8C81C"/>
<stop offset="0.769" stop-color="#DC7727"/>
</linearGradient>
<linearGradient id="paint8_linear_5734_23407" x1="71.6754" y1="17.9709" x2="82.1549" y2="17.9709" gradientUnits="userSpaceOnUse">
<stop stop-color="#1B92D0"/>
<stop offset="0.84" stop-color="#015DA6"/>
<stop offset="1" stop-color="#015DA6"/>
</linearGradient>
</defs>
</svg>
