<svg width="101" height="100" viewBox="0 0 101 100" fill="none" xmlns="http://www.w3.org/2000/svg">
<g clip-path="url(#clip0_5577_61959)">
<path d="M99.7499 49.9977V49.9987C99.7594 57.3899 98.0987 64.6885 94.8911 71.3529C91.6834 78.0173 87.0111 83.8765 81.2205 88.4955L81.2193 88.4965C73.6957 94.5229 64.55 98.1948 54.9352 99.0489L54.9315 99.0492C53.6498 99.1694 52.3526 99.232 51.0396 99.2455H49.9563C48.6612 99.2455 47.3792 99.1701 46.1029 99.0536L46.1005 99.0534C36.4693 98.2045 27.3069 94.5291 19.7715 88.492L19.7704 88.4911C13.9821 83.8716 9.31176 78.0128 6.1057 71.3493C2.89965 64.6858 1.24006 57.3885 1.24992 49.9987V49.9977C1.24992 22.7991 23.2971 0.75 50.4977 0.75C77.6983 0.75 99.7499 22.7992 99.7499 49.9977Z" fill="#FFF7DF" stroke="#E43434" stroke-width="1.5"/>
<path d="M50.011 70.7324V94.4821C48.8327 94.4821 47.668 94.4096 46.5125 94.3098C37.7878 93.5504 29.4831 90.2377 22.6419 84.7882V83.7317C22.6397 82.7087 22.9532 81.7097 23.54 80.8702C24.1267 80.0307 24.9583 79.3914 25.922 79.0389L38.5556 74.3597L43.2642 72.8816L50.011 70.7324Z" fill="#BAE3FF"/>
<path d="M78.349 83.7227V84.7882C71.519 90.2301 63.2297 93.5422 54.5194 94.3098C53.3547 94.4126 52.1764 94.4716 50.9845 94.4867V70.7324L57.7767 72.8771L62.4398 74.3597L75.0735 79.0253C76.037 79.3788 76.8682 80.0192 77.4541 80.8595C78.0401 81.6998 78.3525 82.6994 78.349 83.7227Z" fill="#BAE3FF"/>
<path d="M57.7768 59.8955H43.2551V74.3684H57.7768V59.8955Z" fill="#DE9C73"/>
<path d="M34.9206 40.7159H38.5601V49.4214H36.1262C35.7438 49.4214 35.3729 49.2916 35.0743 49.0534C34.7758 48.8153 34.5676 48.4829 34.4839 48.1111L33.2555 42.7608C33.2008 42.5136 33.2027 42.2573 33.2611 42.0109C33.3195 41.7646 33.433 41.5345 33.5931 41.338C33.7531 41.1414 33.9556 40.9834 34.1855 40.8757C34.4153 40.768 34.6666 40.7134 34.9206 40.7159Z" fill="#E8B799"/>
<path d="M50.4978 21.0605L33.2556 30.4552L38.2599 55.8735C38.8241 58.7209 41.0806 61.5366 44.0195 63.7856C45.2073 64.679 46.6576 65.157 48.1457 65.1458H53.1956C54.8028 65.1451 56.3597 64.5873 57.5994 63.5679C60.1834 61.4323 62.2261 58.5804 62.7629 55.8599L68.7408 25.5357L50.4978 21.0605Z" fill="#E8B799"/>
<path d="M66.0793 40.7168H62.4398V49.4223H64.8692C65.2524 49.4233 65.6244 49.294 65.9238 49.0558C66.2233 48.8175 66.4322 48.4846 66.5161 48.1119L67.7217 42.7481C67.7745 42.5036 67.7719 42.2505 67.714 42.0072C67.6561 41.7639 67.5443 41.5365 67.3869 41.3418C67.2295 41.1471 67.0304 40.9899 66.8041 40.8818C66.5779 40.7736 66.3302 40.7173 66.0793 40.7168Z" fill="#E8B799"/>
<path d="M32.837 28.4376L36.0716 44.833L37.4773 43.8627C37.8409 43.6139 38.1303 43.272 38.3153 42.873C38.5002 42.474 38.5738 42.0327 38.5282 41.5956L36.6585 23.2959L34.775 24.2571C34.0496 24.6234 33.4641 25.2158 33.1077 25.9443C32.7512 26.6727 32.6434 27.4973 32.8006 28.2925L32.837 28.4376Z" fill="#54472D"/>
<path d="M68.1447 28.4376L64.9101 44.833L63.4998 43.8627C63.137 43.6132 62.8481 43.2712 62.6632 42.8724C62.4783 42.4736 62.4043 42.0326 62.4489 41.5956L64.3232 23.2959L66.2067 24.2571C66.9294 24.6259 67.5121 25.2191 67.8667 25.9472C68.2212 26.6752 68.3284 27.4984 68.172 28.2925L68.1447 28.4376Z" fill="#54472D"/>
<path d="M39.7885 18.3857H72.0891V20.8568C72.0891 23.4074 71.0725 25.8535 69.2629 27.657C67.4533 29.4605 64.999 30.4737 62.4398 30.4737H35.6212V22.539C35.6212 21.4375 36.0603 20.3811 36.8418 19.6022C37.6233 18.8233 38.6832 18.3857 39.7885 18.3857Z" fill="#54472D"/>
<path d="M36.7676 36.2775C38.1948 36.2775 39.3517 34.2171 39.3517 31.6754C39.3517 29.1337 38.1948 27.0732 36.7676 27.0732C35.3405 27.0732 34.1836 29.1337 34.1836 31.6754C34.1836 34.2171 35.3405 36.2775 36.7676 36.2775Z" fill="#54472D"/>
<path d="M66.8391 31.6754C66.8391 34.2145 65.6835 36.2775 64.2596 36.2775C62.8356 36.2775 61.6755 34.2145 61.6755 31.6754C61.6755 29.1363 62.8311 27.0732 64.2596 27.0732C65.6881 27.0732 66.8391 29.1317 66.8391 31.6754Z" fill="#54472D"/>
<path d="M50.5432 70.7324V94.4867H50.0336C48.8553 94.4867 47.6907 94.4141 46.5352 94.3144L49.283 77.5336L48.1092 75.9557L47.0083 74.4776L47.1084 74.3733L50.0109 71.2901L50.1974 71.0906L50.5432 70.7324Z" fill="#296FB0"/>
<path d="M54.5193 94.3098C53.3547 94.4126 52.1764 94.4716 50.9845 94.4867H50.5295V70.7324L50.8207 71.0453L50.9936 71.2312L53.937 74.3506L54.0371 74.4549L52.918 75.9557L51.7488 77.5336L54.5193 94.3098Z" fill="#296FB0"/>
<path d="M38.5602 74.3644L43.2551 67.1279L50.9845 70.7462L46.6126 78.6446L38.5602 74.3644Z" fill="#F1F9FF"/>
<path d="M62.4399 74.3644L57.7404 67.1279L50.0155 70.7462L54.3829 78.6446L62.4399 74.3644Z" fill="#F1F9FF"/>
<path d="M40.0331 57.7211C39.9963 57.7297 39.9581 57.7297 39.9213 57.7211C37.3954 56.1917 35.1026 49.2665 34.8229 48.0126C34.8168 47.982 34.8167 47.9505 34.8225 47.9199C34.8283 47.8893 34.84 47.8601 34.8569 47.8341C34.891 47.7815 34.9441 47.7449 35.0047 47.7323C35.0653 47.7197 35.1283 47.7322 35.1798 47.7669C35.2314 47.8017 35.2673 47.8559 35.2797 47.9176C35.6059 49.4375 37.8801 55.9162 40.1543 57.2841C40.1815 57.2989 40.2053 57.3192 40.2244 57.3438C40.2435 57.3684 40.2575 57.3967 40.2653 57.427C40.2732 57.4573 40.2749 57.489 40.2702 57.5199C40.2655 57.5509 40.2546 57.5806 40.2382 57.6071C40.2169 57.6428 40.1867 57.6722 40.1507 57.6922C40.1147 57.7122 40.0741 57.7222 40.0331 57.7211Z" fill="white"/>
<path d="M62.536 57.8021C62.5013 57.8028 62.4669 57.7966 62.4348 57.7841C62.4027 57.7715 62.3737 57.7527 62.3495 57.729C62.2993 57.6802 62.2711 57.6145 62.2711 57.5462C62.2711 57.4778 62.2993 57.4122 62.3495 57.3633C64.1928 55.4202 66.5956 48.1283 66.7931 46.5508C66.7956 46.5159 66.8059 46.4818 66.8231 46.4508C66.8403 46.4198 66.8642 46.3926 66.8931 46.371C66.9221 46.3493 66.9555 46.3337 66.9911 46.3251C67.0268 46.3165 67.064 46.3151 67.1003 46.321C67.1712 46.3289 67.236 46.3628 67.2811 46.4154C67.3261 46.4681 67.3479 46.5354 67.3417 46.6031C67.1332 48.2746 64.7085 55.6605 62.7555 57.7185C62.7278 57.7472 62.6937 57.7695 62.6557 57.784C62.6177 57.7984 62.5769 57.8046 62.536 57.8021Z" fill="white"/>
<path d="M38.325 48.6359C38.2899 48.6367 38.256 48.6074 38.2304 48.5541C38.1052 48.1332 38.0095 47.6723 37.9468 47.1873C37.6158 45.2715 37.0065 41.7552 36.3184 41.1244C36.2557 41.0611 36.1876 41.0284 36.1188 41.0284C36.0499 41.0284 35.9819 41.0611 35.9192 41.1244C35.8871 41.1614 35.8498 41.1686 35.8153 41.1445C35.7809 41.1205 35.7521 41.067 35.7353 40.9959C35.7233 40.9214 35.7248 40.8395 35.7395 40.7675C35.7543 40.6956 35.781 40.6392 35.8141 40.6104C35.9083 40.5116 36.0109 40.4584 36.115 40.4543C36.2192 40.4503 36.3225 40.4955 36.4182 40.587C37.2114 41.3463 37.8365 44.8509 38.1937 46.942C38.2555 47.3436 38.331 47.7341 38.4195 48.1102C38.4368 48.1516 38.4483 48.2033 38.4526 48.259C38.457 48.3147 38.454 48.3719 38.4439 48.4239C38.4339 48.4758 38.4174 48.5202 38.3963 48.5516C38.3751 48.583 38.3504 48.6001 38.325 48.6009V48.6359Z" fill="white"/>
<path d="M64.1101 47.7268H64.0517C64.0241 47.7203 63.9981 47.703 63.9758 47.6767C63.9536 47.6503 63.9358 47.6157 63.9243 47.5759C63.9127 47.5361 63.9076 47.4925 63.9094 47.4488C63.9113 47.4052 63.92 47.3629 63.9349 47.3259C63.9349 47.2572 63.9787 46.9823 64.0079 46.7074C64.1904 45.0352 64.5699 41.599 65.5771 40.6942C65.7168 40.5648 65.873 40.4854 66.0344 40.4617C66.1959 40.4379 66.3588 40.4704 66.5113 40.5568C66.557 40.5828 66.5946 40.6353 66.6163 40.7035C66.638 40.7717 66.6423 40.8503 66.6281 40.9233C66.6115 40.9949 66.5781 41.0539 66.5346 41.088C66.4912 41.1221 66.441 41.1287 66.3946 41.1065C66.2928 41.0455 66.1835 41.021 66.0749 41.0349C65.9663 41.0488 65.8611 41.1007 65.7669 41.1867C64.9056 41.9885 64.5115 45.5048 64.3655 46.822C64.3217 47.2229 64.2998 47.4176 64.2779 47.5321C64.266 47.5876 64.2435 47.636 64.2135 47.6709C64.1835 47.7057 64.1474 47.7252 64.1101 47.7268Z" fill="white"/>
<path d="M53.4952 63.1293C52.3981 63.1293 51.3996 63.1816 50.3463 63.1816C43.5767 63.1816 38.014 58.6894 37.5203 53.0481L36.9169 46.3203C41.514 47.1665 47.1755 46.5397 51.8166 46.5397C56.4576 46.5397 60.1003 47.1665 64.6974 46.3203C64.4451 49.1828 64.1927 51.9407 63.9623 54.5942C63.5564 59.2431 59.0579 62.9413 53.4952 63.1293Z" fill="white"/>
<path d="M41.8322 51.0213H41.7774C41.7036 51.016 41.635 50.9836 41.5858 50.931C41.5367 50.8783 41.511 50.8096 41.514 50.7393C41.5194 50.6754 41.5491 50.6157 41.5977 50.5714C41.6462 50.5271 41.7102 50.5013 41.7774 50.499C41.8432 50.499 42.1394 50.4259 42.4576 50.3527C45.2615 49.6706 48.1344 49.2783 51.0266 49.1827C54.1479 49.1769 57.2568 49.5561 60.2758 50.3109C60.3109 50.3182 60.3442 50.3322 60.3734 50.3522C60.4026 50.3722 60.4272 50.3976 60.4457 50.427C60.4643 50.4563 60.4762 50.489 60.481 50.5229C60.4857 50.5569 60.4831 50.5914 60.4733 50.6244C60.4644 50.6582 60.4484 50.69 60.4264 50.7179C60.4043 50.7458 60.3766 50.7692 60.3449 50.7868C60.3132 50.8043 60.2781 50.8156 60.2418 50.82C60.2054 50.8244 60.1685 50.8218 60.1332 50.8124C57.1816 50.0762 54.1436 49.7005 51.0924 49.6946C48.2405 49.7883 45.4077 50.1771 42.6441 50.8542C42.3794 50.9334 42.1077 50.9893 41.8322 51.0213Z" fill="#D2DBF5"/>
<path d="M50.3573 54.4059C49.2601 54.4059 48.3385 54.4059 48.163 54.3327C48.0967 54.3155 48.0396 54.2752 48.003 54.2198C47.9664 54.1644 47.953 54.098 47.9655 54.0336C47.9779 53.9693 48.0152 53.9117 48.0701 53.8723C48.1249 53.8329 48.1933 53.8145 48.2617 53.8209C50.3151 53.9601 52.3781 53.8936 54.4169 53.6224C54.4896 53.6099 54.5646 53.6255 54.6253 53.6656C54.686 53.7058 54.7275 53.7673 54.7406 53.8365C54.7536 53.9058 54.7373 53.9772 54.6951 54.035C54.6529 54.0928 54.5884 54.1322 54.5156 54.1447C53.1392 54.3388 51.7486 54.4262 50.3573 54.4059Z" fill="#D2DBF5"/>
<path d="M51.4765 58.4077C48.3936 58.3179 45.3532 57.6986 42.5016 56.5795C42.4365 56.5501 42.3861 56.4974 42.3615 56.4329C42.3368 56.3684 42.3399 56.2972 42.3699 56.2348C42.384 56.2031 42.4049 56.1745 42.4311 56.1509C42.4573 56.1272 42.4884 56.1089 42.5223 56.0971C42.5563 56.0854 42.5924 56.0804 42.6285 56.0825C42.6646 56.0846 42.6998 56.0938 42.732 56.1094C45.8141 57.2985 49.1171 57.8813 52.442 57.8227C54.6425 57.7928 56.8197 57.3895 58.8715 56.6318C58.9023 56.6154 58.9363 56.6052 58.9714 56.6016C59.0065 56.598 59.042 56.6012 59.0758 56.611C59.1095 56.6207 59.1409 56.6368 59.168 56.6583C59.1951 56.6799 59.2174 56.7064 59.2336 56.7362C59.2509 56.7664 59.2619 56.7995 59.2658 56.8337C59.2697 56.8679 59.2664 56.9025 59.2562 56.9355C59.246 56.9685 59.2291 56.9993 59.2064 57.0261C59.1836 57.0528 59.1556 57.075 59.1238 57.0914C59.047 57.0914 57.127 58.0734 52.4749 58.3451C52.1458 58.3973 51.8057 58.4077 51.4765 58.4077Z" fill="#D2DBF5"/>
<path fill-rule="evenodd" clip-rule="evenodd" d="M94 80C94 85.5 89.5 90 84 90C78.5 90 74 85.5 74 80C74 74.5 78.5 70 84 70C89.5 70 94 74.5 94 80ZM87.3603 76.6396C87.6531 76.9325 87.6531 77.4074 87.3603 77.7003L85.0606 79.9999L87.3603 82.2996C87.6531 82.5925 87.6531 83.0674 87.3603 83.3603C87.0674 83.6531 86.5925 83.6531 86.2996 83.3603L83.9999 81.0606L81.7003 83.3603C81.4074 83.6531 80.9325 83.6531 80.6396 83.3603C80.3467 83.0674 80.3467 82.5925 80.6396 82.2996L82.9393 79.9999L80.6396 77.7003C80.3467 77.4074 80.3467 76.9325 80.6396 76.6396C80.9325 76.3467 81.4074 76.3467 81.7003 76.6396L83.9999 78.9393L86.2996 76.6396C86.5925 76.3467 87.0674 76.3467 87.3603 76.6396Z" fill="#E43434"/>
</g>
<defs>
<clipPath id="clip0_5577_61959">
<rect width="100" height="100" fill="white" transform="translate(0.5)"/>
</clipPath>
</defs>
</svg>
