<svg width="288" height="336" viewBox="0 0 288 336" fill="none" xmlns="http://www.w3.org/2000/svg">
<circle opacity="0.3" cx="144" cy="144" r="144" fill="#FFF7DF"/>
<circle opacity="0.4" cx="144" cy="144" r="105" fill="#FFEAAF"/>
<rect x="69" y="88" width="150.415" height="93.5009" rx="5.42034" fill="url(#paint0_linear_5493_59178)"/>
<g opacity="0.5">
<rect x="81.8506" y="157.121" width="116.574" height="13.8751" rx="2.71017" fill="#FAF7F7"/>
</g>
<path d="M109.62 123.104H85.4031C83.2871 123.104 81.5541 124.83 81.5323 126.96L81.3537 144.405C81.3319 146.534 83.0296 148.26 85.1455 148.26H109.363C111.479 148.26 113.212 146.534 113.234 144.405L113.412 126.96C113.434 124.83 111.736 123.104 109.62 123.104Z" fill="url(#paint1_linear_5493_59178)"/>
<g opacity="0.48">
<path d="M98.1661 123.104H85.3675C83.2719 123.104 81.5528 124.962 81.5293 127.254L81.388 141.059L81.6113 133.15L98.1661 123.104Z" fill="url(#paint2_linear_5493_59178)"/>
<path opacity="0.35" d="M113.413 127.254C113.437 124.962 111.756 123.104 109.66 123.104L98.1662 123.104L81.6114 133.15L81.3762 141.059L81.345 144.106C81.3265 144.84 81.4986 145.564 81.8443 146.207C82.19 146.849 82.6973 147.388 83.3161 147.77L113.378 129.522L113.413 127.254Z" fill="white"/>
<path d="M102.08 148.259L113.264 141.468L113.268 141.412L113.34 134.418L90.5385 148.259H102.08Z" fill="url(#paint3_linear_5493_59178)"/>
<path opacity="0.35" d="M102.08 148.259L113.264 141.468L113.268 141.412L113.34 134.418L90.5385 148.259H102.08Z" fill="white"/>
</g>
<path opacity="0.61" d="M108.785 123.196H85.7577C83.2391 123.196 81.1687 124.986 81.1463 127.174L80.9671 144.679C80.9446 146.879 82.9784 148.657 85.497 148.657H108.524C111.043 148.657 113.109 146.871 113.132 144.679L113.311 127.174C113.333 124.986 111.303 123.196 108.785 123.196ZM81.431 127.174C81.4517 125.149 83.3902 123.498 85.7546 123.498H96.3786L96.366 124.723L96.2392 124.751C96.0847 124.779 95.9262 124.815 95.7755 124.855L95.5455 124.922C95.4027 124.966 95.2638 125.018 95.1486 125.07C95.0891 125.093 95.0296 125.113 94.9739 125.141C94.7946 125.219 94.6194 125.307 94.4493 125.404C94.3818 125.44 94.3141 125.483 94.2504 125.523C94.1868 125.563 94.0355 125.662 93.932 125.734C93.8284 125.806 93.8205 125.806 93.7687 125.845C93.6532 125.933 93.5415 126.028 93.4377 126.12L93.3898 126.164C93.2901 126.255 93.1902 126.351 93.0783 126.47L93.0503 126.498C92.9544 126.601 92.8663 126.709 92.7822 126.816L92.7461 126.86C92.5557 127.103 92.3876 127.362 92.244 127.636C92.2436 127.671 92.2076 127.707 92.1915 127.743L92.1592 127.807C92.1188 127.886 92.0824 127.966 92.05 128.045C92.0263 128.096 92.0059 128.148 91.9891 128.201L91.9485 128.3H81.4194L81.431 127.174ZM81.4164 128.598H91.8229C91.8225 128.642 91.822 128.69 91.7938 128.734C91.7528 128.885 91.7195 129.04 91.6902 129.199C91.6896 129.263 91.6889 129.33 91.6606 129.394C91.632 129.599 91.6154 129.804 91.6108 130.011C91.5997 131.101 91.9337 132.162 92.5642 133.042C92.6383 133.15 92.6963 133.269 92.7624 133.38H81.3674L81.4164 128.598ZM81.3642 133.699H92.9173C92.9939 133.866 93.0608 134.037 93.1177 134.212C93.1172 134.26 93.1443 134.311 93.1556 134.363C93.198 134.516 93.2321 134.672 93.2576 134.829C93.2571 134.884 93.2565 134.94 93.2836 134.996C93.3113 135.204 93.325 135.414 93.3246 135.624L93.3165 136.42C93.3124 136.637 93.2943 136.853 93.2624 137.068C93.2616 137.148 93.2292 137.223 93.2126 137.299C93.196 137.375 93.1585 137.562 93.1215 137.697C93.0845 137.832 93.0644 137.868 93.0319 137.955C92.9924 138.069 92.9464 138.181 92.894 138.29C92.8576 138.373 92.8132 138.457 92.7689 138.536C92.7246 138.616 92.7167 138.62 92.6925 138.668H81.3133L81.3642 133.699ZM81.3104 138.95H92.5156C91.8536 139.842 91.4931 140.922 91.4877 142.029C91.4871 142.225 91.4983 142.42 91.5213 142.614C91.5191 142.641 91.5188 142.667 91.5205 142.694C91.5482 142.872 91.586 143.049 91.6337 143.223C91.6337 143.223 91.6337 143.223 91.6333 143.255H81.2663L81.3104 138.95ZM96.1242 148.343H85.5002C83.1279 148.343 81.2311 146.696 81.2519 144.667L81.2633 143.553H91.7093C91.7088 143.605 91.7479 143.652 91.7671 143.704C91.7863 143.756 91.8439 143.923 91.8903 144.03C91.9366 144.138 91.9637 144.201 92.0023 144.285C92.0759 144.436 92.1535 144.579 92.2391 144.723C92.2896 144.806 92.3481 144.886 92.4026 144.969C92.4571 145.053 92.5156 145.132 92.578 145.212C92.6405 145.292 92.6951 145.359 92.7577 145.431C92.8699 145.57 92.99 145.703 93.1173 145.829C93.1565 145.868 93.1996 145.904 93.2427 145.94C93.3602 146.047 93.4818 146.147 93.6073 146.242L93.7408 146.342C94.0941 146.593 94.4753 146.803 94.877 146.966H94.9324C95.319 147.124 95.7223 147.237 96.1348 147.305L96.1242 148.343ZM112.851 144.667C112.83 146.696 110.888 148.343 108.527 148.343H97.9074L97.9178 147.325C98.1854 147.286 98.4503 147.229 98.7103 147.153C99.5848 146.912 100.388 146.457 101.049 145.828C101.709 145.2 102.206 144.418 102.495 143.553H112.862L112.851 144.667ZM112.866 143.247H102.281L102.248 143.354C101.98 144.21 101.498 144.985 100.848 145.603C100.198 146.221 99.4033 146.662 98.5391 146.883C98.2788 146.952 98.014 147.003 97.7468 147.034H97.6243L97.611 148.327H96.4011L96.4145 147.026H96.3907L96.1895 146.99H96.0906H96.0471C95.9443 146.99 95.8379 146.955 95.7394 146.927L95.6369 146.899C95.2059 146.784 94.7908 146.617 94.4004 146.402C94.3742 146.389 94.3492 146.375 94.3258 146.358C94.1725 146.27 94.0311 146.175 93.8898 146.075L93.7681 145.992C93.6206 145.88 93.4793 145.761 93.3447 145.634C93.2938 145.586 93.243 145.53 93.1921 145.479C93.1412 145.427 93.0356 145.315 92.9614 145.228C92.8872 145.14 92.8442 145.093 92.7895 145.021C92.7349 144.949 92.6453 144.822 92.5791 144.723C92.5129 144.623 92.4429 144.504 92.3809 144.388C92.3188 144.273 92.2838 144.213 92.2412 144.126C92.1986 144.038 92.1638 143.963 92.133 143.879C92.0752 143.736 92.0213 143.593 91.9754 143.442L91.9564 143.366C91.8984 143.157 91.853 142.944 91.8206 142.73L91.8214 142.646C91.6694 141.42 91.9968 140.178 92.7347 139.181C92.7493 139.153 92.7654 139.127 92.7829 139.101L92.8753 138.962L92.9155 138.894L92.9397 138.851L93.0603 138.656L93.1693 138.437C93.2219 138.321 93.2666 138.206 93.3113 138.087C93.356 137.967 93.3883 137.896 93.417 137.796C93.4457 137.697 93.4871 137.522 93.516 137.399C93.5449 137.275 93.5573 137.227 93.5701 137.136C93.6056 136.903 93.6252 136.667 93.6287 136.432L93.6368 135.636C93.6372 135.414 93.6237 135.192 93.5962 134.972C93.597 134.892 93.5701 134.817 93.559 134.741C93.5328 134.598 93.5026 134.459 93.4685 134.319L93.3998 134.077C93.3575 133.953 93.3074 133.83 93.2572 133.711H93.277L93.1724 133.496L93.1726 133.476L93.1417 133.412C93.0485 133.229 92.9433 133.052 92.8268 132.883C92.2376 132.058 91.924 131.064 91.9307 130.043C91.9342 129.817 91.9537 129.593 91.989 129.37L92.0143 129.211C92.0516 129.01 92.1025 128.812 92.1667 128.618C92.5224 127.549 93.2169 126.623 94.1429 125.985C94.2332 125.918 94.3287 125.855 94.4295 125.794L94.6642 125.654C94.8113 125.579 94.9584 125.503 95.1093 125.44L95.3316 125.352C95.4665 125.3 95.6015 125.253 95.7284 125.213L95.9584 125.149C96.1139 125.109 96.2713 125.077 96.4299 125.054H96.5445H96.671L96.6869 123.506H97.8968L97.8816 124.986H98.0042H98.0319C98.2332 125.014 98.4265 125.054 98.6277 125.101L98.7933 125.145C98.9757 125.192 99.1548 125.25 99.3292 125.32L99.3962 125.344C99.5864 125.422 99.7716 125.511 99.951 125.611L100.096 125.69C100.25 125.782 100.403 125.881 100.548 125.989C101.312 126.545 101.907 127.305 102.265 128.185C102.265 128.185 102.265 128.216 102.265 128.232C102.307 128.34 102.346 128.447 102.376 128.555C102.438 128.758 102.487 128.966 102.524 129.175C102.524 129.223 102.523 129.275 102.542 129.322C102.574 129.548 102.59 129.775 102.591 130.003C102.583 131.038 102.244 132.046 101.624 132.879C101.503 133.05 101.394 133.23 101.298 133.416L101.266 133.48L101.266 133.5L101.153 133.726C101.1 133.85 101.048 133.973 101.007 134.1C100.986 134.164 100.966 134.224 100.949 134.287C100.901 134.447 100.862 134.609 100.834 134.773C100.833 134.832 100.809 134.896 100.8 134.956C100.766 135.18 100.748 135.406 100.746 135.632L100.738 136.452C100.722 137.316 100.942 138.167 101.373 138.91L101.415 138.978H112.882L112.866 143.247ZM112.913 138.64H101.565C101.188 137.965 100.997 137.201 101.011 136.424L101.019 135.612C101.023 135.403 101.041 135.195 101.073 134.988C101.073 134.932 101.074 134.88 101.098 134.825C101.126 134.663 101.165 134.504 101.214 134.347L101.251 134.212C101.309 134.039 101.378 133.871 101.458 133.707H112.963L112.913 138.64ZM112.967 133.388H101.647C101.711 133.269 101.782 133.153 101.86 133.042C102.5 132.162 102.851 131.104 102.863 130.019C102.865 129.81 102.853 129.601 102.826 129.394L102.804 129.211C102.774 129.044 102.745 128.873 102.703 128.71C102.703 128.674 102.703 128.638 102.68 128.606H113.015L112.967 133.388ZM102.58 128.3L102.542 128.197L102.519 128.133L102.492 128.057C102.457 127.974 102.419 127.894 102.372 127.799L102.349 127.743L102.302 127.644C102.233 127.512 102.159 127.381 102.081 127.246L102.031 127.174C101.96 127.067 101.89 126.963 101.816 126.864L101.738 126.772C101.668 126.681 101.594 126.589 101.515 126.506L101.437 126.418L101.226 126.211H101.206L101.179 126.18L101.108 126.116C101.046 126.06 100.971 126.001 100.9 125.945L100.834 125.889L100.787 125.849L100.751 125.825C100.724 125.802 100.689 125.786 100.657 125.762C100.531 125.666 100.4 125.578 100.265 125.495L100.119 125.408C99.9408 125.307 99.7569 125.217 99.5684 125.137L99.4502 125.093C99.2887 125.03 99.1232 124.974 98.9537 124.922L98.7882 124.875C98.5831 124.823 98.3938 124.775 98.1609 124.743L98.1731 123.55H108.801C111.173 123.55 113.07 125.201 113.049 127.226L113.038 128.344L102.58 128.3Z" fill="white"/>
<path d="M109.029 122.934H86.0018C83.4792 122.934 81.4129 124.72 81.3904 126.912L81.2112 144.417C81.1887 146.613 83.2186 148.395 85.7411 148.395H108.768C111.287 148.395 113.353 146.605 113.376 144.417L113.555 126.912C113.569 124.736 111.548 122.934 109.029 122.934ZM81.6751 126.912C81.6959 124.883 83.6343 123.236 85.9987 123.236H96.6227L96.6105 124.429L96.4836 124.461C96.3275 124.488 96.1727 124.522 96.02 124.565L95.79 124.632C95.6472 124.676 95.5083 124.724 95.3733 124.78L95.1986 124.847C95.0159 124.927 94.845 125.014 94.674 125.11C94.6064 125.15 94.5388 125.189 94.4751 125.233C94.4114 125.277 94.2602 125.368 94.1566 125.444C94.053 125.52 94.0452 125.512 93.9934 125.555C93.8778 125.643 93.7662 125.734 93.6624 125.826L93.6145 125.87C93.5148 125.961 93.4149 126.057 93.303 126.176L93.275 126.208C93.179 126.311 93.091 126.415 93.0069 126.522L92.9708 126.57C92.7804 126.811 92.6123 127.07 92.4687 127.342C92.4683 127.377 92.4323 127.417 92.4161 127.453L92.3838 127.517C92.3474 127.596 92.3071 127.672 92.2747 127.751C92.2422 127.831 92.2301 127.859 92.2098 127.911L92.1732 128.006H81.6639L81.6751 126.912ZM81.6605 128.336H92.0671C92.0666 128.38 92.0662 128.424 92.038 128.467C91.9969 128.623 91.9637 128.778 91.9344 128.933C91.9337 129.001 91.9331 129.064 91.9047 129.132C91.876 129.336 91.8594 129.542 91.8549 129.749C91.8444 130.838 92.1783 131.9 92.8084 132.78C92.8824 132.887 92.9444 133.007 93.0066 133.118H81.6116L81.6605 128.336ZM81.6083 133.436H93.1773C93.2553 133.603 93.3222 133.774 93.3776 133.95C93.3771 133.997 93.4043 134.049 93.4156 134.097C93.4594 134.251 93.4935 134.408 93.5176 134.566C93.517 134.622 93.5362 134.678 93.5436 134.733C93.5713 134.942 93.585 135.152 93.5846 135.362L93.5764 136.158C93.5726 136.375 93.5545 136.591 93.5223 136.806C93.5215 136.886 93.4891 136.961 93.4764 137.041C93.4638 137.12 93.4184 137.299 93.3814 137.439C93.3444 137.578 93.3243 137.61 93.2918 137.697C93.2516 137.81 93.2056 137.92 93.154 138.027C93.1175 138.115 93.0732 138.195 93.0289 138.278L92.9524 138.405H81.5574L81.6083 133.436ZM81.5545 138.688H92.7598C92.1117 139.568 91.7561 140.629 91.7442 141.719C91.7433 141.915 91.7545 142.11 91.7778 142.304C91.7756 142.332 91.7753 142.36 91.7769 142.388C91.798 142.57 91.8292 142.75 91.8702 142.929C91.8702 142.929 91.87 142.949 91.8699 142.957H81.5108L81.5545 138.688ZM96.3683 148.081H85.7444C83.372 148.081 81.4752 146.434 81.496 144.405L81.5074 143.291H91.9535C91.953 143.343 91.992 143.386 92.0113 143.438C92.0497 143.549 92.0881 143.657 92.1344 143.768C92.1807 143.88 92.2078 143.939 92.2465 144.019C92.3201 144.17 92.3977 144.317 92.4832 144.46C92.5337 144.544 92.5922 144.624 92.6468 144.703L92.8222 144.95C92.8807 145.021 92.9393 145.097 93.0018 145.169C93.0643 145.24 93.2324 145.431 93.3615 145.566L93.4869 145.678C93.6044 145.781 93.7259 145.885 93.8515 145.98L93.9849 146.08C94.3392 146.33 94.7202 146.539 95.1212 146.704H95.1765C95.5575 146.857 95.954 146.969 96.3592 147.038L96.3683 148.081ZM113.095 144.417C113.074 146.446 111.132 148.093 108.771 148.093H98.1435L98.1539 147.074C98.4212 147.034 98.6859 146.977 98.9464 146.903C99.8186 146.664 100.621 146.211 101.281 145.587C101.941 144.962 102.44 144.184 102.731 143.323H113.11L113.095 144.417ZM113.11 142.992H102.525L102.492 143.1C102.225 143.956 101.743 144.731 101.093 145.349C100.443 145.967 99.6477 146.408 98.7832 146.629C98.5229 146.699 98.2581 146.751 97.9908 146.784H97.8643L97.851 148.081H96.6451L96.6582 146.804H96.6345L96.4331 146.772H96.3343H96.2908L95.9831 146.708L95.8806 146.676C95.4497 146.563 95.0346 146.397 94.6441 146.183L94.5695 146.135C94.4189 146.051 94.2733 145.958 94.1335 145.857L94.0118 145.769C93.8646 145.659 93.7232 145.541 93.5884 145.415L93.4358 145.26L93.2051 145.009C93.1465 144.938 93.0879 144.87 93.0333 144.799C92.9786 144.727 92.889 144.604 92.8228 144.5C92.7567 144.397 92.6867 144.281 92.6245 144.17C92.5624 144.059 92.5275 143.995 92.4849 143.903C92.4424 143.812 92.4075 143.74 92.3768 143.657C92.346 143.573 92.265 143.37 92.2191 143.223L92.1962 143.144C92.1405 142.934 92.0965 142.722 92.0643 142.507L92.0651 142.428C91.912 141.2 92.2395 139.956 92.9784 138.958C92.9931 138.932 93.0092 138.907 93.0266 138.883L93.119 138.744L93.1593 138.672L93.1834 138.632L93.304 138.433L93.413 138.218C93.4656 138.103 93.5103 137.984 93.555 137.864C93.5997 137.745 93.6321 137.673 93.6608 137.574C93.6895 137.474 93.7308 137.299 93.7597 137.176C93.7887 137.053 93.801 137.005 93.8138 136.918C93.8511 136.684 93.8707 136.449 93.8724 136.213L93.8805 135.418C93.8809 135.194 93.8674 134.971 93.8399 134.749C93.8407 134.674 93.8138 134.598 93.8028 134.519C93.7765 134.375 93.7463 134.236 93.7082 134.097C93.6701 133.958 93.6664 133.938 93.6435 133.858C93.6205 133.779 93.5511 133.611 93.5009 133.492L93.3964 133.277L93.3654 133.214C93.2722 133.029 93.1671 132.851 93.0506 132.681C92.46 131.856 92.1475 130.861 92.1584 129.84C92.1621 129.615 92.1816 129.39 92.2167 129.168L92.242 129.013C92.2807 128.812 92.3316 128.614 92.3944 128.42C92.7325 127.329 93.4211 126.378 94.3515 125.718C94.4431 125.655 94.5387 125.587 94.6381 125.527L94.8728 125.392C95.0199 125.313 95.1669 125.241 95.3178 125.177L95.5401 125.09C95.6751 125.038 95.81 124.99 95.937 124.947L96.163 124.887C96.3185 124.847 96.4759 124.815 96.6344 124.791L96.7494 124.768H96.8759L96.8913 123.26H98.0972L98.0821 124.74H98.2086H98.2402C98.4397 124.765 98.6374 124.802 98.8322 124.851L99.0017 124.895C99.1791 124.947 99.3604 125.002 99.5337 125.07L99.6007 125.094C99.7897 125.173 99.9746 125.265 100.155 125.36L100.301 125.444C100.454 125.535 100.607 125.635 100.753 125.738C101.517 126.295 102.111 127.055 102.47 127.934C102.469 127.952 102.468 127.969 102.469 127.986C102.508 128.09 102.546 128.201 102.577 128.308C102.638 128.512 102.687 128.719 102.725 128.929C102.724 128.977 102.724 129.024 102.723 129.076C102.755 129.3 102.771 129.526 102.771 129.752C102.76 130.77 102.429 131.762 101.825 132.585C101.704 132.757 101.595 132.938 101.499 133.126L101.467 133.19L101.354 133.421C101.301 133.544 101.249 133.667 101.208 133.794C101.185 133.856 101.165 133.918 101.151 133.981C101.105 134.141 101.064 134.3 101.035 134.463C101.034 134.527 101.01 134.586 101.001 134.65C100.969 134.874 100.951 135.1 100.947 135.326L100.939 136.122C100.925 136.986 101.144 137.836 101.574 138.58L101.617 138.652H113.103L113.11 142.992ZM113.157 138.389H101.825C101.448 137.714 101.256 136.948 101.27 136.17L101.279 135.374C101.283 135.164 101.3 134.954 101.329 134.745C101.329 134.694 101.33 134.638 101.358 134.586C101.387 134.424 101.425 134.263 101.474 134.105C101.474 134.061 101.474 134.017 101.51 133.974C101.569 133.801 101.638 133.632 101.717 133.468H113.207L113.157 138.389ZM113.211 133.138H101.891C101.959 133.023 102.024 132.899 102.1 132.792C102.743 131.913 103.096 130.855 103.107 129.768C103.109 129.559 103.097 129.351 103.07 129.144L103.048 128.961C103.022 128.79 102.989 128.623 102.947 128.456C102.937 128.423 102.93 128.39 102.924 128.356H113.259L113.211 133.138ZM102.825 128.038L102.782 127.93L102.759 127.867C102.759 127.839 102.76 127.815 102.732 127.791C102.697 127.708 102.659 127.624 102.616 127.533L102.589 127.473L102.543 127.377C102.473 127.242 102.399 127.115 102.321 126.98L102.271 126.904C102.201 126.801 102.131 126.697 102.056 126.598L101.982 126.502C101.908 126.411 101.834 126.323 101.756 126.236L101.677 126.152L101.466 125.941L101.439 125.913L101.368 125.846C101.306 125.79 101.231 125.734 101.16 125.679L101.094 125.619L101.047 125.583L101.011 125.555L100.917 125.496C100.791 125.4 100.66 125.311 100.525 125.229L100.379 125.142C100.201 125.041 100.017 124.951 99.8283 124.871C99.7886 124.853 99.7479 124.837 99.7063 124.823C99.5453 124.759 99.3809 124.703 99.2137 124.656L99.0482 124.608C98.8419 124.553 98.6324 124.509 98.4209 124.477L98.4331 123.284H109.061C111.433 123.284 113.33 124.931 113.309 126.96L113.298 128.074L102.825 128.038Z" fill="#856400"/>
<mask id="mask0_5493_59178" style="mask-type:luminance" maskUnits="userSpaceOnUse" x="81" y="122" width="33" height="27">
<path d="M101.699 148.415H92.8106C86.3817 148.415 81.2289 142.714 81.3008 135.684C81.3728 128.654 86.6423 122.953 93.0713 122.953H101.96C108.385 122.933 113.529 128.65 113.458 135.664C113.386 142.714 108.124 148.415 101.699 148.415Z" fill="white"/>
</mask>
<g mask="url(#mask0_5493_59178)">
<path style="mix-blend-mode:screen" opacity="0.41" d="M42.4926 163.983C40.765 160.482 63.1967 143.339 92.5963 125.695C121.996 108.051 147.232 96.5897 148.96 100.091C150.687 103.592 128.24 120.738 98.8558 138.382C69.4721 156.026 44.2201 167.492 42.4926 163.983Z" fill="url(#paint4_radial_5493_59178)"/>
<path style="mix-blend-mode:screen" opacity="0.41" d="M63.4385 168.009C62.5357 166.203 80.406 153.568 103.329 139.822C126.252 126.077 145.563 116.374 146.454 118.18C147.344 119.986 129.49 132.61 106.567 146.367C83.6443 160.124 64.3333 169.815 63.4385 168.009Z" fill="url(#paint5_radial_5493_59178)"/>
</g>
<g filter="url(#filter0_ddd_5493_59178)">
<path fill-rule="evenodd" clip-rule="evenodd" d="M103.621 108H185.379C193.454 108 200 114.516 200 122.555V301.445C200 309.484 193.454 316 185.379 316H103.621C95.546 316 89 309.484 89 301.445V122.555C89 114.516 95.546 108 103.621 108ZM194.498 298.677V123.933C194.498 118.005 189.66 113.156 183.751 113.156H105.257C99.3379 113.156 94.502 118.005 94.502 123.933V298.677C94.502 304.605 99.3379 309.452 105.247 309.452H183.743C189.66 309.452 194.498 304.605 194.498 298.677Z" fill="white"/>
<path d="M194.498 123.933V298.677C194.498 304.605 189.66 309.452 183.743 309.452H105.247C99.3379 309.452 94.502 304.605 94.502 298.677V123.933C94.502 118.005 99.3379 113.156 105.257 113.156H183.751C189.66 113.156 194.498 118.005 194.498 123.933Z" fill="#F0F0F0" fill-opacity="0.7"/>
<path d="M160.907 109.219H128.095C125.412 109.219 123.236 111.384 123.236 114.055V114.818C123.236 117.489 125.412 119.654 128.095 119.654H160.907C163.59 119.654 165.765 117.489 165.765 114.818V114.055C165.765 111.384 163.59 109.219 160.907 109.219Z" fill="white"/>
</g>
<defs>
<filter id="filter0_ddd_5493_59178" x="73" y="84" width="143" height="252" filterUnits="userSpaceOnUse" color-interpolation-filters="sRGB">
<feFlood flood-opacity="0" result="BackgroundImageFix"/>
<feColorMatrix in="SourceAlpha" type="matrix" values="0 0 0 0 0 0 0 0 0 0 0 0 0 0 0 0 0 0 127 0" result="hardAlpha"/>
<feOffset dy="-8"/>
<feGaussianBlur stdDeviation="8"/>
<feComposite in2="hardAlpha" operator="out"/>
<feColorMatrix type="matrix" values="0 0 0 0 0 0 0 0 0 0 0 0 0 0 0 0 0 0 0.08 0"/>
<feBlend mode="normal" in2="BackgroundImageFix" result="effect1_dropShadow_5493_59178"/>
<feColorMatrix in="SourceAlpha" type="matrix" values="0 0 0 0 0 0 0 0 0 0 0 0 0 0 0 0 0 0 127 0" result="hardAlpha"/>
<feOffset dy="4"/>
<feGaussianBlur stdDeviation="8"/>
<feComposite in2="hardAlpha" operator="out"/>
<feColorMatrix type="matrix" values="0 0 0 0 0 0 0 0 0 0 0 0 0 0 0 0 0 0 0.05 0"/>
<feBlend mode="normal" in2="effect1_dropShadow_5493_59178" result="effect2_dropShadow_5493_59178"/>
<feColorMatrix in="SourceAlpha" type="matrix" values="0 0 0 0 0 0 0 0 0 0 0 0 0 0 0 0 0 0 127 0" result="hardAlpha"/>
<feOffset dy="4"/>
<feGaussianBlur stdDeviation="2"/>
<feComposite in2="hardAlpha" operator="out"/>
<feColorMatrix type="matrix" values="0 0 0 0 0 0 0 0 0 0 0 0 0 0 0 0 0 0 0.05 0"/>
<feBlend mode="normal" in2="effect2_dropShadow_5493_59178" result="effect3_dropShadow_5493_59178"/>
<feBlend mode="normal" in="SourceGraphic" in2="effect3_dropShadow_5493_59178" result="shape"/>
</filter>
<linearGradient id="paint0_linear_5493_59178" x1="237.426" y1="59.612" x2="115.671" y2="10.9702" gradientUnits="userSpaceOnUse">
<stop stop-color="#A1D5DC"/>
<stop offset="0.453913" stop-color="#E9EAA8" stop-opacity="0.6"/>
<stop offset="1" stop-color="#B7DBE0"/>
</linearGradient>
<linearGradient id="paint1_linear_5493_59178" x1="76.0656" y1="141.878" x2="121.007" y2="129.396" gradientUnits="userSpaceOnUse">
<stop stop-color="#CFB688"/>
<stop offset="1" stop-color="#CFB383"/>
</linearGradient>
<linearGradient id="paint2_linear_5493_59178" x1="74.1901" y1="134.678" x2="119.311" y2="122.149" gradientUnits="userSpaceOnUse">
<stop stop-color="#F7B261"/>
<stop offset="1" stop-color="#C1AF81"/>
</linearGradient>
<linearGradient id="paint3_linear_5493_59178" x1="78.2053" y1="149.914" x2="123.004" y2="137.474" gradientUnits="userSpaceOnUse">
<stop offset="1" stop-color="#D8C19C"/>
</linearGradient>
<radialGradient id="paint4_radial_5493_59178" cx="0" cy="0" r="1" gradientUnits="userSpaceOnUse" gradientTransform="translate(102.476 148.966) rotate(149.03) scale(62.1987 7.06186)">
<stop offset="0.01" stop-color="#FFFF00"/>
<stop offset="0.09" stop-color="#E5E501"/>
<stop offset="0.28" stop-color="#A2A204"/>
<stop offset="0.51" stop-color="#484807"/>
<stop offset="0.91" stop-color="#00000A"/>
</radialGradient>
<radialGradient id="paint5_radial_5493_59178" cx="0" cy="0" r="1" gradientUnits="userSpaceOnUse" gradientTransform="translate(108.214 150.853) rotate(149.028) scale(48.5012 3.64538)">
<stop offset="0.01" stop-color="#FFFF00"/>
<stop offset="0.09" stop-color="#E5E501"/>
<stop offset="0.28" stop-color="#A2A204"/>
<stop offset="0.51" stop-color="#484807"/>
<stop offset="0.91" stop-color="#00000A"/>
</radialGradient>
</defs>
</svg>
