<svg width="311" height="218" viewBox="0 0 311 218" fill="none" xmlns="http://www.w3.org/2000/svg">
<path fill-rule="evenodd" clip-rule="evenodd" d="M157.191 43.2831C189.91 44.3599 226.206 37.0424 250.652 54.4322C275.824 72.3385 279.12 102.14 277.732 129.03C276.41 154.652 269.273 182.679 243.258 197.726C219.106 211.696 187.015 198.386 157.191 198.751C126.438 199.128 93.4908 214.114 68.4433 199.866C41.6415 184.621 36.8186 155.24 34.6177 129.03C32.2155 100.422 28.6778 66.9144 55.6924 48.0163C82.1879 29.4812 121.99 42.1247 157.191 43.2831Z" fill="#FFC709"/>
<rect x="76" y="15" width="105" height="203" rx="12" fill="#1B1D29"/>
<rect x="81" y="19.999" width="95" height="192" rx="11" fill="white"/>
<rect x="113" y="16.0427" width="32.5162" height="8.33911" rx="4.16955" fill="#1B1D29"/>
<path d="M144.802 180H113.294C112.579 180 112 180.579 112 181.294C112 182.008 112.579 182.587 113.294 182.587H144.802C145.517 182.587 146.096 182.008 146.096 181.294C146.096 180.579 145.517 180 144.802 180Z" fill="#1B1D29"/>
<path d="M156.248 185.749H102.294C101.579 185.749 101 186.328 101 187.043C101 187.757 101.579 188.336 102.294 188.336H156.248C156.962 188.336 157.542 187.757 157.542 187.043C157.542 186.328 156.962 185.749 156.248 185.749Z" fill="#1B1D29"/>
<path d="M153.512 191.5H104.294C103.579 191.5 103 192.079 103 192.794C103 193.508 103.579 194.087 104.294 194.087H153.512C154.227 194.087 154.806 193.508 154.806 192.794C154.806 192.079 154.227 191.5 153.512 191.5Z" fill="#1B1D29"/>
<path d="M128.745 104.527C144.069 104.527 156.491 92.0971 156.491 76.7637C156.491 61.4302 144.069 49 128.745 49C113.422 49 101 61.4302 101 76.7637C101 92.0971 113.422 104.527 128.745 104.527Z" fill="#FFD143"/>
<path d="M135.655 118C133.406 118.004 131.17 117.643 129.036 116.932C123.252 114.987 118.589 110.578 115.553 104.184C110.344 93.2185 109.848 89.06 109.026 82.171C108.907 81.1765 108.785 80.1475 108.639 79.0289C107.998 73.2161 109.314 68.0034 112.441 63.947C115.39 60.1263 119.781 57.6456 124.806 56.9622C129.757 56.2883 134.256 57.3896 137.82 60.1499C141.458 62.9667 143.857 67.331 144.758 72.7731L144.945 74.0111C146.149 81.9841 146.7 85.6226 150.626 93.5893C153.277 98.9653 153.887 103.988 152.402 108.118C151.132 111.633 148.436 114.328 144.395 116.13C141.648 117.368 138.668 118.005 135.655 118ZM127.596 58.1264C126.727 58.1278 125.859 58.1881 124.998 58.307C114.98 59.6707 108.808 68.126 109.992 78.8656C110.138 79.981 110.26 81.0116 110.38 82.0076C111.185 88.7631 111.67 92.8352 116.784 103.601C121.119 112.728 128.587 116.641 135.735 116.641C138.53 116.643 141.292 116.046 143.838 114.892C147.532 113.248 149.984 110.808 151.124 107.658C152.488 103.887 151.897 99.2277 149.414 94.1925C145.394 86.0373 144.835 82.3328 143.605 74.2169L143.42 72.9899C141.883 63.7318 135.796 58.1264 127.596 58.1264Z" fill="#1B1D29"/>
<path d="M135.096 115.593C133.13 115.595 131.176 115.274 129.314 114.642C125.843 113.459 121.038 110.613 117.862 103.754C112.71 92.615 112.1 87.7731 111.18 80.4443C111.081 79.6587 110.979 78.8434 110.866 77.9872C110.32 73.8208 111.494 69.623 114.163 66.1636C116.83 62.7181 120.683 60.3894 124.971 59.6312C129.017 58.907 132.925 59.7129 135.971 61.8998C139.111 64.1558 141.194 67.7519 141.834 72.0282C143.2 81.1402 144.032 85.9005 148.14 94.2191C150.424 98.8489 150.915 103.248 149.567 106.933C148.435 110.028 146.003 112.467 142.533 113.981C140.199 115.049 137.662 115.599 135.096 115.593ZM127.91 60.7215C127.007 60.723 126.105 60.805 125.216 60.9666C117.024 62.434 111.193 69.989 112.218 77.8112C112.33 78.669 112.433 79.4875 112.532 80.2762C113.436 87.4793 114.033 92.2364 119.098 103.185C124.081 113.956 134.603 116.151 141.974 112.748H141.987C145.157 111.365 147.279 109.254 148.295 106.473C149.498 103.188 149.012 99.0516 146.929 94.8255C142.75 86.3419 141.85 81.2455 140.502 72.2356C139.916 68.3253 138.027 65.0482 135.187 63.0074C133.091 61.4913 130.604 60.7215 127.91 60.7215Z" fill="#1B1D29"/>
<path d="M140.487 83.3727C140.335 83.3722 140.186 83.3201 140.067 83.2249C139.947 83.1297 139.863 82.9969 139.828 82.848C139.111 79.7814 138.644 76.7524 138.013 72.4792C137.332 67.8619 134.487 64.4984 130.403 63.4803C130.317 63.4589 130.236 63.4206 130.164 63.3678C130.093 63.3149 130.032 63.2485 129.987 63.1722C129.941 63.096 129.91 63.0115 129.897 62.9235C129.884 62.8355 129.888 62.7458 129.91 62.6595C129.931 62.5731 129.969 62.4919 130.022 62.4203C130.075 62.3487 130.141 62.2883 130.218 62.2424C130.294 62.1965 130.378 62.1661 130.466 62.1529C130.554 62.1397 130.644 62.1439 130.73 62.1654C135.295 63.3028 138.6 67.1785 139.354 72.2797C139.982 76.5215 140.442 79.5206 141.147 82.537C141.167 82.6236 141.17 82.7135 141.156 82.8014C141.142 82.8892 141.11 82.9734 141.063 83.0491C141.016 83.1247 140.955 83.1903 140.882 83.2421C140.81 83.2938 140.728 83.3308 140.641 83.3507C140.591 83.3642 140.539 83.3715 140.487 83.3727Z" fill="#1B1D29"/>
<path d="M134.76 113.014C133.015 113.014 131.283 112.717 129.637 112.136C126.746 111.11 122.761 108.714 120.2 103.116C120.134 102.954 120.134 102.773 120.198 102.61C120.263 102.448 120.388 102.316 120.547 102.244C120.706 102.171 120.886 102.162 121.052 102.22C121.217 102.277 121.353 102.396 121.433 102.552C125.463 111.364 134.106 113.235 140.192 110.525C142.807 109.413 144.642 107.595 145.508 105.261C146.551 102.456 146.176 98.9844 144.455 95.4841C142.827 92.1219 141.475 88.6326 140.412 85.0509C140.387 84.9656 140.379 84.8762 140.388 84.7877C140.398 84.6993 140.424 84.6136 140.467 84.5354C140.509 84.4573 140.567 84.3883 140.636 84.3324C140.705 84.2765 140.785 84.2348 140.87 84.2096C140.955 84.1845 141.045 84.1763 141.133 84.1857C141.221 84.1951 141.307 84.2218 141.385 84.2644C141.463 84.3069 141.532 84.3644 141.588 84.4336C141.644 84.5028 141.686 84.5823 141.711 84.6676C142.752 88.173 144.077 91.5881 145.67 94.8793C147.554 98.7173 147.951 102.577 146.779 105.727C145.779 108.418 143.689 110.506 140.734 111.762C138.852 112.592 136.817 113.019 134.76 113.014Z" fill="#1B1D29"/>
<path d="M118.935 99.1802C118.8 99.1798 118.669 99.1394 118.557 99.0642C118.445 98.989 118.358 98.8823 118.307 98.7576C115.214 91.1758 114.688 86.9215 113.959 81.0332C113.842 80.0796 113.719 79.093 113.58 78.0341C113.33 76.1513 113.462 74.2374 113.968 72.4068C114.474 70.5762 115.344 68.8664 116.525 67.3794C118.313 65.147 121.682 62.3788 127.578 61.8588C127.752 61.8508 127.924 61.9107 128.055 62.0261C128.187 62.1415 128.269 62.3033 128.284 62.4778C128.299 62.6523 128.247 62.8259 128.137 62.9624C128.027 63.0988 127.869 63.1875 127.695 63.2099C123.408 63.5869 119.91 65.3229 117.581 68.2278C116.515 69.5717 115.729 71.117 115.273 72.7714C114.816 74.4258 114.697 76.1553 114.923 77.8566C115.063 78.9202 115.186 79.91 115.305 80.8667C116.046 86.8665 116.537 90.8302 119.561 98.2455C119.629 98.4119 119.628 98.5986 119.559 98.7644C119.489 98.9302 119.357 99.0617 119.191 99.13C119.109 99.1625 119.022 99.1795 118.935 99.1802Z" fill="#1B1D29"/>
<path d="M141.831 107.457C141.699 107.457 141.57 107.419 141.459 107.346C141.348 107.274 141.262 107.17 141.209 107.049C141.157 106.927 141.141 106.793 141.164 106.662C141.187 106.532 141.248 106.411 141.338 106.315C142.022 105.587 142.539 104.719 142.855 103.772C143.61 101.542 143.296 98.8495 141.99 96.1788C137.674 87.381 136.892 81.9986 135.597 73.0924C135.231 70.5788 133.996 68.4752 132.118 67.1697C130.292 65.9003 127.986 65.4808 125.624 65.9882C120.491 67.088 116.721 72.2991 117.393 77.3562C117.417 77.5343 117.369 77.7146 117.26 77.8574C117.151 78.0001 116.989 78.0936 116.811 78.1174C116.633 78.1411 116.453 78.0932 116.31 77.984C116.168 77.8748 116.074 77.7134 116.051 77.5353C115.675 74.7075 116.46 71.8073 118.261 69.3487C120.012 66.9623 122.591 65.2546 125.34 64.6623C128.089 64.07 130.754 64.5696 132.89 66.0558C135.08 67.5781 136.517 70.0085 136.938 72.8976C138.214 81.6718 138.979 86.9678 143.207 95.5802C144.672 98.5652 145.003 101.63 144.139 104.2C143.762 105.333 143.143 106.37 142.326 107.24C142.263 107.308 142.186 107.363 142.101 107.4C142.016 107.437 141.924 107.457 141.831 107.457Z" fill="#1B1D29"/>
<path d="M134.542 110.341C129.953 110.341 125.059 107.808 122.555 102.34C118.203 92.8348 117.085 86.2004 116.314 80.221C116.3 80.0471 116.354 79.8745 116.464 79.739C116.573 79.6035 116.731 79.5154 116.904 79.4932C117.077 79.471 117.252 79.5162 117.392 79.6196C117.533 79.7229 117.628 79.8764 117.658 80.0482C118.443 86.1674 119.511 92.4342 123.781 101.776C126.796 108.361 133.628 110.226 138.492 108.217C138.659 108.148 138.846 108.149 139.012 108.219C139.178 108.288 139.309 108.421 139.378 108.588C139.446 108.754 139.445 108.941 139.376 109.107C139.306 109.274 139.174 109.405 139.007 109.474C137.589 110.05 136.073 110.345 134.542 110.341Z" fill="#1B1D29"/>
<path d="M134.288 107.647C130.732 107.647 126.874 105.681 124.937 101.498C120.93 93.388 119.795 86.5462 118.52 77.0352C118.231 74.8766 118.826 72.6567 120.197 70.784C121.495 68.9764 123.406 67.7045 125.574 67.2068C127.67 66.7449 129.743 67.1267 131.407 68.2798C133.101 69.4534 134.206 71.3119 134.522 73.5113L134.577 73.8978C135.812 82.5118 136.556 87.7119 140.753 96.307C141.926 98.7075 142.127 101.177 141.323 103.248C140.632 105.028 139.268 106.363 137.376 107.111H137.359C136.374 107.468 135.335 107.649 134.288 107.647ZM127.3 68.3709C126.817 68.371 126.336 68.4236 125.865 68.528C122.119 69.3528 119.37 73.1657 119.864 76.8545C121.12 86.2367 122.238 92.978 126.155 100.905V100.921C128.353 105.658 133.324 107.144 136.878 105.846C138.406 105.241 139.502 104.173 140.051 102.758C140.718 101.03 140.532 98.9589 139.528 96.9024C135.238 88.1156 134.481 82.837 133.228 74.0895L133.173 73.7046C132.911 71.8822 132.008 70.352 130.628 69.3952C129.649 68.7212 128.488 68.3637 127.3 68.3709Z" fill="#1B1D29"/>
<path d="M133.967 104.964C132.569 104.949 131.203 104.536 130.03 103.775C128.857 103.013 127.924 101.933 127.34 100.661C123.312 92.7586 121.991 84.6112 121.349 79.1707C121.328 78.9922 121.379 78.8127 121.491 78.6717C121.602 78.5307 121.765 78.4398 121.944 78.419C122.122 78.3982 122.301 78.4491 122.442 78.5606C122.583 78.6721 122.674 78.8351 122.695 79.0136C123.323 84.3551 124.62 92.3438 128.552 100.054L128.562 100.075C129.943 103.017 133.165 104.092 135.368 103.407C135.825 103.245 136.242 102.987 136.592 102.65C136.942 102.314 137.216 101.907 137.396 101.456C137.836 100.356 137.724 98.9689 137.09 97.6618C135.914 95.2424 134.333 90.9755 133.338 88.0549C133.29 87.8874 133.308 87.7077 133.388 87.5531C133.469 87.3986 133.606 87.2811 133.771 87.2249C133.936 87.1687 134.116 87.1783 134.274 87.2515C134.433 87.3247 134.556 87.456 134.62 87.6182C135.603 90.4994 137.159 94.7051 138.308 97.0695C139.122 98.7411 139.25 100.477 138.655 101.957C138.402 102.584 138.02 103.152 137.533 103.621C137.046 104.09 136.465 104.452 135.829 104.681L135.795 104.694C135.203 104.876 134.587 104.967 133.967 104.964Z" fill="#1B1D29"/>
<path d="M133.379 86.3434C133.227 86.3434 133.079 86.2923 132.96 86.1982C132.841 86.1042 132.756 85.9727 132.721 85.825C131.914 82.4818 131.454 79.2266 130.873 75.0917L130.765 74.3219C130.701 73.7847 130.526 73.2666 130.251 72.801C129.976 72.3354 129.606 71.9325 129.166 71.6181C128.727 71.3204 128.23 71.118 127.708 71.0238C127.186 70.9297 126.65 70.9459 126.135 71.0714C123.762 71.604 122.023 74.0265 122.338 76.3611C122.35 76.4493 122.345 76.539 122.322 76.625C122.3 76.7111 122.26 76.7919 122.206 76.8627C122.152 76.9335 122.085 76.993 122.008 77.0378C121.931 77.0826 121.847 77.1119 121.758 77.1238C121.67 77.1358 121.581 77.1303 121.495 77.1076C121.409 77.0849 121.328 77.0454 121.257 76.9915C121.186 76.9376 121.127 76.8703 121.082 76.7934C121.037 76.7165 121.008 76.6315 120.996 76.5433C120.583 73.4877 122.756 70.4399 125.84 69.7486C126.537 69.5811 127.262 69.5617 127.968 69.6916C128.674 69.8215 129.345 70.0978 129.937 70.5027C130.533 70.9223 131.033 71.462 131.408 72.0871C131.782 72.7121 132.021 73.4086 132.11 74.1318L132.218 74.9016C132.796 78.9957 133.251 82.2289 134.043 85.5061C134.085 85.6808 134.056 85.8652 133.962 86.0186C133.869 86.1721 133.718 86.2821 133.543 86.3246C133.49 86.3381 133.434 86.3445 133.379 86.3434Z" fill="#1B1D29"/>
<path d="M133.474 102.296C131.986 102.296 130.466 101.344 129.765 99.8718C129.687 99.7095 129.678 99.5232 129.738 99.3538C129.798 99.1844 129.923 99.0458 130.085 98.9685C130.247 98.8912 130.433 98.8815 130.603 98.9416C130.772 99.0017 130.91 99.1267 130.988 99.289C131.605 100.584 133 101.119 133.955 100.882C134.14 100.817 134.309 100.713 134.452 100.577C134.594 100.442 134.706 100.278 134.781 100.096C134.876 99.8262 134.913 99.539 134.891 99.2534C134.869 98.9678 134.787 98.6899 134.652 98.4375C132.768 94.5382 131.49 91.1997 130.636 87.9288C129.645 84.1395 128.967 80.1318 128.573 77.4359C128.556 77.2622 128.606 77.0884 128.713 76.9507C128.821 76.8131 128.977 76.7221 129.15 76.6969C129.322 76.6716 129.498 76.7139 129.64 76.8149C129.783 76.916 129.881 77.0681 129.914 77.2395C130.303 79.9009 130.972 83.8567 131.955 87.5864C132.787 90.7693 134.033 94.0276 135.88 97.8468C136.326 98.769 136.384 99.776 136.037 100.61C135.888 100.973 135.665 101.299 135.38 101.569C135.095 101.838 134.757 102.043 134.387 102.17L134.333 102.186C134.053 102.26 133.764 102.297 133.474 102.296Z" fill="#1B1D29"/>
<path d="M127.953 94.6245C127.816 94.6235 127.683 94.581 127.571 94.5028C127.459 94.4245 127.373 94.3142 127.325 94.1862C125.109 88.3231 124.527 83.9666 123.714 77.9386C123.632 77.3259 123.557 76.6975 123.459 76.0533C123.23 74.3598 124.425 72.6693 126.128 72.2829C126.527 72.1852 126.941 72.1734 127.344 72.248C127.748 72.3227 128.13 72.4821 128.467 72.7159C128.805 72.9497 129.088 73.2524 129.3 73.604C129.511 73.9556 129.645 74.3482 129.694 74.7557C129.711 74.9299 129.659 75.104 129.551 75.2414C129.443 75.3788 129.285 75.4691 129.112 75.4932C128.939 75.5173 128.763 75.4735 128.621 75.3709C128.479 75.2683 128.383 75.1149 128.351 74.9426C128.329 74.7213 128.259 74.5075 128.146 74.3158C128.033 74.1241 127.88 73.9591 127.698 73.8321C127.515 73.7051 127.307 73.6191 127.088 73.5801C126.87 73.541 126.645 73.5497 126.43 73.6057C125.414 73.8366 124.671 74.8735 124.806 75.8695C124.896 76.5215 124.981 77.1515 125.062 77.7642C125.847 83.7043 126.43 87.9963 128.588 93.7133C128.627 93.8155 128.64 93.9254 128.627 94.0337C128.614 94.142 128.575 94.2456 128.513 94.3357C128.452 94.4257 128.369 94.4995 128.273 94.5509C128.177 94.6023 128.07 94.6297 127.96 94.6308L127.953 94.6245Z" fill="#1B1D29"/>
<path d="M132.185 98.3383C132.056 98.3385 131.929 98.3017 131.82 98.2321C131.711 98.1625 131.624 98.063 131.57 97.9455C126.717 87.4573 126.011 76.4444 126.004 76.3344C125.996 76.2439 126.006 76.1526 126.034 76.0659C126.061 75.9793 126.106 75.8991 126.165 75.8301C126.224 75.7611 126.297 75.7047 126.378 75.6643C126.459 75.6238 126.548 75.6002 126.639 75.5947C126.73 75.5892 126.82 75.602 126.906 75.6324C126.992 75.6627 127.07 75.71 127.138 75.7714C127.205 75.8328 127.259 75.907 127.296 75.9897C127.334 76.0724 127.355 76.1618 127.358 76.2527C127.358 76.3611 128.058 87.1274 132.799 97.3768C132.875 97.5397 132.882 97.7259 132.82 97.8944C132.758 98.0629 132.632 98.2 132.47 98.2754C132.381 98.3173 132.284 98.3387 132.185 98.3383Z" fill="#1B1D29"/>
<path d="M130.561 164.151C125.537 162.356 120.991 161.31 118.897 162.805C118.897 163.702 118.628 170.072 119.346 172.226C120.243 174.917 123.832 174.02 125.178 174.02C126.524 174.02 136.842 174.469 138.637 173.123C140.072 172.046 139.983 167.291 139.983 162.805C139.384 163.552 135.586 165.945 130.561 164.151Z" fill="#FFD143"/>
<rect x="128.35" y="162.401" width="2.02498" height="6.29994" rx="1.01249" fill="#1B1D29"/>
<path fill-rule="evenodd" clip-rule="evenodd" d="M124.3 156.55V154.975C124.3 152.117 126.617 149.8 129.475 149.8C132.333 149.8 134.65 152.117 134.65 154.975V156.55H124.3ZM122.5 156.55V156.55L122.5 154.975C122.5 151.123 125.623 148 129.475 148C133.327 148 136.45 151.123 136.45 154.975V156.55V156.55H136.675C138.912 156.55 140.725 158.363 140.725 160.6V170.95C140.725 173.187 138.912 175 136.675 175H122.05C119.813 175 118 173.187 118 170.95V160.6C118 158.363 119.813 156.55 122.05 156.55H122.5ZM122.05 158.35H136.675C137.917 158.35 138.925 159.358 138.925 160.6V170.95C138.925 172.193 137.917 173.2 136.675 173.2H122.05C120.807 173.2 119.8 172.193 119.8 170.95V160.6C119.8 159.358 120.807 158.35 122.05 158.35Z" fill="#1B1D29"/>
<path fill-rule="evenodd" clip-rule="evenodd" d="M203.941 217.504L199.478 159.728V132.906L229.216 128.919L248.117 136.92C251.53 137.265 262.593 180.207 266.485 217.504H203.941Z" fill="#FFEAAF"/>
<path d="M251 142C245 126 235.507 121.711 228.993 116C224.021 116.865 213.256 118.804 209.964 119.635C207.496 120.465 201.393 129.673 198.65 134.173C197.793 136.596 197.107 141.338 201.222 140.923C206.364 140.404 237.221 155.461 241.85 155.98C246.478 156.5 253.478 148.607 251 142Z" fill="#FFEAAF"/>
<path fill-rule="evenodd" clip-rule="evenodd" d="M191.225 94.9405C191.225 94.9405 192.336 101.346 193.596 104.192C193.596 104.192 191.542 110.49 195.873 109.185C195.873 109.185 199.393 119.225 208.775 114.523L210.437 119.488L228.322 116.297L224.325 106.483L215.29 90.5342L191.225 94.9405Z" fill="white"/>
<path fill-rule="evenodd" clip-rule="evenodd" d="M191.141 94.5181C191.033 94.5402 190.937 94.6036 190.874 94.6948C190.812 94.7861 190.787 94.8982 190.805 95.0073C190.805 95.0073 191.9 101.269 193.148 104.209C193.017 104.653 192.671 105.967 192.692 107.172C192.712 108.187 193.02 109.101 193.776 109.528C194.206 109.764 194.804 109.863 195.625 109.68C196.13 110.867 198.007 114.664 201.733 115.832C203.546 116.404 205.795 116.367 208.532 115.098L210.05 119.611C210.083 119.707 210.149 119.789 210.236 119.84C210.324 119.892 210.427 119.91 210.527 119.892L228.411 116.685C228.474 116.676 228.534 116.652 228.587 116.616C228.64 116.58 228.683 116.532 228.715 116.477C228.743 116.421 228.759 116.36 228.762 116.297C228.766 116.235 228.756 116.172 228.734 116.113L224.736 106.301C224.725 106.287 224.716 106.272 224.709 106.256L215.654 90.3215C215.611 90.2459 215.546 90.1855 215.468 90.1482C215.389 90.111 215.301 90.0988 215.216 90.1133L191.141 94.5181ZM191.71 95.2702L215.077 91.0022L223.95 106.652L227.745 115.958L210.729 118.997L209.188 114.375C209.168 114.319 209.136 114.267 209.094 114.224C209.053 114.18 209.003 114.146 208.947 114.123C208.892 114.1 208.832 114.088 208.772 114.09C208.712 114.091 208.653 114.105 208.599 114.131C205.909 115.481 203.725 115.58 201.987 115.029C197.916 113.751 196.281 109.039 196.281 109.039C196.246 108.935 196.171 108.848 196.073 108.799C195.975 108.75 195.861 108.742 195.757 108.776C195.039 108.984 194.534 108.984 194.189 108.785C193.674 108.504 193.553 107.842 193.535 107.163C193.517 105.812 194.002 104.308 194.002 104.308C194.038 104.209 194.035 104.1 193.993 104.004C192.931 101.62 191.985 96.7106 191.716 95.2595L191.71 95.2702Z" fill="#1B1D29"/>
<path fill-rule="evenodd" clip-rule="evenodd" d="M214.557 95.7807C214.557 95.7807 212.348 96.9355 210.307 99.4683C210.272 99.5114 210.246 99.5609 210.23 99.614C210.215 99.6672 210.21 99.7228 210.216 99.7778C210.222 99.8329 210.238 99.8862 210.265 99.9347C210.291 99.9833 210.327 100.026 210.37 100.061C210.413 100.096 210.463 100.122 210.516 100.137C210.569 100.153 210.625 100.158 210.679 100.152C210.734 100.146 210.788 100.129 210.836 100.103C210.885 100.076 210.928 100.04 210.962 99.9971C212.876 97.6177 214.956 96.5298 214.956 96.5298C215.005 96.504 215.048 96.4689 215.084 96.4262C215.119 96.3836 215.146 96.3345 215.162 96.2815C215.179 96.2286 215.184 96.1729 215.179 96.1177C215.174 96.0626 215.158 96.009 215.132 95.96C215.079 95.86 214.989 95.7849 214.881 95.7513C214.774 95.7177 214.657 95.7283 214.557 95.7807Z" fill="#1B1D29"/>
<path fill-rule="evenodd" clip-rule="evenodd" d="M214.508 99.0095C214.508 99.0095 213.157 98.1738 212.145 97.8486C212.092 97.8311 212.036 97.8243 211.981 97.8285C211.925 97.8327 211.871 97.8479 211.821 97.8732C211.771 97.8984 211.727 97.9333 211.691 97.9758C211.655 98.0183 211.628 98.0675 211.611 98.1206C211.578 98.2278 211.589 98.3435 211.64 98.4429C211.692 98.5423 211.78 98.6175 211.887 98.6524C212.823 98.9563 214.062 99.7266 214.062 99.7266C214.158 99.7856 214.273 99.8043 214.383 99.7787C214.493 99.7531 214.588 99.6852 214.648 99.5899C214.706 99.4942 214.724 99.3796 214.698 99.2709C214.671 99.1622 214.603 99.0682 214.508 99.0095Z" fill="#1B1D29"/>
<path fill-rule="evenodd" clip-rule="evenodd" d="M208.566 95.9677C208.566 95.9677 208.954 97.7439 208.869 100.815C208.866 100.854 208.853 100.891 208.83 100.923C208.808 100.955 208.777 100.981 208.742 100.997C208.706 101.014 208.666 101.019 208.627 101.012C208.589 101.006 208.553 100.988 208.525 100.96C207.927 100.389 206.579 98.967 205.238 96.5542C205.238 96.5542 196.15 97.8578 191.334 95.3934L191.637 96.9128C191.637 96.9128 187.718 94.8555 188.624 90.1347L186.803 92.0552C186.803 92.0552 188.257 74.4012 205.243 70.9764C218.894 68.2309 224.553 76.6393 224.553 76.6393C224.553 76.6393 235.244 81.7946 231.903 92.6326C229.043 101.921 227.693 103.334 225.331 108.644L223.068 109.079L215.58 101.532C215.58 101.532 218.684 99.1007 216.386 95.3873C215.125 93.3665 211.318 92.5506 208.566 95.9677Z" fill="#1B1D29"/>
<path fill-rule="evenodd" clip-rule="evenodd" d="M209.018 96.0846C211.517 93.14 214.883 93.7933 216.016 95.6136C218.107 98.976 215.31 101.196 215.31 101.196C215.218 101.272 215.16 101.381 215.147 101.5C215.148 101.62 215.193 101.736 215.273 101.825L222.769 109.375C222.818 109.424 222.878 109.461 222.944 109.482C223.01 109.502 223.08 109.506 223.149 109.493L225.412 109.059C225.478 109.045 225.541 109.016 225.594 108.973C225.646 108.93 225.688 108.875 225.715 108.813C228.079 103.486 229.427 102.071 232.306 92.7571C235.556 82.2093 225.923 76.8717 224.829 76.3095C224.158 75.3766 218.256 67.9193 205.156 70.5646C187.867 74.044 186.39 92.0141 186.39 92.0141C186.381 92.1004 186.401 92.1873 186.444 92.2621C186.488 92.3369 186.555 92.3958 186.634 92.4304C186.714 92.4659 186.803 92.4762 186.889 92.4599C186.975 92.4436 187.054 92.4015 187.115 92.3393L188.066 91.3243C187.956 95.4662 191.442 97.2789 191.442 97.2789C191.514 97.3152 191.594 97.3311 191.674 97.3246C191.755 97.3182 191.832 97.2898 191.897 97.2424C191.96 97.1928 192.008 97.1264 192.034 97.0508C192.061 96.9753 192.066 96.8937 192.049 96.8154L191.897 96.1089C196.387 97.9216 203.494 97.1725 205.006 96.9978C206.328 99.3164 207.631 100.694 208.229 101.266C208.229 101.275 208.238 101.275 208.247 101.284C208.337 101.359 208.447 101.408 208.563 101.426C208.68 101.443 208.799 101.428 208.907 101.383C209.018 101.336 209.112 101.258 209.178 101.158C209.244 101.058 209.279 100.941 209.279 100.821C209.352 98.3014 209.108 96.6437 209.007 96.0816L209.018 96.0846ZM208.456 100.298C207.347 99.1006 206.389 97.7707 205.606 96.3383C205.565 96.2635 205.502 96.2032 205.426 96.1659C205.349 96.1285 205.263 96.1161 205.179 96.1302C205.179 96.1302 196.263 97.4354 191.528 95.0165C191.459 94.9772 191.38 94.9597 191.301 94.9662C191.222 94.9727 191.147 95.003 191.085 95.0529C191.023 95.101 190.974 95.1651 190.946 95.2384C190.917 95.3117 190.908 95.3915 190.921 95.4692L191.021 95.9494C190.007 95.0879 188.459 93.2403 189.039 90.2045C189.057 90.1152 189.045 90.0225 189.005 89.9405C188.966 89.8585 188.9 89.7918 188.819 89.7506C188.738 89.7094 188.646 89.696 188.556 89.7124C188.467 89.7287 188.385 89.7741 188.324 89.8413L187.413 90.8016C188.129 86.725 191.414 74.1929 205.325 71.3927C218.658 68.7109 224.199 76.8747 224.199 76.8747C224.243 76.9393 224.302 76.9917 224.372 77.0266C224.372 77.0266 234.737 82.0103 231.506 92.5246C228.682 101.658 227.334 103.144 225.043 108.282L223.214 108.635L216.18 101.55C216.977 100.734 218.733 98.3865 216.732 95.1684C215.366 92.9759 211.228 91.9974 208.241 95.7123C208.202 95.7613 208.174 95.8183 208.16 95.8793C208.146 95.9403 208.145 96.0037 208.159 96.0648C208.159 96.0648 208.493 97.5979 208.456 100.298Z" fill="#1B1D29"/>
<path fill-rule="evenodd" clip-rule="evenodd" d="M195.076 98.6782C195.076 98.6782 196.138 97.3806 198.455 96.9627C198.563 96.9403 198.659 96.8763 198.721 96.7842C198.782 96.6922 198.806 96.5795 198.786 96.4705C198.766 96.3596 198.703 96.2611 198.611 96.1962C198.519 96.1314 198.405 96.1055 198.294 96.124C195.625 96.6194 194.423 98.1479 194.423 98.1479C194.353 98.2361 194.321 98.3481 194.334 98.4598C194.346 98.5715 194.401 98.6739 194.488 98.745C194.531 98.7793 194.58 98.8048 194.633 98.82C194.686 98.8352 194.741 98.8398 194.796 98.8336C194.85 98.8274 194.903 98.8105 194.951 98.7838C194.999 98.7571 195.042 98.7212 195.076 98.6782Z" fill="#1B1D29"/>
<path fill-rule="evenodd" clip-rule="evenodd" d="M203.965 106.772C203.965 106.772 203.613 109.934 200.17 110.115C200.061 110.127 199.96 110.179 199.887 110.261C199.814 110.343 199.774 110.449 199.775 110.559C199.777 110.615 199.791 110.671 199.815 110.722C199.839 110.773 199.874 110.819 199.917 110.856C199.959 110.893 200.009 110.921 200.063 110.938C200.117 110.955 200.174 110.961 200.231 110.955C204.4 110.73 204.803 106.868 204.803 106.868C204.814 106.756 204.781 106.643 204.71 106.555C204.64 106.467 204.538 106.409 204.426 106.395C204.315 106.386 204.205 106.42 204.119 106.49C204.033 106.561 203.978 106.662 203.965 106.772Z" fill="#1B1D29"/>
<path d="M197.37 102.247C198.023 102.159 198.481 101.557 198.392 100.903C198.304 100.25 197.703 99.7917 197.05 99.8802C196.397 99.9687 195.939 100.57 196.027 101.224C196.116 101.877 196.717 102.336 197.37 102.247Z" fill="#1B1D29"/>
<path fill-rule="evenodd" clip-rule="evenodd" d="M210.435 119.753C210.571 119.994 210.487 120.299 210.247 120.435C205.455 123.151 196.011 134.304 197.998 156.956C199.191 170.554 200.839 183.355 202.183 193.789C202.246 194.281 202.309 194.768 202.371 195.249C203.058 200.591 203.653 205.269 204.044 209.05C204.434 212.819 204.627 215.736 204.499 217.536C204.479 217.811 204.24 218.018 203.964 217.999C203.689 217.979 203.482 217.74 203.501 217.464C203.623 215.764 203.441 212.931 203.05 209.153C202.66 205.387 202.067 200.721 201.379 195.376C201.317 194.894 201.254 194.406 201.191 193.913C199.847 183.481 198.197 170.662 197.002 157.044C194.989 134.096 204.546 122.516 209.754 119.565C209.994 119.429 210.299 119.513 210.435 119.753Z" fill="black"/>
<path fill-rule="evenodd" clip-rule="evenodd" d="M228.04 116.303C228.149 116.049 228.443 115.932 228.697 116.04C234.648 118.591 247.733 128.197 252.98 146.361C256.236 157.632 259.74 173.399 262.366 187.345C263.68 194.319 264.775 200.843 265.511 206.126C266.244 211.391 266.628 215.472 266.499 217.531C266.482 217.807 266.244 218.016 265.969 217.999C265.693 217.982 265.484 217.744 265.501 217.469C265.622 215.528 265.256 211.546 264.52 206.264C263.787 201.001 262.695 194.494 261.384 187.53C258.76 173.601 255.263 157.868 252.02 146.639C246.867 128.803 234.019 119.409 228.303 116.96C228.049 116.851 227.932 116.557 228.04 116.303Z" fill="black"/>
<path fill-rule="evenodd" clip-rule="evenodd" d="M163.093 135.609C163.093 135.609 161.51 132.192 161.177 130.139C160.845 128.087 159.567 125.83 158.618 124.882C157.707 123.971 156.189 124.882 156.189 124.882C156.189 124.882 151.572 118.619 149.638 115.992C149.414 115.694 149.082 115.495 148.713 115.438C148.344 115.381 147.968 115.471 147.665 115.688C147.355 115.918 147.142 116.256 147.066 116.635C146.991 117.013 147.059 117.407 147.258 117.738C148.783 120.289 152.215 125.993 152.215 125.993C152.215 125.993 150.186 126.704 149.58 128.424C149.58 128.424 147.524 129.504 147.419 131.44C147.005 131.893 146.708 132.44 146.553 133.033C146.398 133.627 146.389 134.249 146.528 134.847C147.001 136.916 149.58 138.689 151.03 139.557C152.48 140.424 153.846 142.128 153.846 142.128L158.272 140.8L163.093 135.609Z" fill="white"/>
<path fill-rule="evenodd" clip-rule="evenodd" d="M163.397 135.894C163.456 135.834 163.495 135.757 163.509 135.673C163.523 135.59 163.51 135.505 163.473 135.429C163.473 135.429 161.917 132.086 161.595 130.077C161.253 127.932 159.908 125.58 158.913 124.583C158.706 124.382 158.455 124.231 158.181 124.142C157.906 124.053 157.615 124.029 157.329 124.071C156.983 124.111 156.644 124.204 156.325 124.346L149.978 115.749C149.836 115.555 149.657 115.39 149.452 115.265C149.246 115.14 149.017 115.057 148.779 115.021C148.541 114.984 148.299 114.996 148.065 115.054C147.832 115.113 147.612 115.217 147.419 115.36C147.023 115.649 146.75 116.075 146.653 116.555C146.555 117.035 146.641 117.534 146.892 117.954L151.598 125.802C150.934 126.133 149.74 126.884 149.228 128.136C148.744 128.439 147.18 129.53 146.991 131.267C146.569 131.771 146.27 132.365 146.117 133.004C145.964 133.643 145.961 134.309 146.109 134.949C146.318 135.85 146.877 136.694 147.589 137.444C148.592 138.516 149.911 139.388 150.801 139.929C152.205 140.765 153.513 142.397 153.513 142.397C153.565 142.462 153.635 142.51 153.714 142.535C153.793 142.561 153.878 142.562 153.958 142.54L158.384 141.21C158.455 141.186 158.52 141.147 158.574 141.096L163.397 135.894ZM162.591 135.523L158.037 140.438L153.99 141.654C153.553 141.16 152.425 139.917 151.241 139.204C150.397 138.702 149.155 137.877 148.197 136.871C147.601 136.236 147.108 135.523 146.936 134.765C146.814 134.237 146.82 133.688 146.953 133.163C147.086 132.638 147.343 132.153 147.701 131.747C147.774 131.673 147.818 131.576 147.826 131.472C147.92 129.755 149.769 128.806 149.769 128.806C149.816 128.782 149.859 128.749 149.893 128.708C149.927 128.667 149.953 128.62 149.967 128.569C150.517 127.022 152.337 126.396 152.337 126.396C152.396 126.374 152.449 126.34 152.494 126.296C152.538 126.252 152.572 126.198 152.593 126.139C152.617 126.081 152.627 126.018 152.622 125.956C152.617 125.893 152.597 125.833 152.565 125.779C152.565 125.779 149.149 120.081 147.613 117.524C147.468 117.284 147.419 116.998 147.473 116.723C147.527 116.447 147.682 116.202 147.908 116.035C148.121 115.88 148.386 115.815 148.647 115.854C148.907 115.893 149.142 116.033 149.301 116.243C151.233 118.872 155.851 125.133 155.851 125.133C155.912 125.22 156.004 125.279 156.108 125.301C156.212 125.322 156.319 125.303 156.41 125.247C156.719 125.069 157.06 124.952 157.414 124.905C157.576 124.879 157.74 124.891 157.896 124.938C158.052 124.986 158.195 125.069 158.315 125.18C159.225 126.092 160.447 128.247 160.762 130.21C161.045 131.955 162.211 134.68 162.591 135.528V135.523Z" fill="#1B1D29"/>
<path fill-rule="evenodd" clip-rule="evenodd" d="M168.304 138.766C169.562 138.794 170.377 139.173 171.309 140.062C173.908 142.551 179.122 148.126 187.586 159.569C187.586 159.569 193.325 140.005 197.498 135.41C201.671 130.815 218.057 137.449 213.985 155.337C209.912 173.225 208.5 189 191.974 189.996C181 188 172.821 179.777 164.592 168.161C158.5 158 155.676 150.376 156.5 148C157.125 148.252 156.456 146.588 156.5 146.5C156.272 146.044 154.979 145.272 154.335 144.058C154.049 143.509 153.942 142.884 154.03 142.271C154.118 141.658 154.395 141.088 154.824 140.641C157.188 138.223 160.011 136.301 163.126 134.987C163.541 134.816 164 134.781 164.436 134.887C164.872 134.993 165.264 135.235 165.555 135.577C166.666 136.855 168.304 138.766 168.304 138.766Z" fill="white"/>
<path fill-rule="evenodd" clip-rule="evenodd" d="M187.113 160.049C188.783 162.314 190.381 166.573 191.857 173.025C191.857 173.025 192.919 163.711 187.955 157.285L187.113 160.049Z" fill="white"/>
<path fill-rule="evenodd" clip-rule="evenodd" d="M156.136 125.551L157.72 128.404C157.775 128.502 157.867 128.574 157.975 128.604C158.083 128.635 158.198 128.621 158.296 128.567C158.345 128.54 158.387 128.505 158.421 128.462C158.455 128.419 158.481 128.369 158.496 128.316C158.511 128.264 158.515 128.208 158.508 128.154C158.502 128.099 158.484 128.046 158.457 127.999L156.874 125.135C156.847 125.086 156.81 125.043 156.767 125.009C156.723 124.974 156.673 124.949 156.619 124.934C156.566 124.919 156.51 124.914 156.455 124.921C156.399 124.927 156.346 124.945 156.297 124.972C156.249 124.999 156.206 125.036 156.172 125.08C156.137 125.123 156.112 125.173 156.097 125.227C156.082 125.281 156.077 125.337 156.084 125.392C156.09 125.447 156.108 125.501 156.135 125.549L156.136 125.551Z" fill="#1B1D29"/>
<path fill-rule="evenodd" clip-rule="evenodd" d="M160.805 136C158.082 137.512 155.632 140.323 154.9 141.3C154.482 141.857 154.572 142.693 155.061 143.693C155.534 144.658 156.296 145.589 156.853 146.146C157.049 146.342 157.049 146.658 156.853 146.854C156.658 147.049 156.342 147.049 156.146 146.854C155.537 146.245 154.699 145.226 154.163 144.132C153.645 143.073 153.317 141.743 154.1 140.7C154.868 139.677 157.418 136.738 160.32 135.125C161.771 134.319 163.382 133.804 164.933 134.111C166.474 134.416 167.833 135.505 168.869 137.613C170.204 138.21 172.034 139.665 174.039 141.558C176.157 143.558 178.529 146.104 180.819 148.801C183.109 151.499 185.323 154.357 187.123 156.983C188.917 159.599 190.323 162.018 190.971 163.832C191.064 164.092 190.928 164.378 190.668 164.471C190.408 164.564 190.122 164.428 190.029 164.168C189.427 162.482 188.083 160.151 186.299 157.548C184.521 154.956 182.329 152.126 180.056 149.449C177.784 146.771 175.437 144.254 173.352 142.285C171.247 140.298 169.465 138.925 168.314 138.464L168.131 138.391L168.048 138.213C167.094 136.186 165.922 135.326 164.739 135.092C163.524 134.852 162.167 135.243 160.805 136Z" fill="black"/>
<path fill-rule="evenodd" clip-rule="evenodd" d="M208.99 136.552C206.208 134.859 202.942 134.258 200.55 134.498C200.203 134.532 199.769 134.748 199.251 135.212C198.74 135.67 198.193 136.327 197.623 137.156C196.483 138.811 195.294 141.08 194.143 143.607C191.841 148.657 189.723 154.661 188.477 158.649C188.395 158.913 188.114 159.06 187.851 158.977C187.587 158.895 187.44 158.615 187.523 158.351C188.777 154.339 190.909 148.293 193.233 143.193C194.393 140.645 195.611 138.314 196.799 136.588C197.393 135.726 197.991 134.998 198.583 134.467C199.169 133.943 199.797 133.568 200.45 133.503C203.058 133.242 206.542 133.891 209.51 135.698C212.494 137.514 214.976 140.515 215.497 144.942C216.006 149.272 215.369 158.964 212.731 168.262C211.41 172.916 209.58 177.498 207.122 181.273C204.664 185.047 201.557 188.045 197.672 189.469C193.75 190.907 189.23 190.203 184.695 188.086C180.155 185.967 175.543 182.407 171.387 178.032C163.088 169.293 156.508 157.185 156.001 146.524C155.987 146.248 156.2 146.014 156.476 146.001C156.752 145.987 156.986 146.2 156.999 146.476C157.492 156.816 163.912 168.707 172.113 177.343C176.207 181.655 180.72 185.127 185.118 187.18C189.52 189.235 193.75 189.843 197.328 188.531C200.943 187.205 203.898 184.391 206.284 180.727C208.67 177.064 210.465 172.584 211.769 167.989C214.381 158.786 214.994 149.229 214.503 145.059C214.024 140.986 211.756 138.236 208.99 136.552Z" fill="black"/>
<path fill-rule="evenodd" clip-rule="evenodd" d="M216.707 178.527C216.961 178.636 217.079 178.929 216.97 179.183C216.078 181.266 214.185 183.164 212.469 184.443C210.978 185.554 209.337 186.244 207.714 186.925C207.626 186.962 207.537 187 207.449 187.037C207.172 187.153 206.842 187.23 206.56 187.296C206.495 187.311 206.433 187.326 206.375 187.34C206.024 187.425 205.776 187.508 205.614 187.625C205.39 187.788 205.078 187.739 204.915 187.515C204.753 187.292 204.802 186.979 205.026 186.817C205.365 186.57 205.793 186.452 206.138 186.368C206.222 186.348 206.301 186.329 206.377 186.311C206.649 186.248 206.87 186.195 207.061 186.115C207.139 186.082 207.217 186.049 207.295 186.017C208.944 185.323 210.481 184.677 211.871 183.641C213.522 182.411 215.257 180.641 216.051 178.789C216.16 178.536 216.454 178.418 216.707 178.527Z" fill="black"/>
<path fill-rule="evenodd" clip-rule="evenodd" d="M217.56 187.365C217.713 187.595 217.651 187.905 217.421 188.059C216.128 188.921 214.33 189.16 212.934 189.198C212.658 189.206 212.429 188.988 212.421 188.712C212.414 188.436 212.631 188.206 212.907 188.198C214.262 188.162 215.818 187.925 216.867 187.227C217.096 187.073 217.407 187.135 217.56 187.365Z" fill="black"/>
<path fill-rule="evenodd" clip-rule="evenodd" d="M190.855 191.727C191.036 191.519 191.352 191.496 191.56 191.677C192.034 192.088 192.745 192.421 193.503 192.569C194.264 192.717 195.008 192.665 195.567 192.386C195.814 192.262 196.114 192.362 196.238 192.609C196.361 192.856 196.261 193.157 196.014 193.28C195.196 193.689 194.211 193.725 193.313 193.55C192.411 193.375 191.532 192.976 190.905 192.433C190.697 192.252 190.674 191.936 190.855 191.727Z" fill="black"/>
</svg>
