<svg width="231" height="141" viewBox="0 0 231 141" fill="none" xmlns="http://www.w3.org/2000/svg">
<ellipse cx="178.092" cy="21.5416" rx="5.87288" ry="5.875" fill="url(#paint0_linear_2199_16463)"/>
<ellipse cx="54.0307" cy="7.83333" rx="7.83051" ry="7.83333" fill="url(#paint1_linear_2199_16463)"/>
<ellipse cx="46.2004" cy="104.183" rx="3.91525" ry="3.91667" fill="url(#paint2_linear_2199_16463)"/>
<ellipse cx="3.91525" cy="42.3" rx="3.91525" ry="3.91667" fill="#FFD6A5"/>
<ellipse cx="167.964" cy="125.725" rx="1.95763" ry="1.95833" fill="#D9821A"/>
<circle cx="116" cy="72" r="56" fill="url(#paint3_linear_2199_16463)"/>
<g filter="url(#filter0_d_2199_16463)">
<path fill-rule="evenodd" clip-rule="evenodd" d="M109.333 55.3333C110.024 55.3333 110.583 55.893 110.583 56.5833V57.8333H109.333C108.898 57.8333 108.482 57.8519 108.083 57.8883V56.5833C108.083 55.893 108.643 55.3333 109.333 55.3333ZM130.963 65.1366C130.994 65.555 130.653 65.9 130.234 65.9H101.766C101.347 65.9 101.006 65.555 101.037 65.1366C101.342 61.069 103.517 58.3055 108.083 57.8883V59.0833C108.083 59.7737 108.643 60.3333 109.333 60.3333C110.024 60.3333 110.583 59.7737 110.583 59.0833V57.8333H121.417V59.0833C121.417 59.7737 121.976 60.3333 122.667 60.3333C123.357 60.3333 123.917 59.7737 123.917 59.0833V57.8883C128.483 58.3055 130.658 61.069 130.963 65.1366ZM123.917 57.8883V56.5833C123.917 55.893 123.357 55.3333 122.667 55.3333C121.976 55.3333 121.417 55.893 121.417 56.5833V57.8333H122.667C123.102 57.8333 123.518 57.8519 123.917 57.8883ZM101 69.15C101 68.7358 101.336 68.4 101.75 68.4H130.25C130.664 68.4 131 68.7358 131 69.15V80.3333C131 85.3333 128.5 88.6667 122.667 88.6667H109.333C103.5 88.6667 101 85.3333 101 80.3333V69.15ZM122.158 73.1667C121.237 73.1667 120.491 73.9129 120.491 74.8334C120.491 75.7538 121.237 76.5 122.158 76.5H122.173C123.093 76.5 123.839 75.7538 123.839 74.8334C123.839 73.9129 123.093 73.1667 122.173 73.1667H122.158ZM120.491 79.8334C120.491 78.9129 121.237 78.1667 122.158 78.1667H122.173C123.093 78.1667 123.839 78.9129 123.839 79.8334C123.839 80.7538 123.093 81.5 122.173 81.5H122.158C121.237 81.5 120.491 80.7538 120.491 79.8334ZM115.992 73.1667C115.072 73.1667 114.326 73.9129 114.326 74.8334C114.326 75.7538 115.072 76.5 115.992 76.5H116.007C116.928 76.5 117.674 75.7538 117.674 74.8334C117.674 73.9129 116.928 73.1667 116.007 73.1667H115.992ZM114.326 79.8334C114.326 78.9129 115.072 78.1667 115.992 78.1667H116.007C116.928 78.1667 117.674 78.9129 117.674 79.8334C117.674 80.7538 116.928 81.5 116.007 81.5H115.992C115.072 81.5 114.326 80.7538 114.326 79.8334ZM109.824 73.1667C108.903 73.1667 108.157 73.9129 108.157 74.8334C108.157 75.7538 108.903 76.5 109.824 76.5H109.839C110.759 76.5 111.505 75.7538 111.505 74.8334C111.505 73.9129 110.759 73.1667 109.839 73.1667H109.824ZM108.157 79.8334C108.157 78.9129 108.903 78.1667 109.823 78.1667H109.838C110.759 78.1667 111.505 78.9129 111.505 79.8334C111.505 80.7538 110.759 81.5 109.838 81.5H109.823C108.903 81.5 108.157 80.7538 108.157 79.8334Z" fill="white"/>
</g>
<ellipse cx="121.764" cy="3.52495" rx="1.95763" ry="1.95833" fill="#FF991F"/>
<ellipse cx="87.31" cy="138.258" rx="2.74068" ry="2.74167" fill="#FF991F"/>
<ellipse cx="228.259" cy="61.4917" rx="2.74068" ry="2.74167" fill="#FF991F"/>
<circle cx="133.902" cy="133.95" r="0.783051" fill="#FF991F"/>
<ellipse cx="177.958" cy="82.9583" rx="1.95763" ry="1.95833" fill="#FFD6A5"/>
<circle cx="39.8691" cy="59.4666" r="1.5" fill="#FF991F"/>
<defs>
<filter id="filter0_d_2199_16463" x="92" y="50" width="48" height="48" filterUnits="userSpaceOnUse" color-interpolation-filters="sRGB">
<feFlood flood-opacity="0" result="BackgroundImageFix"/>
<feColorMatrix in="SourceAlpha" type="matrix" values="0 0 0 0 0 0 0 0 0 0 0 0 0 0 0 0 0 0 127 0" result="hardAlpha"/>
<feOffset dy="2"/>
<feGaussianBlur stdDeviation="2"/>
<feComposite in2="hardAlpha" operator="out"/>
<feColorMatrix type="matrix" values="0 0 0 0 0 0 0 0 0 0 0 0 0 0 0 0 0 0 0.05 0"/>
<feBlend mode="normal" in2="BackgroundImageFix" result="effect1_dropShadow_2199_16463"/>
<feBlend mode="normal" in="SourceGraphic" in2="effect1_dropShadow_2199_16463" result="shape"/>
</filter>
<linearGradient id="paint0_linear_2199_16463" x1="179.216" y1="27.4166" x2="179.373" y2="16.0602" gradientUnits="userSpaceOnUse">
<stop offset="0.104167" stop-color="#DB1919" stop-opacity="0.05"/>
<stop offset="0.515625" stop-color="#FF6A3A" stop-opacity="0.5"/>
<stop offset="1" stop-color="#FBAA4A"/>
</linearGradient>
<linearGradient id="paint1_linear_2199_16463" x1="55.5302" y1="15.6667" x2="55.7393" y2="0.524762" gradientUnits="userSpaceOnUse">
<stop offset="0.104167" stop-color="#DB1919" stop-opacity="0.05"/>
<stop offset="0.515625" stop-color="#FF6A3A" stop-opacity="0.5"/>
<stop offset="1" stop-color="#FBAA4A"/>
</linearGradient>
<linearGradient id="paint2_linear_2199_16463" x1="46.9501" y1="108.1" x2="47.0547" y2="100.529" gradientUnits="userSpaceOnUse">
<stop offset="0.104167" stop-color="#DB1919" stop-opacity="0.05"/>
<stop offset="0.515625" stop-color="#FF6A3A" stop-opacity="0.5"/>
<stop offset="1" stop-color="#FBAA4A"/>
</linearGradient>
<linearGradient id="paint3_linear_2199_16463" x1="126.723" y1="128" x2="128.218" y2="19.7515" gradientUnits="userSpaceOnUse">
<stop offset="0.104167" stop-color="#A819DB" stop-opacity="0.05"/>
<stop offset="0.515625" stop-color="#FF523A" stop-opacity="0.41"/>
<stop offset="1" stop-color="#FBAA4A"/>
</linearGradient>
</defs>
</svg>
