<svg width="118" height="145" viewBox="0 0 118 145" fill="none" xmlns="http://www.w3.org/2000/svg">
<mask id="mask0_7033_46734" style="mask-type:alpha" maskUnits="userSpaceOnUse" x="0" y="0" width="118" height="145">
<rect width="118" height="145" fill="#D9D9D9"/>
</mask>
<g mask="url(#mask0_7033_46734)">
<g clip-path="url(#clip0_7033_46734)">
<path d="M-2.56618 -61.9116C-2.85656 -61.8838 -3.14944 -61.8409 -3.4248 -61.7955C-4.46846 -61.6342 -5.49276 -61.3643 -6.48129 -60.9902C-7.12775 -60.7396 -7.75959 -60.4521 -8.37376 -60.1293C-8.97889 -59.8004 -9.56403 -59.4354 -10.1261 -59.0362C-10.4039 -58.8469 -10.6793 -58.6298 -10.9571 -58.4102C-11.3945 -58.076 -11.8031 -57.7053 -12.1787 -57.3019C-12.3515 -57.1025 -12.5492 -56.9005 -12.7395 -56.6986C-13.6795 -55.6599 -14.4753 -54.4973 -15.1051 -53.2425C-15.2527 -52.9648 -15.3829 -52.6872 -15.5131 -52.412C-16.4065 -50.3743 -16.8645 -48.1697 -16.8573 -45.9417V145.649C-16.8564 147.533 -16.5259 149.402 -15.8811 151.17C-15.625 151.907 -15.3042 152.619 -14.9223 153.298C-14.6805 153.756 -14.413 154.199 -14.1213 154.626C-13.687 155.264 -13.2102 155.872 -12.6944 156.446C-12.5192 156.635 -12.3314 156.825 -12.1562 156.999C-11.8107 157.378 -11.431 157.725 -11.0222 158.034C-10.7444 158.269 -10.469 158.486 -10.1786 158.69C-9.31187 159.309 -8.39006 159.846 -7.42502 160.293H-7.41001C-6.08957 160.889 -4.69501 161.301 -3.26459 161.518C-2.48097 161.647 -1.68804 161.71 -0.893999 161.707H249.758C251.77 161.715 253.764 161.322 255.625 160.552C257.487 159.782 259.179 158.65 260.606 157.22C262.033 155.789 263.167 154.089 263.942 152.217C264.717 150.345 265.118 148.337 265.123 146.308V27.3894L265.196 26.9678C265.182 26.931 265.157 26.8998 265.123 26.8795V-46.6006C265.132 -49.0075 264.568 -51.3813 263.479 -53.5228C262.193 -56.0772 260.23 -58.222 257.807 -59.7185C255.385 -61.2151 252.599 -62.0049 249.758 -62H-0.893999C-1.45257 -62.0011 -2.01079 -61.9716 -2.56618 -61.9116Z" fill="#D9EAF5"/>
<path d="M157.59 -62H172.86L154.867 -52.7528L151.745 -51.1447L112.782 -31.1079L106.589 -27.9195L79.7187 -14.103L76.6121 -12.5202L45.3213 3.56585L42.2197 5.18151L17.938 17.6651L14.7639 19.2883L-15.2603 34.7281C-15.7528 34.9876 -16.3018 35.1187 -16.8574 35.1093V27.6948L12.3808 12.6666L15.4973 11.061L54.5308 -9.00607L57.6473 -10.6116L103.53 -34.2004L109.723 -37.3913L157.59 -62Z" fill="white"/>
<path d="M89.9871 -62H97.7347L109.723 -37.3939L112.782 -31.1104L135.752 16.0065L137.276 19.1571L154.336 54.164L155.868 57.302L157.695 61.0483L170.855 88.0603L174.335 95.202L187.777 122.785L189.8 126.932L193.054 133.645C193.092 133.723 193.132 133.811 193.172 133.897L199.795 147.476L201.33 150.627L205.988 160.187C206.221 160.658 206.342 161.176 206.341 161.702H198.977L188.053 139.277L184.906 132.814L167.253 96.5854C167.203 96.4971 167.165 96.4087 167.125 96.3204L153.155 67.6422L150.076 61.331L142.456 45.6793L140.931 42.5489L118.469 -3.54815L116.935 -6.6785L106.589 -27.9195L103.53 -34.2004L89.9871 -62Z" fill="white"/>
<path d="M-12.7394 -56.6986L-2.7263 -32.6529L-1.37203 -29.4039L15.4925 11.0661L16.8893 14.4161L16.9344 14.5473C17.007 14.724 17.3124 15.6985 17.793 17.2435C17.8355 17.3747 17.8806 17.5212 17.9232 17.6676C18.8994 20.8585 20.3964 26.0893 21.6055 31.7441C22.6243 36.4523 23.4529 41.4507 23.6081 45.7777C23.6231 46.2599 23.6381 46.7244 23.6381 47.1914C23.6381 48.181 23.5931 49.1428 23.5079 50.034C23.4779 50.2511 23.4354 50.4858 23.4053 50.6878C22.3865 55.964 15.5901 60.3641 7.86253 63.7318C6.7711 64.1997 5.66549 64.6516 4.5457 65.0875C-4.81152 68.7303 -14.5042 70.871 -16.4818 71.3103C-16.6007 71.3384 -16.7225 71.3528 -16.8447 71.3532V67.8189C-10.3237 66.4052 -2.03039 64.0171 5.04134 61.1164C5.1415 61.0577 5.24936 61.0135 5.36176 60.9852C13.3071 57.6478 19.6304 53.6844 20.0309 49.6906C20.5316 44.8234 19.4051 37.8432 17.9807 31.4613C16.9018 26.68 15.6502 22.2495 14.7791 19.2908C14.1808 17.3091 13.7602 16.009 13.6576 15.7061L13.4073 15.0951L12.3884 12.6767L-4.45856 -27.7403L-5.81283 -30.9741L-15.105 -53.2426C-14.4743 -54.4968 -13.6786 -55.6593 -12.7394 -56.6986Z" fill="white"/>
<path d="M146.548 42.559C146.549 42.8805 146.461 43.1959 146.295 43.47C146.128 43.7441 145.889 43.9662 145.605 44.1115C106.979 64.007 80.8327 64.2922 65.6654 44.9875C61.7453 40.0067 56.9891 37.3308 51.5319 37.0405C37.5862 36.2831 23.1499 50.9251 23.0072 51.0741C22.6831 51.4057 22.2422 51.5949 21.7805 51.6006C21.3188 51.6063 20.8735 51.4279 20.5415 51.1043C20.3783 50.9447 20.2481 50.7541 20.1583 50.5436C20.0684 50.333 20.0207 50.1066 20.018 49.8774C20.0152 49.6482 20.0573 49.4207 20.142 49.208C20.2267 48.9953 20.3522 48.8016 20.5114 48.6379C21.1448 47.9891 36.1769 32.7337 51.7072 33.5542C58.2156 33.9 63.8405 37.0203 68.404 42.8291C82.3747 60.6141 107.104 60.0183 144.003 41.0115C144.414 40.8012 144.891 40.7627 145.33 40.9045C145.769 41.0463 146.135 41.3568 146.348 41.7688C146.477 42.012 146.546 42.2831 146.548 42.559Z" fill="white"/>
<path d="M109.47 56.4361C109.469 56.7793 109.368 57.1147 109.18 57.4003C108.991 57.6859 108.723 57.909 108.409 58.0416C107.984 58.2217 107.506 58.2256 107.078 58.0527C106.65 57.8798 106.307 57.5438 106.123 57.1177L75.1903 -15.8399C75.1011 -16.0511 75.0542 -16.278 75.0524 -16.5076C75.0506 -16.7372 75.0939 -16.9648 75.1798 -17.1775C75.2656 -17.3901 75.3924 -17.5835 75.5527 -17.7464C75.7131 -17.9094 75.9038 -18.0388 76.114 -18.127C76.5389 -18.3071 77.017 -18.3111 77.4448 -18.1381C77.8725 -17.9652 78.2155 -17.6293 78.3995 -17.2031L109.33 55.7544C109.422 55.9696 109.47 56.2016 109.47 56.4361Z" fill="white"/>
<path d="M44.0069 0.47341L45.3261 3.576L58.7111 35.132L58.9965 35.7985C59.0842 36.0158 59.1301 36.248 59.1317 36.4826C59.1302 36.8027 59.0437 37.1165 58.8813 37.3914L58.0978 38.684L39.4084 69.4827L37.4634 72.7014L15.2043 109.372L14.8714 109.93C14.6652 110.289 14.3344 110.559 13.9427 110.687L11.9901 111.351L-16.2968 121.017C-16.4783 121.083 -16.6697 121.116 -16.8625 121.116V117.524L11.4244 107.855L12.2154 107.582L14.3457 104.071L35.8312 68.6597L54.7359 37.5076L55.4393 36.3539L54.383 33.8673L42.2196 5.18157L40.8027 1.83411C40.6255 1.4062 40.6238 0.924905 40.7979 0.495705C40.972 0.0665059 41.3077 -0.27559 41.7314 -0.455602C42.1558 -0.632209 42.6319 -0.633822 43.0575 -0.460093C43.483 -0.286365 43.8239 0.0488302 44.0069 0.47341Z" fill="white"/>
<path d="M102.676 40.0598C99.3814 41.1032 96.473 43.1198 94.3273 45.8486C92.1815 48.5774 90.8972 51.8927 90.6404 55.3657V55.3885C90.6279 55.7343 90.6129 56.0802 90.6129 56.4437C90.6129 56.7214 90.6129 56.9991 90.6404 57.2768C90.6571 57.8335 90.7106 58.3884 90.8007 58.9379V58.9556C91.2956 62.2278 92.7161 65.2866 94.8918 67.765C97.0675 70.2434 99.9059 72.0363 103.067 72.9286H103.082C104.592 73.3605 106.155 73.5747 107.725 73.5647C108.869 73.5709 110.011 73.46 111.132 73.234C118.932 71.6411 124.84 64.7164 124.84 56.4386C124.846 55.4409 124.762 54.4447 124.59 53.4623C124.495 52.901 124.369 52.3455 124.212 51.7986C124.059 51.2199 123.865 50.653 123.631 50.1022V50.0871C122.344 46.9003 120.145 44.1724 117.314 42.2512C114.484 40.33 111.15 39.3025 107.738 39.2999C106.022 39.2932 104.315 39.5494 102.676 40.0598ZM120.322 51.2281V51.2458C120.552 51.7962 120.741 52.3633 120.887 52.9422V52.9599C121.19 54.0945 121.347 55.2637 121.353 56.4386C121.353 63.9717 115.243 70.0835 107.718 70.0835C104.596 70.0912 101.567 69.017 99.1378 67.0407C96.7083 65.0645 95.026 62.3063 94.3728 59.2282V59.2105C94.2593 58.6618 94.1824 58.106 94.1425 57.5469C94.1125 57.1834 94.0975 56.8198 94.0975 56.4386C94.0975 56.1862 94.0975 55.9338 94.1125 55.6813V55.6662C94.243 53.4128 94.9255 51.2272 96.0989 49.305C97.2723 47.3829 98.9 45.7841 100.836 44.6518C101.843 44.0576 102.924 43.6025 104.05 43.2987C107.255 42.4025 110.673 42.713 113.667 44.1721C116.661 45.6312 119.027 48.1393 120.322 51.2281Z" fill="white"/>
<path d="M122.62 -6.55227C122.619 -6.21654 122.522 -5.88814 122.341 -5.60648C122.16 -5.32482 121.902 -5.10187 121.598 -4.96437L88.1823 10.2229C87.7619 10.4128 87.2844 10.4281 86.8529 10.2656C86.4214 10.1031 86.0708 9.77576 85.8768 9.35449C85.7823 9.14561 85.7298 8.91994 85.7223 8.69049C85.7147 8.46104 85.7523 8.23236 85.8328 8.01763C85.9133 7.8029 86.0352 7.60636 86.1914 7.43936C86.3476 7.27236 86.535 7.13819 86.7429 7.04459L120.157 -8.14016C120.421 -8.26351 120.712 -8.31774 121.002 -8.29787C121.293 -8.278 121.574 -8.18466 121.819 -8.02646C122.065 -7.86825 122.267 -7.65028 122.407 -7.39265C122.546 -7.13501 122.62 -6.846 122.62 -6.55227Z" fill="white"/>
<path d="M7.62212 62.3484L7.84742 63.7293L14.3559 104.071L15.207 109.372L18.7441 131.29L19.3599 135.104L22.3088 153.381L22.867 156.855L23.618 161.434C23.618 161.533 23.6355 161.611 23.6355 161.707H20.1084L19.1622 155.79L11.9903 111.339L11.4296 107.855L4.53559 65.09L4.18264 62.9064C4.16094 62.4716 4.29915 62.044 4.57076 61.7057C4.84236 61.3673 5.22825 61.142 5.65444 61.0728C6.08063 61.0037 6.51712 61.0957 6.88024 61.3311C7.24335 61.5665 7.50753 61.9287 7.62212 62.3484Z" fill="white"/>
<path d="M139.915 109.021C139.916 109.28 139.859 109.535 139.749 109.769C139.639 110.003 139.478 110.209 139.279 110.372C138.919 110.664 138.46 110.802 138.001 110.754C137.541 110.707 137.119 110.479 136.826 110.119L107.397 74.1781L18.4512 135.73C18.0705 135.992 17.6027 136.093 17.1491 136.01C16.6955 135.926 16.2927 135.666 16.028 135.286C15.8975 135.098 15.8054 134.885 15.757 134.661C15.7086 134.437 15.705 134.205 15.7462 133.979C15.7874 133.754 15.8727 133.538 15.9972 133.346C16.1216 133.154 16.2827 132.989 16.4711 132.86L106.736 70.3939C107.097 70.1453 107.536 70.0414 107.969 70.1026C108.401 70.1638 108.796 70.3856 109.074 70.7246L139.522 107.918C139.777 108.228 139.916 108.618 139.915 109.021Z" fill="white"/>
<path d="M64.336 103.061C64.3362 103.331 64.2739 103.598 64.1539 103.84C64.034 104.082 63.8598 104.292 63.6451 104.454C63.276 104.733 62.8128 104.854 62.3559 104.791C61.899 104.727 61.4852 104.485 61.2044 104.116L35.9214 70.654C35.7838 70.4714 35.6834 70.2632 35.6259 70.0414C35.5684 69.8195 35.5549 69.5884 35.5864 69.3613C35.6178 69.1342 35.6934 68.9156 35.8089 68.718C35.9244 68.5205 36.0775 68.3479 36.2594 68.2103C36.6285 67.9314 37.0917 67.8106 37.5486 67.8739C38.0055 67.9372 38.4192 68.1796 38.7 68.5486L63.983 102.008C64.2118 102.311 64.3358 102.68 64.336 103.061Z" fill="white"/>
<path d="M40.1121 135.808C40.1121 139.731 39.2392 143.237 37.4936 146.325C32.3519 155.396 21.6054 157.168 21.1498 157.239C20.9237 157.278 20.6921 157.272 20.4684 157.221C20.2448 157.169 20.0335 157.073 19.8469 156.938C19.6603 156.804 19.5022 156.633 19.3817 156.436C19.2612 156.239 19.1808 156.02 19.1451 155.791C19.1094 155.563 19.1191 155.329 19.1738 155.105C19.2284 154.88 19.3268 154.668 19.4633 154.482C19.5998 154.296 19.7716 154.14 19.9687 154.021C20.1659 153.903 20.3844 153.825 20.6116 153.793C20.7192 153.775 30.1891 152.174 34.4772 144.576C37.5913 139.06 37.3184 131.671 33.6686 122.613C33.5825 122.4 33.539 122.172 33.5408 121.943C33.5426 121.713 33.5895 121.486 33.6789 121.274C33.7683 121.063 33.8984 120.872 34.0616 120.712C34.2249 120.551 34.418 120.425 34.6299 120.341C35.0577 120.169 35.5356 120.173 35.96 120.354C36.3845 120.534 36.7214 120.876 36.8979 121.305C39.0407 126.619 40.1121 131.464 40.1121 135.808Z" fill="white"/>
<path d="M48.0322 113.911L48.3076 115.067L52.1751 131.691L52.9761 135.104L55.0088 143.831L55.7998 147.257L59.0841 161.316C59.1182 161.443 59.1343 161.575 59.1317 161.707H55.5946L52.0474 146.484C52.0437 146.451 52.0378 146.418 52.0299 146.386L45.2235 117.2L44.6428 114.714C44.5601 114.364 44.588 113.996 44.7227 113.663C44.8573 113.33 45.092 113.048 45.3937 112.856C45.5623 112.747 45.7476 112.668 45.942 112.621C46.3884 112.518 46.8572 112.595 47.2479 112.836C47.6386 113.077 47.9201 113.463 48.0322 113.911Z" fill="white"/>
<path d="M96.1026 101.023C96.1026 104.51 91.6168 107.314 87.2586 110.041C83.5562 112.358 78.9527 115.244 79.4984 117.339C81.5286 124.998 59.277 133.014 52.4081 135.288C52.1912 135.365 51.9613 135.398 51.7318 135.384C51.5023 135.37 51.2778 135.311 51.0714 135.209C50.865 135.106 50.6808 134.964 50.5296 134.789C50.3783 134.615 50.263 134.412 50.1904 134.192C50.1179 133.972 50.0894 133.739 50.1067 133.508C50.1241 133.277 50.1869 133.052 50.2915 132.845C50.3961 132.639 50.5403 132.455 50.7159 132.306C50.8915 132.156 51.0948 132.043 51.3141 131.974C65.2523 127.359 76.8324 120.934 76.1315 118.233C74.9174 113.643 80.2519 110.308 85.4112 107.08C88.7105 105.017 93.2339 102.187 92.4954 100.579C89.8269 94.7299 85.326 87.313 85.281 87.2398C85.1621 87.0441 85.0829 86.8266 85.0477 86.5999C85.0126 86.3731 85.0223 86.1416 85.0763 85.9187C85.1303 85.6958 85.2275 85.4858 85.3623 85.301C85.4971 85.1161 85.6668 84.9599 85.8617 84.8415C86.2565 84.6018 86.729 84.5287 87.177 84.6378C87.6249 84.747 88.0121 85.0296 88.2549 85.4247C88.4451 85.7352 92.9084 93.0915 95.6645 99.1301C95.9455 99.7215 96.095 100.368 96.1026 101.023Z" fill="white"/>
<path d="M154.844 129.507C155.052 129.803 155.165 130.155 155.167 130.517C155.167 130.799 155.098 131.076 154.967 131.324C154.836 131.573 154.647 131.785 154.416 131.943L151.913 133.711L126.763 151.508C126.685 151.575 126.601 151.635 126.512 151.685L112.364 161.702H107.623C107.625 161.422 107.695 161.147 107.826 160.9C107.957 160.653 108.145 160.441 108.374 160.283L121.728 150.824L125.296 148.299L148.979 131.529L152.421 129.103C152.797 128.837 153.261 128.73 153.715 128.806C154.168 128.881 154.573 129.133 154.844 129.507Z" fill="white"/>
<path d="M142.811 115.928C142.811 116.292 142.697 116.648 142.487 116.944C142.276 117.24 141.979 117.462 141.637 117.579L54.323 147.764C53.887 147.914 53.4102 147.884 52.9956 147.682C52.581 147.48 52.262 147.121 52.1076 146.684C52.0328 146.467 52.0014 146.237 52.0151 146.008C52.0288 145.779 52.0874 145.555 52.1875 145.349C52.2876 145.143 52.4272 144.959 52.5982 144.808C52.7693 144.656 52.9684 144.541 53.184 144.467L140.5 114.28C140.936 114.13 141.413 114.159 141.828 114.362C142.242 114.564 142.561 114.922 142.716 115.36C142.779 115.543 142.811 115.735 142.811 115.928Z" fill="white"/>
<path d="M127.398 150.175C127.398 150.428 127.344 150.677 127.239 150.906C127.134 151.135 126.981 151.339 126.791 151.503C126.601 151.667 126.378 151.788 126.137 151.857C125.896 151.925 125.643 151.941 125.396 151.902C125.058 151.846 117.08 150.513 112.597 143.662C109.478 138.893 108.864 132.746 110.772 125.385C110.923 124.976 111.22 124.638 111.604 124.437C111.988 124.235 112.432 124.184 112.851 124.293C113.27 124.402 113.634 124.664 113.873 125.028C114.112 125.391 114.21 125.832 114.146 126.263C112.499 132.612 112.952 137.815 115.493 141.721C119.108 147.275 125.876 148.443 125.944 148.456C126.349 148.523 126.717 148.733 126.983 149.048C127.249 149.362 127.396 149.762 127.398 150.175Z" fill="white"/>
<path d="M84.9656 135.457L85.3861 137.033L91.8445 161.268C91.8821 161.415 91.9014 161.566 91.9021 161.717H88.365L82.0843 138.166L81.5836 136.356C81.4807 135.957 81.5204 135.535 81.6957 135.163C81.8711 134.791 82.1708 134.493 82.5424 134.321C82.6349 134.284 82.7293 134.251 82.8253 134.223C83.0462 134.161 83.277 134.145 83.5044 134.173C83.7318 134.202 83.9513 134.276 84.1502 134.391C84.3491 134.506 84.5236 134.659 84.6635 134.842C84.8035 135.025 84.9061 135.234 84.9656 135.457Z" fill="white"/>
<path d="M75.0931 34.7855C75.0931 39.9133 68.5456 49.108 64.5925 54.1922C63.0854 56.1303 60.2325 56.1299 58.7261 54.1913C54.7752 49.107 48.2325 39.913 48.2325 34.7855C48.213 33.0285 48.5459 31.2852 49.2121 29.6565C49.8782 28.0277 50.8644 26.5458 52.1135 25.2966C53.3625 24.0473 54.8497 23.0556 56.4888 22.3788C58.128 21.7019 59.8866 21.3534 61.6628 21.3534C63.439 21.3534 65.1976 21.7019 66.8368 22.3788C68.4759 23.0556 69.9631 24.0473 71.2121 25.2966C72.4612 26.5458 73.4474 28.0277 74.1135 29.6565C74.7797 31.2852 75.1126 33.0285 75.0931 34.7855Z" fill="url(#paint0_linear_7033_46734)"/>
<path d="M61.6628 40.1079C65.0864 40.1079 67.8618 37.309 67.8618 33.8564C67.8618 30.4038 65.0864 27.6049 61.6628 27.6049C58.2392 27.6049 55.4639 30.4038 55.4639 33.8564C55.4639 37.309 58.2392 40.1079 61.6628 40.1079Z" fill="white"/>
</g>
</g>
<defs>
<linearGradient id="paint0_linear_7033_46734" x1="50.2747" y1="26.6925" x2="76.4164" y2="30.2814" gradientUnits="userSpaceOnUse">
<stop stop-color="#4581E9"/>
<stop offset="1" stop-color="#70A3FC"/>
</linearGradient>
<clipPath id="clip0_7033_46734">
<rect width="282.053" height="223.707" fill="white" transform="translate(-16.8574 -62)"/>
</clipPath>
</defs>
</svg>
