<svg width="157" height="157" viewBox="0 0 157 157" fill="none" xmlns="http://www.w3.org/2000/svg">
<path d="M139.782 141.446C137.011 134.295 130.603 128.253 123.088 125.223C108.539 119.349 95.6549 115.332 80.2401 115.332C79.654 115.332 79.0757 115.332 78.5 115.348C77.9243 115.363 77.3461 115.332 76.7599 115.332C61.3451 115.332 48.4607 119.349 33.912 125.223C26.3969 128.258 19.9887 134.3 17.2177 141.446L11.1889 157H145.811L139.782 141.446Z" fill="#FFC709"/>
<path d="M78.5 136.36C61.9862 136.36 47.7777 130.498 43.1488 121.777L44.0725 121.288C48.5209 129.677 62.363 135.313 78.5 135.313C94.637 135.313 108.474 129.677 112.927 121.288L113.851 121.777C109.222 130.498 95.0138 136.36 78.5 136.36Z" fill="#DB850D"/>
<path d="M80.2401 115.327C79.6539 115.327 79.0757 115.327 78.5 115.348C77.9243 115.369 77.346 115.327 76.7599 115.327C67.2012 115.327 58.9666 117.303 51.1166 120.466C54.3351 126.72 65.3669 131.331 78.4869 131.331C91.6069 131.331 102.641 126.72 105.857 120.466C98.0465 117.303 89.8014 115.327 80.2401 115.327Z" fill="#F0BEB4"/>
<path d="M93.7499 96.6206H63.0276C64.3377 104.549 64.6474 111.959 63.9566 118.849C63.3469 124.894 70.807 129.491 78.3011 129.515C85.8502 129.538 93.4333 124.941 92.821 118.849C92.1285 111.957 92.4381 104.547 93.7499 96.6206Z" fill="#EBAEA2"/>
<path d="M48.5915 78.4292L49.1619 84.6333C49.3382 86.5759 50.087 88.4224 51.3135 89.9391C52.54 91.4558 54.1889 92.5743 56.0516 93.1532L59.2282 94.1397L56.3918 78.4397L48.5915 78.4292Z" fill="#5A2305"/>
<path d="M108.186 78.4292L107.616 84.6333C107.439 86.5761 106.69 88.4227 105.463 89.9393C104.236 91.456 102.586 92.5745 100.723 93.1532L97.5493 94.1397L100.386 78.4397L108.186 78.4292Z" fill="#5A2305"/>
<path d="M63.0276 96.6206C63.3329 98.475 63.5833 100.301 63.7786 102.1C68.0307 107.435 72.937 110.612 78.3875 110.612C83.838 110.612 88.7469 107.435 92.9989 102.1C93.1952 100.3 93.4412 98.4758 93.7499 96.6206H63.0276Z" fill="#DB9486"/>
<path d="M78.3875 26.9229C61.9313 26.9229 48.5915 42.1676 48.5915 60.9762C48.5915 70.5453 54.3298 87.2684 56.9648 91.4106C62.4075 99.9279 69.7237 105.635 78.377 105.635C87.0303 105.635 94.3387 99.9279 99.7918 91.4106C102.437 87.2684 108.165 70.5453 108.165 60.9762C108.186 42.1676 94.8463 26.9229 78.3875 26.9229Z" fill="#EBAEA2"/>
<path d="M103.756 82.378C101.675 70 100.957 57.4312 101.616 44.8968C101.684 43.612 101.778 42.2802 102.401 41.1524C103.023 40.0246 104.285 39.1428 105.541 39.4071C106.723 39.653 110.232 41.1498 110.818 42.2095C118.598 56.3029 115.057 74.2506 103.756 82.378Z" fill="#5A2305"/>
<path d="M78.3875 26.9229C58.3936 26.9229 56.6692 59.6809 57.5117 63.339C59.8877 73.5571 55.3635 80.0281 59.8223 91.4106C63.2841 100.252 71.7202 105.635 78.3875 105.635C85.0548 105.635 93.4909 100.252 96.9658 91.4106C101.414 80.0281 96.8978 73.5571 99.2737 63.339C100.116 59.6809 98.3867 26.9229 78.3875 26.9229Z" fill="#F0BEB4"/>
<path d="M53.278 82.378C55.3582 69.9999 56.0751 57.4311 55.4158 44.8968C55.3477 43.612 55.2535 42.2802 54.6439 41.1524C54.0342 40.0246 52.7599 39.1428 51.5039 39.4071C50.3211 39.653 46.8096 41.1498 46.226 42.2095C38.4336 56.3029 41.974 74.2506 53.278 82.378Z" fill="#5A2305"/>
<path d="M52.4066 71.7959C48.4816 61.2874 44.9282 51.3309 50.7686 40.7596C51.4175 39.5795 51.7917 39.3885 51.9251 39.3623C52.1196 39.4015 52.3022 39.4859 52.4581 39.6086C52.614 39.7313 52.7388 39.889 52.8226 40.0688C53.2099 40.7832 53.291 41.7906 53.346 42.9471C53.8528 52.5726 53.5385 62.2238 52.4066 71.7959Z" fill="url(#paint0_linear_5530_59607)"/>
<path d="M42.0341 70.1029C41.7882 71.9738 42.3272 73.8657 43.0991 75.5848C44.4482 78.5824 46.4957 81.2132 49.0703 83.2569C49.7036 83.7567 50.3918 84.2329 51.182 84.3847C51.9722 84.5365 52.8933 84.2931 53.3224 83.5997C53.7777 82.8749 53.5658 81.9329 53.3381 81.106C52.2915 77.3537 52.0089 70.9743 50.0254 67.7113C47.6835 63.8753 42.5313 65.9607 42.0341 70.1029Z" fill="#EBAEA2"/>
<path d="M114.966 70.1029C115.212 71.9738 114.673 73.8657 113.901 75.5848C112.552 78.5824 110.504 81.2132 107.93 83.2569C107.296 83.7567 106.608 84.2329 105.818 84.3847C105.028 84.5365 104.107 84.2931 103.678 83.5997C103.222 82.8749 103.434 81.9329 103.664 81.106C104.698 77.3537 104.991 70.9743 106.975 67.7113C109.316 63.8753 114.469 65.9607 114.966 70.1029Z" fill="#EBAEA2"/>
<path d="M55.6539 47.9033C66.4136 38.69 81.0539 44.8235 87.5458 48.1414C98.2218 53.5998 110.572 48.1414 112.428 36.4266C96.0133 40.7807 100.742 21.4043 75.7289 21.4043C67.1751 21.4043 57.9592 25.3633 52.37 32.0986C51.0773 33.6686 49.7847 37.7951 50.6508 39.7628C51.0512 41.5631 52.3333 42.997 55.6539 47.9033Z" fill="#5A2305"/>
<path d="M96.1599 46.129C93.488 46.1062 90.8593 45.4526 88.4878 44.2215C81.5824 40.6916 75.1297 38.9018 69.3129 38.9018C64.3412 38.9018 59.8929 40.2311 56.1275 42.8504L55.1881 41.4975C53.6024 39.2158 52.8802 38.177 52.6683 37.235L52.6238 37.0387L52.5427 36.853C52.1031 35.856 52.9535 32.559 53.9635 31.3423C58.977 25.3004 67.5205 21.3989 75.7289 21.3989C87.9671 21.3989 92.439 26.245 96.3849 30.5232C99.347 33.7365 102.403 37.0649 108.045 37.0649C108.555 37.0649 109.073 37.0387 109.615 36.9864C107.545 42.4919 102.364 46.129 96.1599 46.129Z" fill="url(#paint1_linear_5530_59607)"/>
<path d="M96.4268 67.7717C96.0961 67.7724 95.7701 67.694 95.476 67.5428C95.1819 67.3917 94.9283 67.1723 94.7364 66.903C93.9984 65.9102 92.9848 65.1562 91.8218 64.7347C90.6587 64.3132 89.3975 64.2428 88.1947 64.5323C87.9319 64.6018 87.6579 64.619 87.3884 64.5827C87.1189 64.5463 86.8592 64.4573 86.6241 64.3206C86.389 64.184 86.1832 64.0023 86.0183 63.7861C85.8534 63.5699 85.7327 63.3233 85.6631 63.0604C85.5935 62.7975 85.5764 62.5235 85.6127 62.254C85.649 61.9845 85.7381 61.7248 85.8747 61.4897C86.0114 61.2547 86.1931 61.0488 86.4093 60.8839C86.6255 60.719 86.8721 60.5983 87.135 60.5288C89.1544 60.0211 91.2794 60.1282 93.2375 60.8364C95.1956 61.5446 96.8975 62.8215 98.125 64.5035C98.3464 64.8137 98.4778 65.179 98.5046 65.5592C98.5314 65.9394 98.4526 66.3195 98.2769 66.6577C98.1012 66.9959 97.8354 67.2789 97.5089 67.4755C97.1824 67.6721 96.8079 67.7746 96.4268 67.7717Z" fill="#5A2305"/>
<path d="M60.3508 67.7716C59.9712 67.7717 59.5989 67.6674 59.2748 67.47C58.9506 67.2725 58.687 66.9897 58.513 66.6524C58.3389 66.3151 58.2611 65.9364 58.288 65.5578C58.3149 65.1791 58.4456 64.8153 58.6657 64.506C59.8924 62.8232 61.5943 61.5457 63.5526 60.8374C65.5109 60.1291 67.6363 60.0225 69.6557 60.5313C69.9228 60.5968 70.1742 60.7148 70.3951 60.8786C70.6161 61.0423 70.8022 61.2485 70.9426 61.485C71.083 61.7215 71.1749 61.9836 71.2128 62.256C71.2508 62.5284 71.234 62.8056 71.1636 63.0715C71.0932 63.3374 70.9705 63.5865 70.8027 63.8044C70.6349 64.0223 70.4253 64.2046 70.1862 64.3406C69.9472 64.4766 69.6834 64.5636 69.4104 64.5965C69.1373 64.6294 68.8604 64.6075 68.5959 64.5322C67.3931 64.2462 66.133 64.3183 64.9706 64.7395C63.8083 65.1607 62.7945 65.9127 62.0542 66.9029C61.8619 67.1748 61.6063 67.3959 61.3096 67.5472C61.0129 67.6986 60.6838 67.7756 60.3508 67.7716Z" fill="#5A2305"/>
<path d="M92.1067 70.1866C92.1067 72.662 91.0364 74.6716 89.715 74.6716C88.3936 74.6716 87.3208 72.662 87.3208 70.1866C87.3208 67.7113 88.3936 65.7017 89.715 65.7017C91.0364 65.7017 92.1067 67.7086 92.1067 70.1866Z" fill="#662B09"/>
<path d="M65.8536 74.6716C67.1745 74.6716 68.2453 72.6636 68.2453 70.1866C68.2453 67.7097 67.1745 65.7017 65.8536 65.7017C64.5328 65.7017 63.462 67.7097 63.462 70.1866C63.462 72.6636 64.5328 74.6716 65.8536 74.6716Z" fill="#662B09"/>
<path d="M77.3696 95.1788C75.1297 95.1788 72.937 94.768 71.2361 93.8208C71.1169 93.7526 71.0293 93.6404 70.9921 93.5082C70.9549 93.3761 70.9711 93.2346 71.0373 93.1143C71.1054 92.9958 71.2172 92.9086 71.3487 92.8715C71.4802 92.8343 71.6211 92.8501 71.7411 92.9154C75.4777 95.0087 81.831 94.2525 85.1934 92.2796C86.2087 91.683 87.4228 90.7096 87.4228 89.4012C87.4109 89.3265 87.4153 89.25 87.4358 89.1771C87.4563 89.1043 87.4923 89.0367 87.5415 88.9791C87.5906 88.9215 87.6516 88.8753 87.7204 88.8435C87.7891 88.8118 87.8639 88.7954 87.9396 88.7954C88.0153 88.7954 88.0901 88.8118 88.1589 88.8435C88.2276 88.8753 88.2886 88.9215 88.3378 88.9791C88.3869 89.0367 88.4229 89.1043 88.4434 89.1771C88.4639 89.25 88.4683 89.3265 88.4564 89.4012C88.4564 90.8064 87.5092 92.1095 85.7194 93.1614C83.6287 94.3991 80.4573 95.1788 77.3696 95.1788Z" fill="#5A2305"/>
<path d="M78.5 84.9553L73.6147 83.21L78.5 88.3569L83.3853 83.21L78.5 84.9553Z" fill="#DB9486"/>
<path d="M130.572 116.703H111.339V114.872H128.74V97.4707H130.572V116.703ZM47.2308 116.703H27.9983V97.4707H29.83V114.872H47.2308V116.703ZM130.572 33.3624H128.74V15.9615H111.339V14.1299H130.572V33.3624ZM29.83 33.3624H27.9983V14.1299H47.2308V15.9615H29.83V33.3624Z" fill="#E43434"/>
<path d="M126.254 112.386H116.29V110.554H124.422V102.421H126.254V112.386ZM42.2801 112.386H32.3158V102.421H34.1475V110.554H42.2801V112.386ZM126.254 28.4115H124.422V20.2789H116.29V18.4473H126.254V28.4115ZM34.1475 28.4115H32.3158V18.4473H42.2801V20.2789H34.1475V28.4115Z" fill="#E43434"/>
<path d="M130.077 56.4155H117.923V55.6305H129.753L137.54 47.8433L138.095 48.398L130.077 56.4155Z" fill="#DCDEE9"/>
<path d="M138.602 48.7747C138.257 48.7747 137.919 48.6722 137.631 48.4801C137.344 48.288 137.12 48.015 136.987 47.6956C136.855 47.3763 136.82 47.0248 136.888 46.6857C136.955 46.3467 137.122 46.0352 137.366 45.7908C137.611 45.5463 137.922 45.3798 138.261 45.3124C138.6 45.245 138.952 45.2796 139.271 45.4119C139.591 45.5442 139.864 45.7682 140.056 46.0556C140.248 46.3431 140.35 46.681 140.35 47.0267C140.349 47.4901 140.165 47.9343 139.837 48.262C139.51 48.5896 139.066 48.774 138.602 48.7747ZM138.602 46.0664C138.412 46.0664 138.225 46.123 138.067 46.2289C137.909 46.3348 137.785 46.4854 137.712 46.6615C137.64 46.8376 137.621 47.0313 137.658 47.2182C137.695 47.405 137.787 47.5766 137.922 47.7112C138.057 47.8457 138.229 47.9372 138.416 47.9741C138.603 48.011 138.797 47.9915 138.973 47.9182C139.148 47.845 139.299 47.7211 139.404 47.5624C139.51 47.4037 139.566 47.2173 139.565 47.0267C139.564 46.7718 139.463 46.5276 139.282 46.3475C139.102 46.1675 138.857 46.0664 138.602 46.0664Z" fill="#DCDEE9"/>
<path d="M151.45 31.1699H138.602V31.9549H151.45V31.1699Z" fill="#DCDEE9"/>
<path d="M151.45 33.1216H138.602V33.9066H151.45V33.1216Z" fill="#DCDEE9"/>
<path d="M151.45 35.0737H138.602V35.8587H151.45V35.0737Z" fill="#DCDEE9"/>
<path d="M151.45 37.0234H138.602V37.8084H151.45V37.0234Z" fill="#DCDEE9"/>
<path d="M151.45 38.9751H138.602V39.7601H151.45V38.9751Z" fill="#DCDEE9"/>
<path d="M151.45 40.9272H138.602V41.7122H151.45V40.9272Z" fill="#DCDEE9"/>
<path d="M143.6 42.8794H138.602V43.6644H143.6V42.8794Z" fill="#DCDEE9"/>
<path d="M137.54 81.4203L129.753 73.6331H117.923V72.8481H130.077L138.095 80.8656L137.54 81.4203Z" fill="#DCDEE9"/>
<path d="M138.602 83.9949C138.256 83.9949 137.918 83.8923 137.631 83.7001C137.343 83.5079 137.119 83.2348 136.987 82.9153C136.855 82.5957 136.82 82.2441 136.888 81.905C136.956 81.5659 137.122 81.2544 137.367 81.0101C137.612 80.7657 137.924 80.5994 138.263 80.5323C138.602 80.4651 138.954 80.5001 139.273 80.6328C139.592 80.7655 139.865 80.99 140.057 81.2778C140.249 81.5655 140.351 81.9037 140.35 82.2496C140.349 82.7127 140.165 83.1566 139.837 83.4839C139.51 83.8111 139.065 83.9949 138.602 83.9949ZM138.602 81.2866C138.412 81.2866 138.226 81.3431 138.067 81.4489C137.909 81.5547 137.785 81.7051 137.713 81.8811C137.64 82.057 137.621 82.2506 137.658 82.4374C137.695 82.6242 137.787 82.7958 137.921 82.9305C138.056 83.0651 138.228 83.1568 138.414 83.194C138.601 83.2312 138.795 83.2121 138.971 83.1392C139.147 83.0663 139.297 82.9429 139.403 82.7846C139.509 82.6262 139.565 82.44 139.565 82.2496C139.567 82.122 139.543 81.9954 139.496 81.8771C139.448 81.7587 139.377 81.651 139.288 81.5602C139.198 81.4694 139.091 81.3973 138.974 81.3481C138.856 81.2989 138.73 81.2735 138.602 81.2736V81.2866Z" fill="#DCDEE9"/>
<path d="M151.45 85.5991H138.602V86.3841H151.45V85.5991Z" fill="#DCDEE9"/>
<path d="M151.45 87.5513H138.602V88.3363H151.45V87.5513Z" fill="#DCDEE9"/>
<path d="M151.45 89.5029H138.602V90.2879H151.45V89.5029Z" fill="#DCDEE9"/>
<path d="M151.45 91.4526H138.602V92.2376H151.45V91.4526Z" fill="#DCDEE9"/>
<path d="M151.45 93.4043H138.602V94.1893H151.45V93.4043Z" fill="#DCDEE9"/>
<path d="M151.45 95.3564H138.602V96.1414H151.45V95.3564Z" fill="#DCDEE9"/>
<path d="M143.6 97.3086H138.602V98.0936H143.6V97.3086Z" fill="#DCDEE9"/>
<path d="M39.0773 56.4155H26.9229L18.9054 48.398L19.4602 47.8433L27.2474 55.6305H39.0773V56.4155Z" fill="#DCDEE9"/>
<path d="M18.3978 48.7747C18.0522 48.7742 17.7145 48.6712 17.4274 48.4788C17.1403 48.2864 16.9167 48.0133 16.7848 47.6938C16.6529 47.3744 16.6186 47.023 16.6864 46.6841C16.7541 46.3452 16.9208 46.034 17.1653 45.7898C17.4099 45.5456 17.7214 45.3794 18.0604 45.3122C18.3993 45.245 18.7507 45.2797 19.0699 45.4121C19.3891 45.5445 19.662 45.7685 19.8539 46.0559C20.0459 46.3433 20.1483 46.6811 20.1483 47.0267C20.1476 47.4906 19.9629 47.9351 19.6347 48.2629C19.3065 48.5906 18.8616 48.7747 18.3978 48.7747ZM18.3978 46.0664C18.2073 46.0669 18.0213 46.1239 17.8632 46.2302C17.7052 46.3364 17.5822 46.4871 17.5098 46.6633C17.4374 46.8394 17.4188 47.0331 17.4565 47.2198C17.4941 47.4065 17.5863 47.5778 17.7214 47.7121C17.8564 47.8464 18.0282 47.9376 18.2151 47.9743C18.402 48.0109 18.5956 47.9913 18.7713 47.918C18.9471 47.8446 19.0971 47.7208 19.2025 47.5622C19.3079 47.4035 19.3638 47.2172 19.3633 47.0267C19.363 46.9003 19.3377 46.7751 19.289 46.6584C19.2403 46.5417 19.1691 46.4358 19.0794 46.3466C18.9898 46.2574 18.8834 46.1868 18.7665 46.1387C18.6495 46.0906 18.5242 46.0661 18.3978 46.0664Z" fill="#DCDEE9"/>
<path d="M18.4004 31.1699H5.55255V31.9549H18.4004V31.1699Z" fill="#DCDEE9"/>
<path d="M18.4004 33.1216H5.55255V33.9066H18.4004V33.1216Z" fill="#DCDEE9"/>
<path d="M18.4004 35.0737H5.55255V35.8587H18.4004V35.0737Z" fill="#DCDEE9"/>
<path d="M18.4004 37.0234H5.55255V37.8084H18.4004V37.0234Z" fill="#DCDEE9"/>
<path d="M18.4004 38.9751H5.55255V39.7601H18.4004V38.9751Z" fill="#DCDEE9"/>
<path d="M18.4004 40.9272H5.55255V41.7122H18.4004V40.9272Z" fill="#DCDEE9"/>
<path d="M10.5504 42.8794H5.55255V43.6644H10.5504V42.8794Z" fill="#DCDEE9"/>
<path d="M19.4602 81.4203L18.9054 80.8656L26.9229 72.8481H39.0773V73.6331H27.2474L19.4602 81.4203Z" fill="#DCDEE9"/>
<path d="M18.3978 83.9949C18.0526 83.9944 17.7154 83.8917 17.4285 83.6997C17.1416 83.5078 16.918 83.2353 16.7858 82.9165C16.6536 82.5976 16.6187 82.2468 16.6856 81.9082C16.7525 81.5696 16.9182 81.2584 17.1617 81.0138C17.4052 80.7691 17.7157 80.6021 18.054 80.5337C18.3923 80.4653 18.7433 80.4986 19.0627 80.6293C19.3821 80.7601 19.6557 80.9825 19.8489 81.2685C20.0421 81.5545 20.1463 81.8913 20.1483 82.2365C20.1497 82.4671 20.1054 82.6958 20.018 82.9092C19.9307 83.1227 19.8019 83.3167 19.6392 83.4802C19.4764 83.6436 19.283 83.7733 19.0699 83.8616C18.8569 83.9499 18.6284 83.9952 18.3978 83.9949ZM18.3978 81.2866C18.2069 81.2872 18.0205 81.3444 17.8622 81.4511C17.7039 81.5579 17.5809 81.7092 17.5088 81.886C17.4368 82.0627 17.4188 82.2569 17.4574 82.4439C17.4959 82.6309 17.5891 82.8022 17.7252 82.936C17.8613 83.0699 18.0341 83.1603 18.2217 83.1957C18.4092 83.2312 18.6031 83.2101 18.7787 83.1351C18.9542 83.0602 19.1035 82.9347 19.2076 82.7747C19.3117 82.6147 19.3659 82.4274 19.3633 82.2365C19.3633 82.1098 19.3383 81.9844 19.2898 81.8674C19.2412 81.7504 19.1701 81.6441 19.0804 81.5547C18.9907 81.4652 18.8842 81.3943 18.7671 81.3461C18.65 81.2979 18.5245 81.2732 18.3978 81.2736V81.2866Z" fill="#DCDEE9"/>
<path d="M18.4004 85.5991H5.55255V86.3841H18.4004V85.5991Z" fill="#DCDEE9"/>
<path d="M18.4004 87.5513H5.55255V88.3363H18.4004V87.5513Z" fill="#DCDEE9"/>
<path d="M18.4004 89.5029H5.55255V90.2879H18.4004V89.5029Z" fill="#DCDEE9"/>
<path d="M18.4004 91.4526H5.55255V92.2376H18.4004V91.4526Z" fill="#DCDEE9"/>
<path d="M18.4004 93.4043H5.55255V94.1893H18.4004V93.4043Z" fill="#DCDEE9"/>
<path d="M18.4004 95.3564H5.55255V96.1414H18.4004V95.3564Z" fill="#DCDEE9"/>
<path d="M10.5504 97.3086H5.55255V98.0936H10.5504V97.3086Z" fill="#DCDEE9"/>
<path d="M48.2958 138.573H26.3995V132.618H48.2958V138.573ZM26.6612 138.312H48.0341V132.879H26.6612V138.312Z" fill="#DCDEE9"/>
<path d="M48.2958 146.533H26.3995V140.588H48.2958V146.533ZM26.6612 146.272H48.0341V140.85H26.6612V146.272Z" fill="#DCDEE9"/>
<path d="M48.2958 154.514H26.3995V148.559H48.2958V154.514ZM26.6612 154.252H48.0341V148.82H26.6612V154.252Z" fill="#DCDEE9"/>
<path d="M24.3821 138.573H2.48584V132.618H24.3821V138.573ZM2.74751 138.312H24.1204V132.879H2.74751V138.312Z" fill="#DCDEE9"/>
<path d="M24.3821 154.514H2.48584V148.559H24.3821V154.514ZM2.74751 154.252H24.1204V148.82H2.74751V154.252Z" fill="#DCDEE9"/>
<path d="M29.4767 137.304C29.1382 137.304 28.8072 137.204 28.5257 137.016C28.2442 136.828 28.0249 136.56 27.8955 136.247C27.766 135.935 27.7323 135.59 27.7985 135.258C27.8648 134.926 28.028 134.621 28.2676 134.382C28.5072 134.143 28.8124 133.98 29.1445 133.914C29.4766 133.849 29.8208 133.883 30.1334 134.013C30.4461 134.143 30.7132 134.363 30.9009 134.644C31.0886 134.926 31.1886 135.257 31.188 135.596C31.1873 136.049 31.0067 136.484 30.6859 136.804C30.365 137.124 29.9302 137.304 29.4767 137.304ZM29.4767 134.146C29.19 134.146 28.9098 134.231 28.6714 134.39C28.433 134.55 28.2472 134.776 28.1375 135.041C28.0277 135.306 27.999 135.597 28.055 135.879C28.1109 136.16 28.249 136.418 28.4517 136.621C28.6544 136.824 28.9127 136.962 29.1939 137.018C29.4751 137.073 29.7666 137.045 30.0315 136.935C30.2964 136.825 30.5228 136.64 30.6821 136.401C30.8414 136.163 30.9264 135.882 30.9264 135.596C30.9264 135.405 30.8889 135.217 30.816 135.041C30.7432 134.865 30.6364 134.705 30.5018 134.571C30.3672 134.436 30.2074 134.329 30.0315 134.256C29.8556 134.184 29.6671 134.146 29.4767 134.146Z" fill="#DCDEE9"/>
<path d="M29.7044 136.328L28.9717 135.596L29.7044 134.86L29.8902 135.046L29.3407 135.596L29.8902 136.145L29.7044 136.328Z" fill="#DCDEE9"/>
<path d="M29.4767 145.277C29.1383 145.277 28.8074 145.177 28.526 144.989C28.2446 144.801 28.0252 144.533 27.8957 144.221C27.7662 143.908 27.7323 143.564 27.7983 143.232C27.8644 142.9 28.0273 142.595 28.2667 142.356C28.506 142.116 28.8109 141.953 29.1429 141.887C29.4748 141.821 29.8189 141.855 30.1316 141.985C30.4443 142.114 30.7116 142.334 30.8996 142.615C31.0877 142.896 31.188 143.227 31.188 143.566C31.1874 144.019 31.0068 144.454 30.6861 144.775C30.3653 145.096 29.9304 145.276 29.4767 145.277ZM29.4767 142.116C29.19 142.116 28.9098 142.201 28.6714 142.36C28.433 142.52 28.2472 142.746 28.1375 143.011C28.0277 143.276 27.999 143.567 28.055 143.849C28.1109 144.13 28.249 144.388 28.4517 144.591C28.6544 144.794 28.9127 144.932 29.1939 144.988C29.4751 145.044 29.7666 145.015 30.0315 144.905C30.2964 144.795 30.5228 144.61 30.6821 144.371C30.8414 144.133 30.9264 143.852 30.9264 143.566C30.9264 143.375 30.8889 143.187 30.816 143.011C30.7432 142.835 30.6364 142.675 30.5018 142.541C30.3672 142.406 30.2074 142.299 30.0315 142.227C29.8556 142.154 29.6671 142.116 29.4767 142.116Z" fill="#DCDEE9"/>
<path d="M29.7044 144.301L28.9717 143.566L29.7044 142.831L29.8902 143.016L29.3407 143.566L29.8902 144.115L29.7044 144.301Z" fill="#DCDEE9"/>
<path d="M29.4767 153.248C29.1383 153.248 28.8074 153.147 28.526 152.959C28.2446 152.771 28.0252 152.504 27.8957 152.191C27.7662 151.879 27.7323 151.535 27.7983 151.203C27.8644 150.871 28.0273 150.566 28.2667 150.326C28.506 150.087 28.8109 149.924 29.1429 149.858C29.4748 149.792 29.8189 149.826 30.1316 149.955C30.4443 150.085 30.7116 150.304 30.8996 150.586C31.0877 150.867 31.188 151.198 31.188 151.536C31.188 151.99 31.0077 152.426 30.6868 152.747C30.3659 153.068 29.9306 153.248 29.4767 153.248ZM29.4767 150.087C29.19 150.087 28.9098 150.172 28.6714 150.331C28.433 150.49 28.2472 150.717 28.1375 150.982C28.0277 151.247 27.999 151.538 28.055 151.819C28.1109 152.101 28.249 152.359 28.4517 152.562C28.6544 152.764 28.9127 152.902 29.1939 152.958C29.4751 153.014 29.7666 152.985 30.0315 152.876C30.2964 152.766 30.5228 152.58 30.6821 152.342C30.8414 152.103 30.9264 151.823 30.9264 151.536C30.9257 151.152 30.7727 150.784 30.501 150.512C30.2293 150.241 29.861 150.088 29.4767 150.087Z" fill="#DCDEE9"/>
<path d="M29.7044 152.272L28.9717 151.537L29.7044 150.801L29.8902 150.987L29.3407 151.537L29.8902 152.086L29.7044 152.272Z" fill="#DCDEE9"/>
<path d="M45.3154 145.058H42.2879V142.033H45.3154V145.058ZM42.5496 144.796H45.0537V142.294H42.5496V144.796Z" fill="#DCDEE9"/>
<path d="M40.9273 145.058H37.9024V142.033H40.9273V145.058ZM38.1641 144.796H40.6656V142.294H38.1641V144.796Z" fill="#DCDEE9"/>
<path d="M36.5418 145.058H33.5143V142.033H36.5418V145.058ZM33.7759 144.796H36.2801V142.294H33.7759V144.796Z" fill="#DCDEE9"/>
<path d="M44.9021 152.994H33.1035V149.969H44.9021V152.994ZM33.3652 152.732H44.6404V150.23H33.3652V152.732Z" fill="#DCDEE9"/>
<path d="M21.3337 138.573H19.8867V133.424H21.3363L21.3337 138.573ZM20.1457 138.312H21.072V133.685H20.1483L20.1457 138.312Z" fill="#DCDEE9"/>
<path d="M19.0546 138.574H17.6075V135.695H19.0546V138.574ZM17.8692 138.312H18.7929V135.957H17.8692V138.312Z" fill="#DCDEE9"/>
<path d="M6.98388 138.573H5.53687V133.424H6.98388V138.573ZM5.79853 138.312H6.72222V133.685H5.79853V138.312Z" fill="#DCDEE9"/>
<path d="M9.26299 138.574H7.81335V135.695H9.26299V138.574ZM8.07502 138.312H9.00132V135.957H8.07502V138.312Z" fill="#DCDEE9"/>
<path d="M22.2914 154.514H20.8444V149.365H22.2914V154.514ZM21.106 154.253H22.0297V149.626H21.106V154.253Z" fill="#DCDEE9"/>
<path d="M20.0149 154.514H18.5783V150.503H20.028L20.0149 154.514ZM18.8269 154.253H19.7532V150.765H18.84L18.8269 154.253Z" fill="#DCDEE9"/>
<path d="M17.6887 154.514H16.239V151.636H17.6887V154.514ZM16.5007 154.252H17.427V151.897H16.5007V154.252Z" fill="#DCDEE9"/>
<path d="M15.3625 154.514H13.9154V152.782H15.3625V154.514ZM14.1771 154.252H15.1008V153.043H14.1771V154.252Z" fill="#DCDEE9"/>
<path d="M6.01832 154.514H4.57654V149.365H6.01832V154.514ZM4.83035 154.253H5.75665V149.626H4.8382L4.83035 154.253Z" fill="#DCDEE9"/>
<path d="M8.3027 154.514H6.85568V150.503H8.3027V154.514ZM7.11735 154.253H8.04103V150.765H7.11735V154.253Z" fill="#DCDEE9"/>
<path d="M10.6289 154.514H9.17926V151.636H10.6289V154.514ZM9.44093 154.252H10.3672V151.897H9.44093V154.252Z" fill="#DCDEE9"/>
<path d="M12.9551 154.514H11.5133V152.782H12.963L12.9551 154.514ZM11.7672 154.252H12.6935V153.043H11.775L11.7672 154.252Z" fill="#DCDEE9"/>
<path d="M13.434 137.739L13.3869 137.72L3.17664 133.712L3.27084 133.468L13.434 137.459L23.5971 133.468L23.6939 133.712L13.434 137.739Z" fill="#DCDEE9"/>
<path d="M33.2656 149.983L33.2046 150.237L44.7417 153.003L44.8027 152.748L33.2656 149.983Z" fill="#DCDEE9"/>
<path d="M44.749 149.973L33.2099 152.73L33.2707 152.985L44.8098 150.227L44.749 149.973Z" fill="#DCDEE9"/>
<path d="M45.1846 136.25H33.6451C33.4716 136.25 33.3052 136.181 33.1825 136.058C33.0599 135.935 32.9909 135.769 32.9909 135.596C32.9909 135.422 33.0599 135.256 33.1825 135.133C33.3052 135.01 33.4716 134.941 33.6451 134.941H45.1846C45.3581 134.941 45.5245 135.01 45.6472 135.133C45.7698 135.256 45.8388 135.422 45.8388 135.596C45.8388 135.769 45.7698 135.935 45.6472 136.058C45.5245 136.181 45.3581 136.25 45.1846 136.25Z" fill="#DCDEE9"/>
<path d="M24.3821 146.51H2.48584V140.557H24.3821V146.51ZM2.74751 146.248H24.1204V140.818H2.74751V146.248Z" fill="#DCDEE9"/>
<path d="M5.56305 145.243C5.22458 145.243 4.89372 145.143 4.6123 144.955C4.33088 144.767 4.11154 144.5 3.98201 144.187C3.85249 143.874 3.8186 143.53 3.88463 143.198C3.95066 142.866 4.11364 142.561 4.35297 142.322C4.5923 142.083 4.89723 141.92 5.22919 141.854C5.56115 141.788 5.90523 141.822 6.21793 141.951C6.53063 142.081 6.7979 142.3 6.98594 142.581C7.17398 142.863 7.27435 143.194 7.27435 143.532C7.27365 143.986 7.09314 144.421 6.77235 144.741C6.45157 145.062 6.0167 145.243 5.56305 145.243ZM5.56305 142.085C5.27622 142.085 4.99585 142.17 4.7574 142.33C4.51895 142.489 4.33315 142.716 4.22351 142.981C4.11387 143.246 4.08531 143.537 4.14146 143.818C4.19761 144.1 4.33593 144.358 4.53893 144.561C4.74193 144.763 5.00047 144.901 5.28184 144.957C5.56322 145.012 5.85477 144.983 6.11961 144.873C6.38445 144.763 6.61067 144.577 6.76965 144.338C6.92862 144.099 7.0132 143.819 7.01268 143.532C7.01199 143.148 6.85895 142.78 6.58717 142.509C6.31538 142.237 5.94706 142.085 5.56305 142.085Z" fill="#DCDEE9"/>
<path d="M5.7933 144.267L5.05801 143.532L5.7933 142.799L5.97646 142.982L5.42696 143.532L5.97646 144.081L5.7933 144.267Z" fill="#DCDEE9"/>
<path d="M21.2711 144.178H9.73424C9.56075 144.178 9.39436 144.11 9.27168 143.987C9.149 143.864 9.08008 143.698 9.08008 143.524C9.08008 143.351 9.149 143.184 9.27168 143.062C9.39436 142.939 9.56075 142.87 9.73424 142.87H21.2711C21.4446 142.87 21.611 142.939 21.7337 143.062C21.8564 143.184 21.9253 143.351 21.9253 143.524C21.9253 143.698 21.8564 143.864 21.7337 143.987C21.611 144.11 21.4446 144.178 21.2711 144.178Z" fill="#DCDEE9"/>
<defs>
<linearGradient id="paint0_linear_5530_59607" x1="47.7149" y1="58.7806" x2="57.3809" y2="51.781" gradientUnits="userSpaceOnUse">
<stop stop-color="#5A2305"/>
<stop offset="1" stop-color="#A64009"/>
</linearGradient>
<linearGradient id="paint1_linear_5530_59607" x1="68.9413" y1="44.4413" x2="92.7818" y2="27.1791" gradientUnits="userSpaceOnUse">
<stop stop-color="#5A2305"/>
<stop offset="1" stop-color="#A64009"/>
</linearGradient>
</defs>
</svg>
