<svg width="311" height="218" viewBox="0 0 311 218" fill="none" xmlns="http://www.w3.org/2000/svg">
<g clip-path="url(#clip0_128_38554)">
<path fill-rule="evenodd" clip-rule="evenodd" d="M154.316 24.0756C192.036 23.5313 233.494 25.4391 257.264 46.176C281.195 67.0528 274.579 96.1486 267.153 122.513C259.352 150.209 250.636 180.837 215.547 194.278C179.097 208.241 133.998 201.644 97.7659 187.4C64.1339 174.177 43.4265 150.126 35.4785 123.483C27.711 97.4451 32.2149 69.3887 56.5011 49.0734C80.0592 29.3671 117.853 24.6019 154.316 24.0756Z" fill="#FFC709"/>
<rect x="73" y="15" width="105" height="203" rx="12" fill="#1B1D29"/>
<rect x="78" y="19.999" width="95" height="192" rx="11" fill="white"/>
<rect x="110" y="16.0427" width="32.5162" height="8.33911" rx="4.16955" fill="#1B1D29"/>
<path fill-rule="evenodd" clip-rule="evenodd" d="M158.011 162.257C158.287 162.257 158.511 162.481 158.511 162.757C158.511 162.78 158.518 162.861 158.712 162.988C158.905 163.115 159.198 163.227 159.553 163.317C160.256 163.496 161.052 163.553 161.365 163.556C161.539 163.557 161.71 163.56 161.88 163.562C162.93 163.578 163.911 163.592 164.866 163.361C164.953 163.34 165.027 163.317 165.115 163.29C165.175 163.271 165.241 163.25 165.323 163.227C165.496 163.177 165.713 163.123 165.945 163.123C166.221 163.123 166.445 163.347 166.445 163.623C166.445 163.899 166.221 164.123 165.945 164.123C165.858 164.123 165.75 164.144 165.6 164.187C165.562 164.198 165.514 164.213 165.462 164.229C165.349 164.264 165.214 164.306 165.101 164.333C164.012 164.596 162.891 164.579 161.848 164.562C161.682 164.56 161.518 164.557 161.357 164.556C160.986 164.553 160.107 164.49 159.306 164.286C158.909 164.185 158.492 164.04 158.164 163.825C157.838 163.611 157.511 163.264 157.511 162.757C157.511 162.481 157.735 162.257 158.011 162.257Z" fill="black"/>
<path d="M158.444 44.4236L104.072 43.2111C100.053 43.1215 96.7224 46.3013 96.6329 50.3134L95.384 106.315C95.2946 110.327 98.48 113.653 102.499 113.742L156.871 114.955C160.89 115.044 164.22 111.864 164.309 107.852L165.558 51.8504C165.648 47.8383 162.462 44.5132 158.444 44.4236Z" fill="#1B1D29"/>
<path d="M155.664 43H101.279C97.2587 43 94 46.2533 94 50.2664V106.282C94 110.295 97.2587 113.549 101.279 113.549H155.664C159.684 113.549 162.943 110.295 162.943 106.282V50.2664C162.943 46.2533 159.684 43 155.664 43Z" fill="#FFD143"/>
<g clip-path="url(#clip1_128_38554)">
<path fill-rule="evenodd" clip-rule="evenodd" d="M134.112 75.306L134.378 80.7773C131.045 82.3389 128.183 82.3639 124.312 80.9832L124.125 73.4342L128.874 73.0254L134.112 75.306Z" fill="white"/>
<path fill-rule="evenodd" clip-rule="evenodd" d="M134.415 75.2914C134.412 75.2343 134.393 75.1791 134.361 75.132C134.329 75.085 134.284 75.048 134.232 75.0252L128.989 72.7461C128.944 72.7237 128.893 72.715 128.843 72.7211L124.095 73.1284C124.018 73.1365 123.946 73.1731 123.895 73.2313C123.843 73.2895 123.815 73.365 123.815 73.4431L124.006 80.9921C124.008 81.0545 124.028 81.1148 124.064 81.1652C124.101 81.2156 124.151 81.2537 124.21 81.2744C128.17 82.6801 131.098 82.6581 134.503 81.0524C134.559 81.0278 134.606 80.9862 134.637 80.9334C134.668 80.8807 134.682 80.8195 134.677 80.7583L134.415 75.2914ZM133.817 75.5119L134.056 80.5833C130.938 82.0067 128.214 82.017 124.603 80.7657L124.443 73.7166L128.824 73.3343L133.817 75.5119Z" fill="#1B1D29"/>
<path fill-rule="evenodd" clip-rule="evenodd" d="M123.202 80.891C123.202 80.891 123.303 78.9648 124.222 78.8442C125.141 78.7236 130.887 78.9574 134.474 78.8442C135.087 78.8236 135.624 80.2308 135.562 80.891C135.562 80.891 143.346 83.0186 145.816 84.8611C150.071 88.0327 149.546 110.749 149.546 110.749C136.53 120.28 122.866 119.167 110 111.675C110 111.675 110.055 89.5884 111.039 86.6785C111.844 84.2861 120.653 81.3556 123.202 80.891Z" fill="#FFEAAF"/>
<path fill-rule="evenodd" clip-rule="evenodd" d="M117.872 74.0141C117.872 74.0141 111.867 72.9245 107.602 79.1531L109.944 81.6719L111.462 81.0838L110.774 82.3601L115.011 87.0786C115.011 87.0786 121.608 85.0803 120.829 77.1005L117.872 74.0141Z" fill="#1B1D29"/>
<path fill-rule="evenodd" clip-rule="evenodd" d="M118.085 73.8003C118.039 73.7539 117.982 73.7217 117.919 73.7076C117.919 73.7076 111.733 72.5725 107.355 78.9775C107.315 79.0349 107.296 79.1045 107.3 79.1746C107.305 79.2447 107.333 79.3111 107.38 79.3628L109.721 81.8816C109.762 81.9258 109.816 81.9567 109.875 81.9703C109.934 81.9839 109.995 81.9796 110.052 81.958L110.803 81.6639L110.512 82.2139C110.481 82.2683 110.469 82.3312 110.476 82.3934C110.484 82.4555 110.51 82.5137 110.553 82.5594L114.791 87.2838C114.829 87.3274 114.878 87.3589 114.934 87.3744C114.989 87.3898 115.047 87.3885 115.102 87.3705C115.102 87.3705 121.937 85.312 121.135 77.0616C121.128 76.9932 121.099 76.9292 121.05 76.8807L118.085 73.8003ZM117.722 74.3031L120.536 77.2292C121.151 84.0901 116.123 86.3457 115.103 86.7221L111.141 82.3109L111.724 81.2287C111.752 81.1735 111.763 81.1112 111.756 81.0497C111.748 80.9881 111.723 80.9301 111.683 80.8832C111.644 80.835 111.59 80.8008 111.53 80.7855C111.47 80.7702 111.407 80.7745 111.349 80.7979L110.022 81.311L107.983 79.126C111.801 73.7356 116.966 74.1973 117.715 74.3031H117.722Z" fill="#1B1D29"/>
<path fill-rule="evenodd" clip-rule="evenodd" d="M140.028 74.0977C140.028 74.0977 146.243 72.814 150.83 79.1823L143.323 87.6047C143.323 87.6047 136.416 85.6932 137.032 77.3796L140.028 74.0977Z" fill="#1B1D29"/>
<path fill-rule="evenodd" clip-rule="evenodd" d="M139.973 73.7984C139.91 73.808 139.853 73.8379 139.808 73.8836L136.802 77.17C136.755 77.2205 136.729 77.2864 136.728 77.3553C136.095 85.9321 143.24 87.9053 143.24 87.9053C143.295 87.9211 143.353 87.9209 143.408 87.9047C143.463 87.8886 143.512 87.8572 143.55 87.8142L151.049 79.3873C151.096 79.3358 151.125 79.2693 151.13 79.1989C151.135 79.1286 151.116 79.0586 151.076 79.0006C146.367 72.4603 139.973 73.7984 139.973 73.7984ZM140.186 74.3865C140.95 74.263 146.324 73.6322 150.441 79.1638L143.233 87.2569C142.185 86.8967 136.851 84.6866 137.328 77.5008L140.191 74.3836L140.186 74.3865Z" fill="#1B1D29"/>
<path fill-rule="evenodd" clip-rule="evenodd" d="M137.446 68.2251C138.316 69.8431 138.981 71.5653 139.425 73.3509L136.433 76.6475C135.07 76.7987 133.703 76.3985 132.632 75.5344L137.446 68.2251Z" fill="#1B1D29"/>
<path fill-rule="evenodd" clip-rule="evenodd" d="M137.711 68.0807C137.687 68.0338 137.652 67.9939 137.608 67.965C137.564 67.9361 137.514 67.9192 137.462 67.916C137.409 67.9153 137.356 67.9284 137.31 67.9542C137.263 67.98 137.224 68.0175 137.197 68.0631L132.38 75.3636C132.339 75.4286 132.323 75.5064 132.335 75.5824C132.347 75.6583 132.385 75.7274 132.444 75.7768C133.008 76.232 133.655 76.5702 134.349 76.772C135.043 76.9739 135.77 77.0354 136.487 76.9531C136.557 76.9458 136.621 76.9134 136.669 76.8619L139.652 73.5683C139.683 73.5295 139.705 73.4847 139.717 73.4368C139.729 73.3889 139.731 73.339 139.722 73.2903C139.272 71.4751 138.596 69.7246 137.711 68.0807ZM137.419 68.8306C138.139 70.2435 138.702 71.7322 139.097 73.2698L136.295 76.3576C135.142 76.4568 133.991 76.1377 133.05 75.4577L137.419 68.8306Z" fill="#1B1D29"/>
<path fill-rule="evenodd" clip-rule="evenodd" d="M120.947 63.0518C119.904 63.585 118.942 64.2653 118.09 65.0722C116.616 66.447 117.684 70.6905 118.381 71.4375C119.079 72.1845 120.936 73.1005 122.144 72.9535C122.144 72.9535 123.477 74.4239 125.835 75.8943C128.193 77.3647 132.473 77.8234 135.846 74.9665C137.262 73.7637 137.83 71.7683 138.031 70.2788C138.232 68.7893 138.941 62.6798 138.941 62.6798L134.388 55.791L124.112 57.307L121.877 63.1401L120.947 63.0518Z" fill="white"/>
<path fill-rule="evenodd" clip-rule="evenodd" d="M120.976 62.7468C120.922 62.7419 120.868 62.751 120.819 62.7732C119.749 63.3202 118.762 64.0183 117.888 64.8465C117.243 65.4479 117.014 66.5404 117.055 67.702C117.101 68.7795 117.32 69.8424 117.704 70.8487C117.812 71.1381 117.967 71.4075 118.162 71.6456C118.874 72.4102 120.734 73.338 122.023 73.2719C123.123 74.3707 124.345 75.3378 125.665 76.1538C128.105 77.6801 132.543 78.1565 136.028 75.201C137.511 73.9453 138.116 71.8706 138.32 70.3164C138.51 68.8283 139.23 62.7144 139.23 62.7144C139.24 62.6422 139.223 62.5688 139.182 62.5086L134.639 55.6212C134.607 55.5737 134.564 55.536 134.512 55.5123C134.461 55.4887 134.404 55.4801 134.347 55.4874L124.07 57.0122C124.017 57.02 123.967 57.0418 123.925 57.0754C123.884 57.109 123.852 57.1532 123.832 57.2034L121.675 62.8144L120.976 62.7468ZM120.998 63.3658L121.846 63.4482C121.911 63.4546 121.977 63.4391 122.034 63.404C122.09 63.369 122.133 63.3163 122.157 63.2541L124.332 57.5857L134.237 56.1241L138.607 62.7556C138.507 63.5922 137.878 68.871 137.706 70.2399C137.523 71.6633 136.993 73.5807 135.632 74.732C132.381 77.4875 128.253 77.0552 125.978 75.6348C123.662 74.1865 122.347 72.7499 122.347 72.7499C122.315 72.7135 122.275 72.6854 122.231 72.6683C122.186 72.6511 122.138 72.6453 122.09 72.6514C120.96 72.7896 119.237 71.9162 118.587 71.2265C118.378 70.9436 118.222 70.6234 118.13 70.2826C117.848 69.4429 117.685 68.5672 117.646 67.6814C117.611 66.7198 117.753 65.7949 118.283 65.2979C119.095 64.5355 120.004 63.8858 120.986 63.3658H120.998Z" fill="#1B1D29"/>
<path fill-rule="evenodd" clip-rule="evenodd" d="M119.184 66.8217C120.175 67.1183 121.102 67.5985 121.918 68.2377C121.95 68.2622 121.986 68.2801 122.025 68.2905C122.063 68.3009 122.103 68.3035 122.143 68.2981C122.182 68.2928 122.221 68.2797 122.255 68.2595C122.289 68.2392 122.32 68.2124 122.344 68.1804C122.391 68.115 122.411 68.0336 122.4 67.9535C122.389 67.8734 122.347 67.8008 122.284 67.751C121.402 67.0607 120.4 66.544 119.329 66.2277C119.289 66.2116 119.245 66.2043 119.202 66.2064C119.159 66.2085 119.117 66.2199 119.079 66.2397C119.04 66.2596 119.006 66.2876 118.98 66.3217C118.953 66.3559 118.933 66.3954 118.923 66.4377C118.912 66.48 118.911 66.5241 118.919 66.567C118.927 66.6099 118.943 66.6506 118.968 66.6864C118.993 66.7222 119.025 66.7523 119.062 66.7746C119.099 66.7969 119.14 66.811 119.183 66.8158L119.184 66.8217Z" fill="#1B1D29"/>
<path fill-rule="evenodd" clip-rule="evenodd" d="M120.175 68.5147C120.509 68.1755 120.875 67.8697 121.267 67.6016C121.336 67.5594 121.386 67.4915 121.405 67.4126C121.424 67.3337 121.411 67.2504 121.369 67.181C121.328 67.1116 121.26 67.0618 121.182 67.0425C121.104 67.0232 121.022 67.036 120.953 67.0781C120.52 67.3736 120.116 67.7098 119.747 68.0824C119.689 68.141 119.657 68.2203 119.657 68.3029C119.657 68.3856 119.689 68.4648 119.747 68.5235C119.805 68.5793 119.882 68.6096 119.963 68.608C120.043 68.6063 120.119 68.5728 120.175 68.5147Z" fill="#1B1D29"/>
<path fill-rule="evenodd" clip-rule="evenodd" d="M131.989 68.2972L132.469 70.3278C132.488 70.4072 132.538 70.4755 132.607 70.5178C132.676 70.5602 132.759 70.573 132.838 70.5535C132.916 70.534 132.984 70.4838 133.026 70.4139C133.068 70.344 133.081 70.2601 133.061 70.1808L132.582 68.1501C132.573 68.1108 132.555 68.0738 132.532 68.0412C132.508 68.0086 132.478 67.981 132.444 67.9601C132.375 67.9178 132.291 67.9049 132.213 67.9244C132.134 67.9439 132.067 67.9942 132.025 68.0641C131.983 68.134 131.97 68.2178 131.989 68.2972Z" fill="#1B1D29"/>
<path fill-rule="evenodd" clip-rule="evenodd" d="M127.235 65.1459C127.235 65.1459 128.909 63.8799 130.498 65.3444C130.528 65.372 130.563 65.3933 130.601 65.4071C130.64 65.4209 130.68 65.427 130.721 65.4249C130.761 65.4229 130.801 65.4128 130.838 65.3952C130.875 65.3776 130.908 65.3528 130.935 65.3223C130.989 65.2619 131.017 65.1824 131.013 65.1012C131.009 65.02 130.974 64.9436 130.914 64.8886C128.944 63.0829 126.871 64.6577 126.871 64.6577C126.807 64.707 126.765 64.7795 126.754 64.8598C126.742 64.94 126.762 65.0216 126.81 65.0871C126.859 65.1503 126.931 65.1918 127.011 65.2027C127.09 65.2137 127.17 65.1933 127.235 65.1459Z" fill="#1B1D29"/>
<path fill-rule="evenodd" clip-rule="evenodd" d="M131.651 72.5989C131.651 72.5989 129.667 73.2679 128.617 71.3726C128.577 71.3017 128.51 71.2497 128.432 71.228C128.354 71.2062 128.27 71.2165 128.199 71.2564C128.129 71.296 128.077 71.3621 128.056 71.4401C128.034 71.5182 128.044 71.6018 128.083 71.6725C129.394 74.0149 131.849 73.1797 131.849 73.1797C131.925 73.1536 131.988 73.0983 132.024 73.0259C132.059 72.9535 132.065 72.8698 132.04 72.793C132.013 72.7157 131.958 72.6522 131.885 72.6159C131.812 72.5796 131.728 72.5735 131.651 72.5989Z" fill="#1B1D29"/>
<path fill-rule="evenodd" clip-rule="evenodd" d="M133.67 65.1459C133.67 65.1459 135.345 63.8799 136.934 65.3444C136.995 65.3963 137.073 65.4225 137.152 65.4174C137.231 65.4124 137.305 65.3766 137.359 65.3174C137.412 65.2583 137.441 65.1806 137.438 65.1006C137.436 65.0205 137.403 64.9445 137.347 64.8886C135.376 63.0829 133.302 64.6577 133.302 64.6577C133.268 64.6812 133.238 64.7115 133.216 64.7467C133.194 64.7819 133.179 64.8213 133.173 64.8625C133.166 64.9037 133.168 64.9458 133.178 64.9863C133.188 65.0267 133.206 65.0647 133.231 65.0979C133.256 65.1311 133.288 65.1588 133.324 65.1793C133.36 65.1998 133.399 65.2127 133.44 65.2172C133.481 65.2217 133.523 65.2177 133.563 65.2054C133.602 65.1931 133.639 65.1729 133.67 65.1459Z" fill="#1B1D29"/>
<path d="M128.975 68.1819C129.337 68.0417 129.519 67.6336 129.381 67.2704C129.243 66.9073 128.837 66.7265 128.475 66.8667C128.113 67.0069 127.932 67.415 128.07 67.7782C128.208 68.1414 128.613 68.3221 128.975 68.1819Z" fill="#1B1D29"/>
<path d="M135.569 68.1819C135.931 68.0417 136.112 67.6336 135.974 67.2704C135.836 66.9073 135.431 66.7265 135.069 66.8667C134.707 67.0069 134.525 67.415 134.663 67.7782C134.801 68.1414 135.207 68.3221 135.569 68.1819Z" fill="#1B1D29"/>
<path fill-rule="evenodd" clip-rule="evenodd" d="M122.288 64.3717C122.288 64.3717 124.373 76.5892 124.619 76.1893C124.938 75.6687 124.128 63.2703 124.128 63.2703L127.464 62.6454L128.084 58.9136L128.729 62.6469C128.729 62.6469 136.141 63.041 139.866 63.6291C139.866 63.6291 141.426 52.5438 129.758 51.4984C121.331 50.747 112.936 57.402 118.034 73.1867L121.417 76.8921C122.5 76.6936 123.52 76.2402 124.396 75.5687L123.99 73.7131L123.372 72.8779C122.845 72.046 122.462 71.1296 122.239 70.168C122.239 70.168 118.538 70.6223 117.904 67.9256C116.899 63.6747 122.288 64.3717 122.288 64.3717Z" fill="#1B1D29"/>
<path fill-rule="evenodd" clip-rule="evenodd" d="M124.218 76.0754C124.244 76.2025 124.303 76.3204 124.389 76.4165C124.421 76.4507 124.46 76.4766 124.504 76.4922C124.548 76.5078 124.595 76.5126 124.641 76.5062C124.69 76.5011 124.738 76.4843 124.779 76.4572C124.821 76.4302 124.856 76.3935 124.881 76.3503C124.933 76.2423 124.961 76.1246 124.966 76.0048C125.002 75.5534 125.013 75.1003 124.998 74.6476C124.955 71.5774 124.542 64.943 124.446 63.5255L127.522 62.9491C127.584 62.9395 127.642 62.9099 127.686 62.8645C127.73 62.8192 127.758 62.7607 127.767 62.6977L128.092 60.7259L128.429 62.7006C128.443 62.7684 128.478 62.83 128.528 62.8762C128.579 62.9223 128.644 62.9505 128.712 62.9565C128.712 62.9565 136.103 63.3462 139.816 63.9299C139.896 63.9404 139.977 63.9205 140.043 63.874C140.107 63.8248 140.15 63.7519 140.162 63.6711C140.162 63.6711 140.952 58.0836 137.303 54.3606C135.74 52.7769 133.37 51.5153 129.778 51.1977C125.465 50.8037 121.158 52.327 118.576 55.9662C116.018 59.5643 115.157 65.2591 117.741 73.2772C117.755 73.3216 117.778 73.3627 117.808 73.3978L121.187 77.0944C121.223 77.1333 121.267 77.1627 121.317 77.1798C121.367 77.197 121.42 77.2015 121.471 77.1929C122.452 77.0106 123.386 76.6305 124.218 76.0754ZM124.379 74.105C124.299 70.4452 123.831 63.2947 123.831 63.2947C123.823 63.2204 123.843 63.1458 123.887 63.086C123.932 63.0262 123.997 62.9857 124.07 62.9727L127.203 62.3845L127.786 58.8644C127.796 58.794 127.831 58.7297 127.885 58.6835C127.938 58.6373 128.006 58.6122 128.077 58.6129C128.149 58.6095 128.219 58.633 128.275 58.6789C128.331 58.7248 128.367 58.7898 128.378 58.8614L128.986 62.3595C130.253 62.4316 136.19 62.7786 139.593 63.2756C139.683 62.0993 139.813 57.7983 136.865 54.8002C135.382 53.2901 133.134 52.1064 129.727 51.8021C125.624 51.4418 121.518 52.8666 119.069 56.3191C116.602 59.7981 115.821 65.2885 118.299 73.0317L121.516 76.5503C122.43 76.3694 123.294 75.9923 124.05 75.4446C123.946 75.0358 123.831 74.4859 123.704 73.8565V73.8477L123.122 73.064V73.0552C122.624 72.2635 122.247 71.4004 122.004 70.4952C121.19 70.5444 120.374 70.4361 119.6 70.1761C118.717 69.8394 117.895 69.1983 117.616 68.0029C117.352 66.8751 117.508 66.0634 117.876 65.4826C118.424 64.6136 119.467 64.2299 120.42 64.1019C121.055 64.0097 121.7 63.9978 122.338 64.0666C122.402 64.0759 122.462 64.1053 122.509 64.1507C122.556 64.196 122.588 64.2551 122.6 64.3196C122.6 64.3196 123.597 70.2011 124.294 73.6639L124.379 74.105ZM123.413 72.3832C122.843 69.3924 122.194 65.6194 122.023 64.6519C121.513 64.6196 121 64.6369 120.493 64.7033C119.71 64.818 118.833 65.0959 118.383 65.812C118.077 66.2855 117.978 66.9501 118.194 67.8706C118.477 69.0748 119.469 69.5659 120.379 69.7688C120.975 69.8927 121.586 69.9264 122.192 69.8688C122.269 69.8589 122.346 69.8784 122.409 69.9233C122.473 69.9682 122.517 70.0353 122.533 70.1114C122.713 70.9086 123.01 71.6742 123.413 72.3832Z" fill="#1B1D29"/>
<path fill-rule="evenodd" clip-rule="evenodd" d="M122.062 81.3438C122.565 87.1592 123.691 102.898 122.7 117.03C118.385 116.098 114.107 114.332 109.906 111.884C109.906 111.884 109.961 89.7971 110.944 86.8871C111.661 84.761 118.722 82.2069 122.062 81.3438Z" fill="white"/>
<path fill-rule="evenodd" clip-rule="evenodd" d="M137.281 81.6362C139.739 82.3817 144.006 83.7962 145.719 85.0725C149.976 88.2457 149.452 110.962 149.452 110.962C145.764 113.663 142.023 115.508 138.267 116.595C138.874 106.761 137.747 88.4236 137.281 81.6362Z" fill="white"/>
<path fill-rule="evenodd" clip-rule="evenodd" d="M113.123 84.8086C113.123 84.8086 108.754 87.3377 107.421 91.6062C104.5 96.3086 105 108.994 105 108.994L114.571 114.875C114.571 114.875 118.983 91.4607 113.123 84.8086Z" fill="white"/>
<path fill-rule="evenodd" clip-rule="evenodd" d="M121.519 77.4507C121.592 77.3795 121.651 77.2943 121.691 77.2002C121.731 77.106 121.753 77.0048 121.754 76.9022C121.758 76.8003 121.741 76.6987 121.704 76.6038C121.667 76.5089 121.611 76.4227 121.54 76.3508L118.575 73.1865C118.507 73.112 118.425 73.0521 118.333 73.0102C118.242 72.9682 118.143 72.9452 118.042 72.9424C117.839 72.94 117.643 73.0163 117.493 73.1556C117.348 73.2988 117.262 73.4922 117.253 73.6968C117.251 73.7983 117.268 73.8992 117.305 73.9938C117.341 74.0885 117.396 74.1749 117.466 74.2482L120.43 77.4066C120.497 77.4824 120.58 77.5433 120.672 77.5853C120.764 77.6274 120.863 77.6496 120.964 77.6506C121.066 77.6556 121.167 77.6399 121.262 77.6045C121.358 77.5692 121.445 77.5148 121.519 77.4448V77.4507Z" fill="white"/>
<path fill-rule="evenodd" clip-rule="evenodd" d="M121.725 77.6642C121.828 77.5682 121.911 77.4522 121.969 77.3231C122.027 77.194 122.058 77.0545 122.061 76.9129C122.064 76.7697 122.039 76.6272 121.988 76.4938C121.936 76.3603 121.859 76.2384 121.761 76.135L118.797 72.9751C118.601 72.7689 118.333 72.6485 118.05 72.6399C117.91 72.6346 117.77 72.658 117.639 72.7085C117.508 72.759 117.389 72.8357 117.288 72.934C117.186 73.0302 117.103 73.1461 117.046 73.2748C116.988 73.4036 116.957 73.5427 116.953 73.6839C116.946 73.9699 117.05 74.2473 117.244 74.4558L120.21 77.6142C120.307 77.719 120.424 77.8033 120.553 77.8623C120.683 77.9214 120.822 77.954 120.964 77.9583C121.104 77.9625 121.243 77.9387 121.374 77.8882C121.504 77.8377 121.624 77.7616 121.725 77.6642ZM121.307 77.2231C121.262 77.2663 121.21 77.2999 121.152 77.3219C121.095 77.3439 121.033 77.3538 120.972 77.351C120.85 77.3467 120.735 77.2938 120.651 77.204L117.686 74.0441C117.604 73.9566 117.559 73.8407 117.56 73.7206C117.561 73.6584 117.574 73.5969 117.599 73.54C117.624 73.4831 117.661 73.432 117.706 73.3898C117.75 73.3453 117.802 73.3108 117.86 73.2885C117.919 73.2662 117.981 73.2566 118.043 73.2604C118.162 73.2643 118.276 73.3137 118.362 73.3986L121.326 76.557C121.368 76.6022 121.401 76.6553 121.422 76.7134C121.444 76.7714 121.454 76.8332 121.452 76.8952C121.452 76.9566 121.439 77.0173 121.414 77.0732C121.388 77.1292 121.352 77.1792 121.307 77.2202V77.2231Z" fill="#1B1D29"/>
<path fill-rule="evenodd" clip-rule="evenodd" d="M136.124 77.4935C136.05 77.4231 135.991 77.3387 135.95 77.2451C135.908 77.1515 135.885 77.0505 135.883 76.948C135.877 76.8463 135.892 76.7445 135.927 76.6491C135.963 76.5536 136.017 76.4667 136.088 76.3937L139.008 73.1941C139.076 73.1188 139.157 73.0578 139.248 73.0147C139.339 72.9715 139.438 72.947 139.539 72.9427C139.742 72.9372 139.939 73.0104 140.091 73.147C140.237 73.2886 140.326 73.4808 140.338 73.6852C140.343 73.7867 140.327 73.888 140.292 73.9832C140.257 74.0784 140.203 74.1655 140.134 74.2396L137.214 77.4391C137.147 77.5163 137.066 77.5786 136.974 77.6221C136.883 77.6657 136.783 77.6895 136.682 77.692C136.581 77.6977 136.479 77.6831 136.384 77.649C136.288 77.6149 136.2 77.5621 136.124 77.4935Z" fill="white"/>
<path fill-rule="evenodd" clip-rule="evenodd" d="M135.922 77.7163C136.024 77.8129 136.145 77.888 136.276 77.9372C136.407 77.9864 136.547 78.0088 136.687 78.003C136.973 77.99 137.243 77.8625 137.437 77.6487L140.357 74.4476C140.452 74.3437 140.526 74.2219 140.574 74.0891C140.622 73.9563 140.644 73.8152 140.638 73.674C140.632 73.5327 140.599 73.394 140.54 73.2658C140.48 73.1377 140.397 73.0226 140.293 72.9272C140.192 72.8286 140.072 72.7518 139.94 72.7013C139.808 72.6507 139.668 72.6276 139.527 72.6331C139.244 72.6459 138.978 72.7706 138.786 72.9802L135.865 76.1871C135.768 76.2917 135.692 76.4147 135.642 76.5489C135.592 76.6831 135.569 76.826 135.574 76.9693C135.579 77.1111 135.613 77.2503 135.673 77.3786C135.732 77.5069 135.817 77.6218 135.922 77.7163ZM136.334 77.2649C136.288 77.2234 136.252 77.1727 136.226 77.1159C136.201 77.0592 136.188 76.9977 136.189 76.9355C136.185 76.8107 136.229 76.6891 136.311 76.5959L139.231 73.3963C139.315 73.3077 139.429 73.2551 139.55 73.2492C139.612 73.2447 139.674 73.2533 139.732 73.2746C139.79 73.2959 139.843 73.3293 139.887 73.3727C139.932 73.4135 139.969 73.4629 139.995 73.5182C140.021 73.5734 140.035 73.6334 140.038 73.6945C140.041 73.7556 140.031 73.8166 140.01 73.874C139.99 73.9313 139.957 73.9839 139.916 74.0285L136.995 77.2281C136.914 77.3209 136.799 77.3774 136.676 77.3855C136.615 77.3889 136.553 77.3796 136.495 77.3581C136.438 77.3366 136.385 77.3034 136.34 77.2605L136.334 77.2649Z" fill="#1B1D29"/>
<path fill-rule="evenodd" clip-rule="evenodd" d="M121.966 81.8098C122.242 81.791 122.48 81.9991 122.499 82.2746C122.749 85.9434 123.099 91.572 123.337 96.5347C123.456 99.0156 123.547 101.334 123.583 103.158C123.601 104.07 123.605 104.863 123.592 105.493C123.58 106.109 123.55 106.607 123.49 106.907C123.436 107.177 123.173 107.353 122.902 107.299C122.631 107.245 122.456 106.981 122.51 106.711C122.55 106.51 122.58 106.096 122.593 105.472C122.605 104.861 122.601 104.084 122.583 103.178C122.547 101.367 122.457 99.0599 122.338 96.5825C122.101 91.6286 121.751 86.0072 121.501 82.3426C121.482 82.0671 121.691 81.8286 121.966 81.8098Z" fill="black"/>
<path fill-rule="evenodd" clip-rule="evenodd" d="M136.963 81.31C137.238 81.2894 137.478 81.4959 137.499 81.7712C137.998 88.427 139 102.785 139 106.809C139 107.085 138.776 107.309 138.5 107.309C138.224 107.309 138 107.085 138 106.809C138 102.832 137.002 88.5236 136.501 81.846C136.481 81.5706 136.687 81.3307 136.963 81.31Z" fill="black"/>
<path fill-rule="evenodd" clip-rule="evenodd" d="M115.929 95.8136C116.203 95.7746 116.456 95.9645 116.495 96.2379C116.834 98.6097 117 103.808 117 106.809C117 107.085 116.776 107.309 116.5 107.309C116.224 107.309 116 107.085 116 106.809C116 103.809 115.833 98.6742 115.505 96.3793C115.466 96.1059 115.656 95.8527 115.929 95.8136Z" fill="black"/>
</g>
<path fill-rule="evenodd" clip-rule="evenodd" d="M127.263 79.5296C126.52 79.5869 125.895 79.6351 125.551 79.6351C124.848 79.6351 124.489 79.7544 124.246 79.9567C123.986 80.1733 123.772 80.5547 123.526 81.2933L123.471 81.456L123.329 81.5512C122.904 81.8342 122.233 82.1322 121.461 82.4363C120.678 82.7447 119.748 83.0758 118.781 83.4189L118.698 83.4483C116.773 84.1314 114.72 84.8597 113.275 85.5824L113.265 85.5874L113.254 85.592C109.849 87.1056 107.817 90.4812 106.68 94.314C105.546 98.1374 105.335 102.32 105.499 105.281C105.515 105.557 105.304 105.793 105.028 105.808C104.752 105.823 104.516 105.612 104.501 105.336C104.332 102.297 104.546 97.9931 105.721 94.0297C106.893 90.0795 109.05 86.3715 112.838 84.6829C114.338 83.934 116.433 83.1907 118.324 82.5201L118.447 82.4764C119.417 82.132 120.331 81.8068 121.095 81.5059C121.77 81.2399 122.296 81.0049 122.636 80.8053C122.875 80.1225 123.153 79.5658 123.606 79.1885C124.113 78.7659 124.755 78.6351 125.551 78.6351C125.853 78.6351 126.43 78.5907 127.185 78.5326C127.305 78.5233 127.431 78.5137 127.56 78.5038C128.483 78.4334 129.586 78.3545 130.662 78.3229C131.731 78.2914 132.798 78.3058 133.64 78.4295C134.058 78.4911 134.451 78.5837 134.768 78.7277C135.076 78.8676 135.399 79.0961 135.526 79.477C135.944 80.731 137.19 81.2276 137.608 81.3205C139.855 81.8197 142.441 82.4598 144.59 83.8926C146.768 85.3445 148.474 87.5936 148.995 91.2379C149.794 96.8319 150.5 102.934 150.5 105.809C150.5 106.085 150.276 106.309 150 106.309C149.724 106.309 149.5 106.085 149.5 105.809C149.5 103.017 148.806 96.9854 148.005 91.3793C147.526 88.0236 145.982 86.0227 144.035 84.7246C142.059 83.4074 139.645 82.7975 137.392 82.2967C136.834 82.1727 135.159 81.5392 134.577 79.7933L134.576 79.7913C134.575 79.7901 134.574 79.7879 134.572 79.7847C134.568 79.7783 134.559 79.7674 134.543 79.7527C134.509 79.722 134.45 79.6817 134.354 79.6382C134.16 79.5498 133.872 79.4745 133.494 79.4189C132.742 79.3083 131.746 79.2914 130.691 79.3224C129.641 79.3533 128.557 79.4306 127.636 79.5009C127.509 79.5106 127.385 79.5202 127.263 79.5296Z" fill="#1B1D29"/>
<path d="M157.151 62.097H155.162V57.1431C155.16 55.765 154.615 54.4439 153.645 53.4695C152.676 52.4951 151.362 51.947 149.991 51.9454H145V49.9541H149.998C151.895 49.9557 153.713 50.7136 155.054 52.0614C156.395 53.4093 157.149 55.2369 157.151 57.1431V62.097Z" fill="white"/>
<path d="M101.963 63.1657H100V57.1373C100.002 55.1939 100.749 53.3308 102.077 51.9568C103.405 50.5827 105.205 49.8102 107.083 49.8086H112.151V51.8386H107.083C105.725 51.8397 104.424 52.3983 103.464 53.3917C102.504 54.3852 101.964 55.7323 101.963 57.1373V63.1657Z" fill="white"/>
<path d="M112.569 106.772H107.215C105.302 106.77 103.468 105.947 102.116 104.482C100.763 103.018 100.002 101.032 100 98.9613V92.9541H102V98.9613C102.002 100.458 102.552 101.894 103.529 102.952C104.507 104.011 105.833 104.607 107.215 104.608H112.569V106.772Z" fill="white"/>
<path d="M149.288 106.626H144V104.495H149.288C150.684 104.491 152.021 103.903 153.007 102.86C153.993 101.818 154.548 100.406 154.55 98.9326V92.8086H156.569V98.9326C156.568 100.971 155.8 102.926 154.435 104.368C153.07 105.81 151.219 106.622 149.288 106.626Z" fill="white"/>
<path d="M128 165.501C123.959 164.014 120.684 164.261 119 165.5C119 166.243 118.823 169.611 119.401 171.395C120.122 173.625 123.009 172.881 124.092 172.881C125.174 172.881 133.473 173.253 134.917 172.138C136.071 171.246 135.5 168.716 135.5 165.001C135.019 165.62 132.042 166.987 128 165.501Z" fill="#FFD143"/>
<path fill-rule="evenodd" clip-rule="evenodd" d="M134.094 160.132C134.33 159.977 134.485 159.71 134.484 159.407L134.479 155.845C134.479 154.029 133.733 152.288 132.403 151.005C131.074 149.721 129.271 149 127.391 149C125.511 149 123.708 149.721 122.378 151.005C121.049 152.288 120.302 154.029 120.302 155.845C120.302 156.299 120.67 156.668 121.125 156.668H121.219C121.674 156.668 122.042 156.299 122.042 155.845C122.042 154.474 122.606 153.16 123.61 152.19C124.614 151.221 125.975 150.677 127.395 150.677C128.814 150.677 130.175 151.221 131.179 152.19C132.183 153.16 132.747 154.474 132.747 155.845V159.408C132.747 159.473 132.754 159.536 132.768 159.597C132.445 159.524 132.109 159.485 131.765 159.485H122.514C120.021 159.485 118 161.506 118 163.999V169.811C118 172.304 120.021 174.325 122.514 174.325H131.765C134.257 174.325 136.278 172.304 136.278 169.811V163.999C136.278 162.359 135.403 160.923 134.094 160.132ZM126.325 165.006C126.325 164.556 126.689 164.191 127.139 164.191C127.589 164.191 127.954 164.556 127.954 165.006V168.444C127.954 168.894 127.589 169.258 127.139 169.258C126.689 169.258 126.325 168.894 126.325 168.444V165.006ZM122.514 161.491H131.765C133.149 161.491 134.272 162.614 134.272 163.999V169.811C134.272 171.196 133.149 172.319 131.765 172.319H122.514C121.129 172.319 120.006 171.196 120.006 169.811V163.999C120.006 162.614 121.129 161.491 122.514 161.491Z" fill="#1B1D29"/>
<path d="M142.802 179.261H111.294C110.579 179.261 110 179.84 110 180.554C110 181.269 110.579 181.848 111.294 181.848H142.802C143.517 181.848 144.096 181.269 144.096 180.554C144.096 179.84 143.517 179.261 142.802 179.261Z" fill="#1B1D29"/>
<path d="M154.248 185.01H100.294C99.5791 185.01 99 185.589 99 186.303C99 187.018 99.5791 187.597 100.294 187.597H154.248C154.962 187.597 155.542 187.018 155.542 186.303C155.542 185.589 154.962 185.01 154.248 185.01Z" fill="#1B1D29"/>
<path d="M151.512 190.761H102.294C101.579 190.761 101 191.34 101 192.054C101 192.769 101.579 193.348 102.294 193.348H151.512C152.227 193.348 152.806 192.769 152.806 192.054C152.806 191.34 152.227 190.761 151.512 190.761Z" fill="#1B1D29"/>
<path fill-rule="evenodd" clip-rule="evenodd" d="M218.376 166.943C218.376 166.943 229.371 178.21 247.625 198.902C248.43 199.815 249.044 200.879 249.429 202.033C249.815 203.187 249.965 204.406 249.87 205.619C249.775 206.832 249.438 208.013 248.878 209.093C248.318 210.173 247.547 211.13 246.61 211.906C233.453 222.776 217.591 228.483 189.045 241.689C188.883 241.767 188.705 241.809 188.525 241.812C188.345 241.814 188.167 241.776 188.003 241.701C187.84 241.629 187.695 241.523 187.576 241.39C187.457 241.257 187.369 241.1 187.315 240.93C186.122 237.122 182.725 226.371 181.711 223.157C181.627 222.89 181.635 222.603 181.732 222.342C181.83 222.08 182.012 221.858 182.25 221.712L213.966 201.981L189.406 180.433L218.376 166.943Z" fill="white"/>
<path fill-rule="evenodd" clip-rule="evenodd" d="M163.659 188.749L198.53 176.949C198.53 176.949 193.205 232.903 192.536 239.994C192.489 240.482 192.419 240.981 192.34 241.457C191.393 246.609 185.73 277.619 184.558 284.059C184.529 284.21 184.47 284.353 184.385 284.481C184.3 284.608 184.19 284.718 184.062 284.802C183.934 284.887 183.791 284.945 183.64 284.973C183.489 285.001 183.334 284.999 183.184 284.966C179.775 284.193 169.86 281.947 166.85 281.279C166.6 281.22 166.377 281.078 166.216 280.878C166.055 280.677 165.965 280.429 165.961 280.171C165.877 274.213 165.447 240.611 165.416 237.941C165.41 237.844 165.41 237.726 165.411 237.61C165.295 234.486 163.659 188.749 163.659 188.749Z" fill="white"/>
<path opacity="0.6" d="M194.096 66.6714L233.813 61.4457L236.827 68.2976C231.16 71.4249 216.002 79.01 200.703 84.3316C193.204 82.0844 193.173 71.6218 194.096 66.6714Z" fill="white"/>
<path fill-rule="evenodd" clip-rule="evenodd" d="M168.185 88.0061C168.185 88.0061 158.834 86.9019 153.606 97.2838L157.676 101.052L159.865 99.9535L159.078 102.06L166.47 109.135C166.47 109.135 176.097 105.253 173.301 92.6126L168.185 88.0061Z" fill="#1B1D29"/>
<path fill-rule="evenodd" clip-rule="evenodd" d="M168.775 87.9434C168.731 87.911 168.681 87.8887 168.627 87.8783C168.627 87.8783 159.301 87.1277 153.736 97.1672C153.707 97.2228 153.697 97.286 153.708 97.3476C153.718 97.4092 153.747 97.466 153.792 97.5095L157.674 100.902C157.714 100.938 157.765 100.961 157.818 100.968C157.872 100.976 157.927 100.967 157.975 100.943L159.509 100.173L158.943 101.49C158.923 101.543 158.92 101.601 158.934 101.655C158.948 101.71 158.978 101.759 159.02 101.796L166.066 108.176C166.103 108.211 166.15 108.235 166.2 108.244C166.25 108.253 166.302 108.247 166.349 108.227C166.349 108.227 176.149 104.205 173.768 92.2373C173.758 92.1746 173.725 92.118 173.675 92.0788L168.775 87.9434ZM168.502 88.4117L173.247 92.4331C175.303 102.989 167.49 107.092 166.286 107.667L159.523 101.522L160.289 99.7033C160.312 99.6533 160.319 99.5974 160.308 99.5435C160.297 99.4896 160.27 99.4404 160.23 99.4028C160.19 99.3652 160.139 99.341 160.085 99.3338C160.03 99.3265 159.975 99.3365 159.927 99.3622L157.896 100.368L154.32 97.2448C159.41 88.2759 167.589 88.3728 168.505 88.4125L168.502 88.4117Z" fill="#1B1D29"/>
<path fill-rule="evenodd" clip-rule="evenodd" d="M198.993 85.3676C198.993 85.3676 207.152 82.8411 214.131 90.6871L205.178 102.858C205.178 102.858 195.674 101.235 195.407 90.1201L198.993 85.3676Z" fill="#1B1D29"/>
<path fill-rule="evenodd" clip-rule="evenodd" d="M198.915 85.1081C198.862 85.1275 198.815 85.1614 198.781 85.2059L195.185 89.9549C195.153 90.0037 195.136 90.0599 195.133 90.1179C195.416 101.478 205.132 103.132 205.132 103.132C205.183 103.14 205.234 103.134 205.282 103.115C205.329 103.096 205.37 103.064 205.401 103.023L214.335 90.8532C214.373 90.8038 214.393 90.7423 214.391 90.6797C214.388 90.6172 214.364 90.5574 214.322 90.5108C207.232 82.5221 198.915 85.1081 198.915 85.1081ZM199.159 85.5939C200.016 85.3688 207.372 83.6398 213.791 90.6989L205.068 102.565C203.839 102.287 195.974 100.152 195.688 90.1973L199.159 85.5939Z" fill="#1B1D29"/>
<path fill-rule="evenodd" clip-rule="evenodd" d="M194.77 77.9175C196.148 79.9499 197.265 82.1473 198.095 84.458L194.519 89.2297C192.712 89.6096 190.829 89.2595 189.279 88.2557L194.77 77.9175Z" fill="#1B1D29"/>
<path fill-rule="evenodd" clip-rule="evenodd" d="M194.996 77.7599C194.968 77.7225 194.931 77.6929 194.888 77.6739C194.846 77.6549 194.799 77.6471 194.752 77.6513C194.707 77.6535 194.663 77.6675 194.624 77.6918C194.585 77.7161 194.554 77.75 194.532 77.7901L189.039 88.1292C189.007 88.1878 188.999 88.256 189.016 88.3204C189.032 88.3848 189.072 88.4406 189.128 88.4767C190.744 89.5236 192.708 89.8883 194.592 89.4913C194.652 89.4744 194.705 89.4378 194.742 89.3874L198.307 84.6193C198.332 84.5837 198.349 84.5425 198.355 84.4993C198.361 84.4561 198.356 84.4121 198.342 84.371C197.508 82.0357 196.384 79.8146 194.996 77.7599ZM194.806 78.4528C196.025 80.3219 197.025 82.3252 197.786 84.4231L194.364 88.9863C192.738 89.3014 191.052 89.0036 189.631 88.1502L194.795 78.458L194.806 78.4528Z" fill="#1B1D29"/>
<path fill-rule="evenodd" clip-rule="evenodd" d="M194.199 90.394C193.981 90.2261 193.839 89.9786 193.803 89.7058C193.767 89.433 193.84 89.1571 194.007 88.9384L197.501 84.3063C197.666 84.0887 197.91 83.9451 198.18 83.9067C198.45 83.8683 198.725 83.9383 198.944 84.1013C199.161 84.2669 199.304 84.5116 199.341 84.782C199.379 85.0524 199.309 85.3268 199.145 85.5456L195.656 90.1777C195.491 90.3984 195.246 90.545 194.974 90.5852C194.701 90.6254 194.424 90.556 194.203 90.3923L194.199 90.394Z" fill="white"/>
<path fill-rule="evenodd" clip-rule="evenodd" d="M194.039 90.6098C194.317 90.8173 194.665 90.9061 195.008 90.8566C195.351 90.8071 195.661 90.6235 195.868 90.346L199.361 85.7121C199.464 85.5749 199.539 85.4185 199.582 85.2521C199.625 85.0858 199.634 84.9126 199.609 84.7426C199.585 84.5726 199.527 84.4091 199.439 84.2616C199.351 84.114 199.235 83.9853 199.097 83.8828C198.96 83.7798 198.804 83.7049 198.637 83.6624C198.471 83.6199 198.298 83.6107 198.128 83.6352C197.958 83.6597 197.794 83.7175 197.647 83.8053C197.499 83.893 197.371 84.009 197.268 84.1467L193.775 88.7805C193.67 88.9172 193.593 89.0733 193.549 89.2398C193.504 89.4063 193.493 89.58 193.516 89.7508C193.539 89.9216 193.595 90.0863 193.682 90.2352C193.769 90.3841 193.884 90.5144 194.022 90.6186L194.039 90.6098ZM194.366 90.1755C194.205 90.0505 194.099 89.8673 194.071 89.6652C194.044 89.463 194.096 89.2581 194.218 89.0944L197.713 84.4597C197.838 84.3022 198.02 84.1995 198.219 84.1729C198.419 84.1463 198.621 84.198 198.783 84.3171C198.863 84.3772 198.929 84.4523 198.98 84.5382C199.03 84.624 199.063 84.719 199.077 84.8176C199.09 84.9162 199.084 85.0166 199.059 85.1129C199.034 85.2092 198.99 85.2996 198.93 85.379L195.437 90.0129C195.378 90.0942 195.303 90.1629 195.217 90.2151C195.131 90.2674 195.035 90.302 194.936 90.3172C194.836 90.3323 194.734 90.3275 194.637 90.3032C194.539 90.2789 194.447 90.2355 194.366 90.1755Z" fill="#1B1D29"/>
<path fill-rule="evenodd" clip-rule="evenodd" d="M191.879 87.5058L191.55 95.1055C186.744 97.82 182.47 98.3773 176.572 97.2431L176.807 86.8502L183.857 85.4187L191.879 87.5058Z" fill="white"/>
<path fill-rule="evenodd" clip-rule="evenodd" d="M192.143 87.5241C192.147 87.4621 192.129 87.4005 192.093 87.3499C192.057 87.2992 192.004 87.2627 191.944 87.2465L183.926 85.1663C183.887 85.1517 183.845 85.1506 183.806 85.163L176.77 86.5875C176.711 86.6013 176.659 86.6339 176.62 86.6804C176.582 86.7268 176.56 86.7846 176.557 86.8448L176.321 97.236C176.322 97.3009 176.344 97.3636 176.385 97.414C176.425 97.4645 176.482 97.4996 176.545 97.5136C182.511 98.6513 186.827 98.0878 191.706 95.3392C191.745 95.3167 191.778 95.2848 191.801 95.2464C191.824 95.208 191.838 95.1644 191.84 95.1195L192.143 87.5241ZM191.587 87.7201L191.287 94.9434C186.646 97.5269 182.507 98.0736 176.856 97.0244L177.079 87.0733L183.84 85.6996L191.587 87.7201Z" fill="#1B1D29"/>
<path fill-rule="evenodd" clip-rule="evenodd" d="M171.98 73.2337C170.654 74.0799 169.455 75.11 168.419 76.2932C166.624 78.3118 168.611 83.8043 169.637 84.7038C170.664 85.6033 173.283 86.5799 174.877 86.2162C174.877 86.2162 176.855 87.9857 180.206 89.6304C183.558 91.2752 189.353 91.3126 193.497 87.0735C195.238 85.2911 195.737 82.5668 195.804 80.5627C195.871 78.5587 196.029 70.358 196.029 70.358L189.04 61.8194L175.474 65.1905L173.243 73.2302L171.98 73.2337Z" fill="white"/>
<path fill-rule="evenodd" clip-rule="evenodd" d="M171.983 72.9629C171.934 72.964 171.886 72.9769 171.843 73.0005C170.493 73.8597 169.273 74.9076 168.221 76.1124C167.457 76.9708 167.314 78.4112 167.508 79.9052C167.701 81.3139 168.13 82.6801 168.775 83.9471C168.946 84.3056 169.176 84.6321 169.458 84.9124C170.509 85.8215 173.12 86.8025 174.795 86.5153C176.419 87.8414 178.194 88.971 180.083 89.8808C183.513 91.5621 189.449 91.6054 193.688 87.2685C195.481 85.4338 196.003 82.6389 196.068 80.5791C196.141 78.5811 196.301 70.3683 196.301 70.3683C196.3 70.301 196.276 70.2362 196.233 70.1845L189.253 61.6546C189.221 61.6144 189.178 61.5844 189.129 61.5683C189.08 61.5521 189.028 61.5504 188.978 61.5635L175.412 64.9346C175.366 64.9458 175.323 64.9692 175.289 65.0024C175.255 65.0356 175.231 65.0772 175.219 65.1231L173.041 72.9728L171.983 72.9629ZM172.056 73.5038L173.239 73.5031C173.298 73.5033 173.355 73.484 173.402 73.4484C173.449 73.4127 173.482 73.3626 173.498 73.3058L175.691 65.4178L188.939 62.1238L195.749 70.4579C195.734 71.3936 195.588 78.6882 195.524 80.5624C195.462 82.5072 194.994 85.1548 193.292 86.8935C189.261 91.0236 183.593 90.9991 180.323 89.3917C177.008 87.7678 175.051 86.0209 175.051 86.0209C175.018 85.9919 174.978 85.9713 174.934 85.9611C174.891 85.9508 174.846 85.9511 174.803 85.962C173.272 86.2943 170.795 85.3576 169.803 84.5059C169.577 84.3032 169.305 83.8531 169.033 83.2663C168.54 82.1782 168.204 81.0254 168.037 79.8426C167.858 78.5264 167.941 77.2402 168.615 76.4813C169.62 75.3417 170.775 74.3436 172.048 73.5143L172.056 73.5038Z" fill="#1B1D29"/>
<path fill-rule="evenodd" clip-rule="evenodd" d="M170.137 78.3323C171.52 78.5953 172.842 79.1147 174.035 79.8636C174.096 79.8962 174.167 79.9044 174.233 79.8864C174.3 79.8685 174.357 79.8257 174.393 79.7669C174.43 79.7082 174.442 79.6378 174.428 79.5702C174.414 79.5026 174.375 79.4429 174.318 79.4033C173.065 78.6167 171.675 78.0706 170.222 77.7929C170.151 77.7838 170.08 77.8028 170.023 77.8458C169.967 77.8888 169.929 77.9523 169.919 78.0226C169.909 78.0929 169.927 78.1645 169.969 78.2217C170.011 78.279 170.074 78.3175 170.144 78.3288L170.137 78.3323Z" fill="#1B1D29"/>
<path fill-rule="evenodd" clip-rule="evenodd" d="M171.561 80.4978C171.971 79.9946 172.429 79.5322 172.928 79.117C172.981 79.0723 173.014 79.0091 173.022 78.9404C173.029 78.8717 173.01 78.8027 172.969 78.7475C172.927 78.6923 172.866 78.6552 172.798 78.6436C172.73 78.632 172.66 78.647 172.602 78.6854C172.071 79.1287 171.582 79.6211 171.143 80.156C171.121 80.1836 171.105 80.2152 171.095 80.2491C171.085 80.283 171.082 80.3185 171.086 80.3536C171.09 80.3887 171.101 80.4226 171.118 80.4535C171.136 80.4843 171.159 80.5114 171.187 80.5332C171.213 80.5558 171.244 80.5729 171.278 80.5834C171.311 80.5939 171.346 80.5976 171.381 80.5943C171.416 80.5911 171.45 80.5808 171.481 80.5642C171.512 80.5477 171.539 80.5251 171.561 80.4978Z" fill="#1B1D29"/>
<path fill-rule="evenodd" clip-rule="evenodd" d="M188.456 78.7112L189.364 81.3416C189.374 81.3753 189.392 81.4066 189.415 81.4334C189.438 81.4603 189.466 81.4823 189.498 81.4981C189.529 81.5139 189.564 81.5232 189.599 81.5254C189.635 81.5276 189.67 81.5227 189.703 81.511C189.771 81.4867 189.826 81.4373 189.857 81.3732C189.888 81.3091 189.893 81.2354 189.871 81.1675L188.963 78.5371C188.954 78.5018 188.937 78.4688 188.914 78.4403C188.891 78.4117 188.862 78.3881 188.83 78.371C188.797 78.3539 188.762 78.3436 188.725 78.3408C188.689 78.338 188.652 78.3426 188.617 78.3545C188.582 78.3664 188.551 78.3853 188.523 78.41C188.496 78.4346 188.474 78.4646 188.459 78.498C188.444 78.5314 188.436 78.5676 188.436 78.6042C188.435 78.6409 188.442 78.6773 188.456 78.7112Z" fill="#1B1D29"/>
<path fill-rule="evenodd" clip-rule="evenodd" d="M181.353 74.4686C181.353 74.4686 183.515 72.4883 185.932 74.2873C185.96 74.3087 185.993 74.3243 186.027 74.3331C186.061 74.342 186.097 74.3439 186.132 74.3389C186.168 74.3338 186.201 74.3218 186.232 74.3036C186.262 74.2854 186.289 74.2613 186.31 74.2328C186.332 74.2045 186.348 74.172 186.357 74.1373C186.366 74.1027 186.368 74.0666 186.363 74.0312C186.357 73.9957 186.345 73.9618 186.326 73.9313C186.307 73.9009 186.282 73.8745 186.253 73.8539C183.472 71.7862 180.987 74.0702 180.987 74.0702C180.959 74.0935 180.936 74.1225 180.919 74.1551C180.902 74.1878 180.892 74.2236 180.889 74.2603C180.887 74.297 180.892 74.3338 180.904 74.3685C180.916 74.4032 180.935 74.4351 180.96 74.4622C180.985 74.4893 181.015 74.511 181.048 74.5261C181.082 74.5412 181.118 74.5493 181.155 74.5499C181.192 74.5505 181.228 74.5436 181.262 74.5296C181.296 74.5157 181.327 74.4949 181.353 74.4686Z" fill="#1B1D29"/>
<path fill-rule="evenodd" clip-rule="evenodd" d="M188.088 84.2024C188.088 84.2024 185.953 85.1601 184.621 82.9649C184.603 82.9347 184.578 82.9084 184.55 82.8875C184.521 82.8667 184.489 82.8516 184.454 82.8433C184.42 82.835 184.384 82.8335 184.349 82.839C184.314 82.8445 184.281 82.8568 184.25 82.8753C184.22 82.8937 184.194 82.918 184.173 82.9466C184.152 82.9752 184.137 83.0077 184.129 83.0421C184.12 83.0765 184.119 83.1123 184.124 83.1472C184.13 83.1822 184.142 83.2158 184.161 83.2461C185.752 85.8668 188.313 84.6952 188.313 84.6952C188.346 84.6804 188.375 84.6593 188.399 84.6333C188.423 84.6072 188.442 84.5767 188.455 84.5433C188.467 84.51 188.473 84.4745 188.472 84.439C188.47 84.4034 188.462 84.3684 188.447 84.3361C188.432 84.3037 188.411 84.2746 188.385 84.2504C188.359 84.2262 188.329 84.2073 188.295 84.1949C188.262 84.1825 188.226 84.1768 188.191 84.178C188.155 84.1793 188.12 84.1876 188.088 84.2024Z" fill="#1B1D29"/>
<path fill-rule="evenodd" clip-rule="evenodd" d="M189.921 73.6528C189.921 73.6528 192.082 71.6733 194.501 73.4714C194.529 73.4929 194.561 73.5084 194.596 73.5172C194.63 73.526 194.666 73.5278 194.701 73.5226C194.736 73.5173 194.77 73.5051 194.8 73.4867C194.831 73.4682 194.857 73.4439 194.878 73.4152C194.9 73.3871 194.916 73.3548 194.925 73.3203C194.934 73.2857 194.936 73.2498 194.93 73.2145C194.925 73.1792 194.912 73.1455 194.893 73.1153C194.874 73.0851 194.849 73.0591 194.82 73.0389C192.038 70.9695 189.556 73.2543 189.556 73.2543C189.528 73.2777 189.504 73.3066 189.487 73.3393C189.471 73.3719 189.461 73.4077 189.458 73.4444C189.455 73.4811 189.46 73.5179 189.472 73.5526C189.485 73.5873 189.504 73.6192 189.529 73.6463C189.553 73.6734 189.584 73.6951 189.617 73.7102C189.651 73.7253 189.687 73.7334 189.724 73.734C189.76 73.7346 189.797 73.7277 189.831 73.7137C189.865 73.6998 189.896 73.679 189.921 73.6528Z" fill="#1B1D29"/>
<path d="M185.47 78.3661C185.937 78.1321 186.126 77.5668 185.894 77.1033C185.661 76.6398 185.095 76.4538 184.628 76.6877C184.162 76.9217 183.972 77.4871 184.205 77.9506C184.437 78.414 185.004 78.6001 185.47 78.3661Z" fill="#1B1D29"/>
<path d="M193.629 77.0223C194.095 76.7883 194.284 76.223 194.052 75.7595C193.819 75.296 193.253 75.11 192.787 75.3439C192.32 75.5779 192.131 76.1433 192.363 76.6068C192.596 77.0702 193.162 77.2563 193.629 77.0223Z" fill="#1B1D29"/>
<path fill-rule="evenodd" clip-rule="evenodd" d="M173.955 74.806C173.955 74.806 178.344 90.748 178.621 90.1882C178.98 89.4567 176.322 73.793 176.322 73.793L180.559 72.1336L180.993 66.8025L182.852 71.5197C182.852 71.5197 192.327 71.2123 197.396 71.5008C197.396 71.5008 198.031 56.5784 182.263 56.7384C170.875 56.8584 160.261 69.4898 169.39 87.0772L174.416 91.5479L176.76 90.1977L176.916 87.6586L176.514 85.9575C175.697 84.9235 175.063 83.7579 174.638 82.5107C174.638 82.5107 169.738 83.6047 168.539 80.1108C166.639 74.599 173.955 74.806 173.955 74.806Z" fill="#1B1D29"/>
<path fill-rule="evenodd" clip-rule="evenodd" d="M173.736 75.0781C174.195 76.7198 177.318 87.9804 178.173 90.0058C178.232 90.1568 178.317 90.2965 178.424 90.4184C178.459 90.443 178.499 90.4603 178.541 90.4692C178.582 90.4781 178.626 90.4785 178.668 90.4704C178.71 90.4598 178.75 90.4402 178.784 90.4129C178.818 90.3857 178.846 90.3514 178.865 90.3124C178.91 90.1798 178.933 90.0409 178.934 89.9011C178.933 89.5526 178.882 88.9549 178.794 88.1709C178.34 84.1697 176.882 75.4459 176.631 73.9589L180.676 72.3808C180.722 72.3624 180.762 72.3311 180.791 72.2908C180.819 72.2504 180.836 72.2027 180.839 72.1531L181.175 67.9889L182.6 71.6184C182.62 71.671 182.656 71.716 182.703 71.7472C182.749 71.7783 182.805 71.7941 182.861 71.7923C182.861 71.7923 192.319 71.4762 197.377 71.7726C197.449 71.7745 197.52 71.7492 197.574 71.7017C197.628 71.6527 197.661 71.5845 197.666 71.5117C197.666 71.5117 197.982 64.0601 192.664 59.6551C190.38 57.7649 187.078 56.4285 182.265 56.476C175.324 56.543 168.649 61.1864 166.447 68.7538C164.973 73.7787 165.464 80.0844 169.149 87.1986C169.168 87.2291 169.191 87.2564 169.218 87.2795L174.23 91.7398C174.27 91.7811 174.322 91.8071 174.379 91.8134C174.435 91.8197 174.492 91.8058 174.54 91.7742L176.889 90.4345C176.928 90.4113 176.961 90.3784 176.985 90.3389C177.008 90.2993 177.021 90.2545 177.022 90.2086L177.181 87.6895C177.181 87.659 177.17 87.6364 177.171 87.6077L176.76 85.8953C176.756 85.8554 176.737 85.8184 176.708 85.7908C175.914 84.7841 175.296 83.6505 174.88 82.438C174.863 82.3731 174.821 82.3177 174.763 82.2838C174.705 82.2499 174.636 82.2403 174.571 82.2572C174.571 82.2572 172.871 82.6307 171.268 82.2164C170.228 81.9381 169.24 81.3287 168.792 80.0302C168.367 78.8049 168.424 77.876 168.771 77.1785C169.303 76.1271 170.475 75.6262 171.562 75.3555C172.273 75.1805 173.002 75.0883 173.735 75.0807L173.736 75.0781ZM178.323 88.8276L178.283 88.717C177.023 84.933 174.205 74.7403 174.205 74.7403C174.19 74.6836 174.158 74.633 174.113 74.5956C174.068 74.5583 174.013 74.5361 173.954 74.5324C173.104 74.5282 172.256 74.6265 171.429 74.8251C170.199 75.1239 168.893 75.7355 168.291 76.9378C167.892 77.733 167.8 78.797 168.29 80.2078C168.798 81.7118 169.935 82.4186 171.138 82.7306C172.48 83.0886 173.904 82.9124 174.454 82.8237C174.886 83.9922 175.49 85.0895 176.247 86.0789L176.639 87.6999L176.502 90.0333L174.448 91.2097L169.617 86.907C166.02 79.9669 165.53 73.8067 166.962 68.9056C169.112 61.5796 175.557 57.082 182.263 57.0154C186.914 56.962 190.116 58.248 192.319 60.0616C196.847 63.8185 197.135 69.8622 197.132 71.2153C192.433 70.9725 184.368 71.1978 183.038 71.2414L181.255 66.7019C181.234 66.6443 181.194 66.5958 181.141 66.5643C181.089 66.5329 181.027 66.5204 180.966 66.5289C180.905 66.539 180.848 66.5686 180.805 66.6135C180.762 66.6583 180.734 66.7158 180.727 66.7775L180.31 71.9387L176.229 73.5352C176.17 73.5579 176.121 73.6006 176.091 73.6557C176.06 73.7109 176.05 73.775 176.062 73.8369C176.062 73.8369 177.76 83.8508 178.259 88.2344C178.277 88.4434 178.299 88.6368 178.323 88.8276Z" fill="#1B1D29"/>
<path fill-rule="evenodd" clip-rule="evenodd" d="M174.651 92.2693C174.74 92.1653 174.807 92.0449 174.849 91.9148C174.891 91.7848 174.907 91.6478 174.897 91.5115C174.886 91.3753 174.848 91.2425 174.786 91.1208C174.724 90.9991 174.638 90.8908 174.534 90.8022L170.147 87.0024C169.94 86.8248 169.671 86.7361 169.399 86.7556C169.127 86.7751 168.873 86.9011 168.693 87.1064C168.517 87.314 168.429 87.5827 168.448 87.8546C168.468 88.1264 168.594 88.3796 168.799 88.5595L173.175 92.3689C173.278 92.4589 173.396 92.5279 173.525 92.572C173.654 92.616 173.791 92.6342 173.927 92.6255C174.062 92.6168 174.195 92.5814 174.318 92.5214C174.44 92.4613 174.549 92.3777 174.639 92.2754L174.651 92.2693Z" fill="white"/>
<path fill-rule="evenodd" clip-rule="evenodd" d="M174.854 92.4513C174.966 92.3206 175.051 92.169 175.104 92.0053C175.157 91.8417 175.178 91.6691 175.165 91.4974C175.151 91.3258 175.104 91.1585 175.026 91.0051C174.948 90.8517 174.84 90.7153 174.709 90.6035L170.322 86.8037C170.061 86.5776 169.721 86.4644 169.377 86.4889C169.032 86.5134 168.711 86.6736 168.485 86.9343C168.259 87.1956 168.146 87.5356 168.171 87.8799C168.196 88.2242 168.356 88.5446 168.617 88.7708L173.002 92.5714C173.132 92.6852 173.282 92.7723 173.445 92.8279C173.608 92.8834 173.781 92.9062 173.953 92.8951C174.125 92.8839 174.293 92.839 174.447 92.7628C174.602 92.6867 174.74 92.5808 174.854 92.4513ZM174.441 92.0938C174.375 92.1695 174.294 92.2313 174.203 92.2756C174.113 92.32 174.015 92.3459 173.914 92.3519C173.813 92.358 173.713 92.344 173.618 92.3109C173.522 92.2778 173.435 92.2261 173.36 92.1588L168.982 88.3547C168.906 88.2898 168.844 88.2107 168.8 88.1218C168.755 88.0329 168.728 87.9361 168.721 87.8369C168.714 87.7376 168.726 87.638 168.757 87.5435C168.789 87.4491 168.838 87.3618 168.904 87.2866C169.037 87.1358 169.224 87.0427 169.425 87.0268C169.626 87.011 169.825 87.0736 169.981 87.2015L174.366 91.0022C174.52 91.1378 174.613 91.3284 174.627 91.5327C174.641 91.7369 174.574 91.9385 174.441 92.0938Z" fill="#1B1D29"/>
<path fill-rule="evenodd" clip-rule="evenodd" d="M239.243 81.8767C239.243 81.8767 237.991 78.6006 237.552 76.8395C237.552 76.8395 238.47 73.8898 239.152 73.0769L241.976 62.331C242.065 62.0158 242.272 61.7474 242.555 61.5827C242.84 61.422 243.177 61.3799 243.493 61.4655C243.728 61.5329 243.931 61.6825 244.064 61.8871C244.198 62.0916 244.254 62.3375 244.222 62.5798C243.885 64.9501 243.009 71.2855 243.009 71.2855C243.581 71.1205 244.185 71.1027 244.766 71.2337C245.346 71.3646 245.884 71.6401 246.33 72.0346C246.33 72.0346 247.944 71.9837 248.957 73.6638C248.957 73.6638 250.34 73.8876 250.927 75.7139C250.458 78.4993 249.275 81.1154 247.493 83.3065L246.924 85.5709L239.243 81.8767Z" fill="white"/>
<path fill-rule="evenodd" clip-rule="evenodd" d="M238.992 81.9772C239.004 82.0101 239.022 82.0401 239.046 82.0656C239.07 82.091 239.099 82.1113 239.131 82.1251L246.812 85.8176C246.847 85.8349 246.884 85.8444 246.922 85.8456C246.961 85.8467 246.999 85.8395 247.034 85.8243C247.07 85.8068 247.102 85.7817 247.127 85.7509C247.153 85.72 247.171 85.6841 247.182 85.6455L247.738 83.4395C249.531 81.2188 250.722 78.5736 251.195 75.7588C251.198 75.7198 251.196 75.6806 251.189 75.6421C250.653 73.9735 249.499 73.5298 249.123 73.431C248.841 72.9593 248.449 72.5628 247.98 72.2752C247.512 71.9876 246.981 71.8175 246.433 71.7792C246.01 71.4195 245.512 71.1587 244.976 71.0156C244.44 70.8726 243.878 70.8509 243.332 70.9522L244.49 62.6291C244.531 62.322 244.461 62.0104 244.291 61.7514C244.121 61.4923 243.863 61.3033 243.565 61.2189C243.374 61.1654 243.174 61.1502 242.977 61.1743C242.78 61.1983 242.589 61.2611 242.417 61.359C242.243 61.4557 242.091 61.5869 241.969 61.7445C241.848 61.9021 241.76 62.0829 241.71 62.2756L238.898 72.9613C238.208 73.8588 237.295 76.7667 237.295 76.7667C237.281 76.8141 237.279 76.8647 237.29 76.913C237.729 78.6785 238.992 81.9772 238.992 81.9772ZM239.457 81.6786C239.247 81.13 238.241 78.4217 237.848 76.8513C237.978 76.4067 238.761 73.9696 239.359 73.2596C239.387 73.2314 239.406 73.1946 239.411 73.1549L242.24 62.4195C242.271 62.2957 242.327 62.1793 242.404 62.0777C242.481 61.976 242.578 61.8911 242.689 61.8282C242.911 61.7042 243.172 61.6716 243.417 61.7375C243.592 61.7843 243.743 61.8933 243.843 62.0441C243.943 62.1948 243.984 62.3768 243.959 62.5557L242.746 71.2615C242.737 71.3084 242.742 71.357 242.759 71.4015C242.777 71.446 242.807 71.4844 242.846 71.5123C242.882 71.5407 242.924 71.5595 242.969 71.5668C243.014 71.5741 243.06 71.5696 243.102 71.5537C243.629 71.4042 244.186 71.3893 244.72 71.5104C245.255 71.6314 245.75 71.8845 246.161 72.2466C246.21 72.2914 246.273 72.3157 246.339 72.3143C246.339 72.3143 247.805 72.2853 248.723 73.8036C248.745 73.8362 248.774 73.8638 248.807 73.8846C248.841 73.9054 248.878 73.919 248.917 73.9244C248.917 73.9244 250.119 74.1476 250.652 75.7395C250.183 78.4531 249.026 81.0009 247.291 83.1387C247.27 83.1716 247.252 83.2067 247.238 83.2433L246.742 85.1817L239.459 81.6838L239.457 81.6786Z" fill="#000045"/>
<path fill-rule="evenodd" clip-rule="evenodd" d="M239.859 73.2872C241.114 73.1808 242.362 73.0008 243.596 72.7481C243.677 72.843 243.737 72.9531 243.774 73.0719C243.811 73.1906 243.824 73.3156 243.812 73.4395C243.768 73.6929 243.638 73.9237 243.446 74.0942C242.51 75.0214 241.134 75.5155 241.134 75.5155C241.1 75.5268 241.068 75.5448 241.041 75.5686C241.014 75.5923 240.993 75.6213 240.977 75.6536C240.962 75.686 240.953 75.7212 240.951 75.7571C240.95 75.793 240.955 75.8288 240.968 75.8624C240.979 75.8958 240.997 75.9265 241.02 75.9528C241.043 75.979 241.072 76.0001 241.104 76.0148C241.136 76.0294 241.17 76.0374 241.205 76.038C241.241 76.0387 241.275 76.0322 241.308 76.0188C241.308 76.0188 242.807 75.4845 243.834 74.4769C244.118 74.2227 244.302 73.8746 244.351 73.4962C244.365 73.2674 244.331 73.0382 244.25 72.8236C244.17 72.609 244.044 72.4139 243.883 72.2512C243.849 72.2232 243.809 72.2034 243.766 72.1932C243.723 72.183 243.679 72.1826 243.636 72.1923C242.376 72.4539 241.102 72.6426 239.82 72.7576C239.785 72.7597 239.751 72.7686 239.719 72.784C239.688 72.7993 239.659 72.8207 239.636 72.8469C239.613 72.8732 239.595 72.9038 239.584 72.9369C239.572 72.9701 239.567 73.0052 239.569 73.0402C239.571 73.076 239.579 73.1112 239.595 73.1435C239.61 73.1758 239.632 73.2045 239.66 73.2277C239.687 73.251 239.719 73.2683 239.753 73.2785C239.787 73.2887 239.823 73.2917 239.859 73.2872Z" fill="#000045"/>
<path fill-rule="evenodd" clip-rule="evenodd" d="M245.765 72.8912L244.936 75.9395C244.879 76.1575 244.74 76.3451 244.548 76.4633C244.356 76.5815 244.126 76.6212 243.906 76.5742C243.301 76.4418 242.585 76.1622 242.589 75.4148C242.591 75.3791 242.584 75.3435 242.571 75.3102C242.558 75.2769 242.539 75.2466 242.514 75.2211C242.489 75.1956 242.459 75.1754 242.426 75.1617C242.393 75.1481 242.357 75.1412 242.322 75.1416C242.286 75.1403 242.25 75.1463 242.217 75.1594C242.184 75.1724 242.153 75.1921 242.128 75.2173C242.103 75.2425 242.083 75.2726 242.07 75.3058C242.056 75.339 242.05 75.3746 242.051 75.4103C242.046 76.4461 242.948 76.9109 243.776 77.1119C244.136 77.19 244.511 77.1267 244.825 76.9351C245.139 76.7436 245.367 76.4386 245.462 76.0834C245.774 74.9044 246.284 73.0229 246.284 73.0229C246.3 72.9551 246.289 72.8837 246.254 72.8235C246.219 72.7633 246.162 72.7188 246.095 72.6991C246.061 72.6892 246.025 72.6864 245.99 72.6908C245.954 72.6952 245.92 72.7067 245.889 72.7246C245.858 72.7426 245.831 72.7666 245.81 72.7952C245.788 72.8238 245.773 72.8565 245.765 72.8912Z" fill="#000045"/>
<path fill-rule="evenodd" clip-rule="evenodd" d="M245.061 75.5373C245.061 75.5373 244.947 75.9085 244.843 76.2745C244.757 76.5564 244.78 76.8601 244.906 77.1264C245.032 77.3927 245.252 77.6026 245.524 77.7153C245.819 77.829 246.148 77.9644 246.447 78.0895C246.598 78.1552 246.763 78.1874 246.928 78.1837C247.094 78.18 247.257 78.1406 247.406 78.0682C247.553 77.9995 247.685 77.9013 247.793 77.7797C247.901 77.658 247.983 77.5154 248.034 77.3608C248.418 76.1721 249.029 74.3071 249.029 74.3071C249.052 74.2377 249.047 74.1621 249.014 74.0968C248.981 74.0315 248.924 73.9819 248.855 73.9589C248.785 73.9359 248.71 73.9413 248.644 73.9741C248.579 74.0069 248.53 74.0642 248.507 74.1336L247.519 77.1986C247.495 77.2853 247.453 77.3654 247.393 77.4329C247.334 77.5003 247.26 77.5533 247.178 77.5876C247.097 77.6272 247.009 77.6488 246.919 77.6508C246.83 77.6529 246.741 77.6355 246.658 77.5996C246.36 77.4746 246.031 77.3392 245.737 77.2228C245.591 77.1605 245.472 77.0474 245.403 76.9044C245.333 76.7613 245.318 76.598 245.36 76.4446L245.572 75.6951C245.584 75.6605 245.589 75.6238 245.586 75.5873C245.583 75.5507 245.572 75.5153 245.555 75.483C245.537 75.4508 245.513 75.4225 245.485 75.4C245.456 75.3775 245.422 75.3612 245.387 75.3521C245.353 75.3424 245.318 75.3395 245.284 75.3435C245.249 75.3476 245.215 75.3586 245.185 75.3759C245.155 75.3931 245.128 75.4163 245.107 75.444C245.086 75.4718 245.07 75.5035 245.061 75.5373Z" fill="#000045"/>
<path fill-rule="evenodd" clip-rule="evenodd" d="M247.728 76.5988C247.728 76.5988 247.618 76.9544 247.514 77.3204C247.435 77.5921 247.454 77.8831 247.567 78.1425C247.68 78.4018 247.881 78.6131 248.135 78.7395L249.006 79.1738C249.039 79.1897 249.075 79.1989 249.111 79.2008C249.148 79.2027 249.184 79.1973 249.219 79.1849C249.253 79.1726 249.285 79.1535 249.312 79.1287C249.339 79.104 249.36 79.0741 249.376 79.0409C249.391 79.0094 249.4 78.9751 249.402 78.94C249.404 78.905 249.399 78.8698 249.388 78.8367C249.376 78.8036 249.358 78.7732 249.334 78.7472C249.31 78.7213 249.282 78.7004 249.25 78.6857C249.25 78.6857 248.814 78.4685 248.378 78.2513C248.236 78.181 248.123 78.0628 248.06 77.9175C247.997 77.7722 247.987 77.6092 248.032 77.4573C248.142 77.0991 248.246 76.7331 248.246 76.7331C248.255 76.6995 248.258 76.6643 248.254 76.6296C248.249 76.5949 248.238 76.5615 248.22 76.5313C248.203 76.5011 248.179 76.4748 248.151 76.4538C248.123 76.4329 248.091 76.4177 248.057 76.4093C248.023 76.3977 247.987 76.3935 247.951 76.397C247.916 76.4004 247.881 76.4115 247.85 76.4294C247.818 76.4474 247.791 76.4717 247.77 76.501C247.749 76.5302 247.735 76.5635 247.728 76.5988Z" fill="#000045"/>
<path fill-rule="evenodd" clip-rule="evenodd" d="M196.485 94.7201C196.485 94.7201 199.985 94.2201 203.102 95.3956C220.985 103.221 228.485 104.221 228.485 104.221C228.485 104.221 230.985 93.7206 233.485 90.2206C234.659 86.2181 236.7 85.1203 236.7 85.1203C236.7 85.1203 237.7 82.4824 238.128 81.3675C238.187 81.2228 238.289 81.0994 238.42 81.0133C238.55 80.9272 238.704 80.8824 238.86 80.8847C240.288 80.9812 244.307 81.5804 247.851 85.3369C247.923 85.4108 247.979 85.499 248.015 85.5957C248.051 85.6924 248.067 85.7955 248.061 85.8986C247.974 87.0601 247.719 91.0396 247.719 91.0396C247.719 91.0396 249.875 97.132 249.485 101.221C249.095 105.309 245.713 113.089 243.985 118.721C242.257 124.352 237.391 125.564 229.334 124.042C221.277 122.519 210.5 120.5 210.5 120.5L196.485 94.7201Z" fill="white"/>
<path fill-rule="evenodd" clip-rule="evenodd" d="M175.757 96.9427C175.856 96.714 176.012 96.5143 176.21 96.3618C176.407 96.2094 176.64 96.1093 176.886 96.0707C179.023 95.7246 185.839 94.6593 191.848 94.1292C191.848 94.1292 192.47 94.4124 192.97 95.6132C195.908 95.4184 194.985 95.2201 197.485 94.7201L208.253 176.079C208.253 176.079 198.938 180.503 189.784 181.842L169.231 102.396L175.237 98.7879C175.322 98.1513 175.497 97.53 175.757 96.9427Z" fill="#FFEAAF"/>
<path fill-rule="evenodd" clip-rule="evenodd" d="M156.985 161.721C143.485 157.721 153.522 121.769 155.99 114.819C156.984 112.056 158.813 109.671 161.224 107.995C164.945 105.418 170.315 101.706 170.315 101.706L175.091 98.7436C186.452 118.901 191.424 163.529 191.457 186.785C191.457 186.785 173.75 193.199 162.807 191.411C162.252 191.318 161.747 191.036 161.376 190.613C161.005 190.191 160.792 189.653 160.771 189.091C160.495 181.967 159.985 161.721 159.985 161.721L156.985 161.721Z" fill="white"/>
<path fill-rule="evenodd" clip-rule="evenodd" d="M192.97 95.6139C200.662 120.939 204.85 148.301 204.985 180.22C204.985 180.22 214.086 179.485 221.554 171.483C221.864 171.149 222.089 170.745 222.21 170.305C222.331 169.865 222.344 169.402 222.248 168.956C224 165 212 121.5 212 121.5L197.485 94.7202L192.97 95.6139Z" fill="white"/>
<path fill-rule="evenodd" clip-rule="evenodd" d="M243.672 56.6191C243.524 56.2511 243.238 55.9554 242.874 55.7951C242.51 55.6348 242.098 55.6226 241.726 55.761C238.902 56.8134 232.503 59.1844 229.56 60.2845C229.364 60.3561 229.185 60.4674 229.034 60.6114C228.883 60.7555 228.763 60.9291 228.683 61.1215C228.603 61.3138 228.563 61.5205 228.566 61.7287C228.569 61.937 228.614 62.1424 228.7 62.3322C229.962 67.2929 232.563 79.8711 234.424 83.9614C234.582 84.314 234.87 84.5929 235.227 84.741C235.585 84.8891 235.986 84.8952 236.349 84.7581C239.001 83.7718 244.909 81.5554 247.666 80.5234C247.857 80.4523 248.032 80.3436 248.18 80.2039C248.328 80.0641 248.447 79.8962 248.528 79.7099C248.61 79.5237 248.654 79.323 248.657 79.1197C248.659 78.9164 248.621 78.7147 248.544 78.5265C247.731 73.9695 245.07 61.8491 243.672 56.6191Z" fill="#1B1D29"/>
<path d="M241.142 62.2527C241.678 62.2008 242.07 61.7246 242.018 61.1893C241.966 60.6539 241.49 60.262 240.954 60.314C240.419 60.3659 240.027 60.8421 240.079 61.3775C240.131 61.9128 240.607 62.3047 241.142 62.2527Z" fill="white"/>
<path fill-rule="evenodd" clip-rule="evenodd" d="M175.397 98.439C175.553 98.6671 175.494 98.9782 175.266 99.1337C171.597 101.635 163.569 107.131 160.775 109.127C159.125 110.306 157.796 112.217 156.688 114.618C155.582 117.013 154.716 119.854 153.969 122.842C153.227 125.809 151.981 133.157 151.358 140.389C151.046 144.003 150.892 147.572 151.031 150.541C151.101 152.026 151.243 153.349 151.472 154.447C151.703 155.553 152.014 156.39 152.394 156.934C154.124 159.405 155.907 161.026 157.908 161.483C159.881 161.934 162.224 161.287 165.164 158.837C168.065 156.419 170.902 151.393 172.961 146.526C173.985 144.106 174.806 141.751 175.338 139.822C175.605 138.857 175.797 138.005 175.907 137.308C176.02 136.598 176.04 136.094 175.991 135.803L175.978 135.726C175.74 134.298 175.609 133.512 175.609 132.908C175.609 132.264 175.758 131.819 175.997 131.102L176.01 131.064C176.009 131.064 176.016 131.035 176.005 130.963C175.992 130.885 175.961 130.778 175.904 130.642C175.788 130.369 175.587 130.028 175.305 129.638C174.745 128.861 173.911 127.949 172.962 127.092C172.012 126.234 170.966 125.447 169.986 124.909C169.051 124.395 168.257 124.152 167.688 124.199C166.792 124.933 166.239 125.608 165.911 126.144C165.561 126.715 165.484 127.098 165.484 127.221V127.488L165.262 127.637C164.05 128.445 162.109 130.039 160.276 132.172C158.442 134.305 156.741 136.947 155.967 139.849C155.896 140.116 155.622 140.275 155.355 140.204C155.089 140.133 154.93 139.859 155.001 139.592C155.827 136.494 157.627 133.72 159.518 131.52C161.317 129.427 163.221 127.828 164.511 126.937C164.574 126.583 164.748 126.128 165.058 125.622C165.467 124.954 166.133 124.162 167.172 123.33L167.274 123.249L167.402 123.227C168.327 123.073 169.424 123.459 170.467 124.032C171.534 124.619 172.644 125.457 173.632 126.35C174.62 127.242 175.505 128.206 176.116 129.053C176.421 129.476 176.669 129.884 176.825 130.252C176.969 130.594 177.082 131.008 176.959 131.379C176.705 132.139 176.609 132.439 176.609 132.908C176.609 133.418 176.724 134.115 176.977 135.638C177.054 136.097 177.011 136.734 176.895 137.465C176.777 138.21 176.575 139.1 176.302 140.088C175.757 142.065 174.921 144.461 173.882 146.915C171.816 151.798 168.903 157.022 165.804 159.605C162.745 162.155 160.088 163.007 157.686 162.458C155.312 161.916 153.345 160.036 151.575 157.507C151.081 156.801 150.735 155.81 150.493 154.651C150.25 153.483 150.103 152.103 150.032 150.588C149.89 147.557 150.048 143.938 150.361 140.303C150.988 133.035 152.241 125.632 152.999 122.599C153.752 119.588 154.636 116.678 155.78 114.199C156.922 111.724 158.343 109.635 160.193 108.314C162.999 106.31 171.038 100.806 174.702 98.3075C174.931 98.152 175.242 98.2108 175.397 98.439Z" fill="black"/>
<path fill-rule="evenodd" clip-rule="evenodd" d="M169.515 120.714C169.533 119.946 169.497 119.178 169.408 118.415C169.259 117.092 169.066 115.599 169.974 114.6L171.617 118.668L176.459 112.243C176.542 112.134 176.645 112.042 176.764 111.974C176.883 111.905 177.014 111.861 177.15 111.844C177.287 111.827 177.425 111.838 177.557 111.875C177.689 111.913 177.812 111.976 177.918 112.062C178.069 112.184 178.171 112.354 178.208 112.544C178.246 112.733 178.215 112.93 178.121 113.099C177.157 114.842 174.422 119.763 174.422 119.763C174.422 119.763 178.093 118.091 179.945 117.245C180.079 117.183 180.225 117.15 180.373 117.147C180.521 117.145 180.668 117.172 180.804 117.229C180.939 117.286 181.061 117.37 181.163 117.476C181.265 117.581 181.344 117.705 181.397 117.842C181.482 118.077 181.477 118.336 181.382 118.568C181.288 118.801 181.11 118.99 180.884 119.1C179.2 119.909 175.545 121.672 175.545 121.672C175.545 121.672 179.117 120.054 180.832 119.275C181.07 119.167 181.341 119.158 181.586 119.249C181.83 119.34 182.029 119.524 182.137 119.761C182.245 119.995 182.256 120.262 182.168 120.504C182.081 120.746 181.901 120.945 181.668 121.057L176.174 123.658C176.174 123.658 179.488 122.391 181.049 121.791C181.268 121.708 181.51 121.711 181.726 121.798C181.942 121.886 182.117 122.051 182.216 122.262C182.312 122.472 182.324 122.711 182.248 122.93C182.173 123.149 182.016 123.33 181.81 123.437C180.166 124.304 176.427 126.265 176.427 126.265C176.427 126.265 175.782 128.973 174.573 129.906L173.16 130.043L169.324 124.323L169.515 120.714Z" fill="white"/>
<path fill-rule="evenodd" clip-rule="evenodd" d="M181.41 121.45L181.707 121.307C182.005 121.165 182.234 120.912 182.347 120.602C182.459 120.293 182.445 119.952 182.308 119.652C182.227 119.474 182.104 119.318 181.951 119.196C181.797 119.074 181.617 118.99 181.425 118.951C181.544 118.782 181.621 118.587 181.648 118.382C181.675 118.177 181.651 117.969 181.58 117.775C181.516 117.602 181.417 117.445 181.289 117.313C181.162 117.181 181.008 117.076 180.838 117.006C180.669 116.935 180.488 116.9 180.305 116.904C180.121 116.907 179.941 116.948 179.775 117.024L175.094 119.167L178.327 113.308C178.452 113.083 178.493 112.822 178.444 112.57C178.395 112.318 178.259 112.091 178.059 111.929C177.925 111.821 177.77 111.741 177.605 111.694C177.439 111.646 177.265 111.633 177.094 111.654C176.923 111.675 176.758 111.731 176.609 111.817C176.46 111.903 176.33 112.019 176.226 112.157L171.746 118.12L170.314 114.552C170.296 114.509 170.269 114.471 170.233 114.441C170.197 114.411 170.154 114.39 170.108 114.38C170.061 114.372 170.012 114.376 169.966 114.391C169.92 114.407 169.879 114.433 169.846 114.468C169.354 115.01 169.155 115.684 169.105 116.405C169.055 117.079 169.144 117.793 169.217 118.465C169.303 119.203 169.339 119.947 169.324 120.69L169.325 120.697L169.129 124.273C169.123 124.334 169.139 124.394 169.173 124.444L172.973 130.11C172.999 130.152 173.037 130.186 173.082 130.208C173.127 130.229 173.178 130.238 173.227 130.233L174.617 130.098C174.669 130.093 174.718 130.074 174.76 130.044C175.268 129.645 175.687 128.957 176.004 128.267C176.269 127.663 176.488 127.04 176.66 126.404L181.858 123.664C182.123 123.522 182.324 123.285 182.421 123C182.517 122.716 182.501 122.405 182.377 122.132C182.291 121.942 182.156 121.779 181.986 121.66C181.816 121.54 181.618 121.468 181.41 121.45ZM169.877 120.725C169.878 120.725 169.879 120.724 169.88 120.724C169.881 120.723 169.881 120.723 169.882 120.722C169.882 120.721 169.883 120.721 169.883 120.72C169.883 120.719 169.883 120.718 169.883 120.717C169.9 119.944 169.863 119.171 169.773 118.403C169.698 117.766 169.612 117.087 169.657 116.446C169.674 116.023 169.786 115.609 169.985 115.234L171.408 118.79C171.426 118.836 171.456 118.876 171.495 118.907C171.533 118.937 171.579 118.957 171.628 118.964C171.678 118.971 171.729 118.965 171.776 118.945C171.822 118.925 171.862 118.893 171.892 118.852L176.676 112.491C176.734 112.413 176.808 112.348 176.893 112.299C176.978 112.25 177.071 112.219 177.168 112.207C177.265 112.195 177.363 112.202 177.457 112.229C177.551 112.255 177.639 112.301 177.715 112.362C177.811 112.442 177.876 112.552 177.901 112.675C177.925 112.797 177.906 112.924 177.848 113.035C176.884 114.765 174.194 119.639 174.194 119.639C174.165 119.69 174.153 119.75 174.16 119.808C174.167 119.867 174.192 119.922 174.232 119.965C174.273 120.009 174.326 120.038 174.384 120.049C174.442 120.061 174.502 120.053 174.556 120.028C174.556 120.028 178.171 118.37 180.004 117.533C180.101 117.488 180.206 117.464 180.313 117.462C180.419 117.461 180.525 117.481 180.624 117.522C180.722 117.563 180.811 117.623 180.885 117.7C180.958 117.777 181.015 117.868 181.052 117.968C181.114 118.136 181.111 118.32 181.045 118.486C180.979 118.651 180.854 118.787 180.694 118.866C179.032 119.667 175.425 121.412 175.425 121.412C175.359 121.444 175.308 121.501 175.283 121.57C175.258 121.639 175.261 121.715 175.292 121.782C175.307 121.815 175.329 121.845 175.356 121.87C175.383 121.895 175.415 121.914 175.449 121.926C175.484 121.939 175.52 121.944 175.557 121.942C175.594 121.94 175.63 121.93 175.663 121.914L180.874 119.543C181.042 119.468 181.233 119.462 181.405 119.526C181.578 119.589 181.719 119.718 181.798 119.884C181.873 120.051 181.88 120.24 181.817 120.413C181.754 120.585 181.627 120.726 181.462 120.806C179.74 121.619 176.046 123.379 176.046 123.379C175.981 123.411 175.931 123.466 175.905 123.534C175.879 123.601 175.879 123.676 175.905 123.743C175.935 123.808 175.989 123.859 176.055 123.886C176.122 123.914 176.196 123.915 176.263 123.889L181.074 122.042C181.222 121.985 181.387 121.986 181.534 122.046C181.681 122.105 181.8 122.218 181.867 122.362C181.933 122.506 181.942 122.67 181.891 122.82C181.841 122.97 181.735 123.096 181.595 123.17L176.285 125.962C176.251 125.981 176.222 126.007 176.198 126.039C176.175 126.07 176.158 126.106 176.148 126.144C175.984 126.79 175.766 127.422 175.496 128.032C175.228 128.61 174.893 129.195 174.477 129.552L173.346 129.661L169.694 124.21L169.877 120.725Z" fill="#000045"/>
<path fill-rule="evenodd" clip-rule="evenodd" d="M174.771 100.055C175.017 99.9292 175.318 100.026 175.445 100.271C181.482 112.011 193.004 145.631 190.999 186.525L190.983 186.861L190.665 186.972C190.423 187.057 190.181 187.142 189.938 187.227C185.163 188.9 180.144 190.658 175.29 191.677C170.191 192.747 165.21 193.016 160.834 191.472L160.676 191.416L160.584 191.277C160.467 191.102 160.391 190.849 160.332 190.605C160.269 190.34 160.209 190.01 160.154 189.628C160.042 188.863 159.939 187.861 159.845 186.705C159.657 184.39 159.501 181.429 159.375 178.459C159.125 172.518 159 166.51 159 165.5C159 165.224 159.224 165 159.5 165C159.776 165 160 165.224 160 165.5C160 166.49 160.125 172.482 160.375 178.417C160.499 181.383 160.655 184.329 160.842 186.624C160.936 187.772 161.036 188.75 161.143 189.484C161.197 189.851 161.251 190.149 161.305 190.372C161.327 190.464 161.348 190.538 161.367 190.598C165.445 191.976 170.14 191.736 175.085 190.698C179.873 189.693 184.836 187.955 189.628 186.276C189.758 186.23 189.887 186.185 190.017 186.14C191.933 145.586 180.502 112.291 174.555 100.729C174.429 100.483 174.526 100.182 174.771 100.055Z" fill="black"/>
<path fill-rule="evenodd" clip-rule="evenodd" d="M192.856 95.2375C193.123 95.1663 193.397 95.3249 193.468 95.5918C196.132 105.581 201.776 127.916 202.981 137.156C203.733 142.921 204.609 152.682 205.234 161.498C205.546 165.907 205.797 170.084 205.938 173.41C206.056 176.212 206.099 178.447 206.03 179.703C209.044 179.511 212.801 177.783 216.018 175.618C217.714 174.477 219.234 173.232 220.387 172.065C221.513 170.923 222.236 169.908 222.478 169.168C222.335 167.641 221.632 163.887 220.605 159.011C219.559 154.047 218.185 147.958 216.749 141.962C215.312 135.965 213.814 130.066 212.519 125.481C211.872 123.188 211.277 121.23 210.768 119.755C210.513 119.017 210.282 118.406 210.079 117.938C209.869 117.455 209.707 117.168 209.601 117.041C209.424 116.829 209.453 116.513 209.665 116.336C209.877 116.16 210.192 116.188 210.369 116.4C210.575 116.648 210.784 117.052 210.996 117.539C211.214 118.041 211.455 118.678 211.713 119.429C212.232 120.93 212.832 122.909 213.482 125.21C214.781 129.813 216.283 135.726 217.721 141.729C219.16 147.733 220.536 153.831 221.584 158.805C222.628 163.763 223.355 167.641 223.483 169.179L223.491 169.27L223.466 169.358C223.179 170.361 222.288 171.562 221.099 172.767C219.892 173.99 218.318 175.276 216.577 176.448C213.116 178.776 208.888 180.721 205.485 180.721H204.919L204.989 180.159C205.108 179.209 205.08 176.788 204.939 173.453C204.798 170.139 204.549 165.972 204.236 161.568C203.611 152.759 202.737 143.021 201.989 137.285C200.794 128.125 195.171 105.86 192.502 95.8494C192.431 95.5826 192.589 95.3086 192.856 95.2375Z" fill="black"/>
<path fill-rule="evenodd" clip-rule="evenodd" d="M244.689 82.3556C246.296 83.4358 247.399 84.9319 247.932 85.9969L247.948 86.0287L247.959 86.0624C248.065 86.3815 248.167 87.014 248.197 87.9421C248.226 88.8473 248.187 90.0619 248.004 91.5965C249.135 93.335 249.611 95.7926 249.657 98.5246C249.704 101.356 249.291 104.553 248.598 107.703C247.905 110.855 246.928 113.976 245.839 116.659C244.753 119.333 243.543 121.605 242.372 123.037C241.334 124.306 239.354 124.898 237.02 125.114C234.651 125.333 231.77 125.175 228.761 124.804C222.738 124.062 216.11 122.455 211.844 121.2C211.579 121.122 211.427 120.844 211.505 120.579C211.583 120.315 211.861 120.163 212.126 120.241C216.359 121.486 222.931 123.079 228.883 123.812C231.862 124.179 234.662 124.327 236.928 124.118C239.228 123.905 240.836 123.335 241.598 122.404C242.676 121.086 243.841 118.921 244.912 116.283C245.979 113.653 246.94 110.586 247.621 107.488C248.303 104.388 248.703 101.272 248.657 98.5415C248.61 95.7962 248.115 93.5092 247.074 92.0052L246.965 91.8481L246.989 91.6585C247.186 90.0813 247.226 88.8576 247.198 87.974C247.17 87.1236 247.081 86.6142 247.02 86.4095C246.546 85.476 245.556 84.1434 244.131 83.1855C242.735 82.2471 240.931 81.673 238.762 82.1684C238.055 83.0293 237.087 84.5607 236.024 86.4928C234.915 88.51 233.718 90.934 232.63 93.421C231.542 95.909 230.566 98.4515 229.894 100.707C229.216 102.981 228.867 104.902 228.983 106.175C229.008 106.45 228.805 106.694 228.53 106.719C228.255 106.744 228.012 106.541 227.987 106.266C227.853 104.789 228.253 102.711 228.935 100.422C229.623 98.1147 230.615 95.5322 231.714 93.0202C232.814 90.5072 234.023 88.0561 235.148 86.0108C236.268 83.9756 237.319 82.3119 238.105 81.3952L238.209 81.2741L238.363 81.2355C240.925 80.5952 243.068 81.2664 244.689 82.3556Z" fill="black"/>
<path fill-rule="evenodd" clip-rule="evenodd" d="M211.254 98.6636C202.16 93.9191 196.065 95.4348 194.262 96.6364C194.033 96.7895 193.722 96.7275 193.569 96.4977C193.416 96.2679 193.478 95.9575 193.708 95.8043C195.905 94.3392 202.41 92.9216 211.716 97.7771C216.288 100.162 220.047 101.566 222.881 102.351C225.729 103.141 227.611 103.298 228.44 103.223C228.715 103.198 228.958 103.4 228.983 103.675C229.008 103.95 228.805 104.194 228.53 104.219C227.526 104.31 225.508 104.117 222.614 103.315C219.706 102.509 215.882 101.078 211.254 98.6636Z" fill="black"/>
<path fill-rule="evenodd" clip-rule="evenodd" d="M197.55 186.671L219.315 205.845C219.523 206.028 219.543 206.344 219.36 206.551C219.178 206.758 218.862 206.778 218.654 206.596L198.417 188.768C197.657 199.902 195.145 222.973 193.981 232.283C192.778 241.905 187.14 271.326 184.475 284.817L184.381 285.296L183.9 285.213C180.98 284.713 176.574 283.912 172.845 283.135C170.982 282.747 169.281 282.364 168.017 282.026C167.386 281.857 166.853 281.697 166.459 281.55C166.263 281.477 166.088 281.402 165.948 281.324C165.878 281.286 165.806 281.241 165.741 281.188C165.681 281.14 165.596 281.06 165.538 280.944C165.494 280.856 165.478 280.758 165.473 280.725L165.472 280.721C165.463 280.666 165.455 280.601 165.448 280.529C165.433 280.383 165.418 280.186 165.403 279.943C165.372 279.455 165.34 278.763 165.305 277.89C165.236 276.143 165.158 273.661 165.074 270.616C164.907 264.524 164.716 256.173 164.522 246.931C164.135 228.447 163.735 206.396 163.485 191.729C163.48 191.453 163.7 191.225 163.976 191.221C164.252 191.216 164.48 191.436 164.485 191.712C164.735 206.378 165.135 228.428 165.522 246.91C165.716 256.152 165.907 264.5 166.074 270.588C166.157 273.632 166.235 276.11 166.304 277.85C166.339 278.721 166.371 279.404 166.401 279.88C166.416 280.119 166.43 280.301 166.443 280.427C166.444 280.438 166.445 280.448 166.446 280.457C166.525 280.499 166.644 280.551 166.809 280.613C167.158 280.743 167.655 280.894 168.275 281.059C169.512 281.39 171.192 281.769 173.049 282.156C176.563 282.888 180.687 283.643 183.589 284.145C186.293 270.433 191.805 241.625 192.989 232.159C194.188 222.561 196.82 198.34 197.486 187.689L197.55 186.671Z" fill="black"/>
<path fill-rule="evenodd" clip-rule="evenodd" d="M221.647 170.146C221.842 169.951 222.158 169.951 222.354 170.146C227.199 174.992 237.574 186.469 240.376 189.671C240.879 190.245 241.526 190.901 242.261 191.646C242.8 192.192 243.385 192.785 243.996 193.43C245.418 194.93 246.929 196.661 248.111 198.547C249.293 200.431 250.166 202.499 250.273 204.671C250.381 206.858 249.71 209.103 247.886 211.318C246.425 213.092 243.215 215.388 239.054 217.921C234.87 220.467 229.658 223.293 224.128 226.12C213.066 231.776 200.707 237.455 192.701 240.958C192.448 241.069 192.153 240.953 192.042 240.7C191.931 240.447 192.047 240.153 192.3 240.042C200.293 236.545 212.634 230.874 223.672 225.23C229.192 222.407 234.38 219.595 238.534 217.067C242.71 214.525 245.776 212.308 247.114 210.682C248.79 208.647 249.369 206.642 249.274 204.72C249.178 202.782 248.395 200.881 247.264 199.078C246.134 197.276 244.676 195.601 243.27 194.117C242.697 193.513 242.124 192.931 241.586 192.386C240.827 191.616 240.139 190.918 239.624 190.329C236.826 187.131 226.468 175.675 221.647 170.854C221.451 170.658 221.451 170.342 221.647 170.146Z" fill="black"/>
<path fill-rule="evenodd" clip-rule="evenodd" d="M213.906 201.951C214.055 202.184 213.987 202.493 213.754 202.642L195.754 214.142C195.521 214.291 195.212 214.223 195.064 213.99C194.915 213.757 194.983 213.448 195.216 213.299L213.216 201.799C213.448 201.651 213.758 201.719 213.906 201.951Z" fill="black"/>
<path fill-rule="evenodd" clip-rule="evenodd" d="M205.416 176.723C205.569 176.952 205.507 177.263 205.277 177.416C205.077 177.55 204.765 177.688 204.405 177.827C204.033 177.971 203.571 178.129 203.045 178.298C201.992 178.636 200.662 179.019 199.245 179.407C196.409 180.184 193.203 180.985 191.117 181.486C190.848 181.551 190.578 181.385 190.514 181.117C190.449 180.848 190.615 180.578 190.883 180.514C192.963 180.015 196.158 179.216 198.981 178.443C200.392 178.056 201.706 177.677 202.74 177.346C203.257 177.18 203.698 177.028 204.045 176.894C204.403 176.756 204.623 176.65 204.723 176.584C204.953 176.431 205.263 176.493 205.416 176.723Z" fill="black"/>
<path fill-rule="evenodd" clip-rule="evenodd" d="M189.555 95.0697C189.456 95.0755 189.356 95.0813 189.256 95.087C187.249 95.2013 185.245 95.3908 183.233 95.5812C182.677 95.6339 182.119 95.6866 181.561 95.7378C180.997 95.7896 180.459 95.8779 179.901 95.9694C179.575 96.0228 179.243 96.0773 178.895 96.1263C178.66 96.1594 178.429 96.2031 178.184 96.2496C178.128 96.2603 178.071 96.271 178.014 96.2818C177.911 96.3011 177.824 96.3148 177.747 96.3271C177.595 96.3511 177.48 96.3693 177.356 96.4119C176.66 96.6493 176.165 97.024 175.977 97.6168C175.893 97.8799 175.612 98.0253 175.349 97.9416C175.085 97.8579 174.94 97.5767 175.024 97.3136C175.348 96.2942 176.187 95.7541 177.033 95.4654C177.244 95.3935 177.492 95.354 177.676 95.3245C177.735 95.3152 177.787 95.307 177.83 95.299C177.882 95.2891 177.935 95.279 177.989 95.2688C178.235 95.222 178.494 95.1728 178.755 95.136C179.055 95.0939 179.366 95.0431 179.683 94.9912C180.269 94.8956 180.876 94.7965 181.47 94.742C182.022 94.6914 182.575 94.6391 183.129 94.5866C185.143 94.396 187.172 94.2041 189.199 94.0887C189.297 94.0831 189.394 94.0774 189.493 94.0716C190.097 94.0363 190.717 94 191.339 94C191.615 94 191.839 94.2239 191.839 94.5C191.839 94.7761 191.615 95 191.339 95C190.749 95 190.161 95.0343 189.555 95.0697Z" fill="black"/>
<path fill-rule="evenodd" clip-rule="evenodd" d="M218.6 111.767C218.876 111.767 219.1 111.99 219.1 112.267V119.48C219.1 119.756 218.876 119.98 218.6 119.98C218.323 119.98 218.1 119.756 218.1 119.48V112.267C218.1 111.99 218.323 111.767 218.6 111.767Z" fill="black"/>
<path fill-rule="evenodd" clip-rule="evenodd" d="M242.935 124.646C243.13 124.842 243.13 125.158 242.935 125.354C241.192 127.097 239.247 127.096 237.157 127.095C237.105 127.095 237.052 127.095 237 127.095C236.724 127.095 236.5 126.871 236.5 126.595C236.5 126.319 236.724 126.095 237 126.095L237.03 126.095C239.219 126.095 240.78 126.095 242.228 124.646C242.423 124.451 242.74 124.451 242.935 124.646Z" fill="black"/>
<path fill-rule="evenodd" clip-rule="evenodd" d="M216.292 168.236C216.567 168.261 216.77 168.505 216.745 168.78C216.61 170.261 216.162 171.652 215.651 172.98C215.46 173.476 215.263 173.957 215.069 174.43C214.735 175.247 214.409 176.043 214.136 176.863C214.049 177.125 213.766 177.267 213.504 177.179C213.242 177.092 213.1 176.809 213.187 176.547C213.47 175.7 213.82 174.844 214.164 174.002C214.354 173.536 214.543 173.074 214.718 172.62C215.218 171.321 215.627 170.032 215.749 168.689C215.774 168.414 216.017 168.211 216.292 168.236Z" fill="black"/>
</g>
<defs>
<clipPath id="clip0_128_38554">
<rect width="311" height="218" fill="white"/>
</clipPath>
<clipPath id="clip1_128_38554">
<rect width="60" height="60" fill="white" transform="translate(98 46.8086)"/>
</clipPath>
</defs>
</svg>
