<svg width="290" height="292" viewBox="0 0 290 292" fill="none" xmlns="http://www.w3.org/2000/svg">
<circle opacity="0.3" cx="144" cy="148" r="144" fill="#FFF7DF"/>
<rect x="15" y="52" width="111" height="69" rx="5.42034" fill="url(#paint0_linear_6501_84912)"/>
<g opacity="0.5">
<rect x="24.4834" y="103.008" width="86.0268" height="10.2393" rx="2.71017" fill="#FAF7F7"/>
</g>
<path d="M44.976 77.9053H27.1038C25.5423 77.9053 24.2634 79.179 24.2474 80.7501L24.1163 93.6239C24.1003 95.1951 25.3532 96.4688 26.9148 96.4688H44.787C46.3485 96.4688 47.6274 95.1951 47.6434 93.6239L47.7745 80.7501C47.7905 79.179 46.5376 77.9053 44.976 77.9053Z" fill="url(#paint1_linear_6501_84912)"/>
<g opacity="0.48">
<path d="M36.523 77.9053H27.0776C25.5311 77.9053 24.2624 79.2763 24.2452 80.9674L24.1414 91.1548L24.3059 85.3183L36.523 77.9053Z" fill="url(#paint2_linear_6501_84912)"/>
<path opacity="0.35" d="M47.7752 80.9674C47.7923 79.2763 46.5515 77.9053 45.005 77.9053L36.5227 77.9053L24.3061 85.3183L24.1332 91.1548L24.1104 93.4037C24.0968 93.9452 24.2239 94.4795 24.479 94.9537C24.7342 95.4279 25.1086 95.8257 25.5653 96.1077L47.7495 82.6408L47.7752 80.9674Z" fill="white"/>
<path d="M39.4118 96.4688L47.665 91.4572L47.6684 91.4161L47.7209 86.2549L30.8945 96.4688H39.4118Z" fill="url(#paint3_linear_6501_84912)"/>
<path opacity="0.35" d="M39.4118 96.4688L47.665 91.4572L47.6684 91.4161L47.7209 86.2549L30.8945 96.4688H39.4118Z" fill="white"/>
</g>
<path opacity="0.61" d="M44.3597 77.9727H27.3658C25.5071 77.9727 23.9792 79.2938 23.9628 80.9085L23.8312 93.8263C23.8147 95.4499 25.3157 96.7622 27.1744 96.7622H44.1683C46.0271 96.7622 47.552 95.444 47.5684 93.8263L47.7 80.9085C47.7164 79.2938 46.2184 77.9727 44.3597 77.9727ZM24.1729 80.9085C24.1881 79.4142 25.6186 78.1958 27.3635 78.1958H35.2039L35.1947 79.1L35.1011 79.1206C34.9871 79.1411 34.8701 79.1676 34.759 79.1969L34.5892 79.2468C34.4838 79.2791 34.3813 79.3173 34.2963 79.3555C34.2524 79.3731 34.2085 79.3877 34.1674 79.4083C34.035 79.4658 33.9058 79.5305 33.7803 79.6021C33.7304 79.6285 33.6805 79.6608 33.6335 79.6901C33.5865 79.7195 33.4749 79.7929 33.3985 79.8457C33.322 79.8986 33.3162 79.8986 33.278 79.9279C33.1927 79.9925 33.1103 80.063 33.0337 80.1305L32.9984 80.1628C32.9248 80.2303 32.8511 80.3008 32.7685 80.3889L32.7479 80.4094C32.677 80.4858 32.612 80.565 32.55 80.6443L32.5234 80.6766C32.3828 80.8558 32.2588 81.0474 32.1528 81.2491C32.1525 81.2755 32.126 81.3019 32.1141 81.3284L32.0902 81.3753C32.0605 81.434 32.0336 81.4928 32.0097 81.5515C31.9922 81.5886 31.9772 81.6269 31.9647 81.666L31.9348 81.7394H24.1644L24.1729 80.9085ZM24.1622 81.9596H31.8421C31.8418 81.9919 31.8414 82.0271 31.8207 82.0594C31.7903 82.1709 31.7658 82.2854 31.7442 82.4029C31.7437 82.4499 31.7432 82.4998 31.7223 82.5467C31.7013 82.6977 31.689 82.8496 31.6856 83.0018C31.6775 83.8062 31.924 84.5897 32.3894 85.2389C32.444 85.3182 32.4869 85.4063 32.5356 85.4885H24.1262L24.1622 81.9596ZM24.1238 85.7233H32.65C32.7065 85.8465 32.7559 85.973 32.7978 86.1021C32.7975 86.1373 32.8175 86.1755 32.8259 86.2136C32.8572 86.3266 32.8823 86.4413 32.9012 86.5571C32.9008 86.5982 32.9003 86.6393 32.9203 86.6804C32.9408 86.8341 32.9509 86.9891 32.9506 87.1443L32.9447 87.7315C32.9416 87.8916 32.9283 88.0514 32.9048 88.21C32.9042 88.2687 32.8803 88.3245 32.868 88.3803C32.8558 88.4361 32.8281 88.5741 32.8008 88.6739C32.7736 88.7737 32.7587 88.8001 32.7347 88.8647C32.7056 88.9488 32.6716 89.0311 32.633 89.1113C32.6061 89.173 32.5734 89.2346 32.5407 89.2934C32.508 89.3521 32.5021 89.355 32.4842 89.3902H24.0865L24.1238 85.7233ZM24.0844 89.5987H32.3537C31.8652 90.2567 31.5992 91.0537 31.5953 91.8711C31.5948 92.0154 31.6031 92.1595 31.6201 92.3026C31.6184 92.3222 31.6182 92.3418 31.6195 92.3613C31.64 92.4931 31.6679 92.6234 31.703 92.7518C31.703 92.7518 31.703 92.7518 31.7028 92.7753H24.052L24.0844 89.5987ZM35.0172 96.5303H27.1768C25.4261 96.5303 24.0262 95.3148 24.0414 93.8175L24.0498 92.9955H31.7589C31.7585 93.0337 31.7873 93.0689 31.8015 93.1071C31.8157 93.1452 31.8582 93.2685 31.8925 93.3478C31.9267 93.4271 31.9466 93.474 31.9752 93.5357C32.0295 93.6473 32.0867 93.7529 32.1499 93.8586C32.1872 93.9203 32.2303 93.979 32.2706 94.0407C32.3108 94.1023 32.354 94.161 32.4 94.2197C32.4461 94.2785 32.4865 94.3284 32.5326 94.3812C32.6155 94.4841 32.7041 94.5821 32.7981 94.6748C32.827 94.7042 32.8588 94.7306 32.8906 94.757C32.9773 94.8363 33.0671 94.9097 33.1597 94.9801L33.2582 95.0535C33.5189 95.2391 33.8003 95.3938 34.0968 95.5145H34.1376C34.4229 95.6308 34.7206 95.7145 35.025 95.764L35.0172 96.5303ZM47.3613 93.8175C47.3461 95.3148 45.9127 96.5303 44.1707 96.5303H36.3332L36.3409 95.7787C36.5384 95.7503 36.7338 95.7081 36.9257 95.6524C37.571 95.4743 38.164 95.1383 38.6514 94.6746C39.1389 94.2109 39.5057 93.634 39.719 92.9955H47.3697L47.3613 93.8175ZM47.372 92.7694H39.5608L39.5366 92.8487C39.3386 93.4804 38.9828 94.0519 38.5033 94.508C38.0239 94.9641 37.4371 95.2895 36.7994 95.4528C36.6072 95.5041 36.4118 95.5413 36.2146 95.5644H36.1242L36.1145 96.5185H35.2216L35.2314 95.5585H35.2139L35.0653 95.5321H34.9924H34.9603C34.8844 95.5321 34.8059 95.5057 34.7332 95.4851L34.6575 95.4646C34.3394 95.3796 34.0331 95.2564 33.745 95.0976C33.7257 95.0886 33.7072 95.0778 33.6899 95.0653C33.5768 95.0007 33.4724 94.9302 33.3681 94.8568L33.2783 94.7952C33.1695 94.7128 33.0652 94.6246 32.9659 94.5309C32.9283 94.4957 32.8908 94.4546 32.8532 94.4165C32.8157 94.3783 32.7377 94.2961 32.683 94.2315C32.6282 94.1669 32.5964 94.1317 32.5561 94.0788C32.5158 94.026 32.4497 93.932 32.4008 93.8586C32.3519 93.7852 32.3003 93.6972 32.2545 93.612C32.2087 93.5269 32.1829 93.4828 32.1514 93.4183C32.12 93.3537 32.0943 93.2979 32.0716 93.2362C32.0289 93.1305 31.9891 93.0248 31.9552 92.9133L31.9412 92.8575C31.8984 92.7032 31.8649 92.5463 31.841 92.3878L31.8416 92.3261C31.7293 91.4215 31.9709 90.5047 32.5154 89.769C32.5262 89.7488 32.5381 89.7292 32.551 89.7103L32.6192 89.6075L32.6489 89.5576L32.6667 89.5253L32.7557 89.3814L32.8361 89.22C32.8749 89.1348 32.9079 89.0497 32.9409 88.9616C32.9739 88.8735 32.9978 88.8207 33.0189 88.7473C33.0401 88.6739 33.0706 88.5447 33.092 88.4537C33.1133 88.3627 33.1224 88.3275 33.1319 88.2599C33.1581 88.0878 33.1725 87.9142 33.1751 87.7403L33.1811 87.1531C33.1813 86.9891 33.1713 86.8253 33.151 86.6628C33.1516 86.6041 33.1318 86.5483 33.1236 86.4925C33.1042 86.3869 33.0819 86.2841 33.0567 86.1813L33.006 86.0023C32.9749 85.9112 32.9379 85.8202 32.9008 85.7322H32.9154L32.8382 85.5736L32.8384 85.5589L32.8155 85.512C32.7468 85.3767 32.6691 85.2463 32.5832 85.1215C32.1482 84.5124 31.9168 83.7789 31.9217 83.0253C31.9243 82.8592 31.9387 82.6934 31.9647 82.5291L31.9834 82.4117C32.0109 82.2636 32.0484 82.1174 32.0958 81.9742C32.3583 81.1851 32.8708 80.5021 33.5541 80.0307C33.6208 79.9818 33.6913 79.9348 33.7657 79.8898L33.9389 79.787C34.0474 79.7312 34.1559 79.6755 34.2673 79.6285L34.4313 79.5639C34.5309 79.5257 34.6305 79.4905 34.7242 79.4611L34.8939 79.4142C35.0087 79.3848 35.1248 79.3612 35.2418 79.3437H35.3265H35.4198L35.4315 78.2017H36.3244L36.3132 79.2938H36.4037H36.4241C36.5727 79.3143 36.7154 79.3437 36.8638 79.3789L36.9861 79.4112C37.1207 79.4454 37.2528 79.4886 37.3816 79.5404L37.431 79.558C37.5714 79.6152 37.7081 79.6809 37.8404 79.7547L37.9478 79.8134C38.0609 79.881 38.174 79.9544 38.2811 80.0336C38.8453 80.4444 39.2839 81.0052 39.5485 81.6542C39.5485 81.6542 39.5483 81.6777 39.5481 81.6895C39.5794 81.7687 39.6078 81.848 39.6303 81.9273C39.6756 82.0776 39.7121 82.2305 39.7395 82.3853C39.7391 82.4205 39.7387 82.4587 39.753 82.4939C39.7766 82.6601 39.7885 82.8278 39.7887 82.9959C39.7828 83.7598 39.5328 84.504 39.0755 85.1186C38.9859 85.2447 38.9056 85.3771 38.8351 85.5149L38.8113 85.5619L38.8112 85.5766L38.7278 85.7439C38.6889 85.8349 38.65 85.9259 38.6199 86.0199C38.6048 86.0668 38.5898 86.1109 38.5777 86.1579C38.5417 86.2754 38.5132 86.395 38.4923 86.516C38.4919 86.5601 38.4739 86.607 38.4676 86.6511C38.4424 86.8164 38.429 86.9832 38.4275 87.1502L38.4213 87.755C38.4099 88.3931 38.5721 89.0205 38.8901 89.5693L38.9217 89.6192H47.3837L47.372 92.7694ZM47.4066 89.3697H39.0322C38.7542 88.8721 38.6129 88.3078 38.6229 87.7344L38.629 87.1355C38.6319 86.9812 38.6452 86.8272 38.6687 86.6746C38.6691 86.6335 38.6695 86.5953 38.6874 86.5542C38.7083 86.4351 38.7368 86.3174 38.7727 86.2019L38.8 86.1021C38.843 85.9748 38.894 85.8502 38.9526 85.7292H47.4437L47.4066 89.3697ZM47.4461 85.4943H39.0921C39.1396 85.4063 39.1921 85.321 39.2494 85.2389C39.7221 84.5894 39.9812 83.8088 39.9899 83.0077C39.9911 82.8535 39.9819 82.6995 39.9625 82.5467L39.9464 82.4117C39.9243 82.2884 39.9022 82.1621 39.8714 82.0418C39.8716 82.0153 39.8719 81.9889 39.8546 81.9654H47.482L47.4461 85.4943ZM39.7811 81.7394L39.7527 81.663L39.7356 81.6161L39.7158 81.5603C39.6901 81.4986 39.6616 81.4399 39.6273 81.3695L39.6102 81.3284L39.5759 81.255C39.5244 81.1581 39.4699 81.0612 39.4126 80.9614L39.3752 80.9085C39.3235 80.8293 39.2717 80.7529 39.217 80.6795L39.1594 80.612C39.1075 80.5445 39.0528 80.477 38.995 80.4153L38.9373 80.3507L38.7813 80.198H38.7667L38.7466 80.1746L38.6945 80.1276C38.6482 80.0865 38.5932 80.0424 38.5411 80.0013L38.492 79.9602L38.4572 79.9309L38.4312 79.9133C38.4109 79.8956 38.3848 79.8839 38.3616 79.8663C38.2684 79.7959 38.1716 79.7303 38.0718 79.6696L37.9645 79.605C37.8329 79.5308 37.6972 79.4642 37.558 79.4054L37.4708 79.3731C37.3517 79.3261 37.2295 79.285 37.1045 79.2468L36.9823 79.2116C36.8309 79.1734 36.6912 79.1382 36.5193 79.1147L36.5283 78.2339H44.3716C46.1224 78.2339 47.5222 79.4523 47.507 80.9467L47.4986 81.7717L39.7811 81.7394Z" fill="white"/>
<path d="M44.5399 77.7793H27.546C25.6843 77.7793 24.1594 79.0975 24.143 80.7152L24.0114 93.633C23.9949 95.2536 25.493 96.5688 27.3546 96.5688H44.3485C46.2072 96.5688 47.7322 95.2477 47.7486 93.633L47.8802 80.7152C47.8907 79.1092 46.3986 77.7793 44.5399 77.7793ZM24.353 80.7152C24.3683 79.2179 25.7988 78.0024 27.5437 78.0024H35.3841L35.3751 78.8832L35.2815 78.9067C35.1663 78.9262 35.0521 78.9517 34.9394 78.983L34.7696 79.0329C34.6642 79.0652 34.5617 79.1004 34.4621 79.1415L34.3332 79.1914C34.1984 79.2502 34.0723 79.3148 33.9461 79.3852C33.8962 79.4146 33.8463 79.4439 33.7993 79.4762C33.7522 79.5085 33.6407 79.576 33.5642 79.6318C33.4878 79.6876 33.482 79.6817 33.4438 79.714C33.3585 79.7786 33.2761 79.8461 33.1996 79.9137L33.1642 79.946C33.0906 80.0135 33.0169 80.084 32.9343 80.172L32.9136 80.1955C32.8428 80.2718 32.7779 80.3482 32.7158 80.4274L32.6892 80.4627C32.5486 80.6409 32.4246 80.8315 32.3186 81.0322C32.3184 81.0587 32.2918 81.088 32.2799 81.1144L32.256 81.1614C32.2292 81.2201 32.1994 81.2759 32.1755 81.3346C32.1515 81.3934 32.1426 81.4139 32.1276 81.4521L32.1006 81.5225H24.3448L24.353 80.7152ZM24.3423 81.7662H32.0223C32.022 81.7985 32.0216 81.8308 32.0009 81.8631C31.9705 81.9776 31.946 82.0921 31.9244 82.2066C31.9239 82.2565 31.9234 82.3035 31.9025 82.3534C31.8814 82.5043 31.8691 82.6562 31.8658 82.8084C31.8581 83.6128 32.1045 84.3961 32.5695 85.0456C32.6242 85.1248 32.67 85.2129 32.7158 85.2951H24.3064L24.3423 81.7662ZM24.304 85.53H32.8418C32.8994 85.6527 32.9488 85.7792 32.9897 85.9087C32.9893 85.9439 33.0094 85.9821 33.0178 86.0173C33.0501 86.131 33.0752 86.2467 33.093 86.3638C33.0926 86.4049 33.1068 86.446 33.1122 86.4871C33.1327 86.6407 33.1428 86.7957 33.1425 86.9509L33.1365 87.5381C33.1337 87.6982 33.1204 87.8581 33.0966 88.0167C33.096 88.0754 33.0721 88.1312 33.0628 88.1899C33.0534 88.2486 33.02 88.3807 32.9927 88.4835C32.9653 88.5862 32.9505 88.6097 32.9265 88.6743C32.8969 88.7572 32.8629 88.8386 32.8248 88.918C32.7979 88.9826 32.7652 89.0413 32.7325 89.1029L32.6761 89.1969H24.2667L24.304 85.53ZM24.2645 89.4053H32.5339C32.0557 90.0548 31.7933 90.8381 31.7846 91.6425C31.7839 91.7868 31.7922 91.9309 31.8093 92.074C31.8077 92.0946 31.8075 92.1152 31.8087 92.1357C31.8243 92.27 31.8473 92.4033 31.8776 92.535C31.8776 92.535 31.8775 92.5496 31.8774 92.5555H24.2325L24.2645 89.4053ZM35.1974 96.3369H27.357C25.6062 96.3369 24.2063 95.1215 24.2216 93.6242L24.23 92.8021H31.9391C31.9387 92.8403 31.9675 92.8726 31.9817 92.9108C32.0101 92.993 32.0385 93.0722 32.0726 93.1544C32.1068 93.2366 32.1268 93.2807 32.1554 93.3394C32.2097 93.451 32.2669 93.5596 32.33 93.6653C32.3673 93.7269 32.4105 93.7856 32.4508 93.8444L32.5802 94.0264C32.6235 94.0792 32.6667 94.135 32.7128 94.1879C32.7589 94.2407 32.883 94.3816 32.9783 94.4814L33.0708 94.5637C33.1576 94.64 33.2472 94.7163 33.3399 94.7868L33.4384 94.8602C33.6998 95.0446 33.981 95.1992 34.2769 95.3211H34.3178C34.599 95.4341 34.8916 95.5168 35.1906 95.5677L35.1974 96.3369ZM47.5414 93.633C47.5262 95.1303 46.0928 96.3457 44.3508 96.3457H36.5075L36.5151 95.5941C36.7124 95.5644 36.9077 95.5222 37.1 95.4679C37.7436 95.2911 38.3355 94.9573 38.8228 94.4963C39.3101 94.0353 39.6778 93.4614 39.8931 92.8256H47.5526L47.5414 93.633ZM47.5521 92.5819H39.7409L39.7167 92.6612C39.5192 93.2932 39.1635 93.8649 38.684 94.3211C38.2045 94.7773 37.6174 95.1025 36.9795 95.2653C36.7874 95.3176 36.592 95.3558 36.3947 95.3798H36.3014L36.2916 96.3369H35.4017L35.4113 95.3945H35.3937L35.2452 95.371H35.1722H35.1401L34.913 95.324L34.8374 95.3006C34.5194 95.2166 34.213 95.0944 33.9249 94.9365L33.8698 94.9013C33.7587 94.839 33.6512 94.7704 33.548 94.6958L33.4582 94.6312C33.3495 94.5496 33.2452 94.4624 33.1457 94.3699L33.0331 94.2554L32.8628 94.0704C32.8196 94.0176 32.7763 93.9677 32.736 93.9148C32.6957 93.862 32.6295 93.771 32.5807 93.6946C32.5319 93.6183 32.4802 93.5332 32.4343 93.451C32.3885 93.3688 32.3627 93.3218 32.3313 93.2543C32.2999 93.1867 32.2742 93.1339 32.2515 93.0722C32.2287 93.0106 32.169 92.8608 32.1351 92.7522L32.1182 92.6935C32.0771 92.539 32.0446 92.3821 32.0208 92.2238L32.0214 92.165C31.9084 91.2595 32.15 90.3415 32.6953 89.605C32.7061 89.5857 32.718 89.5671 32.7309 89.5492L32.799 89.4464L32.8287 89.3936L32.8465 89.3642L32.9356 89.2174L33.016 89.0589C33.0548 88.9738 33.0878 88.8857 33.1208 88.7976C33.1538 88.7095 33.1776 88.6567 33.1988 88.5833C33.22 88.5099 33.2505 88.3807 33.2718 88.2897C33.2932 88.1987 33.3023 88.1635 33.3117 88.0989C33.3392 87.9269 33.3537 87.7532 33.3549 87.5792L33.3609 86.992C33.3612 86.8271 33.3512 86.6623 33.3309 86.4988C33.3315 86.443 33.3116 86.3873 33.3035 86.3285C33.2841 86.2229 33.2618 86.1201 33.2337 86.0173C33.2056 85.9146 33.2028 85.8999 33.1859 85.8412C33.169 85.7825 33.1177 85.6592 33.0807 85.5711L33.0035 85.4126L32.9806 85.3656C32.9119 85.2294 32.8343 85.098 32.7483 84.9722C32.3124 84.3638 32.0818 83.6296 32.0898 82.876C32.0925 82.7099 32.1068 82.5441 32.1327 82.3798L32.1514 82.2653C32.18 82.1174 32.2175 81.9713 32.2638 81.8279C32.5133 81.0226 33.0215 80.3212 33.7081 79.8344C33.7757 79.7874 33.8462 79.7375 33.9196 79.6935L34.0928 79.5937C34.2013 79.5349 34.3098 79.4821 34.4212 79.4351L34.5853 79.3705C34.6849 79.3324 34.7844 79.2971 34.8781 79.2648L35.0449 79.2208C35.1597 79.1914 35.2758 79.1679 35.3928 79.1503L35.4776 79.1327H35.571L35.5823 78.02H36.4723L36.4612 79.1122H36.5546H36.5779C36.7251 79.1308 36.871 79.1582 37.0148 79.1944L37.1399 79.2267C37.2708 79.2648 37.4046 79.3059 37.5325 79.3559L37.5819 79.3735C37.7214 79.4322 37.8578 79.4997 37.9913 79.5702L38.0987 79.6318C38.2118 79.6994 38.3248 79.7728 38.432 79.8491C38.9962 80.2598 39.4348 80.8207 39.6994 81.4697C39.6985 81.4824 39.6984 81.4951 39.699 81.5078C39.7274 81.5842 39.7558 81.6664 39.7783 81.7457C39.8236 81.8959 39.86 82.0489 39.8874 82.2036C39.8871 82.2389 39.8867 82.2741 39.8863 82.3123C39.9099 82.4775 39.9219 82.6442 39.9221 82.8114C39.9138 83.5626 39.6693 84.2943 39.2238 84.9017C39.1342 85.0288 39.0539 85.1623 38.9834 85.301L38.9596 85.348L38.8762 85.5182C38.8373 85.6093 38.7985 85.7003 38.7683 85.7942C38.7512 85.8392 38.7371 85.8853 38.7261 85.9322C38.6928 86.0496 38.6624 86.1671 38.6407 86.2874C38.6403 86.3344 38.6223 86.3785 38.616 86.4254C38.5923 86.5909 38.5789 86.7576 38.5759 86.9245L38.5699 87.5117C38.5596 88.1497 38.7216 88.7768 39.0387 89.3261L39.0703 89.3789H47.5468L47.5521 92.5819ZM47.5867 89.1851H39.224C38.9456 88.6866 38.8043 88.1213 38.8147 87.5469L38.8206 86.9598C38.824 86.8046 38.8363 86.6498 38.8575 86.4959C38.8579 86.4577 38.8583 86.4166 38.8791 86.3785C38.9003 86.2585 38.9288 86.1398 38.9644 86.0232C38.9647 85.9909 38.9651 85.9586 38.9917 85.9263C39.0347 85.799 39.0857 85.6745 39.1443 85.5535H47.6237L47.5867 89.1851ZM47.6262 85.3098H39.2722C39.3227 85.2247 39.3703 85.1336 39.4265 85.0544C39.9013 84.4058 40.1616 83.6248 40.17 82.8231C40.1711 82.6689 40.162 82.5149 40.1426 82.3622L40.1265 82.2271C40.1073 82.1009 40.0823 81.9776 40.0515 81.8543C40.0445 81.8302 40.0389 81.8057 40.0347 81.7809H47.6621L47.6262 85.3098ZM39.9612 81.546L39.9299 81.4667L39.9129 81.4198C39.9131 81.3992 39.9133 81.3816 39.8931 81.364C39.8674 81.3023 39.8389 81.2407 39.8075 81.1732L39.7875 81.1291L39.7532 81.0587C39.7017 80.9588 39.6472 80.8649 39.5899 80.7651L39.5525 80.7093C39.5008 80.633 39.449 80.5566 39.3943 80.4832L39.3396 80.4128C39.2848 80.3452 39.2301 80.2807 39.1724 80.2161L39.1146 80.1544L38.9586 79.9988L38.9384 79.9783L38.8864 79.9284C38.8401 79.8872 38.7851 79.8461 38.733 79.805L38.6839 79.761L38.6491 79.7346L38.6231 79.714L38.5535 79.67C38.4602 79.5996 38.3635 79.534 38.2637 79.4733L38.1564 79.4087C38.0248 79.3345 37.8891 79.2679 37.7499 79.2091C37.7206 79.1956 37.6905 79.1838 37.6598 79.1738C37.541 79.1262 37.4197 79.085 37.2963 79.0505L37.1741 79.0153C37.0219 78.974 36.8673 78.9416 36.7112 78.9184L36.7202 78.0377H44.5635C46.3142 78.0377 47.7141 79.2531 47.6989 80.7504L47.6905 81.5724L39.9612 81.546Z" fill="#856400"/>
<mask id="mask0_6501_84912" style="mask-type:luminance" maskUnits="userSpaceOnUse" x="24" y="77" width="24" height="20">
<path d="M39.1314 96.5835H32.5717C27.827 96.5835 24.0236 92.3764 24.0762 87.1888C24.1288 82.0011 28.0174 77.794 32.7621 77.794L39.3218 77.794C44.0638 77.7793 47.8611 81.9981 47.8087 87.1741C47.756 92.3764 43.8732 96.5835 39.1314 96.5835Z" fill="white"/>
</mask>
<g mask="url(#mask0_6501_84912)">
<path style="mix-blend-mode:screen" opacity="0.41" d="M-4.5595 108.072C-5.83471 105.489 10.7182 92.8382 32.4133 79.8176C54.1083 66.797 72.7313 58.3388 74.0065 60.9223C75.2817 63.5059 58.7171 76.1595 37.0337 89.1801C15.3503 102.201 -3.28436 110.662 -4.5595 108.072Z" fill="url(#paint4_radial_6501_84912)"/>
<path style="mix-blend-mode:screen" opacity="0.41" d="M10.8953 111.043C10.229 109.71 23.4165 100.386 40.3326 90.2426C57.2488 80.0992 71.4997 72.9386 72.1572 74.2715C72.8147 75.6043 59.639 84.9199 42.7228 95.0721C25.8066 105.224 11.5558 112.376 10.8953 111.043Z" fill="url(#paint5_radial_6501_84912)"/>
</g>
<rect x="170" y="113" width="111" height="69" rx="5.42034" fill="url(#paint6_linear_6501_84912)"/>
<g opacity="0.5">
<rect x="179.483" y="164.008" width="86.0268" height="10.2393" rx="2.71017" fill="#FAF7F7"/>
</g>
<path d="M199.976 138.905H182.104C180.542 138.905 179.263 140.179 179.247 141.75L179.116 154.624C179.1 156.195 180.353 157.469 181.915 157.469H199.787C201.349 157.469 202.627 156.195 202.643 154.624L202.775 141.75C202.791 140.179 201.538 138.905 199.976 138.905Z" fill="url(#paint7_linear_6501_84912)"/>
<g opacity="0.48">
<path d="M191.523 138.905H182.078C180.531 138.905 179.262 140.276 179.245 141.967L179.141 152.155L179.306 146.318L191.523 138.905Z" fill="url(#paint8_linear_6501_84912)"/>
<path opacity="0.35" d="M202.775 141.967C202.792 140.276 201.551 138.905 200.005 138.905H191.523L179.306 146.318L179.133 152.155L179.11 154.404C179.097 154.945 179.224 155.479 179.479 155.954C179.734 156.428 180.109 156.826 180.565 157.108L202.749 143.641L202.775 141.967Z" fill="white"/>
<path d="M194.412 157.469L202.665 152.457L202.668 152.416L202.721 147.255L185.895 157.469H194.412Z" fill="url(#paint9_linear_6501_84912)"/>
<path opacity="0.35" d="M194.412 157.469L202.665 152.457L202.668 152.416L202.721 147.255L185.895 157.469H194.412Z" fill="white"/>
</g>
<path opacity="0.61" d="M199.36 138.973H182.366C180.507 138.973 178.979 140.294 178.963 141.909L178.831 154.826C178.815 156.45 180.316 157.762 182.174 157.762H199.168C201.027 157.762 202.552 156.444 202.568 154.826L202.7 141.909C202.716 140.294 201.218 138.973 199.36 138.973ZM179.173 141.909C179.188 140.414 180.619 139.196 182.364 139.196H190.204L190.195 140.1L190.101 140.121C189.987 140.141 189.87 140.168 189.759 140.197L189.589 140.247C189.484 140.279 189.381 140.317 189.296 140.355C189.252 140.373 189.208 140.388 189.167 140.408C189.035 140.466 188.906 140.53 188.78 140.602C188.73 140.628 188.68 140.661 188.633 140.69C188.586 140.719 188.475 140.793 188.398 140.846C188.322 140.899 188.316 140.899 188.278 140.928C188.193 140.993 188.11 141.063 188.034 141.131L187.998 141.163C187.925 141.23 187.851 141.301 187.768 141.389L187.748 141.409C187.677 141.486 187.612 141.565 187.55 141.644L187.523 141.677C187.383 141.856 187.259 142.047 187.153 142.249C187.153 142.276 187.126 142.302 187.114 142.328L187.09 142.375C187.06 142.434 187.034 142.493 187.01 142.551C186.992 142.589 186.977 142.627 186.965 142.666L186.935 142.739H179.164L179.173 141.909ZM179.162 142.96H186.842C186.842 142.992 186.841 143.027 186.821 143.059C186.79 143.171 186.766 143.285 186.744 143.403C186.744 143.45 186.743 143.5 186.722 143.547C186.701 143.698 186.689 143.85 186.686 144.002C186.678 144.806 186.924 145.59 187.389 146.239C187.444 146.318 187.487 146.406 187.536 146.488H179.126L179.162 142.96ZM179.124 146.723H187.65C187.707 146.847 187.756 146.973 187.798 147.102C187.797 147.137 187.818 147.175 187.826 147.214C187.857 147.327 187.882 147.441 187.901 147.557C187.901 147.598 187.9 147.639 187.92 147.68C187.941 147.834 187.951 147.989 187.951 148.144L187.945 148.731C187.942 148.892 187.928 149.051 187.905 149.21C187.904 149.269 187.88 149.325 187.868 149.38C187.856 149.436 187.828 149.574 187.801 149.674C187.774 149.774 187.759 149.8 187.735 149.865C187.706 149.949 187.672 150.031 187.633 150.111C187.606 150.173 187.573 150.235 187.541 150.293C187.508 150.352 187.502 150.355 187.484 150.39H179.086L179.124 146.723ZM179.084 150.599H187.354C186.865 151.257 186.599 152.054 186.595 152.871C186.595 153.015 186.603 153.159 186.62 153.303C186.618 153.322 186.618 153.342 186.619 153.361C186.64 153.493 186.668 153.623 186.703 153.752C186.703 153.752 186.703 153.752 186.703 153.775H179.052L179.084 150.599ZM190.017 157.53H182.177C180.426 157.53 179.026 156.315 179.041 154.818L179.05 153.995H186.759C186.759 154.034 186.787 154.069 186.802 154.107C186.816 154.145 186.858 154.269 186.892 154.348C186.927 154.427 186.947 154.474 186.975 154.536C187.029 154.647 187.087 154.753 187.15 154.859C187.187 154.92 187.23 154.979 187.271 155.041C187.311 155.102 187.354 155.161 187.4 155.22C187.446 155.278 187.486 155.328 187.533 155.381C187.615 155.484 187.704 155.582 187.798 155.675C187.827 155.704 187.859 155.731 187.891 155.757C187.977 155.836 188.067 155.91 188.16 155.98L188.258 156.054C188.519 156.239 188.8 156.394 189.097 156.514H189.138C189.423 156.631 189.721 156.714 190.025 156.764L190.017 157.53ZM202.361 154.818C202.346 156.315 200.913 157.53 199.171 157.53H191.333L191.341 156.779C191.538 156.75 191.734 156.708 191.926 156.652C192.571 156.474 193.164 156.138 193.651 155.675C194.139 155.211 194.506 154.634 194.719 153.995H202.37L202.361 154.818ZM202.372 153.769H194.561L194.537 153.849C194.339 154.48 193.983 155.052 193.503 155.508C193.024 155.964 192.437 156.289 191.799 156.453C191.607 156.504 191.412 156.541 191.215 156.564H191.124L191.114 157.519H190.222L190.231 156.559H190.214L190.065 156.532H189.992H189.96C189.884 156.532 189.806 156.506 189.733 156.485L189.658 156.465C189.339 156.38 189.033 156.256 188.745 156.098C188.726 156.089 188.707 156.078 188.69 156.065C188.577 156.001 188.472 155.93 188.368 155.857L188.278 155.795C188.17 155.713 188.065 155.625 187.966 155.531C187.928 155.496 187.891 155.455 187.853 155.416C187.816 155.378 187.738 155.296 187.683 155.231C187.628 155.167 187.596 155.132 187.556 155.079C187.516 155.026 187.45 154.932 187.401 154.859C187.352 154.785 187.3 154.697 187.255 154.612C187.209 154.527 187.183 154.483 187.151 154.418C187.12 154.354 187.094 154.298 187.072 154.236C187.029 154.131 186.989 154.025 186.955 153.913L186.941 153.858C186.898 153.703 186.865 153.546 186.841 153.388L186.842 153.326C186.729 152.421 186.971 151.505 187.515 150.769C187.526 150.749 187.538 150.729 187.551 150.71L187.619 150.607L187.649 150.558L187.667 150.525L187.756 150.381L187.836 150.22C187.875 150.135 187.908 150.05 187.941 149.962C187.974 149.874 187.998 149.821 188.019 149.747C188.04 149.674 188.071 149.545 188.092 149.454C188.113 149.363 188.122 149.327 188.132 149.26C188.158 149.088 188.172 148.914 188.175 148.74L188.181 148.153C188.181 147.989 188.171 147.825 188.151 147.663C188.152 147.604 188.132 147.548 188.124 147.493C188.104 147.387 188.082 147.284 188.057 147.181L188.006 147.002C187.975 146.911 187.938 146.82 187.901 146.732H187.915L187.838 146.574L187.838 146.559L187.816 146.512C187.747 146.377 187.669 146.246 187.583 146.121C187.148 145.512 186.917 144.779 186.922 144.025C186.924 143.859 186.939 143.693 186.965 143.529L186.983 143.412C187.011 143.264 187.048 143.117 187.096 142.974C187.358 142.185 187.871 141.502 188.554 141.031C188.621 140.982 188.691 140.935 188.766 140.89L188.939 140.787C189.047 140.731 189.156 140.675 189.267 140.628L189.431 140.564C189.531 140.526 189.631 140.491 189.724 140.461L189.894 140.414C190.009 140.385 190.125 140.361 190.242 140.344H190.326H190.42L190.431 139.202H191.324L191.313 140.294H191.404H191.424C191.573 140.314 191.715 140.344 191.864 140.379L191.986 140.411C192.121 140.445 192.253 140.489 192.382 140.54L192.431 140.558C192.571 140.615 192.708 140.681 192.84 140.755L192.948 140.813C193.061 140.881 193.174 140.954 193.281 141.034C193.845 141.444 194.284 142.005 194.548 142.654C194.548 142.654 194.548 142.678 194.548 142.689C194.579 142.769 194.608 142.848 194.63 142.927C194.676 143.078 194.712 143.23 194.739 143.385C194.739 143.42 194.739 143.459 194.753 143.494C194.777 143.66 194.789 143.828 194.789 143.996C194.783 144.76 194.533 145.504 194.076 146.119C193.986 146.245 193.906 146.377 193.835 146.515L193.811 146.562L193.811 146.577L193.728 146.744C193.689 146.835 193.65 146.926 193.62 147.02C193.605 147.067 193.59 147.111 193.578 147.158C193.542 147.275 193.513 147.395 193.492 147.516C193.492 147.56 193.474 147.607 193.468 147.651C193.442 147.816 193.429 147.983 193.427 148.15L193.421 148.755C193.41 149.393 193.572 150.021 193.89 150.569L193.922 150.619H202.384L202.372 153.769ZM202.407 150.37H194.032C193.754 149.872 193.613 149.308 193.623 148.734L193.629 148.135C193.632 147.981 193.645 147.827 193.669 147.675C193.669 147.633 193.669 147.595 193.687 147.554C193.708 147.435 193.737 147.317 193.773 147.202L193.8 147.102C193.843 146.975 193.894 146.85 193.953 146.729H202.444L202.407 150.37ZM202.446 146.494H194.092C194.14 146.406 194.192 146.321 194.249 146.239C194.722 145.589 194.981 144.809 194.99 144.008C194.991 143.853 194.982 143.699 194.963 143.547L194.946 143.412C194.924 143.288 194.902 143.162 194.871 143.042C194.872 143.015 194.872 142.989 194.855 142.965H202.482L202.446 146.494ZM194.781 142.739L194.753 142.663L194.736 142.616L194.716 142.56C194.69 142.499 194.662 142.44 194.627 142.369L194.61 142.328L194.576 142.255C194.524 142.158 194.47 142.061 194.413 141.961L194.375 141.909C194.323 141.829 194.272 141.753 194.217 141.68L194.159 141.612C194.108 141.544 194.053 141.477 193.995 141.415L193.937 141.351L193.781 141.198H193.767L193.747 141.175L193.695 141.128C193.648 141.086 193.593 141.042 193.541 141.001L193.492 140.96L193.457 140.931L193.431 140.913C193.411 140.896 193.385 140.884 193.362 140.866C193.268 140.796 193.172 140.73 193.072 140.67L192.965 140.605C192.833 140.531 192.697 140.464 192.558 140.405L192.471 140.373C192.352 140.326 192.23 140.285 192.104 140.247L191.982 140.212C191.831 140.173 191.691 140.138 191.519 140.115L191.528 139.234H199.372C201.122 139.234 202.522 140.452 202.507 141.947L202.499 142.772L194.781 142.739Z" fill="white"/>
<path d="M199.54 138.779H182.546C180.684 138.779 179.159 140.098 179.143 141.715L179.011 154.633C178.995 156.254 180.493 157.569 182.355 157.569H199.349C201.207 157.569 202.732 156.248 202.749 154.633L202.88 141.715C202.891 140.109 201.399 138.779 199.54 138.779ZM179.353 141.715C179.368 140.218 180.799 139.002 182.544 139.002H190.384L190.375 139.883L190.282 139.907C190.166 139.926 190.052 139.952 189.939 139.983L189.77 140.033C189.664 140.065 189.562 140.1 189.462 140.142L189.333 140.191C189.198 140.25 189.072 140.315 188.946 140.385C188.896 140.415 188.846 140.444 188.799 140.476C188.752 140.509 188.641 140.576 188.564 140.632C188.488 140.688 188.482 140.682 188.444 140.714C188.358 140.779 188.276 140.846 188.2 140.914L188.164 140.946C188.091 141.013 188.017 141.084 187.934 141.172L187.914 141.196C187.843 141.272 187.778 141.348 187.716 141.427L187.689 141.463C187.549 141.641 187.425 141.832 187.319 142.032C187.318 142.059 187.292 142.088 187.28 142.114L187.256 142.161C187.229 142.22 187.199 142.276 187.175 142.335C187.152 142.393 187.143 142.414 187.128 142.452L187.101 142.523H179.345L179.353 141.715ZM179.342 142.766H187.022C187.022 142.798 187.022 142.831 187.001 142.863C186.971 142.978 186.946 143.092 186.924 143.207C186.924 143.256 186.923 143.303 186.903 143.353C186.881 143.504 186.869 143.656 186.866 143.808C186.858 144.613 187.105 145.396 187.57 146.046C187.624 146.125 187.67 146.213 187.716 146.295H179.306L179.342 142.766ZM179.304 146.53H187.842C187.899 146.653 187.949 146.779 187.99 146.909C187.989 146.944 188.009 146.982 188.018 147.017C188.05 147.131 188.075 147.247 188.093 147.364C188.093 147.405 188.107 147.446 188.112 147.487C188.133 147.641 188.143 147.796 188.142 147.951L188.137 148.538C188.134 148.698 188.12 148.858 188.097 149.017C188.096 149.075 188.072 149.131 188.063 149.19C188.053 149.249 188.02 149.381 187.993 149.483C187.965 149.586 187.951 149.61 187.927 149.674C187.897 149.757 187.863 149.839 187.825 149.918C187.798 149.983 187.765 150.041 187.732 150.103L187.676 150.197H179.267L179.304 146.53ZM179.265 150.405H187.534C187.056 151.055 186.793 151.838 186.785 152.642C186.784 152.787 186.792 152.931 186.809 153.074C186.808 153.095 186.808 153.115 186.809 153.136C186.824 153.27 186.847 153.403 186.878 153.535C186.878 153.535 186.877 153.55 186.877 153.556H179.232L179.265 150.405ZM190.197 157.337H182.357C180.606 157.337 179.206 156.121 179.222 154.624L179.23 153.802H186.939C186.939 153.84 186.968 153.873 186.982 153.911C187.01 153.993 187.038 154.072 187.073 154.154C187.107 154.237 187.127 154.281 187.155 154.339C187.21 154.451 187.267 154.56 187.33 154.665C187.367 154.727 187.411 154.786 187.451 154.844L187.58 155.026C187.623 155.079 187.667 155.135 187.713 155.188C187.759 155.241 187.883 155.382 187.978 155.481L188.071 155.564C188.158 155.64 188.247 155.716 188.34 155.787L188.438 155.86C188.7 156.045 188.981 156.199 189.277 156.321H189.318C189.599 156.434 189.892 156.517 190.191 156.568L190.197 157.337ZM202.541 154.633C202.526 156.13 201.093 157.346 199.351 157.346H191.507L191.515 156.594C191.712 156.564 191.908 156.522 192.1 156.468C192.744 156.291 193.335 155.957 193.823 155.496C194.31 155.035 194.678 154.461 194.893 153.826H202.553L202.541 154.633ZM202.552 153.582H194.741L194.717 153.661C194.519 154.293 194.164 154.865 193.684 155.321C193.205 155.777 192.617 156.103 191.979 156.265C191.787 156.318 191.592 156.356 191.395 156.38H191.301L191.292 157.337H190.402L190.411 156.395H190.394L190.245 156.371H190.172H190.14L189.913 156.324L189.837 156.301C189.519 156.217 189.213 156.094 188.925 155.937L188.87 155.901C188.759 155.839 188.651 155.77 188.548 155.696L188.458 155.631C188.35 155.55 188.245 155.462 188.146 155.37L188.033 155.255L187.863 155.07C187.82 155.018 187.776 154.968 187.736 154.915C187.696 154.862 187.63 154.771 187.581 154.695C187.532 154.618 187.48 154.533 187.434 154.451C187.388 154.369 187.363 154.322 187.331 154.254C187.3 154.187 187.274 154.134 187.251 154.072C187.229 154.011 187.169 153.861 187.135 153.752L187.118 153.694C187.077 153.539 187.045 153.382 187.021 153.224L187.021 153.165C186.908 152.259 187.15 151.341 187.695 150.605C187.706 150.586 187.718 150.567 187.731 150.549L187.799 150.446L187.829 150.394L187.847 150.364L187.936 150.217L188.016 150.059C188.055 149.974 188.088 149.886 188.121 149.798C188.154 149.71 188.178 149.657 188.199 149.583C188.22 149.51 188.25 149.381 188.272 149.29C188.293 149.199 188.302 149.163 188.312 149.099C188.339 148.927 188.354 148.753 188.355 148.579L188.361 147.992C188.361 147.827 188.351 147.662 188.331 147.499C188.331 147.443 188.312 147.387 188.303 147.329C188.284 147.223 188.262 147.12 188.234 147.017C188.206 146.915 188.203 146.9 188.186 146.841C188.169 146.782 188.118 146.659 188.081 146.571L188.003 146.413L187.981 146.366C187.912 146.229 187.834 146.098 187.748 145.972C187.312 145.364 187.082 144.63 187.09 143.876C187.092 143.71 187.107 143.544 187.133 143.38L187.151 143.265C187.18 143.117 187.217 142.971 187.264 142.828C187.513 142.023 188.022 141.321 188.708 140.834C188.776 140.787 188.846 140.738 188.92 140.693L189.093 140.594C189.201 140.535 189.31 140.482 189.421 140.435L189.585 140.371C189.685 140.332 189.784 140.297 189.878 140.265L190.045 140.221C190.16 140.191 190.276 140.168 190.393 140.15L190.478 140.133H190.571L190.582 139.02H191.472L191.461 140.112H191.555H191.578C191.725 140.131 191.871 140.158 192.015 140.194L192.14 140.227C192.271 140.265 192.405 140.306 192.532 140.356L192.582 140.373C192.721 140.432 192.858 140.5 192.991 140.57L193.099 140.632C193.212 140.699 193.325 140.773 193.432 140.849C193.996 141.26 194.435 141.821 194.699 142.47C194.699 142.482 194.698 142.495 194.699 142.508C194.727 142.584 194.756 142.666 194.778 142.746C194.824 142.896 194.86 143.049 194.887 143.204C194.887 143.239 194.887 143.274 194.886 143.312C194.91 143.477 194.922 143.644 194.922 143.811C194.914 144.563 194.669 145.294 194.224 145.902C194.134 146.029 194.054 146.162 193.983 146.301L193.96 146.348L193.876 146.518C193.837 146.609 193.798 146.7 193.768 146.794C193.751 146.839 193.737 146.885 193.726 146.932C193.693 147.05 193.662 147.167 193.641 147.287C193.64 147.334 193.622 147.378 193.616 147.425C193.592 147.591 193.579 147.758 193.576 147.925L193.57 148.512C193.56 149.15 193.722 149.777 194.039 150.326L194.07 150.379H202.547L202.552 153.582ZM202.587 150.185H194.224C193.946 149.687 193.804 149.121 193.815 148.547L193.821 147.96C193.824 147.805 193.836 147.65 193.857 147.496C193.858 147.458 193.858 147.417 193.879 147.378C193.9 147.258 193.929 147.14 193.964 147.023C193.965 146.991 193.965 146.959 193.992 146.926C194.035 146.799 194.086 146.674 194.144 146.553H202.624L202.587 150.185ZM202.626 146.31H194.272C194.323 146.225 194.37 146.134 194.427 146.054C194.901 145.406 195.162 144.625 195.17 143.823C195.171 143.669 195.162 143.515 195.143 143.362L195.126 143.227C195.107 143.101 195.082 142.978 195.051 142.854C195.045 142.83 195.039 142.806 195.035 142.781H202.662L202.626 146.31ZM194.961 142.546L194.93 142.467L194.913 142.42C194.913 142.399 194.913 142.382 194.893 142.364C194.867 142.302 194.839 142.241 194.807 142.173L194.787 142.129L194.753 142.059C194.702 141.959 194.647 141.865 194.59 141.765L194.552 141.709C194.501 141.633 194.449 141.557 194.394 141.483L194.34 141.413C194.285 141.345 194.23 141.281 194.172 141.216L194.115 141.154L193.959 140.999L193.938 140.978L193.886 140.928C193.84 140.887 193.785 140.846 193.733 140.805L193.684 140.761L193.649 140.735L193.623 140.714L193.553 140.67C193.46 140.6 193.364 140.534 193.264 140.473L193.156 140.409C193.025 140.335 192.889 140.268 192.75 140.209C192.721 140.196 192.691 140.184 192.66 140.174C192.541 140.126 192.42 140.085 192.296 140.051L192.174 140.015C192.022 139.974 191.867 139.942 191.711 139.918L191.72 139.038H199.563C201.314 139.038 202.714 140.253 202.699 141.75L202.691 142.572L194.961 142.546Z" fill="#856400"/>
<mask id="mask1_6501_84912" style="mask-type:luminance" maskUnits="userSpaceOnUse" x="179" y="138" width="24" height="20">
<path d="M194.131 157.584H187.572C182.827 157.584 179.024 153.376 179.076 148.189C179.129 143.001 183.017 138.794 187.762 138.794H194.322C199.064 138.779 202.861 142.998 202.809 148.174C202.756 153.376 198.873 157.584 194.131 157.584Z" fill="white"/>
</mask>
<g mask="url(#mask1_6501_84912)">
<path style="mix-blend-mode:screen" opacity="0.41" d="M150.44 169.072C149.165 166.489 165.718 153.838 187.413 140.818C209.108 127.797 227.731 119.339 229.007 121.922C230.282 124.506 213.717 137.159 192.034 150.18C170.35 163.201 151.716 171.662 150.44 169.072Z" fill="url(#paint10_radial_6501_84912)"/>
<path style="mix-blend-mode:screen" opacity="0.41" d="M165.895 172.043C165.229 170.71 178.417 161.386 195.333 151.243C212.249 141.099 226.5 133.939 227.157 135.271C227.815 136.604 214.639 145.92 197.723 156.072C180.807 166.224 166.556 173.376 165.895 172.043Z" fill="url(#paint11_radial_6501_84912)"/>
</g>
<g filter="url(#filter0_dd_6501_84912)">
<path fill-rule="evenodd" clip-rule="evenodd" d="M34.74 67H105.98C113.016 67 118.72 72.866 118.72 80.102V241.139C118.72 248.375 113.016 254.241 105.98 254.241H34.74C27.7039 254.241 22 248.375 22 241.139V80.102C22 72.866 27.7039 67 34.74 67ZM113.926 238.646V81.3427C113.926 76.0065 109.71 71.6409 104.561 71.6409H36.1654C31.0079 71.6409 26.7941 76.0065 26.7941 81.3427V238.646C26.7941 243.982 31.0079 248.346 36.1572 248.346H104.554C109.71 248.346 113.926 243.982 113.926 238.646Z" fill="white"/>
<path opacity="0.7" d="M113.926 81.3429V238.646C113.926 243.982 109.71 248.346 104.554 248.346H36.157C31.0077 248.346 26.7939 243.982 26.7939 238.646V81.3429C26.7939 76.0068 31.0077 71.6411 36.1652 71.6411H104.561C109.71 71.6411 113.926 76.0068 113.926 81.3429Z" fill="#F0F0F0"/>
<path d="M84.6562 68.0972H56.0656C53.7274 68.0972 51.832 70.0464 51.832 72.451V73.1374C51.832 75.542 53.7274 77.4912 56.0656 77.4912H84.6562C86.9943 77.4912 88.8898 75.542 88.8898 73.1374V72.451C88.8898 70.0464 86.9943 68.0972 84.6562 68.0972Z" fill="white"/>
</g>
<g filter="url(#filter1_dd_6501_84912)">
<path fill-rule="evenodd" clip-rule="evenodd" d="M189.74 68H260.98C268.016 68 273.72 73.866 273.72 81.102V242.139C273.72 249.375 268.016 255.241 260.98 255.241H189.74C182.704 255.241 177 249.375 177 242.139V81.102C177 73.866 182.704 68 189.74 68ZM268.926 239.646V82.3427C268.926 77.0065 264.71 72.6409 259.561 72.6409H191.165C186.008 72.6409 181.794 77.0065 181.794 82.3427V239.646C181.794 244.982 186.008 249.346 191.157 249.346H259.555C264.71 249.346 268.926 244.982 268.926 239.646Z" fill="white"/>
<path opacity="0.7" d="M268.926 82.3429V239.646C268.926 244.982 264.71 249.346 259.554 249.346H191.157C186.008 249.346 181.794 244.982 181.794 239.646V82.3429C181.794 77.0068 186.008 72.6411 191.165 72.6411H259.561C264.71 72.6411 268.926 77.0068 268.926 82.3429Z" fill="#F0F0F0"/>
<path d="M239.656 69.0972H211.066C208.727 69.0972 206.832 71.0464 206.832 73.451V74.1374C206.832 76.542 208.727 78.4912 211.066 78.4912H239.656C241.994 78.4912 243.89 76.542 243.89 74.1374V73.451C243.89 71.0464 241.994 69.0972 239.656 69.0972Z" fill="white"/>
</g>
<defs>
<filter id="filter0_dd_6501_84912" x="6" y="43" width="128.72" height="231.241" filterUnits="userSpaceOnUse" color-interpolation-filters="sRGB">
<feFlood flood-opacity="0" result="BackgroundImageFix"/>
<feColorMatrix in="SourceAlpha" type="matrix" values="0 0 0 0 0 0 0 0 0 0 0 0 0 0 0 0 0 0 127 0" result="hardAlpha"/>
<feOffset dy="-8"/>
<feGaussianBlur stdDeviation="8"/>
<feComposite in2="hardAlpha" operator="out"/>
<feColorMatrix type="matrix" values="0 0 0 0 0 0 0 0 0 0 0 0 0 0 0 0 0 0 0.08 0"/>
<feBlend mode="normal" in2="BackgroundImageFix" result="effect1_dropShadow_6501_84912"/>
<feColorMatrix in="SourceAlpha" type="matrix" values="0 0 0 0 0 0 0 0 0 0 0 0 0 0 0 0 0 0 127 0" result="hardAlpha"/>
<feOffset dy="4"/>
<feGaussianBlur stdDeviation="8"/>
<feComposite in2="hardAlpha" operator="out"/>
<feColorMatrix type="matrix" values="0 0 0 0 0 0 0 0 0 0 0 0 0 0 0 0 0 0 0.05 0"/>
<feBlend mode="normal" in2="effect1_dropShadow_6501_84912" result="effect2_dropShadow_6501_84912"/>
<feBlend mode="normal" in="SourceGraphic" in2="effect2_dropShadow_6501_84912" result="shape"/>
</filter>
<filter id="filter1_dd_6501_84912" x="161" y="44" width="128.72" height="231.241" filterUnits="userSpaceOnUse" color-interpolation-filters="sRGB">
<feFlood flood-opacity="0" result="BackgroundImageFix"/>
<feColorMatrix in="SourceAlpha" type="matrix" values="0 0 0 0 0 0 0 0 0 0 0 0 0 0 0 0 0 0 127 0" result="hardAlpha"/>
<feOffset dy="-8"/>
<feGaussianBlur stdDeviation="8"/>
<feComposite in2="hardAlpha" operator="out"/>
<feColorMatrix type="matrix" values="0 0 0 0 0 0 0 0 0 0 0 0 0 0 0 0 0 0 0.08 0"/>
<feBlend mode="normal" in2="BackgroundImageFix" result="effect1_dropShadow_6501_84912"/>
<feColorMatrix in="SourceAlpha" type="matrix" values="0 0 0 0 0 0 0 0 0 0 0 0 0 0 0 0 0 0 127 0" result="hardAlpha"/>
<feOffset dy="4"/>
<feGaussianBlur stdDeviation="8"/>
<feComposite in2="hardAlpha" operator="out"/>
<feColorMatrix type="matrix" values="0 0 0 0 0 0 0 0 0 0 0 0 0 0 0 0 0 0 0.05 0"/>
<feBlend mode="normal" in2="effect1_dropShadow_6501_84912" result="effect2_dropShadow_6501_84912"/>
<feBlend mode="normal" in="SourceGraphic" in2="effect2_dropShadow_6501_84912" result="shape"/>
</filter>
<linearGradient id="paint0_linear_6501_84912" x1="139.292" y1="31.0508" x2="49.4417" y2="-4.84494" gradientUnits="userSpaceOnUse">
<stop stop-color="#A1D5DC"/>
<stop offset="0.453913" stop-color="#E9EAA8" stop-opacity="0.6"/>
<stop offset="1" stop-color="#B7DBE0"/>
</linearGradient>
<linearGradient id="paint1_linear_6501_84912" x1="20.2136" y1="91.7596" x2="53.379" y2="82.5457" gradientUnits="userSpaceOnUse">
<stop stop-color="#CFB688"/>
<stop offset="1" stop-color="#CFB383"/>
</linearGradient>
<linearGradient id="paint2_linear_6501_84912" x1="18.8291" y1="86.4457" x2="52.127" y2="77.1978" gradientUnits="userSpaceOnUse">
<stop stop-color="#F7B261"/>
<stop offset="1" stop-color="#C1AF81"/>
</linearGradient>
<linearGradient id="paint3_linear_6501_84912" x1="21.7929" y1="97.6901" x2="54.8523" y2="88.5073" gradientUnits="userSpaceOnUse">
<stop offset="1" stop-color="#D8C19C"/>
</linearGradient>
<radialGradient id="paint4_radial_6501_84912" cx="0" cy="0" r="1" gradientUnits="userSpaceOnUse" gradientTransform="translate(39.7063 96.9903) rotate(149.029) scale(45.8992 5.21167)">
<stop offset="0.01" stop-color="#FFFF00"/>
<stop offset="0.09" stop-color="#E5E501"/>
<stop offset="0.28" stop-color="#A2A204"/>
<stop offset="0.51" stop-color="#484807"/>
<stop offset="0.91" stop-color="#00000A"/>
</radialGradient>
<radialGradient id="paint5_radial_6501_84912" cx="0" cy="0" r="1" gradientUnits="userSpaceOnUse" gradientTransform="translate(43.9383 98.3825) rotate(149.028) scale(35.792 2.69023)">
<stop offset="0.01" stop-color="#FFFF00"/>
<stop offset="0.09" stop-color="#E5E501"/>
<stop offset="0.28" stop-color="#A2A204"/>
<stop offset="0.51" stop-color="#484807"/>
<stop offset="0.91" stop-color="#00000A"/>
</radialGradient>
<linearGradient id="paint6_linear_6501_84912" x1="294.292" y1="92.0508" x2="204.442" y2="56.1551" gradientUnits="userSpaceOnUse">
<stop stop-color="#A1D5DC"/>
<stop offset="0.453913" stop-color="#E9EAA8" stop-opacity="0.6"/>
<stop offset="1" stop-color="#B7DBE0"/>
</linearGradient>
<linearGradient id="paint7_linear_6501_84912" x1="175.214" y1="152.76" x2="208.379" y2="143.546" gradientUnits="userSpaceOnUse">
<stop stop-color="#CFB688"/>
<stop offset="1" stop-color="#CFB383"/>
</linearGradient>
<linearGradient id="paint8_linear_6501_84912" x1="173.829" y1="147.446" x2="207.127" y2="138.198" gradientUnits="userSpaceOnUse">
<stop stop-color="#F7B261"/>
<stop offset="1" stop-color="#C1AF81"/>
</linearGradient>
<linearGradient id="paint9_linear_6501_84912" x1="176.793" y1="158.69" x2="209.852" y2="149.507" gradientUnits="userSpaceOnUse">
<stop offset="1" stop-color="#D8C19C"/>
</linearGradient>
<radialGradient id="paint10_radial_6501_84912" cx="0" cy="0" r="1" gradientUnits="userSpaceOnUse" gradientTransform="translate(194.706 157.99) rotate(149.029) scale(45.8992 5.21167)">
<stop offset="0.01" stop-color="#FFFF00"/>
<stop offset="0.09" stop-color="#E5E501"/>
<stop offset="0.28" stop-color="#A2A204"/>
<stop offset="0.51" stop-color="#484807"/>
<stop offset="0.91" stop-color="#00000A"/>
</radialGradient>
<radialGradient id="paint11_radial_6501_84912" cx="0" cy="0" r="1" gradientUnits="userSpaceOnUse" gradientTransform="translate(198.938 159.383) rotate(149.028) scale(35.792 2.69023)">
<stop offset="0.01" stop-color="#FFFF00"/>
<stop offset="0.09" stop-color="#E5E501"/>
<stop offset="0.28" stop-color="#A2A204"/>
<stop offset="0.51" stop-color="#484807"/>
<stop offset="0.91" stop-color="#00000A"/>
</radialGradient>
</defs>
</svg>
