<svg width="101" height="100" viewBox="0 0 101 100" fill="none" xmlns="http://www.w3.org/2000/svg">
<g clip-path="url(#clip0_5577_61901)">
<path d="M99.7499 49.9977V49.9987C99.7594 57.3899 98.0987 64.6885 94.8911 71.3529C91.6834 78.0173 87.0111 83.8765 81.2205 88.4955L81.2193 88.4965C73.6957 94.5229 64.55 98.1948 54.9352 99.0489L54.9315 99.0492C53.6498 99.1694 52.3526 99.232 51.0396 99.2455H49.9563C48.6612 99.2455 47.3792 99.1701 46.1028 99.0536L46.1005 99.0534C36.4693 98.2045 27.3069 94.5291 19.7715 88.492L19.7704 88.4911C13.9821 83.8716 9.31175 78.0128 6.1057 71.3493C2.89965 64.6858 1.24006 57.3885 1.24992 49.9987V49.9977C1.24992 22.7991 23.2971 0.75 50.4976 0.75C77.6983 0.75 99.7499 22.7992 99.7499 49.9977Z" fill="#FFF7DF" stroke="#E43434" stroke-width="1.5"/>
<path d="M50.011 70.7324V94.4821C48.8327 94.4821 47.668 94.4096 46.5125 94.3098C37.7878 93.5504 29.4831 90.2377 22.6419 84.7882V83.7317C22.6397 82.7087 22.9532 81.7097 23.54 80.8702C24.1267 80.0307 24.9583 79.3914 25.922 79.0389L38.5556 74.3597L43.2642 72.8816L50.011 70.7324Z" fill="#BAE3FF"/>
<path d="M78.349 83.7227V84.7882C71.519 90.2301 63.2297 93.5422 54.5194 94.3098C53.3547 94.4126 52.1764 94.4716 50.9845 94.4867V70.7324L57.7767 72.8771L62.4398 74.3597L75.0735 79.0253C76.037 79.3788 76.8681 80.0192 77.4541 80.8595C78.0401 81.6998 78.3525 82.6994 78.349 83.7227Z" fill="#BAE3FF"/>
<path d="M57.7768 59.8955H43.2551V74.3684H57.7768V59.8955Z" fill="#DE9C73"/>
<path d="M34.9206 40.7159H38.5601V49.4214H36.1262C35.7438 49.4214 35.3729 49.2916 35.0743 49.0534C34.7758 48.8153 34.5676 48.4829 34.4839 48.1111L33.2555 42.7608C33.2008 42.5136 33.2027 42.2573 33.2611 42.0109C33.3195 41.7646 33.433 41.5345 33.5931 41.338C33.7531 41.1414 33.9556 40.9834 34.1855 40.8757C34.4153 40.768 34.6666 40.7134 34.9206 40.7159Z" fill="#E8B799"/>
<path d="M50.4978 21.0605L33.2556 30.4552L38.2599 55.8735C38.8241 58.7209 41.0806 61.5366 44.0195 63.7855C45.2073 64.6789 46.6576 65.157 48.1458 65.1458H53.1956C54.8028 65.1451 56.3597 64.5873 57.5994 63.5679C60.1834 61.4323 62.2261 58.5804 62.7629 55.8599L68.7408 25.5357L50.4978 21.0605Z" fill="#E8B799"/>
<path d="M66.0793 40.7168H62.4398V49.4223H64.8692C65.2524 49.4233 65.6244 49.294 65.9238 49.0558C66.2233 48.8175 66.4322 48.4846 66.5161 48.1119L67.7217 42.7481C67.7745 42.5036 67.7719 42.2505 67.714 42.0072C67.6561 41.7639 67.5443 41.5365 67.3869 41.3418C67.2295 41.1471 67.0304 40.9899 66.8041 40.8818C66.5779 40.7736 66.3302 40.7173 66.0793 40.7168Z" fill="#E8B799"/>
<path d="M32.837 28.4376L36.0716 44.833L37.4773 43.8627C37.8409 43.6139 38.1303 43.272 38.3153 42.873C38.5002 42.474 38.5738 42.0327 38.5282 41.5956L36.6585 23.2959L34.775 24.2571C34.0496 24.6234 33.4641 25.2158 33.1077 25.9443C32.7512 26.6727 32.6434 27.4973 32.8006 28.2925L32.837 28.4376Z" fill="#54472D"/>
<path d="M68.1447 28.4376L64.9101 44.833L63.4998 43.8627C63.137 43.6132 62.8481 43.2712 62.6632 42.8724C62.4783 42.4736 62.4043 42.0326 62.4489 41.5956L64.3232 23.2959L66.2067 24.2571C66.9294 24.6259 67.5121 25.2191 67.8667 25.9472C68.2212 26.6752 68.3284 27.4984 68.172 28.2925L68.1447 28.4376Z" fill="#54472D"/>
<path d="M39.3632 18.6367H67.5455V21.0527C67.5455 23.5463 66.6585 25.9378 65.0796 27.701C63.5008 29.4643 61.3594 30.4549 59.1265 30.4549H35.7273V22.6973C35.7273 21.6204 36.1104 20.5875 36.7922 19.826C37.4741 19.0645 38.3989 18.6367 39.3632 18.6367Z" fill="#54472D"/>
<path d="M36.7676 36.2775C38.1948 36.2775 39.3517 34.2171 39.3517 31.6754C39.3517 29.1337 38.1948 27.0732 36.7676 27.0732C35.3405 27.0732 34.1836 29.1337 34.1836 31.6754C34.1836 34.2171 35.3405 36.2775 36.7676 36.2775Z" fill="#54472D"/>
<path d="M66.8391 31.6754C66.8391 34.2145 65.6835 36.2775 64.2596 36.2775C62.8356 36.2775 61.6755 34.2145 61.6755 31.6754C61.6755 29.1363 62.8311 27.0732 64.2596 27.0732C65.6881 27.0732 66.8391 29.1317 66.8391 31.6754Z" fill="#54472D"/>
<path d="M50.5432 70.7324V94.4867H50.0336C48.8553 94.4867 47.6907 94.4141 46.5352 94.3144L49.283 77.5336L48.1092 75.9557L47.0083 74.4776L47.1084 74.3733L50.0109 71.2901L50.1974 71.0906L50.5432 70.7324Z" fill="#296FB0"/>
<path d="M54.5193 94.3098C53.3547 94.4126 52.1764 94.4716 50.9845 94.4867H50.5295V70.7324L50.8207 71.0453L50.9936 71.2312L53.937 74.3506L54.0371 74.4549L52.918 75.9557L51.7488 77.5336L54.5193 94.3098Z" fill="#296FB0"/>
<path d="M38.5602 74.3644L43.2551 67.1279L50.9845 70.7462L46.6126 78.6446L38.5602 74.3644Z" fill="#F1F9FF"/>
<path d="M62.4399 74.3644L57.7404 67.1279L50.0155 70.7462L54.3829 78.6446L62.4399 74.3644Z" fill="#F1F9FF"/>
<g clip-path="url(#clip1_5577_61901)">
<path d="M64.9363 41.7058C63.9726 34.9965 53.9718 34.6003 52.4536 41.1783C51.1728 39.9971 49.1488 40.1977 48.0919 41.1783C46.5746 34.5919 36.5713 34.9923 35.6083 41.7033C34.5531 41.9114 34.554 43.5424 35.6083 43.7455C37.0276 51.8299 49.1966 50.1096 48.2303 41.8997C49.1672 40.8774 50.9983 40.5229 52.3152 41.8897C51.3422 50.1112 63.5196 51.8341 64.9363 43.748C65.9915 43.5407 65.9915 41.9139 64.9363 41.7058Z" fill="#633C20"/>
<path d="M41.9046 36.3633C40.3897 36.3641 38.9244 36.902 37.7709 37.8808C36.6175 38.8596 35.851 40.2154 35.6087 41.7058C34.5535 41.914 34.5544 43.5449 35.6087 43.748C35.8509 45.2385 36.6173 46.5944 37.7708 47.5732C38.9243 48.5521 40.3896 49.0899 41.9046 49.0906V36.3633Z" fill="#A6541B"/>
<path d="M58.6396 36.3633C60.1546 36.3641 61.6198 36.902 62.7733 37.8808C63.9268 38.8596 64.6932 40.2154 64.9355 41.7058C65.9907 41.914 65.9899 43.5449 64.9355 43.748C64.6934 45.2385 63.927 46.5944 62.7735 47.5732C61.62 48.5521 60.1546 49.0899 58.6396 49.0906V36.3633Z" fill="#A6541B"/>
<path d="M47.7489 42.727C47.618 50.3826 36.1913 50.3818 36.0613 42.727C36.1921 35.0706 47.6188 35.0723 47.7489 42.727Z" fill="#313442"/>
<path d="M42.379 37.585C43.001 37.585 43.6169 37.7071 44.1915 37.9443C44.7661 38.1816 45.2882 38.5293 45.728 38.9676C46.1678 39.406 46.5166 39.9264 46.7545 40.4991C46.9925 41.0718 47.1149 41.6857 47.1148 42.3055C46.7482 40.7607 43.8435 37.7739 42.379 37.585Z" fill="#82869E"/>
<path d="M36.5042 42.375C36.5044 43.9196 37.1201 45.4008 38.216 46.493C39.3119 47.5851 40.7981 48.1988 42.3479 48.199C40.438 47.7476 36.7382 44.1748 36.5042 42.375Z" fill="#BCBFD6"/>
<path d="M52.7966 42.727C52.9275 50.3826 64.3542 50.3818 64.4842 42.727C64.3534 35.0706 52.9266 35.0723 52.7966 42.727Z" fill="#313442"/>
<path d="M59.3057 37.585C59.9276 37.585 60.5435 37.7071 61.1182 37.9443C61.6928 38.1816 62.2149 38.5293 62.6546 38.9676C63.0944 39.406 63.4432 39.9264 63.6812 40.4991C63.9191 41.0718 64.0415 41.6857 64.0414 42.3055C63.6724 40.7607 60.7693 37.7739 59.3057 37.585Z" fill="#82869E"/>
<path d="M53.4308 42.375C53.4308 43.9196 54.0465 45.401 55.1424 46.4932C56.2383 47.5854 57.7247 48.199 59.2746 48.199C57.3613 47.7476 53.664 44.1756 53.4308 42.375Z" fill="#BCBFD6"/>
</g>
</g>
<g clip-path="url(#clip2_5577_61901)">
<path d="M33.0051 16.4695C30.2427 19.4873 26.1111 24.2248 35.4538 25.5562C40.5632 26.4409 53.4916 28.9025 55.9966 28.4856C58.5016 28.0687 64.0983 25.4699 65.0077 25.1172C65.9171 24.7644 70.494 22.838 70.7271 22.1425C69.6122 10.7335 61.2033 9.38105 52.2849 9.72496C47.0473 9.24835 37.6549 10.8441 33.0051 16.4695Z" fill="#47668B"/>
<g style="mix-blend-mode:multiply">
<path d="M57.57 26.561C58.0264 26.018 52.2838 24.9785 54.3413 24.7297C56.3988 24.4809 62.0684 21.2673 62.0684 21.2673C62.0684 21.2673 55.0706 23.7654 51.1457 24.3371C46.6329 25.046 32.7874 23.4679 29.7642 20.9355C29.1774 23.1915 30.1443 24.6125 35.4538 25.5602C40.7643 26.321 51.6042 28.9606 56.7435 28.3248C56.7435 28.3237 57.1137 27.1039 57.57 26.561Z" fill="#47668B"/>
</g>
<path d="M31.8041 24.4163L29.1112 25.5929C29.1112 25.5929 28.5311 26.002 29.3322 26.2564C35.3953 25.2003 40.7136 30.7903 50.1325 31.9482C57.1568 32.8793 60.1878 31.0812 61.7889 29.3207C63.3901 27.5602 63.0707 26.4842 64.5514 26.7407C66.0321 26.9973 67.7559 27.861 68.8244 26.5738C69.8929 25.2866 70.7206 22.1504 70.7206 22.1504C56.0916 28.352 45.8948 27.318 31.8041 24.4163Z" fill="#47668B"/>
<g style="mix-blend-mode:multiply">
<path d="M54.4341 27.2505C60.8121 26.9629 66.1845 24.9028 70.7315 22.1426C68.8851 22.8326 53.5667 28.4901 47.2362 26.6986C47.2318 26.6986 51.5191 27.2847 54.4341 27.2505Z" fill="#47668B"/>
</g>
<g style="mix-blend-mode:multiply">
<path d="M36.9533 26.9711C34.4902 25.7812 31.5212 25.2173 29.0736 26.1406C30.2073 26.6936 30.7653 25.5512 33.9355 26.4846C37.1831 27.6954 48.5324 33.1981 55.2618 32.1387C48.4109 31.6311 37.7743 27.3493 36.9533 26.9711Z" fill="#47668B"/>
</g>
<g style="mix-blend-mode:screen">
<path d="M56.949 9.80998C48.8948 9.42183 39.9941 9.25706 33.2847 16.1431C33.488 15.9673 41.1632 8.99165 56.949 9.80998Z" fill="#47668B"/>
</g>
<path d="M49.2827 9.62797C49.2827 9.62797 47.8893 9.92654 48.1954 10.4773C48.401 11.2016 51.8419 10.5558 51.9424 10.1566C52.0596 9.28958 49.4098 9.58484 49.2827 9.62797Z" fill="#47668B"/>
<g style="mix-blend-mode:multiply">
<path d="M48.1888 10.1816C47.98 11.4124 51.1579 10.5399 51.7568 10.3387C51.6949 10.3409 48.4297 10.7213 48.1888 10.1816Z" fill="#47668B"/>
</g>
<g style="mix-blend-mode:multiply">
<path d="M48.3567 10.9156L48.3048 10.8282C48.4474 10.7442 48.5258 10.7021 48.5258 10.7021L48.5744 10.7906C48.5744 10.7906 48.5015 10.8326 48.3567 10.9156Z" fill="#47668B"/>
<path d="M46.7335 11.9716L46.676 11.8898C46.8167 11.791 46.9504 11.6989 47.0771 11.6134L47.1335 11.6974C47.0064 11.7825 46.8738 11.8743 46.7335 11.9716ZM47.5379 11.4254L47.4827 11.3402C47.634 11.2418 47.7722 11.1544 47.8937 11.0781L47.9468 11.1644C47.8252 11.2418 47.6889 11.3288 47.5379 11.4254Z" fill="#47668B"/>
<path d="M37.0539 22.6713L36.9644 22.6249C37.0395 22.48 37.1157 22.3374 37.192 22.1947L37.2815 22.2423C37.2041 22.3849 37.129 22.5276 37.0539 22.6713ZM37.5168 21.8198L37.4296 21.7701C37.5106 21.6285 37.592 21.4881 37.6738 21.3487L37.7611 21.4007C37.6782 21.5378 37.5975 21.6772 37.5168 21.8198ZM38.013 20.986L37.9268 20.9318C38.013 20.794 38.1003 20.6569 38.1887 20.5205L38.2727 20.5758C38.1857 20.7099 38.0992 20.8463 38.013 20.9849V20.986ZM38.5401 20.171L38.4572 20.1146C38.5478 19.9786 38.6406 19.8448 38.7334 19.7132L38.8152 19.7707C38.7231 19.9019 38.6314 20.035 38.5401 20.1699V20.171ZM39.0926 19.3759L39.0108 19.3162C39.1073 19.185 39.2038 19.0545 39.3003 18.9247L39.381 18.9856C39.2874 19.1131 39.1931 19.2428 39.0981 19.3748L39.0926 19.3759ZM39.6771 18.6018L39.5975 18.5399C39.6977 18.4109 39.7986 18.2837 39.9003 18.1584L39.9788 18.2214C39.8837 18.3453 39.7821 18.4713 39.6826 18.5996L39.6771 18.6018ZM40.2904 17.8443L40.2119 17.7802C40.3224 17.6541 40.423 17.5314 40.5279 17.4086L40.6042 17.475C40.5018 17.5966 40.3972 17.7197 40.2904 17.8443ZM40.9246 17.11L40.8495 17.0426C40.96 16.9209 41.0705 16.8004 41.181 16.6821L41.255 16.7507C41.1456 16.869 41.0362 16.9884 40.9279 17.11H40.9246ZM41.5876 16.3957L41.5136 16.326C41.6241 16.2077 41.7346 16.0905 41.8517 15.9755L41.9246 16.0462C41.8112 16.1612 41.6985 16.2796 41.5865 16.4012L41.5876 16.3957ZM42.2661 15.7023L42.1954 15.6304C42.3059 15.5143 42.4285 15.4015 42.5434 15.2898L42.6141 15.3628C42.5003 15.4734 42.381 15.5873 42.265 15.7023H42.2661ZM42.9666 15.0289L42.897 14.9548C43.0175 14.8442 43.1368 14.7336 43.255 14.623L43.3235 14.6982C43.2049 14.8066 43.0856 14.9168 42.9655 15.0289H42.9666ZM43.6849 14.3753L43.6164 14.3001C43.7401 14.1895 43.8628 14.0789 43.9843 13.9805L44.0495 14.0568C43.9291 14.1597 43.8064 14.2658 43.6838 14.3753H43.6849ZM44.4208 13.7472L44.3556 13.6698C44.4827 13.5592 44.6086 13.4597 44.7324 13.3601L44.7954 13.4387C44.6727 13.5338 44.5468 13.6366 44.4208 13.7472ZM45.1744 13.1345L45.1125 13.0549C45.2429 12.9525 45.3711 12.8529 45.4971 12.7563L45.5589 12.8371C45.433 12.9289 45.3048 13.0273 45.1744 13.1301V13.1345ZM45.9479 12.544L45.8882 12.4633C46.023 12.3627 46.1534 12.2676 46.2816 12.1758L46.3402 12.2576C46.2109 12.3439 46.0805 12.4401 45.9457 12.5396L45.9479 12.544Z" fill="#47668B"/>
<path d="M36.7267 23.3305L36.635 23.2874C36.6715 23.2111 36.709 23.1348 36.7455 23.0596L36.8361 23.1038L36.7267 23.3305Z" fill="#47668B"/>
</g>
<g style="mix-blend-mode:multiply">
<path d="M57.0054 22.5272C56.9689 22.3613 56.9325 22.1954 56.8949 22.0351L56.9932 22.0118C57.0308 22.1744 57.0673 22.3436 57.1037 22.5061L57.0054 22.5272ZM56.7778 21.5452C56.7369 21.3793 56.696 21.2134 56.654 21.0564L56.7513 21.031C56.7932 21.1913 56.8352 21.355 56.8761 21.5208L56.7778 21.5452ZM56.5225 20.5698C56.4772 20.405 56.4308 20.2381 56.3844 20.0843L56.4816 20.0567C56.528 20.2159 56.5745 20.3785 56.6198 20.5422L56.5225 20.5698ZM56.2385 19.6077C56.1877 19.4452 56.1369 19.2848 56.085 19.1278L56.1811 19.0957C56.233 19.2539 56.2838 19.4142 56.3347 19.5779L56.2385 19.6077ZM55.9236 18.6501C55.8676 18.4864 55.8131 18.3264 55.7601 18.1701L55.854 18.1359C55.9115 18.2918 55.9645 18.4499 56.0242 18.6114L55.9236 18.6501ZM55.5767 17.7046C55.5148 17.5453 55.4529 17.3894 55.3899 17.2368L55.4838 17.1981C55.5457 17.3518 55.6087 17.5077 55.6706 17.6681L55.5767 17.7046ZM55.1943 16.7712C55.1269 16.6142 55.0584 16.4616 54.991 16.3112L55.0827 16.2692C55.1512 16.4196 55.2197 16.5744 55.2872 16.7314L55.1943 16.7712ZM54.7766 15.8479C54.703 15.693 54.6293 15.5423 54.5557 15.3956L54.6463 15.3502C54.7214 15.4973 54.7954 15.6488 54.8673 15.8036L54.7766 15.8479ZM54.3236 14.951C54.2418 14.7995 54.1612 14.6536 54.0794 14.5087L54.1678 14.4589C54.2485 14.6016 54.3302 14.7498 54.412 14.9013L54.3236 14.951ZM53.8241 14.0785C53.7343 13.9311 53.6459 13.7884 53.559 13.6506L53.644 13.5964C53.7324 13.735 53.8212 13.8784 53.9103 14.0265L53.8241 14.0785ZM53.2827 13.2303C53.1888 13.0899 53.0915 12.9517 52.9943 12.8168L53.0772 12.7581C53.1744 12.8931 53.2717 13.0324 53.3667 13.1739L53.2827 13.2303ZM52.6949 12.4131C52.5921 12.2793 52.486 12.1477 52.381 12.0205L52.4584 11.9553C52.5689 12.0836 52.6705 12.2174 52.7744 12.3523L52.6949 12.4131ZM52.054 11.639C51.9435 11.5108 51.8241 11.3869 51.7114 11.2719L51.7832 11.2011C51.8937 11.3172 52.0131 11.4422 52.1291 11.5716L52.054 11.639ZM51.3512 10.9213C51.1125 10.7002 50.9711 10.5995 50.97 10.5984L51.0285 10.5166C51.1651 10.6196 51.2957 10.7304 51.4197 10.8484L51.3512 10.9213Z" fill="#47668B"/>
</g>
<g style="mix-blend-mode:multiply">
<path d="M69.2255 22.4905C69.2001 22.3246 69.1714 22.1588 69.1393 21.9951L69.2388 21.9752C69.2708 22.14 69.3006 22.3069 69.3249 22.475L69.2255 22.4905ZM69.031 21.5052C68.9901 21.3438 68.9459 21.1801 68.8984 21.0208L68.9946 20.9921C69.0432 21.1536 69.0885 21.3172 69.1283 21.4809L69.031 21.5052ZM68.7415 20.5442C68.6863 20.3883 68.6255 20.2302 68.5625 20.0765L68.6553 20.0378C68.7194 20.1937 68.7802 20.3529 68.8365 20.5111L68.7415 20.5442ZM68.357 19.6175C68.2863 19.4671 68.21 19.3156 68.136 19.1686L68.2244 19.121C68.3039 19.2703 68.3802 19.4229 68.4509 19.5744L68.357 19.6175ZM67.8863 18.7329C67.8023 18.5902 67.7128 18.4464 67.6211 18.3071L67.705 18.2518C67.7979 18.3923 67.8885 18.5371 67.9735 18.6809L67.8863 18.7329ZM67.3338 17.8935C67.2376 17.7597 67.136 17.6248 67.0321 17.4932L67.1117 17.4313C67.2155 17.5629 67.3183 17.6989 67.4155 17.8338L67.3338 17.8935ZM66.7139 17.1062C66.6034 16.9812 66.4929 16.8551 66.3824 16.7324L66.4564 16.6627C66.5669 16.7866 66.6851 16.9138 66.7934 17.0409L66.7139 17.1062ZM66.0365 16.3686C65.9194 16.2514 65.7978 16.1341 65.6741 16.0191L65.7426 15.945C65.8663 16.0556 65.9901 16.1784 66.1083 16.2967L66.0365 16.3686ZM65.2995 15.6829C65.1735 15.5724 65.0442 15.4618 64.9138 15.36L64.9779 15.2815C65.1083 15.3921 65.2398 15.5027 65.3658 15.6066L65.2995 15.6829ZM64.5183 15.0493C64.3857 14.9476 64.2497 14.848 64.1127 14.7507L64.1724 14.6678C64.3083 14.7662 64.4453 14.8668 64.579 14.9686L64.5183 15.0493ZM63.6995 14.4632C63.5632 14.3688 63.4214 14.2778 63.274 14.1901L63.3282 14.1049C63.4696 14.1945 63.6111 14.2874 63.7503 14.3814L63.6995 14.4632ZM62.8519 13.9224C62.7083 13.8362 62.5635 13.7518 62.4177 13.6692L62.4674 13.5807C62.6147 13.6648 62.7602 13.7499 62.9039 13.8362L62.8519 13.9224ZM61.9768 13.4248C61.8295 13.3452 61.6821 13.2671 61.5348 13.1904L61.5801 13.1008C61.7274 13.1745 61.877 13.253 62.0287 13.3364L61.9768 13.4248ZM61.0806 12.9659C60.9282 12.8918 60.7768 12.8199 60.6243 12.7503L60.6674 12.6585C60.8199 12.7281 60.9724 12.8011 61.1237 12.8796L61.0806 12.9659ZM60.1646 12.5435C60.0099 12.4749 59.8552 12.4097 59.7016 12.3455L59.7403 12.2515L60.2055 12.4506L60.1646 12.5435ZM59.2342 12.1553C59.0751 12.089 58.9182 12.0326 58.7624 11.9784L58.7977 11.8833C58.9547 11.943 59.1127 12.0027 59.2707 12.0657L59.2342 12.1553ZM58.2906 11.8003C58.1303 11.7428 57.9712 11.6898 57.8143 11.6334L57.8464 11.5383C58.0044 11.5913 58.1635 11.6488 58.3248 11.7052L58.2906 11.8003ZM57.3347 11.4752C57.1734 11.4221 57.0121 11.3724 56.8541 11.3237L56.8839 11.2264C57.043 11.2762 57.2033 11.3259 57.3668 11.379L57.3347 11.4752ZM56.3701 11.1789L55.885 11.0417L55.9115 10.9444C56.0706 10.9886 56.2331 11.034 56.3988 11.0826L56.3701 11.1789ZM55.3977 10.9123C55.2297 10.8681 55.0662 10.8272 54.9082 10.7885L54.9314 10.6901L55.4231 10.8139L55.3977 10.9123ZM54.4165 10.6724C54.2452 10.6326 54.085 10.5961 53.9237 10.5618L53.9447 10.4634C54.1016 10.4965 54.2673 10.533 54.4386 10.574L54.4165 10.6724ZM51.9369 10.209L51.949 10.1084C51.949 10.1084 52.1325 10.1316 52.4496 10.1825L52.4341 10.282C52.1137 10.23 51.938 10.209 51.9369 10.209ZM53.4275 10.4623C53.2474 10.4269 53.0817 10.3948 52.9314 10.3683L52.9491 10.2687C53.1004 10.2964 53.2673 10.3274 53.4474 10.3627L53.4275 10.4623Z" fill="#47668B"/>
</g>
<g style="mix-blend-mode:screen">
<path d="M57.0308 31.2542C49.6738 32.5812 41.7732 27.4833 34.6869 25.7383C38.4781 26.55 42.0903 28.0108 45.7489 29.2692C49.3512 30.531 53.1722 31.8215 57.0308 31.2542Z" fill="#47668B"/>
</g>
<g style="mix-blend-mode:screen">
<path d="M56.7822 16.2661C57.5358 20.3334 58.7579 21.7477 63.1911 19.2585C64.2795 18.5684 65.8354 18.9101 65.2055 17.3642C64.7978 15.7695 55.5722 10.4814 55.033 11.8261C54.9601 12.682 56.7822 16.2661 56.7822 16.2661Z" fill="#47668B"/>
</g>
<g style="mix-blend-mode:screen">
<path d="M39.2406 22.6444C42.1887 22.8413 49.1932 24.1561 52.6905 23.3334C53.9237 22.6334 53.9126 20.8286 53.3623 19.443C52.812 18.0574 50.9468 16.7923 50.7877 15.9585C51.3524 7.95551 45.328 15.6997 43.3953 17.3032C42.6882 17.8528 39.4959 19.9229 39.2406 22.6444Z" fill="#47668B"/>
</g>
<g style="mix-blend-mode:screen">
<path d="M31.0559 20.3645C36.8018 24.4373 36.698 18.7809 39.5212 15.6171C43.8141 12.7165 39.2958 13.3324 37.161 14.5212C36.1632 15.1084 31.5421 19.2675 31.0559 20.3645Z" fill="#47668B"/>
</g>
</g>
<path fill-rule="evenodd" clip-rule="evenodd" d="M93.5 80C93.5 85.5 89 90 83.5 90C78 90 73.5 85.5 73.5 80C73.5 74.5 78 70 83.5 70C89 70 93.5 74.5 93.5 80ZM86.8603 76.6396C87.1531 76.9325 87.1531 77.4074 86.8603 77.7003L84.5606 79.9999L86.8603 82.2996C87.1531 82.5925 87.1531 83.0674 86.8603 83.3603C86.5674 83.6531 86.0925 83.6531 85.7996 83.3603L83.4999 81.0606L81.2003 83.3603C80.9074 83.6531 80.4325 83.6531 80.1396 83.3603C79.8467 83.0674 79.8467 82.5925 80.1396 82.2996L82.4393 79.9999L80.1396 77.7003C79.8467 77.4074 79.8467 76.9325 80.1396 76.6396C80.4325 76.3467 80.9074 76.3467 81.2003 76.6396L83.4999 78.9393L85.7996 76.6396C86.0925 76.3467 86.5674 76.3467 86.8603 76.6396Z" fill="#E43434"/>
<defs>
<clipPath id="clip0_5577_61901">
<rect width="100" height="100" fill="white" transform="translate(0.5)"/>
</clipPath>
<clipPath id="clip1_5577_61901">
<rect width="30.9091" height="12.7273" fill="white" transform="translate(34.8182 36.3633)"/>
</clipPath>
<clipPath id="clip2_5577_61901">
<rect width="41.8182" height="22.7273" fill="white" transform="translate(28.9089 9.54492)"/>
</clipPath>
</defs>
</svg>
