<svg width="101" height="100" viewBox="0 0 101 100" fill="none" xmlns="http://www.w3.org/2000/svg">
<g clip-path="url(#clip0_5577_61879)">
<path d="M99.7499 49.9977V49.9987C99.7594 57.3899 98.0987 64.6885 94.8911 71.3529C91.6834 78.0173 87.0111 83.8765 81.2205 88.4955L81.2193 88.4965C73.6957 94.5229 64.55 98.1948 54.9352 99.0489L54.9315 99.0492C53.6498 99.1694 52.3526 99.232 51.0396 99.2455H49.9563C48.6612 99.2455 47.3792 99.1701 46.1029 99.0536L46.1005 99.0534C36.4693 98.2045 27.3069 94.5291 19.7715 88.492L19.7704 88.4911C13.9821 83.8716 9.31176 78.0128 6.1057 71.3493C2.89965 64.6858 1.24006 57.3885 1.24992 49.9987V49.9977C1.24992 22.7991 23.2971 0.75 50.4977 0.75C77.6983 0.75 99.7499 22.7992 99.7499 49.9977Z" fill="#FFF7DF" stroke="#E43434" stroke-width="1.5"/>
<g opacity="0.5">
<path d="M50.0107 70.7324V94.4821C48.8324 94.4821 47.6678 94.4096 46.5122 94.3098C37.7876 93.5504 29.4828 90.2377 22.6416 84.7882V83.7317C22.6394 82.7087 22.953 81.7097 23.5397 80.8702C24.1265 80.0307 24.9581 79.3914 25.9217 79.0389L38.5554 74.3597L43.264 72.8816L50.0107 70.7324Z" fill="#BAE3FF"/>
<path d="M78.3489 83.7227V84.7882C71.5189 90.2301 63.2295 93.5422 54.5192 94.3098C53.3546 94.4126 52.1763 94.4716 50.9844 94.4867V70.7324L57.7766 72.8771L62.4397 74.3597L75.0734 79.0253C76.0369 79.3788 76.868 80.0192 77.454 80.8595C78.04 81.6998 78.3524 82.6994 78.3489 83.7227Z" fill="#BAE3FF"/>
<path d="M57.7765 59.8955H43.2549V74.3684H57.7765V59.8955Z" fill="#DE9C73"/>
<path d="M34.9206 40.7169H38.5601V49.4224H36.1262C35.7438 49.4224 35.3729 49.2926 35.0743 49.0544C34.7758 48.8162 34.5676 48.4839 34.4839 48.112L33.2555 42.7618C33.2008 42.5146 33.2027 42.2583 33.2611 42.0119C33.3195 41.7656 33.433 41.5355 33.5931 41.339C33.7531 41.1424 33.9556 40.9844 34.1855 40.8767C34.4153 40.769 34.6666 40.7143 34.9206 40.7169Z" fill="#E8B799"/>
<path d="M50.4975 21.0605L33.2554 30.4552L38.2597 55.8735C38.8238 58.7209 41.0803 61.5366 44.0192 63.7856C45.2071 64.679 46.6574 65.157 48.1455 65.1458H53.1953C54.8025 65.1451 56.3594 64.5873 57.5991 63.5679C60.1832 61.4323 62.2258 58.5804 62.7627 55.8599L68.7406 25.5357L50.4975 21.0605Z" fill="#E8B799"/>
<path d="M66.0794 40.7168H62.4399V49.4223H64.8693C65.2525 49.4233 65.6245 49.294 65.924 49.0558C66.2234 48.8175 66.4323 48.4846 66.5162 48.1119L67.7218 42.7481C67.7747 42.5036 67.7721 42.2505 67.7141 42.0072C67.6562 41.7639 67.5445 41.5365 67.387 41.3418C67.2296 41.1471 67.0305 40.9899 66.8042 40.8818C66.578 40.7736 66.3304 40.7173 66.0794 40.7168Z" fill="#E8B799"/>
<path d="M32.8372 28.4386L36.0718 44.8339L37.4776 43.8636C37.8411 43.6148 38.1306 43.273 38.3155 42.874C38.5005 42.475 38.574 42.0337 38.5285 41.5966L36.6587 23.2969L34.7752 24.2581C34.0498 24.6243 33.4643 25.2168 33.1079 25.9452C32.7515 26.6737 32.6436 27.4983 32.8008 28.2935L32.8372 28.4386Z" fill="#54472D"/>
<path d="M68.145 28.4386L64.9104 44.8339L63.5 43.8636C63.1372 43.6142 62.8483 43.2722 62.6635 42.8734C62.4786 42.4746 62.4046 42.0336 62.4491 41.5966L64.3235 23.2969L66.2069 24.2581C66.9297 24.6269 67.5123 25.2201 67.8669 25.9481C68.2215 26.6761 68.3287 27.4994 68.1723 28.2935L68.145 28.4386Z" fill="#54472D"/>
<path d="M39.7883 18.3857H72.089V20.8568C72.089 23.4074 71.0723 25.8535 69.2628 27.657C67.4532 29.4605 64.9988 30.4737 62.4397 30.4737H35.6211V22.539C35.6211 21.4375 36.0601 20.3811 36.8417 19.6022C37.6232 18.8233 38.6831 18.3857 39.7883 18.3857Z" fill="#54472D"/>
<path d="M36.7676 36.2775C38.1948 36.2775 39.3517 34.2171 39.3517 31.6754C39.3517 29.1337 38.1948 27.0732 36.7676 27.0732C35.3405 27.0732 34.1836 29.1337 34.1836 31.6754C34.1836 34.2171 35.3405 36.2775 36.7676 36.2775Z" fill="#54472D"/>
<path d="M66.8393 31.6754C66.8393 34.2145 65.6838 36.2775 64.2598 36.2775C62.8359 36.2775 61.6758 34.2145 61.6758 31.6754C61.6758 29.1363 62.8313 27.0732 64.2598 27.0732C65.6883 27.0732 66.8393 29.1317 66.8393 31.6754Z" fill="#54472D"/>
<path d="M50.5432 70.7324V94.4867H50.0336C48.8553 94.4867 47.6907 94.4141 46.5352 94.3144L49.283 77.5336L48.1092 75.9557L47.0083 74.4776L47.1084 74.3733L50.0109 71.2901L50.1974 71.0906L50.5432 70.7324Z" fill="#296FB0"/>
<path d="M54.5196 94.3098C53.355 94.4126 52.1767 94.4716 50.9847 94.4867H50.5298V70.7324L50.8209 71.0453L50.9938 71.2312L53.9373 74.3506L54.0374 74.4549L52.9182 75.9557L51.749 77.5336L54.5196 94.3098Z" fill="#296FB0"/>
<path d="M38.5601 74.3634L43.255 67.127L50.9844 70.7452L46.6125 78.6436L38.5601 74.3634Z" fill="#F1F9FF"/>
<path d="M62.44 74.3634L57.7405 67.127L50.0156 70.7452L54.383 78.6436L62.44 74.3634Z" fill="#F1F9FF"/>
</g>
</g>
<path fill-rule="evenodd" clip-rule="evenodd" d="M93.4761 80C93.4761 85.5 89.0303 90 83.5966 90C78.1628 90 73.717 85.5 73.717 80C73.717 74.5 78.1628 70 83.5966 70C89.0303 70 93.4761 74.5 93.4761 80ZM86.9163 76.6396C87.2057 76.9325 87.2057 77.4074 86.9163 77.7003L84.6444 79.9999L86.9163 82.2996C87.2057 82.5925 87.2057 83.0674 86.9163 83.3603C86.627 83.6531 86.1578 83.6531 85.8684 83.3603L83.5965 81.0606L81.3245 83.3603C81.0352 83.6531 80.566 83.6531 80.2766 83.3603C79.9873 83.0674 79.9873 82.5925 80.2766 82.2996L82.5486 79.9999L80.2766 77.7003C79.9873 77.4074 79.9873 76.9325 80.2766 76.6396C80.566 76.3467 81.0352 76.3467 81.3245 76.6396L83.5965 78.9393L85.8684 76.6396C86.1578 76.3467 86.627 76.3467 86.9163 76.6396Z" fill="#E43434"/>
<defs>
<clipPath id="clip0_5577_61879">
<rect width="100" height="100" fill="white" transform="translate(0.5)"/>
</clipPath>
</defs>
</svg>
