<svg width="311" height="218" viewBox="0 0 311 218" fill="none" xmlns="http://www.w3.org/2000/svg">
<g clip-path="url(#clip0_128_37483)">
<path fill-rule="evenodd" clip-rule="evenodd" d="M139.848 41.4996C162.242 37.0095 183.402 24.1179 204.767 30.2618C230.394 37.6311 252.477 53.9309 262.439 76.7526C273.823 102.831 275.933 133.469 261.057 159.207C245.526 186.078 216.631 207.769 184.268 211.997C154.43 215.895 132.185 193.444 107.242 179.301C83.7405 165.974 53.5291 157.745 45.4541 133.284C37.1248 108.052 46.6819 77.7583 67.1517 57.8544C85.1958 40.3091 114.537 46.5746 139.848 41.4996Z" fill="#FFC709"/>
<rect x="147" y="15" width="105" height="203" rx="12" fill="#1B1D29"/>
<rect x="152" y="19.999" width="95" height="192" rx="11" fill="white"/>
<path d="M215.802 180H184.294C183.579 180 183 180.579 183 181.294C183 182.008 183.579 182.587 184.294 182.587H215.802C216.517 182.587 217.096 182.008 217.096 181.294C217.096 180.579 216.517 180 215.802 180Z" fill="#1B1D29"/>
<path d="M227.248 185.749H173.294C172.579 185.749 172 186.328 172 187.043C172 187.757 172.579 188.336 173.294 188.336H227.248C227.962 188.336 228.542 187.757 228.542 187.043C228.542 186.328 227.962 185.749 227.248 185.749Z" fill="#1B1D29"/>
<path d="M224.512 191.5H175.294C174.579 191.5 174 192.079 174 192.794C174 193.508 174.579 194.087 175.294 194.087H224.512C225.227 194.087 225.806 193.508 225.806 192.794C225.806 192.079 225.227 191.5 224.512 191.5Z" fill="#1B1D29"/>
<rect x="184" y="16.0427" width="32.5162" height="8.33911" rx="4.16955" fill="#1B1D29"/>
<path fill-rule="evenodd" clip-rule="evenodd" d="M177 103H173C170.791 103 169 104.791 169 107V112C169 114.209 170.791 116 173 116H177C179.209 116 181 114.209 181 112V107C181 104.791 179.209 103 177 103ZM173 101C169.686 101 167 103.686 167 107V112C167 115.314 169.686 118 173 118H177C180.314 118 183 115.314 183 112V107C183 103.686 180.314 101 177 101H173Z" fill="black"/>
<path fill-rule="evenodd" clip-rule="evenodd" d="M202 103H197C194.791 103 193 104.791 193 107V112C193 114.209 194.791 116 197 116H202C204.209 116 206 114.209 206 112V107C206 104.791 204.209 103 202 103ZM197 101C193.686 101 191 103.686 191 107V112C191 115.314 193.686 118 197 118H202C205.314 118 208 115.314 208 112V107C208 103.686 205.314 101 202 101H197Z" fill="black"/>
<path fill-rule="evenodd" clip-rule="evenodd" d="M226 103H222C219.791 103 218 104.791 218 107V112C218 114.209 219.791 116 222 116H226C228.209 116 230 114.209 230 112V107C230 104.791 228.209 103 226 103ZM222 101C218.686 101 216 103.686 216 107V112C216 115.314 218.686 118 222 118H226C229.314 118 232 115.314 232 112V107C232 103.686 229.314 101 226 101H222Z" fill="black"/>
<path fill-rule="evenodd" clip-rule="evenodd" d="M177 124H173C170.791 124 169 125.791 169 128V133C169 135.209 170.791 137 173 137H177C179.209 137 181 135.209 181 133V128C181 125.791 179.209 124 177 124ZM173 122C169.686 122 167 124.686 167 128V133C167 136.314 169.686 139 173 139H177C180.314 139 183 136.314 183 133V128C183 124.686 180.314 122 177 122H173Z" fill="black"/>
<path fill-rule="evenodd" clip-rule="evenodd" d="M177 145H173C170.791 145 169 146.791 169 149V154C169 156.209 170.791 158 173 158H177C179.209 158 181 156.209 181 154V149C181 146.791 179.209 145 177 145ZM173 143C169.686 143 167 145.686 167 149V154C167 157.314 169.686 160 173 160H177C180.314 160 183 157.314 183 154V149C183 145.686 180.314 143 177 143H173Z" fill="black"/>
<path fill-rule="evenodd" clip-rule="evenodd" d="M202 124H197C194.791 124 193 125.791 193 128V133C193 135.209 194.791 137 197 137H202C204.209 137 206 135.209 206 133V128C206 125.791 204.209 124 202 124ZM197 122C193.686 122 191 124.686 191 128V133C191 136.314 193.686 139 197 139H202C205.314 139 208 136.314 208 133V128C208 124.686 205.314 122 202 122H197Z" fill="black"/>
<path fill-rule="evenodd" clip-rule="evenodd" d="M202 145H197C194.791 145 193 146.791 193 149V154C193 156.209 194.791 158 197 158H202C204.209 158 206 156.209 206 154V149C206 146.791 204.209 145 202 145ZM197 143C193.686 143 191 145.686 191 149V154C191 157.314 193.686 160 197 160H202C205.314 160 208 157.314 208 154V149C208 145.686 205.314 143 202 143H197Z" fill="black"/>
<path fill-rule="evenodd" clip-rule="evenodd" d="M226 124H222C219.791 124 218 125.791 218 128V133C218 135.209 219.791 137 222 137H226C228.209 137 230 135.209 230 133V128C230 125.791 228.209 124 226 124ZM222 122C218.686 122 216 124.686 216 128V133C216 136.314 218.686 139 222 139H226C229.314 139 232 136.314 232 133V128C232 124.686 229.314 122 226 122H222Z" fill="black"/>
<path fill-rule="evenodd" clip-rule="evenodd" d="M226 145H222C219.791 145 218 146.791 218 149V154C218 156.209 219.791 158 222 158H226C228.209 158 230 156.209 230 154V149C230 146.791 228.209 145 226 145ZM222 143C218.686 143 216 145.686 216 149V154C216 157.314 218.686 160 222 160H226C229.314 160 232 157.314 232 154V149C232 145.686 229.314 143 226 143H222Z" fill="black"/>
<path d="M201 69.0001C195.4 67.0001 190.333 65.834 188 67.5007C188 68.5 187.7 75.5999 188.5 77.9999C189.5 80.9999 193.5 79.9999 195 79.9999C196.5 79.9999 208 80.4999 210 78.9999C211.6 77.7999 211.5 72.5 211.5 67.5C210.833 68.3334 206.6 71.0001 201 69.0001Z" fill="#FFD143"/>
<rect x="198.535" y="67.0498" width="2.25687" height="7.02139" rx="1.12844" fill="#1B1D29"/>
<path fill-rule="evenodd" clip-rule="evenodd" d="M194.021 60.5291L194.021 58.7737C194.021 55.5883 196.604 53.0061 199.789 53.0061C202.974 53.0061 205.557 55.5883 205.557 58.7737V60.5291L194.021 60.5291ZM192.015 60.5293V60.5291L192.015 58.7737C192.015 54.4804 195.496 51 199.789 51C204.082 51 207.563 54.4804 207.563 58.7737V60.5291V60.5293H207.813C210.306 60.5293 212.327 62.5502 212.327 65.0431V76.5782C212.327 79.0711 210.306 81.0919 207.813 81.0919H191.514C189.021 81.0919 187 79.0711 187 76.5782V65.0431C187 62.5502 189.021 60.5293 191.514 60.5293H192.015ZM191.514 62.5354H207.813C209.198 62.5354 210.321 63.6581 210.321 65.0431V76.5782C210.321 77.9631 209.198 79.0858 207.813 79.0858H191.514C190.129 79.0858 189.006 77.9631 189.006 76.5782V65.0431C189.006 63.6581 190.129 62.5354 191.514 62.5354Z" fill="#1B1D29"/>
<path d="M77.5224 91.8012H46.0987C44.3873 91.8012 43 93.2122 43 94.9526V107.642C43 109.383 44.3873 110.794 46.0987 110.794H77.5224C79.2337 110.794 80.6211 109.383 80.6211 107.642V94.9526C80.6211 93.2122 79.2337 91.8012 77.5224 91.8012Z" fill="#0072BC"/>
<path d="M74.4118 107.724V116.294L65.8245 107.56L74.4118 107.724Z" fill="#0072BC"/>
<path d="M51.3552 102.652C51.9954 102.001 51.9954 100.946 51.3552 100.295C50.7151 99.6438 49.6772 99.6438 49.037 100.295C48.3969 100.946 48.3969 102.001 49.037 102.652C49.6772 103.304 50.7151 103.304 51.3552 102.652Z" fill="white"/>
<path d="M57.2885 101.862C57.4957 100.966 56.9492 100.068 56.0679 99.8576C55.1866 99.6469 54.3043 100.203 54.0971 101.099C53.8899 101.995 54.4363 102.893 55.3176 103.103C56.1989 103.314 57.0813 102.758 57.2885 101.862Z" fill="white"/>
<path d="M62.7855 101.862C62.9927 100.966 62.4463 100.068 61.565 99.8574C60.6837 99.6467 59.8013 100.202 59.5941 101.099C59.387 101.995 59.9334 102.892 60.8147 103.103C61.696 103.314 62.5784 102.758 62.7855 101.862Z" fill="white"/>
<path d="M68.3053 101.746C68.4504 100.837 67.8436 99.9807 66.95 99.8331C66.0563 99.6856 65.2143 100.303 65.0693 101.212C64.9242 102.12 65.5311 102.977 66.4247 103.124C67.3183 103.272 68.1603 102.655 68.3053 101.746Z" fill="white"/>
<path d="M73.344 102.653C73.9841 102.002 73.9841 100.947 73.344 100.296C72.7038 99.6447 71.6659 99.6447 71.0258 100.296C70.3856 100.947 70.3856 102.002 71.0258 102.653C71.6659 103.304 72.7038 103.304 73.344 102.653Z" fill="white"/>
<path d="M112.102 62H92.166C90.1384 62 88.4946 63.6717 88.4946 65.7339V80.7686C88.4946 82.8308 90.1384 84.5025 92.166 84.5025H112.102C114.13 84.5025 115.773 82.8308 115.773 80.7686V65.7339C115.773 63.6717 114.13 62 112.102 62Z" fill="#0072BC"/>
<path d="M98.3618 83.8022L101.487 89.3808L104.93 83.8022H98.3618Z" fill="#0072BC"/>
<path d="M101.544 72.7252L96.0994 68.5506H106.962L101.544 72.7252Z" fill="white"/>
<path d="M107.418 69.6266V76.8707H95.6426V69.6266L101.544 74.1275L107.418 69.6266Z" fill="white"/>
<path fill-rule="evenodd" clip-rule="evenodd" d="M95.5001 139.5C93.601 139.646 89.1155 140.919 86.1511 142.039L86 142C86 142 81.7408 142.893 78.6559 144.536C78.0831 144.84 77.5301 145.173 77 145.536C82.4279 154.62 83.0722 163.437 83.5707 170.258C83.7287 172.42 83.8721 174.382 84.1486 176.088V217H109H112H115.05H121H145L141 193L144 145C141.5 142.5 130 137.5 130 137.5L129.785 137.562C126.868 136.316 123.405 135 122 135C119.5 138 115.913 141.36 108.5 142.5C102 143.5 97.0001 140.5 95.5001 139.5Z" fill="#FFEAAF"/>
<path fill-rule="evenodd" clip-rule="evenodd" d="M99.1355 137.317L100.572 142.033C107.669 143.478 114.128 142.235 118.522 138.918L115.618 129.778L105.072 134.837L99.1355 137.317Z" fill="white"/>
<path fill-rule="evenodd" clip-rule="evenodd" d="M99.0119 137.02C98.9387 137.051 98.8793 137.108 98.8453 137.179C98.8112 137.251 98.8049 137.333 98.8275 137.409L100.264 142.126C100.281 142.181 100.313 142.231 100.356 142.27C100.399 142.309 100.452 142.335 100.509 142.346C107.707 143.812 114.251 142.539 118.719 139.173C118.772 139.133 118.811 139.077 118.83 139.014C118.849 138.95 118.848 138.882 118.826 138.82L115.921 129.676C115.907 129.632 115.884 129.592 115.853 129.557C115.822 129.523 115.784 129.496 115.742 129.478C115.699 129.459 115.654 129.451 115.607 129.452C115.561 129.453 115.516 129.464 115.475 129.485L104.937 134.539L99.0119 137.02ZM99.526 137.5L105.195 135.128C105.202 135.128 105.21 135.128 105.21 135.122L115.426 130.222L118.145 138.798C113.859 141.937 107.646 143.103 100.817 141.756L99.526 137.5Z" fill="#1B1D29"/>
<path fill-rule="evenodd" clip-rule="evenodd" d="M88.9263 121.954C88.9263 121.954 90.7392 128.637 91.5149 130.736C92.2905 132.835 96.1849 138.037 104.127 138.202C112.069 138.367 116.862 130.459 117.124 126.767C117.124 126.767 122.656 127.764 124.021 122.576C124.912 119.201 120.587 114.91 116.24 118.075L109.289 108.706L95.2709 105.294L86.5532 113.435L88.9263 121.954Z" fill="white"/>
<path fill-rule="evenodd" clip-rule="evenodd" d="M88.6198 122.039C88.6428 122.137 90.4396 128.757 91.2153 130.847C92.007 132.998 95.9856 138.354 104.124 138.525C109.008 138.628 112.734 135.756 114.992 132.626C116.382 130.678 117.216 128.624 117.419 127.129C118.687 127.252 123.11 127.329 124.334 122.66C124.619 121.569 124.405 120.389 123.835 119.364C122.552 117.065 119.465 115.544 116.308 117.639C115.21 116.151 109.542 108.514 109.542 108.514C109.496 108.455 109.43 108.414 109.357 108.399L95.3482 104.983C95.297 104.97 95.2435 104.971 95.1925 104.984C95.1416 104.998 95.0948 105.024 95.0566 105.06L86.3308 113.201C86.2885 113.241 86.2576 113.292 86.2414 113.349C86.2252 113.405 86.2243 113.465 86.2386 113.521L88.6198 122.039ZM89.2341 121.869L86.914 113.539L95.3632 105.649L109.097 108.995L115.978 118.276C116.029 118.343 116.104 118.388 116.188 118.401C116.271 118.413 116.356 118.392 116.424 118.343C119.275 116.266 122.117 117.605 123.276 119.683C123.767 120.561 123.96 121.569 123.714 122.503C122.423 127.413 117.185 126.461 117.185 126.461C117.141 126.453 117.095 126.454 117.052 126.465C117.008 126.476 116.967 126.496 116.932 126.524C116.895 126.551 116.866 126.585 116.844 126.625C116.823 126.665 116.811 126.709 116.808 126.754C116.709 128.189 115.886 130.275 114.466 132.257C112.316 135.241 108.782 137.988 104.135 137.891C96.3924 137.727 92.5672 132.679 91.8146 130.631C91.0389 128.532 89.2341 121.869 89.2341 121.869Z" fill="#1B1D29"/>
<path fill-rule="evenodd" clip-rule="evenodd" d="M88.3511 119.804L89.0265 122.343C89.0265 122.343 82.9435 119.313 84.1859 109.29C85.4283 99.2659 99.8027 89.3472 111.97 96.0809C111.97 96.0809 126.118 96.936 121.333 117.409C121.333 117.409 119.12 115.909 116.187 118.087C116.187 118.087 116.125 120.625 115.802 122.111C115.787 122.158 115.762 122.201 115.727 122.236C115.692 122.272 115.65 122.298 115.603 122.314C115.554 122.329 115.502 122.331 115.453 122.32C115.403 122.31 115.357 122.287 115.318 122.254C114.842 121.741 113.921 120.572 112.976 118.33C112.976 118.33 107.168 119.275 102.142 112.681C97.1161 106.087 94.3466 108.935 93.4626 111.728C93.4626 111.728 88.6393 110.144 88.6312 114.772C88.6347 116.685 89.3412 117.184 88.3511 119.804Z" fill="#1B1D29"/>
<path fill-rule="evenodd" clip-rule="evenodd" d="M88.6889 119.821C89.272 118.236 89.249 117.398 89.1418 116.574C89.0307 115.981 88.969 115.38 88.9574 114.777C88.9574 113.521 89.3343 112.764 89.8794 112.329C90.3935 111.925 91.0389 111.803 91.6382 111.793C92.2234 111.787 92.8061 111.87 93.367 112.037C93.4486 112.063 93.537 112.056 93.6136 112.018C93.6888 111.977 93.7462 111.91 93.775 111.83C94.1818 110.545 94.9886 109.224 96.3105 109.006C96.9629 108.897 97.7316 109.072 98.6225 109.635C99.5826 110.237 100.666 111.272 101.895 112.881C106.426 118.829 111.595 118.779 112.778 118.68C113.708 120.829 114.614 121.964 115.091 122.473C115.098 122.481 115.106 122.489 115.114 122.496C115.193 122.564 115.287 122.61 115.389 122.632C115.49 122.654 115.596 122.649 115.695 122.619C115.794 122.589 115.885 122.535 115.958 122.461C116.03 122.387 116.084 122.296 116.112 122.196V122.179C116.397 120.898 116.481 118.832 116.504 118.255C119.169 116.36 121.151 117.678 121.151 117.678C121.195 117.707 121.245 117.726 121.297 117.731C121.349 117.737 121.402 117.73 121.451 117.712C121.499 117.693 121.541 117.663 121.575 117.623C121.608 117.584 121.631 117.537 121.642 117.487C123.593 109.172 122.434 104.046 120.374 100.886C117.463 96.4144 112.716 95.8328 112.063 95.7727C104.658 91.7083 96.4558 93.6875 90.8026 98.1235C87.0154 101.096 84.3807 105.17 83.8736 109.255C82.5978 119.536 88.8813 122.623 88.8813 122.623C88.9364 122.651 88.9982 122.662 89.0593 122.655C89.1205 122.648 89.1784 122.624 89.2262 122.585C89.2739 122.546 89.3095 122.494 89.3287 122.436C89.3479 122.377 89.3498 122.315 89.3343 122.255L88.6889 119.821ZM115.502 121.977C115.018 121.448 114.159 120.313 113.276 118.21C113.248 118.144 113.198 118.09 113.136 118.055C113.073 118.02 113.001 118.007 112.93 118.019C112.93 118.019 107.292 118.908 102.399 112.492C101.109 110.805 99.964 109.722 98.966 109.092C97.8976 108.423 96.9767 108.245 96.1999 108.375C94.7558 108.613 93.7727 109.938 93.2575 111.344C92.7227 111.21 92.1732 111.145 91.622 111.151C90.8994 111.165 90.1088 111.332 89.4864 111.826C88.8179 112.354 88.3189 113.254 88.3189 114.776C88.3304 115.407 88.3921 116.036 88.5033 116.658C88.6024 117.427 88.6186 118.196 88.0504 119.691C88.0288 119.754 88.026 119.822 88.0423 119.887L88.5033 121.618C86.9981 120.494 83.5474 117.021 84.5017 109.325C84.9927 105.393 87.5513 101.478 91.1991 98.6197C96.6759 94.3187 104.633 92.388 111.814 96.359C111.857 96.381 111.904 96.3943 111.953 96.3982C111.953 96.3982 116.884 96.7017 119.834 101.229C121.8 104.242 122.868 109.102 121.108 116.923C120.31 116.568 118.375 116.053 115.993 117.82C115.954 117.849 115.922 117.887 115.9 117.93C115.877 117.974 115.865 118.022 115.863 118.07C115.863 118.07 115.806 120.51 115.502 121.977Z" fill="#1B1D29"/>
<path fill-rule="evenodd" clip-rule="evenodd" d="M117.608 123.126C118.913 121.998 120.331 121.008 121.839 120.172C121.908 120.129 121.959 120.061 121.979 119.982C122 119.902 121.99 119.818 121.95 119.747C121.911 119.675 121.846 119.621 121.768 119.596C121.691 119.571 121.606 119.577 121.533 119.612C119.98 120.472 118.52 121.49 117.177 122.652C117.144 122.68 117.118 122.714 117.098 122.752C117.079 122.791 117.068 122.833 117.065 122.876C117.062 122.919 117.068 122.962 117.083 123.002C117.097 123.043 117.119 123.08 117.148 123.112C117.177 123.144 117.212 123.17 117.251 123.188C117.29 123.206 117.332 123.216 117.375 123.217C117.418 123.218 117.461 123.211 117.501 123.195C117.541 123.18 117.577 123.156 117.608 123.126Z" fill="#000045"/>
<path fill-rule="evenodd" clip-rule="evenodd" d="M118.906 121.83L120.549 123.156C120.582 123.182 120.62 123.202 120.66 123.214C120.7 123.226 120.742 123.229 120.784 123.225C120.826 123.22 120.866 123.207 120.903 123.187C120.94 123.167 120.972 123.14 120.998 123.107C121.024 123.074 121.044 123.037 121.056 122.997C121.068 122.956 121.071 122.914 121.067 122.872C121.062 122.831 121.049 122.79 121.029 122.753C121.009 122.716 120.982 122.684 120.949 122.658L119.313 121.331C119.246 121.277 119.161 121.252 119.076 121.262C118.991 121.271 118.914 121.313 118.86 121.379C118.833 121.411 118.812 121.449 118.8 121.489C118.787 121.53 118.783 121.572 118.788 121.614C118.792 121.656 118.805 121.697 118.825 121.734C118.845 121.771 118.873 121.804 118.906 121.83Z" fill="#000045"/>
<path fill-rule="evenodd" clip-rule="evenodd" d="M90.3405 120.737C90.3405 120.737 92.445 117.304 95.588 119.541C95.6573 119.589 95.7427 119.608 95.8259 119.594C95.9091 119.58 95.9834 119.533 96.033 119.465C96.0825 119.397 96.1034 119.312 96.0911 119.228C96.0788 119.144 96.0343 119.069 95.9672 119.018C92.2791 116.394 89.7896 120.403 89.7896 120.403C89.7668 120.438 89.7515 120.478 89.7445 120.52C89.7375 120.562 89.7391 120.605 89.7491 120.646C89.7591 120.687 89.7774 120.726 89.8028 120.76C89.8282 120.794 89.8601 120.822 89.8968 120.844C89.9699 120.888 90.0574 120.901 90.1404 120.882C90.2234 120.862 90.2953 120.81 90.3405 120.737Z" fill="#000045"/>
<path fill-rule="evenodd" clip-rule="evenodd" d="M102.936 129.357C102.936 129.357 102.508 130.726 101.133 131.282C100.538 131.52 99.7496 131.606 98.7515 131.365C98.6693 131.347 98.5833 131.361 98.5121 131.406C98.4408 131.451 98.39 131.522 98.3707 131.604C98.3513 131.686 98.3649 131.772 98.4086 131.844C98.4522 131.916 98.5224 131.968 98.604 131.989C99.7692 132.267 100.679 132.156 101.377 131.874C103.039 131.204 103.543 129.547 103.543 129.547C103.556 129.507 103.561 129.465 103.558 129.423C103.554 129.381 103.543 129.34 103.523 129.303C103.504 129.265 103.477 129.232 103.444 129.205C103.412 129.179 103.374 129.159 103.334 129.147C103.294 129.134 103.252 129.13 103.211 129.134C103.169 129.137 103.128 129.149 103.092 129.169C103.055 129.188 103.022 129.215 102.995 129.247C102.969 129.279 102.949 129.317 102.936 129.357Z" fill="#000045"/>
<path fill-rule="evenodd" clip-rule="evenodd" d="M102.499 117.045C102.499 117.045 103.812 115.943 105.38 116.05C105.464 116.055 105.548 116.027 105.611 115.971C105.675 115.916 105.714 115.837 105.72 115.752C105.725 115.667 105.697 115.584 105.642 115.52C105.586 115.456 105.507 115.417 105.422 115.412C103.625 115.287 102.088 116.551 102.088 116.551C102.055 116.577 102.028 116.61 102.008 116.647C101.988 116.684 101.975 116.725 101.971 116.768C101.968 116.81 101.973 116.852 101.986 116.893C101.999 116.933 102.02 116.97 102.048 117.002C102.103 117.067 102.18 117.107 102.265 117.115C102.349 117.123 102.433 117.098 102.499 117.045Z" fill="#000045"/>
<path d="M104.294 122.545C104.915 122.545 105.419 122.04 105.419 121.418C105.419 120.796 104.915 120.292 104.294 120.292C103.673 120.292 103.169 120.796 103.169 121.418C103.169 122.04 103.673 122.545 104.294 122.545Z" fill="#000045"/>
<path d="M93.8707 124.326C94.492 124.326 94.9956 123.822 94.9956 123.2C94.9956 122.578 94.492 122.074 93.8707 122.074C93.2495 122.074 92.7458 122.578 92.7458 123.2C92.7458 123.822 93.2495 124.326 93.8707 124.326Z" fill="#000045"/>
<path d="M99.1504 124.191L98.5938 127.731" stroke="#000045" stroke-width="0.5" stroke-linecap="round" stroke-linejoin="round"/>
<path fill-rule="evenodd" clip-rule="evenodd" d="M121.526 134.842C121.613 134.58 121.896 134.438 122.158 134.526C124.919 135.446 129.332 137.051 133.609 138.878C137.868 140.697 142.055 142.762 144.317 144.613L145.019 145.187L144.158 145.474C140.031 146.85 135.504 153.479 137.993 167.915C139.191 174.865 140.989 186.96 142.632 198.008C143.731 205.398 144.76 212.321 145.494 216.921C145.537 217.194 145.351 217.45 145.079 217.494C144.806 217.537 144.55 217.351 144.506 217.079C143.769 212.454 142.738 205.519 141.638 198.122C139.998 187.089 138.205 175.03 137.007 168.085C134.641 154.364 138.475 147.027 143.001 144.866C140.747 143.244 137.064 141.441 133.216 139.797C128.968 137.983 124.581 136.387 121.842 135.474C121.58 135.387 121.438 135.104 121.526 134.842Z" fill="#1B1D29"/>
<path fill-rule="evenodd" clip-rule="evenodd" d="M107.935 160.775C107.935 160.775 102.92 157.96 101.322 157.175C99.847 156.448 95.8454 154.527 91.2526 155.643C90.9528 155.714 90.6914 155.897 90.5216 156.155C90.3518 156.412 90.2863 156.724 90.3386 157.028C90.3865 157.314 90.5325 157.574 90.7512 157.764C90.97 157.953 91.248 158.06 91.5372 158.067C92.9272 158.113 95.4236 158.374 96.9541 159.605C96.9541 159.605 94.7424 160.097 94.3425 161.759C93.9426 163.42 93.4573 166.643 93.8746 168.946C94.1362 170.415 99.0679 170.576 101.326 170.169C101.326 170.169 104.482 171.376 104.759 171.445C105.036 171.514 107.562 164.06 107.562 164.06L107.935 160.775Z" fill="white"/>
<path fill-rule="evenodd" clip-rule="evenodd" d="M90.0159 157.047C90.0148 157.058 90.0173 157.068 90.0228 157.078C90.0821 157.437 90.2639 157.764 90.5371 158.003C90.8103 158.243 91.1581 158.38 91.5211 158.391C92.7197 158.429 94.7631 158.622 96.2372 159.498C95.8903 159.633 95.5604 159.809 95.2541 160.021C94.7089 160.398 94.2099 160.937 94.0255 161.682C93.6175 163.382 93.1346 166.658 93.5564 168.996C93.6028 169.253 93.7389 169.484 93.9402 169.65C94.1938 169.888 94.5856 170.081 95.0778 170.235C96.7674 170.766 99.6556 170.772 101.291 170.496C101.791 170.688 104.418 171.688 104.678 171.757C104.722 171.768 104.768 171.77 104.813 171.763C104.858 171.756 104.9 171.739 104.939 171.715C105.047 171.638 105.132 171.531 105.184 171.408C105.799 170.247 107.865 164.163 107.865 164.163C107.865 164.163 107.873 164.125 107.873 164.102L108.257 160.818C108.262 160.756 108.25 160.693 108.221 160.637C108.193 160.582 108.149 160.535 108.096 160.503C108.096 160.503 103.065 157.672 101.459 156.89C99.9541 156.148 95.8672 154.195 91.1741 155.335C90.8027 155.425 90.478 155.65 90.2637 155.966C90.0494 156.283 89.961 156.668 90.0159 157.047ZM104.632 171.066C103.873 170.792 101.437 169.869 101.437 169.869C101.383 169.852 101.325 169.847 101.268 169.854C99.7248 170.131 96.9057 170.138 95.2622 169.63C94.9798 169.551 94.7124 169.426 94.4704 169.261C94.4003 169.22 94.3391 169.166 94.2904 169.101C94.2417 169.037 94.2065 168.963 94.1869 168.885C93.78 166.631 94.2479 163.47 94.6479 161.839C94.7931 161.255 95.193 160.84 95.6148 160.548C96.0448 160.26 96.5201 160.047 97.0209 159.917C97.0805 159.905 97.1355 159.877 97.1791 159.835C97.2228 159.792 97.2531 159.738 97.2664 159.679C97.2789 159.62 97.2747 159.558 97.2544 159.501C97.234 159.444 97.1983 159.394 97.1512 159.356C95.5687 158.086 92.9882 157.801 91.5441 157.755C91.3316 157.748 91.1279 157.669 90.9661 157.531C90.8043 157.393 90.694 157.204 90.6532 156.995V156.975C90.6159 156.752 90.664 156.524 90.788 156.335C90.9119 156.146 91.1026 156.011 91.3217 155.957H91.3286C95.8234 154.864 99.7317 156.752 101.184 157.463C102.59 158.156 106.676 160.439 107.598 160.955L107.244 163.989C107.106 164.405 105.608 168.804 104.863 170.581C104.779 170.772 104.694 170.95 104.632 171.066ZM90.5714 157.244C90.5633 157.257 90.5483 157.31 90.402 157.339C90.4663 157.326 90.5248 157.292 90.5691 157.244H90.5714Z" fill="#000045"/>
<path fill-rule="evenodd" clip-rule="evenodd" d="M112.905 161.697C112.528 161.559 108.673 160.067 107.719 160.559C106.764 161.052 104.254 165.966 104.409 171.58C104.415 171.827 104.474 172.07 104.581 172.293C104.688 172.516 104.841 172.713 105.03 172.873C106.09 173.765 108.295 175.61 108.916 176.133C108.149 178.649 112.58 182.324 114.954 183.793C117.345 185.27 133 199.5 150.694 194.449C159.788 191.449 161.311 183.252 158.5 172.873C154.5 162.5 149 150.5 144.603 145C144.603 145 134.089 149.995 138.39 168.701C138.39 168.701 123.673 162.84 119.488 161.572C117.682 161.028 114.488 159.89 112.905 161.697Z" fill="white"/>
<path fill-rule="evenodd" clip-rule="evenodd" d="M94.1201 167.658L96.5105 167.839C96.5931 167.842 96.6735 167.812 96.735 167.757C96.7964 167.702 96.8342 167.625 96.8403 167.542C96.8464 167.459 96.8204 167.378 96.7677 167.314C96.7151 167.25 96.6398 167.209 96.5577 167.2L94.1674 167.018C94.1252 167.015 94.0827 167.019 94.0424 167.032C94.002 167.045 93.9647 167.066 93.9325 167.093C93.9003 167.121 93.8739 167.155 93.8548 167.192C93.8358 167.23 93.8245 167.272 93.8216 167.314C93.8186 167.356 93.824 167.399 93.8374 167.439C93.8508 167.479 93.8719 167.516 93.8997 167.548C93.9274 167.58 93.9611 167.606 93.9989 167.625C94.0368 167.644 94.0779 167.655 94.1201 167.658Z" fill="#000045"/>
<path fill-rule="evenodd" clip-rule="evenodd" d="M94.4968 162.792L97.2629 163.11C97.3447 163.114 97.425 163.087 97.4873 163.033C97.5495 162.98 97.5891 162.905 97.5978 162.824C97.6065 162.742 97.5837 162.66 97.5341 162.595C97.4844 162.53 97.4117 162.486 97.3309 162.473L94.5648 162.157C94.5236 162.152 94.4818 162.156 94.4421 162.168C94.4023 162.18 94.3653 162.2 94.3332 162.226C94.3011 162.252 94.2744 162.285 94.2548 162.321C94.2353 162.358 94.2231 162.398 94.2191 162.439C94.2096 162.523 94.2335 162.607 94.2855 162.673C94.3375 162.739 94.4134 162.782 94.4968 162.792Z" fill="#000045"/>
<path fill-rule="evenodd" clip-rule="evenodd" d="M94.1132 165.267L96.8793 165.584C96.9625 165.592 97.0455 165.567 97.1103 165.514C97.1751 165.461 97.2163 165.385 97.225 165.301C97.2338 165.217 97.2092 165.132 97.1564 165.066C97.1036 164.999 97.0268 164.956 96.9427 164.946L94.1766 164.631C94.0933 164.622 94.0101 164.648 93.9453 164.701C93.8804 164.754 93.8393 164.83 93.8308 164.914C93.8221 164.998 93.8468 165.082 93.8996 165.148C93.9525 165.214 94.0292 165.257 94.1132 165.267Z" fill="#000045"/>
<path fill-rule="evenodd" clip-rule="evenodd" d="M144.206 144.596C144.429 144.433 144.742 144.483 144.904 144.706C148.923 150.232 154.326 159.2 157.472 168.159C159.045 172.639 160.063 177.142 160.047 181.227C160.031 185.316 158.977 189.02 156.367 191.84C153.12 195.346 148.625 196.75 143.734 196.75C138.849 196.75 133.53 195.351 128.552 193.209C123.572 191.066 118.904 188.165 115.318 185.132C111.835 182.186 109.297 179.052 108.563 176.309C106.419 174.876 105.03 173.865 104.245 172.95C103.833 172.469 103.566 171.991 103.449 171.468C103.334 170.946 103.378 170.426 103.515 169.879C103.565 169.679 103.621 169.382 103.695 168.996C103.707 168.934 103.719 168.87 103.732 168.803C103.822 168.33 103.933 167.764 104.076 167.152C104.361 165.933 104.778 164.51 105.433 163.267C106.084 162.029 107.002 160.909 108.318 160.394C109.621 159.883 111.204 160.008 113.106 160.991C114.705 160.894 117.269 161.284 120.252 161.966C123.349 162.673 126.959 163.709 130.533 164.901C134.107 166.092 137.655 167.442 140.627 168.778C143.582 170.107 146.021 171.446 147.334 172.628C147.54 172.813 147.556 173.129 147.372 173.334C147.187 173.54 146.871 173.556 146.666 173.372C145.479 172.304 143.168 171.018 140.217 169.69C137.283 168.371 133.768 167.033 130.217 165.849C126.666 164.666 123.088 163.639 120.029 162.941C116.949 162.237 114.456 161.88 113.042 161.998L112.895 162.011L112.765 161.941C110.974 160.986 109.662 160.941 108.682 161.325C107.685 161.716 106.916 162.596 106.317 163.733C105.722 164.865 105.327 166.192 105.049 167.379C104.911 167.971 104.803 168.521 104.714 168.99C104.702 169.055 104.69 169.118 104.678 169.18C104.605 169.56 104.543 169.891 104.485 170.121C104.372 170.574 104.354 170.929 104.426 171.251C104.497 171.572 104.667 171.906 105.005 172.3C105.701 173.112 107.012 174.074 109.277 175.584L109.441 175.693L109.486 175.884C110.073 178.346 112.434 181.383 115.964 184.368C119.471 187.335 124.053 190.184 128.948 192.291C133.845 194.399 139.026 195.75 143.734 195.75C148.438 195.75 152.63 194.404 155.633 191.16C158.023 188.58 159.032 185.147 159.047 181.223C159.062 177.295 158.081 172.911 156.528 168.491C153.424 159.65 148.077 150.768 144.096 145.294C143.933 145.071 143.983 144.758 144.206 144.596Z" fill="black"/>
<path fill-rule="evenodd" clip-rule="evenodd" d="M95.9947 139.927C96.0352 140.2 95.8465 140.454 95.5734 140.495C93.3415 140.825 89.7382 141.521 86.1998 142.531C82.8622 143.483 79.6539 144.696 77.6882 146.106C79.1778 148.318 80.8165 152.469 82.1114 157.884C83.4953 163.671 84.5001 170.96 84.5001 179V217.5C84.5001 217.776 84.2762 218 84.0001 218C83.724 218 83.5001 217.776 83.5001 217.5V179C83.5001 171.04 82.5049 163.829 81.1388 158.116C79.7678 152.383 78.0366 148.215 76.6001 146.3L76.3093 145.912L76.6878 145.61C78.773 143.941 82.3602 142.587 85.9254 141.569C89.512 140.546 93.1587 139.841 95.4268 139.505C95.7 139.465 95.9542 139.654 95.9947 139.927Z" fill="#1B1D29"/>
<path fill-rule="evenodd" clip-rule="evenodd" d="M76.5 146.5C83.5 158 83 171.745 83 178.5L79.5 185.5C79.5 185.5 72.5 194.5 67.9614 194.642L60 178C60 178 64 162.5 70.4197 153.493C71.8558 150.208 74.3955 148.063 76.5 146.5Z" fill="white"/>
<path fill-rule="evenodd" clip-rule="evenodd" d="M88.2267 150.512C88.1301 150.082 87.8905 149.699 87.5471 149.424C87.2038 149.149 86.7773 149 86.3377 149H76.5413C76.3055 149 76.0728 149.053 75.8611 149.157C75.6494 149.261 75.4644 149.413 75.3204 149.6C75.1764 149.786 75.0772 150.004 75.0305 150.235C74.9838 150.467 74.9908 150.706 75.051 150.934C76.1955 155.319 78.9535 165.922 79.8444 169.345C79.9263 169.656 80.1085 169.93 80.3627 170.126C80.6168 170.322 80.9286 170.429 81.2493 170.429H90.8568C91.0794 170.43 91.2993 170.381 91.5001 170.284C91.7009 170.188 91.8773 170.048 92.0161 169.873C92.1548 169.699 92.2523 169.496 92.3013 169.278C92.3502 169.061 92.3493 168.835 92.2986 168.618C91.3685 164.478 89.0877 154.352 88.2267 150.512Z" fill="#1B1D29"/>
<path d="M77.5529 152.396C77.9551 152.396 78.2813 152.069 78.2813 151.666C78.2813 151.264 77.9551 150.937 77.5529 150.937C77.1506 150.937 76.8245 151.264 76.8245 151.666C76.8245 152.069 77.1506 152.396 77.5529 152.396Z" fill="white"/>
<path fill-rule="evenodd" clip-rule="evenodd" d="M74.268 159.727C74.3717 158.86 74.4153 157.987 74.3982 157.115C74.3751 155.603 74.321 153.893 75.4505 152.862L76.8542 157.643L82.9984 150.909C83.1028 150.795 83.2293 150.702 83.3702 150.638C83.5112 150.573 83.6637 150.538 83.8186 150.534C83.9736 150.529 84.1278 150.557 84.272 150.613C84.4162 150.67 84.5475 150.756 84.658 150.864C84.8138 151.019 84.9107 151.223 84.9317 151.441C84.9528 151.66 84.8967 151.879 84.7733 152.06C83.4986 153.925 79.8877 159.189 79.8877 159.189C79.8877 159.189 84.197 157.702 86.3707 156.948C86.5286 156.894 86.6961 156.872 86.8627 156.885C87.0293 156.898 87.1914 156.946 87.3388 157.025C87.4841 157.105 87.612 157.213 87.7149 157.343C87.8179 157.473 87.8937 157.623 87.9381 157.783C88.0083 158.059 87.9742 158.351 87.8423 158.603C87.7104 158.855 87.49 159.05 87.2235 159.149C85.2423 159.88 80.9411 161.472 80.9411 161.472C80.9411 161.472 85.134 160.034 87.1463 159.342C87.4255 159.246 87.7314 159.265 87.9966 159.395C88.2617 159.525 88.4646 159.755 88.5605 160.034C88.6561 160.311 88.6396 160.614 88.5146 160.878C88.3897 161.143 88.1661 161.348 87.892 161.449L81.4321 163.787C81.4321 163.787 85.2953 162.718 87.1163 162.211C87.3709 162.141 87.6423 162.171 87.876 162.293C88.1097 162.416 88.2884 162.623 88.376 162.872C88.4613 163.12 88.4482 163.392 88.3395 163.631C88.2308 163.87 88.0348 164.058 87.7917 164.156C85.8486 164.956 81.4321 166.763 81.4321 166.763C81.4321 166.763 80.4109 169.756 78.9507 170.678H77.3475L73.6594 163.787L74.268 159.727Z" fill="white"/>
<path fill-rule="evenodd" clip-rule="evenodd" d="M87.6396 161.881L87.9934 161.75C88.3479 161.621 88.6374 161.357 88.7997 161.016C88.962 160.675 88.9841 160.284 88.8613 159.927C88.7882 159.714 88.6659 159.522 88.5045 159.366C88.343 159.21 88.147 159.094 87.9324 159.028C88.0869 158.848 88.1956 158.634 88.249 158.403C88.3024 158.172 88.2989 157.931 88.2389 157.702C88.1852 157.498 88.09 157.308 87.9593 157.142C87.8286 156.977 87.6652 156.841 87.4794 156.742C87.2949 156.642 87.0917 156.582 86.8828 156.566C86.6739 156.549 86.4638 156.576 86.2658 156.645L80.6968 158.573L85.028 152.24C85.1946 151.997 85.2706 151.703 85.2426 151.41C85.2146 151.117 85.0843 150.843 84.8747 150.636C84.734 150.498 84.5669 150.389 84.3833 150.317C84.1998 150.244 84.0036 150.21 83.8064 150.215C83.6092 150.22 83.4151 150.265 83.2357 150.347C83.0563 150.429 82.8952 150.547 82.7621 150.692L76.9995 157.006L75.7628 152.773C75.7476 152.722 75.72 152.675 75.6825 152.637C75.6449 152.598 75.5984 152.57 75.5473 152.554C75.4941 152.539 75.4381 152.538 75.3843 152.551C75.3306 152.563 75.2808 152.589 75.2396 152.625C74.6183 153.19 74.3175 153.936 74.1804 154.755C74.049 155.519 74.0721 156.344 74.0801 157.119C74.0965 157.972 74.0553 158.825 73.9568 159.673V159.681L73.3379 163.743C73.3248 163.811 73.3358 163.882 73.369 163.943L77.0709 170.835C77.0967 170.886 77.1363 170.929 77.1852 170.958C77.2341 170.988 77.2903 171.004 77.3475 171.003H78.9449C79.0046 171.003 79.0632 170.987 79.1144 170.957C79.7367 170.558 80.2899 169.819 80.7279 169.065C81.0963 168.405 81.4149 167.719 81.681 167.011L87.9047 164.459C88.2224 164.326 88.4777 164.077 88.6189 163.763C88.7602 163.448 88.7768 163.092 88.6654 162.766C88.5885 162.54 88.4529 162.339 88.2726 162.184C88.0923 162.028 87.8738 161.923 87.6396 161.881ZM74.5826 159.773C74.5837 159.773 74.5847 159.773 74.5857 159.773C74.5867 159.772 74.5876 159.772 74.5883 159.771C74.5891 159.77 74.5897 159.769 74.5901 159.768C74.5905 159.767 74.5907 159.766 74.5907 159.765C74.6945 158.885 74.7381 157.998 74.7209 157.111C74.7059 156.375 74.6829 155.59 74.8051 154.863C74.8717 154.382 75.045 153.921 75.3122 153.515L76.5408 157.734C76.5563 157.788 76.5858 157.837 76.6262 157.877C76.6667 157.916 76.7167 157.943 76.7713 157.957C76.8276 157.971 76.8866 157.969 76.9419 157.951C76.9972 157.934 77.0466 157.901 77.0848 157.858L83.237 151.124C83.3127 151.042 83.4041 150.975 83.5059 150.929C83.6076 150.883 83.7177 150.857 83.8295 150.854C83.9412 150.851 84.0525 150.871 84.1566 150.911C84.2607 150.952 84.3556 151.014 84.4356 151.092C84.5358 151.194 84.5981 151.327 84.6121 151.47C84.6262 151.612 84.5911 151.756 84.5128 151.875C83.2231 153.745 79.6203 159.012 79.6203 159.012C79.5814 159.067 79.5611 159.134 79.5624 159.202C79.5637 159.27 79.5866 159.335 79.6276 159.389C79.6687 159.443 79.7259 159.483 79.7909 159.502C79.8559 159.521 79.9253 159.519 79.9891 159.496C79.9891 159.496 84.2904 158.004 86.471 157.251C86.5863 157.211 86.7086 157.195 86.8302 157.205C86.9519 157.215 87.0702 157.249 87.1778 157.307C87.2853 157.365 87.3799 157.444 87.4554 157.54C87.5309 157.636 87.5858 157.746 87.6166 157.865C87.668 158.063 87.6447 158.273 87.5512 158.454C87.4576 158.636 87.3003 158.777 87.1095 158.85C85.1271 159.581 80.8259 161.173 80.8259 161.173C80.7471 161.203 80.683 161.262 80.647 161.338C80.6111 161.414 80.6062 161.501 80.6334 161.581C80.647 161.62 80.6685 161.657 80.6966 161.688C80.7247 161.72 80.7587 161.745 80.7967 161.763C80.8348 161.781 80.876 161.791 80.9181 161.793C80.9601 161.795 81.002 161.788 81.0414 161.773L87.2397 159.643C87.4394 159.576 87.6572 159.59 87.8467 159.682C88.0362 159.774 88.1823 159.936 88.2539 160.135C88.3209 160.334 88.3079 160.551 88.2175 160.741C88.1271 160.93 87.9666 161.077 87.7699 161.15C85.7184 161.889 81.3157 163.488 81.3157 163.488C81.2386 163.518 81.1754 163.576 81.1383 163.65C81.1012 163.724 81.093 163.809 81.1151 163.889C81.1423 163.966 81.1978 164.031 81.2705 164.069C81.3432 164.107 81.4277 164.117 81.507 164.095L87.1913 162.519C87.3664 162.47 87.5533 162.49 87.7144 162.574C87.8754 162.659 87.9986 162.801 88.0591 162.972C88.1186 163.144 88.1103 163.332 88.036 163.498C87.9617 163.664 87.8269 163.796 87.6592 163.865L81.303 166.464C81.2622 166.483 81.2255 166.51 81.1952 166.543C81.1649 166.576 81.1416 166.615 81.1267 166.657C80.8685 167.377 80.5501 168.075 80.1747 168.741C79.8059 169.371 79.3599 170.003 78.8458 170.364H77.5458L73.9891 163.734L74.5826 159.773Z" fill="#1B1D29"/>
<path fill-rule="evenodd" clip-rule="evenodd" d="M74 160C74 160 72.5704 161.015 71.933 162.369C71.933 162.369 69.6591 162.661 68.0536 164.968C66.4482 167.275 63.0378 172.536 61.0947 176.55C59.1515 180.565 58.6744 182.511 59.1976 186.475C59.7209 190.439 61.5707 194.881 67.6698 194.765C70.7344 194.711 75.3284 188.981 77.0399 181.291C78.3388 175.43 78.3768 174.021 78.3768 174.021C78.3768 174.021 79.383 171.713 78.945 170.545C78.945 170.545 77.5 169 74 160Z" fill="white"/>
<path fill-rule="evenodd" clip-rule="evenodd" d="M73.7716 160.688C73.4474 161.164 72.9017 161.607 72.0505 161.854L72.025 161.861L71.999 161.865C71.4062 161.95 70.7859 162.294 70.1593 162.84C69.535 163.384 68.9278 164.109 68.3647 164.912C67.2379 166.52 66.3224 168.393 65.8275 169.621C65.7261 169.872 65.4678 169.981 65.2506 169.863C65.0334 169.746 64.9394 169.447 65.0408 169.195C65.5588 167.91 66.5098 165.963 67.6907 164.279C68.2815 163.436 68.9386 162.646 69.6373 162.037C70.3256 161.437 71.0776 160.993 71.8638 160.871C72.6264 160.645 72.9901 160.254 73.1547 159.961C73.2406 159.808 73.2755 159.677 73.2861 159.595C73.291 159.557 73.2896 159.538 73.2897 159.538C73.2896 159.538 73.2897 159.538 73.2897 159.538C73.2899 159.541 73.2917 159.555 73.2983 159.576L73.9884 159C74.0529 159.075 74.0918 159.16 74.1155 159.237L78.8704 170.249L78.8818 170.315C78.9603 170.769 79.0298 171.493 78.9869 172.219C78.9485 172.87 78.8143 173.63 78.426 174.165C78.3493 174.67 78.3015 175.334 78.2441 176.131C78.2354 176.252 78.2265 176.376 78.2173 176.503C78.1425 177.526 78.0462 178.709 77.8522 179.929C77.4655 182.359 76.6803 185.006 74.8354 186.876C74.655 187.058 74.3808 187.037 74.2229 186.828C74.065 186.619 74.0833 186.302 74.2637 186.119C75.8914 184.47 76.6255 182.091 76.9984 179.746C77.1842 178.578 77.2778 177.437 77.3522 176.418C77.3613 176.293 77.3702 176.169 77.379 176.047C77.4403 175.191 77.4961 174.414 77.5965 173.833L77.6222 173.684L77.7152 173.576C77.9463 173.309 78.0827 172.797 78.1208 172.151C78.1555 171.562 78.1031 170.964 78.0412 170.576L73.7716 160.688Z" fill="black"/>
<path fill-rule="evenodd" clip-rule="evenodd" d="M76.9642 146.314C77.0668 146.571 76.9421 146.862 76.6857 146.964C75.5709 147.41 74.122 148.737 72.5034 150.854C70.9019 152.948 69.1863 155.745 67.5209 159.026C64.1959 165.577 61.0929 174.014 59.5 182.546C59.5063 187.984 60.6292 191.287 62.4041 192.947C64.1411 194.572 66.656 194.75 69.8205 193.533C72.9218 192.341 76.0993 188.95 78.5272 185.464C79.7322 183.734 80.7342 182.007 81.4328 180.563C81.7822 179.841 82.0527 179.197 82.2348 178.663C82.4211 178.116 82.5 177.727 82.5 177.5C82.5 177.224 82.7239 177 83 177C83.2761 177 83.5 177.224 83.5 177.5C83.5 177.898 83.3758 178.415 83.1813 178.986C82.9824 179.569 82.6944 180.252 82.3329 180.999C81.6096 182.493 80.5803 184.266 79.3478 186.036C76.9007 189.55 73.5782 193.16 70.1795 194.467C66.844 195.75 63.8589 195.678 61.7209 193.678C59.6258 191.718 58.5 188.035 58.5 182.5V182.454L58.5084 182.409C60.1181 173.757 63.26 165.211 66.6291 158.574C68.3137 155.255 70.0606 152.402 71.7091 150.246C73.3405 148.113 74.9291 146.59 76.3143 146.036C76.5707 145.933 76.8617 146.058 76.9642 146.314Z" fill="#1B1D29"/>
</g>
<defs>
<clipPath id="clip0_128_37483">
<rect width="311" height="218" fill="white"/>
</clipPath>
</defs>
</svg>
