<svg width="24" height="24" viewBox="0 0 24 24" fill="none" xmlns="http://www.w3.org/2000/svg">
<path fill-rule="evenodd" clip-rule="evenodd" d="M12 20.5C16.6716 20.5 20.5 16.6716 20.5 12C20.5 7.32843 16.6716 3.5 12 3.5C7.32843 3.5 3.5 7.32843 3.5 12C3.5 16.6716 7.32843 20.5 12 20.5ZM22 12C22 17.5 17.5 22 12 22C6.5 22 2 17.5 2 12C2 6.5 6.5 2 12 2C17.5 2 22 6.5 22 12ZM11.998 16.75C11.5838 16.75 11.248 16.4142 11.248 16L11.248 11C11.248 10.5858 11.5838 10.25 11.998 10.25C12.4123 10.25 12.748 10.5858 12.748 11L12.748 16C12.748 16.4142 12.4123 16.75 11.998 16.75ZM12.0034 9C12.5557 9 13.0034 8.55228 13.0034 8C13.0034 7.44772 12.5557 7 12.0034 7H11.9944C11.4422 7 10.9944 7.44772 10.9944 8C10.9944 8.55228 11.4422 9 11.9944 9H12.0034Z" fill="currentColor"/>
</svg>
