
<svg width="154" height="124" viewBox="0 0 154 124" fill="none" xmlns="http://www.w3.org/2000/svg">
<g style="mix-blend-mode:multiply" opacity="0.3" clip-path="url(#clip0_1432_14816)">
<g style="mix-blend-mode:multiply" opacity="0.5">
<path d="M218.707 41.6694C202.44 25.3703 180.813 16.3933 157.808 16.3933C134.803 16.3933 113.176 25.3703 96.9098 41.6694C80.6432 57.9685 71.6841 79.6383 71.6841 102.69C71.6841 125.741 80.6432 147.411 96.9098 163.71C113.176 180.009 134.803 188.986 157.808 188.986C180.813 188.986 202.44 180.009 218.707 163.71C234.973 147.408 243.932 125.738 243.932 102.687C243.932 79.6354 234.973 57.9657 218.707 41.6666L218.707 41.6694ZM97.2947 163.324C63.9256 129.888 63.9257 75.488 97.2947 42.0522C130.664 8.61647 184.956 8.61648 218.325 42.0522C251.694 75.488 251.694 129.888 218.325 163.324C184.955 196.76 130.664 196.76 97.2947 163.324Z" fill="url(#paint0_linear_1432_14816)"/>
<path d="M213.444 46.9422C198.585 32.0534 178.826 23.8506 157.811 23.8506C136.796 23.8506 117.037 32.0505 102.178 46.9393C87.3188 61.8281 79.1323 81.6271 79.1323 102.684C79.1323 123.741 87.3159 143.539 102.178 158.428C117.037 173.317 136.796 181.52 157.811 181.52C178.826 181.52 198.585 173.32 213.444 158.428C228.303 143.539 236.49 123.741 236.487 102.684C236.487 81.6271 228.303 61.8281 213.444 46.9393L213.444 46.9422ZM102.525 158.083C72.0403 127.537 72.0403 77.8365 102.525 47.2934C133.01 16.7502 182.609 16.7473 213.094 47.2934C243.579 77.8394 243.579 127.537 213.094 158.083C182.609 188.629 133.01 188.629 102.525 158.083Z" fill="url(#paint1_linear_1432_14816)"/>
<path d="M208.179 52.2179C194.725 38.7365 176.835 31.3108 157.808 31.3108C138.781 31.3108 120.892 38.7365 107.437 52.215C93.9828 65.6964 86.5748 83.6216 86.5719 102.687C86.5719 121.752 93.9828 139.677 107.437 153.158C120.892 166.64 138.781 174.062 157.808 174.062C176.835 174.062 194.725 166.637 208.179 153.155C221.634 139.674 229.042 121.749 229.042 102.684C229.042 83.6188 221.631 65.6935 208.179 52.2121L208.179 52.2179ZM107.756 152.842C80.1549 125.185 80.1549 80.188 107.756 52.5345C135.357 24.881 180.265 24.881 207.863 52.5345C235.464 80.1909 235.464 125.188 207.863 152.842C180.262 180.498 135.354 180.498 107.756 152.842Z" fill="url(#paint2_linear_1432_14816)"/>
<path d="M202.917 57.4907C178.044 32.5686 137.575 32.5686 112.702 57.4907C87.83 82.4128 87.8299 122.963 112.702 147.886C137.575 172.808 178.044 172.808 202.917 147.886C227.789 122.963 227.789 82.4128 202.917 57.4936L202.917 57.4907ZM112.987 147.601C88.2723 122.837 88.2723 82.5395 112.987 57.7756C137.701 33.0118 177.918 33.0118 202.632 57.7757C227.347 82.5395 227.347 122.837 202.632 147.601C177.918 172.364 137.701 172.364 112.987 147.601Z" fill="url(#paint3_linear_1432_14816)"/>
<path d="M197.654 62.7635C175.686 40.7513 139.939 40.7513 117.968 62.7635C95.9991 84.7758 95.9991 120.595 117.967 142.61C139.936 164.622 175.683 164.622 197.654 142.61C219.623 120.598 219.623 84.7787 197.654 62.7635ZM118.22 142.357C96.3898 120.482 96.3898 84.8881 118.22 63.0139C140.051 41.1398 175.574 41.1398 197.405 63.0139C219.235 84.8881 219.235 120.482 197.405 142.357C175.574 164.231 140.051 164.231 118.22 142.357Z" fill="url(#paint4_linear_1432_14816)"/>
<path d="M192.389 68.0393C173.322 48.9339 142.297 48.9339 123.23 68.0392C104.163 87.1446 104.163 118.232 123.23 137.337C142.297 156.442 173.322 156.442 192.389 137.337C211.456 118.232 211.456 87.1446 192.389 68.0393ZM123.448 137.118C104.502 118.134 104.502 87.2424 123.448 68.258C142.395 49.2735 173.224 49.2736 192.171 68.258C211.118 87.2424 211.118 118.134 192.171 137.118C173.224 156.103 142.395 156.103 123.448 137.118Z" fill="url(#paint5_linear_1432_14816)"/>
<path d="M187.127 73.312C170.961 57.1137 144.661 57.1137 128.495 73.312C112.329 89.5104 112.332 115.863 128.495 132.061C144.661 148.26 170.961 148.26 187.127 132.061C203.293 115.863 203.293 89.5104 187.127 73.312ZM128.679 131.877C112.616 115.782 112.616 89.5939 128.679 73.4962C144.741 57.4015 170.878 57.4015 186.943 73.4962C203.006 89.591 203.006 115.78 186.943 131.874C170.881 147.969 144.744 147.969 128.682 131.874L128.679 131.877Z" fill="url(#paint6_linear_1432_14816)"/>
<path d="M181.862 78.5877C168.6 65.2992 147.019 65.2992 133.757 78.5877C120.495 91.8763 120.495 113.5 133.757 126.788C147.019 140.077 168.6 140.077 181.862 126.788C195.124 113.5 195.124 91.8763 181.862 78.5877ZM133.909 126.636C120.731 113.431 120.731 91.9453 133.909 78.7374C147.088 65.5323 168.531 65.5323 181.712 78.7374C194.891 91.9425 194.891 113.428 181.712 126.633C168.534 139.838 147.091 139.838 133.912 126.633L133.909 126.636Z" fill="url(#paint7_linear_1432_14816)"/>
</g>
<g style="mix-blend-mode:multiply" opacity="0.5">
<path d="M88.9388 88.0828C105.205 104.382 126.832 113.359 149.837 113.359C172.842 113.359 194.469 104.382 210.736 88.0829C227.002 71.7838 235.961 50.114 235.961 27.0627C235.961 4.01139 227.002 -17.6584 210.736 -33.9575C194.466 -50.2537 172.84 -59.2307 149.834 -59.2307C126.829 -59.2307 105.203 -50.2537 88.9359 -33.9546C72.6694 -17.6555 63.7102 4.01426 63.7102 27.0656C63.7102 50.1169 72.6694 71.7866 88.9359 88.0857L88.9388 88.0828ZM210.351 -33.5718C243.72 -0.136047 243.72 54.2643 210.351 87.7001C176.982 121.136 122.69 121.136 89.3208 87.7C55.9518 54.2643 55.9518 -0.136063 89.3208 -33.5718C122.69 -67.0075 176.982 -67.0075 210.351 -33.5718Z" fill="url(#paint8_linear_1432_14816)"/>
<path d="M94.2011 82.8101C109.06 97.6989 128.82 105.902 149.834 105.902C170.849 105.902 190.608 97.7017 205.468 82.813C220.327 67.9242 228.513 48.1252 228.513 27.0685C228.513 6.01176 220.33 -13.7872 205.468 -28.676C190.608 -43.5648 170.849 -51.7676 149.834 -51.7676C128.82 -51.7676 109.06 -43.5677 94.2011 -28.676C79.342 -13.7872 71.1556 6.01175 71.1584 27.0685C71.1584 48.1252 79.342 67.9242 94.2011 82.8129L94.2011 82.8101ZM205.12 -28.3306C235.605 2.21545 235.605 51.9158 205.12 82.4589C174.635 113.005 125.037 113.005 94.5515 82.4589C64.0664 51.9129 64.0664 2.21544 94.5515 -28.3306C125.037 -58.8767 174.635 -58.8767 205.12 -28.3306Z" fill="url(#paint9_linear_1432_14816)"/>
<path d="M99.4663 77.5343C112.921 91.0157 130.81 98.4414 149.837 98.4414C168.864 98.4414 186.754 91.0157 200.208 77.5372C213.663 64.0588 221.071 46.1306 221.073 27.0656C221.073 8.00056 213.663 -9.9247 200.208 -23.4061C186.754 -36.8874 168.864 -44.3102 149.837 -44.3102C130.81 -44.3102 112.921 -36.8846 99.4663 -23.4032C86.0118 -9.92183 78.6038 8.00343 78.6038 27.0685C78.6038 46.1335 86.0147 64.0587 99.4663 77.5401L99.4663 77.5343ZM199.889 -23.0895C227.49 4.5669 227.49 49.5643 199.889 77.2178C172.288 104.874 127.381 104.871 99.7822 77.2177C72.181 49.5614 72.181 4.56401 99.7822 -23.0895C127.383 -50.7458 172.291 -50.7458 199.889 -23.0895Z" fill="url(#paint10_linear_1432_14816)"/>
<path d="M104.729 72.2615C129.601 97.1836 170.071 97.1836 194.943 72.2615C219.815 47.3394 219.815 6.78885 194.943 -18.1333C170.071 -43.0554 129.601 -43.0554 104.729 -18.1333C79.8562 6.78884 79.8562 47.3394 104.729 72.2586L104.729 72.2615ZM194.659 -17.8483C219.373 6.91549 219.373 47.2128 194.659 71.9766C169.944 96.7404 129.727 96.7404 105.013 71.9766C80.2985 47.2128 80.2985 6.91548 105.013 -17.8483C129.727 -42.6121 169.944 -42.6121 194.659 -17.8483Z" fill="url(#paint11_linear_1432_14816)"/>
<path d="M109.994 66.9858C131.962 88.9981 167.709 88.9981 189.681 66.9858C211.649 44.9735 211.649 9.15467 189.681 -12.8605C167.712 -34.8728 131.965 -34.8728 109.994 -12.8605C88.0254 9.15178 88.0254 44.9707 109.994 66.9858ZM189.428 -12.6072C211.258 9.26692 211.258 44.8613 189.428 66.7354C167.597 88.6095 132.074 88.6095 110.244 66.7354C88.4132 44.8613 88.4132 9.26691 110.244 -12.6072C132.074 -34.4813 167.597 -34.4813 189.428 -12.6072Z" fill="url(#paint12_linear_1432_14816)"/>
<path d="M115.256 61.713C134.323 80.8183 165.348 80.8183 184.416 61.713C203.483 42.6077 203.483 11.5206 184.416 -7.58477C165.348 -26.6901 134.323 -26.6901 115.256 -7.58478C96.1888 11.5205 96.1888 42.6077 115.256 61.713ZM184.197 -7.36603C203.144 11.6184 203.144 42.5098 184.197 61.4943C165.251 80.4787 134.421 80.4787 115.474 61.4943C96.5278 42.5098 96.5278 11.6184 115.474 -7.36604C134.421 -26.3505 165.251 -26.3505 184.197 -7.36603Z" fill="url(#paint13_linear_1432_14816)"/>
<path d="M120.521 56.4374C136.687 72.6357 162.987 72.6357 179.153 56.4374C195.319 40.239 195.316 13.8864 179.153 -2.31192C162.987 -18.5103 136.687 -18.5103 120.521 -2.31193C104.355 13.8864 104.355 40.239 120.521 56.4374ZM178.967 -2.12484C195.029 13.9699 195.029 40.1584 178.967 56.256C162.904 72.3508 136.768 72.3508 120.702 56.256C104.64 40.1613 104.64 13.9728 120.702 -2.12197C136.765 -18.2167 162.901 -18.2167 178.964 -2.12197L178.967 -2.12484Z" fill="url(#paint14_linear_1432_14816)"/>
<path d="M125.783 51.1645C139.045 64.453 160.626 64.453 173.888 51.1645C187.15 37.876 187.15 16.2522 173.888 2.96371C160.626 -10.3248 139.045 -10.3248 125.783 2.96371C112.521 16.2522 112.521 37.876 125.783 51.1645ZM173.736 3.11625C186.915 16.3213 186.915 37.8069 173.736 51.0148C160.557 64.2199 139.114 64.2199 125.933 51.0148C112.754 37.8098 112.754 16.3242 125.933 3.11913C139.112 -10.0859 160.554 -10.0859 173.733 3.11913L173.736 3.11625Z" fill="url(#paint15_linear_1432_14816)"/>
</g>
<g style="mix-blend-mode:multiply" opacity="0.5">
<path d="M120.085 -47.2662C106.877 -60.5 89.318 -67.7875 70.6443 -67.7875C51.9677 -67.7875 34.4086 -60.5 21.204 -47.269C7.99656 -34.0352 0.723567 -16.4438 0.723566 2.27008C0.723564 20.984 7.99656 38.5782 21.204 51.8092C34.4114 65.0402 51.9677 72.3306 70.6443 72.3277C89.3208 72.3277 106.88 65.0402 120.085 51.8063C133.289 38.5725 140.565 20.9811 140.562 2.26721C140.562 -16.4467 133.289 -34.0409 120.085 -47.2719L120.085 -47.2662ZM21.5142 51.5012C-5.57568 24.3572 -5.57567 -19.8113 21.5142 -46.9553C48.6041 -74.0994 92.6845 -74.0994 119.774 -46.9553C146.864 -19.8113 146.864 24.3572 119.774 51.5013C92.6844 78.6453 48.6041 78.6453 21.5142 51.5012Z" fill="url(#paint16_linear_1432_14816)"/>
<path d="M115.81 -42.9863C103.746 -55.0747 87.7036 -61.7319 70.6414 -61.7319C53.5792 -61.7319 37.5395 -55.0747 25.4753 -42.9863C13.4111 -30.898 6.76715 -14.8234 6.76715 2.27007C6.76714 19.3664 13.4111 35.4381 25.4753 47.5265C37.5395 59.6148 53.582 66.272 70.6414 66.272C87.7036 66.272 103.743 59.6148 115.807 47.5265C127.872 35.4381 134.516 19.3636 134.516 2.27008C134.516 -14.8263 127.872 -30.898 115.807 -42.9863L115.81 -42.9863ZM25.7597 47.2444C1.0108 22.4461 1.0108 -17.903 25.7597 -42.7014C50.5085 -67.4997 90.7771 -67.4997 115.526 -42.7014C140.275 -17.903 140.275 22.4461 115.526 47.2444C90.7771 72.0428 50.5085 72.0428 25.7597 47.2444Z" fill="url(#paint17_linear_1432_14816)"/>
<path d="M111.536 -38.7036C100.612 -49.6493 86.0894 -55.6762 70.6415 -55.6762C55.1935 -55.6762 40.6705 -49.6493 29.7467 -38.7036C18.8228 -27.7579 12.8079 -13.2059 12.8079 2.27294C12.8079 17.7518 18.8228 32.3038 29.7467 43.2495C40.6705 54.1952 55.1935 60.2221 70.6415 60.2221C86.0894 60.2221 100.612 54.1952 111.536 43.2495C122.46 32.3038 128.475 17.7518 128.475 2.27295C128.475 -13.2059 122.46 -27.7579 111.536 -38.7036ZM30.0052 42.9905C7.59735 20.5378 7.59736 -15.9948 30.0052 -38.4475C52.413 -60.9001 88.8728 -60.9001 111.281 -38.4475C133.688 -15.9948 133.688 20.5378 111.281 42.9876C88.8728 65.4402 52.413 65.4402 30.0081 42.9876L30.0052 42.9905Z" fill="url(#paint18_linear_1432_14816)"/>
<path d="M107.265 -34.4208C87.0717 -54.6544 54.2168 -54.6544 34.0237 -34.4208C13.8305 -14.1873 13.8305 18.7333 34.0237 38.9669C54.2168 59.2004 87.0717 59.2004 107.265 38.9669C127.458 18.7333 127.458 -14.1873 107.265 -34.4208ZM34.2535 38.7366C14.1867 18.6297 14.1867 -14.0837 34.2535 -34.1906C54.3203 -54.2975 86.9683 -54.2975 107.035 -34.1906C127.102 -14.0837 127.102 18.6297 107.035 38.7366C86.9683 58.8435 54.3203 58.8435 34.2535 38.7366Z" fill="url(#paint19_linear_1432_14816)"/>
<path d="M102.991 -30.141C85.1558 -48.0116 56.1328 -48.0145 38.295 -30.141C20.4601 -12.2705 20.4601 16.8106 38.295 34.6841C56.1299 52.5547 85.153 52.5547 102.991 34.6841C120.826 16.8135 120.826 -12.2676 102.991 -30.141ZM38.4989 34.4797C20.7732 16.7185 20.7761 -12.1784 38.4989 -29.9367C56.2218 -47.695 85.061 -47.695 102.787 -29.9367C120.51 -12.1783 120.51 16.7185 102.787 34.4797C85.0639 52.2409 56.2218 52.2409 38.4989 34.4797Z" fill="url(#paint20_linear_1432_14816)"/>
<path d="M98.7165 -25.8583C83.237 -41.3688 58.0486 -41.3688 42.5691 -25.8583C27.0896 -10.3478 27.0896 14.8909 42.5691 30.4014C58.0486 45.9119 83.237 45.9119 98.7165 30.4014C114.196 14.8909 114.196 -10.3478 98.7165 -25.8583ZM42.7443 30.2258C27.3625 14.8132 27.3625 -10.2672 42.7443 -25.6798C58.1262 -41.0925 83.1566 -41.0925 98.5384 -25.6798C113.92 -10.2672 113.92 14.8132 98.5384 30.2258C83.1566 45.6384 58.1262 45.6384 42.7443 30.2258Z" fill="url(#paint21_linear_1432_14816)"/>
<path d="M94.4424 -21.5756C81.3183 -34.726 59.9646 -34.726 46.8405 -21.5756C33.7163 -8.4252 33.7163 12.9711 46.8405 26.1215C59.9646 39.2719 81.3183 39.2719 94.4424 26.1215C107.567 12.9712 107.567 -8.42519 94.4424 -21.5756ZM46.9899 25.9719C33.949 12.905 33.949 -8.35612 46.9899 -21.4259C60.0307 -34.4928 81.2493 -34.4928 94.293 -21.4259C107.334 -8.35899 107.334 12.9021 94.293 25.969C81.2522 39.0359 60.0336 39.0359 46.9927 25.969L46.9899 25.9719Z" fill="url(#paint22_linear_1432_14816)"/>
<path d="M90.1711 -17.2928C79.4052 -28.0802 61.8834 -28.0831 51.1175 -17.2928C40.3516 -6.50544 40.3516 11.0514 51.1175 21.8388C61.8834 32.6262 79.4052 32.6262 90.1711 21.8388C100.937 11.0514 100.937 -6.50544 90.1711 -17.2928ZM51.241 21.715C40.5412 10.9938 40.5412 -6.45076 51.241 -17.172C61.9408 -27.8932 79.3506 -27.8932 90.0504 -17.172C100.75 -6.45076 100.75 10.9939 90.0504 21.7151C79.3506 32.4362 61.9408 32.4362 51.241 21.715Z" fill="url(#paint23_linear_1432_14816)"/>
</g>
</g>
<defs>
<linearGradient id="paint0_linear_1432_14816" x1="243.932" y1="103.053" x2="71.6894" y2="102.327" gradientUnits="userSpaceOnUse">
<stop/>
<stop offset="0.67" stop-color="#AEAEAE"/>
<stop offset="1" stop-color="white"/>
</linearGradient>
<linearGradient id="paint1_linear_1432_14816" x1="236.486" y1="103.02" x2="79.1314" y2="102.359" gradientUnits="userSpaceOnUse">
<stop/>
<stop offset="0.67" stop-color="#AEAEAE"/>
<stop offset="1" stop-color="white"/>
</linearGradient>
<linearGradient id="paint2_linear_1432_14816" x1="229.042" y1="102.99" x2="86.5755" y2="102.39" gradientUnits="userSpaceOnUse">
<stop/>
<stop offset="0.67" stop-color="#AEAEAE"/>
<stop offset="1" stop-color="white"/>
</linearGradient>
<linearGradient id="paint3_linear_1432_14816" x1="221.569" y1="102.959" x2="94.0499" y2="102.422" gradientUnits="userSpaceOnUse">
<stop/>
<stop offset="0.67" stop-color="#AEAEAE"/>
<stop offset="1" stop-color="white"/>
</linearGradient>
<linearGradient id="paint4_linear_1432_14816" x1="214.127" y1="102.927" x2="101.49" y2="102.452" gradientUnits="userSpaceOnUse">
<stop/>
<stop offset="0.67" stop-color="#AEAEAE"/>
<stop offset="1" stop-color="white"/>
</linearGradient>
<linearGradient id="paint5_linear_1432_14816" x1="206.687" y1="102.896" x2="108.93" y2="102.482" gradientUnits="userSpaceOnUse">
<stop/>
<stop offset="0.67" stop-color="#AEAEAE"/>
<stop offset="1" stop-color="white"/>
</linearGradient>
<linearGradient id="paint6_linear_1432_14816" x1="199.249" y1="102.863" x2="116.372" y2="102.515" gradientUnits="userSpaceOnUse">
<stop/>
<stop offset="0.67" stop-color="#AEAEAE"/>
<stop offset="1" stop-color="white"/>
</linearGradient>
<linearGradient id="paint7_linear_1432_14816" x1="191.807" y1="102.831" x2="123.81" y2="102.547" gradientUnits="userSpaceOnUse">
<stop/>
<stop offset="0.67" stop-color="#AEAEAE"/>
<stop offset="1" stop-color="white"/>
</linearGradient>
<linearGradient id="paint8_linear_1432_14816" x1="63.7148" y1="26.6997" x2="235.957" y2="27.4254" gradientUnits="userSpaceOnUse">
<stop/>
<stop offset="0.67" stop-color="#AEAEAE"/>
<stop offset="1" stop-color="white"/>
</linearGradient>
<linearGradient id="paint9_linear_1432_14816" x1="71.1588" y1="26.7303" x2="228.513" y2="27.3952" gradientUnits="userSpaceOnUse">
<stop/>
<stop offset="0.67" stop-color="#AEAEAE"/>
<stop offset="1" stop-color="white"/>
</linearGradient>
<linearGradient id="paint10_linear_1432_14816" x1="78.6008" y1="26.7628" x2="221.069" y2="27.3608" gradientUnits="userSpaceOnUse">
<stop/>
<stop offset="0.67" stop-color="#AEAEAE"/>
<stop offset="1" stop-color="white"/>
</linearGradient>
<linearGradient id="paint11_linear_1432_14816" x1="86.0753" y1="26.7954" x2="213.597" y2="27.3305" gradientUnits="userSpaceOnUse">
<stop/>
<stop offset="0.67" stop-color="#AEAEAE"/>
<stop offset="1" stop-color="white"/>
</linearGradient>
<linearGradient id="paint12_linear_1432_14816" x1="93.5153" y1="26.8259" x2="206.155" y2="27.2982" gradientUnits="userSpaceOnUse">
<stop/>
<stop offset="0.67" stop-color="#AEAEAE"/>
<stop offset="1" stop-color="white"/>
</linearGradient>
<linearGradient id="paint13_linear_1432_14816" x1="100.955" y1="26.8564" x2="198.715" y2="27.2679" gradientUnits="userSpaceOnUse">
<stop/>
<stop offset="0.67" stop-color="#AEAEAE"/>
<stop offset="1" stop-color="white"/>
</linearGradient>
<linearGradient id="paint14_linear_1432_14816" x1="108.397" y1="26.889" x2="191.275" y2="27.2377" gradientUnits="userSpaceOnUse">
<stop/>
<stop offset="0.67" stop-color="#AEAEAE"/>
<stop offset="1" stop-color="white"/>
</linearGradient>
<linearGradient id="paint15_linear_1432_14816" x1="115.837" y1="26.9195" x2="183.833" y2="27.2053" gradientUnits="userSpaceOnUse">
<stop/>
<stop offset="0.67" stop-color="#AEAEAE"/>
<stop offset="1" stop-color="white"/>
</linearGradient>
<linearGradient id="paint16_linear_1432_14816" x1="140.564" y1="2.56685" x2="0.725371" y2="1.97899" gradientUnits="userSpaceOnUse">
<stop stop-color="white"/>
<stop offset="0.09" stop-color="#F4F4F4"/>
<stop offset="0.23" stop-color="#D9D9D9"/>
<stop offset="0.42" stop-color="#ADADAD"/>
<stop offset="0.64" stop-color="#6F6F6F"/>
<stop offset="0.89" stop-color="#222222"/>
<stop offset="1"/>
</linearGradient>
<linearGradient id="paint17_linear_1432_14816" x1="134.519" y1="2.54241" x2="6.76793" y2="2.00523" gradientUnits="userSpaceOnUse">
<stop stop-color="white"/>
<stop offset="0.09" stop-color="#F4F4F4"/>
<stop offset="0.23" stop-color="#D9D9D9"/>
<stop offset="0.42" stop-color="#ADADAD"/>
<stop offset="0.64" stop-color="#6F6F6F"/>
<stop offset="0.89" stop-color="#222222"/>
<stop offset="1"/>
</linearGradient>
<linearGradient id="paint18_linear_1432_14816" x1="128.476" y1="2.51594" x2="12.8126" y2="2.02943" gradientUnits="userSpaceOnUse">
<stop stop-color="white"/>
<stop offset="0.09" stop-color="#F4F4F4"/>
<stop offset="0.23" stop-color="#D9D9D9"/>
<stop offset="0.42" stop-color="#ADADAD"/>
<stop offset="0.64" stop-color="#6F6F6F"/>
<stop offset="0.89" stop-color="#222222"/>
<stop offset="1"/>
</linearGradient>
<linearGradient id="paint19_linear_1432_14816" x1="122.409" y1="2.48954" x2="18.8795" y2="2.05574" gradientUnits="userSpaceOnUse">
<stop stop-color="white"/>
<stop offset="0.09" stop-color="#F4F4F4"/>
<stop offset="0.23" stop-color="#D9D9D9"/>
<stop offset="0.42" stop-color="#ADADAD"/>
<stop offset="0.64" stop-color="#6F6F6F"/>
<stop offset="0.89" stop-color="#222222"/>
<stop offset="1"/>
</linearGradient>
<linearGradient id="paint20_linear_1432_14816" x1="116.369" y1="2.46508" x2="24.9201" y2="2.07993" gradientUnits="userSpaceOnUse">
<stop stop-color="white"/>
<stop offset="0.09" stop-color="#F4F4F4"/>
<stop offset="0.23" stop-color="#D9D9D9"/>
<stop offset="0.42" stop-color="#ADADAD"/>
<stop offset="0.64" stop-color="#6F6F6F"/>
<stop offset="0.89" stop-color="#222222"/>
<stop offset="1"/>
</linearGradient>
<linearGradient id="paint21_linear_1432_14816" x1="110.326" y1="2.43864" x2="30.9605" y2="2.10417" gradientUnits="userSpaceOnUse">
<stop stop-color="white"/>
<stop offset="0.09" stop-color="#F4F4F4"/>
<stop offset="0.23" stop-color="#D9D9D9"/>
<stop offset="0.42" stop-color="#ADADAD"/>
<stop offset="0.64" stop-color="#6F6F6F"/>
<stop offset="0.89" stop-color="#222222"/>
<stop offset="1"/>
</linearGradient>
<linearGradient id="paint22_linear_1432_14816" x1="104.286" y1="2.41422" x2="37.0011" y2="2.1284" gradientUnits="userSpaceOnUse">
<stop stop-color="white"/>
<stop offset="0.09" stop-color="#F4F4F4"/>
<stop offset="0.23" stop-color="#D9D9D9"/>
<stop offset="0.42" stop-color="#ADADAD"/>
<stop offset="0.64" stop-color="#6F6F6F"/>
<stop offset="0.89" stop-color="#222222"/>
<stop offset="1"/>
</linearGradient>
<linearGradient id="paint23_linear_1432_14816" x1="98.2474" y1="2.38777" x2="43.0416" y2="2.15668" gradientUnits="userSpaceOnUse">
<stop stop-color="white"/>
<stop offset="0.09" stop-color="#F4F4F4"/>
<stop offset="0.23" stop-color="#D9D9D9"/>
<stop offset="0.42" stop-color="#ADADAD"/>
<stop offset="0.64" stop-color="#6F6F6F"/>
<stop offset="0.89" stop-color="#222222"/>
<stop offset="1"/>
</linearGradient>
<clipPath id="clip0_1432_14816">
<rect width="243.209" height="256.771" fill="white" transform="matrix(-1 -8.74228e-08 -8.74228e-08 1 243.932 -67.7875)"/>
</clipPath>
</defs>
</svg>
