<svg width="176" height="40" viewBox="0 0 176 40" fill="none" xmlns="http://www.w3.org/2000/svg">
<g clip-path="url(#clip0_584_33096)">
<path fill-rule="evenodd" clip-rule="evenodd" d="M5.42475 16.2262C5.21283 15.8597 5.07665 15.4544 5.02428 15.0344C4.97192 14.6143 5.00444 14.188 5.11992 13.7807C5.2354 13.3735 5.43148 12.9935 5.69653 12.6635C5.96159 12.3334 6.29023 12.0599 6.66296 11.8593L7.07201 11.6271C7.76897 11.2437 8.58827 11.1482 9.35473 11.361C10.1212 11.5738 10.774 12.078 11.1736 12.7658L15.1646 19.5925L19.1556 12.7603C19.5524 12.0825 20.202 11.5899 20.9618 11.3909C21.7216 11.1919 22.5293 11.3027 23.2074 11.699L23.6994 11.9919C24.4095 12.4046 24.9277 13.0813 25.141 13.8745C25.3543 14.6676 25.2454 15.5129 24.8381 16.2262C23.0692 19.3493 20.1064 24.5675 17.934 28.3871C17.6577 28.8771 17.2562 29.2848 16.7706 29.5685C16.2849 29.8522 15.7326 30.0017 15.1701 30.0017C14.6077 30.0017 14.0553 29.8522 13.5697 29.5685C13.084 29.2848 12.6825 28.8771 12.4062 28.3871L5.42475 16.2262Z" fill="white"/>
<path fill-rule="evenodd" clip-rule="evenodd" d="M10.8617 12.0528C10.2554 11.5169 9.471 11.2307 8.66458 11.251C8.2711 11.263 7.88776 11.3795 7.55344 11.5888C7.21913 11.7981 6.94574 12.0927 6.76101 12.4427C6.57628 12.7928 6.48677 13.1858 6.50158 13.5819C6.51638 13.978 6.63497 14.3631 6.84531 14.6981C7.86829 16.4831 9.41438 19.1284 9.85031 19.8015C10.1341 20.2638 10.5353 20.6414 11.0125 20.8955C11.4896 21.1496 12.0254 21.271 12.5647 21.247C14.0643 21.247 15.25 19.6142 15.25 19.6142L10.8617 12.0528Z" fill="#D6D6D6"/>
<path fill-rule="evenodd" clip-rule="evenodd" d="M31.5269 24.9973H36.4299C36.7056 24.9973 36.9699 24.8878 37.1648 24.6929C37.3597 24.498 37.4692 24.2337 37.4692 23.9581C37.4692 23.6825 37.3597 23.4181 37.1648 23.2232C36.9699 23.0283 36.7056 22.9189 36.4299 22.9189H31.5269V20.4037H36.4465C36.589 20.4142 36.7321 20.3951 36.8669 20.3477C37.0016 20.3004 37.1252 20.2257 37.2298 20.1284C37.3344 20.0312 37.4179 19.9134 37.475 19.7824C37.532 19.6515 37.5615 19.5102 37.5615 19.3673C37.5615 19.2245 37.532 19.0831 37.475 18.9522C37.4179 18.8212 37.3344 18.7034 37.2298 18.6062C37.1252 18.5089 37.0016 18.4343 36.8669 18.3869C36.7321 18.3395 36.589 18.3204 36.4465 18.3309H30.4821C30.2065 18.3309 29.9422 18.4403 29.7473 18.6352C29.5524 18.8301 29.4429 19.0945 29.4429 19.3701V28.5516C29.4429 28.8272 29.5524 29.0915 29.7473 29.2864C29.9422 29.4813 30.2065 29.5908 30.4821 29.5908H36.4244C36.5609 29.5908 36.696 29.5639 36.8221 29.5117C36.9482 29.4595 37.0628 29.3829 37.1593 29.2864C37.2558 29.1899 37.3323 29.0754 37.3845 28.9493C37.4368 28.8232 37.4636 28.6881 37.4636 28.5516C37.4636 28.4151 37.4368 28.28 37.3845 28.1539C37.3323 28.0278 37.2558 27.9133 37.1593 27.8168C37.0628 27.7203 36.9482 27.6437 36.8221 27.5915C36.696 27.5393 36.5609 27.5124 36.4244 27.5124H31.5269V24.9973ZM40.8576 20.4037V28.5516C40.8576 28.8272 40.9671 29.0915 41.162 29.2864C41.3569 29.4813 41.6212 29.5908 41.8969 29.5908C42.1725 29.5908 42.4368 29.4813 42.6317 29.2864C42.8266 29.0915 42.9361 28.8272 42.9361 28.5516V20.4037H44.8265C44.969 20.4142 45.1121 20.3951 45.2469 20.3477C45.3816 20.3004 45.5052 20.2257 45.6098 20.1284C45.7145 20.0312 45.7979 19.9134 45.855 19.7824C45.912 19.6515 45.9415 19.5102 45.9415 19.3673C45.9415 19.2245 45.912 19.0831 45.855 18.9522C45.7979 18.8212 45.7145 18.7034 45.6098 18.6062C45.5052 18.5089 45.3816 18.4343 45.2469 18.3869C45.1121 18.3395 44.969 18.3204 44.8265 18.3309H38.8953C38.7528 18.3204 38.6097 18.3395 38.475 18.3869C38.3402 18.4343 38.2166 18.5089 38.112 18.6062C38.0074 18.7034 37.9239 18.8212 37.8669 18.9522C37.8098 19.0831 37.7804 19.2245 37.7804 19.3673C37.7804 19.5102 37.8098 19.6515 37.8669 19.7824C37.9239 19.9134 38.0074 20.0312 38.112 20.1284C38.2166 20.2257 38.3402 20.3004 38.475 20.3477C38.6097 20.3951 38.7528 20.4142 38.8953 20.4037H40.8576ZM25.6067 19.3701V28.5516C25.6067 28.8272 25.7162 29.0915 25.9111 29.2864C26.106 29.4813 26.3703 29.5908 26.6459 29.5908C26.9215 29.5908 27.1858 29.4813 27.3807 29.2864C27.5756 29.0915 27.6851 28.8272 27.6851 28.5516V19.3701C27.6851 19.0945 27.5756 18.8301 27.3807 18.6352C27.1858 18.4403 26.9215 18.3309 26.6459 18.3309C26.3703 18.3309 26.106 18.4403 25.9111 18.6352C25.7162 18.8301 25.6067 19.0945 25.6067 19.3701Z" fill="white"/>
<path fill-rule="evenodd" clip-rule="evenodd" d="M51.9908 27.5237L53.1626 29.5966C53.1626 29.5966 52.328 29.6851 51.7199 29.7017C49.7797 29.7459 45.7334 28.5464 45.7334 23.9639C45.7334 19.3814 50.0892 18.2482 51.8139 18.2482C53.5385 18.2482 57.8501 19.5417 57.8501 23.9639C57.8895 24.7263 57.7614 25.4881 57.4749 26.1957C57.1884 26.9033 56.7505 27.5396 56.1918 28.0599L57.032 29.4916H54.6109L51.5983 24.2292H53.9642L54.8099 25.6609C55.1454 25.1609 55.3084 24.565 55.2742 23.9639C55.2742 22.8583 54.3787 20.4372 51.8581 20.4372C51.3934 20.4256 50.9311 20.5092 50.4999 20.6828C50.0686 20.8563 49.6773 21.1162 49.3502 21.4465C49.023 21.7768 48.7668 22.1705 48.5973 22.6034C48.4278 23.0363 48.3486 23.4993 48.3646 23.9639C48.3646 27.6177 51.9908 27.5237 51.9908 27.5237Z" fill="white"/>
<path fill-rule="evenodd" clip-rule="evenodd" d="M59.0017 18.4358H64.148C66.0053 18.4358 68.5425 19.6242 68.5425 22.4434C68.5837 23.2012 68.3868 23.953 67.9794 24.5933C67.572 25.2336 66.9745 25.7305 66.2706 26.0143L68.7802 29.4967H65.9611L61.7877 23.4163H64.5515L65.0269 24.1293C65.3277 23.9727 65.5775 23.7335 65.747 23.4397C65.9164 23.1459 65.9983 22.8098 65.9832 22.471C65.9699 22.1964 65.9018 21.9272 65.7827 21.6794C65.6636 21.4316 65.496 21.2102 65.2899 21.0282C65.0837 20.8463 64.8432 20.7076 64.5825 20.6202C64.3218 20.5329 64.0462 20.4987 63.7721 20.5197H61.5279V29.4912H58.9851L59.0017 18.4358Z" fill="white"/>
<path d="M71.5653 13.6821H68.7959V14.3896H71.5653V13.6821Z" fill="white"/>
<path d="M70.5852 14.0361H69.7837V16.8773H70.5852V14.0361Z" fill="white"/>
<path fill-rule="evenodd" clip-rule="evenodd" d="M71.9674 13.6821H72.6363L73.6755 15.4564L74.7423 13.6821H75.4223V16.8771H74.676V15.1524L73.9077 16.3851H73.4654L72.7247 15.1469V16.8771H71.9619L71.9674 13.6821Z" fill="white"/>
</g>
<path d="M164.84 15.7066L160.103 20.1691H165.563L170.306 15.7066H164.84Z" fill="#6D6E71"/>
<path d="M165.563 20.1691L170.008 25.3958H164.531L160.103 20.1691H165.563Z" fill="#BCBEC0"/>
<path d="M165.563 11.25H160.103V20.1692H165.563V11.25Z" fill="white"/>
<path d="M162.834 27.3208H157.374L160.11 20.1691H165.564L162.834 27.3208Z" fill="#6D6E71"/>
<path d="M160.103 20.1691L154.543 25.3958H160.009L165.563 20.1691H160.103Z" fill="white"/>
<path d="M165.565 20.1691L160.805 14.5807H155.299L160.105 20.1691H165.565Z" fill="#BCBEC0"/>
<path d="M108 14.3824C106.211 14.4547 104.442 14.7888 102.75 15.3741L101 25.3957H104.156L105.532 17.4857C106.139 17.2786 106.776 17.1741 107.417 17.1766C108.414 17.1766 108.986 17.6607 108.986 18.5007C108.987 18.6964 108.97 18.8918 108.933 19.0841L107.837 25.3841H110.992L112.101 19.0024C112.177 18.5394 112.217 18.0715 112.223 17.6024C112.235 15.3799 110.917 14.3824 108 14.3824Z" fill="white"/>
<path d="M127.691 22.9691C127.205 22.9511 126.727 22.8443 126.28 22.6541L127.184 17.5266C127.652 17.309 128.161 17.1918 128.677 17.1824C130.153 17.1824 130.905 17.9816 130.736 19.5157C130.515 21.5866 129.768 23.0157 127.691 22.9574M128.776 14.3824C127.268 14.4094 125.779 14.7325 124.395 15.3332L121.858 29.8291H125.02L125.848 25.2032C126.493 25.3973 127.159 25.511 127.831 25.5416C131.786 25.6232 133.77 23.2432 133.875 19.3932C133.962 16.2432 132.195 14.3824 128.776 14.3824Z" fill="white"/>
<path d="M153.026 21.9307C153.026 20.2623 152.087 19.3407 149.672 18.6407C149.042 18.4657 148.505 18.2732 148.505 17.6898C148.505 17.3807 148.674 16.8615 149.806 16.8615C150.937 16.8713 152.023 17.3042 152.851 18.0748L153.347 15.4207C152.315 14.6907 151.069 14.3253 149.806 14.3823C147.665 14.3823 145.372 15.3332 145.372 18.0398C145.372 19.994 146.632 20.729 148.528 21.2307C149.45 21.4757 149.858 21.6798 149.858 22.2282C149.858 22.7765 149.368 23.1615 148.511 23.1615C147.191 23.1067 145.931 22.5906 144.952 21.7032L144.474 24.3865C145.65 25.2613 147.093 25.7023 148.557 25.6348C151.369 25.6348 153.049 24.2523 153.049 21.9307" fill="white"/>
<path d="M118.424 23.3307C118.056 23.4304 117.674 23.4737 117.293 23.4591C117.099 23.4771 116.903 23.4541 116.719 23.3917C116.535 23.3293 116.365 23.2288 116.222 23.0968C116.079 22.9648 115.966 22.8042 115.889 22.6254C115.812 22.4466 115.773 22.2537 115.776 22.0591C115.776 21.4174 116.167 20.5832 117.917 20.5832H118.955L118.424 23.3307ZM121.883 15.5957C121.178 14.7966 119.725 14.3824 117.858 14.3824C116.6 14.4356 115.354 14.6573 114.154 15.0416L113.758 17.5441C114.779 17.2425 115.832 17.0623 116.896 17.0074C117.742 17.0074 118.698 17.0074 119.113 17.4857C119.199 17.5911 119.261 17.7143 119.294 17.8463C119.327 17.9784 119.331 18.1162 119.305 18.2499C119.305 18.3724 119.241 18.7399 119.241 18.7399H117.917C115.519 18.7399 112.667 19.4341 112.667 22.2749C112.667 24.9991 115.548 25.6291 117.333 25.6291C118.663 25.6165 119.987 25.4461 121.277 25.1216L122.391 18.7049C122.502 18.0691 122.77 16.5466 121.924 15.5782" fill="white"/>
<path d="M140.177 23.3307C139.808 23.4311 139.427 23.4744 139.045 23.4591C138.852 23.4761 138.657 23.4526 138.473 23.3898C138.289 23.3271 138.12 23.2266 137.977 23.0947C137.834 22.9629 137.721 22.8027 137.643 22.6243C137.566 22.4459 137.527 22.2534 137.529 22.0591C137.529 21.4174 137.896 20.5541 139.646 20.5541H140.667L140.177 23.3307ZM143.636 15.5957C142.93 14.7966 141.484 14.3824 139.617 14.3824C138.358 14.4356 137.112 14.6573 135.913 15.0416L135.51 17.5441C136.534 17.2429 137.589 17.0628 138.654 17.0074C139.5 17.0074 140.457 17.0074 140.871 17.4857C140.956 17.5917 141.018 17.7149 141.051 17.8468C141.084 17.9787 141.088 18.1162 141.064 18.2499C141.064 18.3724 140.999 18.7399 140.999 18.7399H139.669C137.272 18.7399 134.419 19.4341 134.419 22.2749C134.419 24.9991 137.301 25.6291 139.051 25.6291C140.383 25.6184 141.708 25.45 143 25.1274L144.114 18.7107C144.225 18.0749 144.494 16.5524 143.642 15.5841" fill="white"/>
<g clip-path="url(#clip1_584_33096)">
<path d="M169.396 17.9588C169.394 18.0545 169.412 18.1496 169.448 18.2384C169.484 18.3271 169.537 18.4075 169.606 18.4749C169.673 18.5451 169.754 18.6005 169.844 18.6374C169.934 18.6744 170.03 18.6921 170.127 18.6895C170.223 18.691 170.318 18.6733 170.406 18.6375C170.495 18.6016 170.575 18.5483 170.643 18.4807C170.712 18.4131 170.767 18.3319 170.804 18.2421C170.841 18.1523 170.859 18.0558 170.856 17.9588C170.856 17.7711 170.784 17.5905 170.654 17.4544C170.588 17.3801 170.507 17.3213 170.415 17.2821C170.324 17.2429 170.225 17.2243 170.126 17.2276C170.03 17.226 169.934 17.2441 169.845 17.2809C169.757 17.3177 169.676 17.3724 169.61 17.4416C169.541 17.5086 169.486 17.5891 169.449 17.6781C169.413 17.7671 169.394 17.8626 169.396 17.9588ZM170.126 18.8333C170.01 18.836 169.895 18.815 169.788 18.7715C169.681 18.728 169.584 18.663 169.503 18.5804C169.422 18.4993 169.357 18.4023 169.314 18.2955C169.27 18.1886 169.249 18.0741 169.251 17.9588C169.248 17.8431 169.269 17.728 169.312 17.6205C169.355 17.513 169.42 17.4154 169.501 17.3335C169.583 17.2516 169.681 17.1873 169.788 17.1442C169.896 17.1012 170.011 17.0805 170.127 17.0833C170.243 17.0804 170.358 17.1019 170.466 17.1462C170.573 17.1905 170.67 17.2568 170.75 17.3407C170.831 17.4215 170.896 17.5179 170.939 17.6241C170.982 17.7304 171.003 17.8442 171.001 17.9588C171.003 18.0736 170.982 18.1875 170.939 18.2938C170.896 18.4001 170.831 18.4966 170.75 18.5775C170.669 18.6611 170.572 18.727 170.465 18.771C170.357 18.815 170.242 18.8362 170.126 18.8333Z" fill="#6D6E71"/>
<path d="M170.156 17.9183C170.205 17.9216 170.253 17.9089 170.294 17.8824C170.312 17.8669 170.326 17.8473 170.335 17.8252C170.343 17.803 170.347 17.7791 170.344 17.7554C170.347 17.7282 170.342 17.7008 170.329 17.6765C170.317 17.6523 170.297 17.6323 170.273 17.6191C170.242 17.6047 170.208 17.5979 170.174 17.5994H169.874V17.9183H170.156ZM169.745 17.4893H170.171C170.23 17.4874 170.29 17.498 170.345 17.5206C170.387 17.5395 170.421 17.571 170.445 17.6107C170.468 17.6504 170.478 17.6963 170.474 17.7421C170.476 17.7906 170.464 17.8385 170.44 17.8807C170.415 17.9175 170.381 17.9471 170.341 17.9665C170.373 17.9778 170.402 17.9978 170.424 18.0245C170.447 18.06 170.458 18.1014 170.457 18.1433L170.46 18.2697C170.459 18.2966 170.462 18.3235 170.468 18.3498C170.47 18.362 170.474 18.3737 170.482 18.3838C170.489 18.3938 170.498 18.402 170.509 18.4077V18.4269H170.352C170.347 18.4172 170.344 18.4071 170.342 18.3967C170.338 18.3721 170.336 18.3474 170.335 18.3225L170.328 18.1648C170.329 18.1399 170.323 18.1152 170.312 18.0934C170.3 18.0715 170.282 18.0533 170.261 18.0407C170.226 18.0278 170.188 18.0222 170.151 18.0245H169.874V18.4269H169.745V17.4893Z" fill="#6D6E71"/>
</g>
<defs>
<clipPath id="clip0_584_33096">
<rect width="70.4231" height="18.75" fill="white" transform="translate(5 11.25)"/>
</clipPath>
<clipPath id="clip1_584_33096">
<rect width="1.75001" height="1.75" fill="white" transform="translate(169.251 17.0833)"/>
</clipPath>
</defs>
</svg>
