<svg width="175" height="269" viewBox="0 0 175 269" fill="none" xmlns="http://www.w3.org/2000/svg">
<g filter="url(#filter0_b_9631_110245)">
<path d="M2.54248 138.94L136.717 268.405L271.917 137.95C253.702 155.03 200.084 167.407 136.717 167.407C74.3758 167.655 21.527 155.773 2.54248 138.94Z" fill="url(#paint0_linear_9631_110245)"/>
<path d="M2.02394 112.21C-6.44213 121.617 13.5686 132.509 26.6525 136.964C48.459 144.638 70.2656 148.351 93.0984 150.579V84.9802C49.9984 89.1885 15.8775 99.3377 2.02394 112.21Z" fill="url(#paint1_linear_9631_110245)"/>
<path d="M270.892 111.465L136.718 -18L1.51709 112.455C19.732 95.375 73.3504 82.9978 136.718 82.9978C199.059 82.7502 251.907 94.8799 270.892 111.465Z" fill="url(#paint2_linear_9631_110245)"/>
</g>
<defs>
<filter id="filter0_b_9631_110245" x="-10" y="-28" width="293.768" height="306.405" filterUnits="userSpaceOnUse" color-interpolation-filters="sRGB">
<feFlood flood-opacity="0" result="BackgroundImageFix"/>
<feGaussianBlur in="BackgroundImageFix" stdDeviation="5"/>
<feComposite in2="SourceAlpha" operator="in" result="effect1_backgroundBlur_9631_110245"/>
<feBlend mode="normal" in="SourceGraphic" in2="effect1_backgroundBlur_9631_110245" result="shape"/>
</filter>
<linearGradient id="paint0_linear_9631_110245" x1="115" y1="138" x2="131.869" y2="269.935" gradientUnits="userSpaceOnUse">
<stop stop-color="#F3F3F7" stop-opacity="0.15"/>
<stop offset="0.782721" stop-color="#F3F3F7" stop-opacity="0"/>
</linearGradient>
<linearGradient id="paint1_linear_9631_110245" x1="58.5" y1="80" x2="60.3289" y2="156.1" gradientUnits="userSpaceOnUse">
<stop stop-color="#F3F3F7" stop-opacity="0.1"/>
<stop offset="0.885104" stop-color="#F3F3F7" stop-opacity="0"/>
</linearGradient>
<linearGradient id="paint2_linear_9631_110245" x1="136.204" y1="-18" x2="140.572" y2="120.984" gradientUnits="userSpaceOnUse">
<stop stop-color="#F3F3F7" stop-opacity="0.15"/>
<stop offset="0.796429" stop-color="#F3F3F7" stop-opacity="0"/>
</linearGradient>
</defs>
</svg>
