<svg width="183" height="269" viewBox="0 0 183 269" fill="none" xmlns="http://www.w3.org/2000/svg">
<g filter="url(#filter0_b_9629_49136)">
<path d="M271.655 138.448C280.377 129.041 260.11 118.149 247.026 113.693C225.22 106.02 203.413 102.306 180.58 100.078V165.925C223.68 161.469 257.545 151.32 271.655 138.448Z" fill="url(#paint0_linear_9629_49136)"/>
<path d="M2.54248 138.94L136.717 268.405L271.917 137.95C253.702 155.03 200.084 167.407 136.717 167.407C74.3758 167.655 21.527 155.773 2.54248 138.94Z" fill="url(#paint1_linear_9629_49136)"/>
<path d="M2.02394 112.21C-6.44213 121.617 13.5686 132.509 26.6525 136.964C48.459 144.638 70.2656 148.351 93.0984 150.579V84.9802C49.9984 89.1885 15.8775 99.3377 2.02394 112.21Z" fill="url(#paint2_linear_9629_49136)"/>
<path d="M270.892 111.465L136.718 -18L1.51709 112.455C19.732 95.375 73.3504 82.9978 136.718 82.9978C199.059 82.7502 251.907 94.8799 270.892 111.465Z" fill="url(#paint3_linear_9629_49136)"/>
</g>
<defs>
<filter id="filter0_b_9629_49136" x="-10" y="-28" width="293.768" height="306.405" filterUnits="userSpaceOnUse" color-interpolation-filters="sRGB">
<feFlood flood-opacity="0" result="BackgroundImageFix"/>
<feGaussianBlur in="BackgroundImageFix" stdDeviation="5"/>
<feComposite in2="SourceAlpha" operator="in" result="effect1_backgroundBlur_9629_49136"/>
<feBlend mode="normal" in="SourceGraphic" in2="effect1_backgroundBlur_9629_49136" result="shape"/>
</filter>
<linearGradient id="paint0_linear_9629_49136" x1="227.174" y1="100.078" x2="230.387" y2="170.152" gradientUnits="userSpaceOnUse">
<stop stop-color="#F3F3F7"/>
<stop offset="1" stop-color="#F3F3F7" stop-opacity="0"/>
</linearGradient>
<linearGradient id="paint1_linear_9629_49136" x1="137.23" y1="137.95" x2="141.597" y2="276.934" gradientUnits="userSpaceOnUse">
<stop stop-color="#F3F3F7"/>
<stop offset="1" stop-color="#F3F3F7" stop-opacity="0"/>
</linearGradient>
<linearGradient id="paint2_linear_9629_49136" x1="46.5492" y1="84.9802" x2="49.741" y2="154.791" gradientUnits="userSpaceOnUse">
<stop stop-color="#F3F3F7"/>
<stop offset="1" stop-color="#F3F3F7" stop-opacity="0"/>
</linearGradient>
<linearGradient id="paint3_linear_9629_49136" x1="136.204" y1="-18" x2="140.572" y2="120.984" gradientUnits="userSpaceOnUse">
<stop stop-color="#F3F3F7"/>
<stop offset="1" stop-color="#F3F3F7" stop-opacity="0"/>
</linearGradient>
</defs>
</svg>
