<svg width="126" height="26" viewBox="0 0 126 26" fill="none" xmlns="http://www.w3.org/2000/svg">
<g clip-path="url(#clip0_1145_11732)">
<path d="M104.244 13.9932C106.131 14.6436 108.092 15.0566 110.083 15.2224V15.0159C108.108 14.8588 106.158 14.4726 104.274 13.8654C103.279 13.5311 101.896 12.8821 101.896 12.1445C101.847 12.8821 103.279 13.6392 104.244 13.9932Z" fill="url(#paint0_linear_1145_11732)"/>
<path d="M102.075 11.8002C101.319 12.6459 103.07 13.6293 104.244 14.0423C106.131 14.6926 108.093 15.1056 110.084 15.2715V9.37134C106.293 9.75485 103.299 10.6792 102.125 11.8396" fill="url(#paint1_linear_1145_11732)"/>
<path d="M117.803 16.5695C121.593 16.1959 124.587 15.2715 125.821 14.1013C126.577 13.2556 124.826 12.2821 123.642 11.8593C121.755 11.213 119.793 10.8033 117.803 10.6399V16.5695Z" fill="url(#paint2_linear_1145_11732)"/>
<path d="M113.943 16.7662C108.741 16.7662 104.274 15.7829 102.404 14.4062L113.963 25.8623L125.831 14.062C124.229 15.6059 119.524 16.7367 113.943 16.7466" fill="url(#paint3_linear_1145_11732)"/>
<path d="M113.943 16.7663C108.741 16.7663 104.274 15.7829 102.404 14.4062C104.274 15.9108 108.741 16.9728 113.943 16.9728C119.524 16.9728 124.229 15.7337 125.831 14.0227C124.229 15.5666 119.524 16.6974 113.943 16.7073" fill="url(#paint4_linear_1145_11732)"/>
<path d="M117.803 10.8169C119.78 10.9644 121.731 11.3508 123.612 11.9674C124.607 12.2919 125.99 12.9507 125.99 13.6784C125.99 12.9409 124.607 12.1837 123.642 11.8297C121.755 11.1834 119.793 10.7738 117.803 10.6104V10.8169Z" fill="url(#paint5_linear_1145_11732)"/>
<path d="M102.056 11.8003C103.657 10.2466 108.363 9.11573 113.993 9.11573C119.206 9.11573 123.662 10.0991 125.533 11.4758L113.923 0L102.056 11.8003Z" fill="url(#paint6_linear_1145_11732)"/>
<path d="M113.943 8.85034C108.363 8.85034 103.657 10.0795 102.006 11.8004C103.607 10.2467 108.313 9.11585 113.943 9.11585C119.156 9.11585 123.613 10.0992 125.483 11.4759C123.613 9.9222 119.166 8.85034 113.983 8.85034" fill="url(#paint7_linear_1145_11732)"/>
<path d="M113.963 25.705L102.404 14.4062L113.963 25.8623L125.831 14.062L113.963 25.705Z" fill="url(#paint8_linear_1145_11732)"/>
<path d="M30.2516 26.0001C27.9834 26.0001 24.9792 24.5742 24.9792 20.4048C24.9255 19.6876 25.0229 18.9672 25.2651 18.2891C25.5073 17.611 25.8891 16.9899 26.3864 16.465C26.8838 15.9401 27.4858 15.5229 28.1545 15.2396C28.8231 14.9564 29.544 14.8133 30.2715 14.8193C31.3055 14.7729 32.3339 14.9932 33.2558 15.4585L32.4103 16.9827C31.9109 16.7803 31.3781 16.6703 30.8385 16.6582C29.1473 16.6582 27.7546 18.1922 27.7546 20.3949C27.7546 22.2141 29.018 24.053 30.8186 24.053C31.3469 24.0769 31.8722 23.9615 32.3406 23.7187L33.2459 25.3511C32.2892 25.8295 31.2229 26.0532 30.1521 26.0001" fill="#FFC812"/>
<path d="M56.4641 25.7641V18.2414C56.483 18.0507 56.46 17.8582 56.3966 17.6771C56.3332 17.496 56.2308 17.3306 56.0966 17.1924C55.9624 17.0541 55.7995 16.9462 55.6191 16.876C55.4386 16.8059 55.245 16.7752 55.0515 16.786C54.813 16.7709 54.5742 16.8099 54.3535 16.9003C54.1327 16.9907 53.9359 17.1299 53.7781 17.3072V25.7641H51.0624V18.2021C51.0723 18.0112 51.0411 17.8205 50.9708 17.6424C50.9005 17.4644 50.7927 17.3032 50.6545 17.1696C50.4958 17.0327 50.3112 16.9283 50.1114 16.8625C49.9116 16.7967 49.7006 16.7707 49.4906 16.786C49.1003 16.7824 48.7127 16.849 48.3466 16.9827V25.7641H45.6606V15.3503C46.7038 15.0826 47.7692 14.9082 48.844 14.8292C49.7153 14.7704 50.5899 14.8772 51.4205 15.1438C51.8554 15.311 52.2465 15.5732 52.5645 15.9109C52.9252 15.5858 53.3433 15.3291 53.798 15.1537C54.4328 14.9158 55.1092 14.8055 55.7876 14.8292C56.7282 14.8142 57.6365 15.1677 58.3144 15.8125C58.6138 16.1368 58.8445 16.517 58.9932 16.9308C59.1418 17.3445 59.2053 17.7834 59.1798 18.2218V25.7641H56.4641Z" fill="#FFC812"/>
<path d="M41.8908 20.4144C41.8908 23.2563 40.6175 24.0627 39.5033 24.0627C38.3891 24.0627 37.0561 23.2563 37.0561 20.4144C37.0561 17.5725 38.3991 16.717 39.5033 16.717C40.6075 16.717 41.8908 17.5234 41.8908 20.3751M44.6066 20.3751C44.6066 16.8645 42.7463 14.7798 39.5033 14.7798C36.2603 14.7798 34.3403 16.8645 34.3403 20.3751C34.3403 23.8857 36.2702 25.9606 39.5033 25.9606C42.7364 25.9606 44.6066 23.8759 44.6066 20.3751Z" fill="#FFC812"/>
<path d="M7.07295 15.9894C7.07295 13.2655 5.70014 12.6165 4.76504 12.5673C4.41686 12.5673 3.77025 12.5673 3.77025 12.5673V19.3525H4.28754C5.57082 19.3525 7.03316 18.32 7.03316 15.9698M10.7835 16.0386C10.7971 17.5411 10.2397 18.9939 9.2217 20.1097C8.10753 21.1422 7.04311 21.4962 4.24775 21.4471H3.81004V25.7837H0V10.817C1.41065 10.661 2.82838 10.5756 4.24775 10.5613C7.32165 10.5613 8.52534 11.1021 9.4306 11.9576C10.3871 13.1099 10.8826 14.5689 10.8233 16.0583" fill="#0973B9"/>
<path d="M19.4782 25.7934H16.265L10.8633 10.8169H15.4493C15.4493 10.8169 17.9661 19.6671 17.9959 19.9228C17.9959 19.7163 20.652 10.8169 20.652 10.8169H24.8699L19.4782 25.7934Z" fill="#0973B9"/>
<path d="M66.7204 22.45C66.7204 21.5257 66.3424 20.2768 63.3381 20.2768H62.97V24.2102C63.8951 24.44 64.871 24.3604 65.7455 23.9841C66.0391 23.8503 66.2884 23.6371 66.4644 23.3691C66.6405 23.1011 66.7361 22.7892 66.7403 22.4697M66.3921 16.9924C66.3921 16.009 65.6659 15.5173 64.3031 15.5173C63.8614 15.5121 63.4207 15.5583 62.9899 15.655V18.9493H63.358C65.8748 18.9493 66.3424 17.9659 66.3424 16.9825M68.71 24.4659C67.8346 25.4001 66.2827 25.9803 63.9648 25.9803C62.1941 25.9803 60.2344 25.7738 60.2344 25.7738V14.062C60.2344 14.062 62.0051 13.8555 63.2884 13.8555C66.3424 13.8555 67.0686 14.3865 67.6157 14.7208C68.0313 14.9312 68.3829 15.2469 68.6346 15.6356C68.8863 16.0244 69.029 16.4722 69.0482 16.9334C69.0482 18.8018 67.2775 19.2934 66.7801 19.4999C67.2649 19.6053 67.7225 19.8081 68.1247 20.0957C68.5268 20.3833 68.8649 20.7495 69.1178 21.1717C69.3239 21.7059 69.3945 22.2819 69.3234 22.8493C69.2523 23.4166 69.0417 23.9582 68.71 24.4266" fill="#FFC812"/>
<path d="M76.2508 20.0803C74.1319 20.0803 73.1272 20.808 73.1272 22.2535C73.121 22.5348 73.1741 22.8143 73.2833 23.0742C73.3924 23.3341 73.5551 23.5686 73.761 23.7629C73.9669 23.9572 74.2114 24.1069 74.4791 24.2026C74.7468 24.2983 75.0317 24.3378 75.3157 24.3186C75.6325 24.3175 75.9474 24.2711 76.2508 24.1809V20.0803ZM78.9666 25.7641C78.9666 25.7641 77.2555 25.9706 76.1016 25.9706C72.1224 25.9706 70.4512 24.5742 70.4512 22.2535C70.4512 20.4146 72.3114 18.7036 76.2508 18.7036V18.2119C76.2508 17.6612 75.8031 16.7467 74.2612 16.7467C73.5055 16.7543 72.7611 16.929 72.0826 17.2581L71.1973 15.6257C72.3424 15.063 73.6095 14.7861 74.8879 14.8193C76.8775 14.8193 78.9865 15.8715 78.9865 18.2119L78.9666 25.7641Z" fill="#FFC812"/>
<path d="M85.8903 25.764V19.146C85.8903 17.7497 85.6714 17.0711 84.5274 16.8155C83.9432 16.7365 83.3486 16.7869 82.7865 16.963V25.8132H80.1006V15.3404C81.14 15.0928 82.1979 14.9284 83.264 14.8488C84.6438 14.6465 86.0517 14.9283 87.2432 15.6453C87.6527 15.9322 87.986 16.3128 88.2147 16.7545C88.4433 17.1963 88.5605 17.6861 88.5563 18.1823V25.764H85.8903Z" fill="#FFC812"/>
<path d="M95.9772 25.7639L92.3761 21.565H92.3562L92.386 25.7639H89.6802V14.0718H92.386L92.3562 18.5657H92.386L95.5494 15.065H99.2401L94.2065 20.0604L99.5883 25.7639H95.9772Z" fill="#FFC812"/>
</g>
<defs>
<linearGradient id="paint0_linear_1145_11732" x1="101.896" y1="13.6786" x2="110.093" y2="13.6786" gradientUnits="userSpaceOnUse">
<stop stop-color="#2490CF"/>
<stop offset="0.84" stop-color="#0560A7"/>
<stop offset="1" stop-color="#0560A7"/>
</linearGradient>
<linearGradient id="paint1_linear_1145_11732" x1="108.94" y1="15.8713" x2="105.42" y2="9.70977" gradientUnits="userSpaceOnUse">
<stop stop-color="#0B74B9"/>
<stop offset="0.23" stop-color="#0E77BB"/>
<stop offset="0.43" stop-color="#1882C3"/>
<stop offset="0.62" stop-color="#2894CF"/>
<stop offset="0.81" stop-color="#3FAEE1"/>
<stop offset="0.94" stop-color="#53C4F0"/>
<stop offset="1" stop-color="#53C4F0"/>
</linearGradient>
<linearGradient id="paint2_linear_1145_11732" x1="122.2" y1="15.537" x2="119.267" y2="10.4138" gradientUnits="userSpaceOnUse">
<stop stop-color="#F9D802"/>
<stop offset="0.1" stop-color="#F9D802"/>
<stop offset="0.23" stop-color="#F8CF05"/>
<stop offset="0.44" stop-color="#F6B60D"/>
<stop offset="0.7" stop-color="#F28F1B"/>
<stop offset="0.8" stop-color="#F17F21"/>
<stop offset="1" stop-color="#F17F21"/>
</linearGradient>
<linearGradient id="paint3_linear_1145_11732" x1="102.384" y1="19.9622" x2="125.831" y2="19.9622" gradientUnits="userSpaceOnUse">
<stop stop-color="#F9D802"/>
<stop offset="0.04" stop-color="#F9D802"/>
<stop offset="0.29" stop-color="#F6BC0B"/>
<stop offset="0.77" stop-color="#F17F21"/>
<stop offset="1" stop-color="#F17F21"/>
</linearGradient>
<linearGradient id="paint4_linear_1145_11732" x1="102.374" y1="15.5272" x2="125.831" y2="15.5272" gradientUnits="userSpaceOnUse">
<stop stop-color="#FBD10B"/>
<stop offset="0.49" stop-color="#F17F21"/>
<stop offset="1" stop-color="#F17F21"/>
</linearGradient>
<linearGradient id="paint5_linear_1145_11732" x1="117.803" y1="12.1641" x2="125.99" y2="12.1641" gradientUnits="userSpaceOnUse">
<stop stop-color="#CA7128"/>
<stop offset="0.13" stop-color="#CA7128"/>
<stop offset="0.23" stop-color="#D57525"/>
<stop offset="0.51" stop-color="#F17F21"/>
<stop offset="1" stop-color="#FBD10B"/>
</linearGradient>
<linearGradient id="paint6_linear_1145_11732" x1="102.056" y1="5.88048" x2="125.513" y2="5.88048" gradientUnits="userSpaceOnUse">
<stop stop-color="#0B74B9"/>
<stop offset="0.16" stop-color="#0B74B9"/>
<stop offset="0.32" stop-color="#1983C3"/>
<stop offset="1" stop-color="#53C4F0"/>
</linearGradient>
<linearGradient id="paint7_linear_1145_11732" x1="102.056" y1="10.3155" x2="125.513" y2="10.3155" gradientUnits="userSpaceOnUse">
<stop stop-color="#0560A7"/>
<stop offset="0.16" stop-color="#0560A7"/>
<stop offset="0.33" stop-color="#0C70B4"/>
<stop offset="1" stop-color="#2BB1E6"/>
</linearGradient>
<linearGradient id="paint8_linear_1145_11732" x1="102.384" y1="19.9622" x2="125.831" y2="19.9622" gradientUnits="userSpaceOnUse">
<stop stop-color="#E3C520"/>
<stop offset="0.77" stop-color="#DB7728"/>
<stop offset="1" stop-color="#DB7728"/>
</linearGradient>
<clipPath id="clip0_1145_11732">
<rect width="126" height="26" fill="white"/>
</clipPath>
</defs>
</svg>
