<svg width="195" height="110" viewBox="0 0 195 110" fill="none" xmlns="http://www.w3.org/2000/svg">
<g opacity="0.05">
<path d="M73.9708 67.8372C69.5168 67.8372 63.5781 64.9335 63.5781 56.4146C63.5781 47.6446 70.1053 44.9952 74.0026 44.9952C76.0185 44.921 78.0197 45.3682 79.8172 46.2946L78.1374 49.4183C77.1559 49.0037 76.1071 48.7763 75.044 48.7476C71.713 48.7476 68.9664 51.896 68.9664 56.3867C68.9664 60.1155 71.4712 63.8627 75.0026 63.8627C76.0471 63.9052 77.0847 63.6733 78.0144 63.1898L79.7991 66.5228C77.9084 67.4931 75.7997 67.9463 73.6823 67.8372" fill="currentColor"/>
<path d="M124.67 67.3627V51.9891C124.708 51.5991 124.663 51.2053 124.536 50.8348C124.41 50.4643 124.206 50.1259 123.937 49.8431C123.669 49.5602 123.344 49.3396 122.983 49.1964C122.623 49.0532 122.236 48.9908 121.849 49.0136C121.374 48.9859 120.899 49.0671 120.46 49.251C120.02 49.435 119.627 49.7169 119.31 50.0759V67.3627H113.892V51.9043C113.909 51.5173 113.845 51.1312 113.706 50.7704C113.566 50.4096 113.354 50.082 113.083 49.8086C112.764 49.5264 112.393 49.3109 111.992 49.1744C111.59 49.0379 111.166 48.9832 110.744 49.0136C109.969 49.0065 109.199 49.1447 108.474 49.4213V67.3627H103.098V46.0776C105.181 45.5348 107.308 45.1819 109.454 45.0229C111.192 44.8941 112.939 45.1084 114.596 45.6539C115.464 46.0008 116.245 46.5359 116.886 47.2215C117.611 46.56 118.447 46.0353 119.355 45.6721C120.617 45.2005 121.959 44.9819 123.304 45.0283C125.183 45.0103 126.994 45.7428 128.342 47.067C128.937 47.7332 129.396 48.5117 129.693 49.3575C129.989 50.2034 130.119 51.1002 130.073 51.9967V67.3701L124.67 67.3627Z" fill="currentColor"/>
<path d="M101.246 93.5686C101.246 93.5686 97.8337 93.9978 95.5134 93.9978C87.5598 93.9978 84.249 91.137 84.249 86.3985C84.249 82.6428 87.9607 79.1382 95.8177 79.1382V78.1425C95.8177 77.02 94.9185 75.1465 91.8144 75.1465C90.306 75.1572 88.8195 75.5133 87.4665 76.1884C87.4442 76.1015 85.6944 72.8479 85.6944 72.8479C87.9817 71.6976 90.5124 71.1311 93.0658 71.1976C96.9715 71.1976 101.248 73.3567 101.248 78.1425L101.246 93.5686ZM95.822 81.9636C91.5864 81.9636 89.5853 83.453 89.5853 86.4028C89.5734 86.977 89.68 87.5475 89.8983 88.0777C90.1166 88.6079 90.4417 89.0862 90.8529 89.4822C91.2642 89.8781 91.7525 90.183 92.2867 90.3772C92.8209 90.5714 93.3893 90.6508 93.9555 90.6102C94.5875 90.6087 95.216 90.5157 95.822 90.3344V81.9636Z" fill="currentColor"/>
<path d="M81.3537 90.9076C79.6209 92.8058 76.5254 94.0001 71.8975 94.0001C68.3523 94.0001 64.437 93.5708 64.437 93.5708V69.6527C64.437 69.6527 67.9854 69.2427 70.54 69.2427C76.6357 69.2427 78.0811 70.3222 79.1819 71.0068C80.0091 71.4372 80.7088 72.0817 81.2099 72.8747C81.711 73.6677 81.9955 74.5808 82.0345 75.5212C82.0345 79.3423 78.5053 80.3401 77.501 80.7629V80.8306C78.4682 81.0462 79.3814 81.4604 80.184 82.0475C80.9866 82.6346 81.6616 83.3821 82.1671 84.2439C82.5778 85.3376 82.718 86.5163 82.5755 87.6773C82.4329 88.8384 82.0121 89.9466 81.3495 90.9054L81.3537 90.9076ZM76.6346 75.6134C76.6346 73.596 75.1839 72.5852 72.4648 72.5852C71.5835 72.5799 70.7045 72.6753 69.8444 72.8696V79.5912H70.5867C75.6006 79.5912 76.6399 77.5867 76.6399 75.6134H76.6346ZM77.3303 86.7956C77.3303 84.9103 76.572 82.3575 70.5867 82.3575H69.8444V90.3593C71.6885 90.8247 73.6329 90.6598 75.3747 89.8904C75.9552 89.6132 76.4464 89.1755 76.7915 88.6279C77.1366 88.0803 77.3215 87.4451 77.325 86.7956" fill="currentColor"/>
<path d="M116.035 93.5676V80.0364C116.035 77.1993 115.611 75.7968 113.322 75.2774C112.152 75.1178 110.962 75.2279 109.84 75.5994V93.5676H104.477V72.2654C106.551 71.7647 108.661 71.4335 110.787 71.275C114.801 71.0668 116.8 71.555 118.789 72.8845C119.607 73.4701 120.272 74.2474 120.728 75.1498C121.184 76.0522 121.416 77.0529 121.407 78.0663V93.5676H116.035Z" fill="currentColor"/>
<path d="M100.379 56.4225C100.379 49.2653 96.6479 45 90.1896 45C83.7313 45 79.8649 49.2653 79.8649 56.4225C79.8649 63.5797 83.7367 67.8462 90.1896 67.8462C96.6426 67.8462 100.379 63.5851 100.379 56.4225ZM94.9533 56.4225C94.9533 62.2341 92.4081 63.8898 90.1896 63.8898C87.9711 63.8898 85.2903 62.2341 85.2903 56.4225C85.2903 50.6109 87.9785 48.9574 90.1896 48.9574C92.4007 48.9574 94.9533 50.6173 94.9533 56.4225Z" fill="currentColor"/>
<path d="M137.239 93.5699L130.046 84.9855H129.998L130.068 93.5699H124.668V69.6731H130.068L129.998 78.8616H130.073L136.373 71.7065H143.736L133.69 81.9069L144.45 93.5699H137.239Z" fill="currentColor"/>
<path d="M130.116 40.561C128.57 42.3229 132.209 44.3703 134.563 45.2384C138.418 46.5997 142.428 47.4594 146.498 47.7966L146.485 35.3975C138.734 36.198 132.627 38.1284 130.116 40.561" fill="currentColor"/>
<path d="M37.5075 47.5478C37.5424 50.608 36.4325 53.5683 34.4003 55.835C32.1924 57.9242 30.0799 58.6495 24.5771 58.553H23.5782V67.3628H16V36.8785C16 36.8785 20.1157 36.3871 24.4435 36.3613C30.5529 36.327 32.9379 37.4698 34.7407 39.205C36.1034 40.5194 37.5075 43.7449 37.5075 47.5478ZM30.0619 47.4019C30.0619 41.8671 27.3354 40.5462 25.4658 40.4465C24.7712 40.411 23.5782 40.4808 23.5782 40.4808V54.2812H24.6089C27.1541 54.2812 30.0619 52.1941 30.0619 47.4019Z" fill="currentColor"/>
<path d="M55.3254 67.3598H48.9297L38.1892 36.8025H47.3093C47.3093 36.8025 52.3105 54.937 52.3688 55.3512H52.4165C52.4749 54.936 57.6881 36.8025 57.6881 36.8025H66.015L55.3254 67.3598Z" fill="currentColor"/>
<path d="M162.259 50.6305C170.009 49.8343 176.117 47.9039 178.631 45.4691C180.172 43.7082 176.533 41.662 174.177 40.7929C170.322 39.4314 166.311 38.5714 162.241 38.2336L162.259 50.6305Z" fill="currentColor"/>
<path d="M154.382 51.028C143.734 51.0388 134.612 48.9893 130.794 46.092C130.761 46.0695 130.743 46.092 130.736 46.0995C130.736 46.1157 130.741 46.1315 130.751 46.1446L154.409 70.0371L178.669 45.4268C175.396 48.6588 165.768 51.0185 154.384 51.0303" fill="currentColor"/>
<path d="M130.736 46.1489C130.736 46.1658 130.741 46.1823 130.751 46.1962V46.1425L130.744 46.1371L130.739 46.1446L130.736 46.1489ZM154.388 51.028C143.739 51.0388 134.617 48.9893 130.799 46.092C130.767 46.0695 130.749 46.092 130.741 46.0995C130.741 46.1132 130.744 46.1268 130.75 46.1392C130.76 46.1295 130.775 46.1263 130.799 46.1446C134.617 49.2972 143.737 51.5099 154.388 51.5013C165.773 51.4884 175.401 48.926 178.672 45.4268C175.399 48.6588 165.771 51.0185 154.388 51.0303" fill="currentColor"/>
<path d="M162.246 38.6596C166.289 38.9798 170.28 39.7863 174.134 41.0622C176.116 41.7479 179.001 43.2082 178.998 44.6418C179.084 43.1073 176.17 41.5301 174.181 40.7929C170.326 39.4314 166.316 38.5714 162.246 38.2336V38.6596Z" fill="currentColor"/>
<path d="M130.076 40.6093C133.346 37.3794 142.977 35.0165 154.361 35.0037C165.004 34.994 174.127 37.036 177.944 39.9396C177.977 39.9654 177.995 39.9472 178 39.9396C178.003 39.9237 178 39.9073 177.992 39.8935L154.332 16L130.076 40.6093Z" fill="currentColor"/>
<path d="M177.996 39.8941V39.8995L178.003 39.8854C178.006 39.8692 178.003 39.8526 177.995 39.8383L177.996 39.8941ZM154.365 34.5374C142.977 34.5481 133.346 37.1127 130.081 40.6108C133.35 37.381 142.981 35.0181 154.365 35.0052C165.008 34.9956 174.132 37.0376 177.948 39.9412C177.981 39.967 177.999 39.9487 178.004 39.9412C178.006 39.9343 178.007 39.9271 178.005 39.92C178.004 39.913 178.001 39.9063 177.997 39.9005C177.989 39.908 177.972 39.9134 177.948 39.8941C174.138 36.75 165.05 34.5396 154.438 34.5385H154.365" fill="currentColor"/>
<path d="M154.409 69.7129L130.798 46.0898C130.766 46.0673 130.748 46.0898 130.74 46.0973C130.74 46.1135 130.746 46.1293 130.755 46.1424L154.413 70.0349L178.674 45.4246L154.409 69.7129Z" fill="currentColor"/>
<path d="M134.563 45.2411C138.418 46.6024 142.428 47.4621 146.498 47.7993V47.3701C142.456 47.049 138.466 46.2418 134.613 44.9654C132.63 44.2797 129.746 42.8193 129.749 41.3835C129.663 42.9202 132.576 44.4954 134.566 45.2358" fill="currentColor"/>
</g>
</svg>
