<svg width="20" height="16" viewBox="0 0 20 16" fill="none" xmlns="http://www.w3.org/2000/svg">
<path fill-rule="evenodd" clip-rule="evenodd" d="M16.6426 0.0856934H3.35688L3.19373 0.0899661L3.18784 0.0903C2.42644 0.133477 1.71041 0.466378 1.18665 1.02071C0.662902 1.57504 0.371121 2.30879 0.371168 3.07142L0.371094 12.9286L0.37544 13.0917L0.375774 13.0976C0.418951 13.859 0.751852 14.575 1.30619 15.0988C1.86052 15.6225 2.59426 15.9143 3.35688 15.9143L16.6426 15.9143L16.8057 15.91L16.8116 15.9097C17.573 15.8665 18.2891 15.5336 18.8128 14.9792C19.3366 14.4249 19.6284 13.6912 19.6283 12.9286L19.6284 3.07141L19.624 2.90826L19.6237 2.90237C19.5805 2.14096 19.2476 1.42494 18.6933 0.901181C18.139 0.377424 17.4052 0.0856434 16.6426 0.0856934ZM10.3886 9.60457L17.9426 5.67654V12.9244L17.9378 13.0386C17.9103 13.3624 17.7625 13.6643 17.5234 13.8846C17.2834 14.1057 16.969 14.2285 16.6426 14.2286H3.36104L3.246 14.2238C2.92233 14.1961 2.62071 14.0482 2.40059 13.8091C2.17958 13.5691 2.05689 13.2548 2.05688 12.9286V5.67654L9.61819 9.60836L9.72914 9.65492L9.73672 9.65741C9.84341 9.69247 9.95603 9.70586 10.068 9.69679C10.1799 9.68772 10.2889 9.65635 10.3886 9.60457ZM2.47631 2.11511C2.71631 1.89411 3.03063 1.77142 3.35688 1.77141H16.6384L16.7527 1.7762C17.0765 1.80372 17.3783 1.95154 17.5986 2.19061C17.8198 2.43063 17.9426 2.74505 17.9426 3.07141V3.77627L9.99974 7.90655L2.05688 3.77627V3.07557L2.06168 2.96052C2.08938 2.63685 2.23728 2.33523 2.47631 2.11511Z" fill="color1"/>
</svg>
