<svg width="24" height="24" viewBox="0 0 24 24" fill="none" xmlns="http://www.w3.org/2000/svg">
<path d="M5.5 12C5.5 11.1716 6.16857 10.5 6.99329 10.5H7.00671C7.83143 10.5 8.5 11.1716 8.5 12C8.5 12.8284 7.83143 13.5 7.00671 13.5H6.99329C6.16857 13.5 5.5 12.8284 5.5 12Z" fill="color1"/>
<path d="M10.5 12C10.5 11.1716 11.1686 10.5 11.9933 10.5H12.0067C12.8314 10.5 13.5 11.1716 13.5 12C13.5 12.8284 12.8314 13.5 12.0067 13.5H11.9933C11.1686 13.5 10.5 12.8284 10.5 12Z" fill="color1"/>
<path d="M15.5 12C15.5 11.1716 16.1686 10.5 16.9933 10.5H17.0067C17.8314 10.5 18.5 11.1716 18.5 12C18.5 12.8284 17.8314 13.5 17.0067 13.5H16.9933C16.1686 13.5 15.5 12.8284 15.5 12Z" fill="color1"/>
</svg>
