<svg width="147" height="32" viewBox="0 0 147 32" fill="none" xmlns="http://www.w3.org/2000/svg">
<g clip-path="url(#clip0_9282_82651)">
<path fill-rule="evenodd" clip-rule="evenodd" d="M9.83538 11.9796C9.66585 11.6864 9.5569 11.3622 9.51501 11.0261C9.47312 10.6901 9.49914 10.3491 9.59152 10.0232C9.6839 9.69743 9.84077 9.39349 10.0528 9.12944C10.2649 8.86539 10.5278 8.64661 10.826 8.48607L11.1532 8.30034C11.7108 7.99363 12.3662 7.91723 12.9794 8.08746C13.5925 8.2577 14.1148 8.66106 14.4344 9.2113L17.6272 14.6727L20.8201 9.20688C21.1375 8.66463 21.6572 8.2706 22.265 8.11139C22.8728 7.95218 23.519 8.04082 24.0615 8.35782L24.4551 8.5922C25.0232 8.92235 25.4378 9.46369 25.6084 10.0982C25.779 10.7328 25.6919 11.409 25.366 11.9796C23.951 14.4781 21.5807 18.6526 19.8428 21.7084C19.6218 22.1003 19.3006 22.4265 18.912 22.6534C18.5235 22.8804 18.0816 23 17.6317 23C17.1817 23 16.7398 22.8804 16.3513 22.6534C15.9628 22.4265 15.6416 22.1003 15.4206 21.7084L9.83538 11.9796Z" fill="#ED2132"/>
<path fill-rule="evenodd" clip-rule="evenodd" d="M14.2897 8.95963C13.8284 8.55473 13.2316 8.33842 12.6181 8.35379C12.3187 8.36283 12.0271 8.45089 11.7727 8.60904C11.5184 8.76718 11.3104 8.98979 11.1698 9.25427C11.0293 9.51875 10.9612 9.8157 10.9724 10.115C10.9837 10.4143 11.0739 10.7053 11.2339 10.9585C12.0122 12.3072 13.1885 14.306 13.5202 14.8146C13.7362 15.1639 14.0414 15.4493 14.4044 15.6413C14.7674 15.8333 15.1751 15.925 15.5854 15.9069C16.7263 15.9069 17.6284 14.6731 17.6284 14.6731L14.2897 8.95963Z" fill="#A02C22"/>
<path fill-rule="evenodd" clip-rule="evenodd" d="M30.7252 18.9978H34.6477C34.8682 18.9978 35.0797 18.9102 35.2356 18.7543C35.3915 18.5984 35.4791 18.3869 35.4791 18.1665C35.4791 17.946 35.3915 17.7345 35.2356 17.5786C35.0797 17.4227 34.8682 17.3351 34.6477 17.3351H30.7252V15.323H34.661C34.775 15.3313 34.8894 15.3161 34.9972 15.2782C35.1051 15.2403 35.2039 15.1806 35.2876 15.1028C35.3713 15.0249 35.4381 14.9307 35.4837 14.8259C35.5294 14.7212 35.5529 14.6081 35.5529 14.4938C35.5529 14.3796 35.5294 14.2665 35.4837 14.1617C35.4381 14.057 35.3713 13.9627 35.2876 13.8849C35.2039 13.8071 35.1051 13.7474 34.9972 13.7095C34.8894 13.6716 34.775 13.6564 34.661 13.6647H29.8895C29.669 13.6647 29.4575 13.7523 29.3016 13.9082C29.1457 14.0641 29.0581 14.2756 29.0581 14.4961V21.8413C29.0581 22.0618 29.1457 22.2732 29.3016 22.4291C29.4575 22.5851 29.669 22.6726 29.8895 22.6726H34.6433C34.7525 22.6726 34.8606 22.6511 34.9614 22.6094C35.0623 22.5676 35.154 22.5063 35.2312 22.4291C35.3084 22.3519 35.3696 22.2603 35.4114 22.1594C35.4532 22.0586 35.4747 21.9505 35.4747 21.8413C35.4747 21.7321 35.4532 21.624 35.4114 21.5231C35.3696 21.4223 35.3084 21.3306 35.2312 21.2534C35.154 21.1762 35.0623 21.115 34.9614 21.0732C34.8606 21.0314 34.7525 21.0099 34.6433 21.0099H30.7252V18.9978ZM38.1899 15.323V21.8413C38.1899 22.0618 38.2775 22.2732 38.4334 22.4291C38.5893 22.5851 38.8007 22.6726 39.0212 22.6726C39.2417 22.6726 39.4532 22.5851 39.6091 22.4291C39.765 22.2732 39.8526 22.0618 39.8526 21.8413V15.323H41.365C41.479 15.3313 41.5934 15.3161 41.7013 15.2782C41.8091 15.2403 41.9079 15.1806 41.9916 15.1028C42.0753 15.0249 42.1421 14.9307 42.1877 14.8259C42.2334 14.7212 42.2569 14.6081 42.2569 14.4938C42.2569 14.3796 42.2334 14.2665 42.1877 14.1617C42.1421 14.057 42.0753 13.9627 41.9916 13.8849C41.9079 13.8071 41.8091 13.7474 41.7013 13.7095C41.5934 13.6716 41.479 13.6564 41.365 13.6647H36.62C36.506 13.6564 36.3916 13.6716 36.2837 13.7095C36.1759 13.7474 36.0771 13.8071 35.9934 13.8849C35.9097 13.9627 35.8429 14.057 35.7973 14.1617C35.7516 14.2665 35.728 14.3796 35.728 14.4938C35.728 14.6081 35.7516 14.7212 35.7973 14.8259C35.8429 14.9307 35.9097 15.0249 35.9934 15.1028C36.0771 15.1806 36.1759 15.2403 36.2837 15.2782C36.3916 15.3161 36.506 15.3313 36.62 15.323H38.1899ZM25.9891 14.4961V21.8413C25.9891 22.0618 26.0767 22.2732 26.2326 22.4291C26.3885 22.5851 26.6 22.6726 26.8205 22.6726C27.041 22.6726 27.2524 22.5851 27.4083 22.4291C27.5642 22.2732 27.6518 22.0618 27.6518 21.8413V14.4961C27.6518 14.2756 27.5642 14.0641 27.4083 13.9082C27.2524 13.7523 27.041 13.6647 26.8205 13.6647C26.6 13.6647 26.3885 13.7523 26.2326 13.9082C26.0767 14.0641 25.9891 14.2756 25.9891 14.4961Z" fill="#ED2132"/>
<path fill-rule="evenodd" clip-rule="evenodd" d="M47.0888 21.019L48.0263 22.6773C48.0263 22.6773 47.3585 22.7481 46.8721 22.7614C45.3199 22.7967 42.0829 21.8371 42.0829 18.1712C42.0829 14.5052 45.5676 13.5986 46.9473 13.5986C48.327 13.5986 51.7763 14.6334 51.7763 18.1712C51.8078 18.7811 51.7053 19.3905 51.4761 19.9566C51.2469 20.5227 50.8966 21.0317 50.4496 21.448L51.1218 22.5933H49.1849L46.7748 18.3834H48.6675L49.3441 19.5288C49.6125 19.1288 49.7429 18.6521 49.7156 18.1712C49.7156 17.2867 48.9992 15.3498 46.9827 15.3498C46.6109 15.3406 46.2411 15.4074 45.8961 15.5463C45.551 15.6851 45.238 15.893 44.9763 16.1573C44.7146 16.4215 44.5096 16.7364 44.374 17.0827C44.2384 17.4291 44.1751 17.7995 44.1878 18.1712C44.1878 21.0942 47.0888 21.019 47.0888 21.019Z" fill="#1E427E"/>
<path fill-rule="evenodd" clip-rule="evenodd" d="M52.7004 13.7489H56.8174C58.3033 13.7489 60.333 14.6997 60.333 16.955C60.366 17.5612 60.2085 18.1626 59.8826 18.6749C59.5567 19.1872 59.0786 19.5847 58.5155 19.8117L60.5232 22.5977H58.2679L54.9291 17.7333H57.1402L57.5205 18.3037C57.7612 18.1785 57.9611 17.987 58.0966 17.752C58.2321 17.517 58.2977 17.2481 58.2856 16.9771C58.275 16.7574 58.2204 16.542 58.1252 16.3438C58.0299 16.1455 57.8959 15.9684 57.7309 15.8229C57.566 15.6773 57.3736 15.5663 57.165 15.4965C56.9565 15.4266 56.736 15.3992 56.5167 15.4161H54.7213V22.5932H52.6871L52.7004 13.7489Z" fill="#1E427E"/>
<path d="M62.7559 9.9458H60.5404V10.5118H62.7559V9.9458Z" fill="#414141"/>
<path d="M61.9682 10.2288H61.327V12.5018H61.9682V10.2288Z" fill="#414141"/>
<path fill-rule="evenodd" clip-rule="evenodd" d="M63.0757 9.9458H63.6108L64.4421 11.3653L65.2956 9.9458H65.8395V12.5018H65.2425V11.1221L64.6279 12.1082H64.2741L63.6815 11.1177V12.5018H63.0712L63.0757 9.9458Z" fill="#414141"/>
</g>
<path d="M133.565 12.5643L129.776 16.1335H134.143L137.941 12.5643H133.565Z" fill="#009BDB"/>
<path d="M134.138 16.1338L137.694 20.3142H133.313L129.776 16.1338H134.138Z" fill="#A6CE39"/>
<path d="M134.143 9H129.776V16.1337H134.143V9Z" fill="#0B3F7E"/>
<path d="M131.953 21.8538H127.586L129.774 16.1338H134.137L131.953 21.8538Z" fill="#009BDB"/>
<path d="M129.776 16.1338L125.325 20.3142H129.696L134.138 16.1338H129.776Z" fill="#0B3F7E"/>
<path d="M134.135 16.134L130.328 11.6643H125.928L129.772 16.134H134.135Z" fill="#A6CE39"/>
<path d="M88.0987 11.5057C86.6678 11.5636 85.2531 11.8308 83.8997 12.2989L82.5 20.3144H85.0241L86.1252 13.9878C86.6103 13.8222 87.1196 13.7386 87.6322 13.7406C88.43 13.7406 88.8872 14.1278 88.8872 14.7997C88.8885 14.9562 88.8744 15.1124 88.8452 15.2662L87.9681 20.3051H90.4922L91.3787 15.2009C91.4392 14.8306 91.472 14.4563 91.4767 14.0812C91.486 12.3036 90.4316 11.5057 88.0987 11.5057Z" fill="#0B3F7E"/>
<path d="M103.849 18.3735C103.46 18.3591 103.077 18.2738 102.72 18.1216L103.443 14.0205C103.817 13.8465 104.224 13.7527 104.637 13.7452C105.818 13.7452 106.419 14.3891 106.284 15.6115C106.107 17.2678 105.51 18.4109 103.849 18.3642M104.716 11.5057C103.511 11.527 102.322 11.7854 101.217 12.2662L99.1831 23.8603H101.712L102.374 20.1605C102.89 20.3157 103.423 20.4066 103.961 20.4311C107.124 20.4964 108.71 18.5928 108.794 15.5135C108.864 12.9941 107.451 11.5057 104.716 11.5057Z" fill="#0B3F7E"/>
<path d="M124.113 17.5473C124.113 16.213 123.361 15.4711 121.43 14.9113C120.926 14.7713 120.497 14.622 120.497 14.1554C120.497 13.9035 120.632 13.4883 121.537 13.4883C122.443 13.4968 123.313 13.8428 123.977 14.4587L124.369 12.3358C123.544 11.752 122.547 11.4598 121.537 11.5054C119.825 11.5054 117.991 12.2659 117.991 14.4307C117.991 15.9937 118.999 16.5816 120.515 16.9828C121.252 17.1834 121.584 17.3421 121.584 17.7806C121.584 18.2192 121.187 18.5271 120.501 18.5271C119.445 18.4833 118.438 18.0705 117.655 17.3607L117.273 19.5069C118.213 20.2082 119.367 20.5627 120.539 20.51C122.787 20.51 124.131 19.3996 124.131 17.5473" fill="#0B3F7E"/>
<path d="M96.4355 18.6628C96.1413 18.7455 95.8356 18.7801 95.5304 18.7654C95.3754 18.7798 95.2191 18.7615 95.0716 18.7116C94.9242 18.6617 94.7888 18.5813 94.6745 18.4757C94.5601 18.3701 94.4692 18.2417 94.4076 18.0987C94.3461 17.9557 94.3153 17.8014 94.3173 17.6457C94.3173 17.1325 94.6299 16.4653 96.0296 16.4653H96.8601L96.4355 18.6628ZM99.2022 12.4762C98.6377 11.837 97.4759 11.5057 95.9829 11.5057C94.9762 11.5483 93.9798 11.7256 93.0203 12.033L92.703 14.0345C93.5205 13.7956 94.3627 13.6515 95.2131 13.6053C95.8896 13.6053 96.6548 13.6053 96.986 13.9878C97.0562 14.0715 97.1064 14.1699 97.1331 14.2758C97.1598 14.3816 97.1621 14.4922 97.14 14.599C97.14 14.697 97.0887 14.991 97.0887 14.991H96.0296C94.112 14.991 91.8305 15.5462 91.8305 17.8183C91.8305 20.0018 94.1353 20.5057 95.563 20.5057C96.627 20.4963 97.686 20.3584 98.717 20.0951L99.6128 14.963C99.6968 14.4544 99.9114 13.2367 99.2349 12.4622" fill="#0B3F7E"/>
<path d="M113.834 18.6628C113.541 18.7457 113.237 18.7804 112.933 18.7654C112.778 18.7798 112.622 18.7614 112.474 18.7116C112.326 18.6617 112.191 18.5814 112.076 18.4759C111.961 18.3704 111.87 18.242 111.808 18.099C111.746 17.956 111.714 17.8016 111.716 17.6457C111.716 17.1325 112.01 16.442 113.409 16.442H114.226L113.834 18.6628ZM116.601 12.4762C116.041 11.837 114.879 11.5057 113.386 11.5057C112.379 11.5483 111.383 11.7256 110.423 12.033L110.101 14.0345C110.921 13.7961 111.764 13.6521 112.616 13.6053C113.293 13.6053 114.058 13.6053 114.389 13.9878C114.457 14.0726 114.506 14.1711 114.533 14.2766C114.559 14.3821 114.563 14.4921 114.543 14.599C114.543 14.697 114.492 14.991 114.492 14.991H113.428C111.51 14.991 109.229 15.5462 109.229 17.8183C109.229 20.0018 111.534 20.5057 112.961 20.5057C114.017 20.4959 115.068 20.3596 116.092 20.0998L116.983 14.9676C117.072 14.4591 117.286 13.2413 116.605 12.4669" fill="#0B3F7E"/>
<g clip-path="url(#clip1_9282_82651)">
<path d="M137.668 13.8994C137.667 13.9759 137.681 14.052 137.71 14.1229C137.738 14.1939 137.781 14.2582 137.836 14.3121C137.889 14.3683 137.954 14.4126 138.026 14.4421C138.098 14.4717 138.175 14.4859 138.253 14.4837C138.33 14.485 138.405 14.4708 138.476 14.4422C138.547 14.4135 138.611 14.3708 138.665 14.3168C138.721 14.2627 138.765 14.1977 138.794 14.1259C138.824 14.0541 138.838 13.9769 138.836 13.8994C138.836 13.7492 138.778 13.6048 138.675 13.4959C138.622 13.4365 138.556 13.3894 138.483 13.3581C138.41 13.3268 138.331 13.3119 138.252 13.3145C138.175 13.3132 138.099 13.3277 138.028 13.3571C137.957 13.3866 137.892 13.4303 137.839 13.4857C137.784 13.5393 137.74 13.6037 137.711 13.6748C137.681 13.746 137.667 13.8224 137.668 13.8994ZM138.252 14.5987C138.159 14.601 138.067 14.5841 137.982 14.5494C137.896 14.5146 137.819 14.4626 137.754 14.3965C137.689 14.3316 137.637 14.2541 137.602 14.1686C137.568 14.0832 137.551 13.9916 137.552 13.8994C137.55 13.8068 137.567 13.7147 137.601 13.6288C137.636 13.5428 137.687 13.4647 137.753 13.3992C137.818 13.3337 137.896 13.2822 137.982 13.2478C138.068 13.2134 138.16 13.1968 138.253 13.1991C138.346 13.1968 138.438 13.2139 138.524 13.2494C138.61 13.2849 138.687 13.3378 138.751 13.405C138.816 13.4696 138.868 13.5467 138.902 13.6317C138.937 13.7166 138.954 13.8077 138.952 13.8994C138.954 13.9911 138.937 14.0822 138.902 14.1673C138.868 14.2523 138.816 14.3295 138.751 14.3942C138.687 14.461 138.609 14.5137 138.523 14.5489C138.437 14.5842 138.345 14.6011 138.252 14.5987Z" fill="#0B3F7E"/>
<path d="M138.277 13.8667C138.315 13.8693 138.354 13.8592 138.386 13.8379C138.401 13.8256 138.412 13.8099 138.419 13.7922C138.426 13.7744 138.429 13.7553 138.427 13.7364C138.429 13.7146 138.425 13.6927 138.415 13.6733C138.405 13.6539 138.389 13.6379 138.37 13.6274C138.345 13.6158 138.318 13.6104 138.29 13.6116H138.051V13.8667H138.277ZM137.948 13.5235H138.288C138.336 13.522 138.383 13.5305 138.427 13.5485C138.461 13.5637 138.489 13.5889 138.507 13.6206C138.526 13.6524 138.534 13.6891 138.531 13.7257C138.532 13.7645 138.523 13.8029 138.503 13.8365C138.483 13.866 138.456 13.8897 138.424 13.9052C138.45 13.9142 138.473 13.9303 138.491 13.9516C138.509 13.98 138.518 14.0131 138.517 14.0466L138.519 14.1477C138.519 14.1692 138.521 14.1907 138.526 14.2117C138.527 14.2215 138.531 14.2309 138.537 14.2389C138.543 14.247 138.55 14.2536 138.559 14.2581V14.2734H138.433C138.429 14.2657 138.427 14.2576 138.425 14.2493C138.422 14.2296 138.42 14.2098 138.419 14.1899L138.414 14.0638C138.415 14.0439 138.41 14.0242 138.401 14.0067C138.391 13.9892 138.377 13.9746 138.36 13.9645C138.332 13.9542 138.302 13.9498 138.272 13.9516H138.051V14.2734H137.948V13.5235Z" fill="#0B3F7E"/>
</g>
<defs>
<clipPath id="clip0_9282_82651">
<rect width="56.3385" height="15" fill="white" transform="translate(9.5 8)"/>
</clipPath>
<clipPath id="clip1_9282_82651">
<rect width="1.39969" height="1.39969" fill="white" transform="translate(137.552 13.199)"/>
</clipPath>
</defs>
</svg>
