<svg width="25" height="24" viewBox="0 0 25 24" fill="none" xmlns="http://www.w3.org/2000/svg">
<path fill-rule="evenodd" clip-rule="evenodd" d="M5.83333 11.75C5.83333 11.3358 6.16911 11 6.58333 11L19.0833 11C19.4975 11 19.8333 11.3358 19.8333 11.75C19.8333 12.1642 19.4975 12.5 19.0833 12.5L6.58333 12.5C6.16911 12.5 5.83333 12.1642 5.83333 11.75Z" fill="color1"/>
<path fill-rule="evenodd" clip-rule="evenodd" d="M12.8333 5C13.2475 5 13.5833 5.33579 13.5833 5.75V18.25C13.5833 18.6642 13.2475 19 12.8333 19C12.4191 19 12.0833 18.6642 12.0833 18.25V5.75C12.0833 5.33579 12.4191 5 12.8333 5Z" fill="color1"/>
</svg>
