<svg width="25" height="24" viewBox="0 0 25 24" fill="none" xmlns="http://www.w3.org/2000/svg">
<path fill-rule="evenodd" clip-rule="evenodd" d="M19.7609 8.73772C21.2632 7.20155 21.9403 5.45032 19.6022 3.30993C17.2746 1.19001 15.5078 1.93762 14.0055 3.47378L5.31946 12.3733C4.99148 12.7113 4.67409 13.3769 4.61061 13.8378L4.21916 17.1559C4.08162 18.3541 4.97032 19.1734 6.19758 18.9686L9.60428 18.4053C10.0804 18.3234 10.7469 17.9855 11.0749 17.6373L19.7609 8.73772ZM9.33872 16.9278C9.34963 16.9257 9.3888 16.9168 9.45394 16.8933C9.52064 16.8692 9.59665 16.8362 9.67381 16.7962C9.75117 16.7562 9.81878 16.7148 9.87138 16.6777C9.92149 16.6423 9.94247 16.6219 9.94247 16.6219L9.94175 16.6226L9.96038 16.6032L18.6475 7.70258C19.3143 7.0207 19.5601 6.51853 19.5871 6.14506C19.6082 5.85178 19.5166 5.28955 18.5505 4.40472C17.5928 3.53292 17.0045 3.46972 16.6881 3.50888C16.2928 3.55781 15.784 3.82904 15.1195 4.50828L6.43696 13.4043C6.43467 13.4068 6.41179 13.4325 6.37515 13.4884C6.33764 13.5455 6.29691 13.6171 6.25834 13.6972C6.21981 13.7772 6.18857 13.8549 6.16628 13.9223C6.15532 13.9555 6.14757 13.983 6.14237 14.0042C6.13981 14.0147 6.13806 14.0229 6.13692 14.0288L6.1363 14.032L5.74807 17.3228L5.74788 17.3245C5.73729 17.4186 5.74875 17.472 5.75512 17.4928C5.7772 17.4981 5.83566 17.5072 5.93801 17.4901L5.94036 17.4897L9.33872 16.9278Z" fill="url(#paint0_linear_536_34405)"/>
<path fill-rule="evenodd" clip-rule="evenodd" d="M2.66666 21.25C2.66666 20.8358 3.01105 20.5 3.43589 20.5H21.8974C22.3223 20.5 22.6667 20.8358 22.6667 21.25C22.6667 21.6642 22.3223 22 21.8974 22H3.43589C3.01105 22 2.66666 21.6642 2.66666 21.25Z" fill="url(#paint1_linear_536_34405)"/>
<path fill-rule="evenodd" clip-rule="evenodd" d="M14.0287 5.62573C14.7365 7.12781 15.9434 8.31049 17.413 8.96727L16.303 10.1045C14.8781 9.35552 13.6968 8.19741 12.903 6.77909L14.0287 5.62573Z" fill="url(#paint2_linear_536_34405)"/>
<defs>
<linearGradient id="paint0_linear_536_34405" x1="2.80421" y1="13" x2="22.6667" y2="13" gradientUnits="userSpaceOnUse">
<stop stop-color="color1"/>
<stop offset="1" stop-color="color2"/>
</linearGradient>
<linearGradient id="paint1_linear_536_34405" x1="2.80421" y1="13" x2="22.6667" y2="13" gradientUnits="userSpaceOnUse">
<stop stop-color="color1"/>
<stop offset="1" stop-color="color2"/>
</linearGradient>
<linearGradient id="paint2_linear_536_34405" x1="2.80421" y1="13" x2="22.6667" y2="13" gradientUnits="userSpaceOnUse">
<stop stop-color="color1"/>
<stop offset="1" stop-color="color2"/>
</linearGradient>
</defs>
</svg>
