<svg width="207" height="188" viewBox="0 0 207 188" fill="none" xmlns="http://www.w3.org/2000/svg">
<path d="M100.576 181.988C147.021 181.988 184.769 144.24 184.769 97.7954C184.769 51.3504 147.021 13.603 100.576 13.603C54.1315 13.7769 16.384 51.3504 16.384 97.9694C16.384 144.414 54.1315 181.988 100.576 181.988Z" fill="#F1F3F9"/>
<path fill-rule="evenodd" clip-rule="evenodd" d="M100.573 12.5812L100.576 12.5812C147.586 12.5812 185.791 50.7861 185.791 97.7954C185.791 144.805 147.586 183.01 100.576 183.01C53.5699 183.01 15.3623 144.981 15.3623 97.9693C15.3623 50.784 53.5685 12.7573 100.573 12.5812ZM100.578 14.6247C54.6934 14.7975 17.4058 51.9174 17.4058 97.9693C17.4058 143.847 54.693 180.966 100.576 180.966C146.457 180.966 183.747 143.676 183.747 97.7954C183.747 51.9153 146.458 14.6257 100.578 14.6247Z" fill="#DCDEE9"/>
<path d="M155.893 84.227V146.675C155.893 150.502 152.762 153.634 148.935 153.634H49.9563C46.1294 153.634 42.9983 150.502 42.9983 146.675V84.227C42.9983 80.4 46.3034 77.2689 49.9563 77.2689H148.935C151.892 77.2689 154.327 79.0084 155.545 81.6177C155.719 82.3135 155.893 83.1833 155.893 84.227Z" fill="#F1F3F9"/>
<path fill-rule="evenodd" clip-rule="evenodd" d="M49.9568 78.2906C46.8516 78.2906 44.0205 80.9807 44.0205 84.227V146.675C44.0205 149.938 46.6942 152.612 49.9568 152.612H148.935C152.198 152.612 154.871 149.938 154.871 146.675V84.227C154.871 83.3446 154.732 82.596 154.578 81.9625C153.498 79.725 151.423 78.2906 148.935 78.2906H49.9568ZM41.9771 84.227C41.9771 79.8194 45.7561 76.2472 49.9568 76.2472H148.935C152.329 76.2472 155.103 78.2545 156.471 81.1856L156.513 81.2746L156.536 81.3699C156.721 82.1078 156.915 83.0674 156.915 84.227V146.675C156.915 151.067 153.326 154.655 148.935 154.655H49.9568C45.5656 154.655 41.9771 151.067 41.9771 146.675V84.227Z" fill="#DCDEE9"/>
<path d="M204.773 76.9211C207.557 74.3119 207.731 69.9631 205.295 67.1799C202.686 64.3966 198.337 64.2227 195.554 66.658C192.771 69.2673 192.597 73.6161 195.032 76.3993C197.641 79.3565 201.99 79.5304 204.773 76.9211Z" fill="#F1F3F9"/>
<path d="M205.295 46.4797C206.513 45.436 206.513 43.5225 205.469 42.4788C204.425 41.2612 202.512 41.2612 201.468 42.3049C200.424 43.3486 200.251 45.262 201.294 46.3057C202.338 47.5234 204.077 47.5234 205.295 46.4797Z" fill="#F1F3F9"/>
<path d="M132.584 4.38415C133.454 3.68819 133.454 2.29627 132.758 1.60031C132.062 0.730364 130.845 0.730364 129.975 1.42632C129.105 2.12228 129.105 3.34021 129.801 4.21016C130.497 5.08011 131.715 5.08011 132.584 4.38415Z" fill="#F1F3F9"/>
<path d="M191.727 44.2183L167.026 88.054C166.156 89.4456 164.243 89.9675 162.851 89.0977L120.755 64.5706C119.363 63.7008 118.842 61.7874 119.711 60.3958L152.24 4.55739C153.11 3.16578 155.023 2.64393 156.415 3.51368L187.031 21.4307L191.727 44.2183Z" fill="white"/>
<path fill-rule="evenodd" clip-rule="evenodd" d="M153.114 5.08679L120.586 60.9238L120.578 60.9373C120.034 61.8066 120.339 63.0969 121.284 63.6966L163.379 88.2229L163.393 88.2313C164.26 88.7735 165.547 88.4706 166.148 87.5301L190.649 44.0499L186.121 22.0826L155.886 4.38799L155.873 4.38011C155.004 3.83683 153.714 4.14202 153.114 5.08679ZM156.943 2.63877C155.034 1.45683 152.514 2.19127 151.374 4.01588L151.365 4.02935L118.836 59.8688C117.654 61.7773 118.389 64.2968 120.213 65.437L120.227 65.4454L162.324 89.9731C164.233 91.1544 166.752 90.4199 167.892 88.5955L167.905 88.5759L192.805 44.3867L187.939 20.7787L156.943 2.63877Z" fill="#DCDEE9"/>
<path d="M186.683 21.2568L179.725 33.0854C178.855 34.825 179.377 36.9124 180.942 37.9561L191.553 44.0444" fill="#DCDEE9"/>
<path fill-rule="evenodd" clip-rule="evenodd" d="M159.719 32.5637C159.197 32.5637 158.501 32.5637 157.806 32.7376L157.632 35.6948C157.632 36.0427 157.979 36.5645 158.327 36.7385C158.501 36.9124 158.849 36.9124 159.023 36.9124H160.241C160.763 36.9124 161.285 36.9124 161.806 37.0864C162.502 37.2603 163.198 37.6082 163.72 37.9562C164.242 38.3041 164.59 38.652 164.938 38.9999C165.285 39.3478 165.459 39.6957 165.633 40.2175C165.807 40.5654 165.807 40.9133 165.807 41.4352C165.633 41.957 165.459 42.4789 165.285 42.8268C164.938 43.5226 164.59 44.0444 163.894 44.3924C163.198 44.7403 162.676 44.9142 161.98 45.0882L161.98 45.0882C161.285 45.2621 160.589 45.4361 159.893 45.4361C159.545 45.523 159.241 45.5665 158.936 45.61C158.632 45.6535 158.327 45.697 157.979 45.784C157.458 45.9579 156.936 46.1319 156.414 46.4798C156.066 46.8277 155.544 47.3495 155.37 47.8714L153.979 51.1765L157.284 52.916L159.197 50.3067C159.545 49.9588 159.893 49.7848 160.415 49.6109C160.56 49.5746 160.698 49.5383 160.829 49.5036C161.328 49.3719 161.741 49.263 162.154 49.263L164.068 49.089C164.764 49.089 165.459 48.9151 166.155 48.5672C167.025 48.2193 167.547 47.8714 168.243 47.3495C168.938 46.6537 169.46 45.9579 169.982 45.0882C170.504 44.0444 170.852 43.0007 171.026 41.957C171.026 40.9133 171.026 39.8696 170.678 38.9999C170.33 37.7822 169.808 36.9124 169.112 36.2166C168.243 35.3469 167.373 34.6511 166.329 34.1292C165.633 33.7813 164.938 33.4334 164.068 33.0855C163.72 32.9985 163.328 32.9116 162.937 32.8246C162.546 32.7376 162.154 32.6506 161.806 32.5637H159.719ZM149.109 56.2211C148.761 56.569 148.413 56.9169 148.239 57.2648C148.065 57.6127 147.891 57.9606 147.891 58.6564C147.717 59.0043 147.717 59.5262 147.891 59.8741C147.891 60.106 148.046 60.3379 148.2 60.5699C148.278 60.6858 148.355 60.8018 148.413 60.9178C148.761 61.2657 149.109 61.6136 149.457 61.7875C150.327 62.1354 151.196 62.3094 152.066 62.1354C153.806 61.6136 154.849 59.7001 154.327 57.9606L153.806 56.9169C153.458 56.569 153.11 56.2211 152.762 56.0471C151.892 55.5253 151.022 55.5253 150.153 55.6992C149.921 55.6992 149.689 55.8539 149.457 56.0085C149.341 56.0858 149.225 56.1631 149.109 56.2211Z" fill="#DCDEE9"/>
<path d="M41.8365 56.5222L70.1906 85.92C71.0604 86.9637 71.0604 88.5292 70.0167 89.5729L41.1407 116.709C40.097 117.579 38.5315 117.579 37.4878 116.535L1.65379 78.44C0.78403 77.3963 0.78403 75.8308 1.82774 74.7871L22.7019 55.1306L41.8365 56.5222Z" fill="white"/>
<path fill-rule="evenodd" clip-rule="evenodd" d="M22.3282 54.0789L42.3005 55.5314L70.9517 85.2373L70.9754 85.2658C72.1692 86.6983 72.172 88.8624 70.739 90.2953L70.7278 90.3066L41.8181 117.475L41.7947 117.494C40.3622 118.688 38.1981 118.691 36.7652 117.258L36.7541 117.247L0.888427 79.1177L0.868772 79.0941C-0.325008 77.6616 -0.327769 75.4975 1.10517 74.0645L1.11602 74.0537L22.3282 54.0789ZM23.0754 56.1821L2.54048 75.5192C1.90251 76.1665 1.89563 77.1137 2.42136 77.7649L38.22 115.823C38.8674 116.461 39.8146 116.467 40.4657 115.941L69.3041 88.8403C69.9403 88.1944 69.9484 87.2503 69.4264 86.5994L41.3724 57.5128L23.0754 56.1821Z" fill="#DCDEE9"/>
<path d="M22.7009 54.9565L30.5287 63.1323C31.5724 64.176 33.4859 64.176 34.7036 63.1323L41.8356 56.3482" fill="#DCDEE9"/>
<path fill-rule="evenodd" clip-rule="evenodd" d="M25.1375 78.6141C24.9635 79.1359 24.7896 79.6578 24.7896 80.1796L26.703 80.5275C27.0509 80.7015 27.5728 80.7015 27.7467 80.3536C27.9207 80.1796 28.0946 80.0057 28.0946 79.8317C28.0946 79.6578 28.0946 79.3099 28.2686 78.962C28.4425 78.4401 28.6165 78.0922 28.7904 77.7443C28.9644 77.5703 29.1383 77.3529 29.3123 77.1355C29.4862 76.918 29.6602 76.7006 29.8341 76.5266C30.182 76.1787 30.5299 76.0048 30.8778 75.8308C31.2257 75.6569 31.5737 75.4829 31.9216 75.4829C32.2695 75.4829 32.6174 75.4829 32.9653 75.6569C33.3132 75.8308 33.6611 76.0048 33.835 76.3527C34.1829 76.8745 34.5308 77.3964 34.7048 77.9183C34.8787 78.4401 34.8787 78.962 34.8787 79.4838C34.8787 80.0057 34.8787 80.5275 34.7048 81.0494C34.7048 81.3103 34.6613 81.5712 34.6178 81.8322C34.5743 82.0931 34.5308 82.354 34.5308 82.6149C34.5308 83.1368 34.5308 83.4847 34.7048 84.0065C34.8787 84.5284 35.2266 84.8763 35.5745 85.2242L37.6619 87.1377L39.7494 85.2242L38.3578 83.1368C38.0099 82.7889 38.0099 82.441 38.0099 82.0931C38.0099 81.8322 38.0533 81.6147 38.0968 81.3973C38.1403 81.1798 38.1838 80.9624 38.1838 80.7015C38.2708 80.4405 38.3143 80.1796 38.3578 79.9187C38.4012 79.6578 38.4447 79.3968 38.5317 79.1359V77.3964C38.3578 76.7006 38.1838 76.0048 38.0099 75.4829C37.8359 74.7871 37.314 74.0913 36.7922 73.5695C36.0964 73.0476 35.4006 72.5258 34.7048 72.1779C34.009 72.0039 33.1392 71.83 32.4434 71.83C31.7476 71.83 30.8778 72.0039 30.182 72.3518C29.3123 72.6997 28.6165 73.2216 27.9207 73.9174L27.9207 73.9174C27.3988 74.4392 26.877 74.9611 26.5291 75.4829C26.1812 76.0048 25.8333 76.5266 25.6593 77.0485L25.1375 78.6141ZM41.3148 92.3562C41.4887 92.7041 41.6627 93.052 41.8366 93.2259C42.0106 93.5738 42.3585 93.7478 43.0543 93.9217C43.5761 94.0957 44.2719 94.0957 44.9677 93.9217C45.3156 93.9217 45.6636 93.5738 45.8375 93.3999C46.1854 93.052 46.3594 92.878 46.5333 92.5301C46.5333 92.3562 46.5768 92.1822 46.6203 92.0083C46.6638 91.8343 46.7073 91.6604 46.7073 91.4864C46.7073 91.1385 46.7073 90.7906 46.5333 90.4427C46.0115 89.399 44.9677 88.7032 43.924 88.7032C43.5761 88.7032 43.2282 88.7032 42.8803 88.8771C42.5324 89.0511 42.1845 89.225 42.0106 89.399C41.4887 89.9208 41.1408 90.6167 41.1408 91.3125C41.1408 91.6604 41.1408 92.0083 41.3148 92.3562Z" fill="#DCDEE9"/>
<path opacity="0.1" d="M155.893 84.2271V146.676C155.893 150.503 152.762 153.634 148.935 153.634H49.9563C46.1294 153.634 42.9983 150.503 42.9983 146.676V98.4911H83.5289C87.5298 98.4911 91.5307 97.0995 94.4879 94.4902L105.447 85.4447C108.578 83.0094 112.405 81.4438 116.406 81.4438H155.371C155.719 82.3136 155.893 83.1834 155.893 84.2271Z" fill="#DCDEE9"/>
<path d="M196.076 138.326L160.242 157.808C159.024 158.504 157.459 157.982 156.937 156.765L138.846 121.801C138.324 120.583 138.672 119.017 139.89 118.495L186.509 93.7944C187.726 93.0986 189.292 93.6205 189.814 94.8381L202.86 120.235L196.076 138.326Z" fill="white"/>
<path fill-rule="evenodd" clip-rule="evenodd" d="M188.875 95.2405C188.604 94.6071 187.726 94.2759 187.016 94.6815L187.002 94.6896L140.331 119.418L140.293 119.435C139.771 119.658 139.413 120.49 139.773 121.367L157.862 156.328L157.876 156.362C158.148 156.996 159.026 157.327 159.735 156.921L159.745 156.916L195.254 137.61L201.745 120.3L188.889 95.2733L188.875 95.2405ZM190.738 94.3999C189.954 92.6297 187.73 91.932 186.018 92.8985L139.445 117.575C137.575 118.408 137.249 120.668 137.907 122.203L137.922 122.237L156.014 157.204C156.8 158.975 159.027 159.672 160.739 158.701L196.899 139.041L203.976 120.17L190.738 94.3999Z" fill="#DCDEE9"/>
<path d="M202.859 120.409L192.77 125.627C191.553 126.323 190.857 128.237 191.553 129.628L196.075 138.5" fill="#DCDEE9"/>
<path fill-rule="evenodd" clip-rule="evenodd" d="M178.768 116.06C178.507 115.93 178.246 115.799 177.985 115.712L177.116 117.974C176.942 118.322 176.942 118.843 177.116 119.017C177.231 119.249 177.347 119.327 177.463 119.404C177.521 119.443 177.579 119.481 177.637 119.539C177.637 119.644 177.825 119.748 178.013 119.852C178.138 119.922 178.264 119.991 178.333 120.061C178.681 120.061 179.203 120.583 179.377 120.757C179.545 121.093 179.754 121.348 179.944 121.581C180.148 121.83 180.331 122.053 180.421 122.322C180.639 122.65 180.72 122.909 180.794 123.143C180.837 123.281 180.878 123.411 180.942 123.54C180.942 123.729 180.965 123.896 180.986 124.047C181.023 124.314 181.053 124.536 180.942 124.758C180.768 125.454 180.247 126.149 179.551 126.497C179.029 126.845 178.333 127.019 177.811 127.019C177.289 127.019 176.768 126.845 176.246 126.671C175.985 126.584 175.724 126.454 175.463 126.323C175.202 126.193 174.941 126.062 174.68 125.975C174.575 125.923 174.454 125.854 174.321 125.779C174.016 125.607 173.652 125.401 173.289 125.28C172.767 124.932 172.245 124.932 171.723 124.932C171.201 124.932 170.679 124.932 170.331 125.28L167.896 126.845L169.288 129.454L171.723 128.585C172.071 128.237 172.593 128.237 172.941 128.411C173.115 128.498 173.332 128.585 173.55 128.672C173.767 128.759 173.984 128.846 174.158 128.933L175.724 129.628L175.724 129.628C176.246 129.802 176.768 129.976 177.463 130.15C178.159 130.324 178.855 130.324 179.551 130.15C180.421 130.15 181.116 129.802 181.812 129.454C181.874 129.413 181.94 129.37 182.01 129.324C182.535 128.981 183.265 128.503 183.726 127.889C183.92 127.598 184.059 127.199 184.206 126.782C184.322 126.451 184.441 126.109 184.595 125.801C184.595 125.512 184.615 125.222 184.634 124.932C184.673 124.352 184.711 123.772 184.595 123.192C184.582 123.126 184.569 123.059 184.556 122.991C184.393 122.166 184.208 121.226 183.726 120.583C183.63 120.439 183.534 120.283 183.435 120.12C183.173 119.692 182.886 119.222 182.508 118.843L181.116 117.452C180.595 116.93 180.073 116.582 179.551 116.408C179.29 116.321 179.029 116.191 178.768 116.06ZM161.808 128.411C161.46 128.237 161.112 128.411 160.764 128.585C160.59 128.759 160.242 128.933 159.894 129.107C159.894 129.281 159.721 129.628 159.547 129.976C159.547 130.092 159.527 130.208 159.508 130.324C159.469 130.556 159.431 130.788 159.547 131.02V132.238C159.894 132.76 160.416 133.108 161.112 133.455H162.156C162.504 133.455 162.852 133.455 163.2 133.281C163.721 132.934 164.417 132.412 164.591 131.716V130.672C164.591 130.324 164.591 129.976 164.417 129.628C164.069 129.107 163.547 128.759 162.852 128.411C162.736 128.411 162.62 128.391 162.504 128.372C162.272 128.334 162.04 128.295 161.808 128.411Z" fill="#DCDEE9"/>
<path fill-rule="evenodd" clip-rule="evenodd" d="M41.7816 113.31C42.628 113.31 43.3142 113.996 43.3142 114.843V148.067C43.3142 151.072 45.7833 153.667 48.9136 153.667H150.675C153.68 153.667 156.275 151.197 156.275 148.067V117.278C156.275 116.431 156.961 115.745 157.807 115.745C158.654 115.745 159.34 116.431 159.34 117.278V148.067C159.34 152.939 155.324 156.732 150.675 156.732H48.9136C44.0421 156.732 40.249 152.716 40.249 148.067V114.843C40.249 113.996 40.9352 113.31 41.7816 113.31Z" fill="#DCDEE9"/>
<path d="M153.806 97.6214H119.015C115.71 97.6214 112.405 98.839 109.796 100.926L100.576 108.406C97.9671 110.494 94.6621 111.711 91.357 111.711H51.6961C47.6952 111.711 44.3901 114.843 44.3901 118.843C44.3901 119.191 44.3901 119.539 44.5641 119.887L51.6961 157.982C52.2179 161.635 55.3491 164.245 59.002 164.245H143.542C147.195 164.245 150.153 161.635 150.848 158.156L160.938 105.971C161.459 102.144 159.024 98.3172 154.849 97.7953C154.501 97.6214 154.153 97.6214 153.806 97.6214Z" fill="white"/>
<path d="M134.145 107.526L66.4974 123.58C63.6138 124.264 60.725 122.485 60.0381 119.591L38.019 26.8093C37.3358 23.9302 39.1171 21.0425 42.0007 20.3582L109.648 4.30401C112.533 3.6193 115.422 5.39869 116.105 8.27775L138.124 101.059C138.811 103.953 137.03 106.841 134.145 107.526Z" fill="#F1F3F9"/>
<path fill-rule="evenodd" clip-rule="evenodd" d="M42.4454 19.5172C40.1099 20.0714 38.6692 22.4092 39.222 24.7383L61.241 117.52C61.7978 119.866 64.1367 121.305 66.4703 120.751L134.118 104.697C136.453 104.142 137.896 101.806 137.339 99.4601L115.32 6.67856C114.767 4.34967 112.43 2.90833 110.093 3.46301L42.4454 19.5172ZM37.2337 25.2101C36.4199 21.7811 38.5418 18.3434 41.9735 17.5289L109.621 1.47477C113.054 0.660041 116.494 2.77749 117.308 6.20672L139.327 98.9882C140.144 102.431 138.024 105.87 134.589 106.685L66.9422 122.739C63.5086 123.554 60.0697 121.434 59.2528 117.992L37.2337 25.2101Z" fill="#DCDEE9"/>
<path d="M103.379 86.5988L85.7974 90.7714C83.8411 91.2357 81.8831 90.0197 81.4192 88.065C80.9553 86.1102 82.1618 84.1592 84.118 83.695L101.7 79.5224C103.658 79.0578 105.611 80.259 106.075 82.2137C106.538 84.1684 105.337 86.1342 103.379 86.5988Z" fill="#DCDEE9"/>
<path d="M113.266 92.3357L79.5099 100.347C78.481 100.591 77.4625 99.9684 77.218 98.938C76.9734 97.9076 77.6 96.8785 78.6288 96.6344L112.385 88.6233C113.414 88.3791 114.436 89.0169 114.681 90.0473C114.914 91.0322 114.295 92.0916 113.266 92.3357Z" fill="#DCDEE9"/>
<path d="M107.83 42.521C109.477 49.4611 107.895 56.3991 104.057 61.7758C100.843 66.268 96.0284 69.6675 90.2248 71.0448C84.4212 72.4222 78.5924 71.5485 73.6903 68.9344C67.8493 65.8709 63.3149 60.3683 61.6715 53.4434C58.6471 40.6998 66.5304 27.9126 79.271 24.889C92.0101 21.8657 104.806 29.7774 107.83 42.521Z" fill="#DCDEE9"/>
<path d="M103.898 59.8949C100.684 64.3871 95.8698 67.7866 90.0662 69.1639C84.2626 70.5413 78.4339 69.6676 73.5318 67.0535C75.0606 66.0024 77.0564 64.6324 79.722 62.7193C80.3437 62.2836 80.7367 61.6462 80.8911 60.9212C80.974 60.5014 80.9523 60.1064 80.8552 59.6973L79.5426 54.1664C79.4144 54.0848 79.3138 53.9646 79.2225 53.8903C78.5696 53.2769 78.0663 52.532 77.7583 51.6927L77.2204 51.5643C75.8954 52.2469 75.6388 50.7071 74.5659 47.8725C74.1455 46.7078 74.2591 46.4247 74.7624 46.0972L75.0605 45.3702C70.8461 39.8398 71.2998 35.6345 73.685 33.6118C72.3285 31.8689 72.0862 31.1581 72.0862 31.1581C72.0862 31.1581 78.0866 30.7585 79.953 29.9154C82.3385 28.8051 86.3651 28.5057 88.5988 31.497C91.2214 31.851 92.5156 33.1765 93.1029 34.7338C93.6686 36.2002 93.615 37.9576 93.4701 39.3365C93.4568 39.4357 93.4415 39.5194 93.421 39.5883C93.4318 39.6337 93.4041 39.6723 93.4113 39.7026C93.3863 39.9006 93.3838 40.0453 93.348 40.1979C93.3275 40.2667 93.3455 40.3425 93.3265 40.411C93.3241 40.5557 93.2882 40.7082 93.2786 40.8226C93.2893 40.868 93.2893 40.868 93.2617 40.9066C93.2535 41.0206 93.2402 41.1198 93.2306 41.2341C93.2296 41.3784 93.2199 41.4928 93.2102 41.6071C93.2523 41.6291 93.2703 41.7049 93.3123 41.7269C93.7292 41.8041 93.9498 42.1199 94.0636 43.2133C94.3813 46.0831 94.8835 47.7406 93.3526 47.7038L92.6027 50.2027C92.6254 50.4534 92.6244 50.5977 92.6219 50.7423C92.6842 51.1597 92.8784 51.978 93.9572 56.5238C94.0866 57.0694 94.3817 57.5436 94.7602 57.9179C95.1844 58.3294 95.7285 58.6325 96.3346 58.7448C96.3346 58.7448 96.3694 58.7365 96.3766 58.7668C99.6654 59.3308 102.062 59.6425 103.898 59.8949Z" fill="white"/>
<path fill-rule="evenodd" clip-rule="evenodd" d="M70.8138 30.8502L71.2436 32.1109L72.2107 31.7812C71.2436 32.1109 71.2434 32.1104 71.2436 32.1109L71.2442 32.1127L71.2449 32.1146L71.2463 32.1186L71.2493 32.1273L71.2567 32.1475C71.2622 32.1622 71.269 32.1795 71.2771 32.1995C71.2933 32.2395 71.3152 32.2903 71.3443 32.3524C71.4023 32.4765 71.4894 32.6468 71.6182 32.8682C71.801 33.1824 72.0694 33.6022 72.4608 34.1419C71.4392 35.3431 70.8927 36.9588 71.0023 38.8576C71.1253 40.9873 72.0666 43.4386 74.0002 46.1116C73.7479 46.3366 73.5045 46.6603 73.4319 47.1417C73.3503 47.6835 73.5228 48.2704 73.7294 48.8425L73.732 48.8499L73.7348 48.8573C73.903 49.3016 74.0455 49.6989 74.1793 50.072C74.2589 50.2939 74.3354 50.5072 74.4124 50.7167C74.6072 51.2467 74.8051 51.7526 75.0302 52.1572C75.2453 52.5436 75.5795 53.0161 76.1361 53.2432C76.5064 53.3942 76.8703 53.3974 77.2048 53.3222C77.5656 54.0505 78.056 54.7024 78.6475 55.258L78.6737 55.2827L78.6981 55.3025C78.6998 55.3041 78.7049 55.3087 78.7146 55.3179L78.7467 55.3486C78.7479 55.3498 78.7492 55.351 78.7505 55.3523L79.9855 60.5563C80.0537 60.8435 80.0633 61.0871 80.0147 61.3391C79.9085 61.829 79.6512 62.2316 79.2601 62.5056L79.2507 62.5123C76.6601 64.3716 74.7047 65.7159 73.192 66.7559L71.692 67.7871L73.1754 68.5781C78.2918 71.3065 84.3749 72.2173 90.4266 70.7811C96.4778 69.345 101.501 65.799 104.854 61.1124L105.839 59.7361L104.162 59.5057C103.949 59.4764 103.728 59.4463 103.5 59.4151C101.791 59.1821 99.647 58.8898 96.8381 58.4109C96.7705 58.3859 96.7086 58.3709 96.6574 58.3617C96.6334 58.3574 96.6103 58.3541 96.5881 58.3517C96.2211 58.2716 95.8781 58.08 95.5995 57.8109C95.3387 57.5519 95.1546 57.2431 95.0758 56.911C94.0575 52.6202 93.8374 51.6884 93.7692 51.2907C93.7699 51.1905 93.7685 51.0791 93.7602 50.938L94.2711 49.2357C94.5616 49.1384 94.8361 48.9702 95.0622 48.7C95.4501 48.2366 95.5317 47.655 95.5469 47.2063C95.563 46.7341 95.5083 46.1879 95.4406 45.6306C95.4137 45.4098 95.3849 45.1877 95.3552 44.9588C95.3056 44.5762 95.2535 44.1745 95.2039 43.7272C95.1449 43.1612 95.0474 42.6388 94.8253 42.2271C94.7223 42.036 94.5864 41.8564 94.4075 41.7067C94.4086 41.7016 94.4097 41.6965 94.4107 41.6914C94.4281 41.605 94.4325 41.5267 94.4312 41.4613C94.4332 41.4483 94.4355 41.4339 94.4403 41.4014C94.4492 41.3419 94.462 41.2517 94.4686 41.1485C94.4736 41.1129 94.4766 41.0816 94.4785 41.0559C94.4803 41.0308 94.4813 41.0065 94.4819 40.9866C94.5048 40.8737 94.5165 40.7732 94.5245 40.6949C94.5285 40.6557 94.5315 40.6244 94.5342 40.5964C94.5389 40.5469 94.5426 40.5078 94.5494 40.4538L94.5518 40.4348C94.5561 40.411 94.5604 40.3824 94.5637 40.35C94.5834 40.2593 94.597 40.1721 94.6073 40.0951L94.6092 40.0808L94.6107 40.0664C94.7583 38.662 94.8388 36.6986 94.182 34.9928C93.833 34.0689 93.262 33.1859 92.3704 32.4843C91.5647 31.8503 90.5411 31.399 89.2746 31.1725C87.9768 29.6385 86.2488 28.9455 84.5601 28.7746C82.7761 28.5941 80.992 28.9871 79.6522 29.6094C79.3037 29.7659 78.6838 29.9307 77.871 30.0844C77.0781 30.2343 76.1787 30.3601 75.324 30.4613C74.4714 30.5623 73.6746 30.6376 73.0903 30.6876C72.7984 30.7125 72.5604 30.7311 72.3958 30.7435C72.3135 30.7497 72.2496 30.7543 72.2066 30.7573L72.1581 30.7607L70.8138 30.8502ZM75.5643 32.4906C74.9716 32.5608 74.4064 32.6188 73.9175 32.6649C74.1038 32.9317 74.3336 33.2448 74.6157 33.6074L75.2174 34.3805L74.4702 35.0142C73.5424 35.801 72.9441 37.0374 73.0424 38.7398C73.1422 40.4686 73.9687 42.7116 75.9976 45.374L76.3523 45.8394L75.7114 47.4028L75.472 47.5586C75.4724 47.5607 75.4728 47.5629 75.4733 47.5651C75.4996 47.6918 75.5527 47.8746 75.6488 48.1415C75.8199 48.5937 75.976 49.0286 76.1145 49.4144C76.1922 49.6308 76.2643 49.8318 76.3304 50.0118C76.5269 50.5464 76.6772 50.9143 76.8159 51.1636C76.8414 51.2095 76.8639 51.2464 76.8831 51.2759L77.2137 51.1056L78.6531 51.4493L78.8419 51.9638C79.0896 52.6388 79.4943 53.2444 80.0271 53.7502C80.0652 53.7829 80.0976 53.8133 80.1204 53.8348L80.1625 53.8751L80.1939 53.9051C80.2113 53.9215 80.2214 53.9303 80.2257 53.9339L80.5654 54.1502L81.9738 60.0844C82.0991 60.6126 82.1335 61.157 82.018 61.7421L82.0165 61.7497L82.0149 61.7572C81.8115 62.7118 81.2852 63.5798 80.4379 64.1755C78.536 65.5405 76.9737 66.63 75.68 67.5236C80.0243 69.43 84.9971 69.9694 89.9547 68.7929C94.9051 67.6181 99.1016 64.9075 102.133 61.2904C100.574 61.0746 98.6763 60.7996 96.3284 60.3969L95.6629 60.2827L95.6434 60.2006C95.0806 59.9957 94.5815 59.6704 94.1732 59.2743L94.1662 59.2675C93.6718 58.7786 93.2673 58.1402 93.0875 57.3828L92.9989 57.0096C92.007 52.8298 91.8045 51.9769 91.7358 51.5161L91.7233 51.4324L91.7248 51.3478C91.7269 51.2251 91.7279 51.1199 91.7096 50.9178L91.6918 50.7212L92.7224 47.2866L93.4921 47.3052C93.4975 47.2627 93.5023 47.2075 93.5047 47.1369C93.5147 46.8405 93.48 46.4365 93.412 45.8771C93.3891 45.6888 93.3622 45.4803 93.3333 45.2572C93.2815 44.857 93.2236 44.41 93.1725 43.9488L93.1718 43.9422C93.146 43.6942 93.1165 43.5151 93.0864 43.3865C93.0795 43.357 93.0729 43.3314 93.0667 43.3096L92.9625 43.255C92.8639 43.2033 92.7874 43.1438 92.7308 43.0919C92.7112 43.0738 92.6933 43.0561 92.6771 43.0391L92.2594 42.8201L92.3166 42.144C92.3263 42.03 92.3326 41.9509 92.3333 41.8503L92.3336 41.8106L92.3369 41.771C92.3461 41.6624 92.3511 41.6202 92.3551 41.586C92.359 41.553 92.3619 41.5275 92.367 41.4567L92.3876 41.1688L92.4145 41.1314L92.4191 41.1011C92.4234 41.0717 92.4261 41.0515 92.4278 41.0357C92.4292 41.0222 92.4294 41.0163 92.4294 41.0162L92.4317 40.8868L92.441 40.853C92.4418 40.8338 92.443 40.8118 92.4449 40.7888C92.4493 40.7357 92.4584 40.6627 92.4796 40.5787C92.4824 40.5645 92.4863 40.5392 92.4918 40.4858C92.4931 40.4732 92.4947 40.4564 92.4966 40.4365C92.5006 40.3949 92.5059 40.34 92.5122 40.2823L92.4884 40.1818L92.5655 39.9224C92.5656 39.9219 92.5658 39.9211 92.5661 39.9198C92.5667 39.9169 92.5679 39.9117 92.5693 39.904C92.5723 39.8885 92.5759 39.8669 92.58 39.8374C92.7208 38.4886 92.7453 36.9461 92.2741 35.7246L92.2713 35.7174C92.0329 35.0853 91.6635 34.5283 91.1067 34.0902C90.549 33.6513 89.7495 33.2896 88.5866 33.1326L88.1614 33.0752L87.9046 32.7314C86.9928 31.5103 85.715 30.9454 84.3544 30.8077C82.9729 30.6679 81.5536 30.9784 80.5086 31.4648L80.4981 31.4697C79.9126 31.7342 79.0843 31.9346 78.2507 32.0923C77.3936 32.2543 76.4431 32.3866 75.5643 32.4906ZM92.411 41.6906C92.4111 41.6913 92.4105 41.6888 92.4095 41.6842L92.411 41.6906Z" fill="#DCDEE9"/>
<path d="M164.528 90.6632H122.78C118.779 90.6632 114.778 92.0548 111.821 94.6641L100.862 103.536C97.7309 106.145 93.9039 107.537 89.9031 107.537H42.4144C37.7177 107.537 33.7168 111.363 33.7168 116.234C33.7168 116.582 33.7168 117.104 33.8907 117.452L42.5883 163.549C43.2841 167.898 46.9371 171.203 51.2859 171.203H152.178C156.526 171.203 160.179 168.072 160.875 163.897L172.878 100.752C173.574 96.0557 170.616 91.533 165.746 90.8372C165.398 90.6632 164.876 90.6632 164.528 90.6632Z" fill="white"/>
<path d="M119.128 138.326C121.564 138.326 123.651 136.239 123.651 133.803C123.651 131.368 121.564 129.281 119.128 129.281C116.693 129.281 114.605 131.368 114.605 133.803C114.605 136.413 116.519 138.326 119.128 138.326Z" fill="#DCDEE9"/>
<path d="M111.126 145.98H108.864C106.951 141.805 101.906 140.239 97.9053 142.327C96.3397 143.023 94.9481 144.414 94.2523 145.98H91.991C93.9044 140.587 100.167 137.804 105.385 139.891C107.821 140.935 110.082 143.023 111.126 145.98Z" fill="#DCDEE9"/>
<path fill-rule="evenodd" clip-rule="evenodd" d="M175.461 186.135C175.683 186.166 175.909 186.163 176.184 186.163C179.315 186.163 180.881 182.336 178.793 180.074L164.181 165.462C174.618 150.155 163.659 129.976 145.569 129.976C133.044 129.976 122.955 140.066 122.955 152.59C122.955 171.029 143.829 181.988 159.137 170.681C172.732 184.276 173.996 185.934 175.461 186.135ZM130.086 152.59C130.086 144.066 137.044 137.108 145.568 137.108C154.092 137.108 161.05 144.066 160.876 152.59C160.876 153.286 160.876 153.982 160.702 154.677C160.702 155.547 160.528 156.417 160.18 157.287C160.064 157.867 159.793 158.446 159.523 159.026C159.387 159.316 159.252 159.606 159.136 159.896C158.875 160.244 158.614 160.635 158.353 161.027C158.092 161.418 157.831 161.809 157.571 162.157C157.049 162.853 156.527 163.549 155.831 164.071C155.135 164.767 154.265 165.462 153.396 165.984C152.7 166.506 151.83 166.854 150.96 167.202C150.091 167.55 149.221 167.724 148.351 167.898C147.481 168.072 146.438 168.072 145.568 168.072C137.044 168.072 130.086 161.114 130.086 152.59Z" fill="#DCDEE9"/>
<path d="M175.461 186.135L175.597 185.144H175.597L175.461 186.135ZM178.793 180.074L179.528 179.396L179.514 179.381L179.5 179.367L178.793 180.074ZM164.181 165.462L163.355 164.899L162.888 165.584L163.474 166.17L164.181 165.462ZM159.137 170.681L159.844 169.974L159.235 169.365L158.543 169.877L159.137 170.681ZM160.876 152.59L159.876 152.57L159.876 152.58V152.59H160.876ZM160.702 154.677L159.732 154.435L159.702 154.554V154.677H160.702ZM160.18 157.287L159.251 156.915L159.217 157.001L159.199 157.091L160.18 157.287ZM159.523 159.026L158.617 158.603L158.617 158.603L159.523 159.026ZM159.136 159.896L159.936 160.496L160.015 160.39L160.065 160.267L159.136 159.896ZM158.353 161.027L159.185 161.581L158.353 161.027ZM157.571 162.157L158.371 162.757V162.757L157.571 162.157ZM155.831 164.071L155.231 163.271L155.174 163.313L155.124 163.364L155.831 164.071ZM153.396 165.984L152.881 165.127L152.837 165.153L152.796 165.184L153.396 165.984ZM150.96 167.202L150.589 166.273L150.589 166.273L150.96 167.202ZM176.184 185.163C175.88 185.163 175.735 185.163 175.597 185.144L175.325 187.126C175.631 187.168 175.938 187.163 176.184 187.163V185.163ZM178.058 180.753C179.587 182.408 178.396 185.163 176.184 185.163V187.163C180.234 187.163 182.175 182.263 179.528 179.396L178.058 180.753ZM163.474 166.17L178.086 180.781L179.5 179.367L164.888 164.755L163.474 166.17ZM145.569 130.976C162.862 130.976 173.336 150.26 163.355 164.899L165.008 166.026C175.901 150.049 164.457 128.976 145.569 128.976V130.976ZM123.955 152.59C123.955 140.618 133.596 130.976 145.569 130.976V128.976C132.492 128.976 121.955 139.513 121.955 152.59H123.955ZM158.543 169.877C143.904 180.689 123.955 170.219 123.955 152.59H121.955C121.955 171.839 143.754 183.286 159.731 171.485L158.543 169.877ZM175.597 185.144C175.446 185.124 175.247 185.074 174.798 184.743C174.322 184.392 173.646 183.785 172.545 182.714C170.352 180.58 166.657 176.787 159.844 169.974L158.43 171.388C165.212 178.17 168.947 182.003 171.151 184.148C172.249 185.216 173.013 185.911 173.611 186.352C174.235 186.813 174.744 187.046 175.325 187.126L175.597 185.144ZM145.568 136.108C136.492 136.108 129.086 143.514 129.086 152.59H131.086C131.086 144.619 137.597 138.108 145.568 138.108V136.108ZM161.875 152.61C162.061 143.515 154.64 136.108 145.568 136.108V138.108C153.543 138.108 160.038 144.618 159.876 152.57L161.875 152.61ZM161.672 154.92C161.88 154.086 161.876 153.267 161.876 152.59H159.876C159.876 153.304 159.871 153.878 159.732 154.435L161.672 154.92ZM161.108 157.658C161.5 156.679 161.702 155.684 161.702 154.677H159.702C159.702 155.41 159.556 156.155 159.251 156.915L161.108 157.658ZM160.429 159.449C160.688 158.895 161.017 158.202 161.16 157.483L159.199 157.091C159.111 157.531 158.899 157.998 158.617 158.603L160.429 159.449ZM160.065 160.267C160.168 160.008 160.291 159.744 160.429 159.449L158.617 158.603C158.483 158.889 158.336 159.204 158.208 159.525L160.065 160.267ZM159.185 161.581C159.45 161.185 159.695 160.818 159.936 160.496L158.336 159.296C158.055 159.67 157.779 160.086 157.521 160.472L159.185 161.581ZM158.371 162.757C158.651 162.383 158.928 161.968 159.185 161.581L157.521 160.472C157.257 160.869 157.012 161.236 156.771 161.557L158.371 162.757ZM156.431 164.871C157.26 164.249 157.864 163.433 158.371 162.757L156.771 161.557C156.234 162.273 155.793 162.849 155.231 163.271L156.431 164.871ZM153.91 166.842C154.856 166.274 155.79 165.526 156.538 164.778L155.124 163.364C154.481 164.007 153.675 164.651 152.881 165.127L153.91 166.842ZM151.332 168.13C152.173 167.794 153.175 167.4 153.996 166.784L152.796 165.184C152.225 165.612 151.487 165.914 150.589 166.273L151.332 168.13ZM148.547 168.878C149.405 168.707 150.364 168.518 151.332 168.13L150.589 166.273C149.818 166.582 149.036 166.741 148.155 166.917L148.547 168.878ZM145.568 169.072C146.413 169.072 147.562 169.075 148.547 168.878L148.155 166.917C147.401 167.068 146.462 167.072 145.568 167.072V169.072ZM129.086 152.59C129.086 161.666 136.492 169.072 145.568 169.072V167.072C137.597 167.072 131.086 160.561 131.086 152.59H129.086Z" fill="#DCDEE9"/>
<path d="M84.3372 138.326C86.7725 138.326 88.8599 136.239 88.8599 133.803C88.8599 131.368 86.7725 129.281 84.3372 129.281C81.9019 129.281 79.8145 131.368 79.8145 133.803C79.9884 136.413 81.9019 138.326 84.3372 138.326Z" fill="#DCDEE9"/>
<path fill-rule="evenodd" clip-rule="evenodd" d="M166.03 89.8468C171.436 90.6968 174.652 95.7496 173.889 100.902L173.886 100.923L161.881 164.076C161.098 168.74 157.02 172.224 152.178 172.224H51.2861C46.4054 172.224 42.3572 168.527 41.582 163.725L32.9088 117.757C32.7912 117.465 32.7446 117.17 32.7221 116.945C32.6953 116.676 32.6953 116.416 32.6953 116.247L32.6953 116.234C32.6953 110.786 37.167 106.515 42.4146 106.515H89.9033C93.6618 106.515 97.258 105.209 100.208 102.751L100.214 102.746L111.162 93.8835C114.32 91.1043 118.561 89.6416 122.78 89.6416L164.541 89.6416C164.71 89.6416 164.97 89.6415 165.239 89.6684C165.459 89.6904 165.746 89.7353 166.03 89.8468ZM165.036 91.7017C164.876 91.6858 164.708 91.685 164.528 91.685H122.78C119.005 91.685 115.251 93.0004 112.497 95.4303L112.481 95.4447L101.516 104.321C101.514 104.322 101.513 104.324 101.511 104.325C98.1996 107.082 94.1442 108.558 89.9033 108.558H42.4146C38.2689 108.558 34.7388 111.941 34.7388 116.234C34.7388 116.414 34.7395 116.582 34.7554 116.741C34.7631 116.818 34.7733 116.88 34.7847 116.928C34.7953 116.973 34.804 116.993 34.8048 116.995C34.8049 116.995 34.8049 116.995 34.8048 116.995L34.8686 117.122L43.5952 163.373L43.5975 163.387C44.2196 167.276 47.4742 170.181 51.2861 170.181H152.178C156.029 170.181 159.254 167.409 159.868 163.729L159.87 163.717L171.87 100.583C172.481 96.3936 169.846 92.4551 165.602 91.8487L165.437 91.8253L165.289 91.7511C165.291 91.7519 165.272 91.7426 165.223 91.7309C165.175 91.7196 165.113 91.7094 165.036 91.7017Z" fill="#DCDEE9"/>
</svg>
