<svg width="25" height="24" viewBox="0 0 25 24" fill="none" xmlns="http://www.w3.org/2000/svg">
<path fill-rule="evenodd" clip-rule="evenodd" d="M7.75 13C7.75 12.5858 8.08579 12.25 8.5 12.25H12.5C12.9142 12.25 13.25 12.5858 13.25 13C13.25 13.4142 12.9142 13.75 12.5 13.75H8.5C8.08579 13.75 7.75 13.4142 7.75 13Z" fill="color1"/>
<path fill-rule="evenodd" clip-rule="evenodd" d="M7.75 17C7.75 16.5858 8.08579 16.25 8.5 16.25H16.5C16.9142 16.25 17.25 16.5858 17.25 17C17.25 17.4142 16.9142 17.75 16.5 17.75H8.5C8.08579 17.75 7.75 17.4142 7.75 17Z" fill="color1"/>
<path fill-rule="evenodd" clip-rule="evenodd" d="M6.34988 5.91159C5.64431 6.67229 5.25 7.94407 5.25 10.0375V15.2125C5.25 17.3059 5.64431 18.5777 6.34988 19.3384C7.04216 20.0848 8.18677 20.5 10.1 20.5H14.9C16.8132 20.5 17.9578 20.0848 18.6501 19.3384C19.3557 18.5777 19.75 17.3059 19.75 15.2125V10.0375C19.75 7.94407 19.3557 6.67229 18.6501 5.91159C17.9578 5.16523 16.8132 4.75 14.9 4.75H10.1C8.18677 4.75 7.04216 5.16523 6.34988 5.91159ZM5.25012 4.89153C6.35784 3.69727 8.01323 3.25 10.1 3.25H14.9C16.9868 3.25 18.6422 3.69727 19.7499 4.89153C20.8443 6.07146 21.25 7.81843 21.25 10.0375V15.2125C21.25 17.4316 20.8443 19.1785 19.7499 20.3585C18.6422 21.5527 16.9868 22 14.9 22H10.1C8.01323 22 6.35784 21.5527 5.25012 20.3585C4.15569 19.1785 3.75 17.4316 3.75 15.2125V10.0375C3.75 7.81843 4.15569 6.07146 5.25012 4.89153Z" fill="color2"/>
<path d="M7.5 5.5C7.5 4.67157 8.05964 4 8.75 4H16.25C16.9404 4 17.5 4.67157 17.5 5.5C17.5 6.32843 16.9404 7 16.25 7H8.75C8.05964 7 7.5 6.32843 7.5 5.5Z" fill="color2"/>
<path d="M10.5 2.75C10.5 2.47386 10.7239 2.25 11 2.25H14C14.2761 2.25 14.5 2.47386 14.5 2.75C14.5 3.02614 14.2761 3.25 14 3.25H11C10.7239 3.25 10.5 3.02614 10.5 2.75Z" fill="color2"/>
</svg>
