<svg width="24" height="24" viewBox="0 0 24 24" fill="none" xmlns="http://www.w3.org/2000/svg">
<path fill-rule="evenodd" clip-rule="evenodd" d="M12.675 9.0749C12.675 8.70211 12.3728 8.3999 12 8.3999C11.6272 8.3999 11.325 8.70211 11.325 9.0749V12.2249C11.325 12.5977 11.6272 12.8999 12 12.8999C12.3728 12.8999 12.675 12.5977 12.675 12.2249L12.675 9.0749ZM12 19.6499C12.7394 19.6499 13.35 19.0393 13.35 18.2999H14.7C14.7 19.7849 13.485 20.9999 12 20.9999C11.262 20.9999 10.578 20.6939 10.092 20.2079C9.60599 19.7219 9.29999 19.0379 9.29999 18.2999H10.65C10.65 18.6644 10.8026 19.0094 11.0466 19.2533C11.2905 19.4973 11.6355 19.6499 12 19.6499Z" fill="color1"/>
<path fill-rule="evenodd" clip-rule="evenodd" d="M9.95035 4.22142C7.66935 4.98015 6.04055 6.95315 6.04055 9.26332V11.852C6.04055 12.3984 5.78124 13.2314 5.47206 13.6972L4.3251 15.4081C3.61698 16.4651 4.10569 17.6385 5.40224 18.0326C9.70083 19.3225 14.3385 19.3225 18.6371 18.0326C19.8439 17.6743 20.3725 16.3934 19.7142 15.4081L18.5673 13.6972C18.2681 13.2314 18.0088 12.3984 18.0088 11.852V9.26332C18.0088 6.93836 16.3429 4.94589 14.0302 4.2012C13.7683 3.93084 13.4358 3.64012 13.0886 3.41241L13.085 3.41005C13.0226 3.36923 12.9597 3.33045 12.8967 3.2942C12.5886 3.1169 12.2771 3 12 3C11.732 3 11.4318 3.10936 11.1336 3.27696C10.6995 3.52095 10.2698 3.88836 9.95035 4.22142ZM5.61389 16.0903L6.76062 14.3798L6.76395 14.3748C7.00789 14.0073 7.19368 13.5624 7.31865 13.1581C7.44354 12.754 7.54055 12.2842 7.54055 11.852V9.26332C7.54055 7.02179 9.56642 5.22222 12.0247 5.22222C14.4729 5.22222 16.5088 7.03075 16.5088 9.26332V11.852C16.5088 12.2838 16.6057 12.7528 16.7282 13.1541C16.8511 13.5567 17.032 13.9962 17.2647 14.3584L17.2716 14.3691L18.425 16.0896C18.6037 16.3582 18.4435 16.6843 18.1619 16.7679L18.1573 16.7693C14.1711 17.9655 9.87178 17.9658 5.88534 16.7703C5.62751 16.6914 5.54645 16.5735 5.52032 16.5101C5.49426 16.4469 5.46911 16.3066 5.61389 16.0903Z" fill='color2'/>
</svg>
