<svg width="193" height="220" viewBox="0 0 193 220" fill="none" xmlns="http://www.w3.org/2000/svg">
<path opacity="0.9" d="M45.1921 209.439H170.018C174.595 205.437 177.912 199.999 179.513 193.874C181.113 187.748 180.919 181.237 178.956 175.236C176.993 169.236 173.358 164.041 168.552 160.366C163.745 156.692 158.004 154.719 152.118 154.72C150.64 154.722 149.166 154.845 147.706 155.089C146.939 147.869 144.015 141.116 139.377 135.855C134.739 130.595 128.641 127.114 122.008 125.942C115.375 124.77 108.569 125.969 102.623 129.359C96.6781 132.749 91.9179 138.144 89.0652 144.725C88.366 144.635 87.6627 144.587 86.9587 144.582C82.6259 144.588 78.4289 146.217 75.0811 149.192C71.7334 152.166 69.4416 156.303 68.5954 160.898C62.8521 159.025 56.6842 159.377 51.1557 161.895C45.6271 164.414 41.0843 168.939 38.311 174.691C35.5376 180.444 34.7074 187.062 35.9635 193.406C37.2197 199.749 40.4835 205.419 45.1921 209.439Z" fill="#E9F0F5"/>
<path opacity="0.5" d="M97.1544 124.312C92.7757 124.312 88.5757 126.13 85.4747 129.367C82.3736 132.604 80.6246 136.996 80.611 141.581C80.611 166.386 97.1544 182.594 97.1544 216.147C97.1544 182.583 113.698 166.343 113.698 141.581C113.684 136.996 111.935 132.604 108.834 129.367C105.733 126.13 101.533 124.312 97.1544 124.312Z" fill="url(#paint0_linear_6149_1365)"/>
<path d="M97.0796 124.588C95.6432 124.588 94.2208 124.894 92.8936 125.489C91.5665 126.083 90.3607 126.954 89.3449 128.053C88.3292 129.151 87.5235 130.455 86.9738 131.89C86.424 133.326 86.1411 134.864 86.1411 136.417C86.1411 153.396 97.0796 164.505 97.0796 187.476C97.0796 164.505 108.008 153.396 108.008 136.417C108.008 133.282 106.857 130.275 104.808 128.057C102.759 125.839 99.9789 124.591 97.0796 124.588Z" fill="url(#paint1_linear_6149_1365)"/>
<path d="M83.6876 126.04L109.989 126.184L109.968 130.691C109.965 131.241 109.761 131.766 109.4 132.153C109.039 132.539 108.551 132.755 108.043 132.752L85.5721 132.629C85.0641 132.626 84.578 132.405 84.2206 132.015C83.8633 131.625 83.664 131.097 83.6665 130.547L83.6876 126.04Z" fill="url(#paint2_linear_6149_1365)"/>
<path d="M124.334 85.6909L138.795 107.709C139.656 109.011 140.245 110.499 140.522 112.071C140.8 113.642 140.759 115.261 140.403 116.814L133.572 146.795C133.528 147.028 133.427 147.244 133.278 147.419C133.13 147.594 132.94 147.721 132.73 147.789C132.519 147.856 132.295 147.86 132.083 147.8C131.87 147.74 131.677 147.619 131.524 147.449L109.657 125.84L124.334 85.6909Z" fill="url(#paint3_linear_6149_1365)"/>
<path d="M69.5795 85.4916L54.9845 107.377C54.1192 108.677 53.5231 110.162 53.2368 111.734C52.9505 113.305 52.9807 114.924 53.3253 116.481L59.9622 146.474C60.0076 146.706 60.1097 146.92 60.2579 147.094C60.406 147.268 60.5947 147.395 60.8042 147.463C61.0137 147.531 61.2363 147.537 61.4485 147.48C61.6608 147.423 61.8549 147.305 62.0106 147.139L84.0515 125.718L69.5795 85.4916Z" fill="url(#paint4_linear_6149_1365)"/>
<path d="M97.3149 0.275269C72.4983 22.1719 58.6715 91.406 78.6436 124.323C78.9153 124.805 79.2932 125.207 79.7435 125.493C80.1939 125.779 80.7027 125.94 81.2246 125.962L112.268 126.139C112.79 126.123 113.301 125.968 113.754 125.688C114.208 125.408 114.591 125.011 114.87 124.533C135.19 91.849 121.988 22.4266 97.3149 0.275269Z" fill="url(#paint5_linear_6149_1365)"/>
<path d="M97.3151 0.275269C88.3328 8.18331 80.8151 22.2937 75.8068 38.6193C67.8282 38.1984 118.485 38.8076 118.485 38.8076C113.61 22.4266 106.215 8.28299 97.3151 0.275269Z" fill="url(#paint6_linear_6149_1365)"/>
<path d="M108.52 76.1992C106.835 78.6689 104.511 80.5426 101.841 81.5829C99.1708 82.6232 96.2754 82.7833 93.5213 82.0431C90.7672 81.3028 88.2781 79.6953 86.3693 77.4243C84.4605 75.1533 83.2178 72.3208 82.7986 69.2856C82.3793 66.2503 82.8024 63.1488 84.0143 60.3737C85.2261 57.5986 87.1722 55.2749 89.6061 53.6966C92.04 52.1184 94.8523 51.3566 97.6868 51.5079C100.521 51.6591 103.251 52.7165 105.529 54.5462C108.576 56.9928 110.601 60.6457 111.162 64.7044C111.722 68.7631 110.772 72.8966 108.52 76.1992Z" fill="url(#paint7_linear_6149_1365)"/>
<path d="M108.479 65.1345C108.811 67.5871 108.463 70.091 107.479 72.3298C106.495 74.5686 104.92 76.4417 102.952 77.7127C100.984 78.9836 98.7116 79.5952 96.4223 79.4702C94.1331 79.3452 91.9295 78.4892 90.09 77.0104C88.2505 75.5316 86.8575 73.4964 86.0873 71.1618C85.317 68.8273 85.2039 66.2982 85.7622 63.8942C86.3206 61.4902 87.5254 59.3191 89.2244 57.6552C90.9234 55.9914 93.0403 54.9094 95.3077 54.5462C96.8157 54.3046 98.3529 54.3869 99.8314 54.7885C101.31 55.1901 102.701 55.903 103.924 56.8865C105.147 57.87 106.179 59.1047 106.961 60.52C107.743 61.9353 108.258 63.5034 108.479 65.1345Z" fill="url(#paint8_linear_6149_1365)"/>
<g style="mix-blend-mode:soft-light">
<path d="M79.0222 118.564C79.7391 121.056 80.5175 123.525 81.3881 125.995H94.9691C94.7335 125.574 94.4979 125.165 94.2624 124.733C93.6888 123.625 93.1255 122.518 92.5827 121.41C91.497 119.195 90.5343 116.825 89.51 114.454C87.654 109.669 86.1038 104.75 84.8704 99.7349C82.3703 89.5466 81.144 79.042 81.2242 68.5015C81.2388 63.1775 81.5809 57.8605 82.2484 52.5857L82.4737 50.5921L82.7913 48.6096L83.4263 44.6555L84.2251 40.7126L84.6246 38.7411L85.1674 36.825C87.7142 26.3266 91.2598 16.1417 95.7475 6.43335C90.2821 15.68 85.7138 25.5119 82.1153 35.7728L81.4291 37.7111L80.8248 39.6715L79.6674 43.6144L78.6432 47.6127L78.1209 49.6174L77.619 51.6443C76.3927 57.0659 75.4895 62.5671 74.9151 68.1138C73.7464 79.3446 73.9669 90.6937 75.5706 101.861C76.3679 107.507 77.5211 113.088 79.0222 118.564Z" fill="white"/>
</g>
<path d="M96.6901 154.703C95.6141 154.704 94.5813 154.246 93.8147 153.429C93.0481 152.613 92.6094 151.503 92.5932 150.34L92.2143 120.358C92.1596 116.642 92.4617 112.93 93.1156 109.282L95.7683 94.4518H98.1035L100.664 109.349C101.279 113.001 101.546 116.713 101.463 120.424L100.818 150.395C100.788 151.555 100.339 152.655 99.5676 153.461C98.7958 154.267 97.7627 154.713 96.6901 154.703Z" fill="url(#paint9_linear_6149_1365)"/>
<path opacity="0.9" d="M23.304 208.991C19.3413 199.573 18.8725 188.772 22.0007 178.966C25.1289 169.16 31.5978 161.15 39.9845 156.7C48.3711 152.25 57.9884 151.724 66.7207 155.237C75.453 158.75 82.5849 166.014 86.5476 175.433C90.9278 172.996 95.7891 171.855 100.672 172.116C105.554 172.378 110.297 174.034 114.45 176.928C118.604 179.822 122.031 183.858 124.409 188.655C126.786 193.451 128.034 198.849 128.035 204.339C128.035 205.896 127.933 207.451 127.73 208.991H23.304Z" fill="#F7F9FB"/>
<path d="M157.398 144.767H155.472V142.652C155.472 142.532 155.428 142.418 155.35 142.334C155.272 142.249 155.167 142.202 155.056 142.202C154.946 142.202 154.84 142.249 154.762 142.334C154.684 142.418 154.64 142.532 154.64 142.652V144.734H152.715C152.605 144.734 152.499 144.781 152.421 144.866C152.343 144.95 152.299 145.064 152.299 145.184C152.299 145.303 152.343 145.417 152.421 145.502C152.499 145.586 152.605 145.633 152.715 145.633H154.64V147.715C154.64 147.835 154.684 147.949 154.762 148.033C154.84 148.118 154.946 148.165 155.056 148.165C155.167 148.165 155.272 148.118 155.35 148.033C155.428 147.949 155.472 147.835 155.472 147.715V145.633H157.398C157.508 145.633 157.614 145.586 157.692 145.502C157.77 145.417 157.814 145.303 157.814 145.184C157.814 145.064 157.77 144.95 157.692 144.866C157.614 144.781 157.508 144.734 157.398 144.734V144.767Z" fill="#E3E6EA"/>
<path d="M52.4564 74.2335H49.7607V71.2719C49.7607 71.1049 49.6994 70.9447 49.5902 70.8266C49.481 70.7086 49.3329 70.6422 49.1785 70.6422C49.0241 70.6422 48.876 70.7086 48.7668 70.8266C48.6576 70.9447 48.5962 71.1049 48.5962 71.2719V74.1869H45.9006C45.7462 74.1869 45.5981 74.2532 45.4889 74.3713C45.3797 74.4894 45.3184 74.6496 45.3184 74.8165C45.3184 74.9835 45.3797 75.1437 45.4889 75.2618C45.5981 75.3798 45.7462 75.4462 45.9006 75.4462H48.5962V78.3612C48.5962 78.5282 48.6576 78.6883 48.7668 78.8064C48.876 78.9245 49.0241 78.9908 49.1785 78.9908C49.3329 78.9908 49.481 78.9245 49.5902 78.8064C49.6994 78.6883 49.7607 78.5282 49.7607 78.3612V75.4462H52.4564C52.6108 75.4462 52.7589 75.3798 52.8681 75.2618C52.9773 75.1437 53.0386 74.9835 53.0386 74.8165C53.0386 74.6496 52.9773 74.4894 52.8681 74.3713C52.7589 74.2532 52.6108 74.1869 52.4564 74.1869V74.2335Z" fill="white"/>
<path d="M151.883 81.5561H149.958V79.4406C149.958 79.3213 149.914 79.2069 149.836 79.1226C149.758 79.0382 149.652 78.9908 149.542 78.9908C149.432 78.9908 149.326 79.0382 149.248 79.1226C149.17 79.2069 149.126 79.3213 149.126 79.4406V81.5228H147.201C147.09 81.5228 146.984 81.5701 146.906 81.6545C146.828 81.7388 146.785 81.8532 146.785 81.9725C146.785 82.0918 146.828 82.2062 146.906 82.2905C146.984 82.3749 147.09 82.4222 147.201 82.4222H149.126V84.5044C149.126 84.6237 149.17 84.7381 149.248 84.8224C149.326 84.9068 149.432 84.9541 149.542 84.9541C149.652 84.9541 149.758 84.9068 149.836 84.8224C149.914 84.7381 149.958 84.6237 149.958 84.5044V82.4222H151.883C151.994 82.4222 152.099 82.3749 152.177 82.2905C152.255 82.2062 152.299 82.0918 152.299 81.9725C152.299 81.8532 152.255 81.7388 152.177 81.6545C152.099 81.5701 151.994 81.5228 151.883 81.5228V81.5561Z" fill="white"/>
<path d="M39.2525 145.78C41.3844 145.78 43.1126 143.911 43.1126 141.606C43.1126 139.3 41.3844 137.431 39.2525 137.431C37.1206 137.431 35.3923 139.3 35.3923 141.606C35.3923 143.911 37.1206 145.78 39.2525 145.78Z" fill="url(#paint10_linear_6149_1365)"/>
<path d="M67.7733 38.0469C67.7755 38.9154 67.5393 39.7652 67.0947 40.4885C66.65 41.2118 66.0169 41.7762 65.2755 42.1103C64.5341 42.4443 63.7176 42.5329 62.9296 42.3649C62.1416 42.1969 61.4174 41.7798 60.8487 41.1665C60.28 40.5532 59.8923 39.7711 59.7348 38.9194C59.5773 38.0677 59.657 37.1846 59.9639 36.382C60.2708 35.5793 60.791 34.8931 61.4586 34.4103C62.1263 33.9275 62.9115 33.6698 63.7147 33.6698C64.7892 33.6698 65.8198 34.1306 66.5807 34.9511C67.3415 35.7716 67.7704 36.8849 67.7733 38.0469Z" fill="url(#paint11_linear_6149_1365)"/>
<path d="M34.521 99.767C35.8671 99.767 36.9584 98.587 36.9584 97.1313C36.9584 95.6756 35.8671 94.4955 34.521 94.4955C33.1749 94.4955 32.0836 95.6756 32.0836 97.1313C32.0836 98.587 33.1749 99.767 34.521 99.767Z" fill="url(#paint12_linear_6149_1365)"/>
<path d="M171.048 111.775C171.051 112.837 170.762 113.877 170.217 114.762C169.673 115.647 168.898 116.337 167.991 116.745C167.083 117.153 166.084 117.26 165.12 117.054C164.156 116.847 163.271 116.336 162.576 115.584C161.881 114.833 161.408 113.875 161.217 112.833C161.026 111.79 161.125 110.71 161.503 109.728C161.88 108.747 162.518 107.909 163.336 107.321C164.155 106.732 165.116 106.419 166.099 106.422C166.749 106.422 167.392 106.561 167.993 106.83C168.593 107.099 169.139 107.493 169.599 107.99C170.058 108.487 170.423 109.077 170.671 109.726C170.92 110.376 171.048 111.072 171.048 111.775Z" fill="url(#paint13_linear_6149_1365)"/>
<path d="M139.814 43.6404C142.056 43.6404 143.873 41.6754 143.873 39.2514C143.873 36.8274 142.056 34.8624 139.814 34.8624C137.573 34.8624 135.756 36.8274 135.756 39.2514C135.756 41.6754 137.573 43.6404 139.814 43.6404Z" fill="url(#paint14_linear_6149_1365)"/>
<defs>
<linearGradient id="paint0_linear_6149_1365" x1="97.1544" y1="124.312" x2="97.1544" y2="216.147" gradientUnits="userSpaceOnUse">
<stop stop-color="white"/>
<stop offset="0.0001" stop-color="#FFE297"/>
<stop offset="1" stop-color="#FFD66C" stop-opacity="0"/>
</linearGradient>
<linearGradient id="paint1_linear_6149_1365" x1="97.0745" y1="124.588" x2="97.0745" y2="187.476" gradientUnits="userSpaceOnUse">
<stop stop-color="#FFC709" stop-opacity="0.54"/>
<stop offset="1" stop-color="#FFE386" stop-opacity="0"/>
</linearGradient>
<linearGradient id="paint2_linear_6149_1365" x1="96.8705" y1="132.333" x2="96.8719" y2="125.621" gradientUnits="userSpaceOnUse">
<stop stop-color="white"/>
<stop offset="0.13" stop-color="#EFF6FF"/>
<stop offset="0.52" stop-color="#C6DFFF"/>
<stop offset="0.82" stop-color="#ACD0FF"/>
<stop offset="1" stop-color="#A2CBFF"/>
</linearGradient>
<linearGradient id="paint3_linear_6149_1365" x1="125.181" y1="85.6909" x2="125.181" y2="147.842" gradientUnits="userSpaceOnUse">
<stop stop-color="#F8B535"/>
<stop offset="1" stop-color="#FFE6B5"/>
</linearGradient>
<linearGradient id="paint4_linear_6149_1365" x1="68.5469" y1="85.4916" x2="68.5469" y2="147.519" gradientUnits="userSpaceOnUse">
<stop stop-color="#FFC251"/>
<stop offset="0.8125" stop-color="#FED790"/>
<stop offset="1" stop-color="#FEDDA0"/>
</linearGradient>
<linearGradient id="paint5_linear_6149_1365" x1="63.8643" y1="36.1273" x2="135.493" y2="102.365" gradientUnits="userSpaceOnUse">
<stop stop-color="white"/>
<stop offset="0.21" stop-color="#FBFDFF"/>
<stop offset="0.42" stop-color="#EFF6FF"/>
<stop offset="0.62" stop-color="#DBEBFF"/>
<stop offset="0.83" stop-color="#BFDBFF"/>
<stop offset="1" stop-color="#A2CBFF"/>
</linearGradient>
<linearGradient id="paint6_linear_6149_1365" x1="96.7199" y1="0.275269" x2="96.7199" y2="38.8076" gradientUnits="userSpaceOnUse">
<stop stop-color="#FFF0D2"/>
<stop offset="1" stop-color="#FBC45C"/>
</linearGradient>
<linearGradient id="paint7_linear_6149_1365" x1="87.0403" y1="55.4912" x2="108.767" y2="75.786" gradientUnits="userSpaceOnUse">
<stop stop-color="#FCC715"/>
<stop offset="0.08" stop-color="#FCC019"/>
<stop offset="0.43" stop-color="#FDA729"/>
<stop offset="0.75" stop-color="#FD9732"/>
<stop offset="1" stop-color="#FD9235"/>
</linearGradient>
<linearGradient id="paint8_linear_6149_1365" x1="85.0225" y1="59.9083" x2="144.82" y2="105.989" gradientUnits="userSpaceOnUse">
<stop stop-color="#769BEE"/>
<stop offset="1" stop-color="#0F38C1"/>
</linearGradient>
<linearGradient id="paint9_linear_6149_1365" x1="80.1796" y1="94.4186" x2="99.7905" y2="177.399" gradientUnits="userSpaceOnUse">
<stop stop-color="#FCEDC1"/>
<stop offset="1" stop-color="#FFAB2D"/>
</linearGradient>
<linearGradient id="paint10_linear_6149_1365" x1="39.2525" y1="137.431" x2="39.2525" y2="145.78" gradientUnits="userSpaceOnUse">
<stop stop-color="#D2DFF5" stop-opacity="0.39"/>
<stop offset="1" stop-color="#DBE4F3"/>
</linearGradient>
<linearGradient id="paint11_linear_6149_1365" x1="63.7147" y1="33.6698" x2="63.7147" y2="42.4478" gradientUnits="userSpaceOnUse">
<stop stop-color="#D2DFF5" stop-opacity="0.39"/>
<stop offset="1" stop-color="#DBE4F3"/>
</linearGradient>
<linearGradient id="paint12_linear_6149_1365" x1="34.521" y1="94.4955" x2="34.521" y2="99.767" gradientUnits="userSpaceOnUse">
<stop stop-color="#D2DFF5" stop-opacity="0.39"/>
<stop offset="1" stop-color="#DBE4F3"/>
</linearGradient>
<linearGradient id="paint13_linear_6149_1365" x1="166.085" y1="106.422" x2="166.085" y2="117.156" gradientUnits="userSpaceOnUse">
<stop stop-color="#D2DFF5" stop-opacity="0.39"/>
<stop offset="1" stop-color="#DBE4F3"/>
</linearGradient>
<linearGradient id="paint14_linear_6149_1365" x1="139.814" y1="34.8624" x2="139.814" y2="43.6404" gradientUnits="userSpaceOnUse">
<stop stop-color="#D2DFF5" stop-opacity="0.39"/>
<stop offset="1" stop-color="#DBE4F3"/>
</linearGradient>
</defs>
</svg>
