<svg width="217" height="184" viewBox="0 0 217 184" fill="none" xmlns="http://www.w3.org/2000/svg">
<path d="M120.706 182.44C168.447 182.44 207.151 143.808 207.151 95.9849C207.151 48.162 168.277 9.52937 120.706 9.52937C72.9656 9.52937 34.2615 48.162 34.2615 95.9849C34.2615 143.808 72.9656 182.44 120.706 182.44Z" fill="#F1F3F9" stroke="#DCDEE9" stroke-width="2"/>
<path d="M201.524 39.3124C205.386 39.3124 208.515 36.1877 208.515 32.3347C208.515 28.4816 205.386 25.357 201.524 25.357C197.664 25.357 194.534 28.4816 194.534 32.3347C194.534 36.1877 197.664 39.3124 201.524 39.3124Z" fill="#F1F3F9"/>
<path d="M211.754 12.0823C214.392 12.0823 216.528 9.94811 216.528 7.317C216.528 4.6842 214.392 2.55174 211.754 2.55174C209.118 2.55174 206.982 4.6842 206.982 7.317C206.982 9.94811 209.118 12.0823 211.754 12.0823Z" fill="#F1F3F9"/>
<path d="M38.8647 39.1422C41.5023 39.1422 43.6387 37.0081 43.6387 34.377C43.6387 31.7459 41.5023 29.6117 38.8647 29.6117C36.2287 29.6117 34.0906 31.7459 34.0906 34.377C34.0906 37.0081 36.2287 39.1422 38.8647 39.1422Z" fill="#F1F3F9"/>
<path d="M9.70868 131.044C14.6055 131.044 18.5748 127.082 18.5748 122.194C18.5748 117.306 14.6055 113.344 9.70868 113.344C4.81354 113.344 0.842529 117.306 0.842529 122.194C0.842529 127.082 4.81354 131.044 9.70868 131.044Z" fill="#F1F3F9"/>
<path d="M184.645 52.7572L186.009 162.358C186.009 166.102 182.94 168.996 179.189 168.996H72.1128C68.3618 168.996 65.2927 165.932 65.2927 162.358V21.4426C65.2927 17.6985 68.3618 14.8053 72.1128 14.8053H149.692L184.645 52.7572Z" fill="#F8F8FC" stroke="#DCDEE9" stroke-width="2"/>
<path d="M117.466 147.041H113.545C112.692 147.041 112.01 146.19 112.01 145.169C112.01 144.148 112.692 143.297 113.545 143.297H117.466C118.319 143.297 119.001 144.148 119.001 145.169C119.001 146.361 118.319 147.041 117.466 147.041Z" fill="#D6DCE8"/>
<path d="M105.532 147.041H82.6842C81.8317 147.041 81.1497 146.19 81.1497 145.169C81.1497 144.148 81.8317 143.297 82.6842 143.297H105.532C106.384 143.297 107.066 144.148 107.066 145.169C107.066 146.361 106.384 147.041 105.532 147.041Z" fill="#D6DCE8"/>
<path d="M134.688 37.7806H83.3662C82.1727 37.7806 81.1497 36.7594 81.1497 35.5681C81.1497 34.3768 82.1727 33.3557 83.3662 33.3557H134.688C135.881 33.3557 136.904 34.3768 136.904 35.5681C136.904 36.7594 135.881 37.7806 134.688 37.7806Z" fill="#D6DCE8"/>
<path d="M103.145 50.0342H83.3662C82.1727 50.0342 81.1497 49.013 81.1497 47.8217C81.1497 46.6304 82.1727 45.6093 83.3662 45.6093H102.974C104.168 45.6093 105.191 46.6304 105.191 47.8217C105.191 49.013 104.168 50.0342 103.145 50.0342Z" fill="#D6DCE8"/>
<path d="M150.561 14.8053V45.0987C150.561 49.3534 154.312 52.7572 158.575 52.7572H185.514" fill="#DCDEE9"/>
<path d="M111.328 106.537C113.545 106.537 115.42 104.664 115.42 102.452C115.42 100.24 113.545 98.3675 111.328 98.3675C109.112 98.3675 107.236 100.24 107.236 102.452C107.236 104.664 109.112 106.537 111.328 106.537Z" fill="#DCDEE9"/>
<path d="M142.701 106.537C144.918 106.537 146.793 104.664 146.793 102.452C146.793 100.24 144.918 98.3675 142.701 98.3675C140.485 98.3675 138.609 100.24 138.609 102.452C138.609 104.835 140.485 106.537 142.701 106.537Z" fill="#DCDEE9"/>
<path d="M111.17 88.9391L102.167 93.7895L103.383 96.036L112.384 91.1856L111.17 88.9391Z" fill="#DCDEE9"/>
<path d="M142.145 88.8745L140.931 91.1209L149.934 95.9713L151.148 93.7248L142.145 88.8745Z" fill="#DCDEE9"/>
<path d="M127.015 116.067C129.652 116.067 131.789 114.467 131.789 112.493C131.789 110.519 129.652 108.919 127.015 108.919C124.379 108.919 122.24 110.519 122.24 112.493C122.24 114.467 124.379 116.067 127.015 116.067Z" fill="#DCDEE9"/>
<path d="M113.594 64.3726H34.3455C29.5238 64.3726 25.6912 60.5471 25.6912 55.7343V10.198C25.6912 5.38518 29.5238 1.55963 34.3455 1.55963H113.594C118.416 1.55963 122.249 5.38518 122.249 10.198V55.7343C122.249 60.5471 118.416 64.3726 113.594 64.3726Z" fill="#F8F8FC" stroke="#DCDEE9" stroke-width="2"/>
<path d="M50.1707 50.1811H37.5602C36.4475 50.1811 35.582 49.3172 35.582 48.2066C35.582 47.096 36.4475 46.2321 37.5602 46.2321H50.1707C51.2834 46.2321 52.1489 47.096 52.1489 48.2066C52.1489 49.3172 51.2834 50.1811 50.1707 50.1811Z" fill="#D6DCE8"/>
<path d="M70.5701 50.1811H57.9596C56.8469 50.1811 55.9814 49.3172 55.9814 48.2066C55.9814 47.096 56.8469 46.2321 57.9596 46.2321H70.5701C71.6828 46.2321 72.5483 47.096 72.5483 48.2066C72.5483 49.3172 71.6828 50.1811 70.5701 50.1811Z" fill="#D6DCE8"/>
<path d="M90.9698 50.1811H78.3592C77.2465 50.1811 76.3811 49.3172 76.3811 48.2066C76.3811 47.096 77.2465 46.2321 78.3592 46.2321H90.9698C92.0825 46.2321 92.9479 47.096 92.9479 48.2066C92.9479 49.3172 92.0825 50.1811 90.9698 50.1811Z" fill="#D6DCE8"/>
<path d="M111.369 50.1811H98.7586C97.6459 50.1811 96.7805 49.3172 96.7805 48.2066C96.7805 47.096 97.6459 46.2321 98.7586 46.2321H111.369C112.482 46.2321 113.347 47.096 113.347 48.2066C113.347 49.3172 112.482 50.1811 111.369 50.1811Z" fill="#D6DCE8"/>
<path d="M106.795 26.4874C110.891 26.4874 114.213 23.1801 114.213 19.0831C114.213 14.9984 110.891 11.6788 106.795 11.6788C102.697 11.6788 99.3767 14.9984 99.3767 19.0831C99.3767 23.1801 102.697 26.4874 106.795 26.4874Z" fill="#DCDEE9"/>
<path d="M97.0274 26.4874C101.123 26.4874 104.445 23.1801 104.445 19.0831C104.445 14.9984 101.123 11.6788 97.0274 11.6788C92.9302 11.6788 89.6094 14.9984 89.6094 19.0831C89.6094 23.1801 92.9302 26.4874 97.0274 26.4874Z" fill="#D6DCE8"/>
<path d="M51.2834 28.8321H37.4365C36.4475 28.8321 35.582 27.9683 35.582 26.9811V18.0959C35.582 17.1087 36.4475 16.2449 37.4365 16.2449H51.1598C52.1489 16.2449 53.0143 17.1087 53.0143 18.0959V26.9811C53.1379 27.9683 52.2725 28.8321 51.2834 28.8321Z" fill="#D6DCE8"/>
<path fill-rule="evenodd" clip-rule="evenodd" d="M188.055 169.336C189.419 170.868 191.124 171.548 192.829 171.548C195.557 171.548 198.285 169.506 199.649 166.783C200.16 165.251 200.842 162.358 197.944 159.465L169.299 130.873L169.981 129.852C181.064 113.684 182.258 93.6023 173.221 76.4133C164.014 59.0542 146.963 48.8429 127.526 48.8429C99.0522 48.8429 75.8638 71.9884 75.8638 100.41C75.8638 114.706 81.4904 127.81 91.7205 137.511C101.439 146.701 114.568 151.977 127.697 151.977C138.609 151.977 149.351 148.403 158.558 141.595L159.581 140.915L188.055 169.336ZM90.0158 100.41C90.0158 79.8171 106.725 62.9685 127.526 62.9685C142.019 62.9685 154.977 71.1375 161.457 84.242C167.765 97.3464 166.231 112.493 157.194 123.726C149.862 132.916 139.462 138.021 128.038 138.021C109.283 138.021 90.0158 123.896 90.0158 100.41Z" fill="#E4E5F0"/>
<path d="M188.055 169.336L188.801 168.671L188.782 168.649L188.761 168.628L188.055 169.336ZM199.649 166.783L200.543 167.231L200.575 167.167L200.597 167.1L199.649 166.783ZM197.944 159.465L197.237 160.173L197.237 160.173L197.944 159.465ZM169.299 130.873L168.468 130.318L168.012 131.001L168.593 131.581L169.299 130.873ZM169.981 129.852L169.156 129.287L169.15 129.297L169.981 129.852ZM173.221 76.4133L174.106 75.948L174.104 75.9448L173.221 76.4133ZM91.7205 137.511L91.0325 138.236L91.0335 138.237L91.7205 137.511ZM158.558 141.595L158.004 140.763L157.983 140.777L157.963 140.791L158.558 141.595ZM159.581 140.915L160.287 140.207L159.708 139.629L159.027 140.082L159.581 140.915ZM161.457 84.242L162.358 83.8082L162.353 83.7988L161.457 84.242ZM157.194 123.726L156.415 123.099L156.412 123.102L157.194 123.726ZM192.829 170.548C191.407 170.548 189.974 169.988 188.801 168.671L187.308 170.001C188.863 171.748 190.841 172.548 192.829 172.548V170.548ZM198.755 166.335C197.511 168.817 195.08 170.548 192.829 170.548V172.548C196.033 172.548 199.058 170.195 200.543 167.231L198.755 166.335ZM197.237 160.173C198.526 161.459 198.976 162.692 199.08 163.734C199.187 164.803 198.939 165.75 198.7 166.466L200.597 167.1C200.87 166.284 201.219 165.019 201.07 163.535C200.919 162.025 200.26 160.364 198.65 158.757L197.237 160.173ZM168.593 131.581L197.237 160.173L198.65 158.757L170.006 130.166L168.593 131.581ZM169.15 129.297L168.468 130.318L170.131 131.429L170.813 130.408L169.15 129.297ZM172.336 76.8787C181.199 93.737 180.031 113.423 169.157 129.287L170.806 130.418C182.097 113.946 183.317 93.4676 174.106 75.948L172.336 76.8787ZM127.526 49.8429C146.593 49.8429 163.303 59.8491 172.337 76.8819L174.104 75.9448C164.724 58.2592 147.334 47.8429 127.526 47.8429V49.8429ZM76.8638 100.41C76.8638 72.5425 99.6027 49.8429 127.526 49.8429V47.8429C98.5016 47.8429 74.8638 71.4344 74.8638 100.41H76.8638ZM92.4086 136.785C82.3793 127.275 76.8638 114.434 76.8638 100.41H74.8638C74.8638 114.978 80.6014 128.345 91.0325 138.236L92.4086 136.785ZM127.697 150.977C114.829 150.977 101.944 145.802 92.4076 136.784L91.0335 138.237C100.934 147.6 114.307 152.977 127.697 152.977V150.977ZM157.963 140.791C148.922 147.476 138.387 150.977 127.697 150.977V152.977C138.83 152.977 149.779 149.33 159.152 142.399L157.963 140.791ZM159.027 140.082L158.004 140.763L159.112 142.428L160.135 141.747L159.027 140.082ZM188.761 168.628L160.287 140.207L158.874 141.622L187.348 170.044L188.761 168.628ZM127.526 61.9685C106.172 61.9685 89.0158 79.266 89.0158 100.41H91.0158C91.0158 80.3681 107.279 63.9685 127.526 63.9685V61.9685ZM162.353 83.7988C155.709 70.3602 142.407 61.9685 127.526 61.9685V63.9685C141.631 63.9685 154.246 71.9148 160.56 84.6852L162.353 83.7988ZM157.973 124.352C167.26 112.809 168.827 97.2477 162.358 83.8082L160.555 84.6757C166.703 97.4452 165.201 112.177 156.415 123.099L157.973 124.352ZM128.038 139.021C139.777 139.021 150.461 133.769 157.976 124.349L156.412 123.102C149.264 132.063 139.147 137.021 128.038 137.021V139.021ZM89.0158 100.41C89.0158 124.541 108.829 139.021 128.038 139.021V137.021C109.737 137.021 91.0158 123.25 91.0158 100.41H89.0158Z" fill="#DCDEE9"/>
</svg>
