<svg width="24" height="25" viewBox="0 0 24 25" fill="none" xmlns="http://www.w3.org/2000/svg">
<path d="M11.2562 14.9664C11.4405 14.9664 11.6239 14.8912 11.7545 14.7434L17.4433 8.32583C17.6835 8.05519 17.655 7.64408 17.3798 7.40812C17.1057 7.17208 16.6881 7.19908 16.4474 7.4707L10.7586 13.8883C10.5185 14.1589 10.5469 14.57 10.8222 14.806C10.9474 14.9137 11.102 14.9664 11.2562 14.9664Z" fill="color1"/>
<path d="M21.7734 6.84476C21.4991 6.60907 21.0815 6.6364 20.8411 6.90735L11.5405 17.3989L7.04513 12.4865C6.80019 12.2194 6.38263 12.1978 6.11152 12.4385C5.84042 12.679 5.81847 13.0904 6.06281 13.3575L8.68591 16.2239L7.64669 17.398L3.15228 12.4872C2.90735 12.2201 2.48978 12.1985 2.21868 12.4392C1.94757 12.68 1.92563 13.0911 2.16997 13.3582L7.16396 18.8144C7.28947 18.9513 7.46798 19.0295 7.65515 19.0295H7.66064C7.84972 19.028 8.02916 18.9466 8.15341 18.8062L9.57709 17.1977L11.0572 18.8151C11.1827 18.952 11.3612 19.0302 11.5484 19.0302H11.5535C11.7426 19.0286 11.9221 18.9475 12.0463 18.8072L21.8371 7.76255C22.0771 7.4918 22.0487 7.08111 21.7734 6.84476Z" fill="color1"/>
</svg>
