<svg width="24" height="24" viewBox="0 0 24 24" fill="none" xmlns="http://www.w3.org/2000/svg">
<path fill-rule="evenodd" clip-rule="evenodd" d="M13.4005 4.50014C12.0767 4.4978 10.7818 4.88676 9.67849 5.61814C9.59649 5.67597 9.50373 5.71675 9.40569 5.73808C9.30765 5.75941 9.20633 5.76086 9.10772 5.74232C9.00911 5.72379 8.91522 5.68567 8.83162 5.6302C8.74801 5.57473 8.67638 5.50305 8.62097 5.4194C8.56557 5.33576 8.5275 5.24184 8.50904 5.14322C8.49058 5.0446 8.4921 4.94328 8.5135 4.84526C8.5349 4.74723 8.57575 4.6545 8.63364 4.57254C8.69152 4.49059 8.76526 4.42108 8.85049 4.36814C10.0939 3.54602 11.5369 3.07616 13.0261 3.0085C14.5152 2.94085 15.9948 3.27793 17.3077 3.98391C18.6206 4.6899 19.7177 5.73841 20.4823 7.018C21.247 8.2976 21.6507 9.76048 21.6505 11.2511C21.654 14.1755 21.1043 17.0741 20.0305 19.7941C19.9557 19.9766 19.812 20.1223 19.6305 20.1996C19.4491 20.2769 19.2445 20.2797 19.061 20.2072C18.8776 20.1347 18.73 19.9929 18.6504 19.8125C18.5708 19.6321 18.5654 19.4275 18.6355 19.2431C19.6401 16.6982 20.1541 13.9862 20.1505 11.2501C20.1505 9.45993 19.4393 7.74304 18.1735 6.47717C16.9076 5.2113 15.1907 4.50014 13.4005 4.50014ZM7.55749 6.48914C7.63959 6.54362 7.71015 6.61374 7.76514 6.6955C7.82013 6.77726 7.85847 6.86905 7.87797 6.96563C7.89747 7.06221 7.89775 7.16169 7.8788 7.25838C7.85984 7.35507 7.82201 7.44707 7.76749 7.52914C7.03664 8.63232 6.64804 9.92684 6.65049 11.2501C6.65049 12.8631 6.18749 14.3701 5.38549 15.6431C5.2794 15.8116 5.11076 15.9309 4.91666 15.975C4.72256 16.0191 4.5189 15.9842 4.35049 15.8781C4.18207 15.7721 4.0627 15.6034 4.01863 15.4093C3.97456 15.2152 4.0094 15.0116 4.11549 14.8431C4.7937 13.7676 5.15262 12.5216 5.15049 11.2501C5.15049 9.57014 5.65349 8.00414 6.51749 6.70014C6.57189 6.61796 6.64195 6.54731 6.72367 6.49222C6.80539 6.43713 6.89717 6.39869 6.99376 6.3791C7.09034 6.3595 7.18984 6.35914 7.28657 6.37802C7.3833 6.3969 7.47536 6.43466 7.55749 6.48914ZM13.4005 8.25014C12.6048 8.25014 11.8418 8.56621 11.2792 9.12882C10.7166 9.69143 10.4005 10.4545 10.4005 11.2501C10.4005 14.3501 9.22449 17.1771 7.29549 19.3061C7.2293 19.3792 7.14938 19.4384 7.06029 19.4805C6.9712 19.5227 6.87469 19.5468 6.77626 19.5517C6.67783 19.5565 6.57941 19.5419 6.48662 19.5087C6.39384 19.4755 6.3085 19.4243 6.23549 19.3581C6.08803 19.2245 5.9997 19.0377 5.98995 18.8389C5.9802 18.6401 6.04982 18.4456 6.18349 18.2981C7.9355 16.3693 8.90441 13.8559 8.90049 11.2501C8.90049 10.0567 9.37459 8.91207 10.2185 8.06816C11.0624 7.22425 12.207 6.75014 13.4005 6.75014C14.594 6.75014 15.7386 7.22425 16.5825 8.06816C17.4264 8.91207 17.9005 10.0567 17.9005 11.2501C17.9005 11.7971 17.8785 12.3401 17.8335 12.8761C17.8172 13.0744 17.7228 13.258 17.5711 13.3867C17.4193 13.5153 17.2227 13.5785 17.0245 13.5621C16.8262 13.5458 16.6426 13.4514 16.5139 13.2997C16.3853 13.148 16.3222 12.9514 16.3385 12.7531C16.3799 12.2532 16.4005 11.7518 16.4005 11.2501C16.4005 10.4545 16.0844 9.69143 15.5218 9.12882C14.9592 8.56621 14.1961 8.25014 13.4005 8.25014ZM13.4005 10.5001C13.5994 10.5001 13.7902 10.5792 13.9308 10.7198C14.0715 10.8605 14.1505 11.0512 14.1505 11.2501C14.1562 15.0052 12.815 18.6378 10.3705 21.4881C10.2412 21.6393 10.0571 21.7329 9.85882 21.7484C9.6605 21.7639 9.46416 21.6999 9.31299 21.5706C9.16181 21.4413 9.06819 21.2573 9.05272 21.059C9.03725 20.8607 9.10119 20.6643 9.23049 20.5131C11.4427 17.9345 12.6562 14.6477 12.6505 11.2501C12.6505 11.0512 12.7295 10.8605 12.8702 10.7198C13.0108 10.5792 13.2016 10.5001 13.4005 10.5001ZM16.6395 15.6831C16.8307 15.7378 16.9923 15.8662 17.0889 16.04C17.1855 16.2138 17.2091 16.4189 17.1545 16.6101C16.5912 18.5831 15.7187 20.4543 14.5695 22.1541C14.5143 22.2358 14.4436 22.3057 14.3615 22.36C14.2793 22.4143 14.1872 22.4519 14.0905 22.4706C13.9938 22.4893 13.8943 22.4888 13.7978 22.4691C13.7013 22.4493 13.6096 22.4108 13.528 22.3556C13.4464 22.3005 13.3764 22.2298 13.3221 22.1476C13.2678 22.0654 13.2302 21.9733 13.2115 21.8766C13.1928 21.7799 13.1933 21.6805 13.2131 21.584C13.2328 21.4874 13.2713 21.3958 13.3265 21.3141C14.3872 19.7456 15.1926 18.0189 15.7125 16.1981C15.7672 16.0069 15.8955 15.8453 16.0694 15.7487C16.2432 15.6521 16.4483 15.6285 16.6395 15.6831Z" fill="#FFC709"/>
<path fill-rule="evenodd" clip-rule="evenodd" d="M12.0001 3.75002C10.6764 3.74768 9.38144 4.13664 8.2781 4.86802C8.1961 4.92584 8.10334 4.96663 8.0053 4.98796C7.90726 5.00929 7.80593 5.01073 7.70733 4.9922C7.60872 4.97367 7.51483 4.93554 7.43123 4.88008C7.34762 4.82461 7.27599 4.75293 7.22058 4.66928C7.16518 4.58563 7.12711 4.49172 7.10865 4.3931C7.09019 4.29448 7.09171 4.19316 7.11311 4.09513C7.13451 3.99711 7.17536 3.90437 7.23324 3.82242C7.29113 3.74047 7.36487 3.67096 7.4501 3.61802C8.69356 2.79589 10.1365 2.32604 11.6257 2.25838C13.1148 2.19073 14.5944 2.5278 15.9073 3.23379C17.2202 3.93977 18.3173 4.98828 19.082 6.26788C19.8466 7.54748 20.2503 9.01035 20.2501 10.501C20.2536 13.4254 19.7039 16.324 18.6301 19.044C18.5553 19.2265 18.4116 19.3722 18.2301 19.4495C18.0487 19.5268 17.8441 19.5295 17.6606 19.4571C17.4772 19.3846 17.3297 19.2428 17.25 19.0624C17.1704 18.8819 17.165 18.6774 17.2351 18.493C18.2397 15.9481 18.7537 13.2361 18.7501 10.5C18.7501 8.70981 18.0389 6.99292 16.7731 5.72705C15.5072 4.46118 13.7903 3.75002 12.0001 3.75002ZM6.1571 5.73902C6.2392 5.7935 6.30976 5.86362 6.36475 5.94538C6.41974 6.02713 6.45808 6.11893 6.47758 6.21551C6.49708 6.31209 6.49736 6.41157 6.47841 6.50826C6.45945 6.60495 6.42162 6.69695 6.3671 6.77902C5.63625 7.8822 5.24765 9.17672 5.2501 10.5C5.2501 12.113 4.7871 13.62 3.9851 14.893C3.87901 15.0614 3.71037 15.1808 3.51627 15.2249C3.32217 15.2689 3.11851 15.2341 2.9501 15.128C2.78168 15.0219 2.66231 14.8533 2.61824 14.6592C2.57417 14.4651 2.60901 14.2614 2.7151 14.093C3.39331 13.0175 3.75223 11.7715 3.7501 10.5C3.7501 8.82002 4.2531 7.25402 5.1171 5.95002C5.17149 5.86784 5.24156 5.79719 5.32328 5.7421C5.405 5.68701 5.49678 5.64857 5.59336 5.62898C5.68995 5.60938 5.78945 5.60901 5.88618 5.6279C5.98291 5.64678 6.07497 5.68454 6.1571 5.73902ZM12.0001 7.50002C11.2044 7.50002 10.4414 7.81609 9.87877 8.3787C9.31617 8.94131 9.0001 9.70437 9.0001 10.5C9.0001 13.6 7.8241 16.427 5.8951 18.556C5.82891 18.629 5.74899 18.6883 5.6599 18.7304C5.57081 18.7726 5.47429 18.7967 5.37586 18.8016C5.27743 18.8064 5.17902 18.7918 5.08623 18.7586C4.99345 18.7254 4.90811 18.6742 4.8351 18.608C4.68763 18.4743 4.59931 18.2876 4.58956 18.0888C4.57981 17.89 4.64943 17.6955 4.7831 17.548C6.53511 15.6192 7.50402 13.1058 7.5001 10.5C7.5001 9.30654 7.9742 8.16195 8.81812 7.31804C9.66203 6.47413 10.8066 6.00002 12.0001 6.00002C13.1936 6.00002 14.3382 6.47413 15.1821 7.31804C16.026 8.16195 16.5001 9.30654 16.5001 10.5C16.5001 11.047 16.4781 11.59 16.4331 12.126C16.4168 12.3243 16.3224 12.5079 16.1707 12.6366C16.019 12.7652 15.8223 12.8283 15.6241 12.812C15.4258 12.7957 15.2422 12.7013 15.1135 12.5496C14.9849 12.3979 14.9218 12.2013 14.9381 12.003C14.9795 11.5031 15.0002 11.0017 15.0001 10.5C15.0001 9.70437 14.684 8.94131 14.1214 8.3787C13.5588 7.81609 12.7957 7.50002 12.0001 7.50002ZM12.0001 9.75002C12.199 9.75002 12.3898 9.82904 12.5304 9.96969C12.6711 10.1103 12.7501 10.3011 12.7501 10.5C12.7558 14.2551 11.4146 17.8876 8.9701 20.738C8.8408 20.8892 8.65675 20.9828 8.45843 20.9983C8.26011 21.0138 8.06377 20.9498 7.9126 20.8205C7.76142 20.6912 7.6678 20.5072 7.65233 20.3089C7.63686 20.1105 7.7008 19.9142 7.8301 19.763C10.0423 17.1843 11.2558 13.8975 11.2501 10.5C11.2501 10.3011 11.3291 10.1103 11.4698 9.96969C11.6104 9.82904 11.8012 9.75002 12.0001 9.75002ZM15.2391 14.933C15.4303 14.9877 15.592 15.1161 15.6885 15.2899C15.7851 15.4637 15.8087 15.6688 15.7541 15.86C15.1908 17.833 14.3183 19.7042 13.1691 21.404C13.1139 21.4856 13.0433 21.5556 12.9611 21.6099C12.8789 21.6642 12.7868 21.7018 12.6901 21.7205C12.5934 21.7392 12.4939 21.7387 12.3974 21.7189C12.3009 21.6992 12.2092 21.6607 12.1276 21.6055C12.046 21.5504 11.976 21.4797 11.9217 21.3975C11.8674 21.3153 11.8299 21.2232 11.8111 21.1265C11.7924 21.0298 11.793 20.9303 11.8127 20.8338C11.8324 20.7373 11.8709 20.6456 11.9261 20.564C12.9868 18.9955 13.7922 17.2687 14.3121 15.448C14.3668 15.2568 14.4951 15.0952 14.669 14.9986C14.8428 14.902 15.0479 14.8784 15.2391 14.933Z" fill="black"/>
</svg>
