<svg width="24" height="24" viewBox="0 0 24 24" fill="none" xmlns="http://www.w3.org/2000/svg">
<path fill-rule="evenodd" clip-rule="evenodd" d="M9.71661 7.33026C9.16736 8.08013 8.97923 9.16281 8.97923 10.4988V11.4615C8.97923 11.7589 8.76002 12 8.48961 12C8.21921 12 8 11.7589 8 11.4615V10.4988C8 9.09839 8.18773 7.70088 8.95402 6.65469C9.73872 5.58334 11.0369 5 13 5C14.9631 5 16.2613 5.58334 17.046 6.65469C17.8123 7.70088 18 9.09839 18 10.4988V11.4615C18 11.7589 17.7808 12 17.5104 12C17.24 12 17.0208 11.7589 17.0208 11.4615V10.4988C17.0208 9.16281 16.8326 8.08013 16.2834 7.33026C15.7526 6.60553 14.7955 6.07692 13 6.07692C11.2045 6.07692 10.2474 6.60553 9.71661 7.33026Z" fill="#FFC709"/>
<path fill-rule="evenodd" clip-rule="evenodd" d="M13 16.9579C13.529 16.9579 13.9579 16.529 13.9579 16C13.9579 15.471 13.529 15.0421 13 15.0421C12.471 15.0421 12.0421 15.471 12.0421 16C12.0421 16.529 12.471 16.9579 13 16.9579ZM15 16C15 17.1046 14.1046 18 13 18C11.8954 18 11 17.1046 11 16C11 14.8954 11.8954 14 13 14C14.1046 14 15 14.8954 15 16Z" fill="#292D32"/>
<path d="M5 11.4545C5 11.2035 5.22386 11 5.5 11H21.5C21.7761 11 22 11.2035 22 11.4545V20.5455C22 20.7965 21.7761 21 21.5 21H5.5C5.22386 21 5 20.7965 5 20.5455V11.4545Z" fill="#FFC709"/>
<path fill-rule="evenodd" clip-rule="evenodd" d="M4 10V19H19V10H4ZM3.5 9C3.22386 9 3 9.22386 3 9.5V19.5C3 19.7761 3.22386 20 3.5 20H19.5C19.7761 20 20 19.7761 20 19.5V9.5C20 9.22386 19.7761 9 19.5 9H3.5Z" fill="#1B1D29"/>
<path fill-rule="evenodd" clip-rule="evenodd" d="M7.88827 5.99736C7.2841 6.64011 7.07715 7.56812 7.07715 8.71329V9.53846C7.07715 9.79336 6.83602 10 6.53858 10C6.24113 10 6 9.79336 6 9.53846V8.71329C6 7.5129 6.20651 6.31504 7.04942 5.4183C7.9126 4.50001 9.34056 4 11.5 4C13.6594 4 15.0874 4.50001 15.9506 5.4183C16.7935 6.31504 17 7.5129 17 8.71329V9.53846C17 9.79336 16.7589 10 16.4614 10C16.164 10 15.9228 9.79336 15.9228 9.53846V8.71329C15.9228 7.56812 15.7159 6.64011 15.1117 5.99736C14.5278 5.37617 13.4751 4.92308 11.5 4.92308C9.52492 4.92308 8.47217 5.37617 7.88827 5.99736Z" fill="#1B1D29"/>
<path fill-rule="evenodd" clip-rule="evenodd" d="M11.2998 15.4579C11.8288 15.4579 12.2577 15.029 12.2577 14.5C12.2577 13.971 11.8288 13.5421 11.2998 13.5421C10.7708 13.5421 10.3419 13.971 10.3419 14.5C10.3419 15.029 10.7708 15.4579 11.2998 15.4579ZM13.2998 14.5C13.2998 15.6046 12.4044 16.5 11.2998 16.5C10.1952 16.5 9.2998 15.6046 9.2998 14.5C9.2998 13.3954 10.1952 12.5 11.2998 12.5C12.4044 12.5 13.2998 13.3954 13.2998 14.5Z" fill="#1B1D29"/>
</svg>
