<svg width="239" height="179" viewBox="0 0 239 179" fill="none" xmlns="http://www.w3.org/2000/svg">
<path d="M154.123 150.875C154.118 151.207 154.014 151.53 153.826 151.804C153.638 152.077 153.373 152.289 153.064 152.413C152.756 152.536 152.418 152.566 152.093 152.499C151.768 152.431 151.47 152.269 151.236 152.033C151.003 151.796 150.844 151.496 150.781 151.17C150.717 150.844 150.751 150.507 150.879 150.2C151.006 149.893 151.221 149.631 151.497 149.446C151.773 149.261 152.097 149.162 152.429 149.16C152.654 149.158 152.877 149.202 153.085 149.287C153.292 149.373 153.481 149.5 153.639 149.659C153.797 149.819 153.921 150.009 154.004 150.218C154.087 150.427 154.128 150.65 154.123 150.875Z" fill="url(#paint0_radial_5395_7364)"/>
<path d="M158.569 117.731C159.5 117.731 160.256 116.976 160.256 116.044C160.256 115.113 159.5 114.357 158.569 114.357C157.637 114.357 156.882 115.113 156.882 116.044C156.882 116.976 157.637 117.731 158.569 117.731Z" fill="url(#paint1_radial_5395_7364)"/>
<path d="M223.107 0.0692234C222.647 0.0214593 222.186 -0.00161874 221.724 8.81687e-05H160.988C153.307 8.81687e-05 145.979 6.22229 144.624 13.9102L119.244 157.719C118.961 159.368 118.924 161.051 119.134 162.711C119.134 162.711 121.159 177.492 135.429 177.361H196.192C203.873 177.361 211.202 171.138 212.557 163.444L237.916 19.6415C238.004 19.1196 238.067 18.5935 238.102 18.0652C241.027 0.967989 223.107 0.0692234 223.107 0.0692234Z" fill="url(#paint2_linear_5395_7364)"/>
<path d="M191.664 170.419H131.627C124.022 170.419 118.961 164.259 120.295 156.661L145.364 14.5256C146.698 6.92065 153.944 0.767578 161.542 0.767578H221.565C229.17 0.767578 234.231 6.92756 232.897 14.5256L207.842 156.661C206.508 164.259 199.262 170.419 191.664 170.419Z" fill="white"/>
<path d="M230.166 14.7949L205.228 156.239C204.101 162.641 197.997 167.833 191.595 167.833H132.608C126.206 167.833 121.934 162.641 123.061 156.239L148.005 14.7949C149.159 8.23391 155.423 2.92429 161.991 2.92429H166.713C167.319 2.90032 167.914 3.09745 168.385 3.47898C168.857 3.86051 169.174 4.40046 169.278 4.99836L170.17 9.69267C170.277 10.2193 170.569 10.6905 170.992 11.0223C171.415 11.354 171.942 11.5248 172.479 11.504H206.839C207.454 11.4824 208.053 11.2991 208.575 10.9726C209.097 10.6462 209.523 10.188 209.812 9.64427L212.349 4.95688C212.666 4.35155 213.137 3.84082 213.715 3.47654C214.293 3.11227 214.957 2.90743 215.64 2.88281H220.362C226.944 2.92429 231.327 8.23391 230.166 14.7949Z" fill="url(#paint3_linear_5395_7364)"/>
<path d="M198.75 8.1233H179.426C179.26 8.12856 179.095 8.09566 178.944 8.02715C178.793 7.95864 178.659 7.85634 178.554 7.72813C178.448 7.59991 178.374 7.44919 178.336 7.28757C178.298 7.12596 178.297 6.95775 178.334 6.7959C178.41 6.43286 178.604 6.10555 178.888 5.86621C179.171 5.62687 179.526 5.48928 179.897 5.47541H199.192C199.358 5.46903 199.523 5.50092 199.674 5.5686C199.825 5.63629 199.959 5.73794 200.065 5.86568C200.17 5.99341 200.245 6.14378 200.283 6.30511C200.322 6.46644 200.322 6.63438 200.285 6.7959C200.213 7.15633 200.023 7.48255 199.745 7.72295C199.467 7.96336 199.117 8.10424 198.75 8.1233Z" fill="url(#paint4_linear_5395_7364)"/>
<path d="M205.007 6.7959C204.935 7.1602 204.743 7.4896 204.46 7.73059C204.178 7.97158 203.822 8.10998 203.451 8.1233C203.285 8.12996 203.119 8.09801 202.967 8.02994C202.815 7.96187 202.681 7.85954 202.575 7.73097C202.47 7.60239 202.395 7.45106 202.357 7.28883C202.32 7.12661 202.32 6.95789 202.359 6.7959C202.433 6.43342 202.626 6.10628 202.908 5.86686C203.191 5.62744 203.545 5.4896 203.914 5.47541C204.08 5.46903 204.245 5.50092 204.396 5.5686C204.548 5.63629 204.681 5.73794 204.787 5.86568C204.893 5.99341 204.967 6.14378 205.006 6.30511C205.044 6.46644 205.044 6.63438 205.007 6.7959Z" fill="url(#paint5_linear_5395_7364)"/>
<path d="M232.744 34.2771L232.779 34.0835H232.032C231.591 34.0985 231.167 34.2625 230.831 34.5487C230.494 34.8349 230.265 35.2265 230.179 35.6598L226.681 55.5017C226.55 56.2553 226.57 57.6864 228.064 57.88H228.893L228.727 57.078L228.762 56.8844C229.037 56.7546 229.279 56.5619 229.466 56.3217C229.653 56.0815 229.782 55.8006 229.84 55.5017L233.318 35.6598C233.38 35.3982 233.357 35.1239 233.254 34.8757C233.151 34.6275 232.973 34.4181 232.744 34.2771Z" fill="url(#paint6_linear_5395_7364)"/>
<path d="M228.769 57.8592C227.428 57.6656 227.269 56.3728 227.421 55.5017L230.919 35.6598C231.007 35.2265 231.239 34.8354 231.576 34.5495C231.913 34.2636 232.337 34.0994 232.779 34.0835C233.65 34.0835 234.279 35.5699 234.127 36.441L230.622 56.2829C230.47 57.154 229.682 58.0252 228.769 57.8592Z" fill="#FDFBF9"/>
<path d="M163.365 93.0976C164.188 93.0976 164.973 92.4288 165.118 91.6038C165.262 90.7789 164.712 90.1101 163.889 90.1101C163.065 90.1101 162.28 90.7789 162.135 91.6038C161.991 92.4288 162.541 93.0976 163.365 93.0976Z" fill="#FFEAAF"/>
<path d="M168.478 93.0976C169.301 93.0976 170.086 92.4288 170.231 91.6038C170.376 90.7789 169.825 90.1101 169.002 90.1101C168.178 90.1101 167.393 90.7789 167.248 91.6038C167.104 92.4288 167.654 93.0976 168.478 93.0976Z" fill="#FFEAAF"/>
<path d="M173.589 93.0976C174.412 93.0976 175.197 92.4288 175.342 91.6038C175.487 90.7789 174.937 90.1101 174.113 90.1101C173.289 90.1101 172.505 90.7789 172.36 91.6038C172.215 92.4288 172.765 93.0976 173.589 93.0976Z" fill="#FFEAAF"/>
<path d="M178.701 93.0976C179.525 93.0976 180.309 92.4288 180.454 91.6038C180.599 90.7789 180.049 90.1101 179.225 90.1101C178.401 90.1101 177.617 90.7789 177.472 91.6038C177.327 92.4288 177.877 93.0976 178.701 93.0976Z" fill="#FFEAAF"/>
<path d="M183.814 93.0976C184.637 93.0976 185.422 92.4288 185.567 91.6038C185.711 90.7789 185.161 90.1101 184.338 90.1101C183.514 90.1101 182.729 90.7789 182.584 91.6038C182.44 92.4288 182.99 93.0976 183.814 93.0976Z" fill="#FFEAAF"/>
<rect width="61.0404" height="11.3586" rx="5.67928" transform="matrix(1 0 -0.172789 0.984959 146.047 75.7278)" fill="#FFEAAF"/>
<rect width="61.0404" height="11.3586" rx="5.67928" transform="matrix(1 0 -0.172789 0.984959 149.398 61.3054)" fill="#FFEAAF"/>
<path d="M175.915 43.4282C174.749 43.4282 173.326 42.676 173.714 40.4692C174.112 38.1974 175.941 37.5111 176.961 37.5111C177.493 37.4919 177.996 37.6077 178.424 37.8477L177.843 38.6569C177.605 38.5495 177.341 38.4906 177.064 38.4831C176.192 38.4831 175.329 39.2987 175.125 40.462C174.956 41.4279 175.441 42.3986 176.366 42.3986C176.637 42.4096 176.919 42.3496 177.185 42.2243L177.501 43.0877C176.961 43.3391 176.389 43.4565 175.84 43.4282" fill="#FFC709"/>
<path d="M189.208 43.3052L189.907 39.3228C189.935 39.2217 189.941 39.1197 189.925 39.0238C189.908 38.9278 189.87 38.8401 189.813 38.7669C189.755 38.6936 189.68 38.6364 189.592 38.5993C189.504 38.5622 189.406 38.5461 189.304 38.552C189.181 38.5448 189.053 38.5658 188.929 38.6135C188.806 38.6611 188.69 38.7342 188.591 38.8272L187.805 43.3052H186.387L187.09 39.3008C187.111 39.2006 187.112 39.1005 187.092 39.0071C187.072 38.9136 187.032 38.8287 186.973 38.7579C186.902 38.6848 186.815 38.629 186.716 38.5936C186.617 38.5583 186.509 38.5441 186.397 38.552C186.194 38.5501 185.986 38.5859 185.784 38.6576L184.969 43.3052H183.561L184.529 37.7914C185.099 37.6508 185.672 37.5594 186.24 37.5182C186.701 37.4848 187.149 37.5404 187.558 37.6816C187.769 37.7715 187.949 37.9101 188.086 38.0877C188.306 37.9164 188.549 37.7805 188.803 37.6864C189.155 37.5642 189.516 37.5076 189.866 37.5196C190.358 37.5149 190.799 37.7047 191.092 38.0477C191.217 38.2203 191.302 38.422 191.341 38.6411C191.381 38.8602 191.374 39.0925 191.321 39.3247L190.622 43.3072L189.208 43.3052Z" fill="#FFC709"/>
<path d="M176.799 49.4045C176.259 49.8962 175.395 50.2056 174.183 50.2056C173.255 50.2056 172.25 50.0944 172.25 50.0944L173.337 43.8984C173.337 43.8984 174.284 43.7922 174.953 43.7922C176.549 43.7922 176.878 44.0719 177.135 44.2492C177.332 44.3607 177.486 44.5277 177.581 44.7331C177.676 44.9385 177.709 45.1751 177.677 45.4187C177.503 46.4085 176.534 46.667 176.252 46.7765L176.249 46.7941C176.492 46.8499 176.712 46.9572 176.896 47.1093C177.079 47.2614 177.222 47.455 177.315 47.6782C177.373 47.9616 177.356 48.2669 177.266 48.5677C177.176 48.8684 177.015 49.1555 176.798 49.4039L176.799 49.4045ZM176.259 45.4425C176.351 44.92 176.017 44.6581 175.305 44.6581C175.075 44.6567 174.84 44.6814 174.606 44.7318L174.301 46.473H174.495C175.808 46.473 176.171 45.9537 176.26 45.4425H176.259ZM175.933 48.3393C176.019 47.8509 175.936 47.1896 174.369 47.1896H174.175L173.811 49.2624C174.273 49.383 174.789 49.3403 175.28 49.1409C175.445 49.0692 175.593 48.9558 175.709 48.8139C175.824 48.6721 175.901 48.5075 175.932 48.3393" fill="#FFC709"/>
<path d="M181.886 50.0938C181.886 50.0938 180.973 50.205 180.365 50.205C178.283 50.205 177.547 49.464 177.762 48.2364C177.933 47.2636 179.064 46.3557 181.12 46.3557L181.166 46.0978C181.217 45.807 181.066 45.3217 180.254 45.3217C179.859 45.3244 179.453 45.4167 179.068 45.5916C179.066 45.569 178.756 44.7262 178.756 44.7262C179.407 44.4282 180.096 44.2815 180.761 44.2987C181.783 44.2987 182.805 44.858 182.587 46.0978L181.886 50.0938ZM180.993 47.0876C179.884 47.0876 179.293 47.4734 179.159 48.2376C179.13 48.3863 179.132 48.5341 179.165 48.6715C179.198 48.8088 179.261 48.9327 179.351 49.0353C179.44 49.1378 179.554 49.2168 179.685 49.2671C179.816 49.3174 179.962 49.338 180.112 49.3275C180.277 49.3271 180.446 49.303 180.613 49.256L180.993 47.0876Z" fill="#FFC709"/>
<path d="M185.757 50.0937L186.372 46.5885C186.501 45.8535 186.454 45.4902 185.878 45.3557C185.579 45.3143 185.263 45.3429 184.952 45.4391L184.136 50.0937H182.732L183.7 44.5754C184.265 44.4457 184.833 44.3599 185.396 44.3189C186.457 44.2649 186.958 44.3914 187.418 44.7358C187.606 44.8875 187.744 45.0889 187.823 45.3226C187.901 45.5564 187.916 45.8156 187.868 46.0781L187.163 50.0937H185.757Z" fill="#FFC709"/>
<path d="M183.347 40.4712C183.672 38.6171 182.889 37.5122 181.199 37.5122C179.508 37.5122 178.302 38.6171 177.977 40.4712C177.652 42.3252 178.471 43.4304 180.16 43.4304C181.85 43.4304 183.021 42.3266 183.347 40.4712ZM181.927 40.4712C181.662 41.9766 180.921 42.4056 180.34 42.4056C179.759 42.4056 179.133 41.9766 179.397 40.4712C179.661 38.9657 180.44 38.5374 181.019 38.5374C181.598 38.5374 182.19 38.9673 181.927 40.4712Z" fill="#FFC709"/>
<path d="M191.308 50.0942L189.815 47.8704H189.802L189.43 50.0942H188.017L189.103 43.9038H190.516L190.08 46.2841H190.1L192.075 44.4306H194.002L190.909 47.0729L193.195 50.0942H191.308Z" fill="#FFC709"/>
<path d="M191.852 36.3625C191.368 36.8189 192.227 37.3493 192.804 37.5742C193.751 37.9268 194.762 38.1495 195.812 38.2369L196.372 35.0249C194.306 35.2323 192.62 35.7323 191.852 36.3625Z" fill="url(#paint7_linear_5395_7364)"/>
<path d="M167.292 38.1724C167.162 38.9651 166.737 39.732 166.102 40.3192C165.429 40.8604 164.843 41.0483 163.407 41.0233H163.145L162.745 43.3054H160.761L162.147 35.4086C162.147 35.4086 163.246 35.2813 164.38 35.2746C165.981 35.2657 166.554 35.5618 166.947 36.0112C167.244 36.3517 167.465 37.1873 167.292 38.1724ZM165.349 38.1346C165.601 36.7009 164.947 36.3587 164.462 36.3328C164.282 36.3237 163.967 36.3417 163.967 36.3417L163.34 39.9167H163.609C164.276 39.9167 165.132 39.376 165.349 38.1346Z" fill="#0072BC"/>
<path d="M171.056 43.3047H169.382L167.959 35.3889H170.346C170.346 35.3889 170.831 40.0866 170.828 40.1939H170.84C170.874 40.0863 173.063 35.3889 173.063 35.3889H175.243L171.056 43.3047Z" fill="#0072BC"/>
<path d="M199.809 38.9709C201.874 38.7646 203.56 38.2646 204.329 37.6338C204.813 37.1777 203.953 36.6476 203.376 36.4225C202.428 36.0698 201.418 35.847 200.368 35.7595L199.809 38.9709Z" fill="url(#paint8_linear_5395_7364)"/>
<path d="M197.729 39.0738C194.941 39.0766 192.646 38.5457 191.778 37.7951C191.771 37.7893 191.765 37.7951 191.763 37.7971C191.762 37.8013 191.763 37.8054 191.764 37.8087L196.872 43.998L204.341 37.6228C203.337 38.46 200.71 39.0713 197.729 39.0744" fill="url(#paint9_linear_5395_7364)"/>
<path d="M191.76 37.8099C191.76 37.8142 191.76 37.8185 191.762 37.8221L191.765 37.8082L191.763 37.8068L191.761 37.8087L191.76 37.8099ZM197.73 39.0738C194.942 39.0766 192.647 38.5457 191.78 37.7951C191.772 37.7893 191.766 37.7951 191.764 37.7971C191.763 37.8006 191.763 37.8042 191.764 37.8074C191.768 37.8049 191.772 37.804 191.777 37.8087C192.633 38.6254 194.92 39.1986 197.709 39.1964C200.69 39.1931 203.326 38.5293 204.342 37.6228C203.338 38.46 200.71 39.0713 197.73 39.0744" fill="url(#paint10_linear_5395_7364)"/>
<path d="M200.349 35.8699C201.393 35.9528 202.401 36.1617 203.352 36.4922C203.84 36.6699 204.529 37.0482 204.463 37.4195C204.555 37.022 203.864 36.6134 203.377 36.4225C202.429 36.0698 201.419 35.847 200.369 35.7595L200.349 35.8699Z" fill="url(#paint11_linear_5395_7364)"/>
<path d="M191.84 36.3749C192.842 35.5383 195.471 34.9262 198.452 34.9228C201.238 34.9203 203.534 35.4493 204.401 36.2015C204.408 36.2082 204.414 36.2034 204.415 36.2015C204.417 36.1974 204.417 36.1931 204.415 36.1895L199.308 30L191.84 36.3749Z" fill="url(#paint12_linear_5395_7364)"/>
<path d="M204.416 36.1896L204.416 36.191L204.419 36.1874C204.42 36.1832 204.42 36.1789 204.419 36.1752L204.416 36.1896ZM198.474 34.802C195.492 34.8048 192.854 35.4691 191.841 36.3753C192.843 35.5386 195.472 34.9265 198.453 34.9232C201.239 34.9207 203.535 35.4497 204.402 36.2019C204.409 36.2085 204.415 36.2038 204.416 36.2019C204.417 36.2001 204.418 36.1982 204.418 36.1964C204.418 36.1945 204.417 36.1928 204.416 36.1913C204.414 36.1933 204.409 36.1946 204.404 36.1896C203.549 35.3752 201.271 34.8026 198.493 34.8023H198.474" fill="url(#paint13_linear_5395_7364)"/>
<path d="M196.887 43.9141L191.779 37.7947C191.772 37.7888 191.766 37.7946 191.764 37.7966C191.763 37.8008 191.764 37.8049 191.766 37.8083L196.873 43.9975L204.342 37.6223L196.887 43.9141Z" fill="url(#paint14_linear_5395_7364)"/>
<path d="M192.804 37.5747C193.751 37.9274 194.762 38.1501 195.811 38.2374L195.831 38.1262C194.787 38.0431 193.78 37.8339 192.829 37.5033C192.341 37.3257 191.653 36.9474 191.719 36.5754C191.626 36.9735 192.317 37.3815 192.805 37.5733" fill="url(#paint15_linear_5395_7364)"/>
<path d="M119.753 78.1647C120.786 78.1921 121.787 78.5317 122.624 79.1388C123.461 79.7459 124.095 80.5921 124.442 81.5661C124.788 82.5401 124.833 83.5963 124.568 84.5958C124.303 85.5952 123.742 86.4912 122.959 87.1658C122.175 87.8405 121.206 88.2621 120.178 88.3754C119.15 88.4887 118.112 88.2883 117.201 87.8006C116.289 87.3128 115.546 86.5606 115.07 85.6428C114.594 84.7249 114.407 83.6845 114.534 82.6584C114.633 81.3717 115.238 80.1767 116.216 79.3347C117.194 78.4927 118.465 78.072 119.753 78.1647Z" fill="#E58C6C"/>
<path d="M99.3168 91.5387L95.2763 112.589L93.9515 117.53C93.9515 117.53 97.0422 120.627 103.618 121.227C108.118 121.643 111.087 121.391 113.013 121.005C114.601 120.657 116.508 120.105 115.165 117.315C113.239 113.162 113.436 110.366 113.436 110.366L114.339 97.9079L99.3168 91.5387Z" fill="#F2C6B4"/>
<path d="M100.293 102.577C102.693 105.491 106.082 107.538 108.238 108.3C111.259 109.383 113.34 109.482 113.34 109.482L114.505 99.3761L99.9469 91.4679L99.3703 92.9581L99.0602 95.3402C99.0695 95.423 98.0755 99.8103 100.293 102.577Z" fill="url(#paint16_linear_5395_7364)"/>
<path d="M103.667 86.8078C103.667 86.8078 107.752 80.798 110.62 79.2786C116.102 76.1831 121.727 75.8026 121.727 75.8026L120.501 72.9541L106.059 73.8204L101.411 83.5639L103.667 86.8078Z" fill="url(#paint17_linear_5395_7364)"/>
<path d="M97.9321 90.2821C98.7026 90.1949 99.2565 89.4996 99.1693 88.7291C99.0821 87.9586 97.5316 86.0885 96.7611 86.1757C95.9906 86.2629 96.2919 88.2744 96.3791 89.0449C96.4663 89.8154 97.1616 90.3693 97.9321 90.2821Z" fill="url(#paint18_linear_5395_7364)"/>
<path fill-rule="evenodd" clip-rule="evenodd" d="M117.545 69.3781C117.545 69.3781 120.462 73.012 121.096 74.7958C121.701 76.3297 121.966 77.9023 122.069 78.8183C122.465 82.3158 122.765 87.2579 122.65 90.0541C122.334 94.8973 120.351 97.9893 117.715 99.1309C115.079 100.273 109.933 99.0838 106.417 97.7948C103.442 96.6978 101.651 95.3823 101.027 93.6818C100.842 93.1624 100.617 92.6047 100.39 92.0751C99.7988 92.6208 99.067 92.9805 98.2496 93.073C95.9381 93.3346 92.9614 90.0443 92.6562 87.3476C92.3511 84.6508 94.8329 83.5688 97.1444 83.3072C97.8096 83.2319 98.459 83.3418 99.0539 83.6008L103.858 69.8306L117.545 69.3781Z" fill="url(#paint19_linear_5395_7364)"/>
<path d="M112.374 85.1799C113.027 85.1061 113.497 84.5295 113.425 83.8921C113.353 83.2547 112.765 82.7978 112.113 82.8717C111.46 82.9455 110.99 83.5221 111.062 84.1595C111.134 84.7969 111.722 85.2538 112.374 85.1799Z" fill="#4F2B23"/>
<path d="M121.076 83.5283C121.729 83.4545 122.199 82.8779 122.127 82.2405C122.055 81.6031 121.467 81.1462 120.815 81.2201C120.162 81.2939 119.692 81.8705 119.764 82.5079C119.836 83.1453 120.423 83.6022 121.076 83.5283Z" fill="#4F2B23"/>
<path d="M105.994 74.8632C105.994 74.8632 106.161 77.8457 104.771 80.6708C103.381 83.4959 103.213 83.515 103.399 84.411L103.696 88.5459C103.742 89.7079 102.552 89.7593 102.13 89.807C102.045 89.8166 101.007 85.9322 101.007 85.9322C101.007 85.9322 100.344 83.0894 96.6584 83.7565C93.9764 84.2267 93.2618 86.9755 93.2618 86.9755C93.2618 86.9755 90.5947 80.0241 89.8177 78.4446C88.5726 75.7509 89.9054 73.9327 91.1346 72.7097C92.3731 71.5691 93.7327 71.4987 93.7327 71.4987C93.7327 71.4987 92.6762 67.4497 97.0756 64.7842C99.2331 63.4562 101.118 63.4931 102.965 63.2007C104.812 62.9082 106.557 62.4607 108.076 62.2888C111.808 62.0333 113.138 63.967 113.138 63.967C113.138 63.967 120.051 60.1 123.433 63.5523C126.806 66.9223 124.018 71.7398 120.013 73.3602C117.087 74.6918 112.735 75.5177 105.994 74.8632Z" fill="#321011"/>
<path d="M108.758 81.8172C108.214 81.5077 108.047 80.7842 108.257 80.3892C108.331 80.2881 109.434 78.0288 112.485 77.9619C112.821 77.9239 113.429 78.0407 113.532 78.957C113.595 79.5068 113.29 79.8196 112.955 79.8576C110.669 79.9306 109.923 81.5927 109.849 81.6938C109.618 81.9055 109.125 82.0541 108.758 81.8172ZM121.375 78.4407C121.291 78.4502 121.124 78.4692 121.029 78.387C120.296 77.9132 119.331 78.3936 119.247 78.4031C118.922 78.5327 118.565 78.3874 118.45 78.1221C118.116 77.4175 118.483 76.9119 118.725 76.7918C118.809 76.7823 120.256 76.0617 121.534 76.8451C121.807 76.9999 122.121 77.5211 121.774 78.21C121.784 78.3016 121.543 78.4217 121.375 78.4407Z" fill="#4F2B23"/>
<path d="M149.88 145.324C150.035 143.481 157.885 127.023 158.137 121.496L165.801 124.667C164.407 134.744 161.978 144.649 158.552 154.225C158.552 154.225 149.718 147.166 149.88 145.324Z" fill="#FECBA5"/>
<path d="M166.025 125.258C164.273 126.477 161.091 127.504 159.192 126.191C156.725 124.509 152.729 116.837 151.273 115.129C150.821 114.599 149.629 113.06 149.925 112.278C150.583 110.536 155.96 115.398 155.985 115.365C156.182 115.171 156.585 106.246 158.197 105.624C160.039 104.908 159.841 112.135 160.154 112.109C160.466 112.084 162.119 105.262 164.43 105.666C166.017 105.943 164.314 112.984 164.487 113.094C164.66 113.203 168.812 108.046 170.087 109.199C171.361 110.351 167.924 114.313 167.71 115.819C167.71 115.962 172.381 113.295 172.858 114.658C173.146 115.499 170.12 118.309 169.692 118.864C167.982 121.119 167.776 124.021 166.025 125.249V125.258Z" fill="#FECBA5"/>
<path d="M67.68 89.9859C67.68 89.9859 62.9535 64.7295 63.3606 53.8596L53.4023 55.4996C53.4023 55.4996 46.0759 97.1246 60.1517 98.7567C71.9377 100.114 67.2721 88.0559 67.6802 89.9417L67.68 89.9859Z" fill="#FECBA5"/>
<path d="M61.8203 56.2684C62.7069 55.7678 63.8882 54.5873 65.8912 51.4817C66.4006 50.7965 66.7627 50.0133 66.9549 49.1814C67.147 48.3495 67.1651 47.4868 67.0079 46.6476C66.5499 43.992 63.7157 44.865 63.5399 44.5901C63.3641 44.3151 63.4044 38.7778 58.83 39.0599C58.6097 39.0458 58.3888 39.0756 58.1801 39.1473C57.9713 39.2191 57.7789 39.3315 57.6138 39.478C57.4487 39.6246 57.3143 39.8023 57.2183 40.0011C57.1223 40.1998 57.0666 40.4156 57.0544 40.636C56.6855 40.2171 56.2085 39.9078 55.6756 39.7418C55.1427 39.5758 54.5744 39.5595 54.0329 39.6948C52.2088 40.1651 52.0495 42.3405 52.0495 42.3405C51.8466 42.2521 51.6283 42.2046 51.4071 42.2007C51.1858 42.1969 50.9659 42.2368 50.7601 42.3182C50.5543 42.3995 50.3666 42.5207 50.2078 42.6748C50.0489 42.8288 49.9221 43.0128 49.8345 43.216C49.6319 43.5632 49.5078 43.9505 49.4711 44.3508C49.4343 44.751 49.4856 45.1545 49.6216 45.5327C49.6216 45.5327 48.6782 44.7593 47.681 46.3475C46.6838 47.9356 46.8759 48.5379 48.0701 50.6924C49.1766 52.6783 51.9221 56.1837 53.8296 56.9876C57.1499 58.3811 59.444 57.6386 61.8203 56.2684Z" fill="#FECBA5"/>
<path d="M59.1574 45.4743C60.5572 44.9561 62.009 44.5913 63.4875 44.3863C63.4937 44.468 63.5112 44.5484 63.5396 44.6253C63.5695 44.6587 63.61 44.6807 63.6543 44.6877L62.3971 44.9656C61.9455 45.0788 61.5116 45.2008 61.0598 45.3494C60.6081 45.4979 60.3158 45.594 59.9525 45.7341C58.8184 46.1806 57.516 46.6971 57.2187 48.0051C57.1613 48.2311 57.1712 48.4689 57.2473 48.6893C57.3234 48.9097 57.4624 49.1029 57.6471 49.2453C57.9698 49.4904 58.3443 49.6583 58.742 49.7363C59.7088 49.938 60.6905 50.0604 61.6773 50.1021C62.022 50.1212 62.3674 50.1226 62.7122 50.1063C62.2292 50.2164 61.7377 50.2854 61.243 50.3126C60.4694 50.3503 59.6941 50.3205 58.9257 50.2235L58.7572 50.3467C58.1191 50.8415 57.6223 51.4954 57.3164 52.2427C57.2181 52.4722 56.9855 53.1259 57.0039 52.9402C57.1087 52.0713 57.389 51.2328 57.8278 50.4756C57.9304 50.3243 58.0464 50.1827 58.1745 50.0524C57.8364 49.9903 57.5206 49.84 57.259 49.6169C56.9975 49.3937 56.7994 49.1055 56.6848 48.7814C56.5496 48.7982 56.4129 48.7976 56.2779 48.7797C56.1732 48.7632 56.0698 48.7391 55.9686 48.7077C55.9683 48.7873 55.8617 48.8753 55.8082 48.9812C55.7475 49.1021 55.6759 49.2173 55.5945 49.3253C55.3551 49.6168 55.0345 49.8305 54.6734 49.9393C54.3122 50.0481 53.9269 50.047 53.5663 49.9363C53.5094 50.2886 53.4099 50.6327 53.2702 50.9612C53.1421 51.3361 52.9491 51.6857 52.6999 51.9938C52.459 52.2019 52.1599 52.3307 51.8431 52.3627C51.5264 52.3946 51.2076 52.3281 50.93 52.1723C49.8208 51.6625 48.8971 50.8211 48.2861 49.7643L48.8322 50.3238C49.5195 50.9989 50.5948 51.9409 51.6567 51.8391C52.4 51.7714 52.9168 50.8713 53.0963 50.2262C53.1061 50.0849 53.1066 49.9431 53.0981 49.8017C53.0054 49.7592 52.9168 49.7085 52.8333 49.6502C51.2253 48.5809 49.9258 47.1085 49.0648 45.3799C49.2593 45.3935 49.4461 45.4617 49.6035 45.5768C49.744 45.8247 49.9027 46.0619 50.0783 46.2864C50.958 47.493 52.0839 49.0368 53.6039 49.4057C54.0314 49.5338 54.4897 49.5139 54.9045 49.3491C55.1503 49.1877 55.3543 48.9702 55.4997 48.7146L55.5978 48.5292C55.2049 48.2845 54.8487 47.9852 54.5399 47.6403C53.721 46.7017 53.051 45.6428 52.5536 44.5008C52.1572 43.8019 51.8624 43.0501 51.6781 42.2681C51.8007 42.2859 51.9198 42.3222 52.0315 42.3757C52.0299 42.355 52.03 42.3343 52.0318 42.3137L52.0313 42.4287C52.2358 43.0084 52.4848 43.5713 52.7763 44.1125C53.3487 45.2667 54.0538 46.3502 54.8773 47.3409C55.1917 47.8101 55.6359 48.1777 56.1556 48.3988C56.3102 48.4304 56.4696 48.4311 56.6244 48.4007L56.6249 48.2946C56.6489 47.7588 56.8305 47.242 57.147 46.809C57.4635 46.376 57.9008 46.046 58.404 45.8604L58.546 45.746C58.4981 45.4077 58.4256 45.0733 58.3289 44.7455C58.0907 43.707 57.7996 42.6813 57.4569 41.6725C57.3257 41.3093 57.2034 40.9372 57.081 40.5741C57.1037 40.351 57.1707 40.1347 57.2782 39.938C57.6271 40.6707 57.9197 41.4289 58.1535 42.2061C58.3371 42.7553 58.4852 43.3132 58.6333 43.871C58.7813 44.4289 58.9039 44.7567 59.0614 45.1731C59.061 45.2704 59.1313 45.3857 59.1574 45.492L59.1574 45.4743Z" fill="#D06644"/>
<path d="M69.0002 75C69.0002 75 81.2322 96.2328 94.6954 100.992C107.654 105.565 126.637 112.659 137.818 124.053C143.029 129.36 148.531 135.844 149.513 134.729C151.034 133.013 151.406 131.386 152.644 130.908C155.368 129.864 165.913 137.684 166.381 143.133C166.806 148.202 163.047 163.124 150.096 157.419C135.634 151.059 131.812 146.866 131.812 146.866C131.812 146.866 136.049 167.078 134.758 174.854C134.316 177.507 133.873 179.073 132.688 178.392C118.918 180.763 85.2863 174.597 78.2274 176.782C78.2274 176.782 77.6232 166.742 82.161 127.511C82.161 127.511 71.8717 121.567 61.0002 112.5C52.526 105.423 50.0002 91 47.0002 82C53.5002 76.5 65.0002 75 69.0002 75Z" fill="url(#paint20_linear_5395_7364)"/>
<path d="M131.169 146.998C130.913 145.963 127.295 131.323 126.163 128.245C125.03 125.167 131.532 138.285 134.593 141.868C137.653 145.45 149.675 158.064 159.538 157.498C157.078 159.064 153.779 159.462 149.453 157.551C135.079 151.226 131.214 147.051 131.169 146.998Z" fill="url(#paint21_linear_5395_7364)"/>
<path d="M119.457 90.275C118.272 90.0361 113.61 88.9658 112.009 88.7712C110.408 88.5766 110.24 94.9632 114.336 96.0424C118.157 97.0154 121.023 90.5934 119.457 90.275Z" fill="#802419"/>
<path d="M119.864 90.7173C119.848 90.6115 119.8 90.513 119.728 90.4343C119.656 90.3555 119.561 90.3001 119.457 90.275C118.272 90.0362 113.61 88.9658 112.009 88.7712C111.708 88.7712 111.452 88.9393 111.266 89.302C111.753 90.1866 113.035 90.7969 115.919 91.425C118.157 91.9026 119.289 91.3365 119.864 90.7173Z" fill="white"/>
<path d="M117.828 87.9549C117.673 87.9725 117.507 87.8895 117.433 87.6943C117.358 87.4991 117.49 87.2806 117.697 87.2573C117.697 87.2573 118.253 87.0925 118.253 86.6344C118.254 86.1763 117.647 84.9726 117.315 84.3486C117.189 84.1592 117.27 83.9466 117.471 83.873C117.666 83.7491 117.883 83.8262 117.958 84.0214C118.084 84.2107 118.948 85.8433 118.987 86.6532C119.021 87.4128 118.344 87.8966 117.937 87.9935C117.88 87.9491 117.828 87.9549 117.828 87.9549Z" fill="#B4603F"/>
<defs>
<radialGradient id="paint0_radial_5395_7364" cx="0" cy="0" r="1" gradientUnits="userSpaceOnUse" gradientTransform="translate(152.146 150.46) scale(1.68691 1.68691)">
<stop stop-color="white"/>
<stop offset="1" stop-color="#FED5AB"/>
</radialGradient>
<radialGradient id="paint1_radial_5395_7364" cx="0" cy="0" r="1" gradientUnits="userSpaceOnUse" gradientTransform="translate(158.285 115.664) scale(1.68691 1.68691)">
<stop stop-color="white"/>
<stop offset="1" stop-color="#FED5AB"/>
</radialGradient>
<linearGradient id="paint2_linear_5395_7364" x1="228.487" y1="200.554" x2="90.4868" y2="-20.9458" gradientUnits="userSpaceOnUse">
<stop stop-color="#3079E4"/>
<stop offset="1" stop-color="#D3E7FF"/>
</linearGradient>
<linearGradient id="paint3_linear_5395_7364" x1="165.662" y1="-12.6174" x2="186.403" y2="173.122" gradientUnits="userSpaceOnUse">
<stop stop-color="#F2F2F2"/>
<stop offset="1" stop-color="white"/>
</linearGradient>
<linearGradient id="paint4_linear_5395_7364" x1="205.041" y1="7.93664" x2="176.35" y2="5.86257" gradientUnits="userSpaceOnUse">
<stop stop-color="#E0F2FF"/>
<stop offset="1" stop-color="#7FAAFE"/>
</linearGradient>
<linearGradient id="paint5_linear_5395_7364" x1="205.117" y1="6.8996" x2="176.426" y2="4.82553" gradientUnits="userSpaceOnUse">
<stop stop-color="#4C93FE"/>
<stop offset="1" stop-color="#3155D2"/>
</linearGradient>
<linearGradient id="paint6_linear_5395_7364" x1="226.633" y1="45.9817" x2="233.359" y2="45.9817" gradientUnits="userSpaceOnUse">
<stop stop-color="#8AB8FE"/>
<stop offset="1" stop-color="#3B75CB"/>
</linearGradient>
<linearGradient id="paint7_linear_5395_7364" x1="195.131" y1="38.5934" x2="194.13" y2="35.179" gradientUnits="userSpaceOnUse">
<stop stop-color="#0071BB"/>
<stop offset="0.218" stop-color="#0274BD"/>
<stop offset="0.414" stop-color="#0B7FC4"/>
<stop offset="0.603" stop-color="#1A91D0"/>
<stop offset="0.785" stop-color="#2EABE1"/>
<stop offset="0.936" stop-color="#44C7F4"/>
</linearGradient>
<linearGradient id="paint8_linear_5395_7364" x1="202.258" y1="38.4153" x2="201.424" y2="35.573" gradientUnits="userSpaceOnUse">
<stop stop-color="#FFDD00"/>
<stop offset="0.097" stop-color="#FFDD00"/>
<stop offset="0.223" stop-color="#FDD403"/>
<stop offset="0.43" stop-color="#FBBB0B"/>
<stop offset="0.689" stop-color="#F69419"/>
<stop offset="0.801" stop-color="#F48120"/>
<stop offset="1" stop-color="#F48120"/>
</linearGradient>
<linearGradient id="paint9_linear_5395_7364" x1="191.234" y1="40.8104" x2="203.407" y2="42.9459" gradientUnits="userSpaceOnUse">
<stop offset="0.038" stop-color="#FFDD00"/>
<stop offset="0.283" stop-color="#FBC109"/>
<stop offset="0.769" stop-color="#F48120"/>
</linearGradient>
<linearGradient id="paint10_linear_5395_7364" x1="191.655" y1="38.4096" x2="203.829" y2="40.5453" gradientUnits="userSpaceOnUse">
<stop stop-color="#EAC900"/>
<stop offset="0.491" stop-color="#F48120"/>
</linearGradient>
<linearGradient id="paint11_linear_5395_7364" x1="200.223" y1="36.5895" x2="204.478" y2="37.336" gradientUnits="userSpaceOnUse">
<stop stop-color="#F48120"/>
<stop offset="0.13" stop-color="#F48120"/>
<stop offset="0.509" stop-color="#F48120"/>
<stop offset="1" stop-color="#EAC900"/>
</linearGradient>
<linearGradient id="paint12_linear_5395_7364" x1="192.399" y1="33.1875" x2="204.57" y2="35.3226" gradientUnits="userSpaceOnUse">
<stop offset="0.16" stop-color="#0071BB"/>
<stop offset="0.366" stop-color="#1186C9"/>
<stop offset="1" stop-color="#44C7F4"/>
</linearGradient>
<linearGradient id="paint13_linear_5395_7364" x1="191.979" y1="35.5887" x2="204.15" y2="37.7238" gradientUnits="userSpaceOnUse">
<stop stop-color="#005CA6"/>
<stop offset="0.16" stop-color="#005CA6"/>
<stop offset="0.406" stop-color="#0077BC"/>
<stop offset="1" stop-color="#00B8F1"/>
</linearGradient>
<linearGradient id="paint14_linear_5395_7364" x1="191.235" y1="40.8099" x2="203.408" y2="42.9454" gradientUnits="userSpaceOnUse">
<stop stop-color="#E8C81C"/>
<stop offset="0.769" stop-color="#DC7727"/>
</linearGradient>
<linearGradient id="paint15_linear_5395_7364" x1="191.572" y1="37.4064" x2="195.826" y2="38.1527" gradientUnits="userSpaceOnUse">
<stop stop-color="#1B92D0"/>
<stop offset="0.84" stop-color="#015DA6"/>
<stop offset="1" stop-color="#015DA6"/>
</linearGradient>
<linearGradient id="paint16_linear_5395_7364" x1="104.13" y1="105.171" x2="109.013" y2="97.2703" gradientUnits="userSpaceOnUse">
<stop stop-color="#FFBCA0" stop-opacity="0"/>
<stop offset="0.99" stop-color="#BC5A32"/>
</linearGradient>
<linearGradient id="paint17_linear_5395_7364" x1="111.758" y1="79.7045" x2="108.515" y2="74.2264" gradientUnits="userSpaceOnUse">
<stop stop-color="#BC5A32" stop-opacity="0"/>
<stop offset="0.99" stop-color="#FB9D76"/>
</linearGradient>
<linearGradient id="paint18_linear_5395_7364" x1="97.8631" y1="90.7783" x2="97.7071" y2="87.7842" gradientUnits="userSpaceOnUse">
<stop stop-color="#CC7A5E" stop-opacity="0"/>
<stop offset="0.924" stop-color="#AA5F4B"/>
</linearGradient>
<linearGradient id="paint19_linear_5395_7364" x1="102.142" y1="67.9831" x2="118.212" y2="99.4495" gradientUnits="userSpaceOnUse">
<stop stop-color="#F3885B"/>
<stop offset="1" stop-color="#FECCB7"/>
</linearGradient>
<linearGradient id="paint20_linear_5395_7364" x1="101.091" y1="73.7292" x2="101.091" y2="178.944" gradientUnits="userSpaceOnUse">
<stop stop-color="#FFCD71"/>
<stop offset="1" stop-color="#FFFDFA"/>
</linearGradient>
<linearGradient id="paint21_linear_5395_7364" x1="142.785" y1="127.781" x2="142.785" y2="158.834" gradientUnits="userSpaceOnUse">
<stop stop-color="#F3BC51"/>
<stop offset="1" stop-color="#F3BC51" stop-opacity="0"/>
</linearGradient>
</defs>
</svg>
