<svg width="234" height="449" viewBox="0 0 234 449" fill="none" xmlns="http://www.w3.org/2000/svg">
<g filter="url(#filter0_dd_630_27219)">
<rect x="16.5" y="13.3003" width="201" height="405" rx="21.5" fill="#D9D9D9" stroke="url(#paint0_linear_630_27219)"/>
<g clip-path="url(#clip0_630_27219)">
<rect x="18.084" y="18.395" width="196.507" height="396.609" rx="14.3786" fill="#050E1A"/>
<g opacity="0.1" filter="url(#filter1_b_630_27219)">
<path d="M160.297 110.732C164.013 112.751 169.136 114.47 175.233 115.786C183.777 117.629 194.291 118.69 205.664 118.645C205.665 118.645 205.665 118.645 205.665 118.645L160.297 110.732ZM160.297 110.732L205.664 154.506L251.182 110.586L160.297 110.732Z" fill="url(#paint1_linear_630_27219)" stroke="white" stroke-width="0.766857"/>
<path d="M165.712 106.814L165.708 106.813C163.348 106.009 160.381 104.63 158.397 103.045C157.4 102.25 156.694 101.436 156.406 100.655C156.265 100.271 156.226 99.9005 156.297 99.5402C156.367 99.1836 156.55 98.8123 156.89 98.431C159.349 96.1526 163.643 94.0817 169.314 92.3885C174.882 90.7261 181.737 89.4393 189.397 88.6697V111.711C181.253 110.897 173.479 109.548 165.712 106.814Z" fill="url(#paint2_linear_630_27219)" stroke="white" stroke-width="0.766857"/>
<path d="M160.144 95.2005C163.793 93.2135 168.818 91.5061 174.798 90.1812C183.424 88.27 194.102 87.1411 205.662 87.1411M160.144 95.2005L205.663 87.1411C205.662 87.1411 205.662 87.1411 205.662 87.1411M160.144 95.2005L205.663 51.2796L251.096 95.1185M160.144 95.2005L251.096 95.1185M205.662 87.1411C217.036 87.096 227.55 88.1797 236.094 90.0343C242.228 91.3658 247.375 93.1007 251.096 95.1185M205.662 87.1411L251.096 95.1185" fill="url(#paint3_linear_630_27219)" stroke="white" stroke-width="0.766857"/>
</g>
<g filter="url(#filter2_d_630_27219)">
<g clip-path="url(#clip1_630_27219)">
<path d="M32.4624 65.1254H200.212V140.64H32.4624V65.1254Z" fill="url(#paint4_linear_630_27219)"/>
<rect x="41.0923" y="75.9131" width="55.0177" height="7.55145" rx="2.15756" fill="url(#paint5_linear_630_27219)"/>
<rect x="41.0923" y="85.6221" width="81.4478" height="11.8666" rx="2.15756" fill="url(#paint6_linear_630_27219)"/>
<path d="M152.046 81.0512C151.592 81.0512 150.996 80.7673 150.996 79.9158C150.996 79.0643 151.648 78.8088 152.046 78.8088C152.358 78.8088 152.557 78.894 152.642 78.9224L152.472 79.2346C152.386 79.1778 152.244 79.1778 152.159 79.1778C151.819 79.1778 151.535 79.49 151.535 79.9158C151.535 80.2848 151.79 80.6538 152.159 80.6538C152.273 80.6538 152.358 80.6538 152.443 80.597L152.642 80.9092C152.5 81.0228 152.244 81.0512 152.017 81.0512H152.046Z" fill="#F6B333"/>
<path d="M157.268 80.9945V79.4902C157.268 79.2347 157.098 79.2064 156.984 79.2064C156.871 79.2064 156.785 79.2347 156.729 79.2915V80.9945H156.189V79.4902C156.189 79.405 156.161 79.3199 156.104 79.2631C156.076 79.2064 155.991 79.2064 155.877 79.2064C155.764 79.2064 155.679 79.2064 155.65 79.2347V80.9945H155.111V78.8941C155.31 78.8374 155.593 78.809 155.764 78.809C155.934 78.7806 156.161 78.809 156.275 78.8658C156.36 78.8941 156.445 78.9509 156.502 79.0077C156.558 78.9509 156.644 78.8941 156.757 78.8658C156.842 78.809 156.984 78.809 157.126 78.809C157.296 78.809 157.495 78.8658 157.637 79.0077C157.694 79.0644 157.807 79.2064 157.807 79.4902V80.9945H157.268Z" fill="#F6B333"/>
<path d="M154.373 79.9158C154.373 80.5119 154.118 80.6538 153.891 80.6538C153.664 80.6538 153.408 80.5119 153.408 79.9158C153.408 79.3197 153.664 79.1778 153.891 79.1778C154.118 79.1778 154.373 79.3481 154.373 79.9158ZM154.913 79.9158C154.913 79.2062 154.544 78.8088 153.891 78.8088C153.238 78.8088 152.869 79.2062 152.869 79.9158C152.869 80.6254 153.238 81.0512 153.891 81.0512C154.544 81.0512 154.913 80.6254 154.913 79.9158Z" fill="#F6B333"/>
<path d="M147.419 79.0361C147.419 78.4684 147.135 78.3549 146.965 78.3549C146.88 78.3265 146.766 78.3549 146.766 78.3549V79.7173H146.88C147.135 79.7173 147.419 79.5186 147.419 79.0361ZM148.157 79.0361C148.157 79.4619 147.958 79.7457 147.845 79.8592C147.618 80.0863 147.419 80.1431 146.88 80.1431H146.766V81.023H146V77.9859C146 77.9859 146.426 77.9291 146.852 77.9291C147.476 77.9291 147.703 78.0427 147.873 78.213C148.015 78.3549 148.157 78.6671 148.157 79.0361Z" fill="#F6B333"/>
<path d="M149.889 81.0229H149.265L148.186 77.9858H149.094C149.094 77.9858 149.605 79.774 149.605 79.8307C149.605 79.774 150.145 77.9858 150.145 77.9858H150.968L149.889 81.0229Z" fill="#F6B333"/>
<path d="M159.312 80.3416C159.312 80.143 159.255 79.8875 158.659 79.8875H158.574V80.6823C158.744 80.739 158.971 80.7106 159.113 80.6539C159.255 80.5687 159.312 80.4836 159.312 80.3416ZM159.255 79.2347C159.255 79.036 159.113 78.9225 158.829 78.9225C158.687 78.9225 158.631 78.9508 158.574 78.9508V79.632H158.659C159.142 79.632 159.255 79.4334 159.255 79.2347ZM159.738 80.739C159.539 80.9377 159.227 81.0512 158.773 81.0512C158.432 81.0512 158.035 80.9945 158.035 80.9945V78.6386C158.035 78.6386 158.375 78.6102 158.631 78.6102C159.255 78.6102 159.397 78.6954 159.511 78.7805C159.653 78.8657 159.794 79.0076 159.794 79.2347C159.794 79.6037 159.425 79.6888 159.34 79.7456C159.511 79.8024 159.709 79.8875 159.794 80.0862C159.908 80.2565 159.851 80.6255 159.738 80.739Z" fill="#F6B333"/>
<path d="M161.214 79.859C160.789 79.859 160.59 80.001 160.59 80.2848C160.59 80.5403 160.76 80.7106 161.044 80.7106C161.129 80.7106 161.214 80.6822 161.214 80.6822V79.859ZM161.754 80.9944C161.754 80.9944 161.413 81.0512 161.186 81.0512C160.391 81.0512 160.079 80.7673 160.079 80.2848C160.079 79.9158 160.448 79.5752 161.214 79.5752V79.49C161.214 79.3765 161.129 79.1778 160.817 79.1778C160.618 79.1778 160.476 79.2346 160.391 79.2914L160.221 78.9508C160.335 78.894 160.59 78.8088 160.959 78.8088C161.328 78.8088 161.754 79.0075 161.754 79.49V80.9944Z" fill="#F6B333"/>
<path d="M163.144 80.9946V79.6606C163.144 79.3767 163.115 79.2632 162.888 79.2064C162.775 79.178 162.633 79.2064 162.519 79.2348V80.9946H161.98V78.8942C161.98 78.8942 162.321 78.8091 162.633 78.8091C163.03 78.7807 163.229 78.8374 163.428 78.951C163.626 79.0929 163.683 79.32 163.683 79.4619V80.9946H163.144Z" fill="#F6B333"/>
<path d="M165.159 80.9945L164.449 80.1714V80.9945H163.91V78.6387H164.449V79.547L165.074 78.8374H165.812L164.818 79.8592L165.869 80.9945H165.159Z" fill="#F6B333"/>
<path d="M166.379 78.1844C166.237 78.3547 166.578 78.5534 166.805 78.6386C167.202 78.7805 167.571 78.8373 167.969 78.8656V77.6735C167.231 77.7587 166.635 77.9574 166.379 78.1844Z" fill="#F6B333"/>
<path d="M169.531 79.1495C170.269 79.0644 170.865 78.8941 171.12 78.667C171.262 78.4967 170.922 78.298 170.694 78.2129C170.297 78.0709 169.928 77.9858 169.531 77.9574V79.1495Z" fill="#F6B333"/>
<path d="M168.735 79.178C167.713 79.178 166.805 79.0077 166.436 78.7238L168.764 81.0229L171.119 78.6387C170.807 78.9509 169.87 79.178 168.735 79.178Z" fill="#F6B333"/>
<path d="M168.735 79.178C167.713 79.178 166.805 79.0077 166.436 78.7238C166.805 79.036 167.713 79.2347 168.735 79.2347C169.87 79.2347 170.807 78.9793 171.119 78.6387C170.807 78.9509 169.87 79.178 168.735 79.178Z" fill="#F6B333"/>
<path d="M169.531 77.9858C169.928 78.0425 170.297 78.0993 170.666 78.2412C170.865 78.298 171.149 78.4399 171.149 78.5818C171.149 78.4115 170.865 78.2696 170.694 78.2129C170.297 78.0709 169.928 77.9858 169.531 77.9574V77.9858Z" fill="#F6B333"/>
<path d="M166.379 78.1845C166.691 77.8723 167.628 77.6452 168.735 77.6452C169.842 77.6452 170.665 77.8439 171.062 78.1278L168.735 75.8003L166.379 78.1845Z" fill="#F6B333"/>
<path d="M168.735 77.5885C167.628 77.5885 166.691 77.844 166.379 78.1846C166.691 77.8723 167.628 77.6453 168.735 77.6453C169.842 77.6453 170.665 77.844 171.062 78.1278C170.665 77.8156 169.785 77.5885 168.763 77.5885H168.735Z" fill="#F6B333"/>
<path d="M168.764 80.9945L166.436 78.7238L168.764 81.0229L171.119 78.6387L168.764 80.9945Z" fill="#F6B333"/>
<path d="M166.805 78.6386C167.203 78.7805 167.572 78.8373 167.969 78.8657V78.8373C167.572 78.8089 167.203 78.7237 166.805 78.6102C166.635 78.525 166.351 78.4115 166.351 78.2696C166.323 78.4115 166.607 78.5534 166.805 78.6386Z" fill="#F6B333"/>
<path d="M147.079 83.7761V88.1472H147.675C148.015 88.1472 148.356 88.1188 148.64 88.0337C148.924 87.9485 149.179 87.835 149.378 87.6363C149.605 87.466 149.747 87.2389 149.86 86.9551C149.974 86.6713 150.031 86.359 150.031 85.9617C150.031 85.6494 150.002 85.394 149.945 85.1669C149.889 84.9398 149.803 84.7412 149.69 84.5992C149.605 84.4289 149.463 84.287 149.321 84.2019C149.179 84.0883 149.037 84.0032 148.867 83.9464C148.668 83.8896 148.498 83.8329 148.299 83.8045C148.1 83.8045 147.902 83.7761 147.675 83.7761H147.079ZM147.079 88.6297V90.5315H146V83.2936H147.817C148.327 83.2936 148.753 83.3503 149.122 83.4355C149.491 83.5207 149.775 83.6342 150.031 83.7761C150.286 83.918 150.485 84.0883 150.627 84.2586C150.768 84.4573 150.882 84.656 150.967 84.8547C151.052 85.0534 151.109 85.2521 151.109 85.4508C151.137 85.6494 151.166 85.8197 151.166 85.99C151.166 86.1603 151.137 86.359 151.109 86.5577C151.081 86.7564 151.024 86.9267 150.939 87.1254C150.854 87.3241 150.74 87.5228 150.598 87.6931C150.456 87.8634 150.258 88.0337 150.002 88.1756C149.747 88.3175 149.463 88.4311 149.094 88.5162C148.725 88.6014 148.299 88.6297 147.817 88.6297H147.079Z" fill="#F6B333"/>
<path d="M153.721 83.7761V87.2957H154.345C154.686 87.2957 154.998 87.2673 155.282 87.2106C155.566 87.1254 155.793 87.0402 155.991 86.8983C156.19 86.7564 156.332 86.5577 156.445 86.359C156.559 86.132 156.616 85.8481 156.616 85.5359C156.616 85.1669 156.559 84.8547 156.417 84.6276C156.275 84.4005 156.105 84.2302 155.906 84.1167C155.679 83.9748 155.452 83.8896 155.168 83.8613C154.913 83.8045 154.629 83.7761 154.345 83.7761H153.721ZM154.941 83.2936C155.338 83.2936 155.707 83.3503 155.991 83.4071C156.304 83.4923 156.559 83.5774 156.758 83.691C156.956 83.8329 157.127 83.9748 157.269 84.1167C157.382 84.2586 157.496 84.4289 157.552 84.5992C157.638 84.7695 157.666 84.9398 157.694 85.0818C157.723 85.2521 157.751 85.394 157.751 85.5359C157.751 85.7346 157.723 85.9333 157.666 86.132C157.609 86.359 157.496 86.5861 157.354 86.7848C157.212 86.9835 156.985 87.1822 156.729 87.3525C156.474 87.5228 156.162 87.6363 155.764 87.6931L157.865 90.5315H156.559L154.515 87.7782H153.721V90.5315H152.67V83.2936H154.941Z" fill="#F6B333"/>
<path d="M163.627 83.2936V83.7761H160.277V85.9617H163.513V86.4442H160.277V90.0489H163.627V90.5315H159.199V83.2936H163.627Z" fill="#F6B333"/>
<path d="M168.764 86.2171L171.007 83.6058V83.2936H172.085V90.5315H171.007V84.3438L168.452 87.2957L165.926 84.3438V90.5315H165.415V83.7761L165.046 83.2936H166.295L168.764 86.2171Z" fill="#F6B333"/>
<path d="M175.405 83.2936H174.327V90.5315H175.405V83.2936Z" fill="#F6B333"/>
<path d="M182.076 83.2936V83.7761H178.727V85.9617H181.963V86.4442H178.727V90.0489H182.076V90.5315H177.648V83.2936H182.076Z" fill="#F6B333"/>
<path d="M184.63 83.7761V87.2957H185.255C185.595 87.2957 185.908 87.2673 186.191 87.2106C186.475 87.1254 186.702 87.0402 186.901 86.8983C187.1 86.7564 187.27 86.5577 187.384 86.359C187.469 86.132 187.525 85.8481 187.525 85.5359C187.525 85.1669 187.469 84.8547 187.327 84.6276C187.213 84.4005 187.043 84.2302 186.816 84.1167C186.617 83.9748 186.362 83.8896 186.106 83.8613C185.822 83.8045 185.539 83.7761 185.255 83.7761H184.63ZM185.851 83.2936C186.248 83.2936 186.617 83.3503 186.929 83.4071C187.213 83.4923 187.469 83.5774 187.667 83.691C187.894 83.8329 188.065 83.9748 188.178 84.1167C188.32 84.2586 188.405 84.4289 188.49 84.5992C188.547 84.7695 188.604 84.9398 188.632 85.0818C188.632 85.2521 188.661 85.394 188.661 85.5359C188.661 85.7346 188.632 85.9333 188.576 86.132C188.519 86.359 188.405 86.5861 188.263 86.7848C188.121 86.9835 187.923 87.1822 187.667 87.3525C187.412 87.5228 187.071 87.6363 186.674 87.6931L188.774 90.5315H187.469L185.425 87.7782H184.63V90.5315H183.58V83.2936H185.851Z" fill="#F6B333"/>
<rect width="167.75" height="29.127" transform="translate(32.4624 140.64)" fill="url(#paint7_linear_630_27219)"/>
</g>
</g>
<rect opacity="0.2" x="32.4624" y="184.947" width="167.75" height="73.0911" rx="7.18929" fill="#556579"/>
<rect opacity="0.2" x="32.4624" y="273.615" width="167.75" height="34.7482" rx="7.18929" fill="#556579"/>
<rect opacity="0.2" x="32.4624" y="323.94" width="167.75" height="34.7482" rx="7.18929" fill="#556579"/>
</g>
<path fill-rule="evenodd" clip-rule="evenodd" d="M217.196 397.33V34.1715C217.196 22.9167 208.073 13.7929 196.818 13.7929H76.7692H37.4552C26.2005 13.7929 17.0767 22.9167 17.0767 34.1715V397.33C17.0767 408.585 26.2005 417.709 37.4552 417.709H196.818C208.073 417.709 217.196 408.585 217.196 397.33ZM23.0767 34.1715C23.0767 26.2304 29.5142 19.7929 37.4552 19.7929H76.7692H81.864C81.864 27.5851 88.1808 33.9019 95.973 33.9019H138.3C146.092 33.9019 152.409 27.5851 152.409 19.7929H196.818C204.759 19.7929 211.196 26.2304 211.196 34.1715V397.33C211.196 405.271 204.759 411.709 196.818 411.709H37.4552C29.5142 411.709 23.0767 405.271 23.0767 397.33V34.1715Z" fill="#0A1A31"/>
<path d="M201.621 417.911C201.727 421.766 189.56 424.877 174.439 424.85C159.321 424.843 146.986 421.707 146.881 417.852C146.775 413.997 158.942 410.887 174.063 410.913C189.181 410.92 201.516 414.056 201.621 417.911Z" fill="url(#paint8_radial_630_27219)"/>
</g>
<defs>
<filter id="filter0_dd_630_27219" x="0" y="0.800293" width="234.084" height="448.05" filterUnits="userSpaceOnUse" color-interpolation-filters="sRGB">
<feFlood flood-opacity="0" result="BackgroundImageFix"/>
<feColorMatrix in="SourceAlpha" type="matrix" values="0 0 0 0 0 0 0 0 0 0 0 0 0 0 0 0 0 0 127 0" result="hardAlpha"/>
<feOffset dy="4"/>
<feGaussianBlur stdDeviation="8"/>
<feComposite in2="hardAlpha" operator="out"/>
<feColorMatrix type="matrix" values="0 0 0 0 0 0 0 0 0 0 0 0 0 0 0 0 0 0 0.05 0"/>
<feBlend mode="normal" in2="BackgroundImageFix" result="effect1_dropShadow_630_27219"/>
<feColorMatrix in="SourceAlpha" type="matrix" values="0 0 0 0 0 0 0 0 0 0 0 0 0 0 0 0 0 0 127 0" result="hardAlpha"/>
<feOffset dy="8"/>
<feGaussianBlur stdDeviation="8"/>
<feComposite in2="hardAlpha" operator="out"/>
<feColorMatrix type="matrix" values="0 0 0 0 0 0 0 0 0 0 0 0 0 0 0 0 0 0 0.05 0"/>
<feBlend mode="normal" in2="effect1_dropShadow_630_27219" result="effect2_dropShadow_630_27219"/>
<feBlend mode="normal" in="SourceGraphic" in2="effect2_dropShadow_630_27219" result="shape"/>
</filter>
<filter id="filter1_b_630_27219" x="148.21" y="43.0782" width="115.028" height="119.63" filterUnits="userSpaceOnUse" color-interpolation-filters="sRGB">
<feFlood flood-opacity="0" result="BackgroundImageFix"/>
<feGaussianBlur in="BackgroundImageFix" stdDeviation="3.83429"/>
<feComposite in2="SourceAlpha" operator="in" result="effect1_backgroundBlur_630_27219"/>
<feBlend mode="normal" in="SourceGraphic" in2="effect1_backgroundBlur_630_27219" result="shape"/>
</filter>
<filter id="filter2_d_630_27219" x="28.1473" y="62.9678" width="176.38" height="113.272" filterUnits="userSpaceOnUse" color-interpolation-filters="sRGB">
<feFlood flood-opacity="0" result="BackgroundImageFix"/>
<feColorMatrix in="SourceAlpha" type="matrix" values="0 0 0 0 0 0 0 0 0 0 0 0 0 0 0 0 0 0 127 0" result="hardAlpha"/>
<feOffset dy="2.15756"/>
<feGaussianBlur stdDeviation="2.15756"/>
<feColorMatrix type="matrix" values="0 0 0 0 0 0 0 0 0 0 0 0 0 0 0 0 0 0 0.05 0"/>
<feBlend mode="normal" in2="BackgroundImageFix" result="effect1_dropShadow_630_27219"/>
<feBlend mode="normal" in="SourceGraphic" in2="effect1_dropShadow_630_27219" result="shape"/>
</filter>
<linearGradient id="paint0_linear_630_27219" x1="25.9984" y1="13.801" x2="199.5" y2="417.8" gradientUnits="userSpaceOnUse">
<stop stop-color="#FCDFAA"/>
<stop offset="1" stop-color="#F9C461"/>
</linearGradient>
<linearGradient id="paint1_linear_630_27219" x1="165.85" y1="114.626" x2="248.095" y2="114.626" gradientUnits="userSpaceOnUse">
<stop stop-color="white" stop-opacity="0.35"/>
<stop offset="1" stop-color="white"/>
</linearGradient>
<linearGradient id="paint2_linear_630_27219" x1="163.356" y1="93.5072" x2="189.608" y2="113.785" gradientUnits="userSpaceOnUse">
<stop stop-color="white" stop-opacity="0.35"/>
<stop offset="1" stop-color="white"/>
</linearGradient>
<linearGradient id="paint3_linear_630_27219" x1="254.312" y1="74.4908" x2="156.674" y2="74.4908" gradientUnits="userSpaceOnUse">
<stop stop-color="white" stop-opacity="0.35"/>
<stop offset="1" stop-color="white"/>
</linearGradient>
<linearGradient id="paint4_linear_630_27219" x1="110.944" y1="65.1254" x2="110.944" y2="140.64" gradientUnits="userSpaceOnUse">
<stop stop-color="#20344F"/>
<stop offset="1" stop-color="#0C1F3B"/>
</linearGradient>
<linearGradient id="paint5_linear_630_27219" x1="41.4707" y1="80.0664" x2="96.11" y2="80.0664" gradientUnits="userSpaceOnUse">
<stop stop-color="#FCDFAA"/>
<stop offset="1" stop-color="#F9C461"/>
</linearGradient>
<linearGradient id="paint6_linear_630_27219" x1="41.6524" y1="92.1487" x2="122.54" y2="92.1487" gradientUnits="userSpaceOnUse">
<stop stop-color="#FCDFAA"/>
<stop offset="1" stop-color="#F9C461"/>
</linearGradient>
<linearGradient id="paint7_linear_630_27219" x1="1.15372" y1="16.0198" x2="167.75" y2="16.0198" gradientUnits="userSpaceOnUse">
<stop stop-color="#FCDFAA"/>
<stop offset="1" stop-color="#F9C461"/>
</linearGradient>
<radialGradient id="paint8_radial_630_27219" cx="0" cy="0" r="1" gradientUnits="userSpaceOnUse" gradientTransform="translate(171.499 418.07) rotate(0.739812) scale(26.9456 7.29547)">
<stop stop-color="#FFFFE6"/>
<stop offset="0.03" stop-color="#FBF7D9" stop-opacity="0.92"/>
<stop offset="0.1" stop-color="#F3E4BB" stop-opacity="0.73"/>
<stop offset="0.17" stop-color="#EBD39F" stop-opacity="0.56"/>
<stop offset="0.25" stop-color="#E4C487" stop-opacity="0.41"/>
<stop offset="0.33" stop-color="#DFB772" stop-opacity="0.28"/>
<stop offset="0.42" stop-color="#DAAD62" stop-opacity="0.18"/>
<stop offset="0.52" stop-color="#D7A555" stop-opacity="0.1"/>
<stop offset="0.64" stop-color="#D4A04C" stop-opacity="0.04"/>
<stop offset="0.77" stop-color="#D39C47" stop-opacity="0"/>
<stop offset="1" stop-color="#D39C46" stop-opacity="0"/>
</radialGradient>
<clipPath id="clip0_630_27219">
<rect width="196.507" height="396.609" fill="white" transform="translate(18.084 19.5931)"/>
</clipPath>
<clipPath id="clip1_630_27219">
<rect x="32.4624" y="65.1254" width="167.75" height="104.642" rx="8.63023" fill="white"/>
</clipPath>
</defs>
</svg>
