<svg width="233" height="440" viewBox="0 0 233 440" fill="none" xmlns="http://www.w3.org/2000/svg">
<g filter="url(#filter0_dd_81_19137)">
<g clip-path="url(#clip0_81_19137)">
<g clip-path="url(#clip1_81_19137)">
<rect x="17.3828" y="17.5947" width="196.507" height="396.609" rx="14.3786" fill="url(#paint0_linear_81_19137)"/>
<g opacity="0.2" filter="url(#filter1_b_81_19137)">
<path d="M250.482 109.785C246.832 111.772 241.808 113.48 235.828 114.805C227.202 116.716 216.524 117.845 204.964 117.845M250.482 109.785L204.963 117.845C204.963 117.845 204.964 117.845 204.964 117.845M250.482 109.785L204.963 153.706L159.596 109.932C163.313 111.95 168.436 113.67 174.532 114.985C183.076 116.829 193.591 117.89 204.964 117.845M250.482 109.785L204.964 117.845" fill="url(#paint1_linear_81_19137)" stroke="white" stroke-width="0.766857"/>
<path d="M165.01 106.014L165.006 106.013C162.646 105.209 159.679 103.83 157.695 102.245C156.699 101.45 155.993 100.636 155.705 99.8546C155.563 99.4708 155.525 99.1003 155.596 98.7401C155.666 98.3835 155.848 98.0122 156.188 97.6309C158.647 95.3525 162.942 93.2816 168.613 91.5884C174.18 89.926 181.036 88.6392 188.695 87.8696V110.911C180.551 110.097 172.778 108.748 165.01 106.014Z" fill="url(#paint2_linear_81_19137)" stroke="white" stroke-width="0.766857"/>
<path d="M159.443 94.4001C163.092 92.413 168.116 90.7056 174.096 89.3807C182.722 87.4695 193.4 86.3406 204.96 86.3406M159.443 94.4001L204.961 86.3406C204.961 86.3406 204.961 86.3406 204.96 86.3406M159.443 94.4001L204.961 50.4791L250.394 94.318M159.443 94.4001L250.394 94.318M204.96 86.3406C216.334 86.2955 226.848 87.3793 235.392 89.2339C241.526 90.5653 246.673 92.3002 250.394 94.318M204.96 86.3406L250.394 94.318" fill="url(#paint3_linear_81_19137)" stroke="white" stroke-width="0.766857"/>
</g>
<g filter="url(#filter2_d_81_19137)">
<g clip-path="url(#clip2_81_19137)">
<path d="M31.7615 64.3252H199.512V139.84H31.7615V64.3252Z" fill="url(#paint4_linear_81_19137)"/>
<rect opacity="0.5" x="40.3911" y="75.1133" width="55.0177" height="7.55145" rx="2.15756" fill="#8D8D90"/>
<rect opacity="0.5" x="40.3911" y="84.8223" width="81.4478" height="11.8666" rx="2.15756" fill="#8D8D90"/>
<g filter="url(#filter3_d_81_19137)">
<path d="M170.717 80.8293C169.862 80.8293 168.723 80.2674 168.723 78.6187C168.723 76.9215 169.975 76.4088 170.723 76.4088C171.11 76.3944 171.494 76.4809 171.838 76.6602L171.516 77.2647C171.328 77.1845 171.127 77.1405 170.923 77.135C170.284 77.135 169.757 77.7442 169.757 78.6133C169.757 79.335 170.237 80.0601 170.915 80.0601C171.115 80.0684 171.314 80.0235 171.492 79.9299L171.835 80.5749C171.472 80.7627 171.068 80.8504 170.661 80.8293" fill="#1C1C1E"/>
<path d="M180.442 80.7376V77.7624C180.45 77.6869 180.441 77.6107 180.417 77.539C180.393 77.4673 180.353 77.4018 180.302 77.3471C180.25 77.2924 180.188 77.2497 180.119 77.2219C180.05 77.1942 179.975 77.1822 179.901 77.1866C179.81 77.1812 179.719 77.1969 179.635 77.2325C179.55 77.2681 179.475 77.3227 179.414 77.3921V80.7376H178.375V77.746C178.378 77.6711 178.366 77.5964 178.339 77.5266C178.312 77.4567 178.272 77.3933 178.22 77.3404C178.159 77.2858 178.087 77.2441 178.01 77.2177C177.933 77.1913 177.852 77.1807 177.771 77.1866C177.622 77.1852 177.475 77.2119 177.336 77.2655V80.7376H176.304V76.6184C176.704 76.5133 177.112 76.445 177.524 76.4143C177.857 76.3893 178.192 76.4308 178.51 76.5364C178.676 76.6035 178.826 76.7071 178.949 76.8398C179.088 76.7117 179.249 76.6102 179.423 76.5399C179.665 76.4486 179.922 76.4063 180.18 76.4153C180.541 76.4118 180.888 76.5536 181.147 76.8098C181.261 76.9388 181.349 77.0894 181.406 77.2531C181.463 77.4168 181.488 77.5904 181.479 77.7639V80.7391L180.442 80.7376Z" fill="#1C1C1E"/>
<path d="M172.133 85.2943C171.801 85.6617 171.207 85.8928 170.319 85.8928C169.639 85.8928 168.888 85.8097 168.888 85.8097V81.1809C168.888 81.1809 169.569 81.1016 170.059 81.1016C171.228 81.1016 171.505 81.3105 171.716 81.443C171.875 81.5263 172.009 81.651 172.106 81.8045C172.202 81.9579 172.256 82.1346 172.264 82.3166C172.264 83.0561 171.587 83.2492 171.394 83.331V83.3442C171.58 83.3859 171.755 83.466 171.909 83.5796C172.063 83.6933 172.192 83.8379 172.289 84.0047C172.368 84.2164 172.395 84.4445 172.367 84.6692C172.34 84.8939 172.259 85.1083 172.132 85.2939L172.133 85.2943ZM171.228 82.3345C171.228 81.9441 170.95 81.7484 170.428 81.7484C170.259 81.7474 170.09 81.7659 169.925 81.8035V83.1043H170.068C171.029 83.1043 171.229 82.7164 171.229 82.3345H171.228ZM171.361 84.4986C171.361 84.1337 171.216 83.6397 170.068 83.6397H169.925V85.1882C170.279 85.2783 170.652 85.2464 170.986 85.0975C171.097 85.0438 171.192 84.9591 171.258 84.8531C171.324 84.7472 171.36 84.6242 171.36 84.4986" fill="#1C1C1E"/>
<path d="M175.949 85.8089C175.949 85.8089 175.294 85.892 174.849 85.892C173.324 85.892 172.688 85.3384 172.688 84.4213C172.688 83.6945 173.4 83.0163 174.908 83.0163V82.8235C174.908 82.6063 174.735 82.2438 174.14 82.2438C173.85 82.2458 173.565 82.3147 173.306 82.4454C173.301 82.4286 172.966 81.7989 172.966 81.7989C173.405 81.5763 173.89 81.4667 174.38 81.4795C175.129 81.4795 175.95 81.8974 175.95 82.8235L175.949 85.8089ZM174.909 83.5631C174.096 83.5631 173.712 83.8513 173.712 84.4222C173.71 84.5333 173.73 84.6437 173.772 84.7463C173.814 84.8489 173.876 84.9415 173.955 85.0181C174.034 85.0947 174.128 85.1537 174.23 85.1913C174.333 85.2289 174.442 85.2443 174.55 85.2364C174.672 85.2361 174.792 85.2181 174.909 85.183V83.5631Z" fill="#1C1C1E"/>
<path d="M178.786 85.8095V83.1909C178.786 82.6418 178.705 82.3704 178.265 82.2699C178.041 82.239 177.813 82.2603 177.598 82.3322V85.8095H176.569V81.6869C176.967 81.59 177.371 81.526 177.779 81.4953C178.549 81.455 178.933 81.5495 179.314 81.8068C179.471 81.9201 179.599 82.0705 179.686 82.2452C179.774 82.4198 179.818 82.6135 179.816 82.8096V85.8095H178.786Z" fill="#1C1C1E"/>
<path d="M175.783 78.6207C175.783 77.2356 175.067 76.4102 173.828 76.4102C172.589 76.4102 171.847 77.2356 171.847 78.6207C171.847 80.0059 172.59 80.8315 173.828 80.8315C175.066 80.8315 175.783 80.0069 175.783 78.6207ZM174.742 78.6207C174.742 79.7454 174.254 80.0659 173.828 80.0659C173.402 80.0659 172.888 79.7454 172.888 78.6207C172.888 77.496 173.404 77.176 173.828 77.176C174.252 77.176 174.742 77.4973 174.742 78.6207Z" fill="#1C1C1E"/>
<path d="M182.854 85.8093L181.474 84.148H181.465L181.478 85.8093H180.442V81.1846H181.478L181.465 82.9628H181.479L182.688 81.5781H184.1L182.173 83.5522L184.237 85.8093H182.854Z" fill="#1C1C1E"/>
<path d="M181.487 75.551C181.191 75.892 181.889 76.2883 182.34 76.4563C183.08 76.7197 183.849 76.8861 184.63 76.9513L184.627 74.5518C183.14 74.7067 181.969 75.0803 181.487 75.551Z" fill="#1C1C1E"/>
<path d="M163.722 76.9033C163.729 77.4955 163.516 78.0685 163.126 78.5071C162.702 78.9114 162.297 79.0518 161.242 79.0331H161.05V80.7381H159.596V74.8385C159.596 74.8385 160.386 74.7434 161.216 74.7384C162.388 74.7318 162.845 74.9529 163.191 75.2887C163.453 75.5431 163.722 76.1674 163.722 76.9033ZM162.294 76.8751C162.294 75.8039 161.771 75.5483 161.412 75.529C161.279 75.5222 161.05 75.5357 161.05 75.5357V78.2064H161.248C161.736 78.2064 162.294 77.8025 162.294 76.8751Z" fill="#1C1C1E"/>
<path d="M167.14 80.7379H165.913L163.853 74.8242H165.602C165.602 74.8242 166.562 78.3338 166.573 78.4139H166.582C166.593 78.3336 167.593 74.8242 167.593 74.8242H169.191L167.14 80.7379Z" fill="#1C1C1E"/>
<path d="M187.653 77.4997C189.14 77.3456 190.312 76.972 190.794 76.5009C191.09 76.1601 190.392 75.7641 189.94 75.5959C189.2 75.3324 188.431 75.166 187.65 75.1006L187.653 77.4997Z" fill="#1C1C1E"/>
<path d="M186.142 77.5772C184.1 77.5792 182.35 77.1826 181.617 76.6219C181.611 76.6176 181.608 76.6219 181.606 76.6234C181.606 76.6265 181.607 76.6295 181.609 76.6321L186.147 81.2559L190.801 76.4932C190.173 77.1187 188.326 77.5753 186.143 77.5776" fill="#1C1C1E"/>
<path d="M181.606 76.6329C181.606 76.6362 181.607 76.6394 181.609 76.6421V76.6317L181.608 76.6306L181.607 76.6321L181.606 76.6329ZM186.143 77.5772C184.101 77.5792 182.351 77.1826 181.618 76.6219C181.612 76.6176 181.609 76.6219 181.607 76.6234C181.607 76.626 181.608 76.6286 181.609 76.631C181.611 76.6292 181.614 76.6286 181.618 76.6321C182.351 77.2422 184.1 77.6704 186.143 77.6688C188.327 77.6663 190.174 77.1704 190.802 76.4932C190.174 77.1187 188.327 77.5753 186.143 77.5776" fill="#1C1C1E"/>
<path d="M187.651 75.183C188.426 75.245 189.192 75.4011 189.931 75.648C190.311 75.7807 190.865 76.0633 190.864 76.3407C190.881 76.0438 190.322 75.7385 189.94 75.5959C189.201 75.3324 188.431 75.166 187.651 75.1006V75.183Z" fill="#1C1C1E"/>
<path d="M181.48 75.5604C182.107 74.9354 183.954 74.4781 186.138 74.4756C188.18 74.4737 189.93 74.8689 190.662 75.4308C190.669 75.4358 190.672 75.4323 190.673 75.4308C190.674 75.4278 190.673 75.4246 190.671 75.4219L186.133 70.7979L181.48 75.5604Z" fill="#1C1C1E"/>
<path d="M190.672 75.4224V75.4235L190.674 75.4207C190.674 75.4176 190.674 75.4144 190.672 75.4116L190.672 75.4224ZM186.139 74.3857C183.954 74.3878 182.107 74.8841 181.48 75.5611C182.108 74.9361 183.955 74.4788 186.139 74.4763C188.181 74.4744 189.931 74.8696 190.663 75.4315C190.669 75.4365 190.673 75.433 190.674 75.4315C190.674 75.4302 190.674 75.4288 190.674 75.4274C190.674 75.4261 190.673 75.4248 190.672 75.4237C190.671 75.4251 190.667 75.4262 190.663 75.4224C189.932 74.814 188.189 74.3862 186.153 74.386H186.139" fill="#1C1C1E"/>
<path d="M186.147 81.1927L181.618 76.6209C181.612 76.6166 181.608 76.6209 181.607 76.6224C181.607 76.6255 181.608 76.6286 181.61 76.6311L186.148 81.255L190.802 76.4922L186.147 81.1927Z" fill="#1C1C1E"/>
<path d="M182.34 76.4565C183.08 76.72 183.849 76.8863 184.63 76.9516V76.8685C183.854 76.8064 183.089 76.6502 182.35 76.4031C181.969 76.2705 181.416 75.9878 181.417 75.71C181.4 76.0073 181.959 76.3122 182.341 76.4555" fill="#1C1C1E"/>
</g>
<rect width="167.75" height="29.127" transform="translate(31.7615 139.84)" fill="#2C2C2E"/>
</g>
</g>
<rect opacity="0.5" x="31.7615" y="184.146" width="167.75" height="73.0911" rx="7.18929" fill="#4C4C4D"/>
<rect opacity="0.5" x="31.7615" y="272.814" width="167.75" height="34.7482" rx="7.18929" fill="#4C4C4D"/>
<rect opacity="0.5" x="31.7615" y="323.14" width="167.75" height="34.7482" rx="7.18929" fill="#4C4C4D"/>
</g>
<path fill-rule="evenodd" clip-rule="evenodd" d="M216.56 396.53V33.3713C216.56 22.0181 207.356 12.8145 196.003 12.8145H75.9543H36.6404C25.2871 12.8145 16.0835 22.0181 16.0835 33.3713V396.53C16.0835 407.883 25.2871 417.087 36.6404 417.087H196.003C207.356 417.087 216.56 407.883 216.56 396.53ZM22.2618 33.3713C22.2618 25.4303 28.6993 18.9927 36.6404 18.9927H75.9543H81.0492C81.0492 26.7849 87.366 33.1017 95.1581 33.1017H137.485C145.277 33.1017 151.594 26.7849 151.594 18.9927H196.003C203.944 18.9927 210.382 25.4303 210.382 33.3713V396.53C210.382 404.471 203.944 410.909 196.003 410.909H36.6404C28.6993 410.909 22.2618 404.471 22.2618 396.53V33.3713Z" fill="white"/>
</g>
</g>
<defs>
<filter id="filter0_dd_81_19137" x="0.0839844" y="0" width="232" height="440" filterUnits="userSpaceOnUse" color-interpolation-filters="sRGB">
<feFlood flood-opacity="0" result="BackgroundImageFix"/>
<feColorMatrix in="SourceAlpha" type="matrix" values="0 0 0 0 0 0 0 0 0 0 0 0 0 0 0 0 0 0 127 0" result="hardAlpha"/>
<feOffset dy="4"/>
<feGaussianBlur stdDeviation="8"/>
<feComposite in2="hardAlpha" operator="out"/>
<feColorMatrix type="matrix" values="0 0 0 0 0 0 0 0 0 0 0 0 0 0 0 0 0 0 0.05 0"/>
<feBlend mode="normal" in2="BackgroundImageFix" result="effect1_dropShadow_81_19137"/>
<feColorMatrix in="SourceAlpha" type="matrix" values="0 0 0 0 0 0 0 0 0 0 0 0 0 0 0 0 0 0 127 0" result="hardAlpha"/>
<feOffset dy="8"/>
<feGaussianBlur stdDeviation="8"/>
<feComposite in2="hardAlpha" operator="out"/>
<feColorMatrix type="matrix" values="0 0 0 0 0 0 0 0 0 0 0 0 0 0 0 0 0 0 0.05 0"/>
<feBlend mode="normal" in2="effect1_dropShadow_81_19137" result="effect2_dropShadow_81_19137"/>
<feBlend mode="normal" in="SourceGraphic" in2="effect2_dropShadow_81_19137" result="shape"/>
</filter>
<filter id="filter1_b_81_19137" x="147.509" y="42.2777" width="115.028" height="119.63" filterUnits="userSpaceOnUse" color-interpolation-filters="sRGB">
<feFlood flood-opacity="0" result="BackgroundImageFix"/>
<feGaussianBlur in="BackgroundImageFix" stdDeviation="3.83429"/>
<feComposite in2="SourceAlpha" operator="in" result="effect1_backgroundBlur_81_19137"/>
<feBlend mode="normal" in="SourceGraphic" in2="effect1_backgroundBlur_81_19137" result="shape"/>
</filter>
<filter id="filter2_d_81_19137" x="27.4464" y="62.1676" width="176.38" height="113.272" filterUnits="userSpaceOnUse" color-interpolation-filters="sRGB">
<feFlood flood-opacity="0" result="BackgroundImageFix"/>
<feColorMatrix in="SourceAlpha" type="matrix" values="0 0 0 0 0 0 0 0 0 0 0 0 0 0 0 0 0 0 127 0" result="hardAlpha"/>
<feOffset dy="2.15756"/>
<feGaussianBlur stdDeviation="2.15756"/>
<feColorMatrix type="matrix" values="0 0 0 0 0 0 0 0 0 0 0 0 0 0 0 0 0 0 0.05 0"/>
<feBlend mode="normal" in2="BackgroundImageFix" result="effect1_dropShadow_81_19137"/>
<feBlend mode="normal" in="SourceGraphic" in2="effect1_dropShadow_81_19137" result="shape"/>
</filter>
<filter id="filter3_d_81_19137" x="158.518" y="70.7979" width="33.425" height="17.2512" filterUnits="userSpaceOnUse" color-interpolation-filters="sRGB">
<feFlood flood-opacity="0" result="BackgroundImageFix"/>
<feColorMatrix in="SourceAlpha" type="matrix" values="0 0 0 0 0 0 0 0 0 0 0 0 0 0 0 0 0 0 127 0" result="hardAlpha"/>
<feOffset dy="1.07823"/>
<feGaussianBlur stdDeviation="0.539113"/>
<feColorMatrix type="matrix" values="0 0 0 0 0.14902 0 0 0 0 0.14902 0 0 0 0 0.14902 0 0 0 0.1 0"/>
<feBlend mode="normal" in2="BackgroundImageFix" result="effect1_dropShadow_81_19137"/>
<feBlend mode="normal" in="SourceGraphic" in2="effect1_dropShadow_81_19137" result="shape"/>
</filter>
<linearGradient id="paint0_linear_81_19137" x1="115.636" y1="17.5947" x2="115.636" y2="414.204" gradientUnits="userSpaceOnUse">
<stop stop-color="#151515"/>
<stop offset="1"/>
</linearGradient>
<linearGradient id="paint1_linear_81_19137" x1="165.15" y1="113.826" x2="247.395" y2="113.826" gradientUnits="userSpaceOnUse">
<stop stop-color="white" stop-opacity="0.35"/>
<stop offset="1" stop-color="white"/>
</linearGradient>
<linearGradient id="paint2_linear_81_19137" x1="162.654" y1="92.7071" x2="188.907" y2="112.985" gradientUnits="userSpaceOnUse">
<stop stop-color="white" stop-opacity="0.35"/>
<stop offset="1" stop-color="white"/>
</linearGradient>
<linearGradient id="paint3_linear_81_19137" x1="253.61" y1="73.6903" x2="155.973" y2="73.6903" gradientUnits="userSpaceOnUse">
<stop stop-color="white" stop-opacity="0.35"/>
<stop offset="1" stop-color="white"/>
</linearGradient>
<linearGradient id="paint4_linear_81_19137" x1="34.9999" y1="72.5002" x2="200" y2="140" gradientUnits="userSpaceOnUse">
<stop stop-color="white"/>
<stop offset="0.461029" stop-color="#D8D8D8"/>
<stop offset="0.69259" stop-color="#E1E1E1"/>
<stop offset="0.914597" stop-color="white"/>
</linearGradient>
<clipPath id="clip0_81_19137">
<rect x="16.084" y="12" width="200" height="404" rx="14" fill="white"/>
</clipPath>
<clipPath id="clip1_81_19137">
<rect width="196.507" height="396.609" fill="white" transform="translate(17.3828 18.793)"/>
</clipPath>
<clipPath id="clip2_81_19137">
<rect x="31.7615" y="64.3252" width="167.75" height="104.642" rx="8.63023" fill="white"/>
</clipPath>
</defs>
</svg>
