<svg width="232" height="440" viewBox="0 0 232 440" fill="none" xmlns="http://www.w3.org/2000/svg">
<g filter="url(#filter0_dd_778_19884)">
<g clip-path="url(#clip0_778_19884)">
<g clip-path="url(#clip1_778_19884)">
<g clip-path="url(#clip2_778_19884)">
<rect x="17.2988" y="15.5947" width="196.507" height="396.609" rx="14.3786" fill="url(#paint0_linear_778_19884)"/>
<g opacity="0.2" filter="url(#filter1_b_778_19884)">
<path d="M250.398 107.785C246.749 109.772 241.724 111.48 235.744 112.805C227.118 114.716 216.44 115.845 204.88 115.845M250.398 107.785L204.879 115.845C204.879 115.845 204.88 115.845 204.88 115.845M250.398 107.785L204.879 151.706L159.512 107.932C163.229 109.95 168.352 111.67 174.448 112.985C182.992 114.829 193.507 115.89 204.88 115.845M250.398 107.785L204.88 115.845" fill="url(#paint1_linear_778_19884)" stroke="white" stroke-width="0.766857"/>
<path d="M164.926 104.014L164.922 104.013C162.562 103.209 159.595 101.829 157.611 100.245C156.615 99.4497 155.909 98.6356 155.621 97.8544C155.479 97.4706 155.441 97.1001 155.512 96.7399C155.582 96.3833 155.764 96.012 156.104 95.6307C158.564 93.3523 162.858 91.2814 168.529 89.5882C174.096 87.9258 180.952 86.639 188.611 85.8694V108.91C180.467 108.096 172.694 106.748 164.926 104.014Z" fill="url(#paint2_linear_778_19884)" stroke="white" stroke-width="0.766857"/>
<path d="M159.359 92.4002C163.008 90.4132 168.032 88.7058 174.012 87.3809C182.638 85.4697 193.316 84.3408 204.876 84.3408M159.359 92.4002L204.877 84.3408C204.877 84.3408 204.877 84.3408 204.876 84.3408M159.359 92.4002L204.877 48.4793L250.31 92.3182M159.359 92.4002L250.31 92.3182M204.876 84.3408C216.25 84.2957 226.764 85.3794 235.308 87.234C241.442 88.5655 246.589 90.3003 250.31 92.3182M204.876 84.3408L250.31 92.3182" fill="url(#paint3_linear_778_19884)" stroke="white" stroke-width="0.766857"/>
</g>
<g filter="url(#filter2_d_778_19884)">
<g clip-path="url(#clip3_778_19884)">
<path d="M31.6775 62.3251H199.428V137.84H31.6775V62.3251Z" fill="url(#paint4_linear_778_19884)"/>
<rect opacity="0.5" x="40.3071" y="82.8218" width="81.4478" height="11.8666" rx="2.15756" fill="url(#paint5_linear_778_19884)"/>
<g filter="url(#filter3_d_778_19884)">
<path d="M170.633 78.8298C169.778 78.8298 168.639 78.2679 168.639 76.6192C168.639 74.922 169.891 74.4093 170.639 74.4093C171.026 74.3949 171.41 74.4814 171.754 74.6607L171.432 75.2652C171.244 75.185 171.043 75.141 170.839 75.1355C170.2 75.1355 169.673 75.7448 169.673 76.6138C169.673 77.3355 170.153 78.0606 170.831 78.0606C171.031 78.0689 171.23 78.024 171.408 77.9304L171.751 78.5754C171.388 78.7632 170.984 78.8509 170.577 78.8298" fill="white"/>
<path d="M180.358 78.7377V75.7625C180.366 75.687 180.357 75.6108 180.333 75.5391C180.309 75.4674 180.269 75.4019 180.218 75.3472C180.167 75.2924 180.104 75.2497 180.035 75.222C179.966 75.1943 179.891 75.1822 179.817 75.1866C179.726 75.1813 179.635 75.197 179.551 75.2326C179.466 75.2682 179.391 75.3228 179.33 75.3922V78.7377H178.291V75.7461C178.294 75.6712 178.282 75.5965 178.255 75.5266C178.228 75.4568 178.188 75.3934 178.136 75.3405C178.075 75.2859 178.003 75.2442 177.926 75.2178C177.849 75.1914 177.768 75.1808 177.687 75.1866C177.538 75.1853 177.391 75.212 177.252 75.2656V78.7377H176.22V74.6185C176.62 74.5134 177.028 74.4451 177.44 74.4143C177.773 74.3894 178.108 74.4309 178.426 74.5364C178.592 74.6036 178.742 74.7071 178.865 74.8398C179.004 74.7118 179.165 74.6103 179.339 74.54C179.581 74.4487 179.838 74.4064 180.096 74.4154C180.457 74.4119 180.804 74.5537 181.063 74.8099C181.177 74.9389 181.265 75.0895 181.322 75.2532C181.379 75.4169 181.404 75.5905 181.395 75.764V78.7392L180.358 78.7377Z" fill="white"/>
<path d="M172.049 83.2944C171.717 83.6617 171.123 83.8928 170.235 83.8928C169.555 83.8928 168.804 83.8098 168.804 83.8098V79.1809C168.804 79.1809 169.485 79.1016 169.975 79.1016C171.144 79.1016 171.421 79.3105 171.632 79.443C171.791 79.5263 171.925 79.651 172.022 79.8045C172.118 79.9579 172.172 80.1347 172.18 80.3166C172.18 81.0561 171.503 81.2492 171.31 81.3311V81.3442C171.496 81.3859 171.671 81.466 171.825 81.5797C171.979 81.6933 172.108 81.838 172.205 82.0047C172.284 82.2164 172.311 82.4445 172.283 82.6692C172.256 82.8939 172.175 83.1084 172.048 83.2939L172.049 83.2944ZM171.144 80.3345C171.144 79.9441 170.866 79.7485 170.344 79.7485C170.175 79.7474 170.006 79.7659 169.841 79.8035V81.1043H169.984C170.945 81.1043 171.145 80.7164 171.145 80.3345H171.144ZM171.277 82.4986C171.277 82.1337 171.132 81.6397 169.984 81.6397H169.841V83.1882C170.195 83.2783 170.568 83.2464 170.902 83.0975C171.014 83.0439 171.108 82.9591 171.174 82.8532C171.24 82.7472 171.276 82.6243 171.276 82.4986" fill="white"/>
<path d="M175.865 83.8094C175.865 83.8094 175.211 83.8924 174.766 83.8924C173.24 83.8924 172.605 83.3388 172.605 82.4217C172.605 81.6949 173.317 81.0167 174.824 81.0167V80.824C174.824 80.6068 174.651 80.2442 174.056 80.2442C173.767 80.2462 173.481 80.3152 173.222 80.4458C173.218 80.429 172.882 79.7993 172.882 79.7993C173.321 79.5767 173.806 79.4671 174.296 79.48C175.045 79.48 175.866 79.8978 175.866 80.824L175.865 83.8094ZM174.825 81.5635C174.012 81.5635 173.628 81.8517 173.628 82.4226C173.626 82.5337 173.647 82.6441 173.688 82.7467C173.73 82.8493 173.793 82.9419 173.872 83.0185C173.95 83.0951 174.044 83.1541 174.147 83.1917C174.249 83.2293 174.358 83.2447 174.467 83.2368C174.588 83.2365 174.709 83.2185 174.825 83.1834V81.5635Z" fill="white"/>
<path d="M178.702 83.8092V81.1905C178.702 80.6414 178.621 80.37 178.181 80.2695C177.957 80.2386 177.729 80.2599 177.514 80.3318V83.8092H176.485V79.6866C176.883 79.5897 177.287 79.5256 177.695 79.4949C178.465 79.4546 178.849 79.5491 179.23 79.8064C179.387 79.9198 179.515 80.0702 179.602 80.2448C179.69 80.4195 179.734 80.6131 179.732 80.8092V83.8092H178.702Z" fill="white"/>
<path d="M175.699 76.6205C175.699 75.2354 174.983 74.4099 173.744 74.4099C172.505 74.4099 171.764 75.2354 171.764 76.6205C171.764 78.0056 172.506 78.8313 173.744 78.8313C174.982 78.8313 175.699 78.0067 175.699 76.6205ZM174.658 76.6205C174.658 77.7452 174.17 78.0656 173.744 78.0656C173.319 78.0656 172.804 77.7452 172.804 76.6205C172.804 75.4958 173.32 75.1758 173.744 75.1758C174.168 75.1758 174.658 75.497 174.658 76.6205Z" fill="white"/>
<path d="M182.769 83.8096L181.39 82.1483H181.38L181.394 83.8096H180.358V79.1849H181.394L181.38 80.9631H181.395L182.603 79.5784H184.016L182.089 81.5525L184.153 83.8096H182.769Z" fill="white"/>
<path d="M181.403 73.5509C181.107 73.8919 181.805 74.2881 182.256 74.4561C182.996 74.7195 183.765 74.8859 184.546 74.9512L184.543 72.5516C183.056 72.7065 181.885 73.0801 181.403 73.5509Z" fill="white"/>
<path d="M163.638 74.9031C163.645 75.4953 163.432 76.0682 163.042 76.5069C162.618 76.9112 162.213 77.0516 161.158 77.0329H160.966V78.7378H159.512V72.8383C159.512 72.8383 160.302 72.7432 161.132 72.7382C162.304 72.7315 162.761 72.9527 163.107 73.2885C163.369 73.5429 163.638 74.1671 163.638 74.9031ZM162.21 74.8748C162.21 73.8037 161.687 73.5481 161.328 73.5288C161.195 73.5219 160.966 73.5354 160.966 73.5354V76.2062H161.164C161.652 76.2062 162.21 75.8023 162.21 74.8748Z" fill="white"/>
<path d="M167.056 78.7373H165.829L163.769 72.8236H165.518C165.518 72.8236 166.478 76.3332 166.489 76.4133H166.498C166.509 76.333 167.509 72.8236 167.509 72.8236H169.107L167.056 78.7373Z" fill="white"/>
<path d="M187.569 75.4997C189.056 75.3456 190.228 74.972 190.71 74.5008C191.006 74.16 190.308 73.764 189.856 73.5958C189.116 73.3323 188.347 73.1659 187.566 73.1005L187.569 75.4997Z" fill="white"/>
<path d="M186.058 75.5766C184.015 75.5787 182.266 75.182 181.533 74.6213C181.527 74.617 181.523 74.6213 181.522 74.6228C181.522 74.6259 181.523 74.629 181.525 74.6315L186.063 79.2554L190.717 74.4926C190.089 75.1181 188.242 75.5747 186.059 75.577" fill="white"/>
<path d="M181.522 74.6323C181.522 74.6356 181.523 74.6388 181.525 74.6415V74.6311L181.524 74.6301L181.523 74.6315L181.522 74.6323ZM186.059 75.5766C184.016 75.5787 182.267 75.182 181.534 74.6213C181.528 74.617 181.524 74.6213 181.523 74.6228C181.523 74.6254 181.523 74.6281 181.525 74.6305C181.527 74.6286 181.529 74.628 181.534 74.6315C182.267 75.2416 184.016 75.6698 186.059 75.6682C188.243 75.6657 190.09 75.1698 190.718 74.4926C190.09 75.1181 188.243 75.5747 186.059 75.577" fill="white"/>
<path d="M187.567 73.183C188.342 73.2449 189.108 73.401 189.847 73.6479C190.228 73.7806 190.781 74.0632 190.781 74.3407C190.797 74.0437 190.238 73.7385 189.857 73.5958C189.117 73.3323 188.348 73.1659 187.567 73.1005V73.183Z" fill="white"/>
<path d="M181.396 73.5603C182.023 72.9352 183.87 72.4779 186.054 72.4754C188.096 72.4735 189.846 72.8687 190.578 73.4307C190.584 73.4356 190.588 73.4321 190.589 73.4307C190.589 73.4276 190.589 73.4244 190.587 73.4217L186.049 68.7977L181.396 73.5603Z" fill="white"/>
<path d="M190.588 73.4218V73.4229L190.59 73.4202C190.59 73.417 190.59 73.4138 190.588 73.411L190.588 73.4218ZM186.055 72.3852C183.87 72.3872 182.023 72.8836 181.396 73.5606C182.024 72.9355 183.871 72.4782 186.055 72.4757C188.097 72.4738 189.847 72.869 190.579 73.431C190.585 73.4359 190.589 73.4324 190.59 73.431C190.59 73.4296 190.59 73.4282 190.59 73.4269C190.59 73.4255 190.589 73.4242 190.588 73.4231C190.587 73.4245 190.584 73.4256 190.579 73.4218C189.848 72.8134 188.105 72.3856 186.069 72.3854H186.055" fill="white"/>
<path d="M186.063 79.1927L181.534 74.6209C181.528 74.6166 181.524 74.6209 181.523 74.6224C181.523 74.6255 181.524 74.6286 181.526 74.6311L186.064 79.255L190.718 74.4922L186.063 79.1927Z" fill="white"/>
<path d="M182.256 74.4567C182.996 74.7201 183.765 74.8865 184.546 74.9517V74.8687C183.77 74.8065 183.005 74.6503 182.266 74.4033C181.885 74.2706 181.332 73.988 181.333 73.7101C181.316 74.0075 181.875 74.3123 182.257 74.4556" fill="white"/>
</g>
<rect width="167.75" height="29.127" transform="translate(31.6775 137.84)" fill="#333E5B"/>
</g>
</g>
<rect x="31.6775" y="182.147" width="167.75" height="73.0911" rx="7.18929" fill="#525A69" fill-opacity="0.5"/>
<rect x="31.6775" y="270.814" width="167.75" height="34.7482" rx="7.18929" fill="#525A69" fill-opacity="0.5"/>
<rect x="31.6775" y="321.139" width="167.75" height="34.7482" rx="7.18929" fill="#525A69" fill-opacity="0.5"/>
</g>
<path fill-rule="evenodd" clip-rule="evenodd" d="M216.476 394.53V31.3711C216.476 20.0179 207.272 10.8143 195.919 10.8143H75.8704H36.5565C25.2033 10.8143 15.9996 20.0179 15.9996 31.3711V394.53C15.9996 405.883 25.2033 415.087 36.5565 415.087H195.919C207.272 415.087 216.476 405.883 216.476 394.53ZM22.1779 31.3711C22.1779 23.4301 28.6154 16.9926 36.5565 16.9926H75.8704H195.919C203.86 16.9926 210.298 23.4301 210.298 31.3711V394.53C210.298 402.471 203.86 408.909 195.919 408.909H36.5565C28.6154 408.909 22.1779 402.471 22.1779 394.53V31.3711ZM150.545 17H80C80 24.7922 86.3168 31.109 94.109 31.109H136.436C144.228 31.109 150.545 24.7922 150.545 17Z" fill="white"/>
</g>
<g clip-path="url(#clip4_778_19884)">
<g clip-path="url(#clip5_778_19884)">
<g filter="url(#filter4_d_778_19884)">
<g clip-path="url(#clip6_778_19884)">
<path d="M30.3784 62.325H198.128V137.84H30.3784V62.325Z" fill="url(#paint6_linear_778_19884)"/>
<rect opacity="0.5" x="39.0085" y="73.1128" width="55.0177" height="7.55145" rx="2.15756" fill="url(#paint7_linear_778_19884)"/>
<rect opacity="0.5" x="39.0085" y="82.8218" width="81.4478" height="11.8666" rx="2.15756" fill="url(#paint8_linear_778_19884)"/>
<rect width="167.75" height="54" transform="translate(30.3784 137.839)" fill="white"/>
</g>
</g>
<rect x="30.3784" y="182.147" width="167.75" height="73.0911" rx="7.18929" fill="white" fill-opacity="0.7"/>
<rect x="30.3784" y="270.814" width="167.75" height="34.7482" rx="7.18929" fill="white" fill-opacity="0.7"/>
<rect x="30.3784" y="321.139" width="167.75" height="34.7482" rx="7.18929" fill="white" fill-opacity="0.7"/>
</g>
<path fill-rule="evenodd" clip-rule="evenodd" d="M215.291 394.53V31.3712C215.291 20.0179 206.087 10.8143 194.734 10.8143H74.685H35.3711C24.0178 10.8143 14.8142 20.0179 14.8142 31.3712V394.53C14.8142 405.883 24.0178 415.087 35.3711 415.087H194.734C206.087 415.087 215.291 405.883 215.291 394.53ZM20.9925 31.3712C20.9925 23.4301 27.43 16.9926 35.3711 16.9926H74.685H79.7799C79.7799 24.7848 86.0967 31.1016 93.8888 31.1016H136.216C144.008 31.1016 150.325 24.7848 150.325 16.9926H194.734C202.675 16.9926 209.112 23.4301 209.112 31.3712V394.53C209.112 402.471 202.675 408.909 194.734 408.909H35.3711C27.43 408.909 20.9925 402.471 20.9925 394.53V31.3712Z" fill="white"/>
</g>
</g>
</g>
<defs>
<filter id="filter0_dd_778_19884" x="0" y="0" width="232" height="440" filterUnits="userSpaceOnUse" color-interpolation-filters="sRGB">
<feFlood flood-opacity="0" result="BackgroundImageFix"/>
<feColorMatrix in="SourceAlpha" type="matrix" values="0 0 0 0 0 0 0 0 0 0 0 0 0 0 0 0 0 0 127 0" result="hardAlpha"/>
<feOffset dy="8"/>
<feGaussianBlur stdDeviation="8"/>
<feComposite in2="hardAlpha" operator="out"/>
<feColorMatrix type="matrix" values="0 0 0 0 0 0 0 0 0 0 0 0 0 0 0 0 0 0 0.05 0"/>
<feBlend mode="normal" in2="BackgroundImageFix" result="effect1_dropShadow_778_19884"/>
<feColorMatrix in="SourceAlpha" type="matrix" values="0 0 0 0 0 0 0 0 0 0 0 0 0 0 0 0 0 0 127 0" result="hardAlpha"/>
<feOffset dy="4"/>
<feGaussianBlur stdDeviation="8"/>
<feComposite in2="hardAlpha" operator="out"/>
<feColorMatrix type="matrix" values="0 0 0 0 0 0 0 0 0 0 0 0 0 0 0 0 0 0 0.05 0"/>
<feBlend mode="normal" in2="effect1_dropShadow_778_19884" result="effect2_dropShadow_778_19884"/>
<feBlend mode="normal" in="SourceGraphic" in2="effect2_dropShadow_778_19884" result="shape"/>
</filter>
<filter id="filter1_b_778_19884" x="147.425" y="40.2779" width="115.028" height="119.63" filterUnits="userSpaceOnUse" color-interpolation-filters="sRGB">
<feFlood flood-opacity="0" result="BackgroundImageFix"/>
<feGaussianBlur in="BackgroundImageFix" stdDeviation="3.83429"/>
<feComposite in2="SourceAlpha" operator="in" result="effect1_backgroundBlur_778_19884"/>
<feBlend mode="normal" in="SourceGraphic" in2="effect1_backgroundBlur_778_19884" result="shape"/>
</filter>
<filter id="filter2_d_778_19884" x="27.3624" y="60.1675" width="176.38" height="113.272" filterUnits="userSpaceOnUse" color-interpolation-filters="sRGB">
<feFlood flood-opacity="0" result="BackgroundImageFix"/>
<feColorMatrix in="SourceAlpha" type="matrix" values="0 0 0 0 0 0 0 0 0 0 0 0 0 0 0 0 0 0 127 0" result="hardAlpha"/>
<feOffset dy="2.15756"/>
<feGaussianBlur stdDeviation="2.15756"/>
<feColorMatrix type="matrix" values="0 0 0 0 0 0 0 0 0 0 0 0 0 0 0 0 0 0 0.05 0"/>
<feBlend mode="normal" in2="BackgroundImageFix" result="effect1_dropShadow_778_19884"/>
<feBlend mode="normal" in="SourceGraphic" in2="effect1_dropShadow_778_19884" result="shape"/>
</filter>
<filter id="filter3_d_778_19884" x="158.434" y="68.7977" width="33.425" height="17.2516" filterUnits="userSpaceOnUse" color-interpolation-filters="sRGB">
<feFlood flood-opacity="0" result="BackgroundImageFix"/>
<feColorMatrix in="SourceAlpha" type="matrix" values="0 0 0 0 0 0 0 0 0 0 0 0 0 0 0 0 0 0 127 0" result="hardAlpha"/>
<feOffset dy="1.07823"/>
<feGaussianBlur stdDeviation="0.539113"/>
<feColorMatrix type="matrix" values="0 0 0 0 0.14902 0 0 0 0 0.14902 0 0 0 0 0.14902 0 0 0 0.1 0"/>
<feBlend mode="normal" in2="BackgroundImageFix" result="effect1_dropShadow_778_19884"/>
<feBlend mode="normal" in="SourceGraphic" in2="effect1_dropShadow_778_19884" result="shape"/>
</filter>
<filter id="filter4_d_778_19884" x="26.0633" y="60.1675" width="176.38" height="138.145" filterUnits="userSpaceOnUse" color-interpolation-filters="sRGB">
<feFlood flood-opacity="0" result="BackgroundImageFix"/>
<feColorMatrix in="SourceAlpha" type="matrix" values="0 0 0 0 0 0 0 0 0 0 0 0 0 0 0 0 0 0 127 0" result="hardAlpha"/>
<feOffset dy="2.15756"/>
<feGaussianBlur stdDeviation="2.15756"/>
<feColorMatrix type="matrix" values="0 0 0 0 0 0 0 0 0 0 0 0 0 0 0 0 0 0 0.05 0"/>
<feBlend mode="normal" in2="BackgroundImageFix" result="effect1_dropShadow_778_19884"/>
<feBlend mode="normal" in="SourceGraphic" in2="effect1_dropShadow_778_19884" result="shape"/>
</filter>
<linearGradient id="paint0_linear_778_19884" x1="115.552" y1="15.5947" x2="115.552" y2="412.204" gradientUnits="userSpaceOnUse">
<stop stop-color="#193680"/>
<stop offset="1" stop-color="#0E1018"/>
</linearGradient>
<linearGradient id="paint1_linear_778_19884" x1="165.066" y1="111.826" x2="247.311" y2="111.826" gradientUnits="userSpaceOnUse">
<stop stop-color="white" stop-opacity="0.35"/>
<stop offset="1" stop-color="white"/>
</linearGradient>
<linearGradient id="paint2_linear_778_19884" x1="162.57" y1="90.7069" x2="188.823" y2="110.985" gradientUnits="userSpaceOnUse">
<stop stop-color="white" stop-opacity="0.35"/>
<stop offset="1" stop-color="white"/>
</linearGradient>
<linearGradient id="paint3_linear_778_19884" x1="253.526" y1="71.6905" x2="155.889" y2="71.6905" gradientUnits="userSpaceOnUse">
<stop stop-color="white" stop-opacity="0.35"/>
<stop offset="1" stop-color="white"/>
</linearGradient>
<linearGradient id="paint4_linear_778_19884" x1="69.4803" y1="66.7057" x2="158.213" y2="148.692" gradientUnits="userSpaceOnUse">
<stop stop-color="#173F85"/>
<stop offset="1" stop-color="#081732"/>
</linearGradient>
<linearGradient id="paint5_linear_778_19884" x1="40.3071" y1="88.7551" x2="121.755" y2="88.7551" gradientUnits="userSpaceOnUse">
<stop stop-color="#F8F8F8"/>
<stop offset="1" stop-color="#ECECEC"/>
</linearGradient>
<linearGradient id="paint6_linear_778_19884" x1="68.1812" y1="66.7057" x2="156.914" y2="148.692" gradientUnits="userSpaceOnUse">
<stop stop-color="#367CF5"/>
<stop offset="1" stop-color="#93BAFF"/>
</linearGradient>
<linearGradient id="paint7_linear_778_19884" x1="39.0085" y1="76.8885" x2="94.0262" y2="76.8885" gradientUnits="userSpaceOnUse">
<stop stop-color="#F8F8F8"/>
<stop offset="1" stop-color="#ECECEC"/>
</linearGradient>
<linearGradient id="paint8_linear_778_19884" x1="39.0085" y1="88.7551" x2="120.456" y2="88.7551" gradientUnits="userSpaceOnUse">
<stop stop-color="#F8F8F8"/>
<stop offset="1" stop-color="#ECECEC"/>
</linearGradient>
<clipPath id="clip0_778_19884">
<rect x="16" y="12" width="200" height="404" rx="14" fill="white"/>
</clipPath>
<clipPath id="clip1_778_19884">
<rect width="100" height="404" fill="white" transform="translate(116 12)"/>
</clipPath>
<clipPath id="clip2_778_19884">
<rect width="196.507" height="396.609" fill="white" transform="translate(17.2988 16.7928)"/>
</clipPath>
<clipPath id="clip3_778_19884">
<rect x="31.6775" y="62.3251" width="167.75" height="104.642" rx="8.63023" fill="white"/>
</clipPath>
<clipPath id="clip4_778_19884">
<rect width="100" height="404" fill="white" transform="translate(16 12)"/>
</clipPath>
<clipPath id="clip5_778_19884">
<rect width="196.507" height="396.609" fill="white" transform="translate(16 16.7928)"/>
</clipPath>
<clipPath id="clip6_778_19884">
<rect x="30.3784" y="62.325" width="167.75" height="129.514" rx="8.63023" fill="white"/>
</clipPath>
</defs>
</svg>
