<svg width="202" height="406" viewBox="0 0 202 406" fill="none" xmlns="http://www.w3.org/2000/svg">
<g clip-path="url(#clip0_1161_13041)">
<rect x="2" y="5.59467" width="196.507" height="396.609" rx="14.3786" fill="url(#paint0_linear_1161_13041)"/>
<g opacity="0.4" filter="url(#filter0_b_1161_13041)">
<path d="M144.213 97.9317C147.929 99.9504 153.052 101.67 159.149 102.985C167.693 104.829 178.207 105.89 189.58 105.845C189.581 105.845 189.581 105.845 189.581 105.845L144.213 97.9317ZM144.213 97.9317L189.58 141.706L235.098 97.7853L144.213 97.9317Z" fill="url(#paint1_linear_1161_13041)" stroke="white" stroke-width="0.766857"/>
<path d="M149.628 94.0141L149.624 94.0129C147.264 93.2091 144.297 91.8295 142.313 90.2452C141.316 89.4497 140.61 88.6357 140.322 87.8544C140.181 87.4706 140.142 87.1002 140.213 86.74C140.283 86.3833 140.466 86.012 140.806 85.6307C143.265 83.3523 147.559 81.2814 153.23 79.5882C158.798 77.9258 165.653 76.639 173.313 75.8694V98.9104C165.169 98.0964 157.395 96.7476 149.628 94.0141Z" fill="url(#paint2_linear_1161_13041)" stroke="white" stroke-width="0.766857"/>
<path d="M144.06 82.4002C147.709 80.4132 152.734 78.7058 158.714 77.3809C167.34 75.4697 178.018 74.3408 189.578 74.3408M144.06 82.4002L189.579 74.3408C189.578 74.3408 189.578 74.3408 189.578 74.3408M144.06 82.4002L189.579 38.4793L235.012 82.3182M144.06 82.4002L235.012 82.3182M189.578 74.3408C200.952 74.2957 211.466 75.3794 220.01 77.234C226.144 78.5655 231.291 80.3004 235.012 82.3182M189.578 74.3408L235.012 82.3182" fill="url(#paint3_linear_1161_13041)" stroke="white" stroke-width="0.766857"/>
</g>
<g filter="url(#filter1_d_1161_13041)">
<g clip-path="url(#clip1_1161_13041)">
<path d="M16.3784 52.3251H184.128V127.84H16.3784V52.3251Z" fill="url(#paint4_linear_1161_13041)"/>
<rect opacity="0.5" x="25.0083" y="63.1129" width="55.0177" height="7.55145" rx="2.15756" fill="url(#paint5_linear_1161_13041)"/>
<rect opacity="0.5" x="25.0083" y="72.8218" width="81.4478" height="11.8666" rx="2.15756" fill="url(#paint6_linear_1161_13041)"/>
<g filter="url(#filter2_d_1161_13041)">
<path d="M155.334 68.8298C154.48 68.8298 153.34 68.2679 153.34 66.6192C153.34 64.922 154.592 64.4093 155.34 64.4093C155.727 64.3949 156.111 64.4814 156.455 64.6607L156.133 65.2652C155.945 65.185 155.744 65.141 155.54 65.1354C154.901 65.1354 154.374 65.7447 154.374 66.6138C154.374 67.3354 154.854 68.0606 155.532 68.0606C155.732 68.0689 155.931 68.024 156.11 67.9304L156.452 68.5754C156.089 68.7632 155.685 68.8509 155.279 68.8298" fill="white"/>
<path d="M165.06 68.7377V65.7625C165.067 65.687 165.058 65.6108 165.034 65.5391C165.01 65.4674 164.971 65.402 164.919 65.3472C164.868 65.2925 164.805 65.2498 164.736 65.2221C164.667 65.1944 164.593 65.1823 164.518 65.1867C164.427 65.1813 164.336 65.197 164.252 65.2326C164.168 65.2682 164.092 65.3228 164.031 65.3923V68.7377H162.992V65.7461C162.995 65.6712 162.983 65.5965 162.956 65.5267C162.93 65.4568 162.889 65.3935 162.837 65.3406C162.776 65.2859 162.705 65.2442 162.628 65.2178C162.551 65.1914 162.469 65.1808 162.388 65.1867C162.239 65.1853 162.092 65.2121 161.953 65.2656V68.7377H160.921V64.6185C161.321 64.5134 161.729 64.4451 162.141 64.4144C162.474 64.3895 162.809 64.4309 163.127 64.5365C163.294 64.6036 163.444 64.7072 163.566 64.8399C163.705 64.7119 163.866 64.6103 164.04 64.54C164.282 64.4488 164.54 64.4064 164.798 64.4154C165.158 64.4119 165.505 64.5537 165.764 64.81C165.878 64.9389 165.966 65.0896 166.023 65.2533C166.08 65.4169 166.105 65.5905 166.096 65.764V68.7392L165.06 68.7377Z" fill="white"/>
<path d="M156.751 73.2944C156.418 73.6618 155.824 73.8929 154.937 73.8929C154.256 73.8929 153.505 73.8098 153.505 73.8098V69.181C153.505 69.181 154.186 69.1016 154.676 69.1016C155.845 69.1016 156.123 69.3105 156.334 69.443C156.493 69.5263 156.627 69.6511 156.723 69.8045C156.819 69.958 156.874 70.1347 156.881 70.3167C156.881 71.0562 156.204 71.2493 156.011 71.3311V71.3442C156.197 71.3859 156.372 71.4661 156.526 71.5797C156.68 71.6933 156.81 71.838 156.907 72.0048C156.985 72.2164 157.012 72.4445 156.985 72.6692C156.958 72.8939 156.877 73.1084 156.75 73.294L156.751 73.2944ZM155.845 70.3345C155.845 69.9441 155.567 69.7485 155.045 69.7485C154.876 69.7475 154.708 69.7659 154.543 69.8035V71.1044H154.685C155.647 71.1044 155.846 70.7164 155.846 70.3345H155.845ZM155.979 72.4986C155.979 72.1337 155.833 71.6397 154.685 71.6397H154.543V73.1883C154.896 73.2783 155.269 73.2464 155.604 73.0975C155.715 73.0439 155.809 72.9592 155.875 72.8532C155.942 72.7472 155.977 72.6243 155.978 72.4986" fill="white"/>
<path d="M160.566 73.8094C160.566 73.8094 159.912 73.8924 159.467 73.8924C157.941 73.8924 157.306 73.3388 157.306 72.4217C157.306 71.6949 158.018 71.0167 159.525 71.0167V70.824C159.525 70.6068 159.352 70.2442 158.757 70.2442C158.468 70.2462 158.182 70.3152 157.923 70.4458C157.919 70.429 157.583 69.7993 157.583 69.7993C158.022 69.5767 158.507 69.4671 158.997 69.48C159.746 69.48 160.567 69.8978 160.567 70.824L160.566 73.8094ZM159.526 71.5635C158.713 71.5635 158.329 71.8517 158.329 72.4226C158.327 72.5337 158.348 72.6441 158.389 72.7467C158.431 72.8493 158.494 72.9419 158.573 73.0185C158.651 73.0951 158.745 73.1542 158.848 73.1917C158.95 73.2293 159.059 73.2447 159.168 73.2368C159.289 73.2365 159.409 73.2186 159.526 73.1835V71.5635Z" fill="white"/>
<path d="M163.403 73.8091V71.1905C163.403 70.6414 163.322 70.37 162.883 70.2695C162.658 70.2386 162.43 70.2599 162.215 70.3318V73.8091H161.186V69.6866C161.584 69.5897 161.989 69.5256 162.396 69.4949C163.166 69.4546 163.55 69.5491 163.932 69.8064C164.088 69.9197 164.216 70.0702 164.303 70.2448C164.391 70.4194 164.436 70.6131 164.434 70.8092V73.8091H163.403Z" fill="white"/>
<path d="M160.4 66.6205C160.4 65.2354 159.684 64.41 158.445 64.41C157.207 64.41 156.465 65.2354 156.465 66.6205C156.465 68.0057 157.208 68.8313 158.445 68.8313C159.683 68.8313 160.4 68.0067 160.4 66.6205ZM159.359 66.6205C159.359 67.7453 158.871 68.0657 158.445 68.0657C158.02 68.0657 157.506 67.7453 157.506 66.6205C157.506 65.4958 158.021 65.1758 158.445 65.1758C158.87 65.1758 159.359 65.4971 159.359 66.6205Z" fill="white"/>
<path d="M167.471 73.8096L166.091 72.1483H166.082L166.095 73.8096H165.059V69.1849H166.095L166.082 70.9632H166.096L167.305 69.5785H168.717L166.79 71.5525L168.854 73.8096H167.471Z" fill="white"/>
<path d="M166.104 63.5509C165.808 63.8919 166.506 64.2881 166.957 64.4561C167.697 64.7196 168.466 64.886 169.247 64.9512L169.244 62.5516C167.758 62.7066 166.586 63.0801 166.104 63.5509" fill="white"/>
<path d="M148.339 64.9031C148.346 65.4953 148.133 66.0682 147.743 66.5069C147.32 66.9112 146.914 67.0516 145.859 67.0329H145.667V68.7378H144.213V62.8383C144.213 62.8383 145.003 62.7432 145.833 62.7382C147.005 62.7315 147.463 62.9527 147.808 63.2885C148.07 63.5429 148.339 64.1671 148.339 64.9031ZM146.911 64.8748C146.911 63.8037 146.388 63.5481 146.029 63.5288C145.896 63.5219 145.667 63.5354 145.667 63.5354V66.2062H145.865C146.353 66.2062 146.911 65.8023 146.911 64.8748Z" fill="white"/>
<path d="M151.757 68.7372H150.53L148.47 62.8235H150.219C150.219 62.8235 151.179 66.3331 151.19 66.4132H151.199C151.21 66.3329 152.21 62.8235 152.21 62.8235H153.808L151.757 68.7372Z" fill="white"/>
<path d="M172.271 65.4996C173.757 65.3455 174.929 64.9719 175.411 64.5007C175.707 64.16 175.009 63.764 174.557 63.5957C173.817 63.3323 173.048 63.1658 172.267 63.1005L172.271 65.4996Z" fill="white"/>
<path d="M170.759 65.5766C168.717 65.5786 166.967 65.182 166.234 64.6213C166.228 64.6169 166.225 64.6213 166.223 64.6227C166.223 64.6259 166.224 64.6289 166.226 64.6315L170.764 69.2553L175.418 64.4926C174.79 65.118 172.943 65.5747 170.76 65.577" fill="white"/>
<path d="M166.223 64.6323C166.223 64.6356 166.224 64.6388 166.226 64.6415V64.6311L166.225 64.63L166.224 64.6315L166.223 64.6323ZM170.76 65.5766C168.718 65.5786 166.968 65.182 166.235 64.6213C166.229 64.6169 166.226 64.6213 166.224 64.6227C166.224 64.6254 166.225 64.628 166.226 64.6304C166.228 64.6286 166.231 64.6279 166.235 64.6315C166.968 65.2416 168.717 65.6698 170.76 65.6681C172.944 65.6657 174.791 65.1697 175.419 64.4926C174.791 65.118 172.944 65.5747 170.76 65.577" fill="white"/>
<path d="M172.268 63.1829C173.044 63.2449 173.809 63.401 174.549 63.6479C174.929 63.7806 175.482 64.0632 175.482 64.3406C175.498 64.0437 174.939 63.7384 174.558 63.5957C173.818 63.3323 173.049 63.1658 172.268 63.1005V63.1829Z" fill="white"/>
<path d="M166.097 63.5602C166.724 62.9352 168.571 62.4779 170.755 62.4754C172.797 62.4735 174.547 62.8687 175.279 63.4307C175.286 63.4356 175.289 63.4321 175.29 63.4307C175.291 63.4276 175.29 63.4244 175.288 63.4217L170.75 58.7977L166.097 63.5602Z" fill="white"/>
<path d="M175.289 63.4218V63.4228L175.291 63.4201C175.291 63.417 175.291 63.4138 175.289 63.411L175.289 63.4218ZM170.756 62.3851C168.572 62.3872 166.724 62.8835 166.098 63.5605C166.725 62.9355 168.572 62.4782 170.756 62.4757C172.798 62.4738 174.548 62.869 175.28 63.4309C175.287 63.4359 175.29 63.4324 175.291 63.4309C175.291 63.4296 175.291 63.4282 175.291 63.4268C175.291 63.4255 175.29 63.4242 175.29 63.4231C175.288 63.4245 175.285 63.4255 175.28 63.4218C174.549 62.8134 172.806 62.3856 170.77 62.3854H170.756" fill="white"/>
<path d="M170.765 69.1927L166.235 64.6209C166.229 64.6166 166.226 64.6209 166.224 64.6224C166.224 64.6255 166.225 64.6286 166.227 64.6311L170.765 69.255L175.419 64.4922L170.765 69.1927Z" fill="white"/>
<path d="M166.957 64.4566C167.697 64.7201 168.466 64.8865 169.247 64.9517V64.8686C168.472 64.8065 167.706 64.6503 166.967 64.4033C166.587 64.2706 166.033 63.9879 166.034 63.7101C166.017 64.0075 166.576 64.3123 166.958 64.4556" fill="white"/>
</g>
<rect width="167.75" height="29.127" transform="translate(16.3784 127.839)" fill="white"/>
</g>
</g>
<rect x="16.3784" y="172.147" width="167.75" height="73.0911" rx="7.18929" fill="white"/>
<rect x="16.3784" y="260.814" width="167.75" height="34.7482" rx="7.18929" fill="white"/>
<rect x="16.3784" y="311.139" width="167.75" height="34.7482" rx="7.18929" fill="white"/>
</g>
<path fill-rule="evenodd" clip-rule="evenodd" d="M201.29 384.53V21.3712C201.29 10.0179 192.087 0.814286 180.733 0.814286H60.6847H21.3708C10.0176 0.814286 0.81395 10.0179 0.81395 21.3712V384.53C0.81395 395.883 10.0176 405.087 21.3708 405.087H180.733C192.087 405.087 201.29 395.883 201.29 384.53ZM6.99224 21.3712C6.99224 13.4301 13.4298 6.99258 21.3708 6.99258H60.6847H65.7796C65.7796 14.7848 72.0964 21.1016 79.8886 21.1016H122.216C130.008 21.1016 136.325 14.7848 136.325 6.99258H180.733C188.674 6.99258 195.112 13.4301 195.112 21.3712V384.53C195.112 392.471 188.674 398.909 180.733 398.909H21.3708C13.4298 398.909 6.99224 392.471 6.99224 384.53V21.3712Z" fill="white"/>
<defs>
<filter id="filter0_b_1161_13041" x="132.126" y="30.2779" width="115.028" height="119.63" filterUnits="userSpaceOnUse" color-interpolation-filters="sRGB">
<feFlood flood-opacity="0" result="BackgroundImageFix"/>
<feGaussianBlur in="BackgroundImageFix" stdDeviation="3.83429"/>
<feComposite in2="SourceAlpha" operator="in" result="effect1_backgroundBlur_1161_13041"/>
<feBlend mode="normal" in="SourceGraphic" in2="effect1_backgroundBlur_1161_13041" result="shape"/>
</filter>
<filter id="filter1_d_1161_13041" x="12.0633" y="50.1675" width="176.38" height="113.272" filterUnits="userSpaceOnUse" color-interpolation-filters="sRGB">
<feFlood flood-opacity="0" result="BackgroundImageFix"/>
<feColorMatrix in="SourceAlpha" type="matrix" values="0 0 0 0 0 0 0 0 0 0 0 0 0 0 0 0 0 0 127 0" result="hardAlpha"/>
<feOffset dy="2.15756"/>
<feGaussianBlur stdDeviation="2.15756"/>
<feColorMatrix type="matrix" values="0 0 0 0 0 0 0 0 0 0 0 0 0 0 0 0 0 0 0.05 0"/>
<feBlend mode="normal" in2="BackgroundImageFix" result="effect1_dropShadow_1161_13041"/>
<feBlend mode="normal" in="SourceGraphic" in2="effect1_dropShadow_1161_13041" result="shape"/>
</filter>
<filter id="filter2_d_1161_13041" x="143.135" y="58.7977" width="33.425" height="17.2517" filterUnits="userSpaceOnUse" color-interpolation-filters="sRGB">
<feFlood flood-opacity="0" result="BackgroundImageFix"/>
<feColorMatrix in="SourceAlpha" type="matrix" values="0 0 0 0 0 0 0 0 0 0 0 0 0 0 0 0 0 0 127 0" result="hardAlpha"/>
<feOffset dy="1.07823"/>
<feGaussianBlur stdDeviation="0.539113"/>
<feColorMatrix type="matrix" values="0 0 0 0 0.14902 0 0 0 0 0.14902 0 0 0 0 0.14902 0 0 0 0.1 0"/>
<feBlend mode="normal" in2="BackgroundImageFix" result="effect1_dropShadow_1161_13041"/>
<feBlend mode="normal" in="SourceGraphic" in2="effect1_dropShadow_1161_13041" result="shape"/>
</filter>
<linearGradient id="paint0_linear_1161_13041" x1="100.254" y1="5.59467" x2="100.254" y2="402.204" gradientUnits="userSpaceOnUse">
<stop stop-color="#FACE41"/>
<stop offset="0.557292" stop-color="#FFE492"/>
<stop offset="1" stop-color="white"/>
<stop offset="1" stop-color="#FFFAE9"/>
</linearGradient>
<linearGradient id="paint1_linear_1161_13041" x1="149.766" y1="101.826" x2="232.011" y2="101.826" gradientUnits="userSpaceOnUse">
<stop stop-color="white" stop-opacity="0.35"/>
<stop offset="1" stop-color="white"/>
</linearGradient>
<linearGradient id="paint2_linear_1161_13041" x1="147.272" y1="80.7069" x2="173.524" y2="100.985" gradientUnits="userSpaceOnUse">
<stop stop-color="white" stop-opacity="0.35"/>
<stop offset="1" stop-color="white"/>
</linearGradient>
<linearGradient id="paint3_linear_1161_13041" x1="238.228" y1="61.6905" x2="140.59" y2="61.6905" gradientUnits="userSpaceOnUse">
<stop stop-color="white" stop-opacity="0.35"/>
<stop offset="1" stop-color="white"/>
</linearGradient>
<linearGradient id="paint4_linear_1161_13041" x1="54.1812" y1="56.7057" x2="142.914" y2="138.692" gradientUnits="userSpaceOnUse">
<stop stop-color="#367CF5"/>
<stop offset="1" stop-color="#93BAFF"/>
</linearGradient>
<linearGradient id="paint5_linear_1161_13041" x1="25.0083" y1="66.8886" x2="80.026" y2="66.8886" gradientUnits="userSpaceOnUse">
<stop stop-color="#F8F8F8"/>
<stop offset="1" stop-color="#ECECEC"/>
</linearGradient>
<linearGradient id="paint6_linear_1161_13041" x1="25.0083" y1="78.7551" x2="106.456" y2="78.7551" gradientUnits="userSpaceOnUse">
<stop stop-color="#F8F8F8"/>
<stop offset="1" stop-color="#ECECEC"/>
</linearGradient>
<clipPath id="clip0_1161_13041">
<rect x="2" y="6.79285" width="196.507" height="396.609" rx="16" fill="white"/>
</clipPath>
<clipPath id="clip1_1161_13041">
<rect x="16.3784" y="52.3251" width="167.75" height="104.642" rx="8.63023" fill="white"/>
</clipPath>
</defs>
</svg>
