<svg width="231" height="141" viewBox="0 0 231 141" fill="none" xmlns="http://www.w3.org/2000/svg">
<circle cx="178.092" cy="21.5338" r="5.87288" fill="url(#paint0_linear_127_3107)"/>
<circle cx="54.0305" cy="7.83051" r="7.83051" fill="url(#paint1_linear_127_3107)"/>
<circle cx="46.2" cy="104.146" r="3.91525" fill="url(#paint2_linear_127_3107)"/>
<circle cx="3.91525" cy="42.2849" r="3.91525" fill="#FFDE6A"/>
<circle cx="167.964" cy="125.68" r="1.95763" fill="#FFDE6A"/>
<circle cx="115.5" cy="70.866" r="55.2051" fill="url(#paint3_linear_127_3107)"/>
<path fill-rule="evenodd" clip-rule="evenodd" d="M124.264 83.3786C122.977 81.9122 121.015 82.0288 119.885 83.6286L118.299 85.8783C117.028 87.6614 114.972 87.6614 113.701 85.8783L112.115 83.6286C110.985 82.0288 109.023 81.9122 107.736 83.3786C104.958 86.5282 102.667 85.495 102.667 81.0456V62.2813C102.667 55.5654 104.142 53.8823 110.075 53.8823H121.941C127.874 53.8823 129.349 55.5654 129.333 62.2813V81.0623C129.333 85.495 127.057 86.5449 124.264 83.3786ZM108.083 62.2157C108.083 61.5253 108.643 60.9657 109.333 60.9657H122.667C123.357 60.9657 123.917 61.5253 123.917 62.2157C123.917 62.906 123.357 63.4657 122.667 63.4657H109.333C108.643 63.4657 108.083 62.906 108.083 62.2157ZM111 67.6323C110.31 67.6323 109.75 68.192 109.75 68.8823C109.75 69.5727 110.31 70.1323 111 70.1323H121C121.69 70.1323 122.25 69.5727 122.25 68.8823C122.25 68.192 121.69 67.6323 121 67.6323H111Z" fill="white"/>
<circle cx="121.764" cy="3.52379" r="1.95763" fill="#FFDE6A"/>
<circle cx="87.3102" cy="138.208" r="2.74068" fill="#FFDE6A"/>
<circle cx="228.259" cy="61.4694" r="2.74068" fill="#FFDE6A"/>
<circle cx="133.902" cy="133.902" r="0.783051" fill="#FFDE6A"/>
<circle cx="171.88" cy="86.5272" r="1.95763" fill="#FFDE6A"/>
<circle cx="39.1526" cy="58.7289" r="0.783051" fill="#FFDE6A"/>
<defs>
<linearGradient id="paint0_linear_127_3107" x1="179.216" y1="27.4066" x2="179.373" y2="16.0543" gradientUnits="userSpaceOnUse">
<stop stop-color="white"/>
<stop offset="0.432292" stop-color="#FFE99E"/>
<stop offset="1" stop-color="#FFD548"/>
</linearGradient>
<linearGradient id="paint1_linear_127_3107" x1="55.53" y1="15.661" x2="55.739" y2="0.52457" gradientUnits="userSpaceOnUse">
<stop stop-color="white"/>
<stop offset="0.432292" stop-color="#FFE99E"/>
<stop offset="1" stop-color="#FFD548"/>
</linearGradient>
<linearGradient id="paint2_linear_127_3107" x1="46.9497" y1="108.061" x2="47.0542" y2="100.493" gradientUnits="userSpaceOnUse">
<stop stop-color="white"/>
<stop offset="0.432292" stop-color="#FFE99E"/>
<stop offset="1" stop-color="#FFD548"/>
</linearGradient>
<linearGradient id="paint3_linear_127_3107" x1="126.071" y1="126.071" x2="127.545" y2="19.3591" gradientUnits="userSpaceOnUse">
<stop stop-color="#FFD548" stop-opacity="0.05"/>
<stop offset="0.496675" stop-color="#FFD548" stop-opacity="0.67"/>
<stop offset="1" stop-color="#FFD548"/>
</linearGradient>
</defs>
</svg>
