<svg width="231" height="141" viewBox="0 0 231 141" fill="none" xmlns="http://www.w3.org/2000/svg">
<ellipse cx="178.092" cy="21.5416" rx="5.87288" ry="5.875" fill="url(#paint0_linear_3657_41207)"/>
<ellipse cx="54.0307" cy="7.83333" rx="7.83051" ry="7.83333" fill="url(#paint1_linear_3657_41207)"/>
<ellipse cx="46.2004" cy="104.183" rx="3.91525" ry="3.91667" fill="url(#paint2_linear_3657_41207)"/>
<ellipse cx="3.91525" cy="42.3" rx="3.91525" ry="3.91667" fill="#F4AEAE"/>
<ellipse cx="167.964" cy="125.725" rx="1.95763" ry="1.95833" fill="#C22C2C" fill-opacity="0.5"/>
<circle cx="116" cy="72" r="56" fill="url(#paint3_linear_3657_41207)"/>
<g filter="url(#filter0_d_3657_41207)">
<path fill-rule="evenodd" clip-rule="evenodd" d="M136 72C136 83 127 92 116 92C105 92 96 83 96 72C96 61 105 52 116 52C127 52 136 61 136 72ZM122.721 65.2792C123.306 65.865 123.306 66.8147 122.721 67.4005L118.121 71.9998L122.721 76.5992C123.306 77.185 123.306 78.1347 122.721 78.7205C122.135 79.3063 121.185 79.3063 120.599 78.7205L116 74.1212L111.401 78.7205C110.815 79.3063 109.865 79.3063 109.279 78.7205C108.693 78.1347 108.693 77.185 109.279 76.5992L113.879 71.9998L109.279 67.4005C108.693 66.8147 108.693 65.865 109.279 65.2792C109.865 64.6934 110.815 64.6934 111.401 65.2792L116 69.8785L120.599 65.2792C121.185 64.6934 122.135 64.6934 122.721 65.2792Z" fill="white"/>
</g>
<ellipse cx="121.764" cy="3.52495" rx="1.95763" ry="1.95833" fill="#E43434"/>
<ellipse cx="87.31" cy="138.258" rx="2.74068" ry="2.74167" fill="#E43434"/>
<ellipse cx="228.259" cy="61.4917" rx="2.74068" ry="2.74167" fill="#E43434"/>
<circle cx="133.902" cy="133.95" r="0.783051" fill="#E43434"/>
<ellipse cx="177.958" cy="82.9583" rx="1.95763" ry="1.95833" fill="#F4AEAE"/>
<circle cx="39.8691" cy="59.4666" r="1.5" fill="#E43434"/>
<defs>
<filter id="filter0_d_3657_41207" x="90" y="48" width="52" height="52" filterUnits="userSpaceOnUse" color-interpolation-filters="sRGB">
<feFlood flood-opacity="0" result="BackgroundImageFix"/>
<feColorMatrix in="SourceAlpha" type="matrix" values="0 0 0 0 0 0 0 0 0 0 0 0 0 0 0 0 0 0 127 0" result="hardAlpha"/>
<feOffset dy="2"/>
<feGaussianBlur stdDeviation="1"/>
<feComposite in2="hardAlpha" operator="out"/>
<feColorMatrix type="matrix" values="0 0 0 0 0 0 0 0 0 0 0 0 0 0 0 0 0 0 0.1 0"/>
<feBlend mode="normal" in2="BackgroundImageFix" result="effect1_dropShadow_3657_41207"/>
<feBlend mode="normal" in="SourceGraphic" in2="effect1_dropShadow_3657_41207" result="shape"/>
</filter>
<linearGradient id="paint0_linear_3657_41207" x1="179.216" y1="27.4166" x2="179.373" y2="16.0602" gradientUnits="userSpaceOnUse">
<stop stop-color="#FF4646" stop-opacity="0.05"/>
<stop offset="0.588542" stop-color="#FF4646" stop-opacity="0.5"/>
<stop offset="1" stop-color="#FF4646"/>
</linearGradient>
<linearGradient id="paint1_linear_3657_41207" x1="55.5302" y1="15.6667" x2="55.7393" y2="0.524762" gradientUnits="userSpaceOnUse">
<stop stop-color="#FF4646" stop-opacity="0.05"/>
<stop offset="0.588542" stop-color="#FF4646" stop-opacity="0.5"/>
<stop offset="1" stop-color="#FF4646"/>
</linearGradient>
<linearGradient id="paint2_linear_3657_41207" x1="46.9501" y1="108.1" x2="47.0547" y2="100.529" gradientUnits="userSpaceOnUse">
<stop stop-color="#FF4646" stop-opacity="0.05"/>
<stop offset="0.588542" stop-color="#FF4646" stop-opacity="0.5"/>
<stop offset="1" stop-color="#FF4646"/>
</linearGradient>
<linearGradient id="paint3_linear_3657_41207" x1="126.723" y1="128" x2="128.218" y2="19.7515" gradientUnits="userSpaceOnUse">
<stop stop-color="#FF4646" stop-opacity="0.05"/>
<stop offset="0.588542" stop-color="#FF4646" stop-opacity="0.5"/>
<stop offset="1" stop-color="#FF4646"/>
</linearGradient>
</defs>
</svg>
