<svg width="25" height="24" viewBox="0 0 25 24" fill="none" xmlns="http://www.w3.org/2000/svg">
<path d="M20.0752 4.54948C20.3003 4.49653 20.4681 4.29484 20.4681 4.05355V2.50995C20.4681 2.22837 20.2397 2 19.9582 2H6.00995C5.72837 2 5.5 2.22837 5.5 2.50995V4.05364C5.5 4.29493 5.66777 4.49661 5.89291 4.54956C6.04692 7.29596 7.47324 9.81289 9.77548 11.3553L10.7379 12.0001L9.77548 12.6448C7.47315 14.1871 6.04683 16.7041 5.89291 19.4505C5.66777 19.5035 5.5 19.7052 5.5 19.9465V21.4902C5.5 21.7717 5.72837 22.0001 6.00995 22.0001H19.9582C20.2397 22.0001 20.4681 21.7717 20.4681 21.4902V19.9465C20.4681 19.7052 20.3003 19.5035 20.0752 19.4505C19.9212 16.7041 18.4949 14.1872 16.1926 12.6448L15.2301 12.0001L16.1926 11.3553C18.4949 9.81289 19.9212 7.29588 20.0752 4.54948ZM6.51989 3.01989H19.4482V3.54369H6.51989V3.01989ZM19.4482 20.9801H6.51989V20.4563H19.4482V20.9801ZM14.0301 11.5764C13.8888 11.6711 13.804 11.8299 13.804 12.0001C13.804 12.1702 13.8888 12.3291 14.0301 12.4237L15.625 13.4922C17.6401 14.8421 18.8963 17.0367 19.0529 19.4365H6.91519C7.07183 17.0368 8.32799 14.8422 10.3431 13.4922L11.938 12.4237C12.0793 12.3291 12.1642 12.1702 12.1642 12.0001C12.1642 11.8299 12.0793 11.6711 11.938 11.5764L10.3431 10.5079C8.32799 9.15795 7.07183 6.96331 6.91519 4.56359H19.0529C18.8963 6.96339 17.6401 9.15795 15.625 10.5079L14.0301 11.5764Z" fill="currentColor"/>
<path d="M14.3138 9.02536H11.654C11.4427 9.02536 11.2531 9.15582 11.1777 9.35326C11.1022 9.55077 11.1564 9.77439 11.314 9.9153L12.6438 11.1052C12.7406 11.1918 12.8623 11.235 12.9838 11.235C13.1053 11.235 13.2271 11.1918 13.3238 11.1052L14.6536 9.9153C14.8112 9.7743 14.8654 9.55069 14.79 9.35326C14.7147 9.15582 14.5252 9.02536 14.3138 9.02536Z" fill="currentColor"/>
<path d="M12.9634 13.9482L11.67 14.7789C10.5391 15.5366 9.86035 16.8082 9.86035 18.1694H16.3631C16.3631 16.8082 15.6844 15.5366 14.5535 14.7789L13.2601 13.9482C13.1688 13.8934 13.0547 13.8934 12.9634 13.9482Z" fill="currentColor"/>
</svg>
