<svg width="375" height="260" viewBox="0 0 375 260" fill="none" xmlns="http://www.w3.org/2000/svg">
<g clip-path="url(#clip0_7427_64702)">
<mask id="mask0_7427_64702" style="mask-type:luminance" maskUnits="userSpaceOnUse" x="-48" y="1" width="553" height="260">
<path d="M309.122 260L311.332 260C320.973 252.237 330.643 245.001 340.327 241.105C350.944 236.833 361.66 236.634 372.52 244.368C376.425 247.148 380.416 250.132 384.469 253.25C387.309 255.435 390.191 257.694 393.1 260L395.325 260C392.151 257.48 389.002 255.006 385.881 252.604C381.822 249.482 377.821 246.49 373.891 243.693C362.259 235.41 350.752 235.637 339.328 240.231C329.155 244.323 319.115 251.926 309.122 260ZM281.783 260L284.14 260C288.873 256.73 293.591 253.222 298.299 249.717C308.473 242.147 318.625 234.597 328.771 229.58C343.199 222.445 357.713 220.452 372.522 230.998C383.025 238.476 394.112 247.395 405.473 256.533L409.786 260L412.002 260L406.911 255.907C395.551 246.768 384.46 237.848 373.889 230.322C358.197 219.148 342.858 221.237 327.63 228.767C317.333 233.859 307.129 241.449 296.902 249.059C291.872 252.801 286.833 256.549 281.782 260L281.783 260ZM241.532 260L245.69 260C260.817 255.097 275.415 245.079 289.839 235.18C300.017 228.193 310.113 221.264 320.179 216.286C337.442 207.749 354.728 204.958 372.522 217.628C383.058 225.13 394.135 234.039 405.484 243.166L405.484 243.168C412.464 248.781 419.548 254.479 426.697 260.001L428.943 260.001C421.556 254.312 414.179 248.379 406.915 242.538C395.535 233.388 384.43 224.457 373.889 216.952C355.197 203.642 337.095 206.545 319.04 215.474C308.855 220.511 298.714 227.47 288.49 234.488C273.57 244.728 258.463 255.098 242.964 259.651C242.506 259.774 242.025 259.889 241.532 260L241.532 260ZM-47.0002 222.911L-47.0002 223.541C-27.5444 230.969 -6.94525 237.858 14.0203 244.172C33.1648 249.938 52.6165 255.223 71.783 260L76.4114 260C56.0161 254.98 35.2448 249.377 14.8234 243.227C-6.2565 236.879 -26.97 229.946 -46.5195 222.466L-47.0002 222.911ZM-47.0002 209.514L-47.0002 210.147C-19.4103 220.855 10.5628 230.626 40.5826 239.188C68.9922 247.29 97.4362 254.305 123.937 260L129.216 260C101.439 254.144 71.3711 246.798 41.3499 238.235C11.2474 229.65 -18.8276 219.836 -46.5112 209.07L-47.0002 209.513L-47.0002 209.514ZM-47.0002 196.224L-47.0002 196.86C5.97845 217.821 67.9219 235.83 121.581 247.639C147.331 253.306 171.193 257.543 191.281 260L200.676 260C179.057 257.82 151.915 253.183 122.204 246.644C68.4756 234.82 6.4468 216.777 -46.5043 195.785L-47.0002 196.224L-47.0002 196.224ZM-47.0002 183.041L-47.0002 183.681C6.49777 205.327 69.3999 224.464 123.094 236.216C174.582 247.486 217.711 251.964 236.197 245.381L236.221 245.373C251.292 239.596 265.741 230.3 279.912 221.182C290.193 214.568 300.328 208.046 310.392 203.069C330.932 192.913 351.323 189.162 372.52 204.257C383.019 211.734 394.103 220.647 405.458 229.78L405.462 229.78C418.354 240.149 431.601 250.803 444.8 260L447.142 260C433.647 250.67 420.084 239.763 406.893 229.155L406.896 229.155C395.54 220.02 384.455 211.105 373.888 203.581C351.776 187.835 330.578 191.712 309.252 202.257C299.079 207.287 288.91 213.83 278.598 220.466C264.504 229.534 250.133 238.78 235.256 244.482C217.258 250.873 174.696 246.382 123.706 235.221C69.9702 223.459 6.98678 204.284 -46.4974 182.604L-47.0002 183.041ZM-47.0002 169.978L-47.0002 170.622C6.2567 192.722 69.0652 212.791 122.227 224.337C169.953 234.702 210.011 238.198 228.646 230.158L228.666 230.148C242.261 223.886 255.294 215.862 268.018 208.029C278.722 201.44 289.209 194.984 299.579 189.856C323.812 177.873 347.559 173.11 372.522 190.886C383.021 198.362 394.106 207.277 405.463 216.413C425.314 232.38 446.006 249.021 466.099 260L468.752 260C448.335 249.112 427.179 232.097 406.9 215.787C395.541 206.651 384.456 197.734 373.889 190.21C347.999 171.775 323.456 176.672 298.438 189.044C287.98 194.214 277.463 200.688 266.73 207.296C254.057 215.098 241.074 223.091 227.598 229.3C209.497 237.108 170.026 233.592 122.833 223.342C69.6369 211.789 6.74985 191.677 -46.4905 169.545L-47.0002 169.977L-47.0002 169.978ZM-47.0002 157.063L-47.0002 157.714C5.46464 180.103 67.4122 200.907 119.683 212.137C164.445 221.753 202.207 224.347 221.078 214.937L221.098 214.928C232.208 209.061 242.944 202.572 253.412 196.247C265.312 189.056 276.868 182.073 288.23 176.455C316.441 162.505 343.615 156.933 372.522 177.516C383.022 184.993 394.095 193.898 405.441 203.021C438.073 229.261 472.966 257.319 503.916 259.115L504 258.589L504 258.057C473.867 256.261 439.249 228.425 406.871 202.389C395.52 193.261 384.441 184.352 373.889 176.839C344.053 155.593 316.09 161.299 287.09 175.64C275.649 181.298 264.065 188.297 252.14 195.504C241.709 201.807 231.008 208.274 219.91 214.135L219.91 214.136C201.594 223.256 164.46 220.629 120.289 211.14C67.9976 199.907 5.97018 179.053 -46.4809 156.633L-47.0002 157.062L-47.0002 157.063ZM-47.0002 144.313L-47.0002 144.97C4.30065 167.533 64.8542 188.887 115.994 199.713C158.351 208.68 194.341 210.432 213.499 199.72L213.515 199.709C220.841 195.405 227.985 191.034 234.982 186.753C249.556 177.838 263.508 169.302 277.112 162.575C309.334 146.64 339.763 140.82 372.522 164.145C383.022 171.622 394.095 180.527 405.441 189.65C438.074 215.891 472.967 243.95 503.917 245.745L504.001 245.218L504.001 244.686C473.868 242.89 439.25 215.054 406.872 189.019C395.522 179.891 384.442 170.982 373.891 163.468C340.208 139.485 308.997 145.43 275.974 161.762C262.283 168.531 248.307 177.083 233.705 186.015C226.716 190.292 219.58 194.656 212.278 198.948C193.688 209.343 158.338 207.552 116.596 198.715C65.4437 187.886 4.81722 166.481 -46.4699 143.887L-47.0002 144.312L-47.0002 144.313ZM-47.0002 131.74L-47.0002 132.405C2.88183 155.062 61.6708 176.777 111.529 187.133C151.869 195.513 186.436 196.46 205.913 184.503L205.923 184.495L211.019 181.227C230.727 168.588 249.129 156.785 266.87 148.013C302.89 130.201 336.229 124.932 372.52 150.775C383.021 158.252 394.093 167.157 405.44 176.28C438.073 202.521 472.966 230.579 503.916 232.375L504 231.849L504 231.317C473.867 229.521 439.249 201.685 406.871 175.649C395.52 166.521 384.441 157.612 373.889 150.099C336.69 123.61 302.571 128.983 265.732 147.2C247.914 156.011 229.468 167.841 209.715 180.511L204.629 183.77C185.723 195.376 151.81 194.38 112.116 186.135C62.2727 175.782 3.41492 154.007 -46.4602 131.318L-47.0002 131.738L-47.0002 131.74ZM-47.0002 119.367L-47.0002 120.041C1.30321 142.729 58.0741 164.628 106.532 174.447C145.129 182.268 178.509 182.435 198.315 169.292L198.326 169.286C231.302 146.614 260.452 128.25 288.586 120.785C316.492 113.38 343.514 116.75 372.52 137.405C383.021 144.882 394.093 153.787 405.44 162.91C438.073 189.151 472.966 217.21 503.916 219.005L504 218.478L504 217.946C473.867 216.15 439.249 188.314 406.871 162.279C395.52 153.151 384.441 144.243 373.889 136.729C344.252 115.625 316.544 112.209 287.86 119.819C259.407 127.368 230.099 145.821 196.977 168.594C177.739 181.351 145.027 181.128 107.102 173.443C58.6775 163.631 1.84319 141.669 -46.4451 118.951L-47.0002 119.366L-47.0002 119.367ZM-47.0002 107.216L-47.0002 107.899C-0.388358 130.559 54.202 152.463 101.172 161.682C138.225 168.955 170.588 168.354 190.719 154.083L190.726 154.076C225.446 128.735 255.865 110.405 285.141 103.85C314.213 97.3408 342.274 102.497 372.52 124.036C383.021 131.513 394.093 140.417 405.44 149.541C438.073 175.782 472.966 203.84 503.916 205.636L504 205.11L504 204.578C473.867 202.782 439.249 174.946 406.871 148.91C395.52 139.782 384.441 130.873 373.889 123.36C343.062 101.409 314.35 96.1784 284.512 102.859C254.883 109.493 224.254 127.93 189.353 153.404C169.785 167.275 138.096 167.814 101.733 160.676C54.7998 151.462 0.154375 129.492 -46.4341 106.806L-47.0002 107.215L-47.0002 107.216ZM-47.0002 95.3071L-47.0002 96.0011C-39.8937 99.5764 -32.5613 103.15 -25.0594 106.669C12.4444 124.267 53.2598 140.069 90.0404 147.755C127.069 155.493 160.049 155.027 181.597 139.975C182.075 139.64 182.584 139.272 183.117 138.873L183.124 138.868C219.591 110.857 251.28 92.5581 281.695 86.9115C311.932 81.2983 341.035 88.2447 372.522 110.665C383.022 118.142 394.095 127.047 405.441 136.17C438.074 162.411 472.967 190.47 503.917 192.265L504.001 191.739L504.001 191.206C473.868 189.411 439.25 161.574 406.872 135.539C395.522 126.411 384.442 117.502 373.891 109.989C341.872 87.1878 312.153 80.1466 281.164 85.8995C250.352 91.6198 218.4 110.041 181.713 138.221C181.263 138.559 180.765 138.918 180.235 139.289C159.267 153.937 126.968 154.349 90.6341 146.756C54.0518 139.111 13.4101 123.372 -23.956 105.839C-31.5612 102.271 -39.0754 98.6045 -46.423 94.9008L-46.9988 95.3046L-47.0002 95.3071ZM-47.0002 83.659L-47.0002 84.362C-33.6812 91.2936 -19.7023 98.128 -5.44792 104.492C27.3628 119.142 61.6322 131.308 92.6659 136.476C123.912 141.68 151.897 139.81 171.89 126.31C173.127 125.474 174.336 124.591 175.513 123.664L175.517 123.661C213.734 92.9783 246.697 74.7084 278.25 69.9707C309.655 65.255 339.799 73.9923 372.522 97.2934C383.022 104.77 394.095 113.675 405.441 122.798C438.074 149.039 472.967 177.098 503.917 178.893L504.001 178.367L504.001 177.834C473.868 176.039 439.25 148.202 406.872 122.167C395.522 113.039 384.442 104.13 373.891 96.6166C340.677 72.9656 309.957 64.1155 277.817 68.9415C245.822 73.7454 212.551 92.1486 174.086 123.03C172.94 123.934 171.759 124.795 170.551 125.613C151.095 138.75 123.742 140.55 93.1508 135.455C62.3471 130.325 28.2733 118.223 -4.3776 103.645C-18.8014 97.2059 -32.9483 90.28 -46.412 83.2593L-46.9975 83.6574L-47.0002 83.659ZM-47.0002 72.2872L-47.0002 73.0016C-30.1465 82.0618 -12.2266 90.9045 5.95641 98.6756C34.8522 111.026 64.4106 120.668 91.4206 124.183C118.611 127.721 143.227 125.07 162.027 112.779C164.051 111.457 166.012 110.016 167.904 108.458L167.908 108.456C207.874 75.1015 242.115 56.8586 274.804 53.0282C307.378 49.2117 338.563 59.7432 372.52 83.9238C383.021 91.4015 394.096 100.306 405.442 109.43C438.075 135.671 472.966 163.728 503.916 165.523L504 164.996L504 164.464C473.867 162.668 439.252 134.835 406.875 108.799C395.523 99.6712 384.441 90.7606 373.889 83.247C339.479 58.7443 307.756 48.087 274.463 51.9876C241.287 55.8744 206.698 74.2572 166.454 107.841C164.613 109.358 162.695 110.765 160.709 112.065C142.405 124.031 118.374 126.603 91.7981 123.145C65.0443 119.663 35.7076 110.087 6.99642 97.8157C-11.3298 89.9833 -29.4082 81.0466 -46.3996 71.894L-47.0002 72.2856L-47.0002 72.2872ZM-47.0002 61.204L-47.0002 61.9257C-28.3475 72.2561 -8.39852 82.2106 11.7323 90.4876C37.508 101.085 63.6048 108.942 87.711 111.345C111.966 113.762 134.199 110.67 152.071 99.3345C154.93 97.5206 157.678 95.4951 160.297 93.2513L160.297 93.2497C202.013 57.2248 237.531 39.008 271.362 36.0841C305.103 33.1684 337.329 45.4941 372.52 70.5527C383.021 78.0303 394.096 86.9352 405.442 96.0591C438.075 122.3 472.966 150.356 503.916 152.153L504 151.627L504 151.094C473.867 149.298 439.25 121.463 406.874 95.4289C395.522 86.3009 384.441 77.3911 373.889 69.8775C338.281 44.5214 305.554 32.0592 271.11 35.037C236.757 38.0059 200.852 56.3657 158.831 92.6521C156.258 94.8559 153.567 96.8405 150.77 98.6143C133.364 109.655 111.68 112.662 88.0031 110.302C64.1792 107.929 38.3194 100.136 12.7433 89.6196C-7.53483 81.2828 -27.6298 71.236 -46.3927 60.8198L-47.0002 61.2056L-47.0002 61.204ZM-47.0002 50.4199L-47.0002 51.1531C-27.718 62.1178 -7.0527 72.53 13.7475 80.7899C37.0452 90.0422 60.5247 96.5986 82.4517 98.2228C104.501 99.856 124.964 96.5128 142.081 85.9412C145.78 83.6566 149.324 81.0327 152.688 78.0483L152.692 78.0459C196.16 39.348 232.956 21.1558 267.924 19.1376C302.831 17.1227 336.099 31.2467 372.522 57.1823C383.022 64.6599 394.097 73.564 405.444 82.6887C438.077 108.929 472.967 136.986 503.917 138.783L504.001 138.256L504.001 137.724C473.868 135.927 439.252 108.093 406.875 82.0585C395.523 72.9305 384.442 64.0207 373.891 56.5063C337.084 30.2969 303.352 16.0306 267.756 18.0848C232.222 20.1356 194.999 38.4726 151.204 77.4606C147.901 80.3902 144.423 82.9658 140.794 85.2064C124.118 95.5057 104.169 98.7606 82.6666 97.1691C61.0385 95.567 37.8152 89.0752 14.7393 79.9104C-6.18626 71.6006 -26.9906 61.0928 -46.3831 50.0373L-47.0002 50.4182L-47.0002 50.4199ZM-46.3762 39.5475C-14.454 58.1526 21.2563 74.7501 54.9265 81.2076C88.3653 87.621 119.836 83.9925 143.581 62.2674C189.15 20.5787 227.686 2.26627 264.395 1.13415C301.142 0.00122333 335.88 16.0698 373.888 43.1351C384.44 50.6495 395.52 59.5585 406.872 68.6873C439.249 94.7226 473.866 122.556 503.998 124.353L503.998 124.885L503.914 125.411C472.965 123.616 438.074 95.5588 405.441 69.3175C394.095 60.1936 383.021 51.2888 372.519 43.8111C334.868 17.0001 300.56 1.07856 264.486 2.19024C228.374 3.30355 190.298 21.4713 145.076 62.8429C120.786 85.0641 88.5926 88.7752 54.381 82.2138C20.624 75.7399 -15.0684 59.2193 -47.0016 40.6641L-47.0016 39.9243L-46.3776 39.5475L-46.3762 39.5475Z" fill="white"/>
</mask>
<g mask="url(#mask0_7427_64702)">
<path opacity="0.5" d="M-47 3.05176e-05L-47 260L504 260L504 6.4326e-06L-47 3.05176e-05Z" fill="color1"/>
</g>
</g>
<defs>
<clipPath id="clip0_7427_64702">
<rect width="260" height="551" fill="white" transform="translate(-47 260) rotate(-90)"/>
</clipPath>
</defs>
</svg>
