<svg width="33" height="32" viewBox="0 0 33 32" fill="none" xmlns="http://www.w3.org/2000/svg">
<g clip-path="url(#clip0_2811_26615)">
<path d="M10.376 10.7858H9.15832C6.32872 10.7858 4.02832 13.5803 4.02832 17.0147C4.02832 20.4491 6.32872 23.2436 9.15832 23.2436H10.376C13.2056 23.2436 15.506 20.4491 15.506 17.0147C15.506 13.5803 13.2056 10.7858 10.376 10.7858Z" fill="white"/>
<path d="M26.2876 5.5829H14.7073L10.9273 9.2009V9.7409C14.0323 10.0109 16.492 13.1726 16.492 17.012C16.492 20.8514 14.035 24.0077 10.9219 24.2831V27.2936C10.9219 27.3165 10.931 27.3385 10.9472 27.3547C10.9634 27.3709 10.9854 27.38 11.0083 27.38H26.2876C26.2988 27.38 26.3099 27.3778 26.3202 27.3734C26.3306 27.369 26.3399 27.3626 26.3477 27.3545C26.3555 27.3465 26.3617 27.3369 26.3657 27.3265C26.3697 27.316 26.3716 27.3048 26.3713 27.2936V5.6693C26.3716 5.65808 26.3697 5.64691 26.3657 5.63644C26.3617 5.62597 26.3555 5.61642 26.3477 5.60836C26.3399 5.6003 26.3306 5.59389 26.3202 5.58952C26.3099 5.58515 26.2988 5.5829 26.2876 5.5829Z" fill="#FFC708"/>
<mask id="path-3-inside-1_2811_26615" fill="white">
<path d="M24.0705 14.5469C23.9973 14.5434 23.9282 14.5116 23.8778 14.4583C23.8275 14.4049 23.7998 14.3341 23.8005 14.2607V4.7324H12.8952L9.32045 8.3072V10.0676C9.32045 10.1435 9.29029 10.2163 9.23662 10.27C9.18295 10.3236 9.11015 10.3538 9.03425 10.3538C8.95834 10.3538 8.88555 10.3236 8.83187 10.27C8.7782 10.2163 8.74805 10.1435 8.74805 10.0676V8.1776C8.74801 8.14 8.75539 8.10276 8.76975 8.06802C8.78411 8.03327 8.80518 8.0017 8.83175 7.9751L12.5739 4.2464C12.6003 4.21934 12.6318 4.19778 12.6666 4.18295C12.7013 4.16812 12.7387 4.16032 12.7764 4.16H24.0705C24.108 4.15964 24.1452 4.16671 24.1799 4.1808C24.2146 4.19489 24.2461 4.21571 24.2728 4.24207C24.2994 4.26843 24.3205 4.29981 24.3349 4.33438C24.3493 4.36895 24.3567 4.40604 24.3567 4.4435V14.2607C24.3571 14.2984 24.3499 14.3358 24.3357 14.3706C24.3214 14.4055 24.3004 14.4372 24.2737 14.4639C24.2471 14.4905 24.2154 14.5116 24.1805 14.5258C24.1456 14.5401 24.1082 14.5473 24.0705 14.5469Z"/>
</mask>
<path d="M24.0705 14.5469C23.9973 14.5434 23.9282 14.5116 23.8778 14.4583C23.8275 14.4049 23.7998 14.3341 23.8005 14.2607V4.7324H12.8952L9.32045 8.3072V10.0676C9.32045 10.1435 9.29029 10.2163 9.23662 10.27C9.18295 10.3236 9.11015 10.3538 9.03425 10.3538C8.95834 10.3538 8.88555 10.3236 8.83187 10.27C8.7782 10.2163 8.74805 10.1435 8.74805 10.0676V8.1776C8.74801 8.14 8.75539 8.10276 8.76975 8.06802C8.78411 8.03327 8.80518 8.0017 8.83175 7.9751L12.5739 4.2464C12.6003 4.21934 12.6318 4.19778 12.6666 4.18295C12.7013 4.16812 12.7387 4.16032 12.7764 4.16H24.0705C24.108 4.15964 24.1452 4.16671 24.1799 4.1808C24.2146 4.19489 24.2461 4.21571 24.2728 4.24207C24.2994 4.26843 24.3205 4.29981 24.3349 4.33438C24.3493 4.36895 24.3567 4.40604 24.3567 4.4435V14.2607C24.3571 14.2984 24.3499 14.3358 24.3357 14.3706C24.3214 14.4055 24.3004 14.4372 24.2737 14.4639C24.2471 14.4905 24.2154 14.5116 24.1805 14.5258C24.1456 14.5401 24.1082 14.5473 24.0705 14.5469Z" fill="#1B1D29"/>
<path d="M24.0705 14.5469L24.023 15.5458L24.042 15.5467L24.061 15.5468L24.0705 14.5469ZM23.8005 14.2607L24.8005 14.2714V14.2607H23.8005ZM23.8005 4.7324H24.8005V3.7324H23.8005V4.7324ZM12.8952 4.7324V3.7324H12.481L12.1881 4.02529L12.8952 4.7324ZM9.32045 8.3072L8.61334 7.60009L8.32045 7.89298V8.3072H9.32045ZM9.32045 10.0676H10.3204H9.32045ZM9.03425 10.3538V11.3538V10.3538ZM8.74805 10.0676H7.74805H8.74805ZM8.74805 8.1776H9.74805L9.74805 8.17672L8.74805 8.1776ZM8.83175 7.9751L8.12592 7.26671L8.1242 7.26843L8.83175 7.9751ZM12.5739 4.2464L13.2798 4.95478L13.2849 4.94966L13.29 4.94447L12.5739 4.2464ZM12.7764 4.16V3.15996L12.768 3.16003L12.7764 4.16ZM24.0705 4.16V5.16004L24.0801 5.15995L24.0705 4.16ZM24.3567 4.4435L23.3567 4.44345V4.4435H24.3567ZM24.3567 14.2607H23.3567L23.3568 14.2703L24.3567 14.2607ZM24.1181 13.548C24.3034 13.5568 24.478 13.6371 24.6052 13.772L23.1504 15.1445C23.3784 15.3861 23.6912 15.53 24.023 15.5458L24.1181 13.548ZM24.6052 13.772C24.7325 13.9069 24.8025 14.0859 24.8005 14.2714L22.8006 14.25C22.7971 14.5822 22.9225 14.9028 23.1504 15.1445L24.6052 13.772ZM24.8005 14.2607V4.7324H22.8005V14.2607H24.8005ZM23.8005 3.7324H12.8952V5.7324H23.8005V3.7324ZM12.1881 4.02529L8.61334 7.60009L10.0276 9.0143L13.6024 5.4395L12.1881 4.02529ZM8.32045 8.3072V10.0676H10.3204V8.3072H8.32045ZM8.32045 10.0676C8.32045 9.87828 8.39565 9.69672 8.52951 9.56286L9.94373 10.9771C10.1849 10.7359 10.3204 10.4087 10.3204 10.0676H8.32045ZM8.52951 9.56286C8.66338 9.429 8.84493 9.3538 9.03425 9.3538V11.3538C9.37537 11.3538 9.70252 11.2183 9.94373 10.9771L8.52951 9.56286ZM9.03425 9.3538C9.22356 9.3538 9.40512 9.429 9.53898 9.56286L8.12477 10.9771C8.36598 11.2183 8.69312 11.3538 9.03425 11.3538V9.3538ZM9.53898 9.56286C9.67284 9.69673 9.74805 9.87829 9.74805 10.0676H7.74805C7.74805 10.4087 7.88356 10.7359 8.12477 10.9771L9.53898 9.56286ZM9.74805 10.0676V8.1776H7.74805V10.0676H9.74805ZM9.74805 8.17672C9.74813 8.27049 9.72973 8.36335 9.69392 8.45001L7.84558 7.68603C7.78104 7.84218 7.7479 8.00951 7.74805 8.17848L9.74805 8.17672ZM9.69392 8.45001C9.6581 8.53666 9.60556 8.61541 9.53929 8.68176L8.1242 7.26843C8.0048 7.38798 7.91012 7.52989 7.84558 7.68603L9.69392 8.45001ZM9.53757 8.68348L13.2798 4.95478L11.8681 3.53801L8.12592 7.26671L9.53757 8.68348ZM13.29 4.94447C13.2242 5.01196 13.1457 5.06574 13.059 5.10272L12.2741 3.26317C12.1179 3.32981 11.9765 3.42673 11.8579 3.54832L13.29 4.94447ZM13.059 5.10272C12.9723 5.13971 12.8792 5.15916 12.7849 5.15996L12.768 3.16003C12.5982 3.16147 12.4303 3.19653 12.2741 3.26317L13.059 5.10272ZM12.7764 5.16H24.0705V3.16H12.7764V5.16ZM24.0801 5.15995C23.9854 5.16085 23.8915 5.14299 23.8038 5.10738L24.556 3.25421C24.3988 3.19043 24.2306 3.15843 24.061 3.16004L24.0801 5.15995ZM23.8038 5.10738C23.7161 5.07178 23.6363 5.01915 23.569 4.95252L24.9765 3.53162C24.856 3.41227 24.7131 3.31799 24.556 3.25421L23.8038 5.10738ZM23.569 4.95252C23.5017 4.88588 23.4484 4.80658 23.4119 4.71923L25.2579 3.94953C25.1926 3.79303 25.097 3.65098 24.9765 3.53162L23.569 4.95252ZM23.4119 4.71923C23.3755 4.63188 23.3567 4.53815 23.3567 4.44345L25.3567 4.44354C25.3568 4.27392 25.3231 4.10602 25.2579 3.94953L23.4119 4.71923ZM23.3567 4.4435V14.2607H25.3567V4.4435H23.3567ZM23.3568 14.2703C23.3559 14.175 23.374 14.0805 23.41 13.9924L25.2614 14.7489C25.3259 14.591 25.3583 14.4218 25.3567 14.2511L23.3568 14.2703ZM23.41 13.9924C23.446 13.9042 23.4993 13.8241 23.5666 13.7568L24.9808 15.171C25.1015 15.0503 25.1969 14.9068 25.2614 14.7489L23.41 13.9924ZM23.5666 13.7568C23.634 13.6894 23.7141 13.6362 23.8022 13.6001L24.5588 15.4515C24.7167 15.387 24.8602 15.2916 24.9808 15.171L23.5666 13.7568ZM23.8022 13.6001C23.8904 13.5641 23.9849 13.546 24.0801 13.5469L24.061 15.5468C24.2316 15.5485 24.4008 15.5161 24.5588 15.4515L23.8022 13.6001Z" fill="#1B1D29" mask="url(#path-3-inside-1_2811_26615)"/>
<mask id="path-5-inside-2_2811_26615" fill="white">
<path d="M24.0705 26.0003H9.03425C8.95834 26.0003 8.88555 25.9701 8.83187 25.9165C8.7782 25.8628 8.74805 25.79 8.74805 25.7141V24.1535C8.74805 24.0776 8.7782 24.0048 8.83187 23.9511C8.88555 23.8975 8.95834 23.8673 9.03425 23.8673C9.11015 23.8673 9.18295 23.8975 9.23662 23.9511C9.29029 24.0048 9.32045 24.0776 9.32045 24.1535V25.4279H23.787V20.9675C23.7832 20.9278 23.7877 20.8877 23.8002 20.8498C23.8128 20.8119 23.8331 20.777 23.8599 20.7474C23.8868 20.7179 23.9195 20.6942 23.956 20.6781C23.9925 20.6619 24.032 20.6535 24.0719 20.6535C24.1118 20.6535 24.1513 20.6619 24.1878 20.6781C24.2243 20.6942 24.257 20.7179 24.2839 20.7474C24.3107 20.777 24.331 20.8119 24.3436 20.8498C24.3561 20.8877 24.3606 20.9278 24.3567 20.9675V25.7141C24.3571 25.7518 24.3499 25.7892 24.3357 25.824C24.3214 25.8589 24.3004 25.8906 24.2737 25.9173C24.2471 25.9439 24.2154 25.965 24.1805 25.9792C24.1456 25.9935 24.1082 26.0007 24.0705 26.0003Z"/>
</mask>
<path d="M24.0705 26.0003H9.03425C8.95834 26.0003 8.88555 25.9701 8.83187 25.9165C8.7782 25.8628 8.74805 25.79 8.74805 25.7141V24.1535C8.74805 24.0776 8.7782 24.0048 8.83187 23.9511C8.88555 23.8975 8.95834 23.8673 9.03425 23.8673C9.11015 23.8673 9.18295 23.8975 9.23662 23.9511C9.29029 24.0048 9.32045 24.0776 9.32045 24.1535V25.4279H23.787V20.9675C23.7832 20.9278 23.7877 20.8877 23.8002 20.8498C23.8128 20.8119 23.8331 20.777 23.8599 20.7474C23.8868 20.7179 23.9195 20.6942 23.956 20.6781C23.9925 20.6619 24.032 20.6535 24.0719 20.6535C24.1118 20.6535 24.1513 20.6619 24.1878 20.6781C24.2243 20.6942 24.257 20.7179 24.2839 20.7474C24.3107 20.777 24.331 20.8119 24.3436 20.8498C24.3561 20.8877 24.3606 20.9278 24.3567 20.9675V25.7141C24.3571 25.7518 24.3499 25.7892 24.3357 25.824C24.3214 25.8589 24.3004 25.8906 24.2737 25.9173C24.2471 25.9439 24.2154 25.965 24.1805 25.9792C24.1456 25.9935 24.1082 26.0007 24.0705 26.0003Z" fill="#1B1D29"/>
<path d="M24.0705 26.0003L24.0801 25.0003H24.0705V26.0003ZM9.03425 26.0003V25.0003V26.0003ZM8.74805 25.7141H7.74805H8.74805ZM9.32045 24.1535H10.3204H9.32045ZM9.32045 25.4279H8.32045V26.4279H9.32045V25.4279ZM23.787 25.4279V26.4279H24.787V25.4279H23.787ZM23.787 20.9675H24.787V20.9189L24.7823 20.8705L23.787 20.9675ZM24.0719 20.6535V21.6535V20.6535ZM24.3567 20.9675L23.3615 20.8705L23.3567 20.9189V20.9675H24.3567ZM24.3567 25.7141H23.3567L23.3568 25.7237L24.3567 25.7141ZM24.0705 25.0003H9.03425V27.0003H24.0705V25.0003ZM9.03425 25.0003C9.22355 25.0003 9.40511 25.0755 9.53898 25.2094L8.12477 26.6236C8.36598 26.8648 8.69313 27.0003 9.03425 27.0003V25.0003ZM9.53898 25.2094C9.67284 25.3432 9.74805 25.5248 9.74805 25.7141H7.74805C7.74805 26.0552 7.88356 26.3824 8.12477 26.6236L9.53898 25.2094ZM9.74805 25.7141V24.1535H7.74805V25.7141H9.74805ZM9.74805 24.1535C9.74805 24.3428 9.67284 24.5244 9.53898 24.6582L8.12477 23.244C7.88356 23.4852 7.74805 23.8124 7.74805 24.1535H9.74805ZM9.53898 24.6582C9.40512 24.7921 9.22357 24.8673 9.03425 24.8673V22.8673C8.69312 22.8673 8.36597 23.0028 8.12477 23.244L9.53898 24.6582ZM9.03425 24.8673C8.84493 24.8673 8.66337 24.7921 8.52951 24.6582L9.94373 23.244C9.70252 23.0028 9.37538 22.8673 9.03425 22.8673V24.8673ZM8.52951 24.6582C8.39565 24.5244 8.32045 24.3428 8.32045 24.1535H10.3204C10.3204 23.8124 10.1849 23.4852 9.94373 23.244L8.52951 24.6582ZM8.32045 24.1535V25.4279H10.3204V24.1535H8.32045ZM9.32045 26.4279H23.787V24.4279H9.32045V26.4279ZM24.787 25.4279V20.9675H22.787V25.4279H24.787ZM24.7823 20.8705C24.792 20.9696 24.7808 21.0696 24.7495 21.1642L22.8509 20.5354C22.7945 20.7057 22.7744 20.8859 22.7918 21.0645L24.7823 20.8705ZM24.7495 21.1642C24.7182 21.2587 24.6675 21.3456 24.6005 21.4194L23.1193 20.0755C22.9987 20.2084 22.9073 20.365 22.8509 20.5354L24.7495 21.1642ZM24.6005 21.4194C24.5336 21.4931 24.452 21.552 24.361 21.5924L23.551 19.7637C23.3869 19.8364 23.2399 19.9426 23.1193 20.0755L24.6005 21.4194ZM24.361 21.5924C24.2699 21.6327 24.1715 21.6535 24.0719 21.6535V19.6535C23.8925 19.6535 23.715 19.6911 23.551 19.7637L24.361 21.5924ZM24.0719 21.6535C23.9723 21.6535 23.8738 21.6327 23.7828 21.5924L24.5928 19.7637C24.4288 19.6911 24.2513 19.6535 24.0719 19.6535V21.6535ZM23.7828 21.5924C23.6918 21.552 23.6102 21.4931 23.5432 21.4194L25.0245 20.0755C24.9039 19.9426 24.7569 19.8364 24.5928 19.7637L23.7828 21.5924ZM23.5432 21.4194C23.4763 21.3456 23.4256 21.2587 23.3943 21.1642L25.2929 20.5354C25.2365 20.365 25.145 20.2084 25.0245 20.0755L23.5432 21.4194ZM23.3943 21.1642C23.363 21.0696 23.3518 20.9696 23.3615 20.8705L25.352 21.0645C25.3694 20.8859 25.3493 20.7057 25.2929 20.5354L23.3943 21.1642ZM23.3567 20.9675V25.7141H25.3567V20.9675H23.3567ZM23.3568 25.7237C23.3559 25.6284 23.374 25.5339 23.41 25.4458L25.2614 26.2023C25.3259 26.0444 25.3583 25.8752 25.3567 25.7045L23.3568 25.7237ZM23.41 25.4458C23.446 25.3576 23.4993 25.2775 23.5666 25.2102L24.9808 26.6244C25.1015 26.5037 25.1969 26.3602 25.2614 26.2023L23.41 25.4458ZM23.5666 25.2102C23.634 25.1428 23.7141 25.0896 23.8022 25.0535L24.5588 26.9049C24.7167 26.8404 24.8602 26.745 24.9808 26.6244L23.5666 25.2102ZM23.8022 25.0535C23.8904 25.0175 23.9849 24.9994 24.0801 25.0003L24.061 27.0003C24.2316 27.0019 24.4008 26.9695 24.5588 26.9049L23.8022 25.0535Z" fill="#1B1D29" mask="url(#path-5-inside-2_2811_26615)"/>
<path d="M9.03301 8.19863L9.03628 8.19542L9.15196 8.31093L9.18568 8.3446L9.18667 8.34362L9.18812 8.34215L9.03301 8.19863ZM9.03301 8.19863L9.03301 8.1989L9.03303 8.20229L9.03301 8.19863ZM8.88065 8.04001L8.87803 8.04264L8.87289 8.04809C8.87546 8.04537 8.87809 8.04272 8.88078 8.04014L9.02509 8.18424M8.88065 8.04001L9.02509 8.18424M8.88065 8.04001L8.83188 7.99131L8.88104 8.03963L8.88065 8.04001ZM9.02509 8.18424L9.0304 8.18954M9.02509 8.18424L9.0304 8.18954M9.0304 8.18954L9.03046 8.1938L9.0305 8.19653L9.0304 8.18954ZM9.03298 8.19212L9.03428 8.19342L9.03301 8.1965L9.033 8.1965L9.03299 8.1938L9.03298 8.19212ZM9.03033 8.18436L9.03036 8.18637L9.02273 8.17887L8.88118 8.03976C8.88196 8.03902 8.88274 8.03828 8.88353 8.03756C8.90112 8.02129 8.92131 8.00804 8.9433 7.99836L9.02107 8.1751L8.9433 7.99836C8.96987 7.98667 8.99851 7.98045 9.02753 7.98005L9.03033 8.18436Z" fill="#1B1D29" stroke="#1B1D29"/>
<mask id="path-8-inside-3_2811_26615" fill="white">
<path d="M12.7764 8.48H9.03425C8.95834 8.48 8.88555 8.44985 8.83187 8.39617C8.7782 8.3425 8.74805 8.26971 8.74805 8.1938C8.74805 8.1179 8.7782 8.0451 8.83187 7.99143C8.88555 7.93775 8.95834 7.9076 9.03425 7.9076H12.4902V4.4462C12.4902 4.3703 12.5204 4.2975 12.5741 4.24383C12.6277 4.19015 12.7005 4.16 12.7764 4.16C12.8524 4.16 12.9251 4.19015 12.9788 4.24383C13.0325 4.2975 13.0626 4.3703 13.0626 4.4462V8.1938C13.0626 8.26971 13.0325 8.3425 12.9788 8.39617C12.9251 8.44985 12.8524 8.48 12.7764 8.48Z"/>
</mask>
<path d="M12.7764 8.48H9.03425C8.95834 8.48 8.88555 8.44985 8.83187 8.39617C8.7782 8.3425 8.74805 8.26971 8.74805 8.1938C8.74805 8.1179 8.7782 8.0451 8.83187 7.99143C8.88555 7.93775 8.95834 7.9076 9.03425 7.9076H12.4902V4.4462C12.4902 4.3703 12.5204 4.2975 12.5741 4.24383C12.6277 4.19015 12.7005 4.16 12.7764 4.16C12.8524 4.16 12.9251 4.19015 12.9788 4.24383C13.0325 4.2975 13.0626 4.3703 13.0626 4.4462V8.1938C13.0626 8.26971 13.0325 8.3425 12.9788 8.39617C12.9251 8.44985 12.8524 8.48 12.7764 8.48Z" fill="#1B1D29"/>
<path d="M8.74805 8.1938H7.74805H8.74805ZM9.03425 7.9076V6.9076V7.9076ZM12.4902 7.9076V8.9076H13.4902V7.9076H12.4902ZM12.4902 4.4462L11.4902 4.4462V4.4462H12.4902ZM13.0626 4.4462H14.0626V4.4462L13.0626 4.4462ZM12.7764 7.48H9.03425V9.48H12.7764V7.48ZM9.03425 7.48C9.22356 7.48 9.40512 7.5552 9.53898 7.68907L8.12477 9.10328C8.36598 9.34449 8.69312 9.48 9.03425 9.48V7.48ZM9.53898 7.68907C9.67284 7.82293 9.74805 8.00449 9.74805 8.1938H7.74805C7.74805 8.53492 7.88356 8.86207 8.12477 9.10328L9.53898 7.68907ZM9.74805 8.1938C9.74805 8.38311 9.67284 8.56467 9.53898 8.69853L8.12477 7.28432C7.88356 7.52553 7.74805 7.85268 7.74805 8.1938H9.74805ZM9.53898 8.69853C9.40512 8.8324 9.22356 8.9076 9.03425 8.9076V6.9076C8.69312 6.9076 8.36598 7.04311 8.12477 7.28432L9.53898 8.69853ZM9.03425 8.9076H12.4902V6.9076H9.03425V8.9076ZM13.4902 7.9076V4.4462H11.4902V7.9076H13.4902ZM13.4902 4.4462C13.4902 4.63551 13.415 4.81707 13.2812 4.95093L11.867 3.53672C11.6258 3.77793 11.4902 4.10508 11.4902 4.4462L13.4902 4.4462ZM13.2812 4.95093C13.1473 5.0848 12.9658 5.16 12.7764 5.16V3.16C12.4353 3.16 12.1082 3.29551 11.867 3.53672L13.2812 4.95093ZM12.7764 5.16C12.5871 5.16 12.4056 5.0848 12.2717 4.95093L13.6859 3.53672C13.4447 3.29551 13.1176 3.16 12.7764 3.16V5.16ZM12.2717 4.95093C12.1379 4.81707 12.0626 4.63551 12.0626 4.4462L14.0626 4.4462C14.0626 4.10508 13.9271 3.77793 13.6859 3.53672L12.2717 4.95093ZM12.0626 4.4462V8.1938H14.0626V4.4462H12.0626ZM12.0626 8.1938C12.0626 8.00449 12.1379 7.82293 12.2717 7.68907L13.6859 9.10328C13.9271 8.86207 14.0626 8.53492 14.0626 8.1938H12.0626ZM12.2717 7.68907C12.4056 7.5552 12.5871 7.48 12.7764 7.48V9.48C13.1176 9.48 13.4447 9.34449 13.6859 9.10328L12.2717 7.68907Z" fill="#1B1D29" mask="url(#path-8-inside-3_2811_26615)"/>
<path d="M22.7508 20.8433C22.7104 20.8838 22.6586 20.9111 22.6023 20.9216L20.9146 21.1651L21.3339 21.0863L22.4976 20.8676L22.5885 20.8505L22.589 20.8504L22.6492 20.8391L22.6979 20.7905L22.7503 20.8427L22.6979 20.7905L22.7584 20.7302L28.4284 15.0737L28.6247 14.8778L28.6248 14.8777L28.6915 14.8112L28.748 14.7548C28.7447 14.7794 28.7382 14.8036 28.7287 14.8266C28.7143 14.8614 28.6931 14.8929 28.6665 14.9195L22.7508 20.8433ZM20.8952 20.9706L20.8945 20.9641L20.8938 20.9567L20.8924 20.9431L20.8841 20.8599L20.8952 20.9706ZM28.7287 14.6074C28.7391 14.6326 28.7459 14.6591 28.7488 14.6862L28.6665 14.5145C28.6931 14.5411 28.7143 14.5726 28.7287 14.6074Z" fill="#1B1D29" stroke="#1B1D29"/>
<mask id="path-11-inside-4_2811_26615" fill="white">
<path d="M29.1546 14.3282C29.117 14.3284 29.0797 14.3211 29.045 14.3067C29.0102 14.2923 28.9787 14.2712 28.9521 14.2445L27.6021 12.8945C27.5492 12.8409 27.5195 12.7687 27.5195 12.6933C27.5195 12.618 27.5492 12.5458 27.6021 12.4922L28.4121 11.6822C28.467 11.6317 28.5388 11.6037 28.6133 11.6037C28.6878 11.6037 28.7596 11.6317 28.8144 11.6822L30.1644 13.0322C30.2175 13.0862 30.2473 13.1589 30.2473 13.2347C30.2473 13.3104 30.2175 13.3832 30.1644 13.4372L29.3544 14.2472C29.3011 14.2995 29.2293 14.3286 29.1546 14.3282ZM28.2042 12.6893L29.1546 13.6397L29.5515 13.2401L28.6011 12.2897L28.2042 12.6893Z"/>
</mask>
<path d="M29.1546 14.3282C29.117 14.3284 29.0797 14.3211 29.045 14.3067C29.0102 14.2923 28.9787 14.2712 28.9521 14.2445L27.6021 12.8945C27.5492 12.8409 27.5195 12.7687 27.5195 12.6933C27.5195 12.618 27.5492 12.5458 27.6021 12.4922L28.4121 11.6822C28.467 11.6317 28.5388 11.6037 28.6133 11.6037C28.6878 11.6037 28.7596 11.6317 28.8144 11.6822L30.1644 13.0322C30.2175 13.0862 30.2473 13.1589 30.2473 13.2347C30.2473 13.3104 30.2175 13.3832 30.1644 13.4372L29.3544 14.2472C29.3011 14.2995 29.2293 14.3286 29.1546 14.3282ZM28.2042 12.6893L29.1546 13.6397L29.5515 13.2401L28.6011 12.2897L28.2042 12.6893Z" fill="#1B1D29"/>
<path d="M28.9521 14.2445L29.6616 13.5397L29.6592 13.5374L28.9521 14.2445ZM27.6021 12.8945L26.8908 13.5973L26.895 13.6016L27.6021 12.8945ZM27.5195 12.6933H28.5195H27.5195ZM27.6021 12.4922L26.895 11.7851L26.8908 11.7894L27.6021 12.4922ZM28.4121 11.6822L27.7349 10.9465L27.7197 10.9605L27.705 10.9751L28.4121 11.6822ZM28.8144 11.6822L29.5215 10.9751L29.5069 10.9605L29.4917 10.9465L28.8144 11.6822ZM30.1644 13.0322L30.8777 12.3312L30.8715 12.3251L30.1644 13.0322ZM30.1644 13.4372L30.8716 14.1443L30.8777 14.1381L30.1644 13.4372ZM29.3544 14.2472L30.0543 14.9615L30.0615 14.9543L29.3544 14.2472ZM28.2042 12.6893L27.4947 11.9846L26.7924 12.6917L27.4971 13.3964L28.2042 12.6893ZM29.1546 13.6397L28.4475 14.3468L29.157 15.0563L29.8641 14.3444L29.1546 13.6397ZM29.5515 13.2401L30.261 13.9448L30.9634 13.2377L30.2586 12.533L29.5515 13.2401ZM28.6011 12.2897L29.3082 11.5826L28.5987 10.8731L27.8916 11.585L28.6011 12.2897ZM29.1498 13.3282C29.2449 13.3278 29.3391 13.3462 29.427 13.3825L28.663 15.2309C28.8204 15.2959 28.9892 15.329 29.1595 15.3282L29.1498 13.3282ZM29.427 13.3825C29.5148 13.4189 29.5946 13.4723 29.6616 13.5397L28.2427 14.9492C28.3627 15.0701 28.5056 15.1658 28.663 15.2309L29.427 13.3825ZM29.6592 13.5374L28.3092 12.1874L26.895 13.6016L28.245 14.9516L29.6592 13.5374ZM28.3135 12.1917C28.4455 12.3253 28.5195 12.5055 28.5195 12.6933H26.5195C26.5195 13.0318 26.6529 13.3566 26.8908 13.5973L28.3135 12.1917ZM28.5195 12.6933C28.5195 12.8812 28.4455 13.0614 28.3135 13.195L26.8908 11.7894C26.6529 12.0301 26.5195 12.3549 26.5195 12.6933H28.5195ZM28.3092 13.1993L29.1192 12.3893L27.705 10.9751L26.895 11.7851L28.3092 13.1993ZM29.0894 12.4179C28.9596 12.5374 28.7897 12.6037 28.6133 12.6037V10.6037C28.2879 10.6037 27.9743 10.7261 27.7349 10.9465L29.0894 12.4179ZM28.6133 12.6037C28.4369 12.6037 28.2669 12.5374 28.1372 12.4179L29.4917 10.9465C29.2523 10.7261 28.9387 10.6037 28.6133 10.6037V12.6037ZM28.1073 12.3893L29.4573 13.7393L30.8715 12.3251L29.5215 10.9751L28.1073 12.3893ZM29.4512 13.7331C29.3205 13.6002 29.2473 13.4212 29.2473 13.2347H31.2473C31.2473 12.8967 31.1145 12.5723 30.8777 12.3313L29.4512 13.7331ZM29.2473 13.2347C29.2473 13.0482 29.3205 12.8692 29.4512 12.7363L30.8777 14.1381C31.1145 13.8971 31.2473 13.5727 31.2473 13.2347H29.2473ZM29.4573 12.7301L28.6473 13.5401L30.0615 14.9543L30.8715 14.1443L29.4573 12.7301ZM28.6546 13.5329C28.7894 13.4009 28.9708 13.3273 29.1595 13.3282L29.1497 15.3282C29.4878 15.3298 29.8128 15.1981 30.0543 14.9615L28.6546 13.5329ZM27.4971 13.3964L28.4475 14.3468L29.8617 12.9326L28.9113 11.9822L27.4971 13.3964ZM29.8641 14.3444L30.261 13.9448L28.842 12.5354L28.4451 12.935L29.8641 14.3444ZM30.2586 12.533L29.3082 11.5826L27.894 12.9968L28.8444 13.9472L30.2586 12.533ZM27.8916 11.585L27.4947 11.9846L28.9137 13.394L29.3106 12.9944L27.8916 11.585Z" fill="#1B1D29" mask="url(#path-11-inside-4_2811_26615)"/>
<path d="M25.3481 16.7744C25.2723 16.7739 25.1997 16.7439 25.1456 16.6907C25.1187 16.6643 25.0973 16.6328 25.0827 16.598C25.0681 16.5632 25.0605 16.5259 25.0605 16.4882C25.0605 16.4505 25.0681 16.4131 25.0827 16.3784C25.0973 16.3436 25.1187 16.3121 25.1456 16.2857L27.5756 13.8557C27.6302 13.8083 27.7007 13.7833 27.7729 13.7857C27.8451 13.7882 27.9137 13.8178 27.965 13.8687C28.0163 13.9197 28.0464 13.9881 28.0493 14.0603C28.0522 14.1325 28.0277 14.2031 27.9806 14.258L25.5344 16.7042C25.4829 16.7493 25.4167 16.7743 25.3481 16.7744Z" fill="#1B1D29"/>
<path d="M22.548 20.927C22.4723 20.9259 22.3999 20.896 22.3455 20.8433L20.9955 19.4933C20.9656 19.4677 20.9413 19.4362 20.9242 19.4008C20.907 19.3654 20.8973 19.3268 20.8957 19.2875C20.8942 19.2481 20.9007 19.2089 20.915 19.1722C20.9292 19.1355 20.9509 19.1022 20.9787 19.0743C21.0064 19.0464 21.0396 19.0244 21.0762 19.0099C21.1128 18.9954 21.1519 18.9886 21.1913 18.9899C21.2306 18.9912 21.2693 19.0007 21.3048 19.0176C21.3403 19.0345 21.372 19.0586 21.3978 19.0883L22.7478 20.4383C22.8009 20.4923 22.8306 20.565 22.8306 20.6408C22.8306 20.7165 22.8009 20.7893 22.7478 20.8433C22.6941 20.8954 22.6228 20.9252 22.548 20.927Z" fill="#1B1D29"/>
<path d="M21.387 6.6062H15.5577C15.4818 6.6062 15.409 6.57605 15.3553 6.52238C15.3016 6.4687 15.2715 6.39591 15.2715 6.32C15.2715 6.2441 15.3016 6.1713 15.3553 6.11763C15.409 6.06396 15.4818 6.0338 15.5577 6.0338H21.387C21.4629 6.0338 21.5357 6.06396 21.5894 6.11763C21.643 6.1713 21.6732 6.2441 21.6732 6.32C21.6732 6.39591 21.643 6.4687 21.5894 6.52238C21.5357 6.57605 21.4629 6.6062 21.387 6.6062Z" fill="#1B1D29"/>
<path d="M21.387 23.06H15.5577C15.4818 23.06 15.409 23.0298 15.3553 22.9762C15.3016 22.9225 15.2715 22.8497 15.2715 22.7738C15.2715 22.6979 15.3016 22.6251 15.3553 22.5714C15.409 22.5178 15.4818 22.4876 15.5577 22.4876H21.387C21.4629 22.4876 21.5357 22.5178 21.5894 22.5714C21.643 22.6251 21.6732 22.6979 21.6732 22.7738C21.6732 22.8497 21.643 22.9225 21.5894 22.9762C21.5357 23.0298 21.4629 23.06 21.387 23.06Z" fill="#1B1D29"/>
<path d="M21.387 8.48H15.5577C15.4818 8.48 15.409 8.44985 15.3553 8.39618C15.3016 8.34251 15.2715 8.26971 15.2715 8.1938C15.2715 8.1179 15.3016 8.0451 15.3553 7.99143C15.409 7.93776 15.4818 7.9076 15.5577 7.9076H21.387C21.4629 7.9076 21.5357 7.93776 21.5894 7.99143C21.643 8.0451 21.6732 8.1179 21.6732 8.1938C21.6732 8.26971 21.643 8.34251 21.5894 8.39618C21.5357 8.44985 21.4629 8.48 21.387 8.48Z" fill="#1B1D29"/>
<mask id="path-18-inside-5_2811_26615" fill="white">
<path d="M21.387 12.4004H15.5577C15.4818 12.4004 15.409 12.3703 15.3553 12.3166C15.3016 12.2629 15.2715 12.1901 15.2715 12.1142C15.2715 12.0383 15.3016 11.9655 15.3553 11.9118C15.409 11.8582 15.4818 11.828 15.5577 11.828H21.387C21.4629 11.828 21.5357 11.8582 21.5894 11.9118C21.643 11.9655 21.6732 12.0383 21.6732 12.1142C21.6732 12.1901 21.643 12.2629 21.5894 12.3166C21.5357 12.3703 21.4629 12.4004 21.387 12.4004Z"/>
</mask>
<path d="M21.387 12.4004H15.5577C15.4818 12.4004 15.409 12.3703 15.3553 12.3166C15.3016 12.2629 15.2715 12.1901 15.2715 12.1142C15.2715 12.0383 15.3016 11.9655 15.3553 11.9118C15.409 11.8582 15.4818 11.828 15.5577 11.828H21.387C21.4629 11.828 21.5357 11.8582 21.5894 11.9118C21.643 11.9655 21.6732 12.0383 21.6732 12.1142C21.6732 12.1901 21.643 12.2629 21.5894 12.3166C21.5357 12.3703 21.4629 12.4004 21.387 12.4004Z" fill="#1B1D29"/>
<path d="M15.5577 12.4004V11.4004V12.4004ZM21.387 11.828V10.828V11.828ZM21.387 11.4004H15.5577V13.4004H21.387V11.4004ZM15.5577 11.4004C15.747 11.4004 15.9286 11.4756 16.0624 11.6095L14.6482 13.0237C14.8894 13.2649 15.2166 13.4004 15.5577 13.4004V11.4004ZM16.0624 11.6095C16.1963 11.7433 16.2715 11.9249 16.2715 12.1142H14.2715C14.2715 12.4553 14.407 12.7825 14.6482 13.0237L16.0624 11.6095ZM16.2715 12.1142C16.2715 12.3035 16.1963 12.4851 16.0624 12.6189L14.6482 11.2047C14.407 11.4459 14.2715 11.7731 14.2715 12.1142H16.2715ZM16.0624 12.6189C15.9286 12.7528 15.747 12.828 15.5577 12.828V10.828C15.2166 10.828 14.8894 10.9635 14.6482 11.2047L16.0624 12.6189ZM15.5577 12.828H21.387V10.828H15.5577V12.828ZM21.387 12.828C21.1977 12.828 21.0161 12.7528 20.8822 12.6189L22.2965 11.2047C22.0553 10.9635 21.7281 10.828 21.387 10.828V12.828ZM20.8822 12.6189C20.7484 12.4851 20.6732 12.3035 20.6732 12.1142H22.6732C22.6732 11.7731 22.5377 11.4459 22.2965 11.2047L20.8822 12.6189ZM20.6732 12.1142C20.6732 11.9249 20.7484 11.7433 20.8822 11.6095L22.2965 13.0237C22.5377 12.7825 22.6732 12.4553 22.6732 12.1142H20.6732ZM20.8822 11.6095C21.0161 11.4756 21.1977 11.4004 21.387 11.4004V13.4004C21.7281 13.4004 22.0553 13.2649 22.2965 13.0237L20.8822 11.6095Z" fill="#1B1D29" mask="url(#path-18-inside-5_2811_26615)"/>
<path d="M21.4138 15.1004H16.1461C16.0754 15.0935 16.0097 15.0605 15.9619 15.0079C15.9142 14.9552 15.8877 14.8866 15.8877 14.8156C15.8877 14.7445 15.9142 14.6759 15.9619 14.6232C16.0097 14.5706 16.0754 14.5376 16.1461 14.5307H21.4138C21.4846 14.5376 21.5503 14.5706 21.598 14.6232C21.6458 14.6759 21.6723 14.7445 21.6723 14.8156C21.6723 14.8866 21.6458 14.9552 21.598 15.0079C21.5503 15.0605 21.4846 15.0935 21.4138 15.1004Z" fill="#1B1D29"/>
<path d="M21.4515 17.93H16.9371C16.874 17.9136 16.8182 17.8768 16.7783 17.8252C16.7384 17.7737 16.7168 17.7103 16.7168 17.6452C16.7168 17.58 16.7384 17.5166 16.7783 17.4651C16.8182 17.4135 16.874 17.3767 16.9371 17.3603H21.4515C21.5146 17.3767 21.5705 17.4135 21.6103 17.4651C21.6502 17.5166 21.6718 17.58 21.6718 17.6452C21.6718 17.7103 21.6502 17.7737 21.6103 17.8252C21.5705 17.8768 21.5146 17.9136 21.4515 17.93Z" fill="#1B1D29"/>
<path d="M20.1421 20.63H16.8751C16.786 20.63 16.7158 20.5031 16.7158 20.3438C16.7158 20.1845 16.786 20.0576 16.8751 20.0576H20.1421C20.2312 20.0576 20.3014 20.1872 20.3014 20.3438C20.3014 20.5004 20.2447 20.63 20.1421 20.63Z" fill="#1B1D29"/>
<mask id="path-23-inside-6_2811_26615" fill="white">
<path d="M21.3865 10.3538H11.7178C11.6419 10.3538 11.5691 10.3236 11.5155 10.27C11.4618 10.2163 11.4316 10.1435 11.4316 10.0676C11.4316 9.99169 11.4618 9.9189 11.5155 9.86522C11.5691 9.81155 11.6419 9.7814 11.7178 9.7814H21.3865C21.4624 9.7814 21.5352 9.81155 21.5889 9.86522C21.6426 9.9189 21.6727 9.99169 21.6727 10.0676C21.6727 10.1435 21.6426 10.2163 21.5889 10.27C21.5352 10.3236 21.4624 10.3538 21.3865 10.3538Z"/>
</mask>
<path d="M21.3865 10.3538H11.7178C11.6419 10.3538 11.5691 10.3236 11.5155 10.27C11.4618 10.2163 11.4316 10.1435 11.4316 10.0676C11.4316 9.99169 11.4618 9.9189 11.5155 9.86522C11.5691 9.81155 11.6419 9.7814 11.7178 9.7814H21.3865C21.4624 9.7814 21.5352 9.81155 21.5889 9.86522C21.6426 9.9189 21.6727 9.99169 21.6727 10.0676C21.6727 10.1435 21.6426 10.2163 21.5889 10.27C21.5352 10.3236 21.4624 10.3538 21.3865 10.3538Z" fill="#1B1D29"/>
<path d="M21.3865 10.3538V11.3538V10.3538ZM11.7178 10.3538V11.3538V10.3538ZM11.4316 10.0676H10.4316H11.4316ZM11.7178 9.7814V8.7814V9.7814ZM21.3865 9.3538H11.7178V11.3538H21.3865V9.3538ZM11.7178 9.3538C11.9072 9.3538 12.0887 9.429 12.2226 9.56287L10.8084 10.9771C11.0496 11.2183 11.3767 11.3538 11.7178 11.3538V9.3538ZM12.2226 9.56287C12.3564 9.69673 12.4316 9.87829 12.4316 10.0676H10.4316C10.4316 10.4087 10.5671 10.7359 10.8084 10.9771L12.2226 9.56287ZM12.4316 10.0676C12.4316 10.2569 12.3564 10.4385 12.2226 10.5723L10.8084 9.15812C10.5672 9.39933 10.4316 9.72648 10.4316 10.0676H12.4316ZM12.2226 10.5723C12.0887 10.7062 11.9072 10.7814 11.7178 10.7814V8.7814C11.3767 8.7814 11.0496 8.91691 10.8084 9.15812L12.2226 10.5723ZM11.7178 10.7814H21.3865V8.7814H11.7178V10.7814ZM21.3865 10.7814C21.1972 10.7814 21.0157 10.7062 20.8818 10.5723L22.296 9.15812C22.0548 8.91691 21.7277 8.7814 21.3865 8.7814V10.7814ZM20.8818 10.5723C20.748 10.4385 20.6727 10.2569 20.6727 10.0676H22.6727C22.6727 9.72647 22.5372 9.39932 22.296 9.15812L20.8818 10.5723ZM20.6727 10.0676C20.6727 9.87828 20.748 9.69673 20.8818 9.56287L22.296 10.9771C22.5372 10.7359 22.6727 10.4087 22.6727 10.0676H20.6727ZM20.8818 9.56287C21.0157 9.42901 21.1972 9.3538 21.3865 9.3538V11.3538C21.7277 11.3538 22.0548 11.2183 22.296 10.9771L20.8818 9.56287Z" fill="#1B1D29" mask="url(#path-23-inside-6_2811_26615)"/>
<path d="M11.2553 22.6378C11.3777 22.57 11.4974 22.4965 11.614 22.4176L11.6647 22.514C11.5303 22.5628 11.3937 22.6042 11.2553 22.6378ZM11.6652 11.5156L11.6142 11.6128C11.4969 11.5333 11.3765 11.4593 11.2532 11.3911C11.3925 11.4248 11.5299 11.4664 11.6652 11.5156Z" fill="#1B1D29" stroke="#1B1D29"/>
<mask id="path-26-inside-7_2811_26615" fill="white">
<path d="M9.47725 19.6148H8.84275C8.25685 19.6148 7.79785 18.9803 7.79785 18.173C7.79785 18.0971 7.828 18.0243 7.88168 17.9706C7.93535 17.917 8.00815 17.8868 8.08405 17.8868C8.15996 17.8868 8.23275 17.917 8.28643 17.9706C8.3401 18.0243 8.37025 18.0971 8.37025 18.173C8.37025 18.6698 8.61865 19.0451 8.84275 19.0451H9.47725C9.70135 19.0451 9.94975 18.6698 9.94975 18.173C9.94975 17.6762 9.70135 17.3009 9.47725 17.3009H8.84275C8.25685 17.3009 7.79785 16.6664 7.79785 15.8564C7.79785 15.0464 8.25685 14.42 8.84275 14.42H9.47725C10.0632 14.42 10.5249 15.0464 10.5249 15.8564C10.5287 15.8961 10.5242 15.9362 10.5117 15.9741C10.4991 16.012 10.4788 16.0469 10.452 16.0765C10.4251 16.106 10.3924 16.1297 10.3559 16.1458C10.3194 16.162 10.2799 16.1704 10.24 16.1704C10.2001 16.1704 10.1606 16.162 10.1241 16.1458C10.0876 16.1297 10.0549 16.106 10.028 16.0765C10.0012 16.0469 9.98087 16.012 9.96831 15.9741C9.95576 15.9362 9.95128 15.8961 9.95515 15.8564C9.95515 15.3569 9.70675 14.9843 9.48265 14.9843H8.84275C8.61865 14.9843 8.37025 15.3569 8.37025 15.8564C8.37025 16.3559 8.61865 16.7285 8.84275 16.7285H9.47725C10.0632 16.7285 10.5195 17.363 10.5195 18.173C10.5195 18.983 10.0632 19.6148 9.47725 19.6148Z"/>
</mask>
<path d="M9.47725 19.6148H8.84275C8.25685 19.6148 7.79785 18.9803 7.79785 18.173C7.79785 18.0971 7.828 18.0243 7.88168 17.9706C7.93535 17.917 8.00815 17.8868 8.08405 17.8868C8.15996 17.8868 8.23275 17.917 8.28643 17.9706C8.3401 18.0243 8.37025 18.0971 8.37025 18.173C8.37025 18.6698 8.61865 19.0451 8.84275 19.0451H9.47725C9.70135 19.0451 9.94975 18.6698 9.94975 18.173C9.94975 17.6762 9.70135 17.3009 9.47725 17.3009H8.84275C8.25685 17.3009 7.79785 16.6664 7.79785 15.8564C7.79785 15.0464 8.25685 14.42 8.84275 14.42H9.47725C10.0632 14.42 10.5249 15.0464 10.5249 15.8564C10.5287 15.8961 10.5242 15.9362 10.5117 15.9741C10.4991 16.012 10.4788 16.0469 10.452 16.0765C10.4251 16.106 10.3924 16.1297 10.3559 16.1458C10.3194 16.162 10.2799 16.1704 10.24 16.1704C10.2001 16.1704 10.1606 16.162 10.1241 16.1458C10.0876 16.1297 10.0549 16.106 10.028 16.0765C10.0012 16.0469 9.98087 16.012 9.96831 15.9741C9.95576 15.9362 9.95128 15.8961 9.95515 15.8564C9.95515 15.3569 9.70675 14.9843 9.48265 14.9843H8.84275C8.61865 14.9843 8.37025 15.3569 8.37025 15.8564C8.37025 16.3559 8.61865 16.7285 8.84275 16.7285H9.47725C10.0632 16.7285 10.5195 17.363 10.5195 18.173C10.5195 18.983 10.0632 19.6148 9.47725 19.6148Z" fill="#1B1D29"/>
<path d="M7.79785 18.173H6.79785H7.79785ZM8.37025 18.173H9.37025H8.37025ZM10.5249 15.8564H9.52485V15.905L9.52957 15.9534L10.5249 15.8564ZM9.95515 15.8564L10.9504 15.9534L10.9552 15.905V15.8564H9.95515ZM9.47725 18.6148H8.84275V20.6148H9.47725V18.6148ZM8.84275 18.6148C8.94123 18.6148 8.95617 18.6731 8.91046 18.61C8.86236 18.5436 8.79785 18.3956 8.79785 18.173H6.79785C6.79785 18.7577 6.96284 19.3306 7.29072 19.7832C7.62099 20.2392 8.15837 20.6148 8.84275 20.6148V18.6148ZM8.79785 18.173C8.79785 18.3623 8.72265 18.5439 8.58878 18.6777L7.17457 17.2635C6.93336 17.5047 6.79785 17.8319 6.79785 18.173H8.79785ZM8.58878 18.6777C8.45492 18.8116 8.27336 18.8868 8.08405 18.8868V16.8868C7.74293 16.8868 7.41578 17.0223 7.17457 17.2635L8.58878 18.6777ZM8.08405 18.8868C7.89474 18.8868 7.71318 18.8116 7.57932 18.6777L8.99353 17.2635C8.75232 17.0223 8.42517 16.8868 8.08405 16.8868V18.8868ZM7.57932 18.6777C7.44545 18.5439 7.37025 18.3623 7.37025 18.173H9.37025C9.37025 17.8319 9.23474 17.5047 8.99353 17.2635L7.57932 18.6777ZM7.37025 18.173C7.37025 18.5797 7.47032 18.9733 7.65665 19.2957C7.80365 19.5501 8.18335 20.0451 8.84275 20.0451V18.0451C9.07116 18.0451 9.22472 18.1395 9.29121 18.1916C9.35946 18.2451 9.38548 18.2901 9.38828 18.295C9.39438 18.3055 9.37025 18.2631 9.37025 18.173H7.37025ZM8.84275 20.0451H9.47725V18.0451H8.84275V20.0451ZM9.47725 20.0451C10.1367 20.0451 10.5164 19.5501 10.6634 19.2957C10.8497 18.9733 10.9498 18.5797 10.9498 18.173H8.94975C8.94975 18.2631 8.92562 18.3055 8.93173 18.295C8.93453 18.2901 8.96054 18.2451 9.02879 18.1916C9.09528 18.1395 9.24884 18.0451 9.47725 18.0451V20.0451ZM10.9498 18.173C10.9498 17.7663 10.8497 17.3727 10.6634 17.0503C10.5164 16.7959 10.1367 16.3009 9.47725 16.3009V18.3009C9.24884 18.3009 9.09528 18.2065 9.02879 18.1544C8.96054 18.1009 8.93453 18.0559 8.93173 18.051C8.92562 18.0405 8.94975 18.0829 8.94975 18.173H10.9498ZM9.47725 16.3009H8.84275V18.3009H9.47725V16.3009ZM8.84275 16.3009C8.94139 16.3009 8.95647 16.3594 8.91082 16.2963C8.86271 16.2298 8.79785 16.081 8.79785 15.8564H6.79785C6.79785 16.4418 6.96249 17.0153 7.29035 17.4685C7.62068 17.9251 8.15822 18.3009 8.84275 18.3009V16.3009ZM8.79785 15.8564C8.79785 15.6321 8.8625 15.4868 8.90864 15.4236C8.95169 15.3645 8.93634 15.42 8.84275 15.42V13.42C8.16326 13.42 7.62546 13.7887 7.29254 14.2453C6.9627 14.6978 6.79785 15.2707 6.79785 15.8564H8.79785ZM8.84275 15.42H9.47725V13.42H8.84275V15.42ZM9.47725 15.42C9.38432 15.42 9.37 15.3652 9.41372 15.4249C9.46023 15.4885 9.52485 15.6334 9.52485 15.8564H11.5249C11.5249 15.2694 11.3586 14.6961 11.0278 14.244C10.6942 13.788 10.1561 13.42 9.47725 13.42V15.42ZM9.52957 15.9534C9.51991 15.8543 9.53109 15.7543 9.5624 15.6597L11.461 16.2885C11.5174 16.1182 11.5375 15.938 11.5201 15.7594L9.52957 15.9534ZM9.5624 15.6597C9.59371 15.5652 9.64445 15.4783 9.71135 15.4045L11.1926 16.7484C11.3131 16.6155 11.4046 16.4589 11.461 16.2885L9.5624 15.6597ZM9.71135 15.4045C9.77826 15.3308 9.85986 15.2719 9.95091 15.2315L10.7609 17.0602C10.925 16.9875 11.072 16.8813 11.1926 16.7484L9.71135 15.4045ZM9.95091 15.2315C10.042 15.1912 10.1404 15.1704 10.24 15.1704V17.1704C10.4194 17.1704 10.5969 17.1328 10.7609 17.0602L9.95091 15.2315ZM10.24 15.1704C10.3396 15.1704 10.438 15.1912 10.5291 15.2315L9.71908 17.0602C9.88314 17.1328 10.0606 17.1704 10.24 17.1704V15.1704ZM10.5291 15.2315C10.6201 15.2719 10.7017 15.3308 10.7687 15.4045L9.28743 16.7484C9.40799 16.8813 9.55502 16.9875 9.71908 17.0602L10.5291 15.2315ZM10.7687 15.4045C10.8356 15.4783 10.8863 15.5652 10.9176 15.6597L9.01902 16.2885C9.07544 16.4589 9.16687 16.6155 9.28743 16.7484L10.7687 15.4045ZM10.9176 15.6597C10.9489 15.7543 10.9601 15.8543 10.9504 15.9534L8.95987 15.7594C8.94246 15.938 8.96261 16.1182 9.01902 16.2885L10.9176 15.6597ZM10.9552 15.8564C10.9552 15.4491 10.8554 15.055 10.6683 14.7319C10.5195 14.475 10.1394 13.9843 9.48265 13.9843V15.9843C9.2562 15.9843 9.10329 15.8913 9.03607 15.8389C8.96731 15.7853 8.94081 15.7398 8.9376 15.7342C8.93068 15.7223 8.95515 15.7642 8.95515 15.8564H10.9552ZM9.48265 13.9843H8.84275V15.9843H9.48265V13.9843ZM8.84275 13.9843C8.18598 13.9843 7.80589 14.475 7.65712 14.7319C7.46998 15.055 7.37025 15.4491 7.37025 15.8564H9.37025C9.37025 15.7642 9.39473 15.7223 9.3878 15.7342C9.3846 15.7398 9.3581 15.7853 9.28933 15.8389C9.22211 15.8913 9.0692 15.9843 8.84275 15.9843V13.9843ZM7.37025 15.8564C7.37025 16.2637 7.46998 16.6578 7.65712 16.9809C7.80589 17.2378 8.18598 17.7285 8.84275 17.7285V15.7285C9.0692 15.7285 9.22211 15.8215 9.28933 15.8739C9.3581 15.9275 9.3846 15.973 9.3878 15.9786C9.39473 15.9905 9.37025 15.9486 9.37025 15.8564H7.37025ZM8.84275 17.7285H9.47725V15.7285H8.84275V17.7285ZM9.47725 17.7285C9.37795 17.7285 9.36184 17.6693 9.40683 17.7317C9.45458 17.798 9.51945 17.9471 9.51945 18.173H11.5195C11.5195 17.5889 11.3562 17.0158 11.0293 16.5623C10.6997 16.105 10.1625 15.7285 9.47725 15.7285V17.7285ZM9.51945 18.173C9.51945 18.3988 9.45464 18.5468 9.40755 18.6119C9.36342 18.673 9.37963 18.6148 9.47725 18.6148V20.6148C10.1608 20.6148 10.6981 20.2407 11.0286 19.7834C11.3561 19.3301 11.5195 18.7572 11.5195 18.173H9.51945Z" fill="#1B1D29" mask="url(#path-26-inside-7_2811_26615)"/>
<mask id="path-28-inside-8_2811_26615" fill="white">
<path d="M9.15887 14.9843C9.12072 14.9843 9.08295 14.9767 9.04783 14.9617C9.01271 14.9468 8.98096 14.925 8.95449 14.8975C8.92802 14.87 8.90737 14.8375 8.89377 14.8018C8.88018 14.7662 8.87392 14.7281 8.87537 14.69V13.61C8.8715 13.5703 8.87598 13.5302 8.88854 13.4923C8.90109 13.4544 8.92143 13.4195 8.94826 13.3899C8.97509 13.3604 9.0078 13.3367 9.04431 13.3206C9.08081 13.3044 9.1203 13.296 9.16022 13.296C9.20015 13.296 9.23963 13.3044 9.27614 13.3206C9.31264 13.3367 9.34536 13.3604 9.37219 13.3899C9.39901 13.4195 9.41936 13.4544 9.43191 13.4923C9.44446 13.5302 9.44895 13.5703 9.44507 13.61V14.69C9.44654 14.7284 9.4402 14.7666 9.42644 14.8024C9.41268 14.8383 9.39178 14.8709 9.36502 14.8985C9.33826 14.926 9.30619 14.9478 9.27076 14.9625C9.23532 14.9773 9.19726 14.9847 9.15887 14.9843Z"/>
</mask>
<path d="M9.15887 14.9843C9.12072 14.9843 9.08295 14.9767 9.04783 14.9617C9.01271 14.9468 8.98096 14.925 8.95449 14.8975C8.92802 14.87 8.90737 14.8375 8.89377 14.8018C8.88018 14.7662 8.87392 14.7281 8.87537 14.69V13.61C8.8715 13.5703 8.87598 13.5302 8.88854 13.4923C8.90109 13.4544 8.92143 13.4195 8.94826 13.3899C8.97509 13.3604 9.0078 13.3367 9.04431 13.3206C9.08081 13.3044 9.1203 13.296 9.16022 13.296C9.20015 13.296 9.23963 13.3044 9.27614 13.3206C9.31264 13.3367 9.34536 13.3604 9.37219 13.3899C9.39901 13.4195 9.41936 13.4544 9.43191 13.4923C9.44446 13.5302 9.44895 13.5703 9.44507 13.61V14.69C9.44654 14.7284 9.4402 14.7666 9.42644 14.8024C9.41268 14.8383 9.39178 14.8709 9.36502 14.8985C9.33826 14.926 9.30619 14.9478 9.27076 14.9625C9.23532 14.9773 9.19726 14.9847 9.15887 14.9843Z" fill="#1B1D29"/>
<path d="M8.87537 14.69L9.87465 14.7281L9.87537 14.7091V14.69H8.87537ZM8.87537 13.61H9.87537V13.5614L9.87066 13.513L8.87537 13.61ZM9.44507 13.61L8.44979 13.513L8.44507 13.5614V13.61H9.44507ZM9.44507 14.69H8.44507V14.7091L8.4458 14.7281L9.44507 14.69ZM9.15815 13.9843C9.25459 13.9842 9.35004 14.0036 9.43879 14.0413L8.65686 15.8821C8.81585 15.9497 8.98685 15.9844 9.1596 15.9843L9.15815 13.9843ZM9.43879 14.0413C9.52755 14.079 9.60779 14.1343 9.67469 14.2037L8.23429 15.5913C8.35414 15.7157 8.49787 15.8146 8.65686 15.8821L9.43879 14.0413ZM9.67469 14.2037C9.74159 14.2732 9.79379 14.3554 9.82815 14.4455L7.9594 15.1581C8.02095 15.3195 8.11445 15.4668 8.23429 15.5913L9.67469 14.2037ZM9.82815 14.4455C9.8625 14.5356 9.87832 14.6317 9.87465 14.7281L7.8761 14.6519C7.86952 14.8245 7.89785 14.9967 7.9594 15.1581L9.82815 14.4455ZM9.87537 14.69V13.61H7.87537V14.69H9.87537ZM9.87066 13.513C9.88032 13.6121 9.86913 13.7121 9.83783 13.8067L7.93925 13.1779C7.88283 13.3482 7.86268 13.5284 7.88009 13.707L9.87066 13.513ZM9.83783 13.8067C9.80652 13.9012 9.75578 13.9881 9.68887 14.0619L8.20765 12.718C8.08709 12.8509 7.99566 13.0075 7.93925 13.1779L9.83783 13.8067ZM9.68887 14.0619C9.62197 14.1356 9.54037 14.1945 9.44932 14.2349L8.6393 12.4062C8.47524 12.4789 8.32821 12.5851 8.20765 12.718L9.68887 14.0619ZM9.44932 14.2349C9.35827 14.2752 9.25979 14.296 9.16022 14.296V12.296C8.9808 12.296 8.80336 12.3336 8.6393 12.4062L9.44932 14.2349ZM9.16022 14.296C9.06065 14.296 8.96218 14.2752 8.87113 14.2349L9.68115 12.4062C9.51709 12.3336 9.33964 12.296 9.16022 12.296V14.296ZM8.87113 14.2349C8.78008 14.1945 8.69848 14.1356 8.63157 14.0619L10.1128 12.718C9.99224 12.5851 9.84521 12.4789 9.68115 12.4062L8.87113 14.2349ZM8.63157 14.0619C8.56467 13.9881 8.51393 13.9012 8.48262 13.8067L10.3812 13.1779C10.3248 13.0075 10.2334 12.8509 10.1128 12.718L8.63157 14.0619ZM8.48262 13.8067C8.45131 13.7121 8.44013 13.6121 8.44979 13.513L10.4404 13.707C10.4578 13.5284 10.4376 13.3482 10.3812 13.1779L8.48262 13.8067ZM8.44507 13.61V14.69H10.4451V13.61H8.44507ZM8.4458 14.7281C8.4421 14.6312 8.45812 14.5345 8.4929 14.444L10.36 15.1609C10.4223 14.9987 10.451 14.8255 10.4443 14.6519L8.4458 14.7281ZM8.4929 14.444C8.52768 14.3534 8.58049 14.2708 8.64812 14.2013L10.0819 15.5956C10.2031 15.4711 10.2977 15.3232 10.36 15.1609L8.4929 14.444ZM8.64812 14.2013C8.71575 14.1317 8.7968 14.0767 8.88636 14.0394L9.65515 15.8857C9.81558 15.8189 9.96077 15.7202 10.0819 15.5956L8.64812 14.2013ZM8.88636 14.0394C8.97592 14.0021 9.07212 13.9834 9.16913 13.9844L9.14862 15.9842C9.32239 15.986 9.49472 15.9525 9.65515 15.8857L8.88636 14.0394Z" fill="#1B1D29" mask="url(#path-28-inside-8_2811_26615)"/>
<mask id="path-30-inside-9_2811_26615" fill="white">
<path d="M9.1585 20.6867C9.08306 20.686 9.01096 20.6555 8.95787 20.6019C8.90478 20.5483 8.875 20.4759 8.875 20.4005V19.3205C8.8819 19.2497 8.91489 19.1841 8.96754 19.1363C9.0202 19.0885 9.08875 19.0621 9.15985 19.0621C9.23095 19.0621 9.2995 19.0885 9.35216 19.1363C9.40481 19.1841 9.4378 19.2497 9.4447 19.3205V20.4005C9.4447 20.4764 9.41455 20.5492 9.36087 20.6029C9.3072 20.6565 9.23441 20.6867 9.1585 20.6867Z"/>
</mask>
<path d="M9.1585 20.6867C9.08306 20.686 9.01096 20.6555 8.95787 20.6019C8.90478 20.5483 8.875 20.4759 8.875 20.4005V19.3205C8.8819 19.2497 8.91489 19.1841 8.96754 19.1363C9.0202 19.0885 9.08875 19.0621 9.15985 19.0621C9.23095 19.0621 9.2995 19.0885 9.35216 19.1363C9.40481 19.1841 9.4378 19.2497 9.4447 19.3205V20.4005C9.4447 20.4764 9.41455 20.5492 9.36087 20.6029C9.3072 20.6565 9.23441 20.6867 9.1585 20.6867Z" fill="#1B1D29"/>
<path d="M8.875 20.4005L9.875 20.4005V20.4005H8.875ZM8.875 19.3205L7.87972 19.2235L7.875 19.2719V19.3205H8.875ZM9.15985 19.0621V18.0621V19.0621ZM9.4447 19.3205H10.4447V19.2719L10.44 19.2235L9.4447 19.3205ZM9.4447 20.4005H8.4447H9.4447ZM9.1585 20.6867L9.14907 21.6867H9.1585V20.6867ZM9.16793 19.6867C9.35607 19.6885 9.53591 19.7645 9.66832 19.8982L8.24742 21.3057C8.48601 21.5465 8.81005 21.6835 9.14907 21.6867L9.16793 19.6867ZM9.66832 19.8982C9.80073 20.0318 9.87501 20.2124 9.875 20.4005L7.875 20.4005C7.87498 20.7395 8.00883 21.0648 8.24742 21.3057L9.66832 19.8982ZM9.875 20.4005V19.3205H7.875V20.4005H9.875ZM9.87028 19.4175C9.85308 19.594 9.7708 19.7578 9.63948 19.8769L8.29561 18.3957C8.05897 18.6104 7.91071 18.9055 7.87972 19.2235L9.87028 19.4175ZM9.63948 19.8769C9.50815 19.9961 9.33718 20.0621 9.15985 20.0621V18.0621C8.84033 18.0621 8.53225 18.181 8.29561 18.3957L9.63948 19.8769ZM9.15985 20.0621C8.98252 20.0621 8.81155 19.9961 8.68022 19.8769L10.0241 18.3957C9.78745 18.181 9.47937 18.0621 9.15985 18.0621V20.0621ZM8.68022 19.8769C8.5489 19.7578 8.46662 19.594 8.44942 19.4175L10.44 19.2235C10.409 18.9055 10.2607 18.6104 10.0241 18.3957L8.68022 19.8769ZM8.4447 19.3205V20.4005H10.4447V19.3205H8.4447ZM8.4447 20.4005C8.4447 20.2112 8.5199 20.0296 8.65377 19.8958L10.068 21.31C10.3092 21.0688 10.4447 20.7416 10.4447 20.4005H8.4447ZM8.65377 19.8958C8.78764 19.7619 8.9692 19.6867 9.1585 19.6867V21.6867C9.49961 21.6867 9.82677 21.5512 10.068 21.31L8.65377 19.8958Z" fill="#1B1D29" mask="url(#path-30-inside-9_2811_26615)"/>
<path d="M21.457 19.4258L21.2275 20.6057L22.4074 20.3762L28.0639 14.7197L27.1135 13.7693L21.457 19.4258Z" fill="white"/>
</g>
<defs>
<clipPath id="clip0_2811_26615">
<rect width="27" height="27" fill="white" transform="translate(3.50488 2)"/>
</clipPath>
</defs>
</svg>
