<svg width="33" height="32" viewBox="0 0 33 32" fill="none" xmlns="http://www.w3.org/2000/svg">
<path d="M25.2098 11.7828C25.2221 11.722 25.2221 11.6592 25.2098 11.5984C24.9687 11.0557 24.5958 10.5925 24.1302 10.2572C19.9211 6.06596 12.6922 9.40219 12.614 9.43572L11.3153 10.274C10.6424 9.38542 9.54716 8.16158 8.67092 8.16158C8.33547 8.13906 8.00216 8.23288 7.72035 8.42915C7.43854 8.62541 7.2232 8.91369 7.10622 9.2513C7.06233 9.32752 7.04458 9.41773 7.056 9.50644C7.06742 9.59516 7.1073 9.67685 7.16881 9.73749C7.42111 9.91676 7.60878 10.1829 7.7008 10.4919C7.73922 10.7564 7.72713 11.0265 7.66527 11.2859C7.60341 11.5452 7.49307 11.7884 7.34092 12.0008C6.33951 13.6773 5.57281 13.6773 5.57281 13.6773H4.11763C4.03392 13.6764 3.95278 13.7083 3.88942 13.7669C3.82606 13.8256 3.78481 13.9069 3.7734 13.9958C3.7734 14.0964 3.4761 16.4435 4.44622 17.4829C5.41634 18.5223 9.0308 21.473 9.79751 22.11L9.89139 25.6475C9.89134 25.6951 9.90033 25.7423 9.91781 25.7862C9.93529 25.83 9.96091 25.8696 9.9931 25.9025C10.0253 25.9354 10.0634 25.961 10.1051 25.9777C10.1468 25.9944 10.1912 26.0018 10.2356 25.9995H12.2697C12.3288 26.0028 12.3876 25.989 12.4399 25.9595C12.4922 25.93 12.5361 25.8859 12.567 25.8319L13.8188 23.7865C14.9984 24.2038 16.2394 24.3856 17.4802 24.323L19.6082 24.0045C19.6082 24.0045 20.547 23.183 20.4375 23.1327C22.1274 21.6071 25.3194 16.4267 25.3194 12.6378C25.3352 12.3479 25.298 12.0575 25.2098 11.7828Z" fill="#FFC708"/>
<mask id="path-2-inside-1_2811_26603" fill="white">
<path d="M10.9553 24.1889H8.88989C8.78058 24.1845 8.6771 24.1349 8.60122 24.0505C8.52535 23.9661 8.48299 23.8534 8.48306 23.7362V20.1988C7.54424 19.4947 3.78895 16.4435 2.99095 15.5382C2.31758 14.4845 2.04348 13.1959 2.22425 11.9337C2.23899 11.824 2.2895 11.7234 2.36682 11.6497C2.44414 11.5761 2.5433 11.5342 2.64672 11.5313H4.21142C4.21142 11.5313 4.96248 11.5313 5.9326 9.85482C6.23015 9.43351 6.35958 8.90294 6.29248 8.37951C6.20825 8.0889 6.03091 7.83952 5.79177 7.67538C5.7112 7.62691 5.64768 7.55148 5.61094 7.46064C5.5742 7.3698 5.56627 7.26856 5.58836 7.17243C5.69944 6.79491 5.9316 6.47168 6.24375 6.25997C6.5559 6.04825 6.9279 5.9617 7.29389 6.01564C8.57695 6.01564 10.2825 8.4801 10.6111 8.98305C10.6598 9.03762 10.6955 9.10397 10.7151 9.17648C10.7348 9.24899 10.7379 9.32551 10.7241 9.39956C10.7102 9.4736 10.6799 9.54298 10.6358 9.60181C10.5916 9.66063 10.5348 9.70717 10.4702 9.73747C10.3785 9.80255 10.2666 9.82669 10.1585 9.80478C10.0504 9.78286 9.95453 9.71661 9.8913 9.62012C9.18718 8.58069 7.88848 7.03831 7.26259 7.03831C6.99411 7.0179 6.72768 7.10116 6.51154 7.27302C6.77978 7.54169 6.97453 7.88368 7.07483 8.26215C7.14221 8.64206 7.13673 9.03269 7.05872 9.41025C6.98071 9.78782 6.8318 10.1444 6.62107 10.4584C5.41624 12.4702 4.35224 12.5205 4.11754 12.5037H3.08483C2.96292 13.3579 3.14135 14.2301 3.58554 14.9514C4.43048 15.8735 9.01506 19.6288 9.062 19.6791C9.11181 19.7181 9.15302 19.7684 9.18276 19.8263C9.21249 19.8842 9.23003 19.9484 9.23412 20.0144V23.3674H10.658L11.9567 21.2382C12.011 21.1502 12.0924 21.0852 12.1867 21.0546C12.2809 21.024 12.3823 21.0297 12.4731 21.0706C12.9098 21.2465 13.3601 21.3811 13.8187 21.473C13.8746 21.483 13.9281 21.505 13.9759 21.5376C14.0237 21.5703 14.0649 21.6129 14.097 21.663C14.1292 21.713 14.1516 21.7695 14.1629 21.829C14.1742 21.8885 14.1742 21.9499 14.1629 22.0094C14.1403 22.1239 14.0771 22.2246 13.9866 22.2902C13.8962 22.3558 13.7855 22.3814 13.6779 22.3615C13.2722 22.2918 12.8739 22.1795 12.4887 22.0262L11.2526 24.0548C11.173 24.1384 11.0667 24.1863 10.9553 24.1889Z"/>
</mask>
<path d="M10.9553 24.1889H8.88989C8.78058 24.1845 8.6771 24.1349 8.60122 24.0505C8.52535 23.9661 8.48299 23.8534 8.48306 23.7362V20.1988C7.54424 19.4947 3.78895 16.4435 2.99095 15.5382C2.31758 14.4845 2.04348 13.1959 2.22425 11.9337C2.23899 11.824 2.2895 11.7234 2.36682 11.6497C2.44414 11.5761 2.5433 11.5342 2.64672 11.5313H4.21142C4.21142 11.5313 4.96248 11.5313 5.9326 9.85482C6.23015 9.43351 6.35958 8.90294 6.29248 8.37951C6.20825 8.0889 6.03091 7.83952 5.79177 7.67538C5.7112 7.62691 5.64768 7.55148 5.61094 7.46064C5.5742 7.3698 5.56627 7.26856 5.58836 7.17243C5.69944 6.79491 5.9316 6.47168 6.24375 6.25997C6.5559 6.04825 6.9279 5.9617 7.29389 6.01564C8.57695 6.01564 10.2825 8.4801 10.6111 8.98305C10.6598 9.03762 10.6955 9.10397 10.7151 9.17648C10.7348 9.24899 10.7379 9.32551 10.7241 9.39956C10.7102 9.4736 10.6799 9.54298 10.6358 9.60181C10.5916 9.66063 10.5348 9.70717 10.4702 9.73747C10.3785 9.80255 10.2666 9.82669 10.1585 9.80478C10.0504 9.78286 9.95453 9.71661 9.8913 9.62012C9.18718 8.58069 7.88848 7.03831 7.26259 7.03831C6.99411 7.0179 6.72768 7.10116 6.51154 7.27302C6.77978 7.54169 6.97453 7.88368 7.07483 8.26215C7.14221 8.64206 7.13673 9.03269 7.05872 9.41025C6.98071 9.78782 6.8318 10.1444 6.62107 10.4584C5.41624 12.4702 4.35224 12.5205 4.11754 12.5037H3.08483C2.96292 13.3579 3.14135 14.2301 3.58554 14.9514C4.43048 15.8735 9.01506 19.6288 9.062 19.6791C9.11181 19.7181 9.15302 19.7684 9.18276 19.8263C9.21249 19.8842 9.23003 19.9484 9.23412 20.0144V23.3674H10.658L11.9567 21.2382C12.011 21.1502 12.0924 21.0852 12.1867 21.0546C12.2809 21.024 12.3823 21.0297 12.4731 21.0706C12.9098 21.2465 13.3601 21.3811 13.8187 21.473C13.8746 21.483 13.9281 21.505 13.9759 21.5376C14.0237 21.5703 14.0649 21.6129 14.097 21.663C14.1292 21.713 14.1516 21.7695 14.1629 21.829C14.1742 21.8885 14.1742 21.9499 14.1629 22.0094C14.1403 22.1239 14.0771 22.2246 13.9866 22.2902C13.8962 22.3558 13.7855 22.3814 13.6779 22.3615C13.2722 22.2918 12.8739 22.1795 12.4887 22.0262L11.2526 24.0548C11.173 24.1384 11.0667 24.1863 10.9553 24.1889Z" fill="#1B1D29"/>
<path d="M10.9553 24.1889V25.1889H10.9668L10.9784 25.1886L10.9553 24.1889ZM8.88989 24.1889L8.85021 25.1881L8.87004 25.1889H8.88989V24.1889ZM8.48306 23.7362L9.48306 23.7369V23.7362H8.48306ZM8.48306 20.1988H9.48306V19.6988L9.08307 19.3988L8.48306 20.1988ZM2.99095 15.5382L2.14833 16.0767L2.18983 16.1416L2.24078 16.1994L2.99095 15.5382ZM2.22425 11.9337L3.21418 12.0755L3.21534 12.0669L2.22425 11.9337ZM2.64672 11.5313V10.5313H2.63305L2.61939 10.5317L2.64672 11.5313ZM5.9326 9.85482L5.11577 9.27794L5.0897 9.31486L5.06706 9.35398L5.9326 9.85482ZM6.29248 8.37951L7.28436 8.25235L7.27451 8.17552L7.25295 8.10112L6.29248 8.37951ZM5.79177 7.67538L6.35768 6.85091L6.33293 6.83392L6.3072 6.81844L5.79177 7.67538ZM5.58836 7.17243L4.62903 6.89016L4.62052 6.91906L4.61377 6.94843L5.58836 7.17243ZM7.29389 6.01564L7.14808 7.00496L7.22059 7.01564H7.29389V6.01564ZM10.6111 8.98305L9.77389 9.52999L9.81499 9.5929L9.86504 9.64897L10.6111 8.98305ZM10.4702 9.73747L10.0453 8.83223L9.96455 8.87015L9.89175 8.92178L10.4702 9.73747ZM10.1585 9.80478L10.3572 8.82471L10.1585 9.80478ZM9.8913 9.62012L10.7277 9.07202L10.7235 9.06562L10.7192 9.05927L9.8913 9.62012ZM7.26259 7.03831L7.18681 8.03543L7.22465 8.03831H7.26259V7.03831ZM6.51154 7.27302L5.88919 6.49027L5.01273 7.18713L5.80386 7.97955L6.51154 7.27302ZM7.07483 8.26215L8.05946 8.08751L8.05217 8.04637L8.04146 8.00599L7.07483 8.26215ZM6.62107 10.4584L5.79078 9.90102L5.7764 9.92244L5.76315 9.94458L6.62107 10.4584ZM4.11754 12.5037L4.18879 11.5062L4.15321 11.5037H4.11754V12.5037ZM3.08483 12.5037V11.5037H2.21742L2.09487 12.3624L3.08483 12.5037ZM3.58554 14.9514L2.73406 15.4758L2.78397 15.5568L2.84827 15.627L3.58554 14.9514ZM9.062 19.6791L8.33094 20.3614L8.38397 20.4182L8.44515 20.4662L9.062 19.6791ZM9.23412 20.0144H10.2341V19.9834L10.2322 19.9524L9.23412 20.0144ZM9.23412 23.3674H8.23412V24.3674H9.23412V23.3674ZM10.658 23.3674V24.3674H11.2194L11.5117 23.8881L10.658 23.3674ZM11.9567 21.2382L11.1056 20.7133L11.103 20.7175L11.9567 21.2382ZM12.4731 21.0706L12.062 21.9822L12.0806 21.9906L12.0996 21.9982L12.4731 21.0706ZM13.8187 21.473L13.6223 22.4535L13.6321 22.4555L13.6421 22.4572L13.8187 21.473ZM14.1629 22.0094L15.1439 22.2038L15.1455 22.1956L14.1629 22.0094ZM13.6779 22.3615L13.8596 21.3781L13.8471 21.3759L13.6779 22.3615ZM12.4887 22.0262L12.8585 21.0971L12.0741 20.7848L11.6348 21.5058L12.4887 22.0262ZM11.2526 24.0548L11.9769 24.7443L12.0508 24.6666L12.1065 24.5751L11.2526 24.0548ZM10.9553 23.1889H8.88989V25.1889H10.9553V23.1889ZM8.92957 23.1897C9.10114 23.1965 9.24803 23.2742 9.34498 23.3821L7.85746 24.719C8.10616 24.9957 8.46001 25.1726 8.85021 25.1881L8.92957 23.1897ZM9.34498 23.3821C9.44004 23.4878 9.48314 23.6159 9.48306 23.7369L7.48306 23.7356C7.48284 24.091 7.61065 24.4444 7.85746 24.719L9.34498 23.3821ZM9.48306 23.7362V20.1988H7.48306V23.7362H9.48306ZM9.08307 19.3988C8.63453 19.0624 7.47665 18.1366 6.32466 17.1759C5.14551 16.1926 4.07762 15.2587 3.74112 14.8769L2.24078 16.1994C2.70228 16.723 3.91104 17.7673 5.04373 18.7119C6.20359 19.6792 7.39278 20.6311 7.88306 20.9988L9.08307 19.3988ZM3.83357 14.9996C3.29193 14.1521 3.06659 13.1057 3.21415 12.0755L1.23435 11.7919C1.02036 13.2861 1.34322 14.8169 2.14833 16.0767L3.83357 14.9996ZM3.21534 12.0669C3.20097 12.1737 3.15038 12.2845 3.05648 12.3739L1.67716 10.9256C1.42862 11.1623 1.27701 11.4742 1.23316 11.8005L3.21534 12.0669ZM3.05648 12.3739C2.96103 12.4648 2.82648 12.5268 2.67404 12.5309L2.61939 10.5317C2.26012 10.5415 1.92726 10.6874 1.67716 10.9256L3.05648 12.3739ZM2.64672 12.5313H4.21142V10.5313H2.64672V12.5313ZM4.21142 11.5313C4.21142 12.5313 4.21251 12.5313 4.21361 12.5313C4.21398 12.5313 4.21508 12.5313 4.21582 12.5313C4.2173 12.5313 4.21879 12.5313 4.2203 12.5313C4.22332 12.5313 4.22638 12.5312 4.2295 12.5312C4.23574 12.5311 4.24219 12.5309 4.24885 12.5307C4.26217 12.5302 4.27631 12.5294 4.29125 12.5284C4.32114 12.5262 4.35413 12.5228 4.39003 12.5176C4.46199 12.5071 4.54472 12.4895 4.63665 12.4613C4.8217 12.4047 5.03594 12.3078 5.26947 12.1494C5.7346 11.834 6.25916 11.2871 6.79813 10.3557L5.06706 9.35398C4.63592 10.0991 4.29989 10.3904 4.14696 10.4941C4.07146 10.5453 4.03731 10.5532 4.05121 10.5489C4.05758 10.547 4.07404 10.5425 4.10114 10.5385C4.11461 10.5366 4.13052 10.5348 4.14894 10.5334C4.15814 10.5328 4.16794 10.5323 4.17836 10.5319C4.18357 10.5317 4.18893 10.5316 4.19444 10.5315C4.19719 10.5314 4.19998 10.5314 4.20282 10.5314C4.20423 10.5313 4.20566 10.5313 4.20709 10.5313C4.20781 10.5313 4.20889 10.5313 4.20925 10.5313C4.21033 10.5313 4.21142 10.5313 4.21142 11.5313ZM6.74942 10.4317C7.19505 9.80074 7.38248 9.01776 7.28436 8.25235L5.30059 8.50666C5.33667 8.78811 5.26525 9.06628 5.11577 9.27794L6.74942 10.4317ZM7.25295 8.10112C7.10733 7.59871 6.79627 7.15195 6.35768 6.85091L5.22587 8.49985C5.26556 8.52709 5.30917 8.57909 5.33201 8.65789L7.25295 8.10112ZM6.3072 6.81844C6.42069 6.8867 6.49709 6.98458 6.53799 7.08571L4.68388 7.83558C4.79826 8.11839 5.00171 8.36712 5.27635 8.53231L6.3072 6.81844ZM6.53799 7.08571C6.57866 7.18626 6.58645 7.29418 6.56295 7.39642L4.61377 6.94843C4.54608 7.24294 4.56974 7.55334 4.68388 7.83558L6.53799 7.08571ZM6.5477 7.4547C6.5964 7.28916 6.69362 7.16316 6.80508 7.08757L5.68243 5.43237C5.16959 5.78021 4.80248 6.30067 4.62903 6.89016L6.5477 7.4547ZM6.80508 7.08757C6.91454 7.01332 7.03504 6.9883 7.14808 7.00496L7.4397 5.02633C6.82076 4.93511 6.19726 5.08318 5.68243 5.43237L6.80508 7.08757ZM7.29389 7.01564C7.3144 7.01564 7.45701 7.0364 7.73849 7.23106C8.00042 7.41219 8.28813 7.67813 8.57618 7.98965C9.15051 8.61076 9.62435 9.3011 9.77389 9.52999L11.4482 8.4361C11.2692 8.16204 10.726 7.36868 10.0446 6.63182C9.70484 6.26436 9.30505 5.88275 8.87607 5.58609C8.46664 5.30295 7.9149 5.01564 7.29389 5.01564V7.01564ZM9.86504 9.64897C9.80747 9.58447 9.76988 9.51148 9.75003 9.43829L11.6803 8.91467C11.6211 8.69647 11.5121 8.49076 11.3571 8.31713L9.86504 9.64897ZM9.75003 9.43829C9.73021 9.36522 9.72732 9.28952 9.74103 9.21606L11.7071 9.58305C11.7484 9.36151 11.7394 9.13276 11.6803 8.91467L9.75003 9.43829ZM9.74103 9.21606C9.75475 9.14254 9.78569 9.06846 9.83618 9.00123L11.4353 10.2024C11.5742 10.0175 11.6657 9.80467 11.7071 9.58305L9.74103 9.21606ZM9.83618 9.00123C9.88689 8.93373 9.95719 8.8736 10.0453 8.83223L10.8951 10.6427C11.1124 10.5407 11.2962 10.3875 11.4353 10.2024L9.83618 9.00123ZM9.89175 8.92178C10.0202 8.83067 10.1887 8.79055 10.3572 8.82471L9.95986 10.7848C10.3446 10.8628 10.7367 10.7744 11.0487 10.5532L9.89175 8.92178ZM10.3572 8.82471C10.5239 8.85849 10.652 8.95654 10.7277 9.07202L9.05488 10.1682C9.25702 10.4767 9.57694 10.7072 9.95986 10.7848L10.3572 8.82471ZM10.7192 9.05927C10.3423 8.50287 9.80763 7.81251 9.27178 7.24981C9.00545 6.97013 8.71586 6.69759 8.4272 6.48729C8.18632 6.31181 7.76191 6.03831 7.26259 6.03831V8.03831C7.07622 8.03831 7.04885 7.9576 7.24952 8.10379C7.4024 8.21517 7.59884 8.39319 7.82344 8.62904C8.26943 9.09739 8.73617 9.69793 9.06337 10.181L10.7192 9.05927ZM7.33838 6.04118C6.81145 6.00114 6.29711 6.16594 5.88919 6.49027L7.13388 8.05576C7.14664 8.04561 7.15767 8.04056 7.16572 8.03804C7.17368 8.03556 7.18053 8.03495 7.18681 8.03543L7.33838 6.04118ZM5.80386 7.97955C5.9436 8.11952 6.05156 8.30459 6.1082 8.51832L8.04146 8.00599C7.89751 7.46277 7.61595 6.96386 7.21922 6.56648L5.80386 7.97955ZM6.0902 8.43679C6.13545 8.69194 6.13174 8.95463 6.07941 9.20791L8.03804 9.61259C8.14173 9.11074 8.14897 8.59218 8.05946 8.08751L6.0902 8.43679ZM6.07941 9.20791C6.02708 9.46116 5.92788 9.69679 5.79078 9.90102L7.45135 11.0157C7.73573 10.5921 7.93434 10.1145 8.03804 9.61259L6.07941 9.20791ZM5.76315 9.94458C5.22426 10.8444 4.76681 11.2222 4.49901 11.3795C4.24004 11.5316 4.11927 11.5013 4.18879 11.5062L4.04629 13.5012C4.35051 13.5229 4.8791 13.4758 5.512 13.104C6.13608 12.7374 6.81305 12.0841 7.47898 10.9722L5.76315 9.94458ZM4.11754 11.5037H3.08483V13.5037H4.11754V11.5037ZM2.09487 12.3624C1.94062 13.4431 2.16491 14.5516 2.73406 15.4758L4.43702 14.427C4.1178 13.9087 3.98523 13.2726 4.0748 12.645L2.09487 12.3624ZM2.84827 15.627C3.32583 16.1481 4.74841 17.3696 5.97841 18.4067C6.60995 18.9392 7.21596 19.4439 7.66628 19.818C7.89324 20.0066 8.07616 20.1583 8.20867 20.2684C8.27438 20.323 8.32497 20.3651 8.3595 20.3941C8.37704 20.4088 8.3885 20.4185 8.39502 20.4241C8.43367 20.4571 8.37902 20.4129 8.33094 20.3614L9.79307 18.9968C9.764 18.9657 9.73821 18.9423 9.73658 18.9408C9.72851 18.9334 9.72159 18.9273 9.71752 18.9237C9.70902 18.9162 9.70062 18.909 9.6941 18.9034C9.68048 18.8918 9.66342 18.8774 9.64459 18.8616C9.6064 18.8296 9.55285 18.785 9.48706 18.7303C9.35656 18.6218 9.16701 18.4647 8.94437 18.2797C8.49547 17.9067 7.89373 17.4055 7.26763 16.8776C5.98237 15.794 4.69019 14.6767 4.32281 14.2758L2.84827 15.627ZM8.44515 20.4662C8.37788 20.4135 8.32741 20.3498 8.29312 20.283L10.0724 19.3696C9.97864 19.187 9.84574 19.0228 9.67886 18.892L8.44515 20.4662ZM8.29312 20.283C8.25891 20.2163 8.24036 20.1459 8.23604 20.0764L10.2322 19.9524C10.2197 19.751 10.1661 19.5521 10.0724 19.3696L8.29312 20.283ZM8.23412 20.0144V23.3674H10.2341V20.0144H8.23412ZM9.23412 24.3674H10.658V22.3674H9.23412V24.3674ZM11.5117 23.8881L12.8104 21.759L11.103 20.7175L9.80429 22.8467L11.5117 23.8881ZM12.8078 21.7632C12.7436 21.8674 12.6373 21.9597 12.4955 22.0057L11.8778 20.1035C11.5474 20.2108 11.2785 20.433 11.1056 20.7133L12.8078 21.7632ZM12.4955 22.0057C12.3519 22.0523 12.1966 22.0429 12.062 21.9822L12.8842 20.159C12.5679 20.0164 12.2099 19.9957 11.8778 20.1035L12.4955 22.0057ZM12.0996 21.9982C12.5932 22.197 13.1027 22.3494 13.6223 22.4535L14.0151 20.4924C13.6174 20.4128 13.2264 20.2959 12.8465 20.143L12.0996 21.9982ZM13.6421 22.4572C13.5565 22.4419 13.4785 22.4088 13.4121 22.3636L14.5397 20.7117C14.3777 20.6011 14.1927 20.5241 13.9954 20.4887L13.6421 22.4572ZM13.4121 22.3636C13.346 22.3184 13.2938 22.2628 13.2554 22.203L14.9387 21.1229C14.8361 20.963 14.7014 20.8221 14.5397 20.7117L13.4121 22.3636ZM13.2554 22.203C13.2171 22.1433 13.1926 22.0796 13.1805 22.0158L15.1453 21.6422C15.1105 21.4594 15.0412 21.2827 14.9387 21.1229L13.2554 22.203ZM13.1805 22.0158C13.1684 21.9522 13.1683 21.887 13.1804 21.8233L15.1455 22.1956C15.1801 22.0128 15.18 21.8249 15.1453 21.6422L13.1805 22.0158ZM13.182 21.8151C13.2059 21.6944 13.2759 21.5704 13.3992 21.4809L14.574 23.0995C14.8782 22.8787 15.0746 22.5534 15.1439 22.2038L13.182 21.8151ZM13.3992 21.4809C13.5253 21.3894 13.6916 21.3471 13.8596 21.3782L13.4962 23.3449C13.8795 23.4157 14.2671 23.3223 14.574 23.0995L13.3992 21.4809ZM13.8471 21.3759C13.5106 21.3181 13.1795 21.2249 12.8585 21.0971L12.1189 22.9553C12.5683 23.1342 13.0338 23.2655 13.5086 23.3471L13.8471 21.3759ZM11.6348 21.5058L10.3986 23.5344L12.1065 24.5751L13.3427 22.5466L11.6348 21.5058ZM10.5283 23.3653C10.6247 23.264 10.7676 23.193 10.9322 23.1892L10.9784 25.1886C11.3658 25.1797 11.7214 25.0127 11.9769 24.7443L10.5283 23.3653Z" fill="#1B1D29" mask="url(#path-2-inside-1_2811_26603)"/>
<path d="M11.4685 7.76369L11.4444 7.74187L11.4444 7.74187L11.4685 7.76369ZM11.4685 7.76369L11.4701 7.76517M11.4685 7.76369L11.4701 7.76517M11.4701 7.76517L11.4783 7.77258L11.4701 7.76517Z" fill="#1B1D29" stroke="#1B1D29"/>
<path d="M29.7476 17.9355H29.1217V15.7225C29.1217 15.6025 29.0772 15.4874 28.9979 15.4025C28.9187 15.3176 28.8113 15.2699 28.6992 15.2699H28.5897V13.0904C28.5897 12.9704 28.5452 12.8552 28.4659 12.7704C28.3867 12.6855 28.2793 12.6378 28.1672 12.6378H21.0009C20.8888 12.6378 20.7814 12.6855 20.7021 12.7704C20.6229 12.8552 20.5784 12.9704 20.5784 13.0904V14.0628C20.0743 13.8793 19.5461 13.7831 19.0137 13.7778C18.3746 13.7778 17.7419 13.9127 17.1515 14.1747C16.5611 14.4367 16.0246 14.8208 15.5727 15.3049C15.1209 15.7891 14.7624 16.3639 14.5179 16.9964C14.2733 17.629 14.1475 18.307 14.1475 18.9917C14.1475 19.6764 14.2733 20.3544 14.5179 20.987C14.7624 21.6196 15.1209 22.1943 15.5727 22.6785C16.0246 23.1627 16.5611 23.5467 17.1515 23.8087C17.7419 24.0708 18.3746 24.2056 19.0137 24.2056C19.7285 24.2042 20.434 24.0324 21.0791 23.7027C21.083 23.8214 21.1288 23.9341 21.2072 24.0181C21.2856 24.1021 21.3908 24.1512 21.5016 24.1553H28.6992C28.81 24.1512 28.9152 24.1021 28.9936 24.0181C29.072 23.9341 29.1178 23.8214 29.1217 23.7027V21.4729H29.7476C29.8596 21.4729 29.9671 21.4252 30.0463 21.3403C30.1255 21.2555 30.17 21.1403 30.17 21.0203V18.3882C30.17 18.2681 30.1255 18.153 30.0463 18.0681C29.9671 17.9832 29.8596 17.9355 29.7476 17.9355Z" fill="white"/>
<path d="M28.6992 23.7835V24.1553V23.7835ZM28.6992 23.7835H28.7423H28.7767V23.7027L28.6992 23.7835Z" fill="#1B1D29" stroke="#1B1D29"/>
<path d="M18.6688 17.7009H19.3416C19.4412 17.7009 19.5368 17.7432 19.6072 17.8187C19.6776 17.8942 19.7172 17.9965 19.7172 18.1032C19.7172 18.2233 19.7617 18.3384 19.8409 18.4233C19.9201 18.5082 20.0276 18.5559 20.1396 18.5559C20.2517 18.5559 20.3591 18.5082 20.4384 18.4233C20.5176 18.3384 20.5621 18.2233 20.5621 18.1032C20.5628 17.7749 20.4466 17.4586 20.2373 17.2188C20.028 16.979 19.7413 16.8336 19.4355 16.8123V16.4435C19.4316 16.3248 19.3859 16.212 19.3075 16.128C19.2291 16.044 19.1239 15.995 19.0131 15.9908C18.901 15.9908 18.7936 16.0385 18.7143 16.1234C18.6351 16.2083 18.5906 16.3234 18.5906 16.4435V16.7955C18.2927 16.8319 18.0177 16.9844 17.8181 17.224C17.6184 17.4636 17.5081 17.7736 17.5081 18.0948C17.5081 18.416 17.6184 18.726 17.8181 18.9657C18.0177 19.2053 18.2927 19.3578 18.5906 19.3941H19.2634C19.363 19.3941 19.4585 19.4365 19.5289 19.512C19.5994 19.5874 19.6389 19.6898 19.6389 19.7965C19.6389 19.9032 19.5994 20.0055 19.5289 20.081C19.4585 20.1564 19.363 20.1988 19.2634 20.1988H18.5906C18.491 20.1988 18.3955 20.1564 18.325 20.081C18.2546 20.0055 18.2151 19.9032 18.2151 19.7965C18.2151 19.6764 18.1705 19.5613 18.0913 19.4764C18.0121 19.3915 17.9046 19.3438 17.7926 19.3438C17.6805 19.3438 17.5731 19.3915 17.4939 19.4764C17.4146 19.5613 17.3701 19.6764 17.3701 19.7965C17.3734 20.1263 17.493 20.4427 17.7048 20.6821C17.9166 20.9215 18.2051 21.0663 18.5124 21.0874V21.473C18.5124 21.593 18.5569 21.7082 18.6361 21.7931C18.7153 21.8779 18.8228 21.9256 18.9348 21.9256C18.9961 21.9351 19.0585 21.9306 19.118 21.9124C19.1775 21.8941 19.2328 21.8626 19.2801 21.8198C19.3274 21.7771 19.3657 21.724 19.3925 21.6642C19.4193 21.6045 19.434 21.5393 19.4355 21.473V21.1209C19.7336 21.0742 20.005 20.9111 20.1975 20.6629C20.3901 20.4147 20.4902 20.0989 20.4785 19.7764C20.4669 19.4539 20.3443 19.1474 20.1344 18.9159C19.9245 18.6844 19.6422 18.5442 19.3416 18.5223H18.6688C18.5692 18.5223 18.4737 18.4799 18.4033 18.4045C18.3329 18.329 18.2933 18.2267 18.2933 18.12C18.2933 18.0133 18.3329 17.9109 18.4033 17.8355C18.4737 17.76 18.5692 17.7176 18.6688 17.7176V17.7009Z" fill="#1B1D29"/>
</svg>
