<svg width="33" height="33" viewBox="0 0 33 33" fill="none" xmlns="http://www.w3.org/2000/svg">
<rect y="1" width="32" height="32" rx="16" fill="white"/>
<path fill-rule="evenodd" clip-rule="evenodd" d="M13.9503 9.23669C11.6693 10.0049 10.0405 12.0026 10.0405 14.3416V16.9627C10.0405 17.5159 9.78124 18.3593 9.47206 18.8309L8.3251 20.5632C7.61698 21.6334 8.10569 22.8215 9.40224 23.2205C13.7008 24.5265 18.3385 24.5265 22.6371 23.2205C23.8439 22.8577 24.3725 21.5608 23.7142 20.5632L22.5673 18.8309C22.2681 18.3593 22.0088 17.5159 22.0088 16.9627V14.3416C22.0088 11.9876 20.3429 9.97021 18.0302 9.21621C17.7683 8.94248 17.4358 8.64812 17.0886 8.41756L17.085 8.41518C17.0226 8.37384 16.9597 8.33458 16.8967 8.29787C16.5886 8.11836 16.2771 8 16 8C15.732 8 15.4318 8.11073 15.1336 8.28042C14.6995 8.52746 14.2698 8.89947 13.9503 9.23669ZM16.75 12.275C16.75 11.9022 16.4142 11.6 16 11.6C15.5858 11.6 15.25 11.9022 15.25 12.275V15.425C15.25 15.7978 15.5858 16.1 16 16.1C16.4142 16.1 16.75 15.7978 16.75 15.425V12.275Z" fill="#1B1D29"/>
<path d="M18.5335 24.7416C18.4959 24.7456 18.4584 24.7495 18.4209 24.7533C17.6164 24.8351 16.8082 24.8757 16 24.875C15.4388 24.8745 14.8777 24.8542 14.3178 24.814C14.0324 24.7935 13.7474 24.7678 13.4628 24.737C13.5827 24.9084 13.7229 25.0666 13.88 25.208C14.42 25.694 15.18 26 16 26C17.0622 26 18 25.4965 18.5335 24.7416Z" fill="#1B1D29"/>
<rect x="17" width="16" height="16" rx="8" fill="#E43434"/>
<path d="M27.09 11.32V12H23.25V11.32H24.785V6.435C24.785 6.28833 24.79 6.14 24.8 5.99L23.525 7.085C23.4817 7.12167 23.4383 7.145 23.395 7.155C23.3517 7.16167 23.3117 7.16167 23.275 7.155C23.2383 7.14833 23.2033 7.135 23.17 7.115C23.14 7.095 23.1167 7.07333 23.1 7.05L22.82 6.665L24.955 4.82H25.68V11.32H27.09Z" fill="white"/>
</svg>
