<svg width="33" height="32" viewBox="0 0 33 32" fill="none" xmlns="http://www.w3.org/2000/svg">
<g clip-path="url(#clip0_2811_26584)">
<path d="M23.6554 17.8834C27.3915 17.8834 30.4201 14.9508 30.4201 11.3334C30.4201 7.71589 27.3915 4.78335 23.6554 4.78335C19.9193 4.78335 16.8906 7.71589 16.8906 11.3334C16.8906 14.9508 19.9193 17.8834 23.6554 17.8834Z" fill="#FFC708"/>
<path d="M11.795 28.8167C15.5311 28.8167 18.5598 25.8841 18.5598 22.2667C18.5598 18.6492 15.5311 15.7167 11.795 15.7167C8.05896 15.7167 5.03027 18.6492 5.03027 22.2667C5.03027 25.8841 8.05896 28.8167 11.795 28.8167Z" fill="#FFC708"/>
<path d="M21.6069 17.25C20.2199 17.2533 18.863 16.8578 17.7083 16.1137C16.5536 15.3697 15.6529 14.3104 15.1206 13.0702C14.5882 11.8301 14.448 10.4648 14.7178 9.1474C14.9875 7.83002 15.6551 6.61981 16.6359 5.67015C17.6167 4.72048 18.8666 4.07409 20.2272 3.81288C21.5878 3.55168 22.9978 3.68741 24.2786 4.20289C25.5595 4.71837 26.6534 5.59039 27.4219 6.70845C28.1904 7.82652 28.5988 9.1403 28.5954 10.4833C28.5909 12.2766 27.8531 13.9952 26.5435 15.2632C25.2339 16.5313 23.459 17.2456 21.6069 17.25ZM21.6069 4.45C20.3738 4.4467 19.1674 4.79774 18.1404 5.45869C17.1134 6.11963 16.3121 7.06075 15.8378 8.1629C15.3636 9.26506 15.2377 10.4787 15.4762 11.6501C15.7147 12.8216 16.3068 13.8982 17.1775 14.7436C18.0483 15.5891 19.1585 16.1653 20.3677 16.3995C21.5769 16.6336 22.8307 16.5151 23.9703 16.059C25.1099 15.6028 26.0841 14.8295 26.7695 13.837C27.455 12.8445 27.8208 11.6773 27.8208 10.4833C27.8209 8.88608 27.1667 7.35399 26.0019 6.223C24.837 5.09201 23.2565 4.45441 21.6069 4.45Z" fill="#1B1D29"/>
<path d="M22.2265 13.3333H21.142C20.6855 13.3333 20.2477 13.1577 19.9249 12.8452C19.6021 12.5326 19.4207 12.1087 19.4207 11.6667C19.4085 11.6108 19.4093 11.553 19.4231 11.4975C19.4369 11.442 19.4633 11.3902 19.5004 11.3459C19.5375 11.3015 19.5844 11.2657 19.6376 11.2412C19.6908 11.2166 19.7491 11.2038 19.808 11.2038C19.867 11.2038 19.9252 11.2166 19.9784 11.2412C20.0316 11.2657 20.0785 11.3015 20.1156 11.3459C20.1527 11.3902 20.1791 11.442 20.1929 11.4975C20.2067 11.553 20.2075 11.6108 20.1953 11.6667C20.1953 11.8937 20.2872 12.1116 20.4514 12.2737C20.6155 12.4357 20.8388 12.529 21.0732 12.5333H22.2265C22.4608 12.529 22.6841 12.4357 22.8483 12.2737C23.0124 12.1116 23.1044 11.8937 23.1043 11.6667C23.0954 11.4471 22.999 11.2393 22.8353 11.0871C22.6717 10.9348 22.4534 10.8498 22.2265 10.85H21.142C20.7774 10.7541 20.4555 10.5446 20.226 10.2539C19.9965 9.96326 19.8721 9.60755 19.8721 9.24167C19.8721 8.8758 19.9965 8.52008 20.226 8.22942C20.4555 7.93876 20.7774 7.72929 21.142 7.63334H22.2265C22.683 7.63334 23.1208 7.80893 23.4436 8.12149C23.7664 8.43405 23.9478 8.85798 23.9478 9.30001C23.9501 9.34954 23.942 9.39902 23.924 9.44545C23.906 9.49187 23.8785 9.53429 23.8431 9.57012C23.8077 9.60595 23.7652 9.63446 23.7181 9.65392C23.671 9.67338 23.6203 9.68339 23.5691 9.68334C23.4641 9.68334 23.3634 9.64295 23.2891 9.57106C23.2149 9.49917 23.1732 9.40167 23.1732 9.30001C23.1836 9.17707 23.1663 9.05341 23.1224 8.93762C23.0785 8.82183 23.0091 8.71667 22.919 8.62945C22.8289 8.54223 22.7203 8.47504 22.6007 8.43254C22.4811 8.39004 22.3534 8.37325 22.2265 8.38334H21.142C20.955 8.43507 20.7904 8.54439 20.6733 8.69475C20.5562 8.84511 20.4928 9.02833 20.4928 9.21667C20.4928 9.40501 20.5562 9.58823 20.6733 9.73859C20.7904 9.88895 20.955 9.99827 21.142 10.05H22.2265C22.5986 10.1403 22.929 10.3485 23.1651 10.6414C23.4011 10.9343 23.5293 11.2951 23.5293 11.6667C23.5293 12.0382 23.4011 12.3991 23.1651 12.692C22.929 12.9849 22.5986 13.193 22.2265 13.2833V13.3333Z" fill="#1B1D29"/>
<path d="M21.6067 8.38333C21.5017 8.38333 21.401 8.34295 21.3267 8.27106C21.2525 8.19917 21.2108 8.10167 21.2108 8V6.86667C21.1985 6.81082 21.1993 6.75304 21.2131 6.69753C21.2269 6.64203 21.2533 6.59021 21.2904 6.54585C21.3276 6.5015 21.3744 6.46573 21.4277 6.44116C21.4809 6.41659 21.5391 6.40384 21.5981 6.40384C21.657 6.40384 21.7152 6.41659 21.7684 6.44116C21.8217 6.46573 21.8685 6.5015 21.9057 6.54585C21.9428 6.59021 21.9692 6.64203 21.983 6.69753C21.9968 6.75304 21.9976 6.81082 21.9853 6.86667V8C21.9877 8.04954 21.9796 8.09901 21.9616 8.14544C21.9436 8.19187 21.9161 8.23428 21.8807 8.27012C21.8453 8.30595 21.8028 8.33446 21.7557 8.35392C21.7086 8.37338 21.6579 8.38339 21.6067 8.38333Z" fill="#1B1D29"/>
<path d="M21.6068 14.4667C21.5557 14.4689 21.5046 14.4611 21.4566 14.4437C21.4087 14.4263 21.3649 14.3996 21.3279 14.3653C21.2909 14.3311 21.2614 14.2899 21.2413 14.2443C21.2212 14.1987 21.2109 14.1496 21.2109 14.1V12.95C21.2109 12.9004 21.2212 12.8513 21.2413 12.8057C21.2614 12.7601 21.2909 12.7189 21.3279 12.6846C21.3649 12.6504 21.4087 12.6237 21.4566 12.6063C21.5046 12.5889 21.5557 12.5811 21.6068 12.5833C21.6566 12.5833 21.7058 12.5928 21.7518 12.6112C21.7977 12.6297 21.8394 12.6567 21.8746 12.6907C21.9098 12.7248 21.9377 12.7652 21.9567 12.8097C21.9757 12.8542 21.9855 12.9018 21.9855 12.95V14.1C21.9855 14.1972 21.9456 14.2905 21.8746 14.3593C21.8036 14.428 21.7073 14.4667 21.6068 14.4667Z" fill="#1B1D29"/>
<path d="M11.8988 11.7334H11.6922L4.54877 7.36669C4.49552 7.33151 4.45194 7.28428 4.42183 7.22909C4.39172 7.17391 4.37598 7.11244 4.37598 7.05002C4.37598 6.9876 4.39172 6.92613 4.42183 6.87094C4.45194 6.81576 4.49552 6.76853 4.54877 6.73335L11.7266 2.46669C11.7855 2.4294 11.8543 2.40954 11.9246 2.40954C11.9949 2.40954 12.0637 2.4294 12.1225 2.46669C12.1834 2.50066 12.2343 2.5491 12.2705 2.60742C12.3066 2.66575 12.3268 2.73204 12.3291 2.80002V4.73335H15.5996C15.7 4.73335 15.7963 4.77198 15.8674 4.84075C15.9384 4.90951 15.9783 5.00277 15.9783 5.10002C15.9806 5.14956 15.9725 5.19903 15.9545 5.24546C15.9366 5.29189 15.909 5.3343 15.8736 5.37013C15.8382 5.40597 15.7957 5.43448 15.7486 5.45394C15.7015 5.4734 15.6508 5.4834 15.5996 5.48335H11.8988C11.8476 5.4834 11.7969 5.4734 11.7498 5.45394C11.7027 5.43448 11.6601 5.40597 11.6247 5.37013C11.5893 5.3343 11.5618 5.29189 11.5438 5.24546C11.5258 5.19903 11.5178 5.14956 11.5201 5.10002V3.43335L5.49549 7.00002L11.5545 10.6834V9.01669C11.5583 8.92785 11.5953 8.84337 11.6586 8.77899C11.722 8.7146 11.8073 8.67469 11.8988 8.66669H13.7406C13.841 8.66669 13.9373 8.70532 14.0083 8.77408C14.0794 8.84284 14.1193 8.93611 14.1193 9.03335C14.1216 9.08289 14.1135 9.13236 14.0955 9.17879C14.0775 9.22522 14.05 9.26763 14.0146 9.30347C13.9792 9.3393 13.9367 9.36781 13.8896 9.38727C13.8425 9.40673 13.7918 9.41674 13.7406 9.41669H12.3291V11.4167C12.3272 11.4826 12.3071 11.5468 12.2707 11.6025C12.2344 11.6582 12.1832 11.7034 12.1225 11.7334C12.05 11.7575 11.9713 11.7575 11.8988 11.7334Z" fill="#1B1D29"/>
<path d="M9.88501 28.1833C8.50281 28.1833 7.15165 27.7865 6.0024 27.0429C4.85314 26.2994 3.9574 25.2426 3.42846 24.0062C2.89951 22.7697 2.76112 21.4092 3.03077 20.0966C3.30042 18.7839 3.96602 17.5782 4.94338 16.6319C5.92074 15.6856 7.16598 15.0411 8.52162 14.78C9.87726 14.5189 11.2824 14.6529 12.5594 15.1651C13.8364 15.6772 14.9278 16.5445 15.6958 17.6573C16.4637 18.7701 16.8735 20.0783 16.8735 21.4167C16.869 23.2099 16.1312 24.9285 14.8216 26.1966C13.512 27.4646 11.7371 28.1789 9.88501 28.1833ZM9.88501 15.4C8.65601 15.4 7.45461 15.7529 6.43273 16.414C5.41086 17.0751 4.6144 18.0148 4.14409 19.1142C3.67377 20.2136 3.55071 21.4233 3.79048 22.5905C4.03024 23.7576 4.62206 24.8296 5.4911 25.6711C6.36013 26.5125 7.46735 27.0856 8.67273 27.3177C9.87812 27.5499 11.1275 27.4307 12.263 26.9753C13.3984 26.52 14.3689 25.7488 15.0517 24.7593C15.7345 23.7699 16.0989 22.6066 16.0989 21.4167C16.1058 20.6216 15.9502 19.833 15.6412 19.0963C15.3321 18.3596 14.8758 17.6893 14.2983 17.124C13.7208 16.5587 13.0337 16.1094 12.2763 15.8021C11.5189 15.4948 10.7062 15.3355 9.88501 15.3333V15.4Z" fill="#1B1D29"/>
<path d="M10.3149 24.5333H9.24768C8.79116 24.5333 8.35334 24.3577 8.03053 24.0452C7.70772 23.7326 7.52637 23.3087 7.52637 22.8667C7.52637 22.7694 7.56626 22.6762 7.63728 22.6074C7.7083 22.5386 7.80462 22.5 7.90506 22.5C7.95621 22.4978 8.00731 22.5056 8.05526 22.523C8.10321 22.5404 8.14702 22.5671 8.18403 22.6013C8.22104 22.6356 8.25048 22.6768 8.27058 22.7224C8.29068 22.768 8.30101 22.8171 8.30096 22.8667C8.30096 23.0965 8.39526 23.317 8.56312 23.4795C8.73098 23.642 8.95865 23.7333 9.19604 23.7333H10.2633C10.3965 23.7702 10.5367 23.7766 10.6729 23.752C10.8091 23.7275 10.9375 23.6727 11.0481 23.5919C11.1587 23.5111 11.2485 23.4066 11.3102 23.2865C11.372 23.1665 11.4042 23.0341 11.4042 22.9C11.4042 22.7659 11.372 22.6336 11.3102 22.5135C11.2485 22.3934 11.1587 22.2889 11.0481 22.2081C10.9375 22.1273 10.8091 22.0725 10.6729 22.048C10.5367 22.0234 10.3965 22.0298 10.2633 22.0667H9.24768C8.87548 21.9764 8.54513 21.7682 8.30908 21.4753C8.07303 21.1824 7.94483 20.8215 7.94483 20.45C7.94483 20.0785 8.07303 19.7176 8.30908 19.4247C8.54513 19.1318 8.87548 18.9237 9.24768 18.8333H10.3149C10.7714 18.8333 11.2092 19.0089 11.532 19.3215C11.8549 19.6341 12.0362 20.058 12.0362 20.5C12.0484 20.5559 12.0476 20.6136 12.0338 20.6691C12.02 20.7246 11.9936 20.7765 11.9565 20.8208C11.9194 20.8652 11.8725 20.9009 11.8193 20.9255C11.7661 20.9501 11.7079 20.9628 11.6489 20.9628C11.5899 20.9628 11.5317 20.9501 11.4785 20.9255C11.4253 20.9009 11.3784 20.8652 11.3413 20.8208C11.3042 20.7765 11.2778 20.7246 11.264 20.6691C11.2502 20.6136 11.2494 20.5559 11.2616 20.5C11.2572 20.2715 11.1615 20.0535 10.9946 19.8919C10.8277 19.7303 10.6025 19.6376 10.3665 19.6333H9.24768C9.13013 19.6333 9.01374 19.6558 8.90515 19.6993C8.79655 19.7429 8.69788 19.8067 8.61476 19.8872C8.53164 19.9677 8.46571 20.0632 8.42073 20.1684C8.37575 20.2735 8.3526 20.3862 8.3526 20.5C8.3526 20.7299 8.4469 20.9503 8.61476 21.1128C8.78262 21.2754 9.01029 21.3667 9.24768 21.3667H10.3149C10.5702 21.2995 10.838 21.2902 11.0976 21.3395C11.3572 21.3888 11.6016 21.4954 11.8117 21.651C12.0219 21.8065 12.1922 22.0069 12.3094 22.2365C12.4266 22.4662 12.4876 22.7189 12.4876 22.975C12.4876 23.2312 12.4266 23.4839 12.3094 23.7135C12.1922 23.9431 12.0219 24.1435 11.8117 24.2991C11.6016 24.4546 11.3572 24.5612 11.0976 24.6105C10.838 24.6598 10.5702 24.6505 10.3149 24.5833V24.5333Z" fill="#1B1D29"/>
<path d="M9.78164 19.5833C9.73048 19.5856 9.67938 19.5778 9.63143 19.5603C9.58348 19.5429 9.53968 19.5163 9.50267 19.482C9.46566 19.4477 9.43622 19.4065 9.41612 19.3609C9.39602 19.3153 9.38569 19.2662 9.38574 19.2167V18.0667C9.38569 18.0171 9.39602 17.968 9.41612 17.9224C9.43622 17.8768 9.46566 17.8356 9.50267 17.8013C9.53968 17.767 9.58348 17.7404 9.63143 17.723C9.67938 17.7056 9.73048 17.6977 9.78164 17.7C9.88208 17.7 9.9784 17.7386 10.0494 17.8074C10.1204 17.8762 10.1603 17.9694 10.1603 18.0667V19.2167C10.1603 19.3139 10.1204 19.4072 10.0494 19.4759C9.9784 19.5447 9.88208 19.5833 9.78164 19.5833Z" fill="#1B1D29"/>
<path d="M9.78146 25.6833C9.68216 25.6837 9.58635 25.6479 9.51302 25.5831C9.43969 25.5183 9.39419 25.4291 9.38556 25.3333V24.1667C9.37333 24.1108 9.37414 24.053 9.38793 23.9975C9.40172 23.942 9.42813 23.8902 9.46525 23.8459C9.50237 23.8015 9.54925 23.7657 9.60246 23.7412C9.65568 23.7166 9.7139 23.7038 9.77285 23.7038C9.83181 23.7038 9.89003 23.7166 9.94325 23.7412C9.99647 23.7657 10.0433 23.8015 10.0805 23.8459C10.1176 23.8902 10.144 23.942 10.1578 23.9975C10.1716 24.053 10.1724 24.1108 10.1601 24.1667V25.3333C10.1557 25.4277 10.1139 25.5167 10.0433 25.5819C9.97278 25.6471 9.87898 25.6834 9.78146 25.6833Z" fill="#1B1D29"/>
<path d="M19.5412 29.7166C19.4791 29.7322 19.414 29.7322 19.3519 29.7166C19.2931 29.6818 19.2447 29.6328 19.2115 29.5743C19.1783 29.5159 19.1614 29.45 19.1626 29.3833V27.4H15.8921C15.8344 27.4118 15.7747 27.411 15.7174 27.3977C15.6601 27.3843 15.6065 27.3588 15.5607 27.3228C15.5149 27.2869 15.478 27.2415 15.4526 27.19C15.4272 27.1384 15.4141 27.0821 15.4141 27.025C15.4141 26.9679 15.4272 26.9115 15.4526 26.86C15.478 26.8085 15.5149 26.7631 15.5607 26.7271C15.6065 26.6912 15.6601 26.6656 15.7174 26.6523C15.7747 26.6389 15.8344 26.6381 15.8921 26.65H19.5412C19.6433 26.6499 19.7415 26.688 19.8153 26.7563C19.889 26.8246 19.9327 26.9179 19.9371 27.0166V28.6833L25.979 25.0833L19.9371 21.4V23.15C19.9327 23.2487 19.889 23.342 19.8153 23.4103C19.7415 23.4787 19.6433 23.5167 19.5412 23.5166H17.7167C17.659 23.5285 17.5993 23.5277 17.542 23.5144C17.4847 23.501 17.4311 23.4754 17.3853 23.4395C17.3395 23.4036 17.3026 23.3582 17.2772 23.3066C17.2518 23.2551 17.2387 23.1987 17.2387 23.1416C17.2387 23.0846 17.2518 23.0282 17.2772 22.9767C17.3026 22.9251 17.3395 22.8797 17.3853 22.8438C17.4311 22.8079 17.4847 22.7823 17.542 22.7689C17.5993 22.7556 17.659 22.7548 17.7167 22.7666H19.1626V20.7166C19.1614 20.6499 19.1783 20.5841 19.2115 20.5256C19.2447 20.4672 19.2931 20.4181 19.3519 20.3833C19.4126 20.3512 19.4807 20.3344 19.5499 20.3344C19.619 20.3344 19.6871 20.3512 19.7478 20.3833L26.9257 24.75C26.9789 24.7852 27.0225 24.8324 27.0526 24.8876C27.0827 24.9428 27.0985 25.0042 27.0985 25.0666C27.0985 25.1291 27.0827 25.1905 27.0526 25.2457C27.0225 25.3009 26.9789 25.3481 26.9257 25.3833L19.7478 29.6666C19.6839 29.6986 19.6132 29.7157 19.5412 29.7166Z" fill="#1B1D29"/>
</g>
<defs>
<clipPath id="clip0_2811_26584">
<rect width="28" height="28" fill="white" transform="translate(2.83301 2)"/>
</clipPath>
</defs>
</svg>
