<svg width="33" height="32" viewBox="0 0 33 32" fill="none" xmlns="http://www.w3.org/2000/svg">
<path d="M29.605 10.375C29.605 7.9575 25.0298 6 19.385 6C13.7402 6 9.16504 7.9575 9.16504 10.375C9.16504 10.4175 9.16504 10.4575 9.16504 10.5V17.75C9.31904 20.1075 13.8298 22 19.3766 22C24.9234 22 29.4426 20.1075 29.605 17.75V10.5C29.605 10.4575 29.605 10.4175 29.605 10.375Z" fill="#FFC708"/>
<path d="M18.1253 7.64999C17.5149 7.39999 16.9913 7.13249 17.2853 6.93749C17.4561 6.81249 18.0105 6.74749 18.8197 6.89749C19.2788 6.97195 19.7219 7.1103 20.1329 7.30749L21.1297 6.99999C20.7133 6.79492 20.2678 6.64103 19.8053 6.54249L20.5949 5.97499L19.5449 5.77999L18.7329 6.36249C17.5373 6.25249 16.6217 6.45499 16.2465 6.72749C15.4205 7.24999 16.5713 7.74999 17.1873 7.99999C18.0273 8.35499 18.3913 8.54749 18.0581 8.78749C17.4981 9.18249 16.2941 9.03749 15.6193 8.90499C15.1812 8.83415 14.7599 8.69719 14.3733 8.49999L13.3037 8.77499C13.7295 9.01082 14.1973 9.17992 14.6869 9.27499L13.9085 9.83499L14.9585 10.0325L15.7593 9.45499C17.4393 9.65249 18.5817 9.35749 19.1193 8.97749C19.9145 8.40499 18.9149 7.99999 18.1253 7.64999Z" fill="#1B1D29"/>
<path d="M17.3971 16.0625C11.5815 16.0625 7.03712 14.15 7.03712 11.7125V8.6025C7.02872 6.16 11.5815 4.25 17.3971 4.25C23.2127 4.25 27.7571 6.16 27.7571 8.6025V11.7125C27.7627 14.15 23.2099 16.0625 17.3971 16.0625ZM17.3971 5.0475C11.6851 5.0475 7.84072 6.8675 7.84072 8.5675V11.75C7.84072 13.45 11.6823 15.27 17.3971 15.27C23.1119 15.27 26.9507 13.445 26.9507 11.75V8.5675C26.9507 6.8675 23.1119 5.0475 17.3971 5.0475Z" fill="#1B1D29"/>
<path d="M25.5055 9.52999C23.8003 10.63 20.7175 11.31 17.3855 11.31C14.5267 11.31 11.8835 10.81 10.1055 9.98999V10.7925C12.0067 11.5675 14.6079 12.0175 17.3855 12.0175C20.6111 12.0175 23.5455 11.4275 25.5055 10.4125V9.52999Z" fill="#1B1D29"/>
<path d="M27.0407 12.7625L26.3575 13.23C26.6823 13.5775 27.0127 14.045 27.0127 14.4V16.1025C27.0127 17.6625 23.7255 19.525 18.7051 19.7275L20.2311 20.2925C24.6215 19.7925 27.7631 18.1275 27.7631 16.1025V14.4C27.7485 13.7947 27.4923 13.214 27.0407 12.7625Z" fill="#1B1D29"/>
<path d="M12.2452 27.75V25.25C10.7543 24.9778 9.3406 24.4387 8.0894 23.6653C6.8382 22.8919 5.77544 21.9002 4.96523 20.75C3.90376 19.2086 3.3418 17.4345 3.3418 15.625C3.3418 13.8155 3.90376 12.0414 4.96523 10.5C4.96523 10.5 4.27363 14 6.36523 17C7.53843 18.675 10.0584 20 12.2452 20.3175V18.25L22.0452 22.5L12.2452 27.75ZM4.40523 12.75C3.52323 15.215 4.09163 18.08 5.64283 20.35C7.16043 22.5675 9.70843 23.94 12.5616 24.5375L12.9816 24.6025V26.565L20.7656 22.545L12.9816 19.31V21.08L12.4216 21.03C11.0896 20.9221 9.8044 20.5371 8.66904 19.9059C7.53367 19.2747 6.57972 18.4147 5.88363 17.395C4.94843 16.0275 4.29323 14.31 4.40523 12.75Z" fill="#1B1D29"/>
<path d="M4.40476 12.75C3.52276 15.215 4.09116 18.08 5.64236 20.35C7.15996 22.5675 9.70796 23.94 12.5612 24.5375L12.9812 24.6025V26.565L20.7652 22.545L12.9812 19.31V21.08L12.4212 21.03C11.0891 20.9221 9.80393 20.5371 8.66857 19.9059C7.5332 19.2747 6.57925 18.4147 5.88316 17.395C4.94796 16.0275 4.29276 14.31 4.40476 12.75Z" fill="white"/>
</svg>
