<svg width="33" height="32" viewBox="0 0 33 32" fill="none" xmlns="http://www.w3.org/2000/svg">
<g clip-path="url(#clip0_2811_26563)">
<path d="M24.3518 5.3852L22.7446 4.5816L21.1234 5.3852L19.519 4.5816L17.8978 5.3852L16.3046 4.5816L14.6722 5.3852L13.065 4.5816L11.4578 5.3852L9.83661 4.5816V19.08H4.20021C3.98976 19.08 3.78775 19.1628 3.63789 19.3106C3.48802 19.4583 3.40236 19.6592 3.39941 19.8696C3.39941 23.1092 3.73821 25.52 7.42861 25.52H21.927C22.9956 25.52 24.0205 25.0955 24.7761 24.3399C25.5317 23.5843 25.9562 22.5594 25.9562 21.4908V4.5816L24.3518 5.3852Z" fill="white"/>
<path d="M24.8277 7.6308L23.3577 6.8944L21.8737 7.6308L20.4177 6.8944L18.9617 7.6308L17.5057 6.8944L16.0357 7.6308L14.5797 6.8944L13.1069 7.6308L11.6509 6.8944V20.074H6.5157C6.32236 20.0725 6.1363 20.1477 5.99828 20.2831C5.86026 20.4185 5.78151 20.6031 5.7793 20.7964V20.8104C5.7793 23.7364 6.0929 25.9428 9.4417 25.9428H22.6213C23.1037 25.9458 23.582 25.8532 24.0284 25.6703C24.4749 25.4875 24.8807 25.2181 25.2225 24.8776C25.5643 24.5371 25.8353 24.1323 26.0198 23.6865C26.2044 23.2407 26.2988 22.7628 26.2977 22.2804V6.8804L24.8277 7.6308Z" fill="#FFC708"/>
<path d="M25.8053 4.2764C25.8512 4.25349 25.9016 4.24119 25.9529 4.24042C26.0041 4.23964 26.0549 4.25041 26.1014 4.27192C26.1479 4.29344 26.189 4.32514 26.2216 4.36469C26.2542 4.40425 26.2775 4.45063 26.2897 4.5004V4.5816V15.8544H25.6177V5.1304L24.4977 5.6904H24.2009L22.7309 4.9624L21.2581 5.6876H20.9585L19.5053 4.9596L18.0493 5.6876C17.9783 5.72312 17.8972 5.73301 17.8197 5.7156L17.7441 5.6876L16.3021 4.9596L14.8181 5.6904H14.5185L13.0653 4.9624L11.6093 5.6904H11.3069L10.1869 5.1304V19.08H9.49814V4.5816C9.49695 4.5299 9.50751 4.47861 9.52903 4.43158C9.55055 4.38456 9.58246 4.34304 9.62236 4.31014C9.66227 4.27725 9.70912 4.25385 9.75938 4.2417C9.80965 4.22954 9.86202 4.22896 9.91254 4.24L9.98814 4.268L11.4581 5.0016L12.9113 4.2764H13.2165L14.6725 5.0016L16.1537 4.2764H16.4589L17.8981 5.0016L19.3513 4.2764C19.4205 4.23867 19.5006 4.22582 19.5781 4.24L19.6537 4.268L21.1069 4.9932L22.5769 4.268H22.8821L24.3381 5.0016L25.8053 4.2764Z" fill="#1B1D29"/>
<path d="M23.2773 7.684C23.3594 7.68653 23.4379 7.71859 23.4983 7.77428C23.5587 7.82998 23.5971 7.90559 23.6062 7.98725C23.6154 8.0689 23.5949 8.15113 23.5483 8.21886C23.5018 8.28659 23.4324 8.33528 23.3529 8.356H23.2773H12.5337C12.4501 8.35686 12.3691 8.32677 12.3063 8.2715C12.2436 8.21623 12.2034 8.1397 12.1937 8.05664C12.184 7.97357 12.2053 7.88985 12.2536 7.82157C12.3019 7.75329 12.3737 7.70529 12.4553 7.6868H12.5337L23.2773 7.684Z" fill="#1B1D29"/>
<path d="M23.2767 10.0668C23.3589 10.0693 23.4373 10.1014 23.4977 10.1571C23.5582 10.2128 23.5965 10.2884 23.6057 10.37C23.6149 10.4517 23.5943 10.5339 23.5478 10.6017C23.5012 10.6694 23.4319 10.7181 23.3523 10.7388H23.2767H12.5331C12.4433 10.7388 12.3571 10.7031 12.2936 10.6396C12.23 10.576 12.1943 10.4899 12.1943 10.4C12.194 10.3233 12.2195 10.2487 12.2668 10.1883C12.314 10.1278 12.3802 10.085 12.4547 10.0668H12.5331H23.2767Z" fill="#1B1D29"/>
<path d="M23.2767 12.4496C23.3589 12.4521 23.4373 12.4842 23.4977 12.5399C23.5582 12.5956 23.5965 12.6712 23.6057 12.7528C23.6149 12.8345 23.5943 12.9167 23.5478 12.9845C23.5012 13.0522 23.4319 13.1009 23.3523 13.1216H23.2767H12.5331C12.4886 13.1216 12.4446 13.1128 12.4035 13.0958C12.3624 13.0788 12.325 13.0538 12.2936 13.0224C12.2621 12.9909 12.2372 12.9536 12.2201 12.9125C12.2031 12.8713 12.1943 12.8273 12.1943 12.7828C12.194 12.7061 12.2195 12.6315 12.2668 12.5711C12.314 12.5106 12.3802 12.4678 12.4547 12.4496H12.5331H23.2767Z" fill="#1B1D29"/>
<path d="M23.2767 14.8324C23.3589 14.8349 23.4373 14.867 23.4977 14.9227C23.5582 14.9784 23.5965 15.054 23.6057 15.1356C23.6149 15.2173 23.5943 15.2995 23.5478 15.3673C23.5012 15.435 23.4319 15.4837 23.3523 15.5044H23.2767H12.5331C12.4433 15.5044 12.3571 15.4687 12.2936 15.4052C12.23 15.3416 12.1943 15.2555 12.1943 15.1656C12.194 15.0889 12.2195 15.0143 12.2668 14.9539C12.314 14.8934 12.3802 14.8506 12.4547 14.8324H12.5331H23.2767Z" fill="#1B1D29"/>
<path fill-rule="evenodd" clip-rule="evenodd" d="M22.1592 25.1672C22.0836 25.1672 22.0052 25.1672 21.9268 25.1672C20.9507 25.1672 20.0145 24.7802 19.3232 24.0911C18.632 23.402 18.2422 22.4669 18.2392 21.4908V19.08V19.0016C18.2211 18.9254 18.1772 18.8578 18.115 18.8103C18.0527 18.7629 17.9759 18.7384 17.8976 18.7412H4.20002H4.06002C3.78549 18.7745 3.53242 18.9065 3.348 19.1125C3.16357 19.3186 3.06036 19.5847 3.05762 19.8612V20.2252C3.10802 24.2488 4.07122 25.8532 7.42562 25.8532H21.9268H22.176C22.3123 25.8532 22.4467 25.8392 22.5792 25.8112L22.1592 25.1672ZM7.42842 25.1672H7.17362C4.42402 25.0888 3.73802 23.714 3.73802 19.8752V19.7716C3.76148 19.6696 3.81885 19.5787 3.90074 19.5136C3.98263 19.4485 4.0842 19.4131 4.18882 19.4132H17.5448V21.4852V21.7316C17.5824 22.3994 17.7729 23.0497 18.1016 23.6322C18.4302 24.2148 18.8883 24.7141 19.4404 25.0916L19.5664 25.1728L7.42842 25.1672Z" fill="#1B1D29"/>
<path d="M29.2692 22.72C29.27 22.6781 29.2623 22.6365 29.2467 22.5976C29.2311 22.5587 29.2079 22.5234 29.1784 22.4936C29.1489 22.4639 29.1138 22.4403 29.075 22.4244C29.0363 22.4084 28.9947 22.4004 28.9528 22.4008H27.2728V19.696C27.2654 19.6169 27.2287 19.5433 27.1699 19.4898C27.1111 19.4363 27.0345 19.4067 26.955 19.4067C26.8755 19.4067 26.7989 19.4363 26.7401 19.4898C26.6814 19.5433 26.6447 19.6169 26.6372 19.696V22.72C26.6372 22.8047 26.6709 22.8858 26.7307 22.9457C26.7906 23.0056 26.8718 23.0392 26.9564 23.0392H28.3564L25.3128 28.04L22.174 23.0336H23.6636C23.7473 23.0336 23.8277 23.0008 23.8874 22.9421C23.9471 22.8834 23.9814 22.8037 23.9828 22.72V21.208C23.987 21.1638 23.9819 21.1191 23.9678 21.077C23.9537 21.0348 23.931 20.9961 23.9011 20.9632C23.8711 20.9304 23.8347 20.9041 23.7941 20.8862C23.7534 20.8682 23.7095 20.8589 23.665 20.8589C23.6206 20.8589 23.5766 20.8682 23.536 20.8862C23.4954 20.9041 23.4589 20.9304 23.429 20.9632C23.3991 20.9961 23.3764 21.0348 23.3623 21.077C23.3482 21.1191 23.3431 21.1638 23.3472 21.208V22.4008H21.5972C21.5392 22.3989 21.4818 22.4129 21.4311 22.4412C21.3804 22.4695 21.3384 22.5111 21.3096 22.5615C21.2808 22.6119 21.2663 22.6692 21.2677 22.7272C21.269 22.7852 21.2861 22.8418 21.3172 22.8908L25.0468 28.8016C25.0767 28.8484 25.1182 28.8866 25.1673 28.9126C25.2164 28.9386 25.2713 28.9515 25.3268 28.95C25.3827 28.9518 25.438 28.9387 25.4872 28.9122C25.5364 28.8856 25.5777 28.8465 25.6068 28.7988L29.2468 22.8824C29.2679 22.831 29.2756 22.7752 29.2692 22.72Z" fill="#1B1D29"/>
<path d="M24.8982 19.36C23.8413 19.3589 22.8084 19.0445 21.9301 18.4564C21.0518 17.8684 20.3676 17.0332 19.9639 16.0564C19.5602 15.0796 19.4551 14.0051 19.662 12.9686C19.8689 11.9321 20.3784 10.9802 21.1261 10.2332C21.8739 9.48622 22.8263 8.97769 23.8631 8.7719C24.8998 8.56611 25.9742 8.67229 26.9506 9.07702C27.927 9.48175 28.7615 10.1669 29.3486 11.0457C29.9356 11.9246 30.249 12.9579 30.249 14.0148C30.2475 15.433 29.6831 16.7925 28.6798 17.7948C27.6765 18.797 26.3163 19.36 24.8982 19.36Z" fill="white"/>
<path d="M24.8982 19.36C23.8413 19.3589 22.8084 19.0445 21.9301 18.4564C21.0518 17.8684 20.3676 17.0332 19.9639 16.0564C19.5602 15.0796 19.4551 14.0051 19.662 12.9686C19.8689 11.9321 20.3784 10.9802 21.1261 10.2332C21.8739 9.48622 22.8263 8.97769 23.8631 8.7719C24.8998 8.56611 25.9742 8.67229 26.9506 9.07702C27.927 9.48175 28.7615 10.1669 29.3486 11.0457C29.9356 11.9246 30.249 12.9579 30.249 14.0148C30.2475 15.433 29.6831 16.7925 28.6798 17.7948C27.6765 18.797 26.3163 19.36 24.8982 19.36ZM24.8982 9.2604C23.9568 9.2604 23.0365 9.53957 22.2537 10.0626C21.4709 10.5856 20.8608 11.3291 20.5005 12.1988C20.1403 13.0686 20.046 14.0257 20.2297 14.949C20.4133 15.8724 20.8667 16.7205 21.5324 17.3862C22.1981 18.0519 23.0462 18.5053 23.9696 18.6889C24.8929 18.8726 25.85 18.7783 26.7198 18.4181C27.5895 18.0578 28.333 17.4477 28.856 16.6649C29.379 15.8821 29.6582 14.9618 29.6582 14.0204C29.6582 12.758 29.1567 11.5472 28.264 10.6546C27.3714 9.7619 26.1606 9.2604 24.8982 9.2604Z" fill="#1B1D29"/>
<path d="M25.24 16.4788H24.4196C24.0822 16.4781 23.7589 16.3435 23.5206 16.1047C23.2823 15.8658 23.1484 15.5422 23.1484 15.2048C23.1556 15.1314 23.1898 15.0633 23.2444 15.0138C23.299 14.9642 23.3701 14.9368 23.4438 14.9368C23.5176 14.9368 23.5887 14.9642 23.6433 15.0138C23.6979 15.0633 23.7321 15.1314 23.7392 15.2048C23.7389 15.2944 23.7562 15.3832 23.7902 15.466C23.8243 15.5489 23.8743 15.6242 23.9375 15.6877C24.0007 15.7512 24.0759 15.8016 24.1586 15.8359C24.2413 15.8703 24.3301 15.888 24.4196 15.888H25.24C25.4133 15.8769 25.5759 15.8002 25.6946 15.6736C25.8134 15.5469 25.8795 15.3798 25.8795 15.2062C25.8795 15.0326 25.8134 14.8655 25.6946 14.7388C25.5759 14.6122 25.4133 14.5355 25.24 14.5244H24.4196C24.0825 14.5244 23.7592 14.3905 23.5208 14.1521C23.2824 13.9137 23.1484 13.5903 23.1484 13.2532C23.1484 12.9161 23.2824 12.5927 23.5208 12.3543C23.7592 12.1159 24.0825 11.982 24.4196 11.982H25.24C25.407 11.982 25.5723 12.0149 25.7265 12.0788C25.8807 12.1426 26.0209 12.2363 26.1389 12.3543C26.257 12.4724 26.3506 12.6125 26.4145 12.7667C26.4784 12.921 26.5112 13.0863 26.5112 13.2532C26.5041 13.3266 26.4699 13.3947 26.4153 13.4442C26.3607 13.4938 26.2896 13.5212 26.2158 13.5212C26.1421 13.5212 26.071 13.4938 26.0164 13.4442C25.9618 13.3947 25.9276 13.3266 25.9204 13.2532C25.9204 13.1638 25.9028 13.0754 25.8686 12.9928C25.8345 12.9103 25.7843 12.8353 25.7212 12.7721C25.658 12.7089 25.583 12.6588 25.5004 12.6246C25.4179 12.5904 25.3294 12.5728 25.24 12.5728H24.4196C24.2392 12.5728 24.0661 12.6445 23.9385 12.7721C23.8109 12.8997 23.7392 13.0727 23.7392 13.2532C23.7392 13.4337 23.8109 13.6067 23.9385 13.7343C24.0661 13.8619 24.2392 13.9336 24.4196 13.9336H25.24C25.5672 13.9489 25.8759 14.0897 26.1021 14.3267C26.3282 14.5637 26.4543 14.8786 26.4543 15.2062C26.4543 15.5337 26.3282 15.8487 26.1021 16.0857C25.8759 16.3227 25.5672 16.4634 25.24 16.4788Z" fill="#1B1D29"/>
<path d="M24.8304 12.5728C24.7517 12.5728 24.6762 12.5415 24.6206 12.4859C24.5649 12.4302 24.5336 12.3547 24.5336 12.276V11.3744C24.5296 11.3332 24.5343 11.2916 24.5473 11.2523C24.5603 11.213 24.5814 11.1768 24.6092 11.1462C24.637 11.1155 24.671 11.091 24.7088 11.0742C24.7467 11.0575 24.7876 11.0488 24.829 11.0488C24.8704 11.0488 24.9114 11.0575 24.9492 11.0742C24.9871 11.091 25.021 11.1155 25.0488 11.1462C25.0767 11.1768 25.0978 11.213 25.1108 11.2523C25.1238 11.2916 25.1284 11.3332 25.1244 11.3744V12.276C25.1244 12.3542 25.0935 12.4293 25.0385 12.4849C24.9834 12.5405 24.9087 12.5721 24.8304 12.5728Z" fill="#1B1D29"/>
<path d="M24.831 17.3804C24.7549 17.3812 24.6815 17.3525 24.6261 17.3003C24.5707 17.2481 24.5378 17.1764 24.5342 17.1004V16.182C24.5413 16.1086 24.5755 16.0405 24.6302 15.991C24.6848 15.9414 24.7558 15.914 24.8296 15.914C24.9033 15.914 24.9744 15.9414 25.029 15.991C25.0836 16.0405 25.1178 16.1086 25.125 16.182V17.0864C25.127 17.1255 25.1208 17.1647 25.1067 17.2012C25.0926 17.2378 25.0711 17.271 25.0433 17.2988C25.0156 17.3265 24.9824 17.3481 24.9458 17.3621C24.9092 17.3762 24.8701 17.3824 24.831 17.3804Z" fill="#1B1D29"/>
</g>
<defs>
<clipPath id="clip0_2811_26563">
<rect width="28" height="28" fill="white" transform="translate(2.49805 2)"/>
</clipPath>
</defs>
</svg>
