<svg width="33" height="32" viewBox="0 0 33 32" fill="none" xmlns="http://www.w3.org/2000/svg">
<path d="M13.5635 25C18.2164 25 21.9883 21.2671 21.9883 16.6624C21.9883 12.0577 18.2164 8.32487 13.5635 8.32487C8.9106 8.32487 5.13867 12.0577 5.13867 16.6624C5.13867 21.2671 8.9106 25 13.5635 25Z" fill="#FFC708"/>
<path d="M11.1704 24.1908C9.45326 24.1879 7.7755 23.6813 6.34917 22.7351C4.92283 21.7888 3.81193 20.4454 3.15685 18.8745C2.50177 17.3036 2.3319 15.5758 2.66872 13.9095C3.00554 12.2431 3.83392 10.7129 5.04919 9.51231C6.26446 8.3117 7.81207 7.49454 9.49647 7.16408C11.1809 6.83362 12.9264 7.00471 14.5126 7.65571C16.0988 8.30671 17.4544 9.40841 18.4081 10.8216C19.3618 12.2348 19.8708 13.896 19.8708 15.5954C19.8645 17.8757 18.9453 20.0606 17.3146 21.6716C15.6839 23.2826 13.4746 24.1885 11.1704 24.1908ZM11.1704 7.9277C9.64052 7.92829 8.14514 8.3778 6.87336 9.21939C5.60157 10.061 4.6105 11.2569 4.02544 12.6558C3.44038 14.0548 3.28761 15.5941 3.58644 17.079C3.88527 18.5639 4.62229 19.9277 5.70431 20.9981C6.78632 22.0685 8.16475 22.7974 9.66531 23.0925C11.1659 23.3877 12.7212 23.2359 14.1346 22.6564C15.5479 22.0768 16.756 21.0956 17.6059 19.8366C18.4558 18.5777 18.9094 17.0976 18.9094 15.5836C18.907 13.5533 18.0908 11.6069 16.6399 10.1716C15.189 8.73628 13.2219 7.92927 11.1704 7.9277Z" fill="#292525"/>
<path d="M11.8896 19.8931H10.47C9.88482 19.8923 9.32385 19.662 8.91007 19.2525C8.4963 18.843 8.26349 18.2878 8.2627 17.7087C8.27259 17.5806 8.33099 17.4609 8.42623 17.3736C8.52146 17.2863 8.6465 17.2378 8.77633 17.2378C8.90616 17.2378 9.0312 17.2863 9.12643 17.3736C9.22167 17.4609 9.28008 17.5806 9.28997 17.7087C9.28993 18.0201 9.41368 18.319 9.63447 18.5408C9.85527 18.7626 10.1554 18.8896 10.47 18.8943H11.8896C12.0498 18.9023 12.2099 18.8779 12.3603 18.8228C12.5106 18.7676 12.6481 18.6828 12.7643 18.5734C12.8805 18.4641 12.9731 18.3325 13.0363 18.1866C13.0995 18.0408 13.1321 17.8837 13.1321 17.725C13.1321 17.5663 13.0995 17.4093 13.0363 17.2634C12.9731 17.1176 12.8805 16.986 12.7643 16.8766C12.6481 16.7672 12.5106 16.6824 12.3603 16.6272C12.2099 16.5721 12.0498 16.5478 11.8896 16.5557H10.47C9.88458 16.5557 9.32314 16.3256 8.9092 15.9159C8.49525 15.5063 8.2627 14.9507 8.2627 14.3713C8.2627 13.792 8.49525 13.2364 8.9092 12.8267C9.32314 12.417 9.88458 12.1869 10.47 12.1869H11.8896C12.4748 12.1877 13.0357 12.4181 13.4495 12.8276C13.8633 13.237 14.0961 13.7922 14.0969 14.3713C14.0969 14.5057 14.0429 14.6346 13.9469 14.7297C13.8508 14.8247 13.7206 14.8781 13.5847 14.8781C13.4489 14.8781 13.3187 14.8247 13.2226 14.7297C13.1266 14.6346 13.0726 14.5057 13.0726 14.3713C13.0726 14.0569 12.9464 13.7553 12.7217 13.533C12.4971 13.3106 12.1923 13.1857 11.8746 13.1857H10.47C10.1669 13.2008 9.8813 13.3306 9.67219 13.5483C9.46309 13.7659 9.34648 14.0547 9.34648 14.355C9.34648 14.6553 9.46309 14.9441 9.67219 15.1618C9.8813 15.3794 10.1669 15.5092 10.47 15.5243H11.8896C12.1795 15.5243 12.4665 15.5808 12.7343 15.6906C13.0021 15.8003 13.2454 15.9612 13.4504 16.1641C13.6554 16.3669 13.8179 16.6077 13.9289 16.8728C14.0398 17.1378 14.0969 17.4218 14.0969 17.7087C14.0969 17.9956 14.0398 18.2796 13.9289 18.5447C13.8179 18.8097 13.6554 19.0505 13.4504 19.2533C13.2454 19.4562 13.0021 19.6171 12.7343 19.7269C12.4665 19.8366 12.1795 19.8931 11.8896 19.8931Z" fill="#292525"/>
<path d="M11.1789 13.1857C11.0447 13.1834 10.9167 13.129 10.8226 13.0342C10.7285 12.9394 10.6758 12.8118 10.6758 12.6789V11.1288C10.6857 11.0007 10.7441 10.881 10.8393 10.7936C10.9345 10.7063 11.0596 10.6578 11.1894 10.6578C11.3192 10.6578 11.4443 10.7063 11.5395 10.7936C11.6348 10.881 11.6932 11.0007 11.7031 11.1288V12.6789C11.7031 12.7465 11.6894 12.8134 11.663 12.8756C11.6365 12.9379 11.5977 12.9943 11.5488 13.0415C11.5 13.0888 11.4421 13.1258 11.3786 13.1506C11.3151 13.1754 11.2472 13.1873 11.1789 13.1857Z" fill="#292525"/>
<path d="M11.1789 21.4433C11.0449 21.4402 10.9174 21.3855 10.8234 21.2909C10.7295 21.1963 10.6765 21.0691 10.6758 20.9364V19.3863C10.6857 19.2582 10.7441 19.1385 10.8393 19.0512C10.9345 18.9639 11.0596 18.9153 11.1894 18.9153C11.3192 18.9153 11.4443 18.9639 11.5395 19.0512C11.6348 19.1385 11.6932 19.2582 11.7031 19.3863V20.9364C11.7027 21.0039 11.6888 21.0706 11.6621 21.1327C11.6355 21.1948 11.5967 21.251 11.5479 21.2982C11.4992 21.3453 11.4415 21.3824 11.3781 21.4073C11.3148 21.4322 11.2471 21.4445 11.1789 21.4433Z" fill="#292525"/>
<path d="M23.8298 20.2154C23.7709 20.215 23.7132 20.1997 23.662 20.1709C23.6088 20.1416 23.5646 20.0986 23.534 20.0464C23.5034 19.9942 23.4876 19.9348 23.4883 19.8745V18.1169H20.6012C20.5106 18.1169 20.4238 18.0813 20.3598 18.018C20.2957 17.9546 20.2598 17.8686 20.2598 17.779C20.2598 17.6894 20.2957 17.6035 20.3598 17.5401C20.4238 17.4767 20.5106 17.4411 20.6012 17.4411H23.8298C23.9203 17.4411 24.0072 17.4767 24.0712 17.5401C24.1352 17.6035 24.1712 17.6894 24.1712 17.779V19.261L29.5112 16.0007L24.1712 12.7048V14.2786C24.1712 14.323 24.1624 14.3669 24.1452 14.4079C24.128 14.4489 24.1029 14.4862 24.0712 14.5175C24.0395 14.5489 24.0018 14.5738 23.9604 14.5908C23.919 14.6078 23.8746 14.6165 23.8298 14.6165H22.2125C22.1652 14.6209 22.1174 14.6155 22.0724 14.6006C22.0273 14.5857 21.9858 14.5616 21.9507 14.53C21.9155 14.4983 21.8875 14.4597 21.8683 14.4167C21.849 14.3737 21.8391 14.3271 21.8391 14.2801C21.8391 14.2331 21.849 14.1865 21.8683 14.1435C21.8875 14.1005 21.9155 14.0619 21.9507 14.0303C21.9858 13.9986 22.0273 13.9745 22.0724 13.9596C22.1174 13.9447 22.1652 13.9393 22.2125 13.9437H23.4794V12.0853C23.4793 12.0248 23.4956 11.9653 23.5267 11.9132C23.5578 11.861 23.6025 11.8181 23.6561 11.7889C23.7082 11.7584 23.7677 11.7423 23.8283 11.7423C23.8889 11.7423 23.9483 11.7584 24.0005 11.7889L30.3378 15.7428C30.3886 15.7739 30.4303 15.8176 30.4587 15.8696C30.4871 15.9216 30.5011 15.9801 30.4996 16.0392C30.5002 16.0985 30.4854 16.1569 30.4566 16.2088C30.4277 16.2608 30.3858 16.3044 30.3348 16.3356L24.0065 20.1887C23.9511 20.2133 23.89 20.2225 23.8298 20.2154Z" fill="#292525"/>
</svg>
