<svg width="33" height="32" viewBox="0 0 33 32" fill="none" xmlns="http://www.w3.org/2000/svg">
<g clip-path="url(#clip0_2811_26781)">
<path fill-rule="evenodd" clip-rule="evenodd" d="M8.89141 26.6144H27.6736C28.9988 26.6144 30.0738 25.3031 30.0738 23.6856V6.27583C30.0738 4.65939 28.9983 3.34702 27.6736 3.34702H8.09467H7.23623H4.68145C3.35578 3.34702 2.28125 4.65884 2.28125 6.27583V23.6856C2.28125 25.3035 3.35507 26.6144 4.68003 26.6144H8.03145H8.89141Z" fill="white"/>
<path fill-rule="evenodd" clip-rule="evenodd" d="M9.51729 5.51715H6.10408C4.97441 5.51715 4.05957 6.63521 4.05957 8.01194V25.4217C4.05957 26.8002 4.97441 27.9165 6.10266 27.9165H10.314L19.0939 17.2029L9.51729 5.51715Z" fill="#FFC708"/>
<path fill-rule="evenodd" clip-rule="evenodd" d="M17.9316 20.7083V21.5764H22.1999V20.7083H17.9316ZM23.6227 20.7083V21.5764H26.4682V20.7083H23.6227Z" fill="#292525"/>
<path fill-rule="evenodd" clip-rule="evenodd" d="M23.9557 6.81944L27.1348 10.6989L23.9557 14.5783L20.7764 10.6989L23.9557 6.81944ZM26.1289 10.6992L23.955 8.04646L21.7825 10.6992L23.955 13.3502L26.1289 10.6992Z" fill="#292525"/>
<path fill-rule="evenodd" clip-rule="evenodd" d="M8.09467 3.34702L8.34617 3.47415L18.1742 15.4668L9.14292 26.4873L8.89141 26.6144H4.68003C3.35507 26.6144 2.28125 25.3035 2.28125 23.6856V6.27583C2.28125 4.65884 3.35578 3.34702 4.68145 3.34702H8.09467ZM8.7443 25.7448L17.1685 15.467L7.94613 4.21351L4.68145 4.21507C3.80704 4.21507 3.08783 5.02639 3.00135 6.06521L2.99263 6.27583V23.6856C2.99263 24.8241 3.74803 25.7463 4.68003 25.7463L8.7443 25.7448Z" fill="#292525"/>
<path fill-rule="evenodd" clip-rule="evenodd" d="M7.23633 3.34702H27.6737C28.9985 3.34702 30.0739 4.65939 30.0739 6.27583V23.6856C30.0739 25.3031 28.9989 26.6144 27.6737 26.6144H8.03155L17.1672 15.4653L7.23633 3.34702ZM8.95213 4.21351L18.1743 15.4668L9.74887 25.7448L27.6737 25.7463C28.5477 25.7463 29.2674 24.9354 29.3539 23.8963L29.3625 23.6856V6.27583C29.3625 5.1388 28.6055 4.21507 27.6737 4.21507L8.95213 4.21351Z" fill="#292525"/>
<path d="M2.63281 12.0519L2.64115 11.1839L3.32351 11.2043L4.63611 11.2722C4.79204 11.2821 4.95111 11.2929 5.11306 11.3046C6.96466 11.4377 8.81662 11.6562 10.5474 11.9801C13.9457 12.616 16.4502 13.5696 17.7388 14.9497L17.9229 15.1599L17.4198 15.7738C16.3392 14.455 13.8613 13.4783 10.4396 12.838C8.73314 12.5188 6.90236 12.3028 5.07122 12.1712L4.14581 12.112L2.63281 12.0519Z" fill="#292525"/>
<path d="M17.4198 15.1599L17.9229 15.7738C16.6984 17.2679 14.1156 18.286 10.5474 18.9537C8.81662 19.2774 6.96466 19.496 5.11306 19.6292L4.63611 19.6615L3.13986 19.7361L2.64115 19.7498L2.63281 18.8818L3.30079 18.8616L4.14581 18.8217C4.44153 18.8052 4.75064 18.7856 5.07122 18.7625C6.90236 18.6309 8.73314 18.4149 10.4396 18.0957C13.6983 17.4858 16.101 16.5708 17.256 15.346L17.4198 15.1599Z" fill="#292525"/>
<path d="M10.9907 12.4363V18.497H10.2793V12.4363H10.9907Z" fill="#292525"/>
</g>
<defs>
<clipPath id="clip0_2811_26781">
<rect width="28" height="25" fill="white" transform="translate(2.16699 3)"/>
</clipPath>
</defs>
</svg>
